G04 #@! TF.GenerationSoftware,KiCad,Pcbnew,(5.1.2-1)-1*
G04 #@! TF.CreationDate,2022-01-26T01:19:45+00:00*
G04 #@! TF.ProjectId,mz25key,6d7a3235-6b65-4792-9e6b-696361645f70,rev?*
G04 #@! TF.SameCoordinates,Original*
G04 #@! TF.FileFunction,Copper,L1,Top*
G04 #@! TF.FilePolarity,Positive*
%FSLAX46Y46*%
G04 Gerber Fmt 4.6, Leading zero omitted, Abs format (unit mm)*
G04 Created by KiCad (PCBNEW (5.1.2-1)-1) date 2022-01-26 01:19:45*
%MOMM*%
%LPD*%
G04 APERTURE LIST*
%ADD10C,0.100000*%
%ADD11C,0.975000*%
%ADD12O,1.000000X1.000000*%
%ADD13R,1.000000X1.000000*%
%ADD14O,1.350000X1.350000*%
%ADD15R,1.350000X1.350000*%
%ADD16C,1.250000*%
%ADD17C,1.500000*%
%ADD18R,2.500000X3.000000*%
%ADD19R,3.000000X2.500000*%
%ADD20C,0.600000*%
%ADD21R,2.000000X1.500000*%
%ADD22R,2.000000X3.800000*%
%ADD23R,1.550000X1.300000*%
%ADD24C,1.425000*%
%ADD25C,1.800000*%
%ADD26R,1.800000X1.800000*%
%ADD27C,1.400000*%
%ADD28C,0.800000*%
%ADD29C,0.500000*%
%ADD30C,0.400000*%
%ADD31C,0.381000*%
%ADD32C,0.254000*%
%ADD33C,0.152400*%
G04 APERTURE END LIST*
D10*
G36*
X67345142Y-86051174D02*
G01*
X67368803Y-86054684D01*
X67392007Y-86060496D01*
X67414529Y-86068554D01*
X67436153Y-86078782D01*
X67456670Y-86091079D01*
X67475883Y-86105329D01*
X67493607Y-86121393D01*
X67509671Y-86139117D01*
X67523921Y-86158330D01*
X67536218Y-86178847D01*
X67546446Y-86200471D01*
X67554504Y-86222993D01*
X67560316Y-86246197D01*
X67563826Y-86269858D01*
X67565000Y-86293750D01*
X67565000Y-87206250D01*
X67563826Y-87230142D01*
X67560316Y-87253803D01*
X67554504Y-87277007D01*
X67546446Y-87299529D01*
X67536218Y-87321153D01*
X67523921Y-87341670D01*
X67509671Y-87360883D01*
X67493607Y-87378607D01*
X67475883Y-87394671D01*
X67456670Y-87408921D01*
X67436153Y-87421218D01*
X67414529Y-87431446D01*
X67392007Y-87439504D01*
X67368803Y-87445316D01*
X67345142Y-87448826D01*
X67321250Y-87450000D01*
X66833750Y-87450000D01*
X66809858Y-87448826D01*
X66786197Y-87445316D01*
X66762993Y-87439504D01*
X66740471Y-87431446D01*
X66718847Y-87421218D01*
X66698330Y-87408921D01*
X66679117Y-87394671D01*
X66661393Y-87378607D01*
X66645329Y-87360883D01*
X66631079Y-87341670D01*
X66618782Y-87321153D01*
X66608554Y-87299529D01*
X66600496Y-87277007D01*
X66594684Y-87253803D01*
X66591174Y-87230142D01*
X66590000Y-87206250D01*
X66590000Y-86293750D01*
X66591174Y-86269858D01*
X66594684Y-86246197D01*
X66600496Y-86222993D01*
X66608554Y-86200471D01*
X66618782Y-86178847D01*
X66631079Y-86158330D01*
X66645329Y-86139117D01*
X66661393Y-86121393D01*
X66679117Y-86105329D01*
X66698330Y-86091079D01*
X66718847Y-86078782D01*
X66740471Y-86068554D01*
X66762993Y-86060496D01*
X66786197Y-86054684D01*
X66809858Y-86051174D01*
X66833750Y-86050000D01*
X67321250Y-86050000D01*
X67345142Y-86051174D01*
X67345142Y-86051174D01*
G37*
D11*
X67077500Y-86750000D03*
D10*
G36*
X65470142Y-86051174D02*
G01*
X65493803Y-86054684D01*
X65517007Y-86060496D01*
X65539529Y-86068554D01*
X65561153Y-86078782D01*
X65581670Y-86091079D01*
X65600883Y-86105329D01*
X65618607Y-86121393D01*
X65634671Y-86139117D01*
X65648921Y-86158330D01*
X65661218Y-86178847D01*
X65671446Y-86200471D01*
X65679504Y-86222993D01*
X65685316Y-86246197D01*
X65688826Y-86269858D01*
X65690000Y-86293750D01*
X65690000Y-87206250D01*
X65688826Y-87230142D01*
X65685316Y-87253803D01*
X65679504Y-87277007D01*
X65671446Y-87299529D01*
X65661218Y-87321153D01*
X65648921Y-87341670D01*
X65634671Y-87360883D01*
X65618607Y-87378607D01*
X65600883Y-87394671D01*
X65581670Y-87408921D01*
X65561153Y-87421218D01*
X65539529Y-87431446D01*
X65517007Y-87439504D01*
X65493803Y-87445316D01*
X65470142Y-87448826D01*
X65446250Y-87450000D01*
X64958750Y-87450000D01*
X64934858Y-87448826D01*
X64911197Y-87445316D01*
X64887993Y-87439504D01*
X64865471Y-87431446D01*
X64843847Y-87421218D01*
X64823330Y-87408921D01*
X64804117Y-87394671D01*
X64786393Y-87378607D01*
X64770329Y-87360883D01*
X64756079Y-87341670D01*
X64743782Y-87321153D01*
X64733554Y-87299529D01*
X64725496Y-87277007D01*
X64719684Y-87253803D01*
X64716174Y-87230142D01*
X64715000Y-87206250D01*
X64715000Y-86293750D01*
X64716174Y-86269858D01*
X64719684Y-86246197D01*
X64725496Y-86222993D01*
X64733554Y-86200471D01*
X64743782Y-86178847D01*
X64756079Y-86158330D01*
X64770329Y-86139117D01*
X64786393Y-86121393D01*
X64804117Y-86105329D01*
X64823330Y-86091079D01*
X64843847Y-86078782D01*
X64865471Y-86068554D01*
X64887993Y-86060496D01*
X64911197Y-86054684D01*
X64934858Y-86051174D01*
X64958750Y-86050000D01*
X65446250Y-86050000D01*
X65470142Y-86051174D01*
X65470142Y-86051174D01*
G37*
D11*
X65202500Y-86750000D03*
D10*
G36*
X68990142Y-86051174D02*
G01*
X69013803Y-86054684D01*
X69037007Y-86060496D01*
X69059529Y-86068554D01*
X69081153Y-86078782D01*
X69101670Y-86091079D01*
X69120883Y-86105329D01*
X69138607Y-86121393D01*
X69154671Y-86139117D01*
X69168921Y-86158330D01*
X69181218Y-86178847D01*
X69191446Y-86200471D01*
X69199504Y-86222993D01*
X69205316Y-86246197D01*
X69208826Y-86269858D01*
X69210000Y-86293750D01*
X69210000Y-87206250D01*
X69208826Y-87230142D01*
X69205316Y-87253803D01*
X69199504Y-87277007D01*
X69191446Y-87299529D01*
X69181218Y-87321153D01*
X69168921Y-87341670D01*
X69154671Y-87360883D01*
X69138607Y-87378607D01*
X69120883Y-87394671D01*
X69101670Y-87408921D01*
X69081153Y-87421218D01*
X69059529Y-87431446D01*
X69037007Y-87439504D01*
X69013803Y-87445316D01*
X68990142Y-87448826D01*
X68966250Y-87450000D01*
X68478750Y-87450000D01*
X68454858Y-87448826D01*
X68431197Y-87445316D01*
X68407993Y-87439504D01*
X68385471Y-87431446D01*
X68363847Y-87421218D01*
X68343330Y-87408921D01*
X68324117Y-87394671D01*
X68306393Y-87378607D01*
X68290329Y-87360883D01*
X68276079Y-87341670D01*
X68263782Y-87321153D01*
X68253554Y-87299529D01*
X68245496Y-87277007D01*
X68239684Y-87253803D01*
X68236174Y-87230142D01*
X68235000Y-87206250D01*
X68235000Y-86293750D01*
X68236174Y-86269858D01*
X68239684Y-86246197D01*
X68245496Y-86222993D01*
X68253554Y-86200471D01*
X68263782Y-86178847D01*
X68276079Y-86158330D01*
X68290329Y-86139117D01*
X68306393Y-86121393D01*
X68324117Y-86105329D01*
X68343330Y-86091079D01*
X68363847Y-86078782D01*
X68385471Y-86068554D01*
X68407993Y-86060496D01*
X68431197Y-86054684D01*
X68454858Y-86051174D01*
X68478750Y-86050000D01*
X68966250Y-86050000D01*
X68990142Y-86051174D01*
X68990142Y-86051174D01*
G37*
D11*
X68722500Y-86750000D03*
D10*
G36*
X70865142Y-86051174D02*
G01*
X70888803Y-86054684D01*
X70912007Y-86060496D01*
X70934529Y-86068554D01*
X70956153Y-86078782D01*
X70976670Y-86091079D01*
X70995883Y-86105329D01*
X71013607Y-86121393D01*
X71029671Y-86139117D01*
X71043921Y-86158330D01*
X71056218Y-86178847D01*
X71066446Y-86200471D01*
X71074504Y-86222993D01*
X71080316Y-86246197D01*
X71083826Y-86269858D01*
X71085000Y-86293750D01*
X71085000Y-87206250D01*
X71083826Y-87230142D01*
X71080316Y-87253803D01*
X71074504Y-87277007D01*
X71066446Y-87299529D01*
X71056218Y-87321153D01*
X71043921Y-87341670D01*
X71029671Y-87360883D01*
X71013607Y-87378607D01*
X70995883Y-87394671D01*
X70976670Y-87408921D01*
X70956153Y-87421218D01*
X70934529Y-87431446D01*
X70912007Y-87439504D01*
X70888803Y-87445316D01*
X70865142Y-87448826D01*
X70841250Y-87450000D01*
X70353750Y-87450000D01*
X70329858Y-87448826D01*
X70306197Y-87445316D01*
X70282993Y-87439504D01*
X70260471Y-87431446D01*
X70238847Y-87421218D01*
X70218330Y-87408921D01*
X70199117Y-87394671D01*
X70181393Y-87378607D01*
X70165329Y-87360883D01*
X70151079Y-87341670D01*
X70138782Y-87321153D01*
X70128554Y-87299529D01*
X70120496Y-87277007D01*
X70114684Y-87253803D01*
X70111174Y-87230142D01*
X70110000Y-87206250D01*
X70110000Y-86293750D01*
X70111174Y-86269858D01*
X70114684Y-86246197D01*
X70120496Y-86222993D01*
X70128554Y-86200471D01*
X70138782Y-86178847D01*
X70151079Y-86158330D01*
X70165329Y-86139117D01*
X70181393Y-86121393D01*
X70199117Y-86105329D01*
X70218330Y-86091079D01*
X70238847Y-86078782D01*
X70260471Y-86068554D01*
X70282993Y-86060496D01*
X70306197Y-86054684D01*
X70329858Y-86051174D01*
X70353750Y-86050000D01*
X70841250Y-86050000D01*
X70865142Y-86051174D01*
X70865142Y-86051174D01*
G37*
D11*
X70597500Y-86750000D03*
D12*
X64670000Y-104560000D03*
D13*
X65940000Y-104560000D03*
D12*
X68370000Y-104560000D03*
D13*
X69640000Y-104560000D03*
D10*
G36*
X76265142Y-101531174D02*
G01*
X76288803Y-101534684D01*
X76312007Y-101540496D01*
X76334529Y-101548554D01*
X76356153Y-101558782D01*
X76376670Y-101571079D01*
X76395883Y-101585329D01*
X76413607Y-101601393D01*
X76429671Y-101619117D01*
X76443921Y-101638330D01*
X76456218Y-101658847D01*
X76466446Y-101680471D01*
X76474504Y-101702993D01*
X76480316Y-101726197D01*
X76483826Y-101749858D01*
X76485000Y-101773750D01*
X76485000Y-102686250D01*
X76483826Y-102710142D01*
X76480316Y-102733803D01*
X76474504Y-102757007D01*
X76466446Y-102779529D01*
X76456218Y-102801153D01*
X76443921Y-102821670D01*
X76429671Y-102840883D01*
X76413607Y-102858607D01*
X76395883Y-102874671D01*
X76376670Y-102888921D01*
X76356153Y-102901218D01*
X76334529Y-102911446D01*
X76312007Y-102919504D01*
X76288803Y-102925316D01*
X76265142Y-102928826D01*
X76241250Y-102930000D01*
X75753750Y-102930000D01*
X75729858Y-102928826D01*
X75706197Y-102925316D01*
X75682993Y-102919504D01*
X75660471Y-102911446D01*
X75638847Y-102901218D01*
X75618330Y-102888921D01*
X75599117Y-102874671D01*
X75581393Y-102858607D01*
X75565329Y-102840883D01*
X75551079Y-102821670D01*
X75538782Y-102801153D01*
X75528554Y-102779529D01*
X75520496Y-102757007D01*
X75514684Y-102733803D01*
X75511174Y-102710142D01*
X75510000Y-102686250D01*
X75510000Y-101773750D01*
X75511174Y-101749858D01*
X75514684Y-101726197D01*
X75520496Y-101702993D01*
X75528554Y-101680471D01*
X75538782Y-101658847D01*
X75551079Y-101638330D01*
X75565329Y-101619117D01*
X75581393Y-101601393D01*
X75599117Y-101585329D01*
X75618330Y-101571079D01*
X75638847Y-101558782D01*
X75660471Y-101548554D01*
X75682993Y-101540496D01*
X75706197Y-101534684D01*
X75729858Y-101531174D01*
X75753750Y-101530000D01*
X76241250Y-101530000D01*
X76265142Y-101531174D01*
X76265142Y-101531174D01*
G37*
D11*
X75997500Y-102230000D03*
D10*
G36*
X74390142Y-101531174D02*
G01*
X74413803Y-101534684D01*
X74437007Y-101540496D01*
X74459529Y-101548554D01*
X74481153Y-101558782D01*
X74501670Y-101571079D01*
X74520883Y-101585329D01*
X74538607Y-101601393D01*
X74554671Y-101619117D01*
X74568921Y-101638330D01*
X74581218Y-101658847D01*
X74591446Y-101680471D01*
X74599504Y-101702993D01*
X74605316Y-101726197D01*
X74608826Y-101749858D01*
X74610000Y-101773750D01*
X74610000Y-102686250D01*
X74608826Y-102710142D01*
X74605316Y-102733803D01*
X74599504Y-102757007D01*
X74591446Y-102779529D01*
X74581218Y-102801153D01*
X74568921Y-102821670D01*
X74554671Y-102840883D01*
X74538607Y-102858607D01*
X74520883Y-102874671D01*
X74501670Y-102888921D01*
X74481153Y-102901218D01*
X74459529Y-102911446D01*
X74437007Y-102919504D01*
X74413803Y-102925316D01*
X74390142Y-102928826D01*
X74366250Y-102930000D01*
X73878750Y-102930000D01*
X73854858Y-102928826D01*
X73831197Y-102925316D01*
X73807993Y-102919504D01*
X73785471Y-102911446D01*
X73763847Y-102901218D01*
X73743330Y-102888921D01*
X73724117Y-102874671D01*
X73706393Y-102858607D01*
X73690329Y-102840883D01*
X73676079Y-102821670D01*
X73663782Y-102801153D01*
X73653554Y-102779529D01*
X73645496Y-102757007D01*
X73639684Y-102733803D01*
X73636174Y-102710142D01*
X73635000Y-102686250D01*
X73635000Y-101773750D01*
X73636174Y-101749858D01*
X73639684Y-101726197D01*
X73645496Y-101702993D01*
X73653554Y-101680471D01*
X73663782Y-101658847D01*
X73676079Y-101638330D01*
X73690329Y-101619117D01*
X73706393Y-101601393D01*
X73724117Y-101585329D01*
X73743330Y-101571079D01*
X73763847Y-101558782D01*
X73785471Y-101548554D01*
X73807993Y-101540496D01*
X73831197Y-101534684D01*
X73854858Y-101531174D01*
X73878750Y-101530000D01*
X74366250Y-101530000D01*
X74390142Y-101531174D01*
X74390142Y-101531174D01*
G37*
D11*
X74122500Y-102230000D03*
D14*
X70140000Y-81830000D03*
X68140000Y-81830000D03*
X66140000Y-81830000D03*
X64140000Y-81830000D03*
X62140000Y-81830000D03*
X60140000Y-81830000D03*
X58140000Y-81830000D03*
D15*
X56140000Y-81830000D03*
D10*
G36*
X59649504Y-85106204D02*
G01*
X59673773Y-85109804D01*
X59697571Y-85115765D01*
X59720671Y-85124030D01*
X59742849Y-85134520D01*
X59763893Y-85147133D01*
X59783598Y-85161747D01*
X59801777Y-85178223D01*
X59818253Y-85196402D01*
X59832867Y-85216107D01*
X59845480Y-85237151D01*
X59855970Y-85259329D01*
X59864235Y-85282429D01*
X59870196Y-85306227D01*
X59873796Y-85330496D01*
X59875000Y-85355000D01*
X59875000Y-86605000D01*
X59873796Y-86629504D01*
X59870196Y-86653773D01*
X59864235Y-86677571D01*
X59855970Y-86700671D01*
X59845480Y-86722849D01*
X59832867Y-86743893D01*
X59818253Y-86763598D01*
X59801777Y-86781777D01*
X59783598Y-86798253D01*
X59763893Y-86812867D01*
X59742849Y-86825480D01*
X59720671Y-86835970D01*
X59697571Y-86844235D01*
X59673773Y-86850196D01*
X59649504Y-86853796D01*
X59625000Y-86855000D01*
X58875000Y-86855000D01*
X58850496Y-86853796D01*
X58826227Y-86850196D01*
X58802429Y-86844235D01*
X58779329Y-86835970D01*
X58757151Y-86825480D01*
X58736107Y-86812867D01*
X58716402Y-86798253D01*
X58698223Y-86781777D01*
X58681747Y-86763598D01*
X58667133Y-86743893D01*
X58654520Y-86722849D01*
X58644030Y-86700671D01*
X58635765Y-86677571D01*
X58629804Y-86653773D01*
X58626204Y-86629504D01*
X58625000Y-86605000D01*
X58625000Y-85355000D01*
X58626204Y-85330496D01*
X58629804Y-85306227D01*
X58635765Y-85282429D01*
X58644030Y-85259329D01*
X58654520Y-85237151D01*
X58667133Y-85216107D01*
X58681747Y-85196402D01*
X58698223Y-85178223D01*
X58716402Y-85161747D01*
X58736107Y-85147133D01*
X58757151Y-85134520D01*
X58779329Y-85124030D01*
X58802429Y-85115765D01*
X58826227Y-85109804D01*
X58850496Y-85106204D01*
X58875000Y-85105000D01*
X59625000Y-85105000D01*
X59649504Y-85106204D01*
X59649504Y-85106204D01*
G37*
D16*
X59250000Y-85980000D03*
D10*
G36*
X62449504Y-85106204D02*
G01*
X62473773Y-85109804D01*
X62497571Y-85115765D01*
X62520671Y-85124030D01*
X62542849Y-85134520D01*
X62563893Y-85147133D01*
X62583598Y-85161747D01*
X62601777Y-85178223D01*
X62618253Y-85196402D01*
X62632867Y-85216107D01*
X62645480Y-85237151D01*
X62655970Y-85259329D01*
X62664235Y-85282429D01*
X62670196Y-85306227D01*
X62673796Y-85330496D01*
X62675000Y-85355000D01*
X62675000Y-86605000D01*
X62673796Y-86629504D01*
X62670196Y-86653773D01*
X62664235Y-86677571D01*
X62655970Y-86700671D01*
X62645480Y-86722849D01*
X62632867Y-86743893D01*
X62618253Y-86763598D01*
X62601777Y-86781777D01*
X62583598Y-86798253D01*
X62563893Y-86812867D01*
X62542849Y-86825480D01*
X62520671Y-86835970D01*
X62497571Y-86844235D01*
X62473773Y-86850196D01*
X62449504Y-86853796D01*
X62425000Y-86855000D01*
X61675000Y-86855000D01*
X61650496Y-86853796D01*
X61626227Y-86850196D01*
X61602429Y-86844235D01*
X61579329Y-86835970D01*
X61557151Y-86825480D01*
X61536107Y-86812867D01*
X61516402Y-86798253D01*
X61498223Y-86781777D01*
X61481747Y-86763598D01*
X61467133Y-86743893D01*
X61454520Y-86722849D01*
X61444030Y-86700671D01*
X61435765Y-86677571D01*
X61429804Y-86653773D01*
X61426204Y-86629504D01*
X61425000Y-86605000D01*
X61425000Y-85355000D01*
X61426204Y-85330496D01*
X61429804Y-85306227D01*
X61435765Y-85282429D01*
X61444030Y-85259329D01*
X61454520Y-85237151D01*
X61467133Y-85216107D01*
X61481747Y-85196402D01*
X61498223Y-85178223D01*
X61516402Y-85161747D01*
X61536107Y-85147133D01*
X61557151Y-85134520D01*
X61579329Y-85124030D01*
X61602429Y-85115765D01*
X61626227Y-85109804D01*
X61650496Y-85106204D01*
X61675000Y-85105000D01*
X62425000Y-85105000D01*
X62449504Y-85106204D01*
X62449504Y-85106204D01*
G37*
D16*
X62050000Y-85980000D03*
D17*
X92820000Y-94336000D03*
X92820000Y-92177000D03*
X90280000Y-90145000D03*
X90280000Y-96495000D03*
X92820000Y-96495000D03*
X92820000Y-90145000D03*
D18*
X96567800Y-93320000D03*
D19*
X95360000Y-86335000D03*
X95360000Y-100305000D03*
D10*
G36*
X61245142Y-89841174D02*
G01*
X61268803Y-89844684D01*
X61292007Y-89850496D01*
X61314529Y-89858554D01*
X61336153Y-89868782D01*
X61356670Y-89881079D01*
X61375883Y-89895329D01*
X61393607Y-89911393D01*
X61409671Y-89929117D01*
X61423921Y-89948330D01*
X61436218Y-89968847D01*
X61446446Y-89990471D01*
X61454504Y-90012993D01*
X61460316Y-90036197D01*
X61463826Y-90059858D01*
X61465000Y-90083750D01*
X61465000Y-90996250D01*
X61463826Y-91020142D01*
X61460316Y-91043803D01*
X61454504Y-91067007D01*
X61446446Y-91089529D01*
X61436218Y-91111153D01*
X61423921Y-91131670D01*
X61409671Y-91150883D01*
X61393607Y-91168607D01*
X61375883Y-91184671D01*
X61356670Y-91198921D01*
X61336153Y-91211218D01*
X61314529Y-91221446D01*
X61292007Y-91229504D01*
X61268803Y-91235316D01*
X61245142Y-91238826D01*
X61221250Y-91240000D01*
X60733750Y-91240000D01*
X60709858Y-91238826D01*
X60686197Y-91235316D01*
X60662993Y-91229504D01*
X60640471Y-91221446D01*
X60618847Y-91211218D01*
X60598330Y-91198921D01*
X60579117Y-91184671D01*
X60561393Y-91168607D01*
X60545329Y-91150883D01*
X60531079Y-91131670D01*
X60518782Y-91111153D01*
X60508554Y-91089529D01*
X60500496Y-91067007D01*
X60494684Y-91043803D01*
X60491174Y-91020142D01*
X60490000Y-90996250D01*
X60490000Y-90083750D01*
X60491174Y-90059858D01*
X60494684Y-90036197D01*
X60500496Y-90012993D01*
X60508554Y-89990471D01*
X60518782Y-89968847D01*
X60531079Y-89948330D01*
X60545329Y-89929117D01*
X60561393Y-89911393D01*
X60579117Y-89895329D01*
X60598330Y-89881079D01*
X60618847Y-89868782D01*
X60640471Y-89858554D01*
X60662993Y-89850496D01*
X60686197Y-89844684D01*
X60709858Y-89841174D01*
X60733750Y-89840000D01*
X61221250Y-89840000D01*
X61245142Y-89841174D01*
X61245142Y-89841174D01*
G37*
D11*
X60977500Y-90540000D03*
D10*
G36*
X59370142Y-89841174D02*
G01*
X59393803Y-89844684D01*
X59417007Y-89850496D01*
X59439529Y-89858554D01*
X59461153Y-89868782D01*
X59481670Y-89881079D01*
X59500883Y-89895329D01*
X59518607Y-89911393D01*
X59534671Y-89929117D01*
X59548921Y-89948330D01*
X59561218Y-89968847D01*
X59571446Y-89990471D01*
X59579504Y-90012993D01*
X59585316Y-90036197D01*
X59588826Y-90059858D01*
X59590000Y-90083750D01*
X59590000Y-90996250D01*
X59588826Y-91020142D01*
X59585316Y-91043803D01*
X59579504Y-91067007D01*
X59571446Y-91089529D01*
X59561218Y-91111153D01*
X59548921Y-91131670D01*
X59534671Y-91150883D01*
X59518607Y-91168607D01*
X59500883Y-91184671D01*
X59481670Y-91198921D01*
X59461153Y-91211218D01*
X59439529Y-91221446D01*
X59417007Y-91229504D01*
X59393803Y-91235316D01*
X59370142Y-91238826D01*
X59346250Y-91240000D01*
X58858750Y-91240000D01*
X58834858Y-91238826D01*
X58811197Y-91235316D01*
X58787993Y-91229504D01*
X58765471Y-91221446D01*
X58743847Y-91211218D01*
X58723330Y-91198921D01*
X58704117Y-91184671D01*
X58686393Y-91168607D01*
X58670329Y-91150883D01*
X58656079Y-91131670D01*
X58643782Y-91111153D01*
X58633554Y-91089529D01*
X58625496Y-91067007D01*
X58619684Y-91043803D01*
X58616174Y-91020142D01*
X58615000Y-90996250D01*
X58615000Y-90083750D01*
X58616174Y-90059858D01*
X58619684Y-90036197D01*
X58625496Y-90012993D01*
X58633554Y-89990471D01*
X58643782Y-89968847D01*
X58656079Y-89948330D01*
X58670329Y-89929117D01*
X58686393Y-89911393D01*
X58704117Y-89895329D01*
X58723330Y-89881079D01*
X58743847Y-89868782D01*
X58765471Y-89858554D01*
X58787993Y-89850496D01*
X58811197Y-89844684D01*
X58834858Y-89841174D01*
X58858750Y-89840000D01*
X59346250Y-89840000D01*
X59370142Y-89841174D01*
X59370142Y-89841174D01*
G37*
D11*
X59102500Y-90540000D03*
D10*
G36*
X59639504Y-87466204D02*
G01*
X59663773Y-87469804D01*
X59687571Y-87475765D01*
X59710671Y-87484030D01*
X59732849Y-87494520D01*
X59753893Y-87507133D01*
X59773598Y-87521747D01*
X59791777Y-87538223D01*
X59808253Y-87556402D01*
X59822867Y-87576107D01*
X59835480Y-87597151D01*
X59845970Y-87619329D01*
X59854235Y-87642429D01*
X59860196Y-87666227D01*
X59863796Y-87690496D01*
X59865000Y-87715000D01*
X59865000Y-88965000D01*
X59863796Y-88989504D01*
X59860196Y-89013773D01*
X59854235Y-89037571D01*
X59845970Y-89060671D01*
X59835480Y-89082849D01*
X59822867Y-89103893D01*
X59808253Y-89123598D01*
X59791777Y-89141777D01*
X59773598Y-89158253D01*
X59753893Y-89172867D01*
X59732849Y-89185480D01*
X59710671Y-89195970D01*
X59687571Y-89204235D01*
X59663773Y-89210196D01*
X59639504Y-89213796D01*
X59615000Y-89215000D01*
X58865000Y-89215000D01*
X58840496Y-89213796D01*
X58816227Y-89210196D01*
X58792429Y-89204235D01*
X58769329Y-89195970D01*
X58747151Y-89185480D01*
X58726107Y-89172867D01*
X58706402Y-89158253D01*
X58688223Y-89141777D01*
X58671747Y-89123598D01*
X58657133Y-89103893D01*
X58644520Y-89082849D01*
X58634030Y-89060671D01*
X58625765Y-89037571D01*
X58619804Y-89013773D01*
X58616204Y-88989504D01*
X58615000Y-88965000D01*
X58615000Y-87715000D01*
X58616204Y-87690496D01*
X58619804Y-87666227D01*
X58625765Y-87642429D01*
X58634030Y-87619329D01*
X58644520Y-87597151D01*
X58657133Y-87576107D01*
X58671747Y-87556402D01*
X58688223Y-87538223D01*
X58706402Y-87521747D01*
X58726107Y-87507133D01*
X58747151Y-87494520D01*
X58769329Y-87484030D01*
X58792429Y-87475765D01*
X58816227Y-87469804D01*
X58840496Y-87466204D01*
X58865000Y-87465000D01*
X59615000Y-87465000D01*
X59639504Y-87466204D01*
X59639504Y-87466204D01*
G37*
D16*
X59240000Y-88340000D03*
D10*
G36*
X62439504Y-87466204D02*
G01*
X62463773Y-87469804D01*
X62487571Y-87475765D01*
X62510671Y-87484030D01*
X62532849Y-87494520D01*
X62553893Y-87507133D01*
X62573598Y-87521747D01*
X62591777Y-87538223D01*
X62608253Y-87556402D01*
X62622867Y-87576107D01*
X62635480Y-87597151D01*
X62645970Y-87619329D01*
X62654235Y-87642429D01*
X62660196Y-87666227D01*
X62663796Y-87690496D01*
X62665000Y-87715000D01*
X62665000Y-88965000D01*
X62663796Y-88989504D01*
X62660196Y-89013773D01*
X62654235Y-89037571D01*
X62645970Y-89060671D01*
X62635480Y-89082849D01*
X62622867Y-89103893D01*
X62608253Y-89123598D01*
X62591777Y-89141777D01*
X62573598Y-89158253D01*
X62553893Y-89172867D01*
X62532849Y-89185480D01*
X62510671Y-89195970D01*
X62487571Y-89204235D01*
X62463773Y-89210196D01*
X62439504Y-89213796D01*
X62415000Y-89215000D01*
X61665000Y-89215000D01*
X61640496Y-89213796D01*
X61616227Y-89210196D01*
X61592429Y-89204235D01*
X61569329Y-89195970D01*
X61547151Y-89185480D01*
X61526107Y-89172867D01*
X61506402Y-89158253D01*
X61488223Y-89141777D01*
X61471747Y-89123598D01*
X61457133Y-89103893D01*
X61444520Y-89082849D01*
X61434030Y-89060671D01*
X61425765Y-89037571D01*
X61419804Y-89013773D01*
X61416204Y-88989504D01*
X61415000Y-88965000D01*
X61415000Y-87715000D01*
X61416204Y-87690496D01*
X61419804Y-87666227D01*
X61425765Y-87642429D01*
X61434030Y-87619329D01*
X61444520Y-87597151D01*
X61457133Y-87576107D01*
X61471747Y-87556402D01*
X61488223Y-87538223D01*
X61506402Y-87521747D01*
X61526107Y-87507133D01*
X61547151Y-87494520D01*
X61569329Y-87484030D01*
X61592429Y-87475765D01*
X61616227Y-87469804D01*
X61640496Y-87466204D01*
X61665000Y-87465000D01*
X62415000Y-87465000D01*
X62439504Y-87466204D01*
X62439504Y-87466204D01*
G37*
D16*
X62040000Y-88340000D03*
D10*
G36*
X59249703Y-92490722D02*
G01*
X59264264Y-92492882D01*
X59278543Y-92496459D01*
X59292403Y-92501418D01*
X59305710Y-92507712D01*
X59318336Y-92515280D01*
X59330159Y-92524048D01*
X59341066Y-92533934D01*
X59350952Y-92544841D01*
X59359720Y-92556664D01*
X59367288Y-92569290D01*
X59373582Y-92582597D01*
X59378541Y-92596457D01*
X59382118Y-92610736D01*
X59384278Y-92625297D01*
X59385000Y-92640000D01*
X59385000Y-94290000D01*
X59384278Y-94304703D01*
X59382118Y-94319264D01*
X59378541Y-94333543D01*
X59373582Y-94347403D01*
X59367288Y-94360710D01*
X59359720Y-94373336D01*
X59350952Y-94385159D01*
X59341066Y-94396066D01*
X59330159Y-94405952D01*
X59318336Y-94414720D01*
X59305710Y-94422288D01*
X59292403Y-94428582D01*
X59278543Y-94433541D01*
X59264264Y-94437118D01*
X59249703Y-94439278D01*
X59235000Y-94440000D01*
X58935000Y-94440000D01*
X58920297Y-94439278D01*
X58905736Y-94437118D01*
X58891457Y-94433541D01*
X58877597Y-94428582D01*
X58864290Y-94422288D01*
X58851664Y-94414720D01*
X58839841Y-94405952D01*
X58828934Y-94396066D01*
X58819048Y-94385159D01*
X58810280Y-94373336D01*
X58802712Y-94360710D01*
X58796418Y-94347403D01*
X58791459Y-94333543D01*
X58787882Y-94319264D01*
X58785722Y-94304703D01*
X58785000Y-94290000D01*
X58785000Y-92640000D01*
X58785722Y-92625297D01*
X58787882Y-92610736D01*
X58791459Y-92596457D01*
X58796418Y-92582597D01*
X58802712Y-92569290D01*
X58810280Y-92556664D01*
X58819048Y-92544841D01*
X58828934Y-92533934D01*
X58839841Y-92524048D01*
X58851664Y-92515280D01*
X58864290Y-92507712D01*
X58877597Y-92501418D01*
X58891457Y-92496459D01*
X58905736Y-92492882D01*
X58920297Y-92490722D01*
X58935000Y-92490000D01*
X59235000Y-92490000D01*
X59249703Y-92490722D01*
X59249703Y-92490722D01*
G37*
D20*
X59085000Y-93465000D03*
D10*
G36*
X60519703Y-92490722D02*
G01*
X60534264Y-92492882D01*
X60548543Y-92496459D01*
X60562403Y-92501418D01*
X60575710Y-92507712D01*
X60588336Y-92515280D01*
X60600159Y-92524048D01*
X60611066Y-92533934D01*
X60620952Y-92544841D01*
X60629720Y-92556664D01*
X60637288Y-92569290D01*
X60643582Y-92582597D01*
X60648541Y-92596457D01*
X60652118Y-92610736D01*
X60654278Y-92625297D01*
X60655000Y-92640000D01*
X60655000Y-94290000D01*
X60654278Y-94304703D01*
X60652118Y-94319264D01*
X60648541Y-94333543D01*
X60643582Y-94347403D01*
X60637288Y-94360710D01*
X60629720Y-94373336D01*
X60620952Y-94385159D01*
X60611066Y-94396066D01*
X60600159Y-94405952D01*
X60588336Y-94414720D01*
X60575710Y-94422288D01*
X60562403Y-94428582D01*
X60548543Y-94433541D01*
X60534264Y-94437118D01*
X60519703Y-94439278D01*
X60505000Y-94440000D01*
X60205000Y-94440000D01*
X60190297Y-94439278D01*
X60175736Y-94437118D01*
X60161457Y-94433541D01*
X60147597Y-94428582D01*
X60134290Y-94422288D01*
X60121664Y-94414720D01*
X60109841Y-94405952D01*
X60098934Y-94396066D01*
X60089048Y-94385159D01*
X60080280Y-94373336D01*
X60072712Y-94360710D01*
X60066418Y-94347403D01*
X60061459Y-94333543D01*
X60057882Y-94319264D01*
X60055722Y-94304703D01*
X60055000Y-94290000D01*
X60055000Y-92640000D01*
X60055722Y-92625297D01*
X60057882Y-92610736D01*
X60061459Y-92596457D01*
X60066418Y-92582597D01*
X60072712Y-92569290D01*
X60080280Y-92556664D01*
X60089048Y-92544841D01*
X60098934Y-92533934D01*
X60109841Y-92524048D01*
X60121664Y-92515280D01*
X60134290Y-92507712D01*
X60147597Y-92501418D01*
X60161457Y-92496459D01*
X60175736Y-92492882D01*
X60190297Y-92490722D01*
X60205000Y-92490000D01*
X60505000Y-92490000D01*
X60519703Y-92490722D01*
X60519703Y-92490722D01*
G37*
D20*
X60355000Y-93465000D03*
D10*
G36*
X61789703Y-92490722D02*
G01*
X61804264Y-92492882D01*
X61818543Y-92496459D01*
X61832403Y-92501418D01*
X61845710Y-92507712D01*
X61858336Y-92515280D01*
X61870159Y-92524048D01*
X61881066Y-92533934D01*
X61890952Y-92544841D01*
X61899720Y-92556664D01*
X61907288Y-92569290D01*
X61913582Y-92582597D01*
X61918541Y-92596457D01*
X61922118Y-92610736D01*
X61924278Y-92625297D01*
X61925000Y-92640000D01*
X61925000Y-94290000D01*
X61924278Y-94304703D01*
X61922118Y-94319264D01*
X61918541Y-94333543D01*
X61913582Y-94347403D01*
X61907288Y-94360710D01*
X61899720Y-94373336D01*
X61890952Y-94385159D01*
X61881066Y-94396066D01*
X61870159Y-94405952D01*
X61858336Y-94414720D01*
X61845710Y-94422288D01*
X61832403Y-94428582D01*
X61818543Y-94433541D01*
X61804264Y-94437118D01*
X61789703Y-94439278D01*
X61775000Y-94440000D01*
X61475000Y-94440000D01*
X61460297Y-94439278D01*
X61445736Y-94437118D01*
X61431457Y-94433541D01*
X61417597Y-94428582D01*
X61404290Y-94422288D01*
X61391664Y-94414720D01*
X61379841Y-94405952D01*
X61368934Y-94396066D01*
X61359048Y-94385159D01*
X61350280Y-94373336D01*
X61342712Y-94360710D01*
X61336418Y-94347403D01*
X61331459Y-94333543D01*
X61327882Y-94319264D01*
X61325722Y-94304703D01*
X61325000Y-94290000D01*
X61325000Y-92640000D01*
X61325722Y-92625297D01*
X61327882Y-92610736D01*
X61331459Y-92596457D01*
X61336418Y-92582597D01*
X61342712Y-92569290D01*
X61350280Y-92556664D01*
X61359048Y-92544841D01*
X61368934Y-92533934D01*
X61379841Y-92524048D01*
X61391664Y-92515280D01*
X61404290Y-92507712D01*
X61417597Y-92501418D01*
X61431457Y-92496459D01*
X61445736Y-92492882D01*
X61460297Y-92490722D01*
X61475000Y-92490000D01*
X61775000Y-92490000D01*
X61789703Y-92490722D01*
X61789703Y-92490722D01*
G37*
D20*
X61625000Y-93465000D03*
D10*
G36*
X63059703Y-92490722D02*
G01*
X63074264Y-92492882D01*
X63088543Y-92496459D01*
X63102403Y-92501418D01*
X63115710Y-92507712D01*
X63128336Y-92515280D01*
X63140159Y-92524048D01*
X63151066Y-92533934D01*
X63160952Y-92544841D01*
X63169720Y-92556664D01*
X63177288Y-92569290D01*
X63183582Y-92582597D01*
X63188541Y-92596457D01*
X63192118Y-92610736D01*
X63194278Y-92625297D01*
X63195000Y-92640000D01*
X63195000Y-94290000D01*
X63194278Y-94304703D01*
X63192118Y-94319264D01*
X63188541Y-94333543D01*
X63183582Y-94347403D01*
X63177288Y-94360710D01*
X63169720Y-94373336D01*
X63160952Y-94385159D01*
X63151066Y-94396066D01*
X63140159Y-94405952D01*
X63128336Y-94414720D01*
X63115710Y-94422288D01*
X63102403Y-94428582D01*
X63088543Y-94433541D01*
X63074264Y-94437118D01*
X63059703Y-94439278D01*
X63045000Y-94440000D01*
X62745000Y-94440000D01*
X62730297Y-94439278D01*
X62715736Y-94437118D01*
X62701457Y-94433541D01*
X62687597Y-94428582D01*
X62674290Y-94422288D01*
X62661664Y-94414720D01*
X62649841Y-94405952D01*
X62638934Y-94396066D01*
X62629048Y-94385159D01*
X62620280Y-94373336D01*
X62612712Y-94360710D01*
X62606418Y-94347403D01*
X62601459Y-94333543D01*
X62597882Y-94319264D01*
X62595722Y-94304703D01*
X62595000Y-94290000D01*
X62595000Y-92640000D01*
X62595722Y-92625297D01*
X62597882Y-92610736D01*
X62601459Y-92596457D01*
X62606418Y-92582597D01*
X62612712Y-92569290D01*
X62620280Y-92556664D01*
X62629048Y-92544841D01*
X62638934Y-92533934D01*
X62649841Y-92524048D01*
X62661664Y-92515280D01*
X62674290Y-92507712D01*
X62687597Y-92501418D01*
X62701457Y-92496459D01*
X62715736Y-92492882D01*
X62730297Y-92490722D01*
X62745000Y-92490000D01*
X63045000Y-92490000D01*
X63059703Y-92490722D01*
X63059703Y-92490722D01*
G37*
D20*
X62895000Y-93465000D03*
D10*
G36*
X64329703Y-92490722D02*
G01*
X64344264Y-92492882D01*
X64358543Y-92496459D01*
X64372403Y-92501418D01*
X64385710Y-92507712D01*
X64398336Y-92515280D01*
X64410159Y-92524048D01*
X64421066Y-92533934D01*
X64430952Y-92544841D01*
X64439720Y-92556664D01*
X64447288Y-92569290D01*
X64453582Y-92582597D01*
X64458541Y-92596457D01*
X64462118Y-92610736D01*
X64464278Y-92625297D01*
X64465000Y-92640000D01*
X64465000Y-94290000D01*
X64464278Y-94304703D01*
X64462118Y-94319264D01*
X64458541Y-94333543D01*
X64453582Y-94347403D01*
X64447288Y-94360710D01*
X64439720Y-94373336D01*
X64430952Y-94385159D01*
X64421066Y-94396066D01*
X64410159Y-94405952D01*
X64398336Y-94414720D01*
X64385710Y-94422288D01*
X64372403Y-94428582D01*
X64358543Y-94433541D01*
X64344264Y-94437118D01*
X64329703Y-94439278D01*
X64315000Y-94440000D01*
X64015000Y-94440000D01*
X64000297Y-94439278D01*
X63985736Y-94437118D01*
X63971457Y-94433541D01*
X63957597Y-94428582D01*
X63944290Y-94422288D01*
X63931664Y-94414720D01*
X63919841Y-94405952D01*
X63908934Y-94396066D01*
X63899048Y-94385159D01*
X63890280Y-94373336D01*
X63882712Y-94360710D01*
X63876418Y-94347403D01*
X63871459Y-94333543D01*
X63867882Y-94319264D01*
X63865722Y-94304703D01*
X63865000Y-94290000D01*
X63865000Y-92640000D01*
X63865722Y-92625297D01*
X63867882Y-92610736D01*
X63871459Y-92596457D01*
X63876418Y-92582597D01*
X63882712Y-92569290D01*
X63890280Y-92556664D01*
X63899048Y-92544841D01*
X63908934Y-92533934D01*
X63919841Y-92524048D01*
X63931664Y-92515280D01*
X63944290Y-92507712D01*
X63957597Y-92501418D01*
X63971457Y-92496459D01*
X63985736Y-92492882D01*
X64000297Y-92490722D01*
X64015000Y-92490000D01*
X64315000Y-92490000D01*
X64329703Y-92490722D01*
X64329703Y-92490722D01*
G37*
D20*
X64165000Y-93465000D03*
D10*
G36*
X65599703Y-92490722D02*
G01*
X65614264Y-92492882D01*
X65628543Y-92496459D01*
X65642403Y-92501418D01*
X65655710Y-92507712D01*
X65668336Y-92515280D01*
X65680159Y-92524048D01*
X65691066Y-92533934D01*
X65700952Y-92544841D01*
X65709720Y-92556664D01*
X65717288Y-92569290D01*
X65723582Y-92582597D01*
X65728541Y-92596457D01*
X65732118Y-92610736D01*
X65734278Y-92625297D01*
X65735000Y-92640000D01*
X65735000Y-94290000D01*
X65734278Y-94304703D01*
X65732118Y-94319264D01*
X65728541Y-94333543D01*
X65723582Y-94347403D01*
X65717288Y-94360710D01*
X65709720Y-94373336D01*
X65700952Y-94385159D01*
X65691066Y-94396066D01*
X65680159Y-94405952D01*
X65668336Y-94414720D01*
X65655710Y-94422288D01*
X65642403Y-94428582D01*
X65628543Y-94433541D01*
X65614264Y-94437118D01*
X65599703Y-94439278D01*
X65585000Y-94440000D01*
X65285000Y-94440000D01*
X65270297Y-94439278D01*
X65255736Y-94437118D01*
X65241457Y-94433541D01*
X65227597Y-94428582D01*
X65214290Y-94422288D01*
X65201664Y-94414720D01*
X65189841Y-94405952D01*
X65178934Y-94396066D01*
X65169048Y-94385159D01*
X65160280Y-94373336D01*
X65152712Y-94360710D01*
X65146418Y-94347403D01*
X65141459Y-94333543D01*
X65137882Y-94319264D01*
X65135722Y-94304703D01*
X65135000Y-94290000D01*
X65135000Y-92640000D01*
X65135722Y-92625297D01*
X65137882Y-92610736D01*
X65141459Y-92596457D01*
X65146418Y-92582597D01*
X65152712Y-92569290D01*
X65160280Y-92556664D01*
X65169048Y-92544841D01*
X65178934Y-92533934D01*
X65189841Y-92524048D01*
X65201664Y-92515280D01*
X65214290Y-92507712D01*
X65227597Y-92501418D01*
X65241457Y-92496459D01*
X65255736Y-92492882D01*
X65270297Y-92490722D01*
X65285000Y-92490000D01*
X65585000Y-92490000D01*
X65599703Y-92490722D01*
X65599703Y-92490722D01*
G37*
D20*
X65435000Y-93465000D03*
D10*
G36*
X66869703Y-92490722D02*
G01*
X66884264Y-92492882D01*
X66898543Y-92496459D01*
X66912403Y-92501418D01*
X66925710Y-92507712D01*
X66938336Y-92515280D01*
X66950159Y-92524048D01*
X66961066Y-92533934D01*
X66970952Y-92544841D01*
X66979720Y-92556664D01*
X66987288Y-92569290D01*
X66993582Y-92582597D01*
X66998541Y-92596457D01*
X67002118Y-92610736D01*
X67004278Y-92625297D01*
X67005000Y-92640000D01*
X67005000Y-94290000D01*
X67004278Y-94304703D01*
X67002118Y-94319264D01*
X66998541Y-94333543D01*
X66993582Y-94347403D01*
X66987288Y-94360710D01*
X66979720Y-94373336D01*
X66970952Y-94385159D01*
X66961066Y-94396066D01*
X66950159Y-94405952D01*
X66938336Y-94414720D01*
X66925710Y-94422288D01*
X66912403Y-94428582D01*
X66898543Y-94433541D01*
X66884264Y-94437118D01*
X66869703Y-94439278D01*
X66855000Y-94440000D01*
X66555000Y-94440000D01*
X66540297Y-94439278D01*
X66525736Y-94437118D01*
X66511457Y-94433541D01*
X66497597Y-94428582D01*
X66484290Y-94422288D01*
X66471664Y-94414720D01*
X66459841Y-94405952D01*
X66448934Y-94396066D01*
X66439048Y-94385159D01*
X66430280Y-94373336D01*
X66422712Y-94360710D01*
X66416418Y-94347403D01*
X66411459Y-94333543D01*
X66407882Y-94319264D01*
X66405722Y-94304703D01*
X66405000Y-94290000D01*
X66405000Y-92640000D01*
X66405722Y-92625297D01*
X66407882Y-92610736D01*
X66411459Y-92596457D01*
X66416418Y-92582597D01*
X66422712Y-92569290D01*
X66430280Y-92556664D01*
X66439048Y-92544841D01*
X66448934Y-92533934D01*
X66459841Y-92524048D01*
X66471664Y-92515280D01*
X66484290Y-92507712D01*
X66497597Y-92501418D01*
X66511457Y-92496459D01*
X66525736Y-92492882D01*
X66540297Y-92490722D01*
X66555000Y-92490000D01*
X66855000Y-92490000D01*
X66869703Y-92490722D01*
X66869703Y-92490722D01*
G37*
D20*
X66705000Y-93465000D03*
D10*
G36*
X68139703Y-92490722D02*
G01*
X68154264Y-92492882D01*
X68168543Y-92496459D01*
X68182403Y-92501418D01*
X68195710Y-92507712D01*
X68208336Y-92515280D01*
X68220159Y-92524048D01*
X68231066Y-92533934D01*
X68240952Y-92544841D01*
X68249720Y-92556664D01*
X68257288Y-92569290D01*
X68263582Y-92582597D01*
X68268541Y-92596457D01*
X68272118Y-92610736D01*
X68274278Y-92625297D01*
X68275000Y-92640000D01*
X68275000Y-94290000D01*
X68274278Y-94304703D01*
X68272118Y-94319264D01*
X68268541Y-94333543D01*
X68263582Y-94347403D01*
X68257288Y-94360710D01*
X68249720Y-94373336D01*
X68240952Y-94385159D01*
X68231066Y-94396066D01*
X68220159Y-94405952D01*
X68208336Y-94414720D01*
X68195710Y-94422288D01*
X68182403Y-94428582D01*
X68168543Y-94433541D01*
X68154264Y-94437118D01*
X68139703Y-94439278D01*
X68125000Y-94440000D01*
X67825000Y-94440000D01*
X67810297Y-94439278D01*
X67795736Y-94437118D01*
X67781457Y-94433541D01*
X67767597Y-94428582D01*
X67754290Y-94422288D01*
X67741664Y-94414720D01*
X67729841Y-94405952D01*
X67718934Y-94396066D01*
X67709048Y-94385159D01*
X67700280Y-94373336D01*
X67692712Y-94360710D01*
X67686418Y-94347403D01*
X67681459Y-94333543D01*
X67677882Y-94319264D01*
X67675722Y-94304703D01*
X67675000Y-94290000D01*
X67675000Y-92640000D01*
X67675722Y-92625297D01*
X67677882Y-92610736D01*
X67681459Y-92596457D01*
X67686418Y-92582597D01*
X67692712Y-92569290D01*
X67700280Y-92556664D01*
X67709048Y-92544841D01*
X67718934Y-92533934D01*
X67729841Y-92524048D01*
X67741664Y-92515280D01*
X67754290Y-92507712D01*
X67767597Y-92501418D01*
X67781457Y-92496459D01*
X67795736Y-92492882D01*
X67810297Y-92490722D01*
X67825000Y-92490000D01*
X68125000Y-92490000D01*
X68139703Y-92490722D01*
X68139703Y-92490722D01*
G37*
D20*
X67975000Y-93465000D03*
D10*
G36*
X68139703Y-97440722D02*
G01*
X68154264Y-97442882D01*
X68168543Y-97446459D01*
X68182403Y-97451418D01*
X68195710Y-97457712D01*
X68208336Y-97465280D01*
X68220159Y-97474048D01*
X68231066Y-97483934D01*
X68240952Y-97494841D01*
X68249720Y-97506664D01*
X68257288Y-97519290D01*
X68263582Y-97532597D01*
X68268541Y-97546457D01*
X68272118Y-97560736D01*
X68274278Y-97575297D01*
X68275000Y-97590000D01*
X68275000Y-99240000D01*
X68274278Y-99254703D01*
X68272118Y-99269264D01*
X68268541Y-99283543D01*
X68263582Y-99297403D01*
X68257288Y-99310710D01*
X68249720Y-99323336D01*
X68240952Y-99335159D01*
X68231066Y-99346066D01*
X68220159Y-99355952D01*
X68208336Y-99364720D01*
X68195710Y-99372288D01*
X68182403Y-99378582D01*
X68168543Y-99383541D01*
X68154264Y-99387118D01*
X68139703Y-99389278D01*
X68125000Y-99390000D01*
X67825000Y-99390000D01*
X67810297Y-99389278D01*
X67795736Y-99387118D01*
X67781457Y-99383541D01*
X67767597Y-99378582D01*
X67754290Y-99372288D01*
X67741664Y-99364720D01*
X67729841Y-99355952D01*
X67718934Y-99346066D01*
X67709048Y-99335159D01*
X67700280Y-99323336D01*
X67692712Y-99310710D01*
X67686418Y-99297403D01*
X67681459Y-99283543D01*
X67677882Y-99269264D01*
X67675722Y-99254703D01*
X67675000Y-99240000D01*
X67675000Y-97590000D01*
X67675722Y-97575297D01*
X67677882Y-97560736D01*
X67681459Y-97546457D01*
X67686418Y-97532597D01*
X67692712Y-97519290D01*
X67700280Y-97506664D01*
X67709048Y-97494841D01*
X67718934Y-97483934D01*
X67729841Y-97474048D01*
X67741664Y-97465280D01*
X67754290Y-97457712D01*
X67767597Y-97451418D01*
X67781457Y-97446459D01*
X67795736Y-97442882D01*
X67810297Y-97440722D01*
X67825000Y-97440000D01*
X68125000Y-97440000D01*
X68139703Y-97440722D01*
X68139703Y-97440722D01*
G37*
D20*
X67975000Y-98415000D03*
D10*
G36*
X66869703Y-97440722D02*
G01*
X66884264Y-97442882D01*
X66898543Y-97446459D01*
X66912403Y-97451418D01*
X66925710Y-97457712D01*
X66938336Y-97465280D01*
X66950159Y-97474048D01*
X66961066Y-97483934D01*
X66970952Y-97494841D01*
X66979720Y-97506664D01*
X66987288Y-97519290D01*
X66993582Y-97532597D01*
X66998541Y-97546457D01*
X67002118Y-97560736D01*
X67004278Y-97575297D01*
X67005000Y-97590000D01*
X67005000Y-99240000D01*
X67004278Y-99254703D01*
X67002118Y-99269264D01*
X66998541Y-99283543D01*
X66993582Y-99297403D01*
X66987288Y-99310710D01*
X66979720Y-99323336D01*
X66970952Y-99335159D01*
X66961066Y-99346066D01*
X66950159Y-99355952D01*
X66938336Y-99364720D01*
X66925710Y-99372288D01*
X66912403Y-99378582D01*
X66898543Y-99383541D01*
X66884264Y-99387118D01*
X66869703Y-99389278D01*
X66855000Y-99390000D01*
X66555000Y-99390000D01*
X66540297Y-99389278D01*
X66525736Y-99387118D01*
X66511457Y-99383541D01*
X66497597Y-99378582D01*
X66484290Y-99372288D01*
X66471664Y-99364720D01*
X66459841Y-99355952D01*
X66448934Y-99346066D01*
X66439048Y-99335159D01*
X66430280Y-99323336D01*
X66422712Y-99310710D01*
X66416418Y-99297403D01*
X66411459Y-99283543D01*
X66407882Y-99269264D01*
X66405722Y-99254703D01*
X66405000Y-99240000D01*
X66405000Y-97590000D01*
X66405722Y-97575297D01*
X66407882Y-97560736D01*
X66411459Y-97546457D01*
X66416418Y-97532597D01*
X66422712Y-97519290D01*
X66430280Y-97506664D01*
X66439048Y-97494841D01*
X66448934Y-97483934D01*
X66459841Y-97474048D01*
X66471664Y-97465280D01*
X66484290Y-97457712D01*
X66497597Y-97451418D01*
X66511457Y-97446459D01*
X66525736Y-97442882D01*
X66540297Y-97440722D01*
X66555000Y-97440000D01*
X66855000Y-97440000D01*
X66869703Y-97440722D01*
X66869703Y-97440722D01*
G37*
D20*
X66705000Y-98415000D03*
D10*
G36*
X65599703Y-97440722D02*
G01*
X65614264Y-97442882D01*
X65628543Y-97446459D01*
X65642403Y-97451418D01*
X65655710Y-97457712D01*
X65668336Y-97465280D01*
X65680159Y-97474048D01*
X65691066Y-97483934D01*
X65700952Y-97494841D01*
X65709720Y-97506664D01*
X65717288Y-97519290D01*
X65723582Y-97532597D01*
X65728541Y-97546457D01*
X65732118Y-97560736D01*
X65734278Y-97575297D01*
X65735000Y-97590000D01*
X65735000Y-99240000D01*
X65734278Y-99254703D01*
X65732118Y-99269264D01*
X65728541Y-99283543D01*
X65723582Y-99297403D01*
X65717288Y-99310710D01*
X65709720Y-99323336D01*
X65700952Y-99335159D01*
X65691066Y-99346066D01*
X65680159Y-99355952D01*
X65668336Y-99364720D01*
X65655710Y-99372288D01*
X65642403Y-99378582D01*
X65628543Y-99383541D01*
X65614264Y-99387118D01*
X65599703Y-99389278D01*
X65585000Y-99390000D01*
X65285000Y-99390000D01*
X65270297Y-99389278D01*
X65255736Y-99387118D01*
X65241457Y-99383541D01*
X65227597Y-99378582D01*
X65214290Y-99372288D01*
X65201664Y-99364720D01*
X65189841Y-99355952D01*
X65178934Y-99346066D01*
X65169048Y-99335159D01*
X65160280Y-99323336D01*
X65152712Y-99310710D01*
X65146418Y-99297403D01*
X65141459Y-99283543D01*
X65137882Y-99269264D01*
X65135722Y-99254703D01*
X65135000Y-99240000D01*
X65135000Y-97590000D01*
X65135722Y-97575297D01*
X65137882Y-97560736D01*
X65141459Y-97546457D01*
X65146418Y-97532597D01*
X65152712Y-97519290D01*
X65160280Y-97506664D01*
X65169048Y-97494841D01*
X65178934Y-97483934D01*
X65189841Y-97474048D01*
X65201664Y-97465280D01*
X65214290Y-97457712D01*
X65227597Y-97451418D01*
X65241457Y-97446459D01*
X65255736Y-97442882D01*
X65270297Y-97440722D01*
X65285000Y-97440000D01*
X65585000Y-97440000D01*
X65599703Y-97440722D01*
X65599703Y-97440722D01*
G37*
D20*
X65435000Y-98415000D03*
D10*
G36*
X64329703Y-97440722D02*
G01*
X64344264Y-97442882D01*
X64358543Y-97446459D01*
X64372403Y-97451418D01*
X64385710Y-97457712D01*
X64398336Y-97465280D01*
X64410159Y-97474048D01*
X64421066Y-97483934D01*
X64430952Y-97494841D01*
X64439720Y-97506664D01*
X64447288Y-97519290D01*
X64453582Y-97532597D01*
X64458541Y-97546457D01*
X64462118Y-97560736D01*
X64464278Y-97575297D01*
X64465000Y-97590000D01*
X64465000Y-99240000D01*
X64464278Y-99254703D01*
X64462118Y-99269264D01*
X64458541Y-99283543D01*
X64453582Y-99297403D01*
X64447288Y-99310710D01*
X64439720Y-99323336D01*
X64430952Y-99335159D01*
X64421066Y-99346066D01*
X64410159Y-99355952D01*
X64398336Y-99364720D01*
X64385710Y-99372288D01*
X64372403Y-99378582D01*
X64358543Y-99383541D01*
X64344264Y-99387118D01*
X64329703Y-99389278D01*
X64315000Y-99390000D01*
X64015000Y-99390000D01*
X64000297Y-99389278D01*
X63985736Y-99387118D01*
X63971457Y-99383541D01*
X63957597Y-99378582D01*
X63944290Y-99372288D01*
X63931664Y-99364720D01*
X63919841Y-99355952D01*
X63908934Y-99346066D01*
X63899048Y-99335159D01*
X63890280Y-99323336D01*
X63882712Y-99310710D01*
X63876418Y-99297403D01*
X63871459Y-99283543D01*
X63867882Y-99269264D01*
X63865722Y-99254703D01*
X63865000Y-99240000D01*
X63865000Y-97590000D01*
X63865722Y-97575297D01*
X63867882Y-97560736D01*
X63871459Y-97546457D01*
X63876418Y-97532597D01*
X63882712Y-97519290D01*
X63890280Y-97506664D01*
X63899048Y-97494841D01*
X63908934Y-97483934D01*
X63919841Y-97474048D01*
X63931664Y-97465280D01*
X63944290Y-97457712D01*
X63957597Y-97451418D01*
X63971457Y-97446459D01*
X63985736Y-97442882D01*
X64000297Y-97440722D01*
X64015000Y-97440000D01*
X64315000Y-97440000D01*
X64329703Y-97440722D01*
X64329703Y-97440722D01*
G37*
D20*
X64165000Y-98415000D03*
D10*
G36*
X63059703Y-97440722D02*
G01*
X63074264Y-97442882D01*
X63088543Y-97446459D01*
X63102403Y-97451418D01*
X63115710Y-97457712D01*
X63128336Y-97465280D01*
X63140159Y-97474048D01*
X63151066Y-97483934D01*
X63160952Y-97494841D01*
X63169720Y-97506664D01*
X63177288Y-97519290D01*
X63183582Y-97532597D01*
X63188541Y-97546457D01*
X63192118Y-97560736D01*
X63194278Y-97575297D01*
X63195000Y-97590000D01*
X63195000Y-99240000D01*
X63194278Y-99254703D01*
X63192118Y-99269264D01*
X63188541Y-99283543D01*
X63183582Y-99297403D01*
X63177288Y-99310710D01*
X63169720Y-99323336D01*
X63160952Y-99335159D01*
X63151066Y-99346066D01*
X63140159Y-99355952D01*
X63128336Y-99364720D01*
X63115710Y-99372288D01*
X63102403Y-99378582D01*
X63088543Y-99383541D01*
X63074264Y-99387118D01*
X63059703Y-99389278D01*
X63045000Y-99390000D01*
X62745000Y-99390000D01*
X62730297Y-99389278D01*
X62715736Y-99387118D01*
X62701457Y-99383541D01*
X62687597Y-99378582D01*
X62674290Y-99372288D01*
X62661664Y-99364720D01*
X62649841Y-99355952D01*
X62638934Y-99346066D01*
X62629048Y-99335159D01*
X62620280Y-99323336D01*
X62612712Y-99310710D01*
X62606418Y-99297403D01*
X62601459Y-99283543D01*
X62597882Y-99269264D01*
X62595722Y-99254703D01*
X62595000Y-99240000D01*
X62595000Y-97590000D01*
X62595722Y-97575297D01*
X62597882Y-97560736D01*
X62601459Y-97546457D01*
X62606418Y-97532597D01*
X62612712Y-97519290D01*
X62620280Y-97506664D01*
X62629048Y-97494841D01*
X62638934Y-97483934D01*
X62649841Y-97474048D01*
X62661664Y-97465280D01*
X62674290Y-97457712D01*
X62687597Y-97451418D01*
X62701457Y-97446459D01*
X62715736Y-97442882D01*
X62730297Y-97440722D01*
X62745000Y-97440000D01*
X63045000Y-97440000D01*
X63059703Y-97440722D01*
X63059703Y-97440722D01*
G37*
D20*
X62895000Y-98415000D03*
D10*
G36*
X61789703Y-97440722D02*
G01*
X61804264Y-97442882D01*
X61818543Y-97446459D01*
X61832403Y-97451418D01*
X61845710Y-97457712D01*
X61858336Y-97465280D01*
X61870159Y-97474048D01*
X61881066Y-97483934D01*
X61890952Y-97494841D01*
X61899720Y-97506664D01*
X61907288Y-97519290D01*
X61913582Y-97532597D01*
X61918541Y-97546457D01*
X61922118Y-97560736D01*
X61924278Y-97575297D01*
X61925000Y-97590000D01*
X61925000Y-99240000D01*
X61924278Y-99254703D01*
X61922118Y-99269264D01*
X61918541Y-99283543D01*
X61913582Y-99297403D01*
X61907288Y-99310710D01*
X61899720Y-99323336D01*
X61890952Y-99335159D01*
X61881066Y-99346066D01*
X61870159Y-99355952D01*
X61858336Y-99364720D01*
X61845710Y-99372288D01*
X61832403Y-99378582D01*
X61818543Y-99383541D01*
X61804264Y-99387118D01*
X61789703Y-99389278D01*
X61775000Y-99390000D01*
X61475000Y-99390000D01*
X61460297Y-99389278D01*
X61445736Y-99387118D01*
X61431457Y-99383541D01*
X61417597Y-99378582D01*
X61404290Y-99372288D01*
X61391664Y-99364720D01*
X61379841Y-99355952D01*
X61368934Y-99346066D01*
X61359048Y-99335159D01*
X61350280Y-99323336D01*
X61342712Y-99310710D01*
X61336418Y-99297403D01*
X61331459Y-99283543D01*
X61327882Y-99269264D01*
X61325722Y-99254703D01*
X61325000Y-99240000D01*
X61325000Y-97590000D01*
X61325722Y-97575297D01*
X61327882Y-97560736D01*
X61331459Y-97546457D01*
X61336418Y-97532597D01*
X61342712Y-97519290D01*
X61350280Y-97506664D01*
X61359048Y-97494841D01*
X61368934Y-97483934D01*
X61379841Y-97474048D01*
X61391664Y-97465280D01*
X61404290Y-97457712D01*
X61417597Y-97451418D01*
X61431457Y-97446459D01*
X61445736Y-97442882D01*
X61460297Y-97440722D01*
X61475000Y-97440000D01*
X61775000Y-97440000D01*
X61789703Y-97440722D01*
X61789703Y-97440722D01*
G37*
D20*
X61625000Y-98415000D03*
D10*
G36*
X60519703Y-97440722D02*
G01*
X60534264Y-97442882D01*
X60548543Y-97446459D01*
X60562403Y-97451418D01*
X60575710Y-97457712D01*
X60588336Y-97465280D01*
X60600159Y-97474048D01*
X60611066Y-97483934D01*
X60620952Y-97494841D01*
X60629720Y-97506664D01*
X60637288Y-97519290D01*
X60643582Y-97532597D01*
X60648541Y-97546457D01*
X60652118Y-97560736D01*
X60654278Y-97575297D01*
X60655000Y-97590000D01*
X60655000Y-99240000D01*
X60654278Y-99254703D01*
X60652118Y-99269264D01*
X60648541Y-99283543D01*
X60643582Y-99297403D01*
X60637288Y-99310710D01*
X60629720Y-99323336D01*
X60620952Y-99335159D01*
X60611066Y-99346066D01*
X60600159Y-99355952D01*
X60588336Y-99364720D01*
X60575710Y-99372288D01*
X60562403Y-99378582D01*
X60548543Y-99383541D01*
X60534264Y-99387118D01*
X60519703Y-99389278D01*
X60505000Y-99390000D01*
X60205000Y-99390000D01*
X60190297Y-99389278D01*
X60175736Y-99387118D01*
X60161457Y-99383541D01*
X60147597Y-99378582D01*
X60134290Y-99372288D01*
X60121664Y-99364720D01*
X60109841Y-99355952D01*
X60098934Y-99346066D01*
X60089048Y-99335159D01*
X60080280Y-99323336D01*
X60072712Y-99310710D01*
X60066418Y-99297403D01*
X60061459Y-99283543D01*
X60057882Y-99269264D01*
X60055722Y-99254703D01*
X60055000Y-99240000D01*
X60055000Y-97590000D01*
X60055722Y-97575297D01*
X60057882Y-97560736D01*
X60061459Y-97546457D01*
X60066418Y-97532597D01*
X60072712Y-97519290D01*
X60080280Y-97506664D01*
X60089048Y-97494841D01*
X60098934Y-97483934D01*
X60109841Y-97474048D01*
X60121664Y-97465280D01*
X60134290Y-97457712D01*
X60147597Y-97451418D01*
X60161457Y-97446459D01*
X60175736Y-97442882D01*
X60190297Y-97440722D01*
X60205000Y-97440000D01*
X60505000Y-97440000D01*
X60519703Y-97440722D01*
X60519703Y-97440722D01*
G37*
D20*
X60355000Y-98415000D03*
D10*
G36*
X59249703Y-97440722D02*
G01*
X59264264Y-97442882D01*
X59278543Y-97446459D01*
X59292403Y-97451418D01*
X59305710Y-97457712D01*
X59318336Y-97465280D01*
X59330159Y-97474048D01*
X59341066Y-97483934D01*
X59350952Y-97494841D01*
X59359720Y-97506664D01*
X59367288Y-97519290D01*
X59373582Y-97532597D01*
X59378541Y-97546457D01*
X59382118Y-97560736D01*
X59384278Y-97575297D01*
X59385000Y-97590000D01*
X59385000Y-99240000D01*
X59384278Y-99254703D01*
X59382118Y-99269264D01*
X59378541Y-99283543D01*
X59373582Y-99297403D01*
X59367288Y-99310710D01*
X59359720Y-99323336D01*
X59350952Y-99335159D01*
X59341066Y-99346066D01*
X59330159Y-99355952D01*
X59318336Y-99364720D01*
X59305710Y-99372288D01*
X59292403Y-99378582D01*
X59278543Y-99383541D01*
X59264264Y-99387118D01*
X59249703Y-99389278D01*
X59235000Y-99390000D01*
X58935000Y-99390000D01*
X58920297Y-99389278D01*
X58905736Y-99387118D01*
X58891457Y-99383541D01*
X58877597Y-99378582D01*
X58864290Y-99372288D01*
X58851664Y-99364720D01*
X58839841Y-99355952D01*
X58828934Y-99346066D01*
X58819048Y-99335159D01*
X58810280Y-99323336D01*
X58802712Y-99310710D01*
X58796418Y-99297403D01*
X58791459Y-99283543D01*
X58787882Y-99269264D01*
X58785722Y-99254703D01*
X58785000Y-99240000D01*
X58785000Y-97590000D01*
X58785722Y-97575297D01*
X58787882Y-97560736D01*
X58791459Y-97546457D01*
X58796418Y-97532597D01*
X58802712Y-97519290D01*
X58810280Y-97506664D01*
X58819048Y-97494841D01*
X58828934Y-97483934D01*
X58839841Y-97474048D01*
X58851664Y-97465280D01*
X58864290Y-97457712D01*
X58877597Y-97451418D01*
X58891457Y-97446459D01*
X58905736Y-97442882D01*
X58920297Y-97440722D01*
X58935000Y-97440000D01*
X59235000Y-97440000D01*
X59249703Y-97440722D01*
X59249703Y-97440722D01*
G37*
D20*
X59085000Y-98415000D03*
D21*
X77230000Y-95870000D03*
X77230000Y-91270000D03*
X77230000Y-93570000D03*
D22*
X70930000Y-93570000D03*
D23*
X79895000Y-100190000D03*
X87845000Y-100190000D03*
X79895000Y-104690000D03*
X87845000Y-104690000D03*
D10*
G36*
X84004504Y-94296204D02*
G01*
X84028773Y-94299804D01*
X84052571Y-94305765D01*
X84075671Y-94314030D01*
X84097849Y-94324520D01*
X84118893Y-94337133D01*
X84138598Y-94351747D01*
X84156777Y-94368223D01*
X84173253Y-94386402D01*
X84187867Y-94406107D01*
X84200480Y-94427151D01*
X84210970Y-94449329D01*
X84219235Y-94472429D01*
X84225196Y-94496227D01*
X84228796Y-94520496D01*
X84230000Y-94545000D01*
X84230000Y-96695000D01*
X84228796Y-96719504D01*
X84225196Y-96743773D01*
X84219235Y-96767571D01*
X84210970Y-96790671D01*
X84200480Y-96812849D01*
X84187867Y-96833893D01*
X84173253Y-96853598D01*
X84156777Y-96871777D01*
X84138598Y-96888253D01*
X84118893Y-96902867D01*
X84097849Y-96915480D01*
X84075671Y-96925970D01*
X84052571Y-96934235D01*
X84028773Y-96940196D01*
X84004504Y-96943796D01*
X83980000Y-96945000D01*
X83055000Y-96945000D01*
X83030496Y-96943796D01*
X83006227Y-96940196D01*
X82982429Y-96934235D01*
X82959329Y-96925970D01*
X82937151Y-96915480D01*
X82916107Y-96902867D01*
X82896402Y-96888253D01*
X82878223Y-96871777D01*
X82861747Y-96853598D01*
X82847133Y-96833893D01*
X82834520Y-96812849D01*
X82824030Y-96790671D01*
X82815765Y-96767571D01*
X82809804Y-96743773D01*
X82806204Y-96719504D01*
X82805000Y-96695000D01*
X82805000Y-94545000D01*
X82806204Y-94520496D01*
X82809804Y-94496227D01*
X82815765Y-94472429D01*
X82824030Y-94449329D01*
X82834520Y-94427151D01*
X82847133Y-94406107D01*
X82861747Y-94386402D01*
X82878223Y-94368223D01*
X82896402Y-94351747D01*
X82916107Y-94337133D01*
X82937151Y-94324520D01*
X82959329Y-94314030D01*
X82982429Y-94305765D01*
X83006227Y-94299804D01*
X83030496Y-94296204D01*
X83055000Y-94295000D01*
X83980000Y-94295000D01*
X84004504Y-94296204D01*
X84004504Y-94296204D01*
G37*
D24*
X83517500Y-95620000D03*
D10*
G36*
X81029504Y-94296204D02*
G01*
X81053773Y-94299804D01*
X81077571Y-94305765D01*
X81100671Y-94314030D01*
X81122849Y-94324520D01*
X81143893Y-94337133D01*
X81163598Y-94351747D01*
X81181777Y-94368223D01*
X81198253Y-94386402D01*
X81212867Y-94406107D01*
X81225480Y-94427151D01*
X81235970Y-94449329D01*
X81244235Y-94472429D01*
X81250196Y-94496227D01*
X81253796Y-94520496D01*
X81255000Y-94545000D01*
X81255000Y-96695000D01*
X81253796Y-96719504D01*
X81250196Y-96743773D01*
X81244235Y-96767571D01*
X81235970Y-96790671D01*
X81225480Y-96812849D01*
X81212867Y-96833893D01*
X81198253Y-96853598D01*
X81181777Y-96871777D01*
X81163598Y-96888253D01*
X81143893Y-96902867D01*
X81122849Y-96915480D01*
X81100671Y-96925970D01*
X81077571Y-96934235D01*
X81053773Y-96940196D01*
X81029504Y-96943796D01*
X81005000Y-96945000D01*
X80080000Y-96945000D01*
X80055496Y-96943796D01*
X80031227Y-96940196D01*
X80007429Y-96934235D01*
X79984329Y-96925970D01*
X79962151Y-96915480D01*
X79941107Y-96902867D01*
X79921402Y-96888253D01*
X79903223Y-96871777D01*
X79886747Y-96853598D01*
X79872133Y-96833893D01*
X79859520Y-96812849D01*
X79849030Y-96790671D01*
X79840765Y-96767571D01*
X79834804Y-96743773D01*
X79831204Y-96719504D01*
X79830000Y-96695000D01*
X79830000Y-94545000D01*
X79831204Y-94520496D01*
X79834804Y-94496227D01*
X79840765Y-94472429D01*
X79849030Y-94449329D01*
X79859520Y-94427151D01*
X79872133Y-94406107D01*
X79886747Y-94386402D01*
X79903223Y-94368223D01*
X79921402Y-94351747D01*
X79941107Y-94337133D01*
X79962151Y-94324520D01*
X79984329Y-94314030D01*
X80007429Y-94305765D01*
X80031227Y-94299804D01*
X80055496Y-94296204D01*
X80080000Y-94295000D01*
X81005000Y-94295000D01*
X81029504Y-94296204D01*
X81029504Y-94296204D01*
G37*
D24*
X80542500Y-95620000D03*
D10*
G36*
X84044504Y-90226204D02*
G01*
X84068773Y-90229804D01*
X84092571Y-90235765D01*
X84115671Y-90244030D01*
X84137849Y-90254520D01*
X84158893Y-90267133D01*
X84178598Y-90281747D01*
X84196777Y-90298223D01*
X84213253Y-90316402D01*
X84227867Y-90336107D01*
X84240480Y-90357151D01*
X84250970Y-90379329D01*
X84259235Y-90402429D01*
X84265196Y-90426227D01*
X84268796Y-90450496D01*
X84270000Y-90475000D01*
X84270000Y-92625000D01*
X84268796Y-92649504D01*
X84265196Y-92673773D01*
X84259235Y-92697571D01*
X84250970Y-92720671D01*
X84240480Y-92742849D01*
X84227867Y-92763893D01*
X84213253Y-92783598D01*
X84196777Y-92801777D01*
X84178598Y-92818253D01*
X84158893Y-92832867D01*
X84137849Y-92845480D01*
X84115671Y-92855970D01*
X84092571Y-92864235D01*
X84068773Y-92870196D01*
X84044504Y-92873796D01*
X84020000Y-92875000D01*
X83095000Y-92875000D01*
X83070496Y-92873796D01*
X83046227Y-92870196D01*
X83022429Y-92864235D01*
X82999329Y-92855970D01*
X82977151Y-92845480D01*
X82956107Y-92832867D01*
X82936402Y-92818253D01*
X82918223Y-92801777D01*
X82901747Y-92783598D01*
X82887133Y-92763893D01*
X82874520Y-92742849D01*
X82864030Y-92720671D01*
X82855765Y-92697571D01*
X82849804Y-92673773D01*
X82846204Y-92649504D01*
X82845000Y-92625000D01*
X82845000Y-90475000D01*
X82846204Y-90450496D01*
X82849804Y-90426227D01*
X82855765Y-90402429D01*
X82864030Y-90379329D01*
X82874520Y-90357151D01*
X82887133Y-90336107D01*
X82901747Y-90316402D01*
X82918223Y-90298223D01*
X82936402Y-90281747D01*
X82956107Y-90267133D01*
X82977151Y-90254520D01*
X82999329Y-90244030D01*
X83022429Y-90235765D01*
X83046227Y-90229804D01*
X83070496Y-90226204D01*
X83095000Y-90225000D01*
X84020000Y-90225000D01*
X84044504Y-90226204D01*
X84044504Y-90226204D01*
G37*
D24*
X83557500Y-91550000D03*
D10*
G36*
X81069504Y-90226204D02*
G01*
X81093773Y-90229804D01*
X81117571Y-90235765D01*
X81140671Y-90244030D01*
X81162849Y-90254520D01*
X81183893Y-90267133D01*
X81203598Y-90281747D01*
X81221777Y-90298223D01*
X81238253Y-90316402D01*
X81252867Y-90336107D01*
X81265480Y-90357151D01*
X81275970Y-90379329D01*
X81284235Y-90402429D01*
X81290196Y-90426227D01*
X81293796Y-90450496D01*
X81295000Y-90475000D01*
X81295000Y-92625000D01*
X81293796Y-92649504D01*
X81290196Y-92673773D01*
X81284235Y-92697571D01*
X81275970Y-92720671D01*
X81265480Y-92742849D01*
X81252867Y-92763893D01*
X81238253Y-92783598D01*
X81221777Y-92801777D01*
X81203598Y-92818253D01*
X81183893Y-92832867D01*
X81162849Y-92845480D01*
X81140671Y-92855970D01*
X81117571Y-92864235D01*
X81093773Y-92870196D01*
X81069504Y-92873796D01*
X81045000Y-92875000D01*
X80120000Y-92875000D01*
X80095496Y-92873796D01*
X80071227Y-92870196D01*
X80047429Y-92864235D01*
X80024329Y-92855970D01*
X80002151Y-92845480D01*
X79981107Y-92832867D01*
X79961402Y-92818253D01*
X79943223Y-92801777D01*
X79926747Y-92783598D01*
X79912133Y-92763893D01*
X79899520Y-92742849D01*
X79889030Y-92720671D01*
X79880765Y-92697571D01*
X79874804Y-92673773D01*
X79871204Y-92649504D01*
X79870000Y-92625000D01*
X79870000Y-90475000D01*
X79871204Y-90450496D01*
X79874804Y-90426227D01*
X79880765Y-90402429D01*
X79889030Y-90379329D01*
X79899520Y-90357151D01*
X79912133Y-90336107D01*
X79926747Y-90316402D01*
X79943223Y-90298223D01*
X79961402Y-90281747D01*
X79981107Y-90267133D01*
X80002151Y-90254520D01*
X80024329Y-90244030D01*
X80047429Y-90235765D01*
X80071227Y-90229804D01*
X80095496Y-90226204D01*
X80120000Y-90225000D01*
X81045000Y-90225000D01*
X81069504Y-90226204D01*
X81069504Y-90226204D01*
G37*
D24*
X80582500Y-91550000D03*
D25*
X86960000Y-82740000D03*
D26*
X84420000Y-82740000D03*
D10*
G36*
X67365142Y-89171174D02*
G01*
X67388803Y-89174684D01*
X67412007Y-89180496D01*
X67434529Y-89188554D01*
X67456153Y-89198782D01*
X67476670Y-89211079D01*
X67495883Y-89225329D01*
X67513607Y-89241393D01*
X67529671Y-89259117D01*
X67543921Y-89278330D01*
X67556218Y-89298847D01*
X67566446Y-89320471D01*
X67574504Y-89342993D01*
X67580316Y-89366197D01*
X67583826Y-89389858D01*
X67585000Y-89413750D01*
X67585000Y-90326250D01*
X67583826Y-90350142D01*
X67580316Y-90373803D01*
X67574504Y-90397007D01*
X67566446Y-90419529D01*
X67556218Y-90441153D01*
X67543921Y-90461670D01*
X67529671Y-90480883D01*
X67513607Y-90498607D01*
X67495883Y-90514671D01*
X67476670Y-90528921D01*
X67456153Y-90541218D01*
X67434529Y-90551446D01*
X67412007Y-90559504D01*
X67388803Y-90565316D01*
X67365142Y-90568826D01*
X67341250Y-90570000D01*
X66853750Y-90570000D01*
X66829858Y-90568826D01*
X66806197Y-90565316D01*
X66782993Y-90559504D01*
X66760471Y-90551446D01*
X66738847Y-90541218D01*
X66718330Y-90528921D01*
X66699117Y-90514671D01*
X66681393Y-90498607D01*
X66665329Y-90480883D01*
X66651079Y-90461670D01*
X66638782Y-90441153D01*
X66628554Y-90419529D01*
X66620496Y-90397007D01*
X66614684Y-90373803D01*
X66611174Y-90350142D01*
X66610000Y-90326250D01*
X66610000Y-89413750D01*
X66611174Y-89389858D01*
X66614684Y-89366197D01*
X66620496Y-89342993D01*
X66628554Y-89320471D01*
X66638782Y-89298847D01*
X66651079Y-89278330D01*
X66665329Y-89259117D01*
X66681393Y-89241393D01*
X66699117Y-89225329D01*
X66718330Y-89211079D01*
X66738847Y-89198782D01*
X66760471Y-89188554D01*
X66782993Y-89180496D01*
X66806197Y-89174684D01*
X66829858Y-89171174D01*
X66853750Y-89170000D01*
X67341250Y-89170000D01*
X67365142Y-89171174D01*
X67365142Y-89171174D01*
G37*
D11*
X67097500Y-89870000D03*
D10*
G36*
X65490142Y-89171174D02*
G01*
X65513803Y-89174684D01*
X65537007Y-89180496D01*
X65559529Y-89188554D01*
X65581153Y-89198782D01*
X65601670Y-89211079D01*
X65620883Y-89225329D01*
X65638607Y-89241393D01*
X65654671Y-89259117D01*
X65668921Y-89278330D01*
X65681218Y-89298847D01*
X65691446Y-89320471D01*
X65699504Y-89342993D01*
X65705316Y-89366197D01*
X65708826Y-89389858D01*
X65710000Y-89413750D01*
X65710000Y-90326250D01*
X65708826Y-90350142D01*
X65705316Y-90373803D01*
X65699504Y-90397007D01*
X65691446Y-90419529D01*
X65681218Y-90441153D01*
X65668921Y-90461670D01*
X65654671Y-90480883D01*
X65638607Y-90498607D01*
X65620883Y-90514671D01*
X65601670Y-90528921D01*
X65581153Y-90541218D01*
X65559529Y-90551446D01*
X65537007Y-90559504D01*
X65513803Y-90565316D01*
X65490142Y-90568826D01*
X65466250Y-90570000D01*
X64978750Y-90570000D01*
X64954858Y-90568826D01*
X64931197Y-90565316D01*
X64907993Y-90559504D01*
X64885471Y-90551446D01*
X64863847Y-90541218D01*
X64843330Y-90528921D01*
X64824117Y-90514671D01*
X64806393Y-90498607D01*
X64790329Y-90480883D01*
X64776079Y-90461670D01*
X64763782Y-90441153D01*
X64753554Y-90419529D01*
X64745496Y-90397007D01*
X64739684Y-90373803D01*
X64736174Y-90350142D01*
X64735000Y-90326250D01*
X64735000Y-89413750D01*
X64736174Y-89389858D01*
X64739684Y-89366197D01*
X64745496Y-89342993D01*
X64753554Y-89320471D01*
X64763782Y-89298847D01*
X64776079Y-89278330D01*
X64790329Y-89259117D01*
X64806393Y-89241393D01*
X64824117Y-89225329D01*
X64843330Y-89211079D01*
X64863847Y-89198782D01*
X64885471Y-89188554D01*
X64907993Y-89180496D01*
X64931197Y-89174684D01*
X64954858Y-89171174D01*
X64978750Y-89170000D01*
X65466250Y-89170000D01*
X65490142Y-89171174D01*
X65490142Y-89171174D01*
G37*
D11*
X65222500Y-89870000D03*
D10*
G36*
X51780142Y-98361174D02*
G01*
X51803803Y-98364684D01*
X51827007Y-98370496D01*
X51849529Y-98378554D01*
X51871153Y-98388782D01*
X51891670Y-98401079D01*
X51910883Y-98415329D01*
X51928607Y-98431393D01*
X51944671Y-98449117D01*
X51958921Y-98468330D01*
X51971218Y-98488847D01*
X51981446Y-98510471D01*
X51989504Y-98532993D01*
X51995316Y-98556197D01*
X51998826Y-98579858D01*
X52000000Y-98603750D01*
X52000000Y-99516250D01*
X51998826Y-99540142D01*
X51995316Y-99563803D01*
X51989504Y-99587007D01*
X51981446Y-99609529D01*
X51971218Y-99631153D01*
X51958921Y-99651670D01*
X51944671Y-99670883D01*
X51928607Y-99688607D01*
X51910883Y-99704671D01*
X51891670Y-99718921D01*
X51871153Y-99731218D01*
X51849529Y-99741446D01*
X51827007Y-99749504D01*
X51803803Y-99755316D01*
X51780142Y-99758826D01*
X51756250Y-99760000D01*
X51268750Y-99760000D01*
X51244858Y-99758826D01*
X51221197Y-99755316D01*
X51197993Y-99749504D01*
X51175471Y-99741446D01*
X51153847Y-99731218D01*
X51133330Y-99718921D01*
X51114117Y-99704671D01*
X51096393Y-99688607D01*
X51080329Y-99670883D01*
X51066079Y-99651670D01*
X51053782Y-99631153D01*
X51043554Y-99609529D01*
X51035496Y-99587007D01*
X51029684Y-99563803D01*
X51026174Y-99540142D01*
X51025000Y-99516250D01*
X51025000Y-98603750D01*
X51026174Y-98579858D01*
X51029684Y-98556197D01*
X51035496Y-98532993D01*
X51043554Y-98510471D01*
X51053782Y-98488847D01*
X51066079Y-98468330D01*
X51080329Y-98449117D01*
X51096393Y-98431393D01*
X51114117Y-98415329D01*
X51133330Y-98401079D01*
X51153847Y-98388782D01*
X51175471Y-98378554D01*
X51197993Y-98370496D01*
X51221197Y-98364684D01*
X51244858Y-98361174D01*
X51268750Y-98360000D01*
X51756250Y-98360000D01*
X51780142Y-98361174D01*
X51780142Y-98361174D01*
G37*
D11*
X51512500Y-99060000D03*
D10*
G36*
X53655142Y-98361174D02*
G01*
X53678803Y-98364684D01*
X53702007Y-98370496D01*
X53724529Y-98378554D01*
X53746153Y-98388782D01*
X53766670Y-98401079D01*
X53785883Y-98415329D01*
X53803607Y-98431393D01*
X53819671Y-98449117D01*
X53833921Y-98468330D01*
X53846218Y-98488847D01*
X53856446Y-98510471D01*
X53864504Y-98532993D01*
X53870316Y-98556197D01*
X53873826Y-98579858D01*
X53875000Y-98603750D01*
X53875000Y-99516250D01*
X53873826Y-99540142D01*
X53870316Y-99563803D01*
X53864504Y-99587007D01*
X53856446Y-99609529D01*
X53846218Y-99631153D01*
X53833921Y-99651670D01*
X53819671Y-99670883D01*
X53803607Y-99688607D01*
X53785883Y-99704671D01*
X53766670Y-99718921D01*
X53746153Y-99731218D01*
X53724529Y-99741446D01*
X53702007Y-99749504D01*
X53678803Y-99755316D01*
X53655142Y-99758826D01*
X53631250Y-99760000D01*
X53143750Y-99760000D01*
X53119858Y-99758826D01*
X53096197Y-99755316D01*
X53072993Y-99749504D01*
X53050471Y-99741446D01*
X53028847Y-99731218D01*
X53008330Y-99718921D01*
X52989117Y-99704671D01*
X52971393Y-99688607D01*
X52955329Y-99670883D01*
X52941079Y-99651670D01*
X52928782Y-99631153D01*
X52918554Y-99609529D01*
X52910496Y-99587007D01*
X52904684Y-99563803D01*
X52901174Y-99540142D01*
X52900000Y-99516250D01*
X52900000Y-98603750D01*
X52901174Y-98579858D01*
X52904684Y-98556197D01*
X52910496Y-98532993D01*
X52918554Y-98510471D01*
X52928782Y-98488847D01*
X52941079Y-98468330D01*
X52955329Y-98449117D01*
X52971393Y-98431393D01*
X52989117Y-98415329D01*
X53008330Y-98401079D01*
X53028847Y-98388782D01*
X53050471Y-98378554D01*
X53072993Y-98370496D01*
X53096197Y-98364684D01*
X53119858Y-98361174D01*
X53143750Y-98360000D01*
X53631250Y-98360000D01*
X53655142Y-98361174D01*
X53655142Y-98361174D01*
G37*
D11*
X53387500Y-99060000D03*
D10*
G36*
X51760142Y-96401174D02*
G01*
X51783803Y-96404684D01*
X51807007Y-96410496D01*
X51829529Y-96418554D01*
X51851153Y-96428782D01*
X51871670Y-96441079D01*
X51890883Y-96455329D01*
X51908607Y-96471393D01*
X51924671Y-96489117D01*
X51938921Y-96508330D01*
X51951218Y-96528847D01*
X51961446Y-96550471D01*
X51969504Y-96572993D01*
X51975316Y-96596197D01*
X51978826Y-96619858D01*
X51980000Y-96643750D01*
X51980000Y-97556250D01*
X51978826Y-97580142D01*
X51975316Y-97603803D01*
X51969504Y-97627007D01*
X51961446Y-97649529D01*
X51951218Y-97671153D01*
X51938921Y-97691670D01*
X51924671Y-97710883D01*
X51908607Y-97728607D01*
X51890883Y-97744671D01*
X51871670Y-97758921D01*
X51851153Y-97771218D01*
X51829529Y-97781446D01*
X51807007Y-97789504D01*
X51783803Y-97795316D01*
X51760142Y-97798826D01*
X51736250Y-97800000D01*
X51248750Y-97800000D01*
X51224858Y-97798826D01*
X51201197Y-97795316D01*
X51177993Y-97789504D01*
X51155471Y-97781446D01*
X51133847Y-97771218D01*
X51113330Y-97758921D01*
X51094117Y-97744671D01*
X51076393Y-97728607D01*
X51060329Y-97710883D01*
X51046079Y-97691670D01*
X51033782Y-97671153D01*
X51023554Y-97649529D01*
X51015496Y-97627007D01*
X51009684Y-97603803D01*
X51006174Y-97580142D01*
X51005000Y-97556250D01*
X51005000Y-96643750D01*
X51006174Y-96619858D01*
X51009684Y-96596197D01*
X51015496Y-96572993D01*
X51023554Y-96550471D01*
X51033782Y-96528847D01*
X51046079Y-96508330D01*
X51060329Y-96489117D01*
X51076393Y-96471393D01*
X51094117Y-96455329D01*
X51113330Y-96441079D01*
X51133847Y-96428782D01*
X51155471Y-96418554D01*
X51177993Y-96410496D01*
X51201197Y-96404684D01*
X51224858Y-96401174D01*
X51248750Y-96400000D01*
X51736250Y-96400000D01*
X51760142Y-96401174D01*
X51760142Y-96401174D01*
G37*
D11*
X51492500Y-97100000D03*
D10*
G36*
X53635142Y-96401174D02*
G01*
X53658803Y-96404684D01*
X53682007Y-96410496D01*
X53704529Y-96418554D01*
X53726153Y-96428782D01*
X53746670Y-96441079D01*
X53765883Y-96455329D01*
X53783607Y-96471393D01*
X53799671Y-96489117D01*
X53813921Y-96508330D01*
X53826218Y-96528847D01*
X53836446Y-96550471D01*
X53844504Y-96572993D01*
X53850316Y-96596197D01*
X53853826Y-96619858D01*
X53855000Y-96643750D01*
X53855000Y-97556250D01*
X53853826Y-97580142D01*
X53850316Y-97603803D01*
X53844504Y-97627007D01*
X53836446Y-97649529D01*
X53826218Y-97671153D01*
X53813921Y-97691670D01*
X53799671Y-97710883D01*
X53783607Y-97728607D01*
X53765883Y-97744671D01*
X53746670Y-97758921D01*
X53726153Y-97771218D01*
X53704529Y-97781446D01*
X53682007Y-97789504D01*
X53658803Y-97795316D01*
X53635142Y-97798826D01*
X53611250Y-97800000D01*
X53123750Y-97800000D01*
X53099858Y-97798826D01*
X53076197Y-97795316D01*
X53052993Y-97789504D01*
X53030471Y-97781446D01*
X53008847Y-97771218D01*
X52988330Y-97758921D01*
X52969117Y-97744671D01*
X52951393Y-97728607D01*
X52935329Y-97710883D01*
X52921079Y-97691670D01*
X52908782Y-97671153D01*
X52898554Y-97649529D01*
X52890496Y-97627007D01*
X52884684Y-97603803D01*
X52881174Y-97580142D01*
X52880000Y-97556250D01*
X52880000Y-96643750D01*
X52881174Y-96619858D01*
X52884684Y-96596197D01*
X52890496Y-96572993D01*
X52898554Y-96550471D01*
X52908782Y-96528847D01*
X52921079Y-96508330D01*
X52935329Y-96489117D01*
X52951393Y-96471393D01*
X52969117Y-96455329D01*
X52988330Y-96441079D01*
X53008847Y-96428782D01*
X53030471Y-96418554D01*
X53052993Y-96410496D01*
X53076197Y-96404684D01*
X53099858Y-96401174D01*
X53123750Y-96400000D01*
X53611250Y-96400000D01*
X53635142Y-96401174D01*
X53635142Y-96401174D01*
G37*
D11*
X53367500Y-97100000D03*
D10*
G36*
X51780142Y-94441174D02*
G01*
X51803803Y-94444684D01*
X51827007Y-94450496D01*
X51849529Y-94458554D01*
X51871153Y-94468782D01*
X51891670Y-94481079D01*
X51910883Y-94495329D01*
X51928607Y-94511393D01*
X51944671Y-94529117D01*
X51958921Y-94548330D01*
X51971218Y-94568847D01*
X51981446Y-94590471D01*
X51989504Y-94612993D01*
X51995316Y-94636197D01*
X51998826Y-94659858D01*
X52000000Y-94683750D01*
X52000000Y-95596250D01*
X51998826Y-95620142D01*
X51995316Y-95643803D01*
X51989504Y-95667007D01*
X51981446Y-95689529D01*
X51971218Y-95711153D01*
X51958921Y-95731670D01*
X51944671Y-95750883D01*
X51928607Y-95768607D01*
X51910883Y-95784671D01*
X51891670Y-95798921D01*
X51871153Y-95811218D01*
X51849529Y-95821446D01*
X51827007Y-95829504D01*
X51803803Y-95835316D01*
X51780142Y-95838826D01*
X51756250Y-95840000D01*
X51268750Y-95840000D01*
X51244858Y-95838826D01*
X51221197Y-95835316D01*
X51197993Y-95829504D01*
X51175471Y-95821446D01*
X51153847Y-95811218D01*
X51133330Y-95798921D01*
X51114117Y-95784671D01*
X51096393Y-95768607D01*
X51080329Y-95750883D01*
X51066079Y-95731670D01*
X51053782Y-95711153D01*
X51043554Y-95689529D01*
X51035496Y-95667007D01*
X51029684Y-95643803D01*
X51026174Y-95620142D01*
X51025000Y-95596250D01*
X51025000Y-94683750D01*
X51026174Y-94659858D01*
X51029684Y-94636197D01*
X51035496Y-94612993D01*
X51043554Y-94590471D01*
X51053782Y-94568847D01*
X51066079Y-94548330D01*
X51080329Y-94529117D01*
X51096393Y-94511393D01*
X51114117Y-94495329D01*
X51133330Y-94481079D01*
X51153847Y-94468782D01*
X51175471Y-94458554D01*
X51197993Y-94450496D01*
X51221197Y-94444684D01*
X51244858Y-94441174D01*
X51268750Y-94440000D01*
X51756250Y-94440000D01*
X51780142Y-94441174D01*
X51780142Y-94441174D01*
G37*
D11*
X51512500Y-95140000D03*
D10*
G36*
X53655142Y-94441174D02*
G01*
X53678803Y-94444684D01*
X53702007Y-94450496D01*
X53724529Y-94458554D01*
X53746153Y-94468782D01*
X53766670Y-94481079D01*
X53785883Y-94495329D01*
X53803607Y-94511393D01*
X53819671Y-94529117D01*
X53833921Y-94548330D01*
X53846218Y-94568847D01*
X53856446Y-94590471D01*
X53864504Y-94612993D01*
X53870316Y-94636197D01*
X53873826Y-94659858D01*
X53875000Y-94683750D01*
X53875000Y-95596250D01*
X53873826Y-95620142D01*
X53870316Y-95643803D01*
X53864504Y-95667007D01*
X53856446Y-95689529D01*
X53846218Y-95711153D01*
X53833921Y-95731670D01*
X53819671Y-95750883D01*
X53803607Y-95768607D01*
X53785883Y-95784671D01*
X53766670Y-95798921D01*
X53746153Y-95811218D01*
X53724529Y-95821446D01*
X53702007Y-95829504D01*
X53678803Y-95835316D01*
X53655142Y-95838826D01*
X53631250Y-95840000D01*
X53143750Y-95840000D01*
X53119858Y-95838826D01*
X53096197Y-95835316D01*
X53072993Y-95829504D01*
X53050471Y-95821446D01*
X53028847Y-95811218D01*
X53008330Y-95798921D01*
X52989117Y-95784671D01*
X52971393Y-95768607D01*
X52955329Y-95750883D01*
X52941079Y-95731670D01*
X52928782Y-95711153D01*
X52918554Y-95689529D01*
X52910496Y-95667007D01*
X52904684Y-95643803D01*
X52901174Y-95620142D01*
X52900000Y-95596250D01*
X52900000Y-94683750D01*
X52901174Y-94659858D01*
X52904684Y-94636197D01*
X52910496Y-94612993D01*
X52918554Y-94590471D01*
X52928782Y-94568847D01*
X52941079Y-94548330D01*
X52955329Y-94529117D01*
X52971393Y-94511393D01*
X52989117Y-94495329D01*
X53008330Y-94481079D01*
X53028847Y-94468782D01*
X53050471Y-94458554D01*
X53072993Y-94450496D01*
X53096197Y-94444684D01*
X53119858Y-94441174D01*
X53143750Y-94440000D01*
X53631250Y-94440000D01*
X53655142Y-94441174D01*
X53655142Y-94441174D01*
G37*
D11*
X53387500Y-95140000D03*
D10*
G36*
X51780142Y-92461174D02*
G01*
X51803803Y-92464684D01*
X51827007Y-92470496D01*
X51849529Y-92478554D01*
X51871153Y-92488782D01*
X51891670Y-92501079D01*
X51910883Y-92515329D01*
X51928607Y-92531393D01*
X51944671Y-92549117D01*
X51958921Y-92568330D01*
X51971218Y-92588847D01*
X51981446Y-92610471D01*
X51989504Y-92632993D01*
X51995316Y-92656197D01*
X51998826Y-92679858D01*
X52000000Y-92703750D01*
X52000000Y-93616250D01*
X51998826Y-93640142D01*
X51995316Y-93663803D01*
X51989504Y-93687007D01*
X51981446Y-93709529D01*
X51971218Y-93731153D01*
X51958921Y-93751670D01*
X51944671Y-93770883D01*
X51928607Y-93788607D01*
X51910883Y-93804671D01*
X51891670Y-93818921D01*
X51871153Y-93831218D01*
X51849529Y-93841446D01*
X51827007Y-93849504D01*
X51803803Y-93855316D01*
X51780142Y-93858826D01*
X51756250Y-93860000D01*
X51268750Y-93860000D01*
X51244858Y-93858826D01*
X51221197Y-93855316D01*
X51197993Y-93849504D01*
X51175471Y-93841446D01*
X51153847Y-93831218D01*
X51133330Y-93818921D01*
X51114117Y-93804671D01*
X51096393Y-93788607D01*
X51080329Y-93770883D01*
X51066079Y-93751670D01*
X51053782Y-93731153D01*
X51043554Y-93709529D01*
X51035496Y-93687007D01*
X51029684Y-93663803D01*
X51026174Y-93640142D01*
X51025000Y-93616250D01*
X51025000Y-92703750D01*
X51026174Y-92679858D01*
X51029684Y-92656197D01*
X51035496Y-92632993D01*
X51043554Y-92610471D01*
X51053782Y-92588847D01*
X51066079Y-92568330D01*
X51080329Y-92549117D01*
X51096393Y-92531393D01*
X51114117Y-92515329D01*
X51133330Y-92501079D01*
X51153847Y-92488782D01*
X51175471Y-92478554D01*
X51197993Y-92470496D01*
X51221197Y-92464684D01*
X51244858Y-92461174D01*
X51268750Y-92460000D01*
X51756250Y-92460000D01*
X51780142Y-92461174D01*
X51780142Y-92461174D01*
G37*
D11*
X51512500Y-93160000D03*
D10*
G36*
X53655142Y-92461174D02*
G01*
X53678803Y-92464684D01*
X53702007Y-92470496D01*
X53724529Y-92478554D01*
X53746153Y-92488782D01*
X53766670Y-92501079D01*
X53785883Y-92515329D01*
X53803607Y-92531393D01*
X53819671Y-92549117D01*
X53833921Y-92568330D01*
X53846218Y-92588847D01*
X53856446Y-92610471D01*
X53864504Y-92632993D01*
X53870316Y-92656197D01*
X53873826Y-92679858D01*
X53875000Y-92703750D01*
X53875000Y-93616250D01*
X53873826Y-93640142D01*
X53870316Y-93663803D01*
X53864504Y-93687007D01*
X53856446Y-93709529D01*
X53846218Y-93731153D01*
X53833921Y-93751670D01*
X53819671Y-93770883D01*
X53803607Y-93788607D01*
X53785883Y-93804671D01*
X53766670Y-93818921D01*
X53746153Y-93831218D01*
X53724529Y-93841446D01*
X53702007Y-93849504D01*
X53678803Y-93855316D01*
X53655142Y-93858826D01*
X53631250Y-93860000D01*
X53143750Y-93860000D01*
X53119858Y-93858826D01*
X53096197Y-93855316D01*
X53072993Y-93849504D01*
X53050471Y-93841446D01*
X53028847Y-93831218D01*
X53008330Y-93818921D01*
X52989117Y-93804671D01*
X52971393Y-93788607D01*
X52955329Y-93770883D01*
X52941079Y-93751670D01*
X52928782Y-93731153D01*
X52918554Y-93709529D01*
X52910496Y-93687007D01*
X52904684Y-93663803D01*
X52901174Y-93640142D01*
X52900000Y-93616250D01*
X52900000Y-92703750D01*
X52901174Y-92679858D01*
X52904684Y-92656197D01*
X52910496Y-92632993D01*
X52918554Y-92610471D01*
X52928782Y-92588847D01*
X52941079Y-92568330D01*
X52955329Y-92549117D01*
X52971393Y-92531393D01*
X52989117Y-92515329D01*
X53008330Y-92501079D01*
X53028847Y-92488782D01*
X53050471Y-92478554D01*
X53072993Y-92470496D01*
X53096197Y-92464684D01*
X53119858Y-92461174D01*
X53143750Y-92460000D01*
X53631250Y-92460000D01*
X53655142Y-92461174D01*
X53655142Y-92461174D01*
G37*
D11*
X53387500Y-93160000D03*
D10*
G36*
X53675142Y-90501174D02*
G01*
X53698803Y-90504684D01*
X53722007Y-90510496D01*
X53744529Y-90518554D01*
X53766153Y-90528782D01*
X53786670Y-90541079D01*
X53805883Y-90555329D01*
X53823607Y-90571393D01*
X53839671Y-90589117D01*
X53853921Y-90608330D01*
X53866218Y-90628847D01*
X53876446Y-90650471D01*
X53884504Y-90672993D01*
X53890316Y-90696197D01*
X53893826Y-90719858D01*
X53895000Y-90743750D01*
X53895000Y-91656250D01*
X53893826Y-91680142D01*
X53890316Y-91703803D01*
X53884504Y-91727007D01*
X53876446Y-91749529D01*
X53866218Y-91771153D01*
X53853921Y-91791670D01*
X53839671Y-91810883D01*
X53823607Y-91828607D01*
X53805883Y-91844671D01*
X53786670Y-91858921D01*
X53766153Y-91871218D01*
X53744529Y-91881446D01*
X53722007Y-91889504D01*
X53698803Y-91895316D01*
X53675142Y-91898826D01*
X53651250Y-91900000D01*
X53163750Y-91900000D01*
X53139858Y-91898826D01*
X53116197Y-91895316D01*
X53092993Y-91889504D01*
X53070471Y-91881446D01*
X53048847Y-91871218D01*
X53028330Y-91858921D01*
X53009117Y-91844671D01*
X52991393Y-91828607D01*
X52975329Y-91810883D01*
X52961079Y-91791670D01*
X52948782Y-91771153D01*
X52938554Y-91749529D01*
X52930496Y-91727007D01*
X52924684Y-91703803D01*
X52921174Y-91680142D01*
X52920000Y-91656250D01*
X52920000Y-90743750D01*
X52921174Y-90719858D01*
X52924684Y-90696197D01*
X52930496Y-90672993D01*
X52938554Y-90650471D01*
X52948782Y-90628847D01*
X52961079Y-90608330D01*
X52975329Y-90589117D01*
X52991393Y-90571393D01*
X53009117Y-90555329D01*
X53028330Y-90541079D01*
X53048847Y-90528782D01*
X53070471Y-90518554D01*
X53092993Y-90510496D01*
X53116197Y-90504684D01*
X53139858Y-90501174D01*
X53163750Y-90500000D01*
X53651250Y-90500000D01*
X53675142Y-90501174D01*
X53675142Y-90501174D01*
G37*
D11*
X53407500Y-91200000D03*
D10*
G36*
X51800142Y-90501174D02*
G01*
X51823803Y-90504684D01*
X51847007Y-90510496D01*
X51869529Y-90518554D01*
X51891153Y-90528782D01*
X51911670Y-90541079D01*
X51930883Y-90555329D01*
X51948607Y-90571393D01*
X51964671Y-90589117D01*
X51978921Y-90608330D01*
X51991218Y-90628847D01*
X52001446Y-90650471D01*
X52009504Y-90672993D01*
X52015316Y-90696197D01*
X52018826Y-90719858D01*
X52020000Y-90743750D01*
X52020000Y-91656250D01*
X52018826Y-91680142D01*
X52015316Y-91703803D01*
X52009504Y-91727007D01*
X52001446Y-91749529D01*
X51991218Y-91771153D01*
X51978921Y-91791670D01*
X51964671Y-91810883D01*
X51948607Y-91828607D01*
X51930883Y-91844671D01*
X51911670Y-91858921D01*
X51891153Y-91871218D01*
X51869529Y-91881446D01*
X51847007Y-91889504D01*
X51823803Y-91895316D01*
X51800142Y-91898826D01*
X51776250Y-91900000D01*
X51288750Y-91900000D01*
X51264858Y-91898826D01*
X51241197Y-91895316D01*
X51217993Y-91889504D01*
X51195471Y-91881446D01*
X51173847Y-91871218D01*
X51153330Y-91858921D01*
X51134117Y-91844671D01*
X51116393Y-91828607D01*
X51100329Y-91810883D01*
X51086079Y-91791670D01*
X51073782Y-91771153D01*
X51063554Y-91749529D01*
X51055496Y-91727007D01*
X51049684Y-91703803D01*
X51046174Y-91680142D01*
X51045000Y-91656250D01*
X51045000Y-90743750D01*
X51046174Y-90719858D01*
X51049684Y-90696197D01*
X51055496Y-90672993D01*
X51063554Y-90650471D01*
X51073782Y-90628847D01*
X51086079Y-90608330D01*
X51100329Y-90589117D01*
X51116393Y-90571393D01*
X51134117Y-90555329D01*
X51153330Y-90541079D01*
X51173847Y-90528782D01*
X51195471Y-90518554D01*
X51217993Y-90510496D01*
X51241197Y-90504684D01*
X51264858Y-90501174D01*
X51288750Y-90500000D01*
X51776250Y-90500000D01*
X51800142Y-90501174D01*
X51800142Y-90501174D01*
G37*
D11*
X51532500Y-91200000D03*
D10*
G36*
X51800142Y-88511174D02*
G01*
X51823803Y-88514684D01*
X51847007Y-88520496D01*
X51869529Y-88528554D01*
X51891153Y-88538782D01*
X51911670Y-88551079D01*
X51930883Y-88565329D01*
X51948607Y-88581393D01*
X51964671Y-88599117D01*
X51978921Y-88618330D01*
X51991218Y-88638847D01*
X52001446Y-88660471D01*
X52009504Y-88682993D01*
X52015316Y-88706197D01*
X52018826Y-88729858D01*
X52020000Y-88753750D01*
X52020000Y-89666250D01*
X52018826Y-89690142D01*
X52015316Y-89713803D01*
X52009504Y-89737007D01*
X52001446Y-89759529D01*
X51991218Y-89781153D01*
X51978921Y-89801670D01*
X51964671Y-89820883D01*
X51948607Y-89838607D01*
X51930883Y-89854671D01*
X51911670Y-89868921D01*
X51891153Y-89881218D01*
X51869529Y-89891446D01*
X51847007Y-89899504D01*
X51823803Y-89905316D01*
X51800142Y-89908826D01*
X51776250Y-89910000D01*
X51288750Y-89910000D01*
X51264858Y-89908826D01*
X51241197Y-89905316D01*
X51217993Y-89899504D01*
X51195471Y-89891446D01*
X51173847Y-89881218D01*
X51153330Y-89868921D01*
X51134117Y-89854671D01*
X51116393Y-89838607D01*
X51100329Y-89820883D01*
X51086079Y-89801670D01*
X51073782Y-89781153D01*
X51063554Y-89759529D01*
X51055496Y-89737007D01*
X51049684Y-89713803D01*
X51046174Y-89690142D01*
X51045000Y-89666250D01*
X51045000Y-88753750D01*
X51046174Y-88729858D01*
X51049684Y-88706197D01*
X51055496Y-88682993D01*
X51063554Y-88660471D01*
X51073782Y-88638847D01*
X51086079Y-88618330D01*
X51100329Y-88599117D01*
X51116393Y-88581393D01*
X51134117Y-88565329D01*
X51153330Y-88551079D01*
X51173847Y-88538782D01*
X51195471Y-88528554D01*
X51217993Y-88520496D01*
X51241197Y-88514684D01*
X51264858Y-88511174D01*
X51288750Y-88510000D01*
X51776250Y-88510000D01*
X51800142Y-88511174D01*
X51800142Y-88511174D01*
G37*
D11*
X51532500Y-89210000D03*
D10*
G36*
X53675142Y-88511174D02*
G01*
X53698803Y-88514684D01*
X53722007Y-88520496D01*
X53744529Y-88528554D01*
X53766153Y-88538782D01*
X53786670Y-88551079D01*
X53805883Y-88565329D01*
X53823607Y-88581393D01*
X53839671Y-88599117D01*
X53853921Y-88618330D01*
X53866218Y-88638847D01*
X53876446Y-88660471D01*
X53884504Y-88682993D01*
X53890316Y-88706197D01*
X53893826Y-88729858D01*
X53895000Y-88753750D01*
X53895000Y-89666250D01*
X53893826Y-89690142D01*
X53890316Y-89713803D01*
X53884504Y-89737007D01*
X53876446Y-89759529D01*
X53866218Y-89781153D01*
X53853921Y-89801670D01*
X53839671Y-89820883D01*
X53823607Y-89838607D01*
X53805883Y-89854671D01*
X53786670Y-89868921D01*
X53766153Y-89881218D01*
X53744529Y-89891446D01*
X53722007Y-89899504D01*
X53698803Y-89905316D01*
X53675142Y-89908826D01*
X53651250Y-89910000D01*
X53163750Y-89910000D01*
X53139858Y-89908826D01*
X53116197Y-89905316D01*
X53092993Y-89899504D01*
X53070471Y-89891446D01*
X53048847Y-89881218D01*
X53028330Y-89868921D01*
X53009117Y-89854671D01*
X52991393Y-89838607D01*
X52975329Y-89820883D01*
X52961079Y-89801670D01*
X52948782Y-89781153D01*
X52938554Y-89759529D01*
X52930496Y-89737007D01*
X52924684Y-89713803D01*
X52921174Y-89690142D01*
X52920000Y-89666250D01*
X52920000Y-88753750D01*
X52921174Y-88729858D01*
X52924684Y-88706197D01*
X52930496Y-88682993D01*
X52938554Y-88660471D01*
X52948782Y-88638847D01*
X52961079Y-88618330D01*
X52975329Y-88599117D01*
X52991393Y-88581393D01*
X53009117Y-88565329D01*
X53028330Y-88551079D01*
X53048847Y-88538782D01*
X53070471Y-88528554D01*
X53092993Y-88520496D01*
X53116197Y-88514684D01*
X53139858Y-88511174D01*
X53163750Y-88510000D01*
X53651250Y-88510000D01*
X53675142Y-88511174D01*
X53675142Y-88511174D01*
G37*
D11*
X53407500Y-89210000D03*
D10*
G36*
X51780142Y-86541174D02*
G01*
X51803803Y-86544684D01*
X51827007Y-86550496D01*
X51849529Y-86558554D01*
X51871153Y-86568782D01*
X51891670Y-86581079D01*
X51910883Y-86595329D01*
X51928607Y-86611393D01*
X51944671Y-86629117D01*
X51958921Y-86648330D01*
X51971218Y-86668847D01*
X51981446Y-86690471D01*
X51989504Y-86712993D01*
X51995316Y-86736197D01*
X51998826Y-86759858D01*
X52000000Y-86783750D01*
X52000000Y-87696250D01*
X51998826Y-87720142D01*
X51995316Y-87743803D01*
X51989504Y-87767007D01*
X51981446Y-87789529D01*
X51971218Y-87811153D01*
X51958921Y-87831670D01*
X51944671Y-87850883D01*
X51928607Y-87868607D01*
X51910883Y-87884671D01*
X51891670Y-87898921D01*
X51871153Y-87911218D01*
X51849529Y-87921446D01*
X51827007Y-87929504D01*
X51803803Y-87935316D01*
X51780142Y-87938826D01*
X51756250Y-87940000D01*
X51268750Y-87940000D01*
X51244858Y-87938826D01*
X51221197Y-87935316D01*
X51197993Y-87929504D01*
X51175471Y-87921446D01*
X51153847Y-87911218D01*
X51133330Y-87898921D01*
X51114117Y-87884671D01*
X51096393Y-87868607D01*
X51080329Y-87850883D01*
X51066079Y-87831670D01*
X51053782Y-87811153D01*
X51043554Y-87789529D01*
X51035496Y-87767007D01*
X51029684Y-87743803D01*
X51026174Y-87720142D01*
X51025000Y-87696250D01*
X51025000Y-86783750D01*
X51026174Y-86759858D01*
X51029684Y-86736197D01*
X51035496Y-86712993D01*
X51043554Y-86690471D01*
X51053782Y-86668847D01*
X51066079Y-86648330D01*
X51080329Y-86629117D01*
X51096393Y-86611393D01*
X51114117Y-86595329D01*
X51133330Y-86581079D01*
X51153847Y-86568782D01*
X51175471Y-86558554D01*
X51197993Y-86550496D01*
X51221197Y-86544684D01*
X51244858Y-86541174D01*
X51268750Y-86540000D01*
X51756250Y-86540000D01*
X51780142Y-86541174D01*
X51780142Y-86541174D01*
G37*
D11*
X51512500Y-87240000D03*
D10*
G36*
X53655142Y-86541174D02*
G01*
X53678803Y-86544684D01*
X53702007Y-86550496D01*
X53724529Y-86558554D01*
X53746153Y-86568782D01*
X53766670Y-86581079D01*
X53785883Y-86595329D01*
X53803607Y-86611393D01*
X53819671Y-86629117D01*
X53833921Y-86648330D01*
X53846218Y-86668847D01*
X53856446Y-86690471D01*
X53864504Y-86712993D01*
X53870316Y-86736197D01*
X53873826Y-86759858D01*
X53875000Y-86783750D01*
X53875000Y-87696250D01*
X53873826Y-87720142D01*
X53870316Y-87743803D01*
X53864504Y-87767007D01*
X53856446Y-87789529D01*
X53846218Y-87811153D01*
X53833921Y-87831670D01*
X53819671Y-87850883D01*
X53803607Y-87868607D01*
X53785883Y-87884671D01*
X53766670Y-87898921D01*
X53746153Y-87911218D01*
X53724529Y-87921446D01*
X53702007Y-87929504D01*
X53678803Y-87935316D01*
X53655142Y-87938826D01*
X53631250Y-87940000D01*
X53143750Y-87940000D01*
X53119858Y-87938826D01*
X53096197Y-87935316D01*
X53072993Y-87929504D01*
X53050471Y-87921446D01*
X53028847Y-87911218D01*
X53008330Y-87898921D01*
X52989117Y-87884671D01*
X52971393Y-87868607D01*
X52955329Y-87850883D01*
X52941079Y-87831670D01*
X52928782Y-87811153D01*
X52918554Y-87789529D01*
X52910496Y-87767007D01*
X52904684Y-87743803D01*
X52901174Y-87720142D01*
X52900000Y-87696250D01*
X52900000Y-86783750D01*
X52901174Y-86759858D01*
X52904684Y-86736197D01*
X52910496Y-86712993D01*
X52918554Y-86690471D01*
X52928782Y-86668847D01*
X52941079Y-86648330D01*
X52955329Y-86629117D01*
X52971393Y-86611393D01*
X52989117Y-86595329D01*
X53008330Y-86581079D01*
X53028847Y-86568782D01*
X53050471Y-86558554D01*
X53072993Y-86550496D01*
X53096197Y-86544684D01*
X53119858Y-86541174D01*
X53143750Y-86540000D01*
X53631250Y-86540000D01*
X53655142Y-86541174D01*
X53655142Y-86541174D01*
G37*
D11*
X53387500Y-87240000D03*
D14*
X55920000Y-101220000D03*
X55920000Y-99220000D03*
X55920000Y-97220000D03*
X55920000Y-95220000D03*
X55920000Y-93220000D03*
X55920000Y-91220000D03*
X55920000Y-89220000D03*
X55920000Y-87220000D03*
D15*
X55920000Y-85220000D03*
D10*
G36*
X77984505Y-87641204D02*
G01*
X78008773Y-87644804D01*
X78032572Y-87650765D01*
X78055671Y-87659030D01*
X78077850Y-87669520D01*
X78098893Y-87682132D01*
X78118599Y-87696747D01*
X78136777Y-87713223D01*
X78153253Y-87731401D01*
X78167868Y-87751107D01*
X78180480Y-87772150D01*
X78190970Y-87794329D01*
X78199235Y-87817428D01*
X78205196Y-87841227D01*
X78208796Y-87865495D01*
X78210000Y-87889999D01*
X78210000Y-89190001D01*
X78208796Y-89214505D01*
X78205196Y-89238773D01*
X78199235Y-89262572D01*
X78190970Y-89285671D01*
X78180480Y-89307850D01*
X78167868Y-89328893D01*
X78153253Y-89348599D01*
X78136777Y-89366777D01*
X78118599Y-89383253D01*
X78098893Y-89397868D01*
X78077850Y-89410480D01*
X78055671Y-89420970D01*
X78032572Y-89429235D01*
X78008773Y-89435196D01*
X77984505Y-89438796D01*
X77960001Y-89440000D01*
X77059999Y-89440000D01*
X77035495Y-89438796D01*
X77011227Y-89435196D01*
X76987428Y-89429235D01*
X76964329Y-89420970D01*
X76942150Y-89410480D01*
X76921107Y-89397868D01*
X76901401Y-89383253D01*
X76883223Y-89366777D01*
X76866747Y-89348599D01*
X76852132Y-89328893D01*
X76839520Y-89307850D01*
X76829030Y-89285671D01*
X76820765Y-89262572D01*
X76814804Y-89238773D01*
X76811204Y-89214505D01*
X76810000Y-89190001D01*
X76810000Y-87889999D01*
X76811204Y-87865495D01*
X76814804Y-87841227D01*
X76820765Y-87817428D01*
X76829030Y-87794329D01*
X76839520Y-87772150D01*
X76852132Y-87751107D01*
X76866747Y-87731401D01*
X76883223Y-87713223D01*
X76901401Y-87696747D01*
X76921107Y-87682132D01*
X76942150Y-87669520D01*
X76964329Y-87659030D01*
X76987428Y-87650765D01*
X77011227Y-87644804D01*
X77035495Y-87641204D01*
X77059999Y-87640000D01*
X77960001Y-87640000D01*
X77984505Y-87641204D01*
X77984505Y-87641204D01*
G37*
D27*
X77510000Y-88540000D03*
D10*
G36*
X73984505Y-87641204D02*
G01*
X74008773Y-87644804D01*
X74032572Y-87650765D01*
X74055671Y-87659030D01*
X74077850Y-87669520D01*
X74098893Y-87682132D01*
X74118599Y-87696747D01*
X74136777Y-87713223D01*
X74153253Y-87731401D01*
X74167868Y-87751107D01*
X74180480Y-87772150D01*
X74190970Y-87794329D01*
X74199235Y-87817428D01*
X74205196Y-87841227D01*
X74208796Y-87865495D01*
X74210000Y-87889999D01*
X74210000Y-89190001D01*
X74208796Y-89214505D01*
X74205196Y-89238773D01*
X74199235Y-89262572D01*
X74190970Y-89285671D01*
X74180480Y-89307850D01*
X74167868Y-89328893D01*
X74153253Y-89348599D01*
X74136777Y-89366777D01*
X74118599Y-89383253D01*
X74098893Y-89397868D01*
X74077850Y-89410480D01*
X74055671Y-89420970D01*
X74032572Y-89429235D01*
X74008773Y-89435196D01*
X73984505Y-89438796D01*
X73960001Y-89440000D01*
X73059999Y-89440000D01*
X73035495Y-89438796D01*
X73011227Y-89435196D01*
X72987428Y-89429235D01*
X72964329Y-89420970D01*
X72942150Y-89410480D01*
X72921107Y-89397868D01*
X72901401Y-89383253D01*
X72883223Y-89366777D01*
X72866747Y-89348599D01*
X72852132Y-89328893D01*
X72839520Y-89307850D01*
X72829030Y-89285671D01*
X72820765Y-89262572D01*
X72814804Y-89238773D01*
X72811204Y-89214505D01*
X72810000Y-89190001D01*
X72810000Y-87889999D01*
X72811204Y-87865495D01*
X72814804Y-87841227D01*
X72820765Y-87817428D01*
X72829030Y-87794329D01*
X72839520Y-87772150D01*
X72852132Y-87751107D01*
X72866747Y-87731401D01*
X72883223Y-87713223D01*
X72901401Y-87696747D01*
X72921107Y-87682132D01*
X72942150Y-87669520D01*
X72964329Y-87659030D01*
X72987428Y-87650765D01*
X73011227Y-87644804D01*
X73035495Y-87641204D01*
X73059999Y-87640000D01*
X73960001Y-87640000D01*
X73984505Y-87641204D01*
X73984505Y-87641204D01*
G37*
D27*
X73510000Y-88540000D03*
D28*
X80230000Y-102650000D03*
X73640000Y-94760000D03*
X73130000Y-95680000D03*
X74170000Y-95640000D03*
X80200000Y-101810000D03*
D29*
X68520000Y-98940000D03*
X60190000Y-90540000D03*
X60070006Y-96730006D03*
X60070000Y-95677588D03*
X85800000Y-94040000D03*
X61970000Y-103050000D03*
D30*
X74515000Y-85279500D03*
X75785000Y-85279500D03*
X62377400Y-84112400D03*
X82022800Y-86735400D03*
X59328500Y-83231600D03*
X81195400Y-86877600D03*
X91620000Y-98904800D03*
D28*
X78970000Y-102650000D03*
X78960000Y-101810000D03*
D30*
X75808600Y-98342800D03*
X89163600Y-94425600D03*
X74307700Y-97665300D03*
X77183300Y-97863700D03*
X77669000Y-100572300D03*
X89780900Y-103650100D03*
X69635900Y-86156600D03*
X65261000Y-85616700D03*
X71975000Y-101190100D03*
X76105300Y-88682200D03*
X63775900Y-90988900D03*
X64026900Y-96460500D03*
X54362500Y-91265400D03*
X67017195Y-99701511D03*
X67578300Y-99931379D03*
X66872400Y-100283790D03*
X60956600Y-94765300D03*
X66853100Y-95610900D03*
X64794700Y-94712700D03*
X68741800Y-92535300D03*
X65920000Y-96501600D03*
X64652500Y-97093900D03*
X64987000Y-95815900D03*
X63627300Y-99931379D03*
X81758200Y-99542500D03*
X75547800Y-99429100D03*
X73667300Y-100585100D03*
X82937800Y-86511700D03*
X74471600Y-100468500D03*
X76370100Y-100135300D03*
X64127600Y-88938600D03*
X52430000Y-97043900D03*
D31*
X80200000Y-101810000D02*
X80200000Y-104385000D01*
X80200000Y-104385000D02*
X79895000Y-104690000D01*
X95360000Y-86335000D02*
X95110000Y-86335000D01*
X95110000Y-86335000D02*
X92820000Y-88625000D01*
X92820000Y-88625000D02*
X92820000Y-90145000D01*
X87845000Y-104690000D02*
X92606000Y-104690000D01*
X92606000Y-104690000D02*
X95360000Y-101936000D01*
X95360000Y-101936000D02*
X95360000Y-100305000D01*
X84420000Y-82740000D02*
X83139000Y-82740000D01*
X83139000Y-82740000D02*
X82463500Y-83415500D01*
X82463500Y-83415500D02*
X70770900Y-83415500D01*
X70770900Y-83415500D02*
X70140000Y-82784600D01*
X70140000Y-82784600D02*
X70140000Y-81830000D01*
X79895000Y-104690000D02*
X87845000Y-104690000D01*
X74170000Y-95640000D02*
X73170000Y-95640000D01*
X73170000Y-95640000D02*
X73130000Y-95680000D01*
X74170000Y-95640000D02*
X74170000Y-95290000D01*
X74170000Y-95290000D02*
X73640000Y-94760000D01*
X77230000Y-95870000D02*
X74400000Y-95870000D01*
X74400000Y-95870000D02*
X74170000Y-95640000D01*
X77230000Y-95870000D02*
X77230000Y-97001000D01*
X77230000Y-97001000D02*
X78019000Y-97790000D01*
X78019000Y-97790000D02*
X81347500Y-97790000D01*
X81347500Y-97790000D02*
X83517500Y-95620000D01*
X83517500Y-95620000D02*
X83517500Y-91590000D01*
X83517500Y-91590000D02*
X83557500Y-91550000D01*
D32*
X66013001Y-105387001D02*
X65940000Y-105314000D01*
X69566999Y-105387001D02*
X66013001Y-105387001D01*
X69640000Y-105314000D02*
X69566999Y-105387001D01*
X69640000Y-104560000D02*
X69640000Y-105314000D01*
X65940000Y-104560000D02*
X65940000Y-105314000D01*
X65866999Y-105387001D02*
X59132407Y-105387001D01*
X57950000Y-105390000D02*
X55920000Y-103360000D01*
X55920000Y-103360000D02*
X55920000Y-101220000D01*
X59132407Y-105387001D02*
X59129408Y-105390000D01*
X59129408Y-105390000D02*
X57950000Y-105390000D01*
X65940000Y-105314000D02*
X65866999Y-105387001D01*
D31*
X68500000Y-98940000D02*
X67975000Y-98415000D01*
X68520000Y-98940000D02*
X68500000Y-98940000D01*
X98980000Y-89540000D02*
X95775000Y-86335000D01*
X98980000Y-98566000D02*
X98980000Y-89540000D01*
X95775000Y-86335000D02*
X95360000Y-86335000D01*
X97241000Y-100305000D02*
X98980000Y-98566000D01*
X95360000Y-100305000D02*
X97241000Y-100305000D01*
X60977500Y-90540000D02*
X60190000Y-90540000D01*
X60070000Y-96730000D02*
X60070006Y-96730006D01*
X60070000Y-95677588D02*
X60070000Y-96730000D01*
X59085000Y-90832500D02*
X59085000Y-90557500D01*
X59085000Y-90557500D02*
X59102500Y-90540000D01*
X59085000Y-93465000D02*
X59085000Y-90832500D01*
X59085000Y-90832500D02*
X59082500Y-90830000D01*
X80582500Y-91550000D02*
X82842500Y-89290000D01*
X82842500Y-89290000D02*
X85615000Y-89290000D01*
X85615000Y-89290000D02*
X92820000Y-96495000D01*
X77230000Y-91270000D02*
X80302500Y-91270000D01*
X80302500Y-91270000D02*
X80582500Y-91550000D01*
X77510000Y-88540000D02*
X77510000Y-90990000D01*
X77510000Y-90990000D02*
X77230000Y-91270000D01*
X69627100Y-91270000D02*
X77230000Y-91270000D01*
X69266600Y-91630500D02*
X69627100Y-91270000D01*
X60193000Y-91630500D02*
X69266600Y-91630500D01*
X59102500Y-90540000D02*
X60193000Y-91630500D01*
D33*
X58140000Y-81830000D02*
X59091500Y-81830000D01*
X59091500Y-81830000D02*
X59091500Y-82127200D01*
X59091500Y-82127200D02*
X60285700Y-83321400D01*
X60285700Y-83321400D02*
X66450200Y-83321400D01*
X66450200Y-83321400D02*
X68408300Y-85279500D01*
X68408300Y-85279500D02*
X74515000Y-85279500D01*
X60140000Y-81830000D02*
X61091500Y-81830000D01*
X61091500Y-81830000D02*
X61091500Y-82186900D01*
X61091500Y-82186900D02*
X61686100Y-82781500D01*
X61686100Y-82781500D02*
X67061600Y-82781500D01*
X67061600Y-82781500D02*
X68929100Y-84649000D01*
X68929100Y-84649000D02*
X75154500Y-84649000D01*
X75154500Y-84649000D02*
X75785000Y-85279500D01*
X82022800Y-86735400D02*
X81059900Y-85772500D01*
X81059900Y-85772500D02*
X70181800Y-85772500D01*
X70181800Y-85772500D02*
X70044400Y-85635100D01*
X70044400Y-85635100D02*
X67740500Y-85635100D01*
X67740500Y-85635100D02*
X66217800Y-84112400D01*
X66217800Y-84112400D02*
X62377400Y-84112400D01*
X55920000Y-87220000D02*
X53407500Y-87220000D01*
X53407500Y-87220000D02*
X53387500Y-87240000D01*
X55920000Y-89220000D02*
X53417500Y-89220000D01*
X53417500Y-89220000D02*
X53407500Y-89210000D01*
X54968500Y-91220000D02*
X54968500Y-91197400D01*
X54968500Y-91197400D02*
X53976100Y-90205000D01*
X53976100Y-90205000D02*
X52930300Y-90205000D01*
X52930300Y-90205000D02*
X51935300Y-91200000D01*
X51935300Y-91200000D02*
X51532500Y-91200000D01*
X55920000Y-91220000D02*
X54968500Y-91220000D01*
X55920000Y-93220000D02*
X53447500Y-93220000D01*
X53447500Y-93220000D02*
X53387500Y-93160000D01*
X55920000Y-95220000D02*
X53467500Y-95220000D01*
X53467500Y-95220000D02*
X53387500Y-95140000D01*
X55920000Y-97220000D02*
X53487500Y-97220000D01*
X53487500Y-97220000D02*
X53367500Y-97100000D01*
X55920000Y-99220000D02*
X54968500Y-99220000D01*
X54968500Y-99220000D02*
X54808500Y-99060000D01*
X54808500Y-99060000D02*
X53387500Y-99060000D01*
D31*
X62040000Y-88340000D02*
X73310000Y-88340000D01*
X73310000Y-88340000D02*
X73510000Y-88540000D01*
X62050000Y-85980000D02*
X62050000Y-88330000D01*
X62050000Y-88330000D02*
X62040000Y-88340000D01*
X73460000Y-88590000D02*
X73510000Y-88540000D01*
D33*
X59328500Y-83231600D02*
X60685800Y-84588900D01*
X60685800Y-84588900D02*
X64916400Y-84588900D01*
X64916400Y-84588900D02*
X67077500Y-86750000D01*
X68722500Y-86750000D02*
X67077500Y-86750000D01*
X68722500Y-86750000D02*
X69750400Y-87777900D01*
X69750400Y-87777900D02*
X72258500Y-87777900D01*
X72258500Y-87777900D02*
X73158800Y-86877600D01*
X73158800Y-86877600D02*
X81195400Y-86877600D01*
X74315900Y-99236900D02*
X74733400Y-98819400D01*
X74733400Y-98819400D02*
X91534600Y-98819400D01*
X91534600Y-98819400D02*
X91620000Y-98904800D01*
D31*
X74315900Y-99236900D02*
X70930000Y-95851000D01*
X70930000Y-95851000D02*
X70930000Y-93570000D01*
X76889000Y-101810000D02*
X74315900Y-99236900D01*
X77230000Y-93570000D02*
X77480000Y-93570000D01*
X77480000Y-93570000D02*
X79530000Y-95620000D01*
X79530000Y-95620000D02*
X80542500Y-95620000D01*
X78960000Y-101810000D02*
X78960000Y-102640000D01*
X78960000Y-102640000D02*
X78970000Y-102650000D01*
X75997500Y-102230000D02*
X76585000Y-102230000D01*
X76585000Y-102230000D02*
X76889000Y-101926000D01*
X76889000Y-101926000D02*
X76889000Y-101810000D01*
X78960000Y-101810000D02*
X76889000Y-101810000D01*
X70930000Y-93570000D02*
X77230000Y-93570000D01*
D33*
X75808600Y-98342800D02*
X85246400Y-98342800D01*
X85246400Y-98342800D02*
X89163600Y-94425600D01*
X77183300Y-97863700D02*
X74506100Y-97863700D01*
X74506100Y-97863700D02*
X74307700Y-97665300D01*
X89780900Y-103650100D02*
X87264200Y-101133400D01*
X87264200Y-101133400D02*
X78230100Y-101133400D01*
X78230100Y-101133400D02*
X77669000Y-100572300D01*
X69635900Y-86156600D02*
X70004100Y-86156600D01*
X70004100Y-86156600D02*
X70597500Y-86750000D01*
X65202500Y-86750000D02*
X65202500Y-85675200D01*
X65202500Y-85675200D02*
X65261000Y-85616700D01*
D31*
X55920000Y-85220000D02*
X56120000Y-85220000D01*
X56120000Y-85220000D02*
X59240000Y-88340000D01*
X55920000Y-85220000D02*
X55920000Y-85260000D01*
D33*
X50723700Y-92180000D02*
X56265200Y-92180000D01*
X56265200Y-92180000D02*
X56960700Y-92875500D01*
X56960700Y-92875500D02*
X56960700Y-92975000D01*
X56960700Y-92975000D02*
X58714200Y-94728500D01*
X58714200Y-94728500D02*
X59402300Y-94728500D01*
X59402300Y-94728500D02*
X60355000Y-93775800D01*
X60355000Y-93775800D02*
X60355000Y-93465000D01*
X51512500Y-87240000D02*
X52338900Y-88066400D01*
X52338900Y-88066400D02*
X52338900Y-89929500D01*
X52338900Y-89929500D02*
X52063400Y-90205000D01*
X52063400Y-90205000D02*
X50993500Y-90205000D01*
X50993500Y-90205000D02*
X50723700Y-90474800D01*
X50723700Y-90474800D02*
X50723700Y-92180000D01*
X56920300Y-100760000D02*
X71544900Y-100760000D01*
X56331900Y-100171600D02*
X56920300Y-100760000D01*
X51120200Y-100171600D02*
X56331900Y-100171600D01*
X50723700Y-99775100D02*
X51120200Y-100171600D01*
X50723700Y-92180000D02*
X50723700Y-99775100D01*
X71544900Y-100760000D02*
X71975000Y-101190100D01*
X63775900Y-90847500D02*
X67817900Y-90847500D01*
X67817900Y-90847500D02*
X67862500Y-90802900D01*
X67862500Y-90802900D02*
X73984600Y-90802900D01*
X73984600Y-90802900D02*
X76105300Y-88682200D01*
X51532500Y-89210000D02*
X50711700Y-88389200D01*
X50711700Y-88389200D02*
X50711700Y-86541100D01*
X50711700Y-86541100D02*
X50997800Y-86255000D01*
X50997800Y-86255000D02*
X56335500Y-86255000D01*
X56335500Y-86255000D02*
X57729300Y-87648800D01*
X57729300Y-87648800D02*
X57729300Y-88585300D01*
X57729300Y-88585300D02*
X58679100Y-89535100D01*
X58679100Y-89535100D02*
X62463500Y-89535100D01*
X62463500Y-89535100D02*
X63775900Y-90847500D01*
X63775900Y-90847500D02*
X63775900Y-90988900D01*
X62895000Y-98415000D02*
X62895000Y-97592400D01*
X62895000Y-97592400D02*
X64026900Y-96460500D01*
X54362500Y-91265400D02*
X53472900Y-91265400D01*
X53472900Y-91265400D02*
X53407500Y-91200000D01*
X66705000Y-98415000D02*
X66705000Y-99490000D01*
X66916511Y-99701511D02*
X67017195Y-99701511D01*
X66705000Y-99490000D02*
X66916511Y-99701511D01*
X64165000Y-95241800D02*
X64165000Y-93465000D01*
X67398790Y-97306390D02*
X67398790Y-99416544D01*
X64165000Y-95241800D02*
X65334200Y-95241800D01*
X65334200Y-95241800D02*
X67398790Y-97306390D01*
X67398790Y-99416544D02*
X67578300Y-99596054D01*
X67578300Y-99648537D02*
X67578300Y-99931379D01*
X67578300Y-99596054D02*
X67578300Y-99648537D01*
X52502500Y-94150000D02*
X52068737Y-93716237D01*
X58121086Y-95151386D02*
X57214400Y-94244700D01*
X52068737Y-93716237D02*
X51512500Y-93160000D01*
X60412992Y-95241800D02*
X60322578Y-95151386D01*
X60322578Y-95151386D02*
X58121086Y-95151386D01*
X64165000Y-95241800D02*
X60412992Y-95241800D01*
X55598900Y-94244700D02*
X55504200Y-94150000D01*
X57214400Y-94244700D02*
X55598900Y-94244700D01*
X55504200Y-94150000D02*
X52502500Y-94150000D01*
X68682411Y-100407589D02*
X67279041Y-100407589D01*
X67155242Y-100283790D02*
X66872400Y-100283790D01*
X69130000Y-99960000D02*
X68682411Y-100407589D01*
X69130000Y-94620000D02*
X69130000Y-99960000D01*
X67975000Y-93465000D02*
X69130000Y-94620000D01*
X67279041Y-100407589D02*
X67155242Y-100283790D01*
X51512500Y-95140000D02*
X52492500Y-96120000D01*
X60753389Y-100407589D02*
X66465759Y-100407589D01*
X52492500Y-96120000D02*
X55474200Y-96120000D01*
X66465759Y-100407589D02*
X66589558Y-100283790D01*
X55577300Y-96223100D02*
X58470854Y-96223100D01*
X66589558Y-100283790D02*
X66872400Y-100283790D01*
X59720000Y-99374200D02*
X60753389Y-100407589D01*
X59720000Y-97472246D02*
X59720000Y-99374200D01*
X55474200Y-96120000D02*
X55577300Y-96223100D01*
X58470854Y-96223100D02*
X59720000Y-97472246D01*
X51512500Y-99060000D02*
X52492500Y-98080000D01*
X52492500Y-98080000D02*
X55434200Y-98080000D01*
X55434200Y-98080000D02*
X55547300Y-98193100D01*
X55547300Y-98193100D02*
X58863100Y-98193100D01*
X58863100Y-98193100D02*
X59085000Y-98415000D01*
X61625000Y-93465000D02*
X60956600Y-94133400D01*
X60956600Y-94133400D02*
X60956600Y-94765300D01*
X66853100Y-95610900D02*
X66012200Y-94770000D01*
X66012200Y-94770000D02*
X66012200Y-92355500D01*
X66012200Y-92355500D02*
X65818800Y-92162100D01*
X65818800Y-92162100D02*
X63884700Y-92162100D01*
X63884700Y-92162100D02*
X62895000Y-93151800D01*
X62895000Y-93151800D02*
X62895000Y-93465000D01*
X65435000Y-93465000D02*
X64794700Y-94105300D01*
X64794700Y-94105300D02*
X64794700Y-94712700D01*
X66705000Y-93465000D02*
X66705000Y-93082100D01*
X66705000Y-93082100D02*
X67574300Y-92212800D01*
X67574300Y-92212800D02*
X68419300Y-92212800D01*
X68419300Y-92212800D02*
X68741800Y-92535300D01*
X65435000Y-98415000D02*
X65920000Y-97930000D01*
X65920000Y-97930000D02*
X65920000Y-96501600D01*
X64165000Y-98415000D02*
X64652500Y-97927500D01*
X64652500Y-97927500D02*
X64652500Y-97093900D01*
X61625000Y-98415000D02*
X61625000Y-98026300D01*
X61625000Y-98026300D02*
X63835400Y-95815900D01*
X63835400Y-95815900D02*
X64987000Y-95815900D01*
X60355000Y-98415000D02*
X60355000Y-99490000D01*
X63344458Y-99931379D02*
X63627300Y-99931379D01*
X60796379Y-99931379D02*
X63344458Y-99931379D01*
X60355000Y-99490000D02*
X60796379Y-99931379D01*
D31*
X56140000Y-81830000D02*
X56140000Y-82886000D01*
X56140000Y-82886000D02*
X59234000Y-85980000D01*
X59234000Y-85980000D02*
X59250000Y-85980000D01*
D33*
X68370000Y-104560000D02*
X68370000Y-103783500D01*
X75547800Y-99429100D02*
X75741400Y-99235500D01*
X75741400Y-99235500D02*
X81451200Y-99235500D01*
X81451200Y-99235500D02*
X81758200Y-99542500D01*
X68370000Y-103783500D02*
X70468900Y-103783500D01*
X70468900Y-103783500D02*
X73667300Y-100585100D01*
X82937800Y-86511700D02*
X80312200Y-83886100D01*
X80312200Y-83886100D02*
X68840100Y-83886100D01*
X68840100Y-83886100D02*
X67140000Y-82186000D01*
X67140000Y-82186000D02*
X67140000Y-81484200D01*
X67140000Y-81484200D02*
X66507900Y-80852100D01*
X66507900Y-80852100D02*
X63712600Y-80852100D01*
X63712600Y-80852100D02*
X63091500Y-81473200D01*
X63091500Y-81473200D02*
X63091500Y-81830000D01*
X62140000Y-81830000D02*
X63091500Y-81830000D01*
X67097500Y-89870000D02*
X74155500Y-89870000D01*
X74155500Y-89870000D02*
X76663300Y-87362200D01*
X76663300Y-87362200D02*
X82761300Y-87362200D01*
X82761300Y-87362200D02*
X86960000Y-83163500D01*
X86960000Y-83163500D02*
X86960000Y-82740000D01*
X74471600Y-100468500D02*
X74471600Y-101880900D01*
X74471600Y-101880900D02*
X74122500Y-102230000D01*
X79895000Y-100190000D02*
X78843500Y-100190000D01*
X78843500Y-100190000D02*
X78749200Y-100095700D01*
X78749200Y-100095700D02*
X76409700Y-100095700D01*
X76409700Y-100095700D02*
X76370100Y-100135300D01*
X87845000Y-100190000D02*
X79895000Y-100190000D01*
X65222500Y-89870000D02*
X65059000Y-89870000D01*
X65059000Y-89870000D02*
X64127600Y-88938600D01*
X52430000Y-97043900D02*
X51548600Y-97043900D01*
X51548600Y-97043900D02*
X51492500Y-97100000D01*
D32*
G36*
X50416292Y-100114269D02*
G01*
X50781034Y-100479013D01*
X50795347Y-100496453D01*
X50812786Y-100510765D01*
X50812792Y-100510771D01*
X50864964Y-100553587D01*
X50944390Y-100596041D01*
X50964449Y-100602126D01*
X51030573Y-100622185D01*
X51097740Y-100628800D01*
X51097750Y-100628800D01*
X51120200Y-100631011D01*
X51142650Y-100628800D01*
X54757042Y-100628800D01*
X54682762Y-100789472D01*
X54652090Y-100890600D01*
X54775776Y-101093000D01*
X55793000Y-101093000D01*
X55793000Y-101073000D01*
X56047000Y-101073000D01*
X56047000Y-101093000D01*
X56605374Y-101093000D01*
X56612892Y-101099170D01*
X56665063Y-101141987D01*
X56686229Y-101153300D01*
X56744491Y-101184441D01*
X56830673Y-101210585D01*
X56897840Y-101217200D01*
X56897849Y-101217200D01*
X56920299Y-101219411D01*
X56942749Y-101217200D01*
X71355523Y-101217200D01*
X71396074Y-101257752D01*
X71416328Y-101359571D01*
X71460125Y-101465307D01*
X71523708Y-101560466D01*
X71604634Y-101641392D01*
X71699793Y-101704975D01*
X71805529Y-101748772D01*
X71848502Y-101757320D01*
X70279523Y-103326300D01*
X68392460Y-103326300D01*
X68370000Y-103324088D01*
X68347540Y-103326300D01*
X68280373Y-103332915D01*
X68194191Y-103359059D01*
X68114764Y-103401513D01*
X68045147Y-103458647D01*
X67988013Y-103528264D01*
X67945559Y-103607691D01*
X67919415Y-103693873D01*
X67910588Y-103783500D01*
X67912750Y-103805451D01*
X67878175Y-103823932D01*
X67744025Y-103934025D01*
X67633932Y-104068175D01*
X67552125Y-104221225D01*
X67501748Y-104387294D01*
X67484738Y-104560000D01*
X67501748Y-104732706D01*
X67552125Y-104898775D01*
X67633932Y-105051825D01*
X67744025Y-105185975D01*
X67878175Y-105296068D01*
X68031225Y-105377875D01*
X68197294Y-105428252D01*
X68326727Y-105441000D01*
X68413273Y-105441000D01*
X68542706Y-105428252D01*
X68606477Y-105408907D01*
X68609463Y-105414494D01*
X68688815Y-105511185D01*
X68785506Y-105590537D01*
X68895820Y-105649502D01*
X69015518Y-105685812D01*
X69140000Y-105698072D01*
X69354250Y-105695000D01*
X69513000Y-105536250D01*
X69513000Y-104687000D01*
X69767000Y-104687000D01*
X69767000Y-105536250D01*
X69925750Y-105695000D01*
X70140000Y-105698072D01*
X70264482Y-105685812D01*
X70384180Y-105649502D01*
X70494494Y-105590537D01*
X70591185Y-105511185D01*
X70670537Y-105414494D01*
X70729502Y-105304180D01*
X70765812Y-105184482D01*
X70778072Y-105060000D01*
X70775000Y-104845750D01*
X70616250Y-104687000D01*
X69767000Y-104687000D01*
X69513000Y-104687000D01*
X69493000Y-104687000D01*
X69493000Y-104433000D01*
X69513000Y-104433000D01*
X69513000Y-104413000D01*
X69767000Y-104413000D01*
X69767000Y-104433000D01*
X70616250Y-104433000D01*
X70775000Y-104274250D01*
X70777184Y-104121951D01*
X70793753Y-104108353D01*
X70808074Y-104090903D01*
X71094001Y-103804976D01*
X71094000Y-106094000D01*
X54801677Y-106094000D01*
X54986608Y-105737229D01*
X55000284Y-105703039D01*
X55014414Y-105669092D01*
X55016032Y-105663666D01*
X55016035Y-105663659D01*
X55016036Y-105663652D01*
X55170041Y-105133565D01*
X55176809Y-105097399D01*
X55184083Y-105061324D01*
X55184617Y-105055680D01*
X55227983Y-104560000D01*
X63784738Y-104560000D01*
X63801748Y-104732706D01*
X63852125Y-104898775D01*
X63933932Y-105051825D01*
X64044025Y-105185975D01*
X64178175Y-105296068D01*
X64331225Y-105377875D01*
X64497294Y-105428252D01*
X64626727Y-105441000D01*
X64713273Y-105441000D01*
X64842706Y-105428252D01*
X64906477Y-105408907D01*
X64909463Y-105414494D01*
X64988815Y-105511185D01*
X65085506Y-105590537D01*
X65195820Y-105649502D01*
X65315518Y-105685812D01*
X65440000Y-105698072D01*
X65654250Y-105695000D01*
X65813000Y-105536250D01*
X65813000Y-104687000D01*
X66067000Y-104687000D01*
X66067000Y-105536250D01*
X66225750Y-105695000D01*
X66440000Y-105698072D01*
X66564482Y-105685812D01*
X66684180Y-105649502D01*
X66794494Y-105590537D01*
X66891185Y-105511185D01*
X66970537Y-105414494D01*
X67029502Y-105304180D01*
X67065812Y-105184482D01*
X67078072Y-105060000D01*
X67075000Y-104845750D01*
X66916250Y-104687000D01*
X66067000Y-104687000D01*
X65813000Y-104687000D01*
X65793000Y-104687000D01*
X65793000Y-104433000D01*
X65813000Y-104433000D01*
X65813000Y-103583750D01*
X66067000Y-103583750D01*
X66067000Y-104433000D01*
X66916250Y-104433000D01*
X67075000Y-104274250D01*
X67078072Y-104060000D01*
X67065812Y-103935518D01*
X67029502Y-103815820D01*
X66970537Y-103705506D01*
X66891185Y-103608815D01*
X66794494Y-103529463D01*
X66684180Y-103470498D01*
X66564482Y-103434188D01*
X66440000Y-103421928D01*
X66225750Y-103425000D01*
X66067000Y-103583750D01*
X65813000Y-103583750D01*
X65654250Y-103425000D01*
X65440000Y-103421928D01*
X65315518Y-103434188D01*
X65195820Y-103470498D01*
X65085506Y-103529463D01*
X64988815Y-103608815D01*
X64909463Y-103705506D01*
X64906477Y-103711093D01*
X64842706Y-103691748D01*
X64713273Y-103679000D01*
X64626727Y-103679000D01*
X64497294Y-103691748D01*
X64331225Y-103742125D01*
X64178175Y-103823932D01*
X64044025Y-103934025D01*
X63933932Y-104068175D01*
X63852125Y-104221225D01*
X63801748Y-104387294D01*
X63784738Y-104560000D01*
X55227983Y-104560000D01*
X55232728Y-104505768D01*
X55232343Y-104468959D01*
X55232471Y-104432176D01*
X55231899Y-104426546D01*
X55231899Y-104426535D01*
X55231897Y-104426525D01*
X55172281Y-103877752D01*
X55164755Y-103841724D01*
X55157735Y-103805611D01*
X55156078Y-103800190D01*
X54991004Y-103273437D01*
X54976628Y-103239570D01*
X54962722Y-103205494D01*
X54960043Y-103200498D01*
X54695799Y-102715841D01*
X54675098Y-102685380D01*
X54654859Y-102654687D01*
X54651265Y-102650311D01*
X54651261Y-102650305D01*
X54651256Y-102650300D01*
X54575237Y-102559059D01*
X57769000Y-102559059D01*
X57769000Y-102840941D01*
X57823993Y-103117407D01*
X57931864Y-103377833D01*
X58088470Y-103612209D01*
X58287791Y-103811530D01*
X58522167Y-103968136D01*
X58782593Y-104076007D01*
X59059059Y-104131000D01*
X59340941Y-104131000D01*
X59617407Y-104076007D01*
X59877833Y-103968136D01*
X60112209Y-103811530D01*
X60311530Y-103612209D01*
X60468136Y-103377833D01*
X60576007Y-103117407D01*
X60631000Y-102840941D01*
X60631000Y-102559059D01*
X60576007Y-102282593D01*
X60468136Y-102022167D01*
X60311530Y-101787791D01*
X60112209Y-101588470D01*
X59877833Y-101431864D01*
X59617407Y-101323993D01*
X59340941Y-101269000D01*
X59059059Y-101269000D01*
X58782593Y-101323993D01*
X58522167Y-101431864D01*
X58287791Y-101588470D01*
X58088470Y-101787791D01*
X57931864Y-102022167D01*
X57823993Y-102282593D01*
X57769000Y-102559059D01*
X54575237Y-102559059D01*
X54297913Y-102226204D01*
X54271696Y-102200349D01*
X54245874Y-102174165D01*
X54241500Y-102170572D01*
X54241495Y-102170567D01*
X54241490Y-102170563D01*
X53812500Y-101823175D01*
X53781762Y-101802907D01*
X53751345Y-101782236D01*
X53746349Y-101779556D01*
X53309819Y-101549400D01*
X54652090Y-101549400D01*
X54682762Y-101650528D01*
X54790527Y-101883629D01*
X54941697Y-102091227D01*
X55130463Y-102265344D01*
X55349570Y-102399289D01*
X55590599Y-102487915D01*
X55793000Y-102365085D01*
X55793000Y-101347000D01*
X56047000Y-101347000D01*
X56047000Y-102365085D01*
X56249401Y-102487915D01*
X56490430Y-102399289D01*
X56709537Y-102265344D01*
X56898303Y-102091227D01*
X57049473Y-101883629D01*
X57157238Y-101650528D01*
X57187910Y-101549400D01*
X57064224Y-101347000D01*
X56047000Y-101347000D01*
X55793000Y-101347000D01*
X54775776Y-101347000D01*
X54652090Y-101549400D01*
X53309819Y-101549400D01*
X53258049Y-101522105D01*
X53223965Y-101508196D01*
X53190107Y-101493824D01*
X53184686Y-101492166D01*
X52655680Y-101334462D01*
X52619566Y-101327442D01*
X52583538Y-101319916D01*
X52577898Y-101319343D01*
X52028336Y-101267394D01*
X51991519Y-101267522D01*
X51954743Y-101267137D01*
X51949099Y-101267670D01*
X51399913Y-101323454D01*
X51363807Y-101330734D01*
X51327672Y-101337497D01*
X51322239Y-101339116D01*
X50794347Y-101500509D01*
X50760339Y-101514665D01*
X50726210Y-101528316D01*
X50721199Y-101530958D01*
X50721194Y-101530960D01*
X50721190Y-101530963D01*
X50406000Y-101699966D01*
X50406000Y-100105823D01*
X50416292Y-100114269D01*
X50416292Y-100114269D01*
G37*
X50416292Y-100114269D02*
X50781034Y-100479013D01*
X50795347Y-100496453D01*
X50812786Y-100510765D01*
X50812792Y-100510771D01*
X50864964Y-100553587D01*
X50944390Y-100596041D01*
X50964449Y-100602126D01*
X51030573Y-100622185D01*
X51097740Y-100628800D01*
X51097750Y-100628800D01*
X51120200Y-100631011D01*
X51142650Y-100628800D01*
X54757042Y-100628800D01*
X54682762Y-100789472D01*
X54652090Y-100890600D01*
X54775776Y-101093000D01*
X55793000Y-101093000D01*
X55793000Y-101073000D01*
X56047000Y-101073000D01*
X56047000Y-101093000D01*
X56605374Y-101093000D01*
X56612892Y-101099170D01*
X56665063Y-101141987D01*
X56686229Y-101153300D01*
X56744491Y-101184441D01*
X56830673Y-101210585D01*
X56897840Y-101217200D01*
X56897849Y-101217200D01*
X56920299Y-101219411D01*
X56942749Y-101217200D01*
X71355523Y-101217200D01*
X71396074Y-101257752D01*
X71416328Y-101359571D01*
X71460125Y-101465307D01*
X71523708Y-101560466D01*
X71604634Y-101641392D01*
X71699793Y-101704975D01*
X71805529Y-101748772D01*
X71848502Y-101757320D01*
X70279523Y-103326300D01*
X68392460Y-103326300D01*
X68370000Y-103324088D01*
X68347540Y-103326300D01*
X68280373Y-103332915D01*
X68194191Y-103359059D01*
X68114764Y-103401513D01*
X68045147Y-103458647D01*
X67988013Y-103528264D01*
X67945559Y-103607691D01*
X67919415Y-103693873D01*
X67910588Y-103783500D01*
X67912750Y-103805451D01*
X67878175Y-103823932D01*
X67744025Y-103934025D01*
X67633932Y-104068175D01*
X67552125Y-104221225D01*
X67501748Y-104387294D01*
X67484738Y-104560000D01*
X67501748Y-104732706D01*
X67552125Y-104898775D01*
X67633932Y-105051825D01*
X67744025Y-105185975D01*
X67878175Y-105296068D01*
X68031225Y-105377875D01*
X68197294Y-105428252D01*
X68326727Y-105441000D01*
X68413273Y-105441000D01*
X68542706Y-105428252D01*
X68606477Y-105408907D01*
X68609463Y-105414494D01*
X68688815Y-105511185D01*
X68785506Y-105590537D01*
X68895820Y-105649502D01*
X69015518Y-105685812D01*
X69140000Y-105698072D01*
X69354250Y-105695000D01*
X69513000Y-105536250D01*
X69513000Y-104687000D01*
X69767000Y-104687000D01*
X69767000Y-105536250D01*
X69925750Y-105695000D01*
X70140000Y-105698072D01*
X70264482Y-105685812D01*
X70384180Y-105649502D01*
X70494494Y-105590537D01*
X70591185Y-105511185D01*
X70670537Y-105414494D01*
X70729502Y-105304180D01*
X70765812Y-105184482D01*
X70778072Y-105060000D01*
X70775000Y-104845750D01*
X70616250Y-104687000D01*
X69767000Y-104687000D01*
X69513000Y-104687000D01*
X69493000Y-104687000D01*
X69493000Y-104433000D01*
X69513000Y-104433000D01*
X69513000Y-104413000D01*
X69767000Y-104413000D01*
X69767000Y-104433000D01*
X70616250Y-104433000D01*
X70775000Y-104274250D01*
X70777184Y-104121951D01*
X70793753Y-104108353D01*
X70808074Y-104090903D01*
X71094001Y-103804976D01*
X71094000Y-106094000D01*
X54801677Y-106094000D01*
X54986608Y-105737229D01*
X55000284Y-105703039D01*
X55014414Y-105669092D01*
X55016032Y-105663666D01*
X55016035Y-105663659D01*
X55016036Y-105663652D01*
X55170041Y-105133565D01*
X55176809Y-105097399D01*
X55184083Y-105061324D01*
X55184617Y-105055680D01*
X55227983Y-104560000D01*
X63784738Y-104560000D01*
X63801748Y-104732706D01*
X63852125Y-104898775D01*
X63933932Y-105051825D01*
X64044025Y-105185975D01*
X64178175Y-105296068D01*
X64331225Y-105377875D01*
X64497294Y-105428252D01*
X64626727Y-105441000D01*
X64713273Y-105441000D01*
X64842706Y-105428252D01*
X64906477Y-105408907D01*
X64909463Y-105414494D01*
X64988815Y-105511185D01*
X65085506Y-105590537D01*
X65195820Y-105649502D01*
X65315518Y-105685812D01*
X65440000Y-105698072D01*
X65654250Y-105695000D01*
X65813000Y-105536250D01*
X65813000Y-104687000D01*
X66067000Y-104687000D01*
X66067000Y-105536250D01*
X66225750Y-105695000D01*
X66440000Y-105698072D01*
X66564482Y-105685812D01*
X66684180Y-105649502D01*
X66794494Y-105590537D01*
X66891185Y-105511185D01*
X66970537Y-105414494D01*
X67029502Y-105304180D01*
X67065812Y-105184482D01*
X67078072Y-105060000D01*
X67075000Y-104845750D01*
X66916250Y-104687000D01*
X66067000Y-104687000D01*
X65813000Y-104687000D01*
X65793000Y-104687000D01*
X65793000Y-104433000D01*
X65813000Y-104433000D01*
X65813000Y-103583750D01*
X66067000Y-103583750D01*
X66067000Y-104433000D01*
X66916250Y-104433000D01*
X67075000Y-104274250D01*
X67078072Y-104060000D01*
X67065812Y-103935518D01*
X67029502Y-103815820D01*
X66970537Y-103705506D01*
X66891185Y-103608815D01*
X66794494Y-103529463D01*
X66684180Y-103470498D01*
X66564482Y-103434188D01*
X66440000Y-103421928D01*
X66225750Y-103425000D01*
X66067000Y-103583750D01*
X65813000Y-103583750D01*
X65654250Y-103425000D01*
X65440000Y-103421928D01*
X65315518Y-103434188D01*
X65195820Y-103470498D01*
X65085506Y-103529463D01*
X64988815Y-103608815D01*
X64909463Y-103705506D01*
X64906477Y-103711093D01*
X64842706Y-103691748D01*
X64713273Y-103679000D01*
X64626727Y-103679000D01*
X64497294Y-103691748D01*
X64331225Y-103742125D01*
X64178175Y-103823932D01*
X64044025Y-103934025D01*
X63933932Y-104068175D01*
X63852125Y-104221225D01*
X63801748Y-104387294D01*
X63784738Y-104560000D01*
X55227983Y-104560000D01*
X55232728Y-104505768D01*
X55232343Y-104468959D01*
X55232471Y-104432176D01*
X55231899Y-104426546D01*
X55231899Y-104426535D01*
X55231897Y-104426525D01*
X55172281Y-103877752D01*
X55164755Y-103841724D01*
X55157735Y-103805611D01*
X55156078Y-103800190D01*
X54991004Y-103273437D01*
X54976628Y-103239570D01*
X54962722Y-103205494D01*
X54960043Y-103200498D01*
X54695799Y-102715841D01*
X54675098Y-102685380D01*
X54654859Y-102654687D01*
X54651265Y-102650311D01*
X54651261Y-102650305D01*
X54651256Y-102650300D01*
X54575237Y-102559059D01*
X57769000Y-102559059D01*
X57769000Y-102840941D01*
X57823993Y-103117407D01*
X57931864Y-103377833D01*
X58088470Y-103612209D01*
X58287791Y-103811530D01*
X58522167Y-103968136D01*
X58782593Y-104076007D01*
X59059059Y-104131000D01*
X59340941Y-104131000D01*
X59617407Y-104076007D01*
X59877833Y-103968136D01*
X60112209Y-103811530D01*
X60311530Y-103612209D01*
X60468136Y-103377833D01*
X60576007Y-103117407D01*
X60631000Y-102840941D01*
X60631000Y-102559059D01*
X60576007Y-102282593D01*
X60468136Y-102022167D01*
X60311530Y-101787791D01*
X60112209Y-101588470D01*
X59877833Y-101431864D01*
X59617407Y-101323993D01*
X59340941Y-101269000D01*
X59059059Y-101269000D01*
X58782593Y-101323993D01*
X58522167Y-101431864D01*
X58287791Y-101588470D01*
X58088470Y-101787791D01*
X57931864Y-102022167D01*
X57823993Y-102282593D01*
X57769000Y-102559059D01*
X54575237Y-102559059D01*
X54297913Y-102226204D01*
X54271696Y-102200349D01*
X54245874Y-102174165D01*
X54241500Y-102170572D01*
X54241495Y-102170567D01*
X54241490Y-102170563D01*
X53812500Y-101823175D01*
X53781762Y-101802907D01*
X53751345Y-101782236D01*
X53746349Y-101779556D01*
X53309819Y-101549400D01*
X54652090Y-101549400D01*
X54682762Y-101650528D01*
X54790527Y-101883629D01*
X54941697Y-102091227D01*
X55130463Y-102265344D01*
X55349570Y-102399289D01*
X55590599Y-102487915D01*
X55793000Y-102365085D01*
X55793000Y-101347000D01*
X56047000Y-101347000D01*
X56047000Y-102365085D01*
X56249401Y-102487915D01*
X56490430Y-102399289D01*
X56709537Y-102265344D01*
X56898303Y-102091227D01*
X57049473Y-101883629D01*
X57157238Y-101650528D01*
X57187910Y-101549400D01*
X57064224Y-101347000D01*
X56047000Y-101347000D01*
X55793000Y-101347000D01*
X54775776Y-101347000D01*
X54652090Y-101549400D01*
X53309819Y-101549400D01*
X53258049Y-101522105D01*
X53223965Y-101508196D01*
X53190107Y-101493824D01*
X53184686Y-101492166D01*
X52655680Y-101334462D01*
X52619566Y-101327442D01*
X52583538Y-101319916D01*
X52577898Y-101319343D01*
X52028336Y-101267394D01*
X51991519Y-101267522D01*
X51954743Y-101267137D01*
X51949099Y-101267670D01*
X51399913Y-101323454D01*
X51363807Y-101330734D01*
X51327672Y-101337497D01*
X51322239Y-101339116D01*
X50794347Y-101500509D01*
X50760339Y-101514665D01*
X50726210Y-101528316D01*
X50721199Y-101530958D01*
X50721194Y-101530960D01*
X50721190Y-101530963D01*
X50406000Y-101699966D01*
X50406000Y-100105823D01*
X50416292Y-100114269D01*
G36*
X71094001Y-80941435D02*
G01*
X71011227Y-80851697D01*
X70803629Y-80700527D01*
X70570528Y-80592762D01*
X70469400Y-80562090D01*
X70267000Y-80685776D01*
X70267000Y-81703000D01*
X70287000Y-81703000D01*
X70287000Y-81957000D01*
X70267000Y-81957000D01*
X70267000Y-82974224D01*
X70469400Y-83097910D01*
X70570528Y-83067238D01*
X70803629Y-82959473D01*
X71011227Y-82808303D01*
X71094000Y-82718566D01*
X71094000Y-82980059D01*
X71092036Y-83000000D01*
X71099875Y-83079590D01*
X71123090Y-83156121D01*
X71160790Y-83226653D01*
X71182517Y-83253127D01*
X71211526Y-83288474D01*
X71273347Y-83339210D01*
X71343879Y-83376910D01*
X71420410Y-83400125D01*
X71500000Y-83407964D01*
X71519940Y-83406000D01*
X78480059Y-83406000D01*
X78500000Y-83407964D01*
X78519940Y-83406000D01*
X78519941Y-83406000D01*
X78579590Y-83400125D01*
X78656121Y-83376910D01*
X78726653Y-83339210D01*
X78788474Y-83288474D01*
X78839210Y-83226653D01*
X78876910Y-83156121D01*
X78900125Y-83079590D01*
X78907964Y-83000000D01*
X78906000Y-82980059D01*
X78906000Y-81840000D01*
X82881928Y-81840000D01*
X82885000Y-82454250D01*
X83043750Y-82613000D01*
X84293000Y-82613000D01*
X84293000Y-81363750D01*
X84134250Y-81205000D01*
X83520000Y-81201928D01*
X83395518Y-81214188D01*
X83275820Y-81250498D01*
X83165506Y-81309463D01*
X83068815Y-81388815D01*
X82989463Y-81485506D01*
X82930498Y-81595820D01*
X82894188Y-81715518D01*
X82881928Y-81840000D01*
X78906000Y-81840000D01*
X78906000Y-80406000D01*
X95198325Y-80406000D01*
X95013393Y-80762772D01*
X94999717Y-80796963D01*
X94985587Y-80830909D01*
X94983969Y-80836336D01*
X94983966Y-80836343D01*
X94983965Y-80836350D01*
X94829960Y-81366436D01*
X94823190Y-81402608D01*
X94815918Y-81438677D01*
X94815384Y-81444321D01*
X94767273Y-81994234D01*
X94767658Y-82031010D01*
X94767530Y-82067827D01*
X94768103Y-82073467D01*
X94827720Y-82622250D01*
X94835248Y-82658285D01*
X94842266Y-82694391D01*
X94843923Y-82699812D01*
X95008997Y-83226565D01*
X95023373Y-83260432D01*
X95037279Y-83294508D01*
X95039958Y-83299504D01*
X95304202Y-83784161D01*
X95324903Y-83814622D01*
X95345142Y-83845315D01*
X95348736Y-83849691D01*
X95348740Y-83849697D01*
X95348745Y-83849702D01*
X95702088Y-84273798D01*
X95728305Y-84299653D01*
X95754127Y-84325837D01*
X95758501Y-84329430D01*
X95758506Y-84329435D01*
X95758511Y-84329439D01*
X95906577Y-84449340D01*
X95645750Y-84450000D01*
X95487000Y-84608750D01*
X95487000Y-86208000D01*
X97336250Y-86208000D01*
X97495000Y-86049250D01*
X97497744Y-85187809D01*
X97971665Y-85232608D01*
X98008482Y-85232480D01*
X98045258Y-85232865D01*
X98050902Y-85232332D01*
X98600088Y-85176548D01*
X98636194Y-85169268D01*
X98672329Y-85162505D01*
X98677762Y-85160886D01*
X99205654Y-84999493D01*
X99239650Y-84985341D01*
X99273791Y-84971686D01*
X99278807Y-84969042D01*
X99594000Y-84800037D01*
X99594001Y-101698326D01*
X99237228Y-101513393D01*
X99203037Y-101499717D01*
X99169091Y-101485587D01*
X99163664Y-101483969D01*
X99163657Y-101483966D01*
X99163650Y-101483965D01*
X98633564Y-101329960D01*
X98597392Y-101323190D01*
X98561323Y-101315918D01*
X98555679Y-101315384D01*
X98005766Y-101267273D01*
X97968990Y-101267658D01*
X97932174Y-101267530D01*
X97926533Y-101268103D01*
X97497307Y-101314732D01*
X97495000Y-100590750D01*
X97336250Y-100432000D01*
X95487000Y-100432000D01*
X95487000Y-102031250D01*
X95645750Y-102190000D01*
X95740423Y-102190240D01*
X95726202Y-102202088D01*
X95700347Y-102228305D01*
X95674163Y-102254127D01*
X95670570Y-102258501D01*
X95670565Y-102258506D01*
X95670561Y-102258511D01*
X95323173Y-102687501D01*
X95302905Y-102718239D01*
X95282234Y-102748656D01*
X95279554Y-102753652D01*
X95022103Y-103241952D01*
X95008194Y-103276036D01*
X94993822Y-103309894D01*
X94992164Y-103315315D01*
X94834460Y-103844321D01*
X94827440Y-103880435D01*
X94819914Y-103916463D01*
X94819341Y-103922103D01*
X94767392Y-104471665D01*
X94767520Y-104508482D01*
X94767135Y-104545258D01*
X94767668Y-104550902D01*
X94823452Y-105100088D01*
X94830732Y-105136194D01*
X94837495Y-105172329D01*
X94839114Y-105177762D01*
X95000507Y-105705654D01*
X95014659Y-105739650D01*
X95028314Y-105773791D01*
X95030958Y-105778807D01*
X95199963Y-106094000D01*
X78906000Y-106094000D01*
X78906000Y-105938657D01*
X78995518Y-105965812D01*
X79120000Y-105978072D01*
X79609250Y-105975000D01*
X79768000Y-105816250D01*
X79768000Y-104817000D01*
X80022000Y-104817000D01*
X80022000Y-105816250D01*
X80180750Y-105975000D01*
X80670000Y-105978072D01*
X80794482Y-105965812D01*
X80914180Y-105929502D01*
X81024494Y-105870537D01*
X81121185Y-105791185D01*
X81200537Y-105694494D01*
X81259502Y-105584180D01*
X81295812Y-105464482D01*
X81308072Y-105340000D01*
X86431928Y-105340000D01*
X86444188Y-105464482D01*
X86480498Y-105584180D01*
X86539463Y-105694494D01*
X86618815Y-105791185D01*
X86715506Y-105870537D01*
X86825820Y-105929502D01*
X86945518Y-105965812D01*
X87070000Y-105978072D01*
X87559250Y-105975000D01*
X87718000Y-105816250D01*
X87718000Y-104817000D01*
X87972000Y-104817000D01*
X87972000Y-105816250D01*
X88130750Y-105975000D01*
X88620000Y-105978072D01*
X88744482Y-105965812D01*
X88864180Y-105929502D01*
X88974494Y-105870537D01*
X89071185Y-105791185D01*
X89150537Y-105694494D01*
X89209502Y-105584180D01*
X89245812Y-105464482D01*
X89258072Y-105340000D01*
X89255000Y-104975750D01*
X89096250Y-104817000D01*
X87972000Y-104817000D01*
X87718000Y-104817000D01*
X86593750Y-104817000D01*
X86435000Y-104975750D01*
X86431928Y-105340000D01*
X81308072Y-105340000D01*
X81305000Y-104975750D01*
X81146250Y-104817000D01*
X80022000Y-104817000D01*
X79768000Y-104817000D01*
X79748000Y-104817000D01*
X79748000Y-104563000D01*
X79768000Y-104563000D01*
X79768000Y-103563750D01*
X80022000Y-103563750D01*
X80022000Y-104563000D01*
X81146250Y-104563000D01*
X81305000Y-104404250D01*
X81308072Y-104040000D01*
X86431928Y-104040000D01*
X86435000Y-104404250D01*
X86593750Y-104563000D01*
X87718000Y-104563000D01*
X87718000Y-103563750D01*
X87972000Y-103563750D01*
X87972000Y-104563000D01*
X89096250Y-104563000D01*
X89255000Y-104404250D01*
X89258072Y-104040000D01*
X89245812Y-103915518D01*
X89209502Y-103795820D01*
X89150537Y-103685506D01*
X89071185Y-103588815D01*
X88974494Y-103509463D01*
X88864180Y-103450498D01*
X88744482Y-103414188D01*
X88620000Y-103401928D01*
X88130750Y-103405000D01*
X87972000Y-103563750D01*
X87718000Y-103563750D01*
X87559250Y-103405000D01*
X87070000Y-103401928D01*
X86945518Y-103414188D01*
X86825820Y-103450498D01*
X86715506Y-103509463D01*
X86618815Y-103588815D01*
X86539463Y-103685506D01*
X86480498Y-103795820D01*
X86444188Y-103915518D01*
X86431928Y-104040000D01*
X81308072Y-104040000D01*
X81295812Y-103915518D01*
X81259502Y-103795820D01*
X81200537Y-103685506D01*
X81121185Y-103588815D01*
X81024494Y-103509463D01*
X80914180Y-103450498D01*
X80794482Y-103414188D01*
X80670000Y-103401928D01*
X80180750Y-103405000D01*
X80022000Y-103563750D01*
X79768000Y-103563750D01*
X79609250Y-103405000D01*
X79190842Y-103402373D01*
X79197809Y-103400987D01*
X79339942Y-103342113D01*
X79467859Y-103256642D01*
X79576642Y-103147859D01*
X79662113Y-103019942D01*
X79720987Y-102877809D01*
X79751000Y-102726922D01*
X79751000Y-102573078D01*
X79720987Y-102422191D01*
X79662113Y-102280058D01*
X79623665Y-102222517D01*
X79652113Y-102179942D01*
X79710987Y-102037809D01*
X79741000Y-101886922D01*
X79741000Y-101733078D01*
X79712660Y-101590600D01*
X87074823Y-101590600D01*
X89201975Y-103717752D01*
X89222228Y-103819571D01*
X89266025Y-103925307D01*
X89329608Y-104020466D01*
X89410534Y-104101392D01*
X89505693Y-104164975D01*
X89611429Y-104208772D01*
X89723677Y-104231100D01*
X89838123Y-104231100D01*
X89950371Y-104208772D01*
X90056107Y-104164975D01*
X90151266Y-104101392D01*
X90232192Y-104020466D01*
X90295775Y-103925307D01*
X90339572Y-103819571D01*
X90361900Y-103707323D01*
X90361900Y-103592877D01*
X90339572Y-103480629D01*
X90295775Y-103374893D01*
X90232192Y-103279734D01*
X90151266Y-103198808D01*
X90056107Y-103135225D01*
X89950371Y-103091428D01*
X89848552Y-103071175D01*
X88332377Y-101555000D01*
X93221928Y-101555000D01*
X93234188Y-101679482D01*
X93270498Y-101799180D01*
X93329463Y-101909494D01*
X93408815Y-102006185D01*
X93505506Y-102085537D01*
X93615820Y-102144502D01*
X93735518Y-102180812D01*
X93860000Y-102193072D01*
X95074250Y-102190000D01*
X95233000Y-102031250D01*
X95233000Y-100432000D01*
X93383750Y-100432000D01*
X93225000Y-100590750D01*
X93221928Y-101555000D01*
X88332377Y-101555000D01*
X88000220Y-101222843D01*
X88620000Y-101222843D01*
X88694689Y-101215487D01*
X88766508Y-101193701D01*
X88832696Y-101158322D01*
X88890711Y-101110711D01*
X88938322Y-101052696D01*
X88973701Y-100986508D01*
X88995487Y-100914689D01*
X89002843Y-100840000D01*
X89002843Y-99540000D01*
X88995487Y-99465311D01*
X88973701Y-99393492D01*
X88938322Y-99327304D01*
X88896711Y-99276600D01*
X91170142Y-99276600D01*
X91249634Y-99356092D01*
X91344793Y-99419675D01*
X91450529Y-99463472D01*
X91562777Y-99485800D01*
X91677223Y-99485800D01*
X91789471Y-99463472D01*
X91895207Y-99419675D01*
X91990366Y-99356092D01*
X92071292Y-99275166D01*
X92134875Y-99180007D01*
X92178672Y-99074271D01*
X92182505Y-99055000D01*
X93221928Y-99055000D01*
X93225000Y-100019250D01*
X93383750Y-100178000D01*
X95233000Y-100178000D01*
X95233000Y-98578750D01*
X95487000Y-98578750D01*
X95487000Y-100178000D01*
X97336250Y-100178000D01*
X97495000Y-100019250D01*
X97498072Y-99055000D01*
X97485812Y-98930518D01*
X97449502Y-98810820D01*
X97390537Y-98700506D01*
X97311185Y-98603815D01*
X97214494Y-98524463D01*
X97104180Y-98465498D01*
X96984482Y-98429188D01*
X96860000Y-98416928D01*
X95645750Y-98420000D01*
X95487000Y-98578750D01*
X95233000Y-98578750D01*
X95074250Y-98420000D01*
X93860000Y-98416928D01*
X93735518Y-98429188D01*
X93615820Y-98465498D01*
X93505506Y-98524463D01*
X93408815Y-98603815D01*
X93329463Y-98700506D01*
X93270498Y-98810820D01*
X93234188Y-98930518D01*
X93221928Y-99055000D01*
X92182505Y-99055000D01*
X92201000Y-98962023D01*
X92201000Y-98847577D01*
X92178672Y-98735329D01*
X92134875Y-98629593D01*
X92071292Y-98534434D01*
X91990366Y-98453508D01*
X91895207Y-98389925D01*
X91789471Y-98346128D01*
X91677223Y-98323800D01*
X91562777Y-98323800D01*
X91450529Y-98346128D01*
X91411728Y-98362200D01*
X85873577Y-98362200D01*
X87852171Y-96383606D01*
X89149000Y-96383606D01*
X89149000Y-96606394D01*
X89192464Y-96824900D01*
X89277721Y-97030729D01*
X89401495Y-97215970D01*
X89559030Y-97373505D01*
X89744271Y-97497279D01*
X89950100Y-97582536D01*
X90168606Y-97626000D01*
X90391394Y-97626000D01*
X90609900Y-97582536D01*
X90815729Y-97497279D01*
X91000970Y-97373505D01*
X91158505Y-97215970D01*
X91282279Y-97030729D01*
X91367536Y-96824900D01*
X91411000Y-96606394D01*
X91411000Y-96383606D01*
X91367536Y-96165100D01*
X91282279Y-95959271D01*
X91158505Y-95774030D01*
X91000970Y-95616495D01*
X90815729Y-95492721D01*
X90609900Y-95407464D01*
X90391394Y-95364000D01*
X90168606Y-95364000D01*
X89950100Y-95407464D01*
X89744271Y-95492721D01*
X89559030Y-95616495D01*
X89401495Y-95774030D01*
X89277721Y-95959271D01*
X89192464Y-96165100D01*
X89149000Y-96383606D01*
X87852171Y-96383606D01*
X89231253Y-95004525D01*
X89333071Y-94984272D01*
X89438807Y-94940475D01*
X89533966Y-94876892D01*
X89614892Y-94795966D01*
X89678475Y-94700807D01*
X89722272Y-94595071D01*
X89744600Y-94482823D01*
X89744600Y-94368377D01*
X89722272Y-94256129D01*
X89686469Y-94169692D01*
X91724071Y-96207295D01*
X91689000Y-96383606D01*
X91689000Y-96606394D01*
X91732464Y-96824900D01*
X91817721Y-97030729D01*
X91941495Y-97215970D01*
X92099030Y-97373505D01*
X92284271Y-97497279D01*
X92490100Y-97582536D01*
X92708606Y-97626000D01*
X92931394Y-97626000D01*
X93149900Y-97582536D01*
X93355729Y-97497279D01*
X93540970Y-97373505D01*
X93698505Y-97215970D01*
X93822279Y-97030729D01*
X93907536Y-96824900D01*
X93951000Y-96606394D01*
X93951000Y-96383606D01*
X93907536Y-96165100D01*
X93822279Y-95959271D01*
X93698505Y-95774030D01*
X93540970Y-95616495D01*
X93355729Y-95492721D01*
X93169301Y-95415500D01*
X93355729Y-95338279D01*
X93540970Y-95214505D01*
X93698505Y-95056970D01*
X93822279Y-94871729D01*
X93907536Y-94665900D01*
X93951000Y-94447394D01*
X93951000Y-94224606D01*
X93907536Y-94006100D01*
X93822279Y-93800271D01*
X93698505Y-93615030D01*
X93540970Y-93457495D01*
X93355729Y-93333721D01*
X93169301Y-93256500D01*
X93355729Y-93179279D01*
X93540970Y-93055505D01*
X93698505Y-92897970D01*
X93822279Y-92712729D01*
X93907536Y-92506900D01*
X93951000Y-92288394D01*
X93951000Y-92065606D01*
X93907536Y-91847100D01*
X93896311Y-91820000D01*
X94934957Y-91820000D01*
X94934957Y-94820000D01*
X94942313Y-94894689D01*
X94964099Y-94966508D01*
X94999478Y-95032696D01*
X95047089Y-95090711D01*
X95105104Y-95138322D01*
X95171292Y-95173701D01*
X95243111Y-95195487D01*
X95317800Y-95202843D01*
X97817800Y-95202843D01*
X97892489Y-95195487D01*
X97964308Y-95173701D01*
X98030496Y-95138322D01*
X98088511Y-95090711D01*
X98136122Y-95032696D01*
X98171501Y-94966508D01*
X98193287Y-94894689D01*
X98200643Y-94820000D01*
X98200643Y-91820000D01*
X98193287Y-91745311D01*
X98171501Y-91673492D01*
X98136122Y-91607304D01*
X98088511Y-91549289D01*
X98030496Y-91501678D01*
X97964308Y-91466299D01*
X97892489Y-91444513D01*
X97817800Y-91437157D01*
X95317800Y-91437157D01*
X95243111Y-91444513D01*
X95171292Y-91466299D01*
X95105104Y-91501678D01*
X95047089Y-91549289D01*
X94999478Y-91607304D01*
X94964099Y-91673492D01*
X94942313Y-91745311D01*
X94934957Y-91820000D01*
X93896311Y-91820000D01*
X93822279Y-91641271D01*
X93698505Y-91456030D01*
X93542943Y-91300468D01*
X93597388Y-91101993D01*
X92820000Y-90324605D01*
X92042612Y-91101993D01*
X92097057Y-91300468D01*
X91941495Y-91456030D01*
X91817721Y-91641271D01*
X91732464Y-91847100D01*
X91689000Y-92065606D01*
X91689000Y-92288394D01*
X91732464Y-92506900D01*
X91817721Y-92712729D01*
X91941495Y-92897970D01*
X92099030Y-93055505D01*
X92284271Y-93179279D01*
X92470699Y-93256500D01*
X92284271Y-93333721D01*
X92099030Y-93457495D01*
X91941495Y-93615030D01*
X91817721Y-93800271D01*
X91732464Y-94006100D01*
X91689000Y-94224606D01*
X91689000Y-94447394D01*
X91715912Y-94582688D01*
X87166829Y-90033606D01*
X89149000Y-90033606D01*
X89149000Y-90256394D01*
X89192464Y-90474900D01*
X89277721Y-90680729D01*
X89401495Y-90865970D01*
X89559030Y-91023505D01*
X89744271Y-91147279D01*
X89950100Y-91232536D01*
X90168606Y-91276000D01*
X90391394Y-91276000D01*
X90609900Y-91232536D01*
X90815729Y-91147279D01*
X91000970Y-91023505D01*
X91158505Y-90865970D01*
X91282279Y-90680729D01*
X91367536Y-90474900D01*
X91411000Y-90256394D01*
X91411000Y-90217492D01*
X91430188Y-90217492D01*
X91471035Y-90487238D01*
X91563723Y-90743832D01*
X91624140Y-90856863D01*
X91863007Y-90922388D01*
X92640395Y-90145000D01*
X92999605Y-90145000D01*
X93776993Y-90922388D01*
X94015860Y-90856863D01*
X94131760Y-90609884D01*
X94197250Y-90345040D01*
X94209812Y-90072508D01*
X94168965Y-89802762D01*
X94076277Y-89546168D01*
X94015860Y-89433137D01*
X93776993Y-89367612D01*
X92999605Y-90145000D01*
X92640395Y-90145000D01*
X91863007Y-89367612D01*
X91624140Y-89433137D01*
X91508240Y-89680116D01*
X91442750Y-89944960D01*
X91430188Y-90217492D01*
X91411000Y-90217492D01*
X91411000Y-90033606D01*
X91367536Y-89815100D01*
X91282279Y-89609271D01*
X91158505Y-89424030D01*
X91000970Y-89266495D01*
X90883505Y-89188007D01*
X92042612Y-89188007D01*
X92820000Y-89965395D01*
X93597388Y-89188007D01*
X93531863Y-88949140D01*
X93284884Y-88833240D01*
X93020040Y-88767750D01*
X92747508Y-88755188D01*
X92477762Y-88796035D01*
X92221168Y-88888723D01*
X92108137Y-88949140D01*
X92042612Y-89188007D01*
X90883505Y-89188007D01*
X90815729Y-89142721D01*
X90609900Y-89057464D01*
X90391394Y-89014000D01*
X90168606Y-89014000D01*
X89950100Y-89057464D01*
X89744271Y-89142721D01*
X89559030Y-89266495D01*
X89401495Y-89424030D01*
X89277721Y-89609271D01*
X89192464Y-89815100D01*
X89149000Y-90033606D01*
X87166829Y-90033606D01*
X86038970Y-88905748D01*
X86021067Y-88883933D01*
X85934045Y-88812516D01*
X85834762Y-88759448D01*
X85727034Y-88726769D01*
X85643074Y-88718500D01*
X85615000Y-88715735D01*
X85586926Y-88718500D01*
X82870574Y-88718500D01*
X82842500Y-88715735D01*
X82814426Y-88718500D01*
X82730466Y-88726769D01*
X82622738Y-88759448D01*
X82523455Y-88812516D01*
X82436433Y-88883933D01*
X82418534Y-88905743D01*
X81382825Y-89941453D01*
X81287179Y-89890329D01*
X81168462Y-89854317D01*
X81045000Y-89842157D01*
X80120000Y-89842157D01*
X79996538Y-89854317D01*
X79877821Y-89890329D01*
X79768411Y-89948810D01*
X79672512Y-90027512D01*
X79593810Y-90123411D01*
X79535329Y-90232821D01*
X79499317Y-90351538D01*
X79487157Y-90475000D01*
X79487157Y-90698500D01*
X78612843Y-90698500D01*
X78612843Y-90520000D01*
X78605487Y-90445311D01*
X78583701Y-90373492D01*
X78548322Y-90307304D01*
X78500711Y-90249289D01*
X78442696Y-90201678D01*
X78376508Y-90166299D01*
X78304689Y-90144513D01*
X78230000Y-90137157D01*
X78081500Y-90137157D01*
X78081500Y-89810876D01*
X78083462Y-89810683D01*
X78202179Y-89774671D01*
X78311589Y-89716190D01*
X78407488Y-89637488D01*
X78486190Y-89541589D01*
X78544671Y-89432179D01*
X78580683Y-89313462D01*
X78592843Y-89190001D01*
X78592843Y-87889999D01*
X78585890Y-87819400D01*
X82738850Y-87819400D01*
X82761300Y-87821611D01*
X82783750Y-87819400D01*
X82783760Y-87819400D01*
X82850927Y-87812785D01*
X82937109Y-87786641D01*
X83016536Y-87744187D01*
X83086153Y-87687053D01*
X83100474Y-87669603D01*
X83185077Y-87585000D01*
X93221928Y-87585000D01*
X93234188Y-87709482D01*
X93270498Y-87829180D01*
X93329463Y-87939494D01*
X93408815Y-88036185D01*
X93505506Y-88115537D01*
X93615820Y-88174502D01*
X93735518Y-88210812D01*
X93860000Y-88223072D01*
X95074250Y-88220000D01*
X95233000Y-88061250D01*
X95233000Y-86462000D01*
X95487000Y-86462000D01*
X95487000Y-88061250D01*
X95645750Y-88220000D01*
X96860000Y-88223072D01*
X96984482Y-88210812D01*
X97104180Y-88174502D01*
X97214494Y-88115537D01*
X97311185Y-88036185D01*
X97390537Y-87939494D01*
X97449502Y-87829180D01*
X97485812Y-87709482D01*
X97498072Y-87585000D01*
X97495000Y-86620750D01*
X97336250Y-86462000D01*
X95487000Y-86462000D01*
X95233000Y-86462000D01*
X93383750Y-86462000D01*
X93225000Y-86620750D01*
X93221928Y-87585000D01*
X83185077Y-87585000D01*
X85685077Y-85085000D01*
X93221928Y-85085000D01*
X93225000Y-86049250D01*
X93383750Y-86208000D01*
X95233000Y-86208000D01*
X95233000Y-84608750D01*
X95074250Y-84450000D01*
X93860000Y-84446928D01*
X93735518Y-84459188D01*
X93615820Y-84495498D01*
X93505506Y-84554463D01*
X93408815Y-84633815D01*
X93329463Y-84730506D01*
X93270498Y-84840820D01*
X93234188Y-84960518D01*
X93221928Y-85085000D01*
X85685077Y-85085000D01*
X86763140Y-84006938D01*
X86833833Y-84021000D01*
X87086167Y-84021000D01*
X87333654Y-83971772D01*
X87566781Y-83875207D01*
X87776590Y-83735018D01*
X87955018Y-83556590D01*
X88087003Y-83359059D01*
X89569000Y-83359059D01*
X89569000Y-83640941D01*
X89623993Y-83917407D01*
X89731864Y-84177833D01*
X89888470Y-84412209D01*
X90087791Y-84611530D01*
X90322167Y-84768136D01*
X90582593Y-84876007D01*
X90859059Y-84931000D01*
X91140941Y-84931000D01*
X91417407Y-84876007D01*
X91677833Y-84768136D01*
X91912209Y-84611530D01*
X92111530Y-84412209D01*
X92268136Y-84177833D01*
X92376007Y-83917407D01*
X92431000Y-83640941D01*
X92431000Y-83359059D01*
X92376007Y-83082593D01*
X92268136Y-82822167D01*
X92111530Y-82587791D01*
X91912209Y-82388470D01*
X91677833Y-82231864D01*
X91417407Y-82123993D01*
X91140941Y-82069000D01*
X90859059Y-82069000D01*
X90582593Y-82123993D01*
X90322167Y-82231864D01*
X90087791Y-82388470D01*
X89888470Y-82587791D01*
X89731864Y-82822167D01*
X89623993Y-83082593D01*
X89569000Y-83359059D01*
X88087003Y-83359059D01*
X88095207Y-83346781D01*
X88191772Y-83113654D01*
X88241000Y-82866167D01*
X88241000Y-82613833D01*
X88191772Y-82366346D01*
X88095207Y-82133219D01*
X87955018Y-81923410D01*
X87776590Y-81744982D01*
X87566781Y-81604793D01*
X87333654Y-81508228D01*
X87086167Y-81459000D01*
X86833833Y-81459000D01*
X86586346Y-81508228D01*
X86353219Y-81604793D01*
X86143410Y-81744982D01*
X85964982Y-81923410D01*
X85957600Y-81934459D01*
X85958072Y-81840000D01*
X85945812Y-81715518D01*
X85909502Y-81595820D01*
X85850537Y-81485506D01*
X85771185Y-81388815D01*
X85674494Y-81309463D01*
X85564180Y-81250498D01*
X85444482Y-81214188D01*
X85320000Y-81201928D01*
X84705750Y-81205000D01*
X84547000Y-81363750D01*
X84547000Y-82613000D01*
X84567000Y-82613000D01*
X84567000Y-82867000D01*
X84547000Y-82867000D01*
X84547000Y-84116250D01*
X84705750Y-84275000D01*
X85199453Y-84277469D01*
X83362340Y-86114582D01*
X83308166Y-86060408D01*
X83213007Y-85996825D01*
X83107271Y-85953028D01*
X83005452Y-85932775D01*
X80712677Y-83640000D01*
X82881928Y-83640000D01*
X82894188Y-83764482D01*
X82930498Y-83884180D01*
X82989463Y-83994494D01*
X83068815Y-84091185D01*
X83165506Y-84170537D01*
X83275820Y-84229502D01*
X83395518Y-84265812D01*
X83520000Y-84278072D01*
X84134250Y-84275000D01*
X84293000Y-84116250D01*
X84293000Y-82867000D01*
X83043750Y-82867000D01*
X82885000Y-83025750D01*
X82881928Y-83640000D01*
X80712677Y-83640000D01*
X80651374Y-83578697D01*
X80637053Y-83561247D01*
X80567436Y-83504113D01*
X80488009Y-83461659D01*
X80401827Y-83435515D01*
X80334660Y-83428900D01*
X80334650Y-83428900D01*
X80312200Y-83426689D01*
X80289750Y-83428900D01*
X69029478Y-83428900D01*
X68442371Y-82841793D01*
X68546069Y-82810337D01*
X68729521Y-82712280D01*
X68890317Y-82580317D01*
X68993683Y-82454366D01*
X69094656Y-82619537D01*
X69268773Y-82808303D01*
X69476371Y-82959473D01*
X69709472Y-83067238D01*
X69810600Y-83097910D01*
X70013000Y-82974224D01*
X70013000Y-81957000D01*
X69993000Y-81957000D01*
X69993000Y-81703000D01*
X70013000Y-81703000D01*
X70013000Y-80685776D01*
X69810600Y-80562090D01*
X69709472Y-80592762D01*
X69476371Y-80700527D01*
X69268773Y-80851697D01*
X69094656Y-81040463D01*
X68993683Y-81205634D01*
X68890317Y-81079683D01*
X68729521Y-80947720D01*
X68546069Y-80849663D01*
X68347012Y-80789280D01*
X68191872Y-80774000D01*
X68088128Y-80774000D01*
X67932988Y-80789280D01*
X67733931Y-80849663D01*
X67550479Y-80947720D01*
X67389683Y-81079683D01*
X67386247Y-81083869D01*
X66847074Y-80544697D01*
X66832753Y-80527247D01*
X66763136Y-80470113D01*
X66683709Y-80427659D01*
X66612312Y-80406000D01*
X71094001Y-80406000D01*
X71094001Y-80941435D01*
X71094001Y-80941435D01*
G37*
X71094001Y-80941435D02*
X71011227Y-80851697D01*
X70803629Y-80700527D01*
X70570528Y-80592762D01*
X70469400Y-80562090D01*
X70267000Y-80685776D01*
X70267000Y-81703000D01*
X70287000Y-81703000D01*
X70287000Y-81957000D01*
X70267000Y-81957000D01*
X70267000Y-82974224D01*
X70469400Y-83097910D01*
X70570528Y-83067238D01*
X70803629Y-82959473D01*
X71011227Y-82808303D01*
X71094000Y-82718566D01*
X71094000Y-82980059D01*
X71092036Y-83000000D01*
X71099875Y-83079590D01*
X71123090Y-83156121D01*
X71160790Y-83226653D01*
X71182517Y-83253127D01*
X71211526Y-83288474D01*
X71273347Y-83339210D01*
X71343879Y-83376910D01*
X71420410Y-83400125D01*
X71500000Y-83407964D01*
X71519940Y-83406000D01*
X78480059Y-83406000D01*
X78500000Y-83407964D01*
X78519940Y-83406000D01*
X78519941Y-83406000D01*
X78579590Y-83400125D01*
X78656121Y-83376910D01*
X78726653Y-83339210D01*
X78788474Y-83288474D01*
X78839210Y-83226653D01*
X78876910Y-83156121D01*
X78900125Y-83079590D01*
X78907964Y-83000000D01*
X78906000Y-82980059D01*
X78906000Y-81840000D01*
X82881928Y-81840000D01*
X82885000Y-82454250D01*
X83043750Y-82613000D01*
X84293000Y-82613000D01*
X84293000Y-81363750D01*
X84134250Y-81205000D01*
X83520000Y-81201928D01*
X83395518Y-81214188D01*
X83275820Y-81250498D01*
X83165506Y-81309463D01*
X83068815Y-81388815D01*
X82989463Y-81485506D01*
X82930498Y-81595820D01*
X82894188Y-81715518D01*
X82881928Y-81840000D01*
X78906000Y-81840000D01*
X78906000Y-80406000D01*
X95198325Y-80406000D01*
X95013393Y-80762772D01*
X94999717Y-80796963D01*
X94985587Y-80830909D01*
X94983969Y-80836336D01*
X94983966Y-80836343D01*
X94983965Y-80836350D01*
X94829960Y-81366436D01*
X94823190Y-81402608D01*
X94815918Y-81438677D01*
X94815384Y-81444321D01*
X94767273Y-81994234D01*
X94767658Y-82031010D01*
X94767530Y-82067827D01*
X94768103Y-82073467D01*
X94827720Y-82622250D01*
X94835248Y-82658285D01*
X94842266Y-82694391D01*
X94843923Y-82699812D01*
X95008997Y-83226565D01*
X95023373Y-83260432D01*
X95037279Y-83294508D01*
X95039958Y-83299504D01*
X95304202Y-83784161D01*
X95324903Y-83814622D01*
X95345142Y-83845315D01*
X95348736Y-83849691D01*
X95348740Y-83849697D01*
X95348745Y-83849702D01*
X95702088Y-84273798D01*
X95728305Y-84299653D01*
X95754127Y-84325837D01*
X95758501Y-84329430D01*
X95758506Y-84329435D01*
X95758511Y-84329439D01*
X95906577Y-84449340D01*
X95645750Y-84450000D01*
X95487000Y-84608750D01*
X95487000Y-86208000D01*
X97336250Y-86208000D01*
X97495000Y-86049250D01*
X97497744Y-85187809D01*
X97971665Y-85232608D01*
X98008482Y-85232480D01*
X98045258Y-85232865D01*
X98050902Y-85232332D01*
X98600088Y-85176548D01*
X98636194Y-85169268D01*
X98672329Y-85162505D01*
X98677762Y-85160886D01*
X99205654Y-84999493D01*
X99239650Y-84985341D01*
X99273791Y-84971686D01*
X99278807Y-84969042D01*
X99594000Y-84800037D01*
X99594001Y-101698326D01*
X99237228Y-101513393D01*
X99203037Y-101499717D01*
X99169091Y-101485587D01*
X99163664Y-101483969D01*
X99163657Y-101483966D01*
X99163650Y-101483965D01*
X98633564Y-101329960D01*
X98597392Y-101323190D01*
X98561323Y-101315918D01*
X98555679Y-101315384D01*
X98005766Y-101267273D01*
X97968990Y-101267658D01*
X97932174Y-101267530D01*
X97926533Y-101268103D01*
X97497307Y-101314732D01*
X97495000Y-100590750D01*
X97336250Y-100432000D01*
X95487000Y-100432000D01*
X95487000Y-102031250D01*
X95645750Y-102190000D01*
X95740423Y-102190240D01*
X95726202Y-102202088D01*
X95700347Y-102228305D01*
X95674163Y-102254127D01*
X95670570Y-102258501D01*
X95670565Y-102258506D01*
X95670561Y-102258511D01*
X95323173Y-102687501D01*
X95302905Y-102718239D01*
X95282234Y-102748656D01*
X95279554Y-102753652D01*
X95022103Y-103241952D01*
X95008194Y-103276036D01*
X94993822Y-103309894D01*
X94992164Y-103315315D01*
X94834460Y-103844321D01*
X94827440Y-103880435D01*
X94819914Y-103916463D01*
X94819341Y-103922103D01*
X94767392Y-104471665D01*
X94767520Y-104508482D01*
X94767135Y-104545258D01*
X94767668Y-104550902D01*
X94823452Y-105100088D01*
X94830732Y-105136194D01*
X94837495Y-105172329D01*
X94839114Y-105177762D01*
X95000507Y-105705654D01*
X95014659Y-105739650D01*
X95028314Y-105773791D01*
X95030958Y-105778807D01*
X95199963Y-106094000D01*
X78906000Y-106094000D01*
X78906000Y-105938657D01*
X78995518Y-105965812D01*
X79120000Y-105978072D01*
X79609250Y-105975000D01*
X79768000Y-105816250D01*
X79768000Y-104817000D01*
X80022000Y-104817000D01*
X80022000Y-105816250D01*
X80180750Y-105975000D01*
X80670000Y-105978072D01*
X80794482Y-105965812D01*
X80914180Y-105929502D01*
X81024494Y-105870537D01*
X81121185Y-105791185D01*
X81200537Y-105694494D01*
X81259502Y-105584180D01*
X81295812Y-105464482D01*
X81308072Y-105340000D01*
X86431928Y-105340000D01*
X86444188Y-105464482D01*
X86480498Y-105584180D01*
X86539463Y-105694494D01*
X86618815Y-105791185D01*
X86715506Y-105870537D01*
X86825820Y-105929502D01*
X86945518Y-105965812D01*
X87070000Y-105978072D01*
X87559250Y-105975000D01*
X87718000Y-105816250D01*
X87718000Y-104817000D01*
X87972000Y-104817000D01*
X87972000Y-105816250D01*
X88130750Y-105975000D01*
X88620000Y-105978072D01*
X88744482Y-105965812D01*
X88864180Y-105929502D01*
X88974494Y-105870537D01*
X89071185Y-105791185D01*
X89150537Y-105694494D01*
X89209502Y-105584180D01*
X89245812Y-105464482D01*
X89258072Y-105340000D01*
X89255000Y-104975750D01*
X89096250Y-104817000D01*
X87972000Y-104817000D01*
X87718000Y-104817000D01*
X86593750Y-104817000D01*
X86435000Y-104975750D01*
X86431928Y-105340000D01*
X81308072Y-105340000D01*
X81305000Y-104975750D01*
X81146250Y-104817000D01*
X80022000Y-104817000D01*
X79768000Y-104817000D01*
X79748000Y-104817000D01*
X79748000Y-104563000D01*
X79768000Y-104563000D01*
X79768000Y-103563750D01*
X80022000Y-103563750D01*
X80022000Y-104563000D01*
X81146250Y-104563000D01*
X81305000Y-104404250D01*
X81308072Y-104040000D01*
X86431928Y-104040000D01*
X86435000Y-104404250D01*
X86593750Y-104563000D01*
X87718000Y-104563000D01*
X87718000Y-103563750D01*
X87972000Y-103563750D01*
X87972000Y-104563000D01*
X89096250Y-104563000D01*
X89255000Y-104404250D01*
X89258072Y-104040000D01*
X89245812Y-103915518D01*
X89209502Y-103795820D01*
X89150537Y-103685506D01*
X89071185Y-103588815D01*
X88974494Y-103509463D01*
X88864180Y-103450498D01*
X88744482Y-103414188D01*
X88620000Y-103401928D01*
X88130750Y-103405000D01*
X87972000Y-103563750D01*
X87718000Y-103563750D01*
X87559250Y-103405000D01*
X87070000Y-103401928D01*
X86945518Y-103414188D01*
X86825820Y-103450498D01*
X86715506Y-103509463D01*
X86618815Y-103588815D01*
X86539463Y-103685506D01*
X86480498Y-103795820D01*
X86444188Y-103915518D01*
X86431928Y-104040000D01*
X81308072Y-104040000D01*
X81295812Y-103915518D01*
X81259502Y-103795820D01*
X81200537Y-103685506D01*
X81121185Y-103588815D01*
X81024494Y-103509463D01*
X80914180Y-103450498D01*
X80794482Y-103414188D01*
X80670000Y-103401928D01*
X80180750Y-103405000D01*
X80022000Y-103563750D01*
X79768000Y-103563750D01*
X79609250Y-103405000D01*
X79190842Y-103402373D01*
X79197809Y-103400987D01*
X79339942Y-103342113D01*
X79467859Y-103256642D01*
X79576642Y-103147859D01*
X79662113Y-103019942D01*
X79720987Y-102877809D01*
X79751000Y-102726922D01*
X79751000Y-102573078D01*
X79720987Y-102422191D01*
X79662113Y-102280058D01*
X79623665Y-102222517D01*
X79652113Y-102179942D01*
X79710987Y-102037809D01*
X79741000Y-101886922D01*
X79741000Y-101733078D01*
X79712660Y-101590600D01*
X87074823Y-101590600D01*
X89201975Y-103717752D01*
X89222228Y-103819571D01*
X89266025Y-103925307D01*
X89329608Y-104020466D01*
X89410534Y-104101392D01*
X89505693Y-104164975D01*
X89611429Y-104208772D01*
X89723677Y-104231100D01*
X89838123Y-104231100D01*
X89950371Y-104208772D01*
X90056107Y-104164975D01*
X90151266Y-104101392D01*
X90232192Y-104020466D01*
X90295775Y-103925307D01*
X90339572Y-103819571D01*
X90361900Y-103707323D01*
X90361900Y-103592877D01*
X90339572Y-103480629D01*
X90295775Y-103374893D01*
X90232192Y-103279734D01*
X90151266Y-103198808D01*
X90056107Y-103135225D01*
X89950371Y-103091428D01*
X89848552Y-103071175D01*
X88332377Y-101555000D01*
X93221928Y-101555000D01*
X93234188Y-101679482D01*
X93270498Y-101799180D01*
X93329463Y-101909494D01*
X93408815Y-102006185D01*
X93505506Y-102085537D01*
X93615820Y-102144502D01*
X93735518Y-102180812D01*
X93860000Y-102193072D01*
X95074250Y-102190000D01*
X95233000Y-102031250D01*
X95233000Y-100432000D01*
X93383750Y-100432000D01*
X93225000Y-100590750D01*
X93221928Y-101555000D01*
X88332377Y-101555000D01*
X88000220Y-101222843D01*
X88620000Y-101222843D01*
X88694689Y-101215487D01*
X88766508Y-101193701D01*
X88832696Y-101158322D01*
X88890711Y-101110711D01*
X88938322Y-101052696D01*
X88973701Y-100986508D01*
X88995487Y-100914689D01*
X89002843Y-100840000D01*
X89002843Y-99540000D01*
X88995487Y-99465311D01*
X88973701Y-99393492D01*
X88938322Y-99327304D01*
X88896711Y-99276600D01*
X91170142Y-99276600D01*
X91249634Y-99356092D01*
X91344793Y-99419675D01*
X91450529Y-99463472D01*
X91562777Y-99485800D01*
X91677223Y-99485800D01*
X91789471Y-99463472D01*
X91895207Y-99419675D01*
X91990366Y-99356092D01*
X92071292Y-99275166D01*
X92134875Y-99180007D01*
X92178672Y-99074271D01*
X92182505Y-99055000D01*
X93221928Y-99055000D01*
X93225000Y-100019250D01*
X93383750Y-100178000D01*
X95233000Y-100178000D01*
X95233000Y-98578750D01*
X95487000Y-98578750D01*
X95487000Y-100178000D01*
X97336250Y-100178000D01*
X97495000Y-100019250D01*
X97498072Y-99055000D01*
X97485812Y-98930518D01*
X97449502Y-98810820D01*
X97390537Y-98700506D01*
X97311185Y-98603815D01*
X97214494Y-98524463D01*
X97104180Y-98465498D01*
X96984482Y-98429188D01*
X96860000Y-98416928D01*
X95645750Y-98420000D01*
X95487000Y-98578750D01*
X95233000Y-98578750D01*
X95074250Y-98420000D01*
X93860000Y-98416928D01*
X93735518Y-98429188D01*
X93615820Y-98465498D01*
X93505506Y-98524463D01*
X93408815Y-98603815D01*
X93329463Y-98700506D01*
X93270498Y-98810820D01*
X93234188Y-98930518D01*
X93221928Y-99055000D01*
X92182505Y-99055000D01*
X92201000Y-98962023D01*
X92201000Y-98847577D01*
X92178672Y-98735329D01*
X92134875Y-98629593D01*
X92071292Y-98534434D01*
X91990366Y-98453508D01*
X91895207Y-98389925D01*
X91789471Y-98346128D01*
X91677223Y-98323800D01*
X91562777Y-98323800D01*
X91450529Y-98346128D01*
X91411728Y-98362200D01*
X85873577Y-98362200D01*
X87852171Y-96383606D01*
X89149000Y-96383606D01*
X89149000Y-96606394D01*
X89192464Y-96824900D01*
X89277721Y-97030729D01*
X89401495Y-97215970D01*
X89559030Y-97373505D01*
X89744271Y-97497279D01*
X89950100Y-97582536D01*
X90168606Y-97626000D01*
X90391394Y-97626000D01*
X90609900Y-97582536D01*
X90815729Y-97497279D01*
X91000970Y-97373505D01*
X91158505Y-97215970D01*
X91282279Y-97030729D01*
X91367536Y-96824900D01*
X91411000Y-96606394D01*
X91411000Y-96383606D01*
X91367536Y-96165100D01*
X91282279Y-95959271D01*
X91158505Y-95774030D01*
X91000970Y-95616495D01*
X90815729Y-95492721D01*
X90609900Y-95407464D01*
X90391394Y-95364000D01*
X90168606Y-95364000D01*
X89950100Y-95407464D01*
X89744271Y-95492721D01*
X89559030Y-95616495D01*
X89401495Y-95774030D01*
X89277721Y-95959271D01*
X89192464Y-96165100D01*
X89149000Y-96383606D01*
X87852171Y-96383606D01*
X89231253Y-95004525D01*
X89333071Y-94984272D01*
X89438807Y-94940475D01*
X89533966Y-94876892D01*
X89614892Y-94795966D01*
X89678475Y-94700807D01*
X89722272Y-94595071D01*
X89744600Y-94482823D01*
X89744600Y-94368377D01*
X89722272Y-94256129D01*
X89686469Y-94169692D01*
X91724071Y-96207295D01*
X91689000Y-96383606D01*
X91689000Y-96606394D01*
X91732464Y-96824900D01*
X91817721Y-97030729D01*
X91941495Y-97215970D01*
X92099030Y-97373505D01*
X92284271Y-97497279D01*
X92490100Y-97582536D01*
X92708606Y-97626000D01*
X92931394Y-97626000D01*
X93149900Y-97582536D01*
X93355729Y-97497279D01*
X93540970Y-97373505D01*
X93698505Y-97215970D01*
X93822279Y-97030729D01*
X93907536Y-96824900D01*
X93951000Y-96606394D01*
X93951000Y-96383606D01*
X93907536Y-96165100D01*
X93822279Y-95959271D01*
X93698505Y-95774030D01*
X93540970Y-95616495D01*
X93355729Y-95492721D01*
X93169301Y-95415500D01*
X93355729Y-95338279D01*
X93540970Y-95214505D01*
X93698505Y-95056970D01*
X93822279Y-94871729D01*
X93907536Y-94665900D01*
X93951000Y-94447394D01*
X93951000Y-94224606D01*
X93907536Y-94006100D01*
X93822279Y-93800271D01*
X93698505Y-93615030D01*
X93540970Y-93457495D01*
X93355729Y-93333721D01*
X93169301Y-93256500D01*
X93355729Y-93179279D01*
X93540970Y-93055505D01*
X93698505Y-92897970D01*
X93822279Y-92712729D01*
X93907536Y-92506900D01*
X93951000Y-92288394D01*
X93951000Y-92065606D01*
X93907536Y-91847100D01*
X93896311Y-91820000D01*
X94934957Y-91820000D01*
X94934957Y-94820000D01*
X94942313Y-94894689D01*
X94964099Y-94966508D01*
X94999478Y-95032696D01*
X95047089Y-95090711D01*
X95105104Y-95138322D01*
X95171292Y-95173701D01*
X95243111Y-95195487D01*
X95317800Y-95202843D01*
X97817800Y-95202843D01*
X97892489Y-95195487D01*
X97964308Y-95173701D01*
X98030496Y-95138322D01*
X98088511Y-95090711D01*
X98136122Y-95032696D01*
X98171501Y-94966508D01*
X98193287Y-94894689D01*
X98200643Y-94820000D01*
X98200643Y-91820000D01*
X98193287Y-91745311D01*
X98171501Y-91673492D01*
X98136122Y-91607304D01*
X98088511Y-91549289D01*
X98030496Y-91501678D01*
X97964308Y-91466299D01*
X97892489Y-91444513D01*
X97817800Y-91437157D01*
X95317800Y-91437157D01*
X95243111Y-91444513D01*
X95171292Y-91466299D01*
X95105104Y-91501678D01*
X95047089Y-91549289D01*
X94999478Y-91607304D01*
X94964099Y-91673492D01*
X94942313Y-91745311D01*
X94934957Y-91820000D01*
X93896311Y-91820000D01*
X93822279Y-91641271D01*
X93698505Y-91456030D01*
X93542943Y-91300468D01*
X93597388Y-91101993D01*
X92820000Y-90324605D01*
X92042612Y-91101993D01*
X92097057Y-91300468D01*
X91941495Y-91456030D01*
X91817721Y-91641271D01*
X91732464Y-91847100D01*
X91689000Y-92065606D01*
X91689000Y-92288394D01*
X91732464Y-92506900D01*
X91817721Y-92712729D01*
X91941495Y-92897970D01*
X92099030Y-93055505D01*
X92284271Y-93179279D01*
X92470699Y-93256500D01*
X92284271Y-93333721D01*
X92099030Y-93457495D01*
X91941495Y-93615030D01*
X91817721Y-93800271D01*
X91732464Y-94006100D01*
X91689000Y-94224606D01*
X91689000Y-94447394D01*
X91715912Y-94582688D01*
X87166829Y-90033606D01*
X89149000Y-90033606D01*
X89149000Y-90256394D01*
X89192464Y-90474900D01*
X89277721Y-90680729D01*
X89401495Y-90865970D01*
X89559030Y-91023505D01*
X89744271Y-91147279D01*
X89950100Y-91232536D01*
X90168606Y-91276000D01*
X90391394Y-91276000D01*
X90609900Y-91232536D01*
X90815729Y-91147279D01*
X91000970Y-91023505D01*
X91158505Y-90865970D01*
X91282279Y-90680729D01*
X91367536Y-90474900D01*
X91411000Y-90256394D01*
X91411000Y-90217492D01*
X91430188Y-90217492D01*
X91471035Y-90487238D01*
X91563723Y-90743832D01*
X91624140Y-90856863D01*
X91863007Y-90922388D01*
X92640395Y-90145000D01*
X92999605Y-90145000D01*
X93776993Y-90922388D01*
X94015860Y-90856863D01*
X94131760Y-90609884D01*
X94197250Y-90345040D01*
X94209812Y-90072508D01*
X94168965Y-89802762D01*
X94076277Y-89546168D01*
X94015860Y-89433137D01*
X93776993Y-89367612D01*
X92999605Y-90145000D01*
X92640395Y-90145000D01*
X91863007Y-89367612D01*
X91624140Y-89433137D01*
X91508240Y-89680116D01*
X91442750Y-89944960D01*
X91430188Y-90217492D01*
X91411000Y-90217492D01*
X91411000Y-90033606D01*
X91367536Y-89815100D01*
X91282279Y-89609271D01*
X91158505Y-89424030D01*
X91000970Y-89266495D01*
X90883505Y-89188007D01*
X92042612Y-89188007D01*
X92820000Y-89965395D01*
X93597388Y-89188007D01*
X93531863Y-88949140D01*
X93284884Y-88833240D01*
X93020040Y-88767750D01*
X92747508Y-88755188D01*
X92477762Y-88796035D01*
X92221168Y-88888723D01*
X92108137Y-88949140D01*
X92042612Y-89188007D01*
X90883505Y-89188007D01*
X90815729Y-89142721D01*
X90609900Y-89057464D01*
X90391394Y-89014000D01*
X90168606Y-89014000D01*
X89950100Y-89057464D01*
X89744271Y-89142721D01*
X89559030Y-89266495D01*
X89401495Y-89424030D01*
X89277721Y-89609271D01*
X89192464Y-89815100D01*
X89149000Y-90033606D01*
X87166829Y-90033606D01*
X86038970Y-88905748D01*
X86021067Y-88883933D01*
X85934045Y-88812516D01*
X85834762Y-88759448D01*
X85727034Y-88726769D01*
X85643074Y-88718500D01*
X85615000Y-88715735D01*
X85586926Y-88718500D01*
X82870574Y-88718500D01*
X82842500Y-88715735D01*
X82814426Y-88718500D01*
X82730466Y-88726769D01*
X82622738Y-88759448D01*
X82523455Y-88812516D01*
X82436433Y-88883933D01*
X82418534Y-88905743D01*
X81382825Y-89941453D01*
X81287179Y-89890329D01*
X81168462Y-89854317D01*
X81045000Y-89842157D01*
X80120000Y-89842157D01*
X79996538Y-89854317D01*
X79877821Y-89890329D01*
X79768411Y-89948810D01*
X79672512Y-90027512D01*
X79593810Y-90123411D01*
X79535329Y-90232821D01*
X79499317Y-90351538D01*
X79487157Y-90475000D01*
X79487157Y-90698500D01*
X78612843Y-90698500D01*
X78612843Y-90520000D01*
X78605487Y-90445311D01*
X78583701Y-90373492D01*
X78548322Y-90307304D01*
X78500711Y-90249289D01*
X78442696Y-90201678D01*
X78376508Y-90166299D01*
X78304689Y-90144513D01*
X78230000Y-90137157D01*
X78081500Y-90137157D01*
X78081500Y-89810876D01*
X78083462Y-89810683D01*
X78202179Y-89774671D01*
X78311589Y-89716190D01*
X78407488Y-89637488D01*
X78486190Y-89541589D01*
X78544671Y-89432179D01*
X78580683Y-89313462D01*
X78592843Y-89190001D01*
X78592843Y-87889999D01*
X78585890Y-87819400D01*
X82738850Y-87819400D01*
X82761300Y-87821611D01*
X82783750Y-87819400D01*
X82783760Y-87819400D01*
X82850927Y-87812785D01*
X82937109Y-87786641D01*
X83016536Y-87744187D01*
X83086153Y-87687053D01*
X83100474Y-87669603D01*
X83185077Y-87585000D01*
X93221928Y-87585000D01*
X93234188Y-87709482D01*
X93270498Y-87829180D01*
X93329463Y-87939494D01*
X93408815Y-88036185D01*
X93505506Y-88115537D01*
X93615820Y-88174502D01*
X93735518Y-88210812D01*
X93860000Y-88223072D01*
X95074250Y-88220000D01*
X95233000Y-88061250D01*
X95233000Y-86462000D01*
X95487000Y-86462000D01*
X95487000Y-88061250D01*
X95645750Y-88220000D01*
X96860000Y-88223072D01*
X96984482Y-88210812D01*
X97104180Y-88174502D01*
X97214494Y-88115537D01*
X97311185Y-88036185D01*
X97390537Y-87939494D01*
X97449502Y-87829180D01*
X97485812Y-87709482D01*
X97498072Y-87585000D01*
X97495000Y-86620750D01*
X97336250Y-86462000D01*
X95487000Y-86462000D01*
X95233000Y-86462000D01*
X93383750Y-86462000D01*
X93225000Y-86620750D01*
X93221928Y-87585000D01*
X83185077Y-87585000D01*
X85685077Y-85085000D01*
X93221928Y-85085000D01*
X93225000Y-86049250D01*
X93383750Y-86208000D01*
X95233000Y-86208000D01*
X95233000Y-84608750D01*
X95074250Y-84450000D01*
X93860000Y-84446928D01*
X93735518Y-84459188D01*
X93615820Y-84495498D01*
X93505506Y-84554463D01*
X93408815Y-84633815D01*
X93329463Y-84730506D01*
X93270498Y-84840820D01*
X93234188Y-84960518D01*
X93221928Y-85085000D01*
X85685077Y-85085000D01*
X86763140Y-84006938D01*
X86833833Y-84021000D01*
X87086167Y-84021000D01*
X87333654Y-83971772D01*
X87566781Y-83875207D01*
X87776590Y-83735018D01*
X87955018Y-83556590D01*
X88087003Y-83359059D01*
X89569000Y-83359059D01*
X89569000Y-83640941D01*
X89623993Y-83917407D01*
X89731864Y-84177833D01*
X89888470Y-84412209D01*
X90087791Y-84611530D01*
X90322167Y-84768136D01*
X90582593Y-84876007D01*
X90859059Y-84931000D01*
X91140941Y-84931000D01*
X91417407Y-84876007D01*
X91677833Y-84768136D01*
X91912209Y-84611530D01*
X92111530Y-84412209D01*
X92268136Y-84177833D01*
X92376007Y-83917407D01*
X92431000Y-83640941D01*
X92431000Y-83359059D01*
X92376007Y-83082593D01*
X92268136Y-82822167D01*
X92111530Y-82587791D01*
X91912209Y-82388470D01*
X91677833Y-82231864D01*
X91417407Y-82123993D01*
X91140941Y-82069000D01*
X90859059Y-82069000D01*
X90582593Y-82123993D01*
X90322167Y-82231864D01*
X90087791Y-82388470D01*
X89888470Y-82587791D01*
X89731864Y-82822167D01*
X89623993Y-83082593D01*
X89569000Y-83359059D01*
X88087003Y-83359059D01*
X88095207Y-83346781D01*
X88191772Y-83113654D01*
X88241000Y-82866167D01*
X88241000Y-82613833D01*
X88191772Y-82366346D01*
X88095207Y-82133219D01*
X87955018Y-81923410D01*
X87776590Y-81744982D01*
X87566781Y-81604793D01*
X87333654Y-81508228D01*
X87086167Y-81459000D01*
X86833833Y-81459000D01*
X86586346Y-81508228D01*
X86353219Y-81604793D01*
X86143410Y-81744982D01*
X85964982Y-81923410D01*
X85957600Y-81934459D01*
X85958072Y-81840000D01*
X85945812Y-81715518D01*
X85909502Y-81595820D01*
X85850537Y-81485506D01*
X85771185Y-81388815D01*
X85674494Y-81309463D01*
X85564180Y-81250498D01*
X85444482Y-81214188D01*
X85320000Y-81201928D01*
X84705750Y-81205000D01*
X84547000Y-81363750D01*
X84547000Y-82613000D01*
X84567000Y-82613000D01*
X84567000Y-82867000D01*
X84547000Y-82867000D01*
X84547000Y-84116250D01*
X84705750Y-84275000D01*
X85199453Y-84277469D01*
X83362340Y-86114582D01*
X83308166Y-86060408D01*
X83213007Y-85996825D01*
X83107271Y-85953028D01*
X83005452Y-85932775D01*
X80712677Y-83640000D01*
X82881928Y-83640000D01*
X82894188Y-83764482D01*
X82930498Y-83884180D01*
X82989463Y-83994494D01*
X83068815Y-84091185D01*
X83165506Y-84170537D01*
X83275820Y-84229502D01*
X83395518Y-84265812D01*
X83520000Y-84278072D01*
X84134250Y-84275000D01*
X84293000Y-84116250D01*
X84293000Y-82867000D01*
X83043750Y-82867000D01*
X82885000Y-83025750D01*
X82881928Y-83640000D01*
X80712677Y-83640000D01*
X80651374Y-83578697D01*
X80637053Y-83561247D01*
X80567436Y-83504113D01*
X80488009Y-83461659D01*
X80401827Y-83435515D01*
X80334660Y-83428900D01*
X80334650Y-83428900D01*
X80312200Y-83426689D01*
X80289750Y-83428900D01*
X69029478Y-83428900D01*
X68442371Y-82841793D01*
X68546069Y-82810337D01*
X68729521Y-82712280D01*
X68890317Y-82580317D01*
X68993683Y-82454366D01*
X69094656Y-82619537D01*
X69268773Y-82808303D01*
X69476371Y-82959473D01*
X69709472Y-83067238D01*
X69810600Y-83097910D01*
X70013000Y-82974224D01*
X70013000Y-81957000D01*
X69993000Y-81957000D01*
X69993000Y-81703000D01*
X70013000Y-81703000D01*
X70013000Y-80685776D01*
X69810600Y-80562090D01*
X69709472Y-80592762D01*
X69476371Y-80700527D01*
X69268773Y-80851697D01*
X69094656Y-81040463D01*
X68993683Y-81205634D01*
X68890317Y-81079683D01*
X68729521Y-80947720D01*
X68546069Y-80849663D01*
X68347012Y-80789280D01*
X68191872Y-80774000D01*
X68088128Y-80774000D01*
X67932988Y-80789280D01*
X67733931Y-80849663D01*
X67550479Y-80947720D01*
X67389683Y-81079683D01*
X67386247Y-81083869D01*
X66847074Y-80544697D01*
X66832753Y-80527247D01*
X66763136Y-80470113D01*
X66683709Y-80427659D01*
X66612312Y-80406000D01*
X71094001Y-80406000D01*
X71094001Y-80941435D01*
G36*
X67381957Y-94586032D02*
G01*
X67448223Y-94666777D01*
X67528968Y-94733043D01*
X67621090Y-94782283D01*
X67721047Y-94812605D01*
X67825000Y-94822843D01*
X68125000Y-94822843D01*
X68228953Y-94812605D01*
X68328910Y-94782283D01*
X68421032Y-94733043D01*
X68501777Y-94666777D01*
X68514588Y-94651167D01*
X68672800Y-94809379D01*
X68672800Y-96945004D01*
X68629494Y-96909463D01*
X68519180Y-96850498D01*
X68399482Y-96814188D01*
X68275000Y-96801928D01*
X68260750Y-96805000D01*
X68102000Y-96963750D01*
X68102000Y-98288000D01*
X68122000Y-98288000D01*
X68122000Y-98542000D01*
X68102000Y-98542000D01*
X68102000Y-98562000D01*
X67855990Y-98562000D01*
X67855990Y-97328839D01*
X67858201Y-97306389D01*
X67855990Y-97283939D01*
X67855990Y-97283930D01*
X67849375Y-97216763D01*
X67848000Y-97212230D01*
X67848000Y-96963750D01*
X67689250Y-96805000D01*
X67675000Y-96801928D01*
X67552929Y-96813951D01*
X66927467Y-96188490D01*
X67022571Y-96169572D01*
X67128307Y-96125775D01*
X67223466Y-96062192D01*
X67304392Y-95981266D01*
X67367975Y-95886107D01*
X67411772Y-95780371D01*
X67434100Y-95668123D01*
X67434100Y-95553677D01*
X67411772Y-95441429D01*
X67367975Y-95335693D01*
X67304392Y-95240534D01*
X67223466Y-95159608D01*
X67128307Y-95096025D01*
X67022571Y-95052228D01*
X66920752Y-95031975D01*
X66711620Y-94822843D01*
X66855000Y-94822843D01*
X66958953Y-94812605D01*
X67058910Y-94782283D01*
X67151032Y-94733043D01*
X67231777Y-94666777D01*
X67298043Y-94586032D01*
X67340000Y-94507536D01*
X67381957Y-94586032D01*
X67381957Y-94586032D01*
G37*
X67381957Y-94586032D02*
X67448223Y-94666777D01*
X67528968Y-94733043D01*
X67621090Y-94782283D01*
X67721047Y-94812605D01*
X67825000Y-94822843D01*
X68125000Y-94822843D01*
X68228953Y-94812605D01*
X68328910Y-94782283D01*
X68421032Y-94733043D01*
X68501777Y-94666777D01*
X68514588Y-94651167D01*
X68672800Y-94809379D01*
X68672800Y-96945004D01*
X68629494Y-96909463D01*
X68519180Y-96850498D01*
X68399482Y-96814188D01*
X68275000Y-96801928D01*
X68260750Y-96805000D01*
X68102000Y-96963750D01*
X68102000Y-98288000D01*
X68122000Y-98288000D01*
X68122000Y-98542000D01*
X68102000Y-98542000D01*
X68102000Y-98562000D01*
X67855990Y-98562000D01*
X67855990Y-97328839D01*
X67858201Y-97306389D01*
X67855990Y-97283939D01*
X67855990Y-97283930D01*
X67849375Y-97216763D01*
X67848000Y-97212230D01*
X67848000Y-96963750D01*
X67689250Y-96805000D01*
X67675000Y-96801928D01*
X67552929Y-96813951D01*
X66927467Y-96188490D01*
X67022571Y-96169572D01*
X67128307Y-96125775D01*
X67223466Y-96062192D01*
X67304392Y-95981266D01*
X67367975Y-95886107D01*
X67411772Y-95780371D01*
X67434100Y-95668123D01*
X67434100Y-95553677D01*
X67411772Y-95441429D01*
X67367975Y-95335693D01*
X67304392Y-95240534D01*
X67223466Y-95159608D01*
X67128307Y-95096025D01*
X67022571Y-95052228D01*
X66920752Y-95031975D01*
X66711620Y-94822843D01*
X66855000Y-94822843D01*
X66958953Y-94812605D01*
X67058910Y-94782283D01*
X67151032Y-94733043D01*
X67231777Y-94666777D01*
X67298043Y-94586032D01*
X67340000Y-94507536D01*
X67381957Y-94586032D01*
G36*
X89419508Y-93902731D02*
G01*
X89333071Y-93866928D01*
X89220823Y-93844600D01*
X89106377Y-93844600D01*
X88994129Y-93866928D01*
X88888393Y-93910725D01*
X88793234Y-93974308D01*
X88712308Y-94055234D01*
X88648725Y-94150393D01*
X88604928Y-94256129D01*
X88584675Y-94357947D01*
X85057023Y-97885600D01*
X77764300Y-97885600D01*
X77764300Y-97806477D01*
X77741972Y-97694229D01*
X77698175Y-97588493D01*
X77634592Y-97493334D01*
X77553666Y-97412408D01*
X77458507Y-97348825D01*
X77352771Y-97305028D01*
X77240523Y-97282700D01*
X77126077Y-97282700D01*
X77013829Y-97305028D01*
X76908093Y-97348825D01*
X76821776Y-97406500D01*
X74829371Y-97406500D01*
X74822575Y-97390093D01*
X74758992Y-97294934D01*
X74678066Y-97214008D01*
X74582907Y-97150425D01*
X74477171Y-97106628D01*
X74364923Y-97084300D01*
X74250477Y-97084300D01*
X74138229Y-97106628D01*
X74032493Y-97150425D01*
X73937334Y-97214008D01*
X73856408Y-97294934D01*
X73792825Y-97390093D01*
X73749028Y-97495829D01*
X73726700Y-97608077D01*
X73726700Y-97722523D01*
X73749028Y-97834771D01*
X73768144Y-97880921D01*
X72507223Y-96620000D01*
X75591928Y-96620000D01*
X75604188Y-96744482D01*
X75640498Y-96864180D01*
X75699463Y-96974494D01*
X75778815Y-97071185D01*
X75875506Y-97150537D01*
X75985820Y-97209502D01*
X76105518Y-97245812D01*
X76230000Y-97258072D01*
X76944250Y-97255000D01*
X77103000Y-97096250D01*
X77103000Y-95997000D01*
X77357000Y-95997000D01*
X77357000Y-97096250D01*
X77515750Y-97255000D01*
X78230000Y-97258072D01*
X78354482Y-97245812D01*
X78474180Y-97209502D01*
X78584494Y-97150537D01*
X78681185Y-97071185D01*
X78760537Y-96974494D01*
X78819502Y-96864180D01*
X78855812Y-96744482D01*
X78868072Y-96620000D01*
X78865000Y-96155750D01*
X78706250Y-95997000D01*
X77357000Y-95997000D01*
X77103000Y-95997000D01*
X75753750Y-95997000D01*
X75595000Y-96155750D01*
X75591928Y-96620000D01*
X72507223Y-96620000D01*
X71740065Y-95852843D01*
X71930000Y-95852843D01*
X72004689Y-95845487D01*
X72076508Y-95823701D01*
X72142696Y-95788322D01*
X72200711Y-95740711D01*
X72248322Y-95682696D01*
X72283701Y-95616508D01*
X72305487Y-95544689D01*
X72312843Y-95470000D01*
X72312843Y-94141500D01*
X75847157Y-94141500D01*
X75847157Y-94320000D01*
X75854513Y-94394689D01*
X75876299Y-94466508D01*
X75911678Y-94532696D01*
X75933031Y-94558715D01*
X75875506Y-94589463D01*
X75778815Y-94668815D01*
X75699463Y-94765506D01*
X75640498Y-94875820D01*
X75604188Y-94995518D01*
X75591928Y-95120000D01*
X75595000Y-95584250D01*
X75753750Y-95743000D01*
X77103000Y-95743000D01*
X77103000Y-95723000D01*
X77357000Y-95723000D01*
X77357000Y-95743000D01*
X78706250Y-95743000D01*
X78775514Y-95673736D01*
X79106034Y-96004257D01*
X79123933Y-96026067D01*
X79178850Y-96071136D01*
X79210955Y-96097484D01*
X79310238Y-96150552D01*
X79417966Y-96183231D01*
X79447157Y-96186106D01*
X79447157Y-96695000D01*
X79459317Y-96818462D01*
X79495329Y-96937179D01*
X79553810Y-97046589D01*
X79632512Y-97142488D01*
X79728411Y-97221190D01*
X79837821Y-97279671D01*
X79956538Y-97315683D01*
X80080000Y-97327843D01*
X81005000Y-97327843D01*
X81128462Y-97315683D01*
X81247179Y-97279671D01*
X81356589Y-97221190D01*
X81452488Y-97142488D01*
X81531190Y-97046589D01*
X81585490Y-96945000D01*
X82166928Y-96945000D01*
X82179188Y-97069482D01*
X82215498Y-97189180D01*
X82274463Y-97299494D01*
X82353815Y-97396185D01*
X82450506Y-97475537D01*
X82560820Y-97534502D01*
X82680518Y-97570812D01*
X82805000Y-97583072D01*
X83231750Y-97580000D01*
X83390500Y-97421250D01*
X83390500Y-95747000D01*
X83644500Y-95747000D01*
X83644500Y-97421250D01*
X83803250Y-97580000D01*
X84230000Y-97583072D01*
X84354482Y-97570812D01*
X84474180Y-97534502D01*
X84584494Y-97475537D01*
X84681185Y-97396185D01*
X84760537Y-97299494D01*
X84819502Y-97189180D01*
X84855812Y-97069482D01*
X84868072Y-96945000D01*
X84865000Y-95905750D01*
X84706250Y-95747000D01*
X83644500Y-95747000D01*
X83390500Y-95747000D01*
X82328750Y-95747000D01*
X82170000Y-95905750D01*
X82166928Y-96945000D01*
X81585490Y-96945000D01*
X81589671Y-96937179D01*
X81625683Y-96818462D01*
X81637843Y-96695000D01*
X81637843Y-94545000D01*
X81625683Y-94421538D01*
X81589671Y-94302821D01*
X81585491Y-94295000D01*
X82166928Y-94295000D01*
X82170000Y-95334250D01*
X82328750Y-95493000D01*
X83390500Y-95493000D01*
X83390500Y-93818750D01*
X83644500Y-93818750D01*
X83644500Y-95493000D01*
X84706250Y-95493000D01*
X84865000Y-95334250D01*
X84868072Y-94295000D01*
X84855812Y-94170518D01*
X84819502Y-94050820D01*
X84760537Y-93940506D01*
X84681185Y-93843815D01*
X84584494Y-93764463D01*
X84474180Y-93705498D01*
X84354482Y-93669188D01*
X84230000Y-93656928D01*
X83803250Y-93660000D01*
X83644500Y-93818750D01*
X83390500Y-93818750D01*
X83231750Y-93660000D01*
X82805000Y-93656928D01*
X82680518Y-93669188D01*
X82560820Y-93705498D01*
X82450506Y-93764463D01*
X82353815Y-93843815D01*
X82274463Y-93940506D01*
X82215498Y-94050820D01*
X82179188Y-94170518D01*
X82166928Y-94295000D01*
X81585491Y-94295000D01*
X81531190Y-94193411D01*
X81452488Y-94097512D01*
X81356589Y-94018810D01*
X81247179Y-93960329D01*
X81128462Y-93924317D01*
X81005000Y-93912157D01*
X80080000Y-93912157D01*
X79956538Y-93924317D01*
X79837821Y-93960329D01*
X79728411Y-94018810D01*
X79632512Y-94097512D01*
X79553810Y-94193411D01*
X79495329Y-94302821D01*
X79459317Y-94421538D01*
X79447157Y-94545000D01*
X79447157Y-94728934D01*
X78612843Y-93894621D01*
X78612843Y-92820000D01*
X78605487Y-92745311D01*
X78583701Y-92673492D01*
X78548322Y-92607304D01*
X78500711Y-92549289D01*
X78442696Y-92501678D01*
X78376508Y-92466299D01*
X78304689Y-92444513D01*
X78230000Y-92437157D01*
X76230000Y-92437157D01*
X76155311Y-92444513D01*
X76083492Y-92466299D01*
X76017304Y-92501678D01*
X75959289Y-92549289D01*
X75911678Y-92607304D01*
X75876299Y-92673492D01*
X75854513Y-92745311D01*
X75847157Y-92820000D01*
X75847157Y-92998500D01*
X72312843Y-92998500D01*
X72312843Y-91841500D01*
X75847157Y-91841500D01*
X75847157Y-92020000D01*
X75854513Y-92094689D01*
X75876299Y-92166508D01*
X75911678Y-92232696D01*
X75959289Y-92290711D01*
X76017304Y-92338322D01*
X76083492Y-92373701D01*
X76155311Y-92395487D01*
X76230000Y-92402843D01*
X78230000Y-92402843D01*
X78304689Y-92395487D01*
X78376508Y-92373701D01*
X78442696Y-92338322D01*
X78500711Y-92290711D01*
X78548322Y-92232696D01*
X78583701Y-92166508D01*
X78605487Y-92094689D01*
X78612843Y-92020000D01*
X78612843Y-91841500D01*
X79487157Y-91841500D01*
X79487157Y-92625000D01*
X79499317Y-92748462D01*
X79535329Y-92867179D01*
X79593810Y-92976589D01*
X79672512Y-93072488D01*
X79768411Y-93151190D01*
X79877821Y-93209671D01*
X79996538Y-93245683D01*
X80120000Y-93257843D01*
X81045000Y-93257843D01*
X81168462Y-93245683D01*
X81287179Y-93209671D01*
X81396589Y-93151190D01*
X81492488Y-93072488D01*
X81571190Y-92976589D01*
X81625490Y-92875000D01*
X82206928Y-92875000D01*
X82219188Y-92999482D01*
X82255498Y-93119180D01*
X82314463Y-93229494D01*
X82393815Y-93326185D01*
X82490506Y-93405537D01*
X82600820Y-93464502D01*
X82720518Y-93500812D01*
X82845000Y-93513072D01*
X83271750Y-93510000D01*
X83430500Y-93351250D01*
X83430500Y-91677000D01*
X83684500Y-91677000D01*
X83684500Y-93351250D01*
X83843250Y-93510000D01*
X84270000Y-93513072D01*
X84394482Y-93500812D01*
X84514180Y-93464502D01*
X84624494Y-93405537D01*
X84721185Y-93326185D01*
X84800537Y-93229494D01*
X84859502Y-93119180D01*
X84895812Y-92999482D01*
X84908072Y-92875000D01*
X84905000Y-91835750D01*
X84746250Y-91677000D01*
X83684500Y-91677000D01*
X83430500Y-91677000D01*
X82368750Y-91677000D01*
X82210000Y-91835750D01*
X82206928Y-92875000D01*
X81625490Y-92875000D01*
X81629671Y-92867179D01*
X81665683Y-92748462D01*
X81677843Y-92625000D01*
X81677843Y-91262879D01*
X82208428Y-90732295D01*
X82210000Y-91264250D01*
X82368750Y-91423000D01*
X83430500Y-91423000D01*
X83430500Y-91403000D01*
X83684500Y-91403000D01*
X83684500Y-91423000D01*
X84746250Y-91423000D01*
X84905000Y-91264250D01*
X84908072Y-90225000D01*
X84895812Y-90100518D01*
X84859502Y-89980820D01*
X84800537Y-89870506D01*
X84793146Y-89861500D01*
X85378278Y-89861500D01*
X89419508Y-93902731D01*
X89419508Y-93902731D01*
G37*
X89419508Y-93902731D02*
X89333071Y-93866928D01*
X89220823Y-93844600D01*
X89106377Y-93844600D01*
X88994129Y-93866928D01*
X88888393Y-93910725D01*
X88793234Y-93974308D01*
X88712308Y-94055234D01*
X88648725Y-94150393D01*
X88604928Y-94256129D01*
X88584675Y-94357947D01*
X85057023Y-97885600D01*
X77764300Y-97885600D01*
X77764300Y-97806477D01*
X77741972Y-97694229D01*
X77698175Y-97588493D01*
X77634592Y-97493334D01*
X77553666Y-97412408D01*
X77458507Y-97348825D01*
X77352771Y-97305028D01*
X77240523Y-97282700D01*
X77126077Y-97282700D01*
X77013829Y-97305028D01*
X76908093Y-97348825D01*
X76821776Y-97406500D01*
X74829371Y-97406500D01*
X74822575Y-97390093D01*
X74758992Y-97294934D01*
X74678066Y-97214008D01*
X74582907Y-97150425D01*
X74477171Y-97106628D01*
X74364923Y-97084300D01*
X74250477Y-97084300D01*
X74138229Y-97106628D01*
X74032493Y-97150425D01*
X73937334Y-97214008D01*
X73856408Y-97294934D01*
X73792825Y-97390093D01*
X73749028Y-97495829D01*
X73726700Y-97608077D01*
X73726700Y-97722523D01*
X73749028Y-97834771D01*
X73768144Y-97880921D01*
X72507223Y-96620000D01*
X75591928Y-96620000D01*
X75604188Y-96744482D01*
X75640498Y-96864180D01*
X75699463Y-96974494D01*
X75778815Y-97071185D01*
X75875506Y-97150537D01*
X75985820Y-97209502D01*
X76105518Y-97245812D01*
X76230000Y-97258072D01*
X76944250Y-97255000D01*
X77103000Y-97096250D01*
X77103000Y-95997000D01*
X77357000Y-95997000D01*
X77357000Y-97096250D01*
X77515750Y-97255000D01*
X78230000Y-97258072D01*
X78354482Y-97245812D01*
X78474180Y-97209502D01*
X78584494Y-97150537D01*
X78681185Y-97071185D01*
X78760537Y-96974494D01*
X78819502Y-96864180D01*
X78855812Y-96744482D01*
X78868072Y-96620000D01*
X78865000Y-96155750D01*
X78706250Y-95997000D01*
X77357000Y-95997000D01*
X77103000Y-95997000D01*
X75753750Y-95997000D01*
X75595000Y-96155750D01*
X75591928Y-96620000D01*
X72507223Y-96620000D01*
X71740065Y-95852843D01*
X71930000Y-95852843D01*
X72004689Y-95845487D01*
X72076508Y-95823701D01*
X72142696Y-95788322D01*
X72200711Y-95740711D01*
X72248322Y-95682696D01*
X72283701Y-95616508D01*
X72305487Y-95544689D01*
X72312843Y-95470000D01*
X72312843Y-94141500D01*
X75847157Y-94141500D01*
X75847157Y-94320000D01*
X75854513Y-94394689D01*
X75876299Y-94466508D01*
X75911678Y-94532696D01*
X75933031Y-94558715D01*
X75875506Y-94589463D01*
X75778815Y-94668815D01*
X75699463Y-94765506D01*
X75640498Y-94875820D01*
X75604188Y-94995518D01*
X75591928Y-95120000D01*
X75595000Y-95584250D01*
X75753750Y-95743000D01*
X77103000Y-95743000D01*
X77103000Y-95723000D01*
X77357000Y-95723000D01*
X77357000Y-95743000D01*
X78706250Y-95743000D01*
X78775514Y-95673736D01*
X79106034Y-96004257D01*
X79123933Y-96026067D01*
X79178850Y-96071136D01*
X79210955Y-96097484D01*
X79310238Y-96150552D01*
X79417966Y-96183231D01*
X79447157Y-96186106D01*
X79447157Y-96695000D01*
X79459317Y-96818462D01*
X79495329Y-96937179D01*
X79553810Y-97046589D01*
X79632512Y-97142488D01*
X79728411Y-97221190D01*
X79837821Y-97279671D01*
X79956538Y-97315683D01*
X80080000Y-97327843D01*
X81005000Y-97327843D01*
X81128462Y-97315683D01*
X81247179Y-97279671D01*
X81356589Y-97221190D01*
X81452488Y-97142488D01*
X81531190Y-97046589D01*
X81585490Y-96945000D01*
X82166928Y-96945000D01*
X82179188Y-97069482D01*
X82215498Y-97189180D01*
X82274463Y-97299494D01*
X82353815Y-97396185D01*
X82450506Y-97475537D01*
X82560820Y-97534502D01*
X82680518Y-97570812D01*
X82805000Y-97583072D01*
X83231750Y-97580000D01*
X83390500Y-97421250D01*
X83390500Y-95747000D01*
X83644500Y-95747000D01*
X83644500Y-97421250D01*
X83803250Y-97580000D01*
X84230000Y-97583072D01*
X84354482Y-97570812D01*
X84474180Y-97534502D01*
X84584494Y-97475537D01*
X84681185Y-97396185D01*
X84760537Y-97299494D01*
X84819502Y-97189180D01*
X84855812Y-97069482D01*
X84868072Y-96945000D01*
X84865000Y-95905750D01*
X84706250Y-95747000D01*
X83644500Y-95747000D01*
X83390500Y-95747000D01*
X82328750Y-95747000D01*
X82170000Y-95905750D01*
X82166928Y-96945000D01*
X81585490Y-96945000D01*
X81589671Y-96937179D01*
X81625683Y-96818462D01*
X81637843Y-96695000D01*
X81637843Y-94545000D01*
X81625683Y-94421538D01*
X81589671Y-94302821D01*
X81585491Y-94295000D01*
X82166928Y-94295000D01*
X82170000Y-95334250D01*
X82328750Y-95493000D01*
X83390500Y-95493000D01*
X83390500Y-93818750D01*
X83644500Y-93818750D01*
X83644500Y-95493000D01*
X84706250Y-95493000D01*
X84865000Y-95334250D01*
X84868072Y-94295000D01*
X84855812Y-94170518D01*
X84819502Y-94050820D01*
X84760537Y-93940506D01*
X84681185Y-93843815D01*
X84584494Y-93764463D01*
X84474180Y-93705498D01*
X84354482Y-93669188D01*
X84230000Y-93656928D01*
X83803250Y-93660000D01*
X83644500Y-93818750D01*
X83390500Y-93818750D01*
X83231750Y-93660000D01*
X82805000Y-93656928D01*
X82680518Y-93669188D01*
X82560820Y-93705498D01*
X82450506Y-93764463D01*
X82353815Y-93843815D01*
X82274463Y-93940506D01*
X82215498Y-94050820D01*
X82179188Y-94170518D01*
X82166928Y-94295000D01*
X81585491Y-94295000D01*
X81531190Y-94193411D01*
X81452488Y-94097512D01*
X81356589Y-94018810D01*
X81247179Y-93960329D01*
X81128462Y-93924317D01*
X81005000Y-93912157D01*
X80080000Y-93912157D01*
X79956538Y-93924317D01*
X79837821Y-93960329D01*
X79728411Y-94018810D01*
X79632512Y-94097512D01*
X79553810Y-94193411D01*
X79495329Y-94302821D01*
X79459317Y-94421538D01*
X79447157Y-94545000D01*
X79447157Y-94728934D01*
X78612843Y-93894621D01*
X78612843Y-92820000D01*
X78605487Y-92745311D01*
X78583701Y-92673492D01*
X78548322Y-92607304D01*
X78500711Y-92549289D01*
X78442696Y-92501678D01*
X78376508Y-92466299D01*
X78304689Y-92444513D01*
X78230000Y-92437157D01*
X76230000Y-92437157D01*
X76155311Y-92444513D01*
X76083492Y-92466299D01*
X76017304Y-92501678D01*
X75959289Y-92549289D01*
X75911678Y-92607304D01*
X75876299Y-92673492D01*
X75854513Y-92745311D01*
X75847157Y-92820000D01*
X75847157Y-92998500D01*
X72312843Y-92998500D01*
X72312843Y-91841500D01*
X75847157Y-91841500D01*
X75847157Y-92020000D01*
X75854513Y-92094689D01*
X75876299Y-92166508D01*
X75911678Y-92232696D01*
X75959289Y-92290711D01*
X76017304Y-92338322D01*
X76083492Y-92373701D01*
X76155311Y-92395487D01*
X76230000Y-92402843D01*
X78230000Y-92402843D01*
X78304689Y-92395487D01*
X78376508Y-92373701D01*
X78442696Y-92338322D01*
X78500711Y-92290711D01*
X78548322Y-92232696D01*
X78583701Y-92166508D01*
X78605487Y-92094689D01*
X78612843Y-92020000D01*
X78612843Y-91841500D01*
X79487157Y-91841500D01*
X79487157Y-92625000D01*
X79499317Y-92748462D01*
X79535329Y-92867179D01*
X79593810Y-92976589D01*
X79672512Y-93072488D01*
X79768411Y-93151190D01*
X79877821Y-93209671D01*
X79996538Y-93245683D01*
X80120000Y-93257843D01*
X81045000Y-93257843D01*
X81168462Y-93245683D01*
X81287179Y-93209671D01*
X81396589Y-93151190D01*
X81492488Y-93072488D01*
X81571190Y-92976589D01*
X81625490Y-92875000D01*
X82206928Y-92875000D01*
X82219188Y-92999482D01*
X82255498Y-93119180D01*
X82314463Y-93229494D01*
X82393815Y-93326185D01*
X82490506Y-93405537D01*
X82600820Y-93464502D01*
X82720518Y-93500812D01*
X82845000Y-93513072D01*
X83271750Y-93510000D01*
X83430500Y-93351250D01*
X83430500Y-91677000D01*
X83684500Y-91677000D01*
X83684500Y-93351250D01*
X83843250Y-93510000D01*
X84270000Y-93513072D01*
X84394482Y-93500812D01*
X84514180Y-93464502D01*
X84624494Y-93405537D01*
X84721185Y-93326185D01*
X84800537Y-93229494D01*
X84859502Y-93119180D01*
X84895812Y-92999482D01*
X84908072Y-92875000D01*
X84905000Y-91835750D01*
X84746250Y-91677000D01*
X83684500Y-91677000D01*
X83430500Y-91677000D01*
X82368750Y-91677000D01*
X82210000Y-91835750D01*
X82206928Y-92875000D01*
X81625490Y-92875000D01*
X81629671Y-92867179D01*
X81665683Y-92748462D01*
X81677843Y-92625000D01*
X81677843Y-91262879D01*
X82208428Y-90732295D01*
X82210000Y-91264250D01*
X82368750Y-91423000D01*
X83430500Y-91423000D01*
X83430500Y-91403000D01*
X83684500Y-91403000D01*
X83684500Y-91423000D01*
X84746250Y-91423000D01*
X84905000Y-91264250D01*
X84908072Y-90225000D01*
X84895812Y-90100518D01*
X84859502Y-89980820D01*
X84800537Y-89870506D01*
X84793146Y-89861500D01*
X85378278Y-89861500D01*
X89419508Y-93902731D01*
G36*
X57781921Y-95458800D02*
G01*
X57796233Y-95476239D01*
X57813672Y-95490551D01*
X57813678Y-95490557D01*
X57865850Y-95533373D01*
X57945276Y-95575827D01*
X57962234Y-95580971D01*
X58031459Y-95601971D01*
X58098626Y-95608586D01*
X58098636Y-95608586D01*
X58121086Y-95610797D01*
X58143536Y-95608586D01*
X60139234Y-95608586D01*
X60157756Y-95623787D01*
X60237183Y-95666241D01*
X60323365Y-95692385D01*
X60390532Y-95699000D01*
X60390542Y-95699000D01*
X60412992Y-95701211D01*
X60435442Y-95699000D01*
X63305721Y-95699000D01*
X61923741Y-97080981D01*
X61878953Y-97067395D01*
X61775000Y-97057157D01*
X61475000Y-97057157D01*
X61371047Y-97067395D01*
X61271090Y-97097717D01*
X61178968Y-97146957D01*
X61098223Y-97213223D01*
X61031957Y-97293968D01*
X60990000Y-97372464D01*
X60948043Y-97293968D01*
X60881777Y-97213223D01*
X60801032Y-97146957D01*
X60708910Y-97097717D01*
X60608953Y-97067395D01*
X60505000Y-97057157D01*
X60205000Y-97057157D01*
X60101047Y-97067395D01*
X60001090Y-97097717D01*
X59995198Y-97100866D01*
X58810028Y-95915697D01*
X58795707Y-95898247D01*
X58726090Y-95841113D01*
X58646663Y-95798659D01*
X58560481Y-95772515D01*
X58493314Y-95765900D01*
X58493304Y-95765900D01*
X58470854Y-95763689D01*
X58448404Y-95765900D01*
X56825596Y-95765900D01*
X56900337Y-95626069D01*
X56960720Y-95427012D01*
X56981109Y-95220000D01*
X56960720Y-95012988D01*
X56900337Y-94813931D01*
X56840455Y-94701900D01*
X57025023Y-94701900D01*
X57781921Y-95458800D01*
X57781921Y-95458800D01*
G37*
X57781921Y-95458800D02*
X57796233Y-95476239D01*
X57813672Y-95490551D01*
X57813678Y-95490557D01*
X57865850Y-95533373D01*
X57945276Y-95575827D01*
X57962234Y-95580971D01*
X58031459Y-95601971D01*
X58098626Y-95608586D01*
X58098636Y-95608586D01*
X58121086Y-95610797D01*
X58143536Y-95608586D01*
X60139234Y-95608586D01*
X60157756Y-95623787D01*
X60237183Y-95666241D01*
X60323365Y-95692385D01*
X60390532Y-95699000D01*
X60390542Y-95699000D01*
X60412992Y-95701211D01*
X60435442Y-95699000D01*
X63305721Y-95699000D01*
X61923741Y-97080981D01*
X61878953Y-97067395D01*
X61775000Y-97057157D01*
X61475000Y-97057157D01*
X61371047Y-97067395D01*
X61271090Y-97097717D01*
X61178968Y-97146957D01*
X61098223Y-97213223D01*
X61031957Y-97293968D01*
X60990000Y-97372464D01*
X60948043Y-97293968D01*
X60881777Y-97213223D01*
X60801032Y-97146957D01*
X60708910Y-97097717D01*
X60608953Y-97067395D01*
X60505000Y-97057157D01*
X60205000Y-97057157D01*
X60101047Y-97067395D01*
X60001090Y-97097717D01*
X59995198Y-97100866D01*
X58810028Y-95915697D01*
X58795707Y-95898247D01*
X58726090Y-95841113D01*
X58646663Y-95798659D01*
X58560481Y-95772515D01*
X58493314Y-95765900D01*
X58493304Y-95765900D01*
X58470854Y-95763689D01*
X58448404Y-95765900D01*
X56825596Y-95765900D01*
X56900337Y-95626069D01*
X56960720Y-95427012D01*
X56981109Y-95220000D01*
X56960720Y-95012988D01*
X56900337Y-94813931D01*
X56840455Y-94701900D01*
X57025023Y-94701900D01*
X57781921Y-95458800D01*
G36*
X63197986Y-90916164D02*
G01*
X63194900Y-90931677D01*
X63194900Y-91046123D01*
X63197461Y-91059000D01*
X62101730Y-91059000D01*
X62100000Y-90825750D01*
X61941250Y-90667000D01*
X61104500Y-90667000D01*
X61104500Y-90687000D01*
X60850500Y-90687000D01*
X60850500Y-90667000D01*
X60830500Y-90667000D01*
X60830500Y-90413000D01*
X60850500Y-90413000D01*
X60850500Y-90393000D01*
X61104500Y-90393000D01*
X61104500Y-90413000D01*
X61941250Y-90413000D01*
X62100000Y-90254250D01*
X62101943Y-89992300D01*
X62274123Y-89992300D01*
X63197986Y-90916164D01*
X63197986Y-90916164D01*
G37*
X63197986Y-90916164D02*
X63194900Y-90931677D01*
X63194900Y-91046123D01*
X63197461Y-91059000D01*
X62101730Y-91059000D01*
X62100000Y-90825750D01*
X61941250Y-90667000D01*
X61104500Y-90667000D01*
X61104500Y-90687000D01*
X60850500Y-90687000D01*
X60850500Y-90667000D01*
X60830500Y-90667000D01*
X60830500Y-90413000D01*
X60850500Y-90413000D01*
X60850500Y-90393000D01*
X61104500Y-90393000D01*
X61104500Y-90413000D01*
X61941250Y-90413000D01*
X62100000Y-90254250D01*
X62101943Y-89992300D01*
X62274123Y-89992300D01*
X63197986Y-90916164D01*
G36*
X60013748Y-90412998D02*
G01*
X59972843Y-90412998D01*
X59972843Y-90372093D01*
X60013748Y-90412998D01*
X60013748Y-90412998D01*
G37*
X60013748Y-90412998D02*
X59972843Y-90412998D01*
X59972843Y-90372093D01*
X60013748Y-90412998D01*
M02*
