M48
; DRILL file {KiCad (5.1.2-1)-1} date Wednesday, 26 January 2022 at 01:19:43
; FORMAT={-:-/ absolute / metric / decimal}
; #@! TF.CreationDate,2022-01-26T01:19:43+00:00
; #@! TF.GenerationSoftware,Kicad,Pcbnew,(5.1.2-1)-1
; #@! TF.FileFunction,Plated,1,2,PTH
FMAT,2
METRIC
T1C0.300
T2C0.400
T3C0.500
T4C0.650
T5C0.800
T6C0.900
T7C2.000
%
G90
G05
T1
X52.43Y-97.044
X54.362Y-91.265
X59.328Y-83.232
X60.957Y-94.765
X62.377Y-84.112
X63.627Y-99.931
X63.776Y-90.989
X64.027Y-96.46
X64.128Y-88.939
X64.653Y-97.094
X64.795Y-94.713
X64.987Y-95.816
X65.261Y-85.617
X65.92Y-96.502
X66.853Y-95.611
X66.872Y-100.284
X67.017Y-99.702
X67.578Y-99.931
X68.742Y-92.535
X69.636Y-86.157
X71.975Y-101.19
X73.667Y-100.585
X74.308Y-97.665
X74.472Y-100.468
X74.515Y-85.279
X75.548Y-99.429
X75.785Y-85.279
X75.809Y-98.343
X76.105Y-88.682
X76.37Y-100.135
X77.183Y-97.864
X77.669Y-100.572
X81.195Y-86.878
X81.758Y-99.542
X82.023Y-86.735
X82.938Y-86.512
X89.164Y-94.426
X89.781Y-103.65
X91.62Y-98.905
T2
X60.07Y-95.678
X60.07Y-96.73
X60.19Y-90.54
X61.97Y-103.05
X68.52Y-98.94
X85.8Y-94.04
T3
X73.13Y-95.68
X73.64Y-94.76
X74.17Y-95.64
X78.96Y-101.81
X78.97Y-102.65
X80.2Y-101.81
X80.23Y-102.65
T4
X68.37Y-104.56
X69.64Y-104.56
X64.67Y-104.56
X65.94Y-104.56
T5
X56.14Y-81.83
X58.14Y-81.83
X60.14Y-81.83
X62.14Y-81.83
X64.14Y-81.83
X66.14Y-81.83
X68.14Y-81.83
X70.14Y-81.83
X55.92Y-85.22
X55.92Y-87.22
X55.92Y-89.22
X55.92Y-91.22
X55.92Y-93.22
X55.92Y-95.22
X55.92Y-97.22
X55.92Y-99.22
X55.92Y-101.22
T6
X84.42Y-82.74
X86.96Y-82.74
X90.28Y-90.145
X90.28Y-96.495
X92.82Y-90.145
X92.82Y-92.177
X92.82Y-94.336
X92.82Y-96.495
T7
G00X95.71Y-86.335
M15
G01X95.01Y-86.335
M16
G05
G00X95.71Y-100.305
M15
G01X95.01Y-100.305
M16
G05
G00X96.568Y-93.67
M15
G01X96.568Y-92.97
M16
G05
T0
M30
