%FSLAX45Y45*%
G04 Gerber Fmt 4.5, Leading zero omitted, Abs format (unit mm)*
G04 Created by KiCad (PCBNEW (5.1.2-1)-1) date 2022-01-26 01:19:42*
%MOMM*%
%LPD*%
G04 APERTURE LIST*
%ADD10C,0.050000*%
%ADD11C,0.200000*%
%ADD12C,0.300000*%
G04 APERTURE END LIST*
D10*
X10000000Y-8400000D02*
G75*
G02X9600000Y-8000000I-200000J200000D01*
G01*
X9600000Y-10650000D02*
G75*
G02X10000000Y-10250000I200000J200000D01*
G01*
X5000000Y-10250000D02*
G75*
G02X5400000Y-10650000I200000J-200000D01*
G01*
X7150000Y-8300000D02*
X7850000Y-8300000D01*
X7850000Y-8300000D02*
X7850000Y-8000000D01*
X7150000Y-8300000D02*
X7150000Y-8000000D01*
X7850000Y-10650000D02*
X7850000Y-10350000D01*
X7150000Y-10650000D02*
X7150000Y-10350000D01*
X7150000Y-10350000D02*
X7850000Y-10350000D01*
X7850000Y-10650000D02*
X9600000Y-10650000D01*
X5400000Y-10650000D02*
X7150000Y-10650000D01*
X7850000Y-8000000D02*
X9600000Y-8000000D01*
X5400000Y-8000000D02*
G75*
G02X5000000Y-8400000I-200000J-200000D01*
G01*
X5000000Y-8400000D02*
X5000000Y-10250000D01*
X10000000Y-8400000D02*
X10000000Y-10250000D01*
X5400000Y-8000000D02*
X7150000Y-8000000D01*
D11*
X5228000Y-9689390D02*
X5258000Y-9719390D01*
X5258000Y-9689390D02*
X5228000Y-9719390D01*
X5421250Y-9111540D02*
X5451250Y-9141540D01*
X5451250Y-9111540D02*
X5421250Y-9141540D01*
X5917850Y-8308160D02*
X5947850Y-8338160D01*
X5947850Y-8308160D02*
X5917850Y-8338160D01*
X6080660Y-9461530D02*
X6110660Y-9491530D01*
X6110660Y-9461530D02*
X6080660Y-9491530D01*
X6222740Y-8396240D02*
X6252740Y-8426240D01*
X6252740Y-8396240D02*
X6222740Y-8426240D01*
X6347730Y-9978138D02*
X6377730Y-10008138D01*
X6377730Y-9978138D02*
X6347730Y-10008138D01*
X6362590Y-9083890D02*
X6392590Y-9113890D01*
X6392590Y-9083890D02*
X6362590Y-9113890D01*
X6387690Y-9631050D02*
X6417690Y-9661050D01*
X6417690Y-9631050D02*
X6387690Y-9661050D01*
X6397760Y-8878860D02*
X6427760Y-8908860D01*
X6427760Y-8878860D02*
X6397760Y-8908860D01*
X6450250Y-9694390D02*
X6480250Y-9724390D01*
X6480250Y-9694390D02*
X6450250Y-9724390D01*
X6464470Y-9456270D02*
X6494470Y-9486270D01*
X6494470Y-9456270D02*
X6464470Y-9486270D01*
X6483700Y-9566590D02*
X6513700Y-9596590D01*
X6513700Y-9566590D02*
X6483700Y-9596590D01*
X6511100Y-8546670D02*
X6541100Y-8576670D01*
X6541100Y-8546670D02*
X6511100Y-8576670D01*
X6577000Y-9635160D02*
X6607000Y-9665160D01*
X6607000Y-9635160D02*
X6577000Y-9665160D01*
X6670310Y-9546090D02*
X6700310Y-9576090D01*
X6700310Y-9546090D02*
X6670310Y-9576090D01*
X6672240Y-10013379D02*
X6702240Y-10043379D01*
X6702240Y-10013379D02*
X6672240Y-10043379D01*
X6686719Y-9955151D02*
X6716719Y-9985151D01*
X6716719Y-9955151D02*
X6686719Y-9985151D01*
X6742830Y-9978138D02*
X6772830Y-10008138D01*
X6772830Y-9978138D02*
X6742830Y-10008138D01*
X6859180Y-9238530D02*
X6889180Y-9268530D01*
X6889180Y-9238530D02*
X6859180Y-9268530D01*
X6948590Y-8600660D02*
X6978590Y-8630660D01*
X6978590Y-8600660D02*
X6948590Y-8630660D01*
X7182500Y-10104010D02*
X7212500Y-10134010D01*
X7212500Y-10104010D02*
X7182500Y-10134010D01*
X7351730Y-10043510D02*
X7381730Y-10073510D01*
X7381730Y-10043510D02*
X7351730Y-10073510D01*
X7415770Y-9751530D02*
X7445770Y-9781530D01*
X7445770Y-9751530D02*
X7415770Y-9781530D01*
X7432160Y-10031850D02*
X7462160Y-10061850D01*
X7462160Y-10031850D02*
X7432160Y-10061850D01*
X7436500Y-8512950D02*
X7466500Y-8542950D01*
X7466500Y-8512950D02*
X7436500Y-8542950D01*
X7539780Y-9927910D02*
X7569780Y-9957910D01*
X7569780Y-9927910D02*
X7539780Y-9957910D01*
X7563500Y-8512950D02*
X7593500Y-8542950D01*
X7593500Y-8512950D02*
X7563500Y-8542950D01*
X7565860Y-9819280D02*
X7595860Y-9849280D01*
X7595860Y-9819280D02*
X7565860Y-9849280D01*
X7595530Y-8853220D02*
X7625530Y-8883220D01*
X7625530Y-8853220D02*
X7595530Y-8883220D01*
X7622010Y-9998530D02*
X7652010Y-10028530D01*
X7652010Y-9998530D02*
X7622010Y-10028530D01*
X7703330Y-9771370D02*
X7733330Y-9801370D01*
X7733330Y-9771370D02*
X7703330Y-9801370D01*
X7751900Y-10042230D02*
X7781900Y-10072230D01*
X7781900Y-10042230D02*
X7751900Y-10072230D01*
X8104540Y-8672760D02*
X8134540Y-8702760D01*
X8134540Y-8672760D02*
X8104540Y-8702760D01*
X8160820Y-9939250D02*
X8190820Y-9969250D01*
X8190820Y-9939250D02*
X8160820Y-9969250D01*
X8187280Y-8658540D02*
X8217280Y-8688540D01*
X8217280Y-8658540D02*
X8187280Y-8688540D01*
X8278780Y-8636170D02*
X8308780Y-8666170D01*
X8308780Y-8636170D02*
X8278780Y-8666170D01*
X8901360Y-9427560D02*
X8931360Y-9457560D01*
X8931360Y-9427560D02*
X8901360Y-9457560D01*
X8963090Y-10350010D02*
X8993090Y-10380010D01*
X8993090Y-10350010D02*
X8963090Y-10380010D01*
X9147000Y-9875480D02*
X9177000Y-9905480D01*
X9177000Y-9875480D02*
X9147000Y-9905480D01*
X6027000Y-9567759D02*
G75*
G03X6027000Y-9567759I-20000J0D01*
G01*
X6027001Y-9673001D02*
G75*
G03X6027001Y-9673001I-20000J0D01*
G01*
X6039000Y-9054000D02*
G75*
G03X6039000Y-9054000I-20000J0D01*
G01*
X6217000Y-10305000D02*
G75*
G03X6217000Y-10305000I-20000J0D01*
G01*
X6872000Y-9894000D02*
G75*
G03X6872000Y-9894000I-20000J0D01*
G01*
X8600000Y-9404000D02*
G75*
G03X8600000Y-9404000I-20000J0D01*
G01*
X7313000Y-9543000D02*
X7313000Y-9593000D01*
X7288000Y-9568000D02*
X7338000Y-9568000D01*
X7364000Y-9451000D02*
X7364000Y-9501000D01*
X7339000Y-9476000D02*
X7389000Y-9476000D01*
X7417000Y-9539000D02*
X7417000Y-9589000D01*
X7392000Y-9564000D02*
X7442000Y-9564000D01*
X7896000Y-10156000D02*
X7896000Y-10206000D01*
X7871000Y-10181000D02*
X7921000Y-10181000D01*
X7897000Y-10240000D02*
X7897000Y-10290000D01*
X7872000Y-10265000D02*
X7922000Y-10265000D01*
X8020000Y-10156000D02*
X8020000Y-10206000D01*
X7995000Y-10181000D02*
X8045000Y-10181000D01*
X8023000Y-10240000D02*
X8023000Y-10290000D01*
X7998000Y-10265000D02*
X8048000Y-10265000D01*
X6859981Y-10478981D02*
X6859981Y-10433019D01*
X6814019Y-10433019D01*
X6814019Y-10478981D01*
X6859981Y-10478981D01*
X6986981Y-10478981D02*
X6986981Y-10433019D01*
X6941019Y-10433019D01*
X6941019Y-10478981D01*
X6986981Y-10478981D01*
X6489981Y-10478981D02*
X6489981Y-10433019D01*
X6444019Y-10433019D01*
X6444019Y-10478981D01*
X6489981Y-10478981D01*
X6616981Y-10478981D02*
X6616981Y-10433019D01*
X6571019Y-10433019D01*
X6571019Y-10478981D01*
X6616981Y-10478981D01*
X5614000Y-8223000D02*
X5654000Y-8183000D01*
X5614000Y-8143000D01*
X5574000Y-8183000D01*
X5614000Y-8223000D01*
X5814000Y-8223000D02*
X5854000Y-8183000D01*
X5814000Y-8143000D01*
X5774000Y-8183000D01*
X5814000Y-8223000D01*
X6014000Y-8223000D02*
X6054000Y-8183000D01*
X6014000Y-8143000D01*
X5974000Y-8183000D01*
X6014000Y-8223000D01*
X6214000Y-8223000D02*
X6254000Y-8183000D01*
X6214000Y-8143000D01*
X6174000Y-8183000D01*
X6214000Y-8223000D01*
X6414000Y-8223000D02*
X6454000Y-8183000D01*
X6414000Y-8143000D01*
X6374000Y-8183000D01*
X6414000Y-8223000D01*
X6614000Y-8223000D02*
X6654000Y-8183000D01*
X6614000Y-8143000D01*
X6574000Y-8183000D01*
X6614000Y-8223000D01*
X6814000Y-8223000D02*
X6854000Y-8183000D01*
X6814000Y-8143000D01*
X6774000Y-8183000D01*
X6814000Y-8223000D01*
X7014000Y-8223000D02*
X7054000Y-8183000D01*
X7014000Y-8143000D01*
X6974000Y-8183000D01*
X7014000Y-8223000D01*
X5592000Y-8562000D02*
X5632000Y-8522000D01*
X5592000Y-8482000D01*
X5552000Y-8522000D01*
X5592000Y-8562000D01*
X5592000Y-8762000D02*
X5632000Y-8722000D01*
X5592000Y-8682000D01*
X5552000Y-8722000D01*
X5592000Y-8762000D01*
X5592000Y-8962000D02*
X5632000Y-8922000D01*
X5592000Y-8882000D01*
X5552000Y-8922000D01*
X5592000Y-8962000D01*
X5592000Y-9162000D02*
X5632000Y-9122000D01*
X5592000Y-9082000D01*
X5552000Y-9122000D01*
X5592000Y-9162000D01*
X5592000Y-9362000D02*
X5632000Y-9322000D01*
X5592000Y-9282000D01*
X5552000Y-9322000D01*
X5592000Y-9362000D01*
X5592000Y-9562000D02*
X5632000Y-9522000D01*
X5592000Y-9482000D01*
X5552000Y-9522000D01*
X5592000Y-9562000D01*
X5592000Y-9762000D02*
X5632000Y-9722000D01*
X5592000Y-9682000D01*
X5552000Y-9722000D01*
X5592000Y-9762000D01*
X5592000Y-9962000D02*
X5632000Y-9922000D01*
X5592000Y-9882000D01*
X5552000Y-9922000D01*
X5592000Y-9962000D01*
X5592000Y-10162000D02*
X5632000Y-10122000D01*
X5592000Y-10082000D01*
X5552000Y-10122000D01*
X5592000Y-10162000D01*
X8397000Y-8229000D02*
X8487000Y-8319000D01*
X8487000Y-8229000D02*
X8397000Y-8319000D01*
X8487000Y-8274000D02*
G75*
G03X8487000Y-8274000I-45000J0D01*
G01*
X8651000Y-8229000D02*
X8741000Y-8319000D01*
X8741000Y-8229000D02*
X8651000Y-8319000D01*
X8741000Y-8274000D02*
G75*
G03X8741000Y-8274000I-45000J0D01*
G01*
X8983000Y-8969500D02*
X9073000Y-9059500D01*
X9073000Y-8969500D02*
X8983000Y-9059500D01*
X9073000Y-9014500D02*
G75*
G03X9073000Y-9014500I-45000J0D01*
G01*
X8983000Y-9604500D02*
X9073000Y-9694500D01*
X9073000Y-9604500D02*
X8983000Y-9694500D01*
X9073000Y-9649500D02*
G75*
G03X9073000Y-9649500I-45000J0D01*
G01*
X9237000Y-8969500D02*
X9327000Y-9059500D01*
X9327000Y-8969500D02*
X9237000Y-9059500D01*
X9327000Y-9014500D02*
G75*
G03X9327000Y-9014500I-45000J0D01*
G01*
X9237000Y-9172700D02*
X9327000Y-9262700D01*
X9327000Y-9172700D02*
X9237000Y-9262700D01*
X9327000Y-9217700D02*
G75*
G03X9327000Y-9217700I-45000J0D01*
G01*
X9237000Y-9388600D02*
X9327000Y-9478600D01*
X9327000Y-9388600D02*
X9237000Y-9478600D01*
X9327000Y-9433600D02*
G75*
G03X9327000Y-9433600I-45000J0D01*
G01*
X9237000Y-9604500D02*
X9327000Y-9694500D01*
X9327000Y-9604500D02*
X9237000Y-9694500D01*
X9327000Y-9649500D02*
G75*
G03X9327000Y-9649500I-45000J0D01*
G01*
X9436000Y-8533500D02*
X9636000Y-8733500D01*
X9636000Y-8533500D02*
X9436000Y-8733500D01*
X9536000Y-8533500D02*
X9536000Y-8733500D01*
X9436000Y-8633500D02*
X9636000Y-8633500D01*
X9571000Y-8543500D02*
X9501000Y-8543500D01*
X9571000Y-8723500D02*
X9501000Y-8723500D01*
X9501000Y-8543500D02*
G75*
G03X9501000Y-8723500I0J-90000D01*
G01*
X9571000Y-8723500D02*
G75*
G03X9571000Y-8543500I0J90000D01*
G01*
X9436000Y-9930500D02*
X9636000Y-10130500D01*
X9636000Y-9930500D02*
X9436000Y-10130500D01*
X9536000Y-9930500D02*
X9536000Y-10130500D01*
X9436000Y-10030500D02*
X9636000Y-10030500D01*
X9571000Y-9940500D02*
X9501000Y-9940500D01*
X9571000Y-10120500D02*
X9501000Y-10120500D01*
X9501000Y-9940500D02*
G75*
G03X9501000Y-10120500I0J-90000D01*
G01*
X9571000Y-10120500D02*
G75*
G03X9571000Y-9940500I0J90000D01*
G01*
X9556780Y-9232000D02*
X9756780Y-9432000D01*
X9756780Y-9232000D02*
X9556780Y-9432000D01*
X9656780Y-9232000D02*
X9656780Y-9432000D01*
X9556780Y-9332000D02*
X9756780Y-9332000D01*
X9746780Y-9367000D02*
X9746780Y-9297000D01*
X9566780Y-9367000D02*
X9566780Y-9297000D01*
X9746780Y-9297000D02*
G75*
G03X9566780Y-9297000I-90000J0D01*
G01*
X9566780Y-9367000D02*
G75*
G03X9746780Y-9367000I90000J0D01*
G01*
D12*
X5283928Y-11118215D02*
X5283928Y-10818215D01*
X5355357Y-10818215D01*
X5398214Y-10832500D01*
X5426786Y-10861072D01*
X5441071Y-10889643D01*
X5455357Y-10946786D01*
X5455357Y-10989643D01*
X5441071Y-11046786D01*
X5426786Y-11075357D01*
X5398214Y-11103929D01*
X5355357Y-11118215D01*
X5283928Y-11118215D01*
X5583928Y-11118215D02*
X5583928Y-10918215D01*
X5583928Y-10975357D02*
X5598214Y-10946786D01*
X5612500Y-10932500D01*
X5641071Y-10918215D01*
X5669643Y-10918215D01*
X5769643Y-11118215D02*
X5769643Y-10918215D01*
X5769643Y-10818215D02*
X5755357Y-10832500D01*
X5769643Y-10846786D01*
X5783928Y-10832500D01*
X5769643Y-10818215D01*
X5769643Y-10846786D01*
X5955357Y-11118215D02*
X5926786Y-11103929D01*
X5912500Y-11075357D01*
X5912500Y-10818215D01*
X6112500Y-11118215D02*
X6083928Y-11103929D01*
X6069643Y-11075357D01*
X6069643Y-10818215D01*
X6455357Y-11118215D02*
X6455357Y-10818215D01*
X6555357Y-11032500D01*
X6655357Y-10818215D01*
X6655357Y-11118215D01*
X6926786Y-11118215D02*
X6926786Y-10961072D01*
X6912500Y-10932500D01*
X6883928Y-10918215D01*
X6826786Y-10918215D01*
X6798214Y-10932500D01*
X6926786Y-11103929D02*
X6898214Y-11118215D01*
X6826786Y-11118215D01*
X6798214Y-11103929D01*
X6783928Y-11075357D01*
X6783928Y-11046786D01*
X6798214Y-11018215D01*
X6826786Y-11003929D01*
X6898214Y-11003929D01*
X6926786Y-10989643D01*
X7069643Y-10918215D02*
X7069643Y-11218214D01*
X7069643Y-10932500D02*
X7098214Y-10918215D01*
X7155357Y-10918215D01*
X7183928Y-10932500D01*
X7198214Y-10946786D01*
X7212500Y-10975357D01*
X7212500Y-11061072D01*
X7198214Y-11089643D01*
X7183928Y-11103929D01*
X7155357Y-11118215D01*
X7098214Y-11118215D01*
X7069643Y-11103929D01*
X7341071Y-11089643D02*
X7355357Y-11103929D01*
X7341071Y-11118215D01*
X7326786Y-11103929D01*
X7341071Y-11089643D01*
X7341071Y-11118215D01*
X7341071Y-10932500D02*
X7355357Y-10946786D01*
X7341071Y-10961072D01*
X7326786Y-10946786D01*
X7341071Y-10932500D01*
X7341071Y-10961072D01*
X4967500Y-11597500D02*
X4997500Y-11627500D01*
X4997500Y-11597500D02*
X4967500Y-11627500D01*
X5341071Y-11448214D02*
X5369643Y-11448214D01*
X5398214Y-11462500D01*
X5412500Y-11476786D01*
X5426786Y-11505357D01*
X5441071Y-11562500D01*
X5441071Y-11633929D01*
X5426786Y-11691072D01*
X5412500Y-11719643D01*
X5398214Y-11733929D01*
X5369643Y-11748214D01*
X5341071Y-11748214D01*
X5312500Y-11733929D01*
X5298214Y-11719643D01*
X5283928Y-11691072D01*
X5269643Y-11633929D01*
X5269643Y-11562500D01*
X5283928Y-11505357D01*
X5298214Y-11476786D01*
X5312500Y-11462500D01*
X5341071Y-11448214D01*
X5569643Y-11719643D02*
X5583928Y-11733929D01*
X5569643Y-11748214D01*
X5555357Y-11733929D01*
X5569643Y-11719643D01*
X5569643Y-11748214D01*
X5683928Y-11448214D02*
X5869643Y-11448214D01*
X5769643Y-11562500D01*
X5812500Y-11562500D01*
X5841071Y-11576786D01*
X5855357Y-11591072D01*
X5869643Y-11619643D01*
X5869643Y-11691072D01*
X5855357Y-11719643D01*
X5841071Y-11733929D01*
X5812500Y-11748214D01*
X5726786Y-11748214D01*
X5698214Y-11733929D01*
X5683928Y-11719643D01*
X6055357Y-11448214D02*
X6083928Y-11448214D01*
X6112500Y-11462500D01*
X6126786Y-11476786D01*
X6141071Y-11505357D01*
X6155357Y-11562500D01*
X6155357Y-11633929D01*
X6141071Y-11691072D01*
X6126786Y-11719643D01*
X6112500Y-11733929D01*
X6083928Y-11748214D01*
X6055357Y-11748214D01*
X6026786Y-11733929D01*
X6012500Y-11719643D01*
X5998214Y-11691072D01*
X5983928Y-11633929D01*
X5983928Y-11562500D01*
X5998214Y-11505357D01*
X6012500Y-11476786D01*
X6026786Y-11462500D01*
X6055357Y-11448214D01*
X6283928Y-11748214D02*
X6283928Y-11548214D01*
X6283928Y-11576786D02*
X6298214Y-11562500D01*
X6326786Y-11548214D01*
X6369643Y-11548214D01*
X6398214Y-11562500D01*
X6412500Y-11591072D01*
X6412500Y-11748214D01*
X6412500Y-11591072D02*
X6426786Y-11562500D01*
X6455357Y-11548214D01*
X6498214Y-11548214D01*
X6526786Y-11562500D01*
X6541071Y-11591072D01*
X6541071Y-11748214D01*
X6683928Y-11748214D02*
X6683928Y-11548214D01*
X6683928Y-11576786D02*
X6698214Y-11562500D01*
X6726786Y-11548214D01*
X6769643Y-11548214D01*
X6798214Y-11562500D01*
X6812500Y-11591072D01*
X6812500Y-11748214D01*
X6812500Y-11591072D02*
X6826786Y-11562500D01*
X6855357Y-11548214D01*
X6898214Y-11548214D01*
X6926786Y-11562500D01*
X6941071Y-11591072D01*
X6941071Y-11748214D01*
X7526786Y-11433929D02*
X7269643Y-11819643D01*
X7912500Y-11448214D02*
X7941071Y-11448214D01*
X7969643Y-11462500D01*
X7983928Y-11476786D01*
X7998214Y-11505357D01*
X8012500Y-11562500D01*
X8012500Y-11633929D01*
X7998214Y-11691072D01*
X7983928Y-11719643D01*
X7969643Y-11733929D01*
X7941071Y-11748214D01*
X7912500Y-11748214D01*
X7883928Y-11733929D01*
X7869643Y-11719643D01*
X7855357Y-11691072D01*
X7841071Y-11633929D01*
X7841071Y-11562500D01*
X7855357Y-11505357D01*
X7869643Y-11476786D01*
X7883928Y-11462500D01*
X7912500Y-11448214D01*
X8141071Y-11719643D02*
X8155357Y-11733929D01*
X8141071Y-11748214D01*
X8126786Y-11733929D01*
X8141071Y-11719643D01*
X8141071Y-11748214D01*
X8341071Y-11448214D02*
X8369643Y-11448214D01*
X8398214Y-11462500D01*
X8412500Y-11476786D01*
X8426786Y-11505357D01*
X8441071Y-11562500D01*
X8441071Y-11633929D01*
X8426786Y-11691072D01*
X8412500Y-11719643D01*
X8398214Y-11733929D01*
X8369643Y-11748214D01*
X8341071Y-11748214D01*
X8312500Y-11733929D01*
X8298214Y-11719643D01*
X8283928Y-11691072D01*
X8269643Y-11633929D01*
X8269643Y-11562500D01*
X8283928Y-11505357D01*
X8298214Y-11476786D01*
X8312500Y-11462500D01*
X8341071Y-11448214D01*
X8726786Y-11748214D02*
X8555357Y-11748214D01*
X8641071Y-11748214D02*
X8641071Y-11448214D01*
X8612500Y-11491072D01*
X8583928Y-11519643D01*
X8555357Y-11533929D01*
X8841071Y-11476786D02*
X8855357Y-11462500D01*
X8883928Y-11448214D01*
X8955357Y-11448214D01*
X8983928Y-11462500D01*
X8998214Y-11476786D01*
X9012500Y-11505357D01*
X9012500Y-11533929D01*
X8998214Y-11576786D01*
X8826786Y-11748214D01*
X9012500Y-11748214D01*
X9126786Y-11448214D02*
X9126786Y-11505357D01*
X9241071Y-11448214D02*
X9241071Y-11505357D01*
X9683928Y-11862500D02*
X9669643Y-11848214D01*
X9641071Y-11805357D01*
X9626786Y-11776786D01*
X9612500Y-11733929D01*
X9598214Y-11662500D01*
X9598214Y-11605357D01*
X9612500Y-11533929D01*
X9626786Y-11491072D01*
X9641071Y-11462500D01*
X9669643Y-11419643D01*
X9683928Y-11405357D01*
X9769643Y-11448214D02*
X9955357Y-11448214D01*
X9855357Y-11562500D01*
X9898214Y-11562500D01*
X9926786Y-11576786D01*
X9941071Y-11591072D01*
X9955357Y-11619643D01*
X9955357Y-11691072D01*
X9941071Y-11719643D01*
X9926786Y-11733929D01*
X9898214Y-11748214D01*
X9812500Y-11748214D01*
X9783928Y-11733929D01*
X9769643Y-11719643D01*
X10098214Y-11748214D02*
X10155357Y-11748214D01*
X10183928Y-11733929D01*
X10198214Y-11719643D01*
X10226786Y-11676786D01*
X10241071Y-11619643D01*
X10241071Y-11505357D01*
X10226786Y-11476786D01*
X10212500Y-11462500D01*
X10183928Y-11448214D01*
X10126786Y-11448214D01*
X10098214Y-11462500D01*
X10083928Y-11476786D01*
X10069643Y-11505357D01*
X10069643Y-11576786D01*
X10083928Y-11605357D01*
X10098214Y-11619643D01*
X10126786Y-11633929D01*
X10183928Y-11633929D01*
X10212500Y-11619643D01*
X10226786Y-11605357D01*
X10241071Y-11576786D01*
X10598214Y-11748214D02*
X10598214Y-11448214D01*
X10726786Y-11748214D02*
X10726786Y-11591072D01*
X10712500Y-11562500D01*
X10683928Y-11548214D01*
X10641071Y-11548214D01*
X10612500Y-11562500D01*
X10598214Y-11576786D01*
X10912500Y-11748214D02*
X10883928Y-11733929D01*
X10869643Y-11719643D01*
X10855357Y-11691072D01*
X10855357Y-11605357D01*
X10869643Y-11576786D01*
X10883928Y-11562500D01*
X10912500Y-11548214D01*
X10955357Y-11548214D01*
X10983928Y-11562500D01*
X10998214Y-11576786D01*
X11012500Y-11605357D01*
X11012500Y-11691072D01*
X10998214Y-11719643D01*
X10983928Y-11733929D01*
X10955357Y-11748214D01*
X10912500Y-11748214D01*
X11183928Y-11748214D02*
X11155357Y-11733929D01*
X11141071Y-11705357D01*
X11141071Y-11448214D01*
X11412500Y-11733929D02*
X11383928Y-11748214D01*
X11326786Y-11748214D01*
X11298214Y-11733929D01*
X11283928Y-11705357D01*
X11283928Y-11591072D01*
X11298214Y-11562500D01*
X11326786Y-11548214D01*
X11383928Y-11548214D01*
X11412500Y-11562500D01*
X11426786Y-11591072D01*
X11426786Y-11619643D01*
X11283928Y-11648214D01*
X11541071Y-11733929D02*
X11569643Y-11748214D01*
X11626786Y-11748214D01*
X11655357Y-11733929D01*
X11669643Y-11705357D01*
X11669643Y-11691072D01*
X11655357Y-11662500D01*
X11626786Y-11648214D01*
X11583928Y-11648214D01*
X11555357Y-11633929D01*
X11541071Y-11605357D01*
X11541071Y-11591072D01*
X11555357Y-11562500D01*
X11583928Y-11548214D01*
X11626786Y-11548214D01*
X11655357Y-11562500D01*
X11769643Y-11862500D02*
X11783928Y-11848214D01*
X11812500Y-11805357D01*
X11826786Y-11776786D01*
X11841071Y-11733929D01*
X11855357Y-11662500D01*
X11855357Y-11605357D01*
X11841071Y-11533929D01*
X11826786Y-11491072D01*
X11812500Y-11462500D01*
X11783928Y-11419643D01*
X11769643Y-11405357D01*
X4997500Y-12008500D02*
G75*
G03X4997500Y-12008500I-20000J0D01*
G01*
X5341071Y-11844214D02*
X5369643Y-11844214D01*
X5398214Y-11858500D01*
X5412500Y-11872786D01*
X5426786Y-11901357D01*
X5441071Y-11958500D01*
X5441071Y-12029929D01*
X5426786Y-12087072D01*
X5412500Y-12115643D01*
X5398214Y-12129929D01*
X5369643Y-12144214D01*
X5341071Y-12144214D01*
X5312500Y-12129929D01*
X5298214Y-12115643D01*
X5283928Y-12087072D01*
X5269643Y-12029929D01*
X5269643Y-11958500D01*
X5283928Y-11901357D01*
X5298214Y-11872786D01*
X5312500Y-11858500D01*
X5341071Y-11844214D01*
X5569643Y-12115643D02*
X5583928Y-12129929D01*
X5569643Y-12144214D01*
X5555357Y-12129929D01*
X5569643Y-12115643D01*
X5569643Y-12144214D01*
X5841071Y-11944214D02*
X5841071Y-12144214D01*
X5769643Y-11829929D02*
X5698214Y-12044214D01*
X5883928Y-12044214D01*
X6055357Y-11844214D02*
X6083928Y-11844214D01*
X6112500Y-11858500D01*
X6126786Y-11872786D01*
X6141071Y-11901357D01*
X6155357Y-11958500D01*
X6155357Y-12029929D01*
X6141071Y-12087072D01*
X6126786Y-12115643D01*
X6112500Y-12129929D01*
X6083928Y-12144214D01*
X6055357Y-12144214D01*
X6026786Y-12129929D01*
X6012500Y-12115643D01*
X5998214Y-12087072D01*
X5983928Y-12029929D01*
X5983928Y-11958500D01*
X5998214Y-11901357D01*
X6012500Y-11872786D01*
X6026786Y-11858500D01*
X6055357Y-11844214D01*
X6283928Y-12144214D02*
X6283928Y-11944214D01*
X6283928Y-11972786D02*
X6298214Y-11958500D01*
X6326786Y-11944214D01*
X6369643Y-11944214D01*
X6398214Y-11958500D01*
X6412500Y-11987072D01*
X6412500Y-12144214D01*
X6412500Y-11987072D02*
X6426786Y-11958500D01*
X6455357Y-11944214D01*
X6498214Y-11944214D01*
X6526786Y-11958500D01*
X6541071Y-11987072D01*
X6541071Y-12144214D01*
X6683928Y-12144214D02*
X6683928Y-11944214D01*
X6683928Y-11972786D02*
X6698214Y-11958500D01*
X6726786Y-11944214D01*
X6769643Y-11944214D01*
X6798214Y-11958500D01*
X6812500Y-11987072D01*
X6812500Y-12144214D01*
X6812500Y-11987072D02*
X6826786Y-11958500D01*
X6855357Y-11944214D01*
X6898214Y-11944214D01*
X6926786Y-11958500D01*
X6941071Y-11987072D01*
X6941071Y-12144214D01*
X7526786Y-11829929D02*
X7269643Y-12215643D01*
X7912500Y-11844214D02*
X7941071Y-11844214D01*
X7969643Y-11858500D01*
X7983928Y-11872786D01*
X7998214Y-11901357D01*
X8012500Y-11958500D01*
X8012500Y-12029929D01*
X7998214Y-12087072D01*
X7983928Y-12115643D01*
X7969643Y-12129929D01*
X7941071Y-12144214D01*
X7912500Y-12144214D01*
X7883928Y-12129929D01*
X7869643Y-12115643D01*
X7855357Y-12087072D01*
X7841071Y-12029929D01*
X7841071Y-11958500D01*
X7855357Y-11901357D01*
X7869643Y-11872786D01*
X7883928Y-11858500D01*
X7912500Y-11844214D01*
X8141071Y-12115643D02*
X8155357Y-12129929D01*
X8141071Y-12144214D01*
X8126786Y-12129929D01*
X8141071Y-12115643D01*
X8141071Y-12144214D01*
X8341071Y-11844214D02*
X8369643Y-11844214D01*
X8398214Y-11858500D01*
X8412500Y-11872786D01*
X8426786Y-11901357D01*
X8441071Y-11958500D01*
X8441071Y-12029929D01*
X8426786Y-12087072D01*
X8412500Y-12115643D01*
X8398214Y-12129929D01*
X8369643Y-12144214D01*
X8341071Y-12144214D01*
X8312500Y-12129929D01*
X8298214Y-12115643D01*
X8283928Y-12087072D01*
X8269643Y-12029929D01*
X8269643Y-11958500D01*
X8283928Y-11901357D01*
X8298214Y-11872786D01*
X8312500Y-11858500D01*
X8341071Y-11844214D01*
X8726786Y-12144214D02*
X8555357Y-12144214D01*
X8641071Y-12144214D02*
X8641071Y-11844214D01*
X8612500Y-11887072D01*
X8583928Y-11915643D01*
X8555357Y-11929929D01*
X8983928Y-11844214D02*
X8926786Y-11844214D01*
X8898214Y-11858500D01*
X8883928Y-11872786D01*
X8855357Y-11915643D01*
X8841071Y-11972786D01*
X8841071Y-12087072D01*
X8855357Y-12115643D01*
X8869643Y-12129929D01*
X8898214Y-12144214D01*
X8955357Y-12144214D01*
X8983928Y-12129929D01*
X8998214Y-12115643D01*
X9012500Y-12087072D01*
X9012500Y-12015643D01*
X8998214Y-11987072D01*
X8983928Y-11972786D01*
X8955357Y-11958500D01*
X8898214Y-11958500D01*
X8869643Y-11972786D01*
X8855357Y-11987072D01*
X8841071Y-12015643D01*
X9126786Y-11844214D02*
X9126786Y-11901357D01*
X9241071Y-11844214D02*
X9241071Y-11901357D01*
X9683928Y-12258500D02*
X9669643Y-12244214D01*
X9641071Y-12201357D01*
X9626786Y-12172786D01*
X9612500Y-12129929D01*
X9598214Y-12058500D01*
X9598214Y-12001357D01*
X9612500Y-11929929D01*
X9626786Y-11887072D01*
X9641071Y-11858500D01*
X9669643Y-11815643D01*
X9683928Y-11801357D01*
X9926786Y-11844214D02*
X9869643Y-11844214D01*
X9841071Y-11858500D01*
X9826786Y-11872786D01*
X9798214Y-11915643D01*
X9783928Y-11972786D01*
X9783928Y-12087072D01*
X9798214Y-12115643D01*
X9812500Y-12129929D01*
X9841071Y-12144214D01*
X9898214Y-12144214D01*
X9926786Y-12129929D01*
X9941071Y-12115643D01*
X9955357Y-12087072D01*
X9955357Y-12015643D01*
X9941071Y-11987072D01*
X9926786Y-11972786D01*
X9898214Y-11958500D01*
X9841071Y-11958500D01*
X9812500Y-11972786D01*
X9798214Y-11987072D01*
X9783928Y-12015643D01*
X10312500Y-12144214D02*
X10312500Y-11844214D01*
X10441071Y-12144214D02*
X10441071Y-11987072D01*
X10426786Y-11958500D01*
X10398214Y-11944214D01*
X10355357Y-11944214D01*
X10326786Y-11958500D01*
X10312500Y-11972786D01*
X10626786Y-12144214D02*
X10598214Y-12129929D01*
X10583928Y-12115643D01*
X10569643Y-12087072D01*
X10569643Y-12001357D01*
X10583928Y-11972786D01*
X10598214Y-11958500D01*
X10626786Y-11944214D01*
X10669643Y-11944214D01*
X10698214Y-11958500D01*
X10712500Y-11972786D01*
X10726786Y-12001357D01*
X10726786Y-12087072D01*
X10712500Y-12115643D01*
X10698214Y-12129929D01*
X10669643Y-12144214D01*
X10626786Y-12144214D01*
X10898214Y-12144214D02*
X10869643Y-12129929D01*
X10855357Y-12101357D01*
X10855357Y-11844214D01*
X11126786Y-12129929D02*
X11098214Y-12144214D01*
X11041071Y-12144214D01*
X11012500Y-12129929D01*
X10998214Y-12101357D01*
X10998214Y-11987072D01*
X11012500Y-11958500D01*
X11041071Y-11944214D01*
X11098214Y-11944214D01*
X11126786Y-11958500D01*
X11141071Y-11987072D01*
X11141071Y-12015643D01*
X10998214Y-12044214D01*
X11255357Y-12129929D02*
X11283928Y-12144214D01*
X11341071Y-12144214D01*
X11369643Y-12129929D01*
X11383928Y-12101357D01*
X11383928Y-12087072D01*
X11369643Y-12058500D01*
X11341071Y-12044214D01*
X11298214Y-12044214D01*
X11269643Y-12029929D01*
X11255357Y-12001357D01*
X11255357Y-11987072D01*
X11269643Y-11958500D01*
X11298214Y-11944214D01*
X11341071Y-11944214D01*
X11369643Y-11958500D01*
X11483928Y-12258500D02*
X11498214Y-12244214D01*
X11526786Y-12201357D01*
X11541071Y-12172786D01*
X11555357Y-12129929D01*
X11569643Y-12058500D01*
X11569643Y-12001357D01*
X11555357Y-11929929D01*
X11541071Y-11887072D01*
X11526786Y-11858500D01*
X11498214Y-11815643D01*
X11483928Y-11801357D01*
X4972500Y-12379500D02*
X4972500Y-12429500D01*
X4947500Y-12404500D02*
X4997500Y-12404500D01*
X5341071Y-12240214D02*
X5369643Y-12240214D01*
X5398214Y-12254500D01*
X5412500Y-12268786D01*
X5426786Y-12297357D01*
X5441071Y-12354500D01*
X5441071Y-12425929D01*
X5426786Y-12483072D01*
X5412500Y-12511643D01*
X5398214Y-12525929D01*
X5369643Y-12540214D01*
X5341071Y-12540214D01*
X5312500Y-12525929D01*
X5298214Y-12511643D01*
X5283928Y-12483072D01*
X5269643Y-12425929D01*
X5269643Y-12354500D01*
X5283928Y-12297357D01*
X5298214Y-12268786D01*
X5312500Y-12254500D01*
X5341071Y-12240214D01*
X5569643Y-12511643D02*
X5583928Y-12525929D01*
X5569643Y-12540214D01*
X5555357Y-12525929D01*
X5569643Y-12511643D01*
X5569643Y-12540214D01*
X5855357Y-12240214D02*
X5712500Y-12240214D01*
X5698214Y-12383072D01*
X5712500Y-12368786D01*
X5741071Y-12354500D01*
X5812500Y-12354500D01*
X5841071Y-12368786D01*
X5855357Y-12383072D01*
X5869643Y-12411643D01*
X5869643Y-12483072D01*
X5855357Y-12511643D01*
X5841071Y-12525929D01*
X5812500Y-12540214D01*
X5741071Y-12540214D01*
X5712500Y-12525929D01*
X5698214Y-12511643D01*
X6055357Y-12240214D02*
X6083928Y-12240214D01*
X6112500Y-12254500D01*
X6126786Y-12268786D01*
X6141071Y-12297357D01*
X6155357Y-12354500D01*
X6155357Y-12425929D01*
X6141071Y-12483072D01*
X6126786Y-12511643D01*
X6112500Y-12525929D01*
X6083928Y-12540214D01*
X6055357Y-12540214D01*
X6026786Y-12525929D01*
X6012500Y-12511643D01*
X5998214Y-12483072D01*
X5983928Y-12425929D01*
X5983928Y-12354500D01*
X5998214Y-12297357D01*
X6012500Y-12268786D01*
X6026786Y-12254500D01*
X6055357Y-12240214D01*
X6283928Y-12540214D02*
X6283928Y-12340214D01*
X6283928Y-12368786D02*
X6298214Y-12354500D01*
X6326786Y-12340214D01*
X6369643Y-12340214D01*
X6398214Y-12354500D01*
X6412500Y-12383072D01*
X6412500Y-12540214D01*
X6412500Y-12383072D02*
X6426786Y-12354500D01*
X6455357Y-12340214D01*
X6498214Y-12340214D01*
X6526786Y-12354500D01*
X6541071Y-12383072D01*
X6541071Y-12540214D01*
X6683928Y-12540214D02*
X6683928Y-12340214D01*
X6683928Y-12368786D02*
X6698214Y-12354500D01*
X6726786Y-12340214D01*
X6769643Y-12340214D01*
X6798214Y-12354500D01*
X6812500Y-12383072D01*
X6812500Y-12540214D01*
X6812500Y-12383072D02*
X6826786Y-12354500D01*
X6855357Y-12340214D01*
X6898214Y-12340214D01*
X6926786Y-12354500D01*
X6941071Y-12383072D01*
X6941071Y-12540214D01*
X7526786Y-12225929D02*
X7269643Y-12611643D01*
X7912500Y-12240214D02*
X7941071Y-12240214D01*
X7969643Y-12254500D01*
X7983928Y-12268786D01*
X7998214Y-12297357D01*
X8012500Y-12354500D01*
X8012500Y-12425929D01*
X7998214Y-12483072D01*
X7983928Y-12511643D01*
X7969643Y-12525929D01*
X7941071Y-12540214D01*
X7912500Y-12540214D01*
X7883928Y-12525929D01*
X7869643Y-12511643D01*
X7855357Y-12483072D01*
X7841071Y-12425929D01*
X7841071Y-12354500D01*
X7855357Y-12297357D01*
X7869643Y-12268786D01*
X7883928Y-12254500D01*
X7912500Y-12240214D01*
X8141071Y-12511643D02*
X8155357Y-12525929D01*
X8141071Y-12540214D01*
X8126786Y-12525929D01*
X8141071Y-12511643D01*
X8141071Y-12540214D01*
X8341071Y-12240214D02*
X8369643Y-12240214D01*
X8398214Y-12254500D01*
X8412500Y-12268786D01*
X8426786Y-12297357D01*
X8441071Y-12354500D01*
X8441071Y-12425929D01*
X8426786Y-12483072D01*
X8412500Y-12511643D01*
X8398214Y-12525929D01*
X8369643Y-12540214D01*
X8341071Y-12540214D01*
X8312500Y-12525929D01*
X8298214Y-12511643D01*
X8283928Y-12483072D01*
X8269643Y-12425929D01*
X8269643Y-12354500D01*
X8283928Y-12297357D01*
X8298214Y-12268786D01*
X8312500Y-12254500D01*
X8341071Y-12240214D01*
X8555357Y-12268786D02*
X8569643Y-12254500D01*
X8598214Y-12240214D01*
X8669643Y-12240214D01*
X8698214Y-12254500D01*
X8712500Y-12268786D01*
X8726786Y-12297357D01*
X8726786Y-12325929D01*
X8712500Y-12368786D01*
X8541071Y-12540214D01*
X8726786Y-12540214D01*
X8912500Y-12240214D02*
X8941071Y-12240214D01*
X8969643Y-12254500D01*
X8983928Y-12268786D01*
X8998214Y-12297357D01*
X9012500Y-12354500D01*
X9012500Y-12425929D01*
X8998214Y-12483072D01*
X8983928Y-12511643D01*
X8969643Y-12525929D01*
X8941071Y-12540214D01*
X8912500Y-12540214D01*
X8883928Y-12525929D01*
X8869643Y-12511643D01*
X8855357Y-12483072D01*
X8841071Y-12425929D01*
X8841071Y-12354500D01*
X8855357Y-12297357D01*
X8869643Y-12268786D01*
X8883928Y-12254500D01*
X8912500Y-12240214D01*
X9126786Y-12240214D02*
X9126786Y-12297357D01*
X9241071Y-12240214D02*
X9241071Y-12297357D01*
X9683928Y-12654500D02*
X9669643Y-12640214D01*
X9641071Y-12597357D01*
X9626786Y-12568786D01*
X9612500Y-12525929D01*
X9598214Y-12454500D01*
X9598214Y-12397357D01*
X9612500Y-12325929D01*
X9626786Y-12283072D01*
X9641071Y-12254500D01*
X9669643Y-12211643D01*
X9683928Y-12197357D01*
X9769643Y-12240214D02*
X9969643Y-12240214D01*
X9841071Y-12540214D01*
X10312500Y-12540214D02*
X10312500Y-12240214D01*
X10441071Y-12540214D02*
X10441071Y-12383072D01*
X10426786Y-12354500D01*
X10398214Y-12340214D01*
X10355357Y-12340214D01*
X10326786Y-12354500D01*
X10312500Y-12368786D01*
X10626786Y-12540214D02*
X10598214Y-12525929D01*
X10583928Y-12511643D01*
X10569643Y-12483072D01*
X10569643Y-12397357D01*
X10583928Y-12368786D01*
X10598214Y-12354500D01*
X10626786Y-12340214D01*
X10669643Y-12340214D01*
X10698214Y-12354500D01*
X10712500Y-12368786D01*
X10726786Y-12397357D01*
X10726786Y-12483072D01*
X10712500Y-12511643D01*
X10698214Y-12525929D01*
X10669643Y-12540214D01*
X10626786Y-12540214D01*
X10898214Y-12540214D02*
X10869643Y-12525929D01*
X10855357Y-12497357D01*
X10855357Y-12240214D01*
X11126786Y-12525929D02*
X11098214Y-12540214D01*
X11041071Y-12540214D01*
X11012500Y-12525929D01*
X10998214Y-12497357D01*
X10998214Y-12383072D01*
X11012500Y-12354500D01*
X11041071Y-12340214D01*
X11098214Y-12340214D01*
X11126786Y-12354500D01*
X11141071Y-12383072D01*
X11141071Y-12411643D01*
X10998214Y-12440214D01*
X11255357Y-12525929D02*
X11283928Y-12540214D01*
X11341071Y-12540214D01*
X11369643Y-12525929D01*
X11383928Y-12497357D01*
X11383928Y-12483072D01*
X11369643Y-12454500D01*
X11341071Y-12440214D01*
X11298214Y-12440214D01*
X11269643Y-12425929D01*
X11255357Y-12397357D01*
X11255357Y-12383072D01*
X11269643Y-12354500D01*
X11298214Y-12340214D01*
X11341071Y-12340214D01*
X11369643Y-12354500D01*
X11483928Y-12654500D02*
X11498214Y-12640214D01*
X11526786Y-12597357D01*
X11541071Y-12568786D01*
X11555357Y-12525929D01*
X11569643Y-12454500D01*
X11569643Y-12397357D01*
X11555357Y-12325929D01*
X11541071Y-12283072D01*
X11526786Y-12254500D01*
X11498214Y-12211643D01*
X11483928Y-12197357D01*
X4987981Y-12823481D02*
X4987981Y-12777519D01*
X4942019Y-12777519D01*
X4942019Y-12823481D01*
X4987981Y-12823481D01*
X5341071Y-12636214D02*
X5369643Y-12636214D01*
X5398214Y-12650500D01*
X5412500Y-12664786D01*
X5426786Y-12693357D01*
X5441071Y-12750500D01*
X5441071Y-12821929D01*
X5426786Y-12879072D01*
X5412500Y-12907643D01*
X5398214Y-12921929D01*
X5369643Y-12936214D01*
X5341071Y-12936214D01*
X5312500Y-12921929D01*
X5298214Y-12907643D01*
X5283928Y-12879072D01*
X5269643Y-12821929D01*
X5269643Y-12750500D01*
X5283928Y-12693357D01*
X5298214Y-12664786D01*
X5312500Y-12650500D01*
X5341071Y-12636214D01*
X5569643Y-12907643D02*
X5583928Y-12921929D01*
X5569643Y-12936214D01*
X5555357Y-12921929D01*
X5569643Y-12907643D01*
X5569643Y-12936214D01*
X5841071Y-12636214D02*
X5783928Y-12636214D01*
X5755357Y-12650500D01*
X5741071Y-12664786D01*
X5712500Y-12707643D01*
X5698214Y-12764786D01*
X5698214Y-12879072D01*
X5712500Y-12907643D01*
X5726786Y-12921929D01*
X5755357Y-12936214D01*
X5812500Y-12936214D01*
X5841071Y-12921929D01*
X5855357Y-12907643D01*
X5869643Y-12879072D01*
X5869643Y-12807643D01*
X5855357Y-12779072D01*
X5841071Y-12764786D01*
X5812500Y-12750500D01*
X5755357Y-12750500D01*
X5726786Y-12764786D01*
X5712500Y-12779072D01*
X5698214Y-12807643D01*
X6141071Y-12636214D02*
X5998214Y-12636214D01*
X5983928Y-12779072D01*
X5998214Y-12764786D01*
X6026786Y-12750500D01*
X6098214Y-12750500D01*
X6126786Y-12764786D01*
X6141071Y-12779072D01*
X6155357Y-12807643D01*
X6155357Y-12879072D01*
X6141071Y-12907643D01*
X6126786Y-12921929D01*
X6098214Y-12936214D01*
X6026786Y-12936214D01*
X5998214Y-12921929D01*
X5983928Y-12907643D01*
X6283928Y-12936214D02*
X6283928Y-12736214D01*
X6283928Y-12764786D02*
X6298214Y-12750500D01*
X6326786Y-12736214D01*
X6369643Y-12736214D01*
X6398214Y-12750500D01*
X6412500Y-12779072D01*
X6412500Y-12936214D01*
X6412500Y-12779072D02*
X6426786Y-12750500D01*
X6455357Y-12736214D01*
X6498214Y-12736214D01*
X6526786Y-12750500D01*
X6541071Y-12779072D01*
X6541071Y-12936214D01*
X6683928Y-12936214D02*
X6683928Y-12736214D01*
X6683928Y-12764786D02*
X6698214Y-12750500D01*
X6726786Y-12736214D01*
X6769643Y-12736214D01*
X6798214Y-12750500D01*
X6812500Y-12779072D01*
X6812500Y-12936214D01*
X6812500Y-12779072D02*
X6826786Y-12750500D01*
X6855357Y-12736214D01*
X6898214Y-12736214D01*
X6926786Y-12750500D01*
X6941071Y-12779072D01*
X6941071Y-12936214D01*
X7526786Y-12621929D02*
X7269643Y-13007643D01*
X7912500Y-12636214D02*
X7941071Y-12636214D01*
X7969643Y-12650500D01*
X7983928Y-12664786D01*
X7998214Y-12693357D01*
X8012500Y-12750500D01*
X8012500Y-12821929D01*
X7998214Y-12879072D01*
X7983928Y-12907643D01*
X7969643Y-12921929D01*
X7941071Y-12936214D01*
X7912500Y-12936214D01*
X7883928Y-12921929D01*
X7869643Y-12907643D01*
X7855357Y-12879072D01*
X7841071Y-12821929D01*
X7841071Y-12750500D01*
X7855357Y-12693357D01*
X7869643Y-12664786D01*
X7883928Y-12650500D01*
X7912500Y-12636214D01*
X8141071Y-12907643D02*
X8155357Y-12921929D01*
X8141071Y-12936214D01*
X8126786Y-12921929D01*
X8141071Y-12907643D01*
X8141071Y-12936214D01*
X8341071Y-12636214D02*
X8369643Y-12636214D01*
X8398214Y-12650500D01*
X8412500Y-12664786D01*
X8426786Y-12693357D01*
X8441071Y-12750500D01*
X8441071Y-12821929D01*
X8426786Y-12879072D01*
X8412500Y-12907643D01*
X8398214Y-12921929D01*
X8369643Y-12936214D01*
X8341071Y-12936214D01*
X8312500Y-12921929D01*
X8298214Y-12907643D01*
X8283928Y-12879072D01*
X8269643Y-12821929D01*
X8269643Y-12750500D01*
X8283928Y-12693357D01*
X8298214Y-12664786D01*
X8312500Y-12650500D01*
X8341071Y-12636214D01*
X8555357Y-12664786D02*
X8569643Y-12650500D01*
X8598214Y-12636214D01*
X8669643Y-12636214D01*
X8698214Y-12650500D01*
X8712500Y-12664786D01*
X8726786Y-12693357D01*
X8726786Y-12721929D01*
X8712500Y-12764786D01*
X8541071Y-12936214D01*
X8726786Y-12936214D01*
X8983928Y-12636214D02*
X8926786Y-12636214D01*
X8898214Y-12650500D01*
X8883928Y-12664786D01*
X8855357Y-12707643D01*
X8841071Y-12764786D01*
X8841071Y-12879072D01*
X8855357Y-12907643D01*
X8869643Y-12921929D01*
X8898214Y-12936214D01*
X8955357Y-12936214D01*
X8983928Y-12921929D01*
X8998214Y-12907643D01*
X9012500Y-12879072D01*
X9012500Y-12807643D01*
X8998214Y-12779072D01*
X8983928Y-12764786D01*
X8955357Y-12750500D01*
X8898214Y-12750500D01*
X8869643Y-12764786D01*
X8855357Y-12779072D01*
X8841071Y-12807643D01*
X9126786Y-12636214D02*
X9126786Y-12693357D01*
X9241071Y-12636214D02*
X9241071Y-12693357D01*
X9683928Y-13050500D02*
X9669643Y-13036214D01*
X9641071Y-12993357D01*
X9626786Y-12964786D01*
X9612500Y-12921929D01*
X9598214Y-12850500D01*
X9598214Y-12793357D01*
X9612500Y-12721929D01*
X9626786Y-12679072D01*
X9641071Y-12650500D01*
X9669643Y-12607643D01*
X9683928Y-12593357D01*
X9926786Y-12736214D02*
X9926786Y-12936214D01*
X9855357Y-12621929D02*
X9783928Y-12836214D01*
X9969643Y-12836214D01*
X10312500Y-12936214D02*
X10312500Y-12636214D01*
X10441071Y-12936214D02*
X10441071Y-12779072D01*
X10426786Y-12750500D01*
X10398214Y-12736214D01*
X10355357Y-12736214D01*
X10326786Y-12750500D01*
X10312500Y-12764786D01*
X10626786Y-12936214D02*
X10598214Y-12921929D01*
X10583928Y-12907643D01*
X10569643Y-12879072D01*
X10569643Y-12793357D01*
X10583928Y-12764786D01*
X10598214Y-12750500D01*
X10626786Y-12736214D01*
X10669643Y-12736214D01*
X10698214Y-12750500D01*
X10712500Y-12764786D01*
X10726786Y-12793357D01*
X10726786Y-12879072D01*
X10712500Y-12907643D01*
X10698214Y-12921929D01*
X10669643Y-12936214D01*
X10626786Y-12936214D01*
X10898214Y-12936214D02*
X10869643Y-12921929D01*
X10855357Y-12893357D01*
X10855357Y-12636214D01*
X11126786Y-12921929D02*
X11098214Y-12936214D01*
X11041071Y-12936214D01*
X11012500Y-12921929D01*
X10998214Y-12893357D01*
X10998214Y-12779072D01*
X11012500Y-12750500D01*
X11041071Y-12736214D01*
X11098214Y-12736214D01*
X11126786Y-12750500D01*
X11141071Y-12779072D01*
X11141071Y-12807643D01*
X10998214Y-12836214D01*
X11255357Y-12921929D02*
X11283928Y-12936214D01*
X11341071Y-12936214D01*
X11369643Y-12921929D01*
X11383928Y-12893357D01*
X11383928Y-12879072D01*
X11369643Y-12850500D01*
X11341071Y-12836214D01*
X11298214Y-12836214D01*
X11269643Y-12821929D01*
X11255357Y-12793357D01*
X11255357Y-12779072D01*
X11269643Y-12750500D01*
X11298214Y-12736214D01*
X11341071Y-12736214D01*
X11369643Y-12750500D01*
X11483928Y-13050500D02*
X11498214Y-13036214D01*
X11526786Y-12993357D01*
X11541071Y-12964786D01*
X11555357Y-12921929D01*
X11569643Y-12850500D01*
X11569643Y-12793357D01*
X11555357Y-12721929D01*
X11541071Y-12679072D01*
X11526786Y-12650500D01*
X11498214Y-12607643D01*
X11483928Y-12593357D01*
X4957500Y-13236500D02*
X4997500Y-13196500D01*
X4957500Y-13156500D01*
X4917500Y-13196500D01*
X4957500Y-13236500D01*
X5341071Y-13032214D02*
X5369643Y-13032214D01*
X5398214Y-13046500D01*
X5412500Y-13060786D01*
X5426786Y-13089357D01*
X5441071Y-13146500D01*
X5441071Y-13217929D01*
X5426786Y-13275072D01*
X5412500Y-13303643D01*
X5398214Y-13317929D01*
X5369643Y-13332214D01*
X5341071Y-13332214D01*
X5312500Y-13317929D01*
X5298214Y-13303643D01*
X5283928Y-13275072D01*
X5269643Y-13217929D01*
X5269643Y-13146500D01*
X5283928Y-13089357D01*
X5298214Y-13060786D01*
X5312500Y-13046500D01*
X5341071Y-13032214D01*
X5569643Y-13303643D02*
X5583928Y-13317929D01*
X5569643Y-13332214D01*
X5555357Y-13317929D01*
X5569643Y-13303643D01*
X5569643Y-13332214D01*
X5755357Y-13160786D02*
X5726786Y-13146500D01*
X5712500Y-13132214D01*
X5698214Y-13103643D01*
X5698214Y-13089357D01*
X5712500Y-13060786D01*
X5726786Y-13046500D01*
X5755357Y-13032214D01*
X5812500Y-13032214D01*
X5841071Y-13046500D01*
X5855357Y-13060786D01*
X5869643Y-13089357D01*
X5869643Y-13103643D01*
X5855357Y-13132214D01*
X5841071Y-13146500D01*
X5812500Y-13160786D01*
X5755357Y-13160786D01*
X5726786Y-13175072D01*
X5712500Y-13189357D01*
X5698214Y-13217929D01*
X5698214Y-13275072D01*
X5712500Y-13303643D01*
X5726786Y-13317929D01*
X5755357Y-13332214D01*
X5812500Y-13332214D01*
X5841071Y-13317929D01*
X5855357Y-13303643D01*
X5869643Y-13275072D01*
X5869643Y-13217929D01*
X5855357Y-13189357D01*
X5841071Y-13175072D01*
X5812500Y-13160786D01*
X6055357Y-13032214D02*
X6083928Y-13032214D01*
X6112500Y-13046500D01*
X6126786Y-13060786D01*
X6141071Y-13089357D01*
X6155357Y-13146500D01*
X6155357Y-13217929D01*
X6141071Y-13275072D01*
X6126786Y-13303643D01*
X6112500Y-13317929D01*
X6083928Y-13332214D01*
X6055357Y-13332214D01*
X6026786Y-13317929D01*
X6012500Y-13303643D01*
X5998214Y-13275072D01*
X5983928Y-13217929D01*
X5983928Y-13146500D01*
X5998214Y-13089357D01*
X6012500Y-13060786D01*
X6026786Y-13046500D01*
X6055357Y-13032214D01*
X6283928Y-13332214D02*
X6283928Y-13132214D01*
X6283928Y-13160786D02*
X6298214Y-13146500D01*
X6326786Y-13132214D01*
X6369643Y-13132214D01*
X6398214Y-13146500D01*
X6412500Y-13175072D01*
X6412500Y-13332214D01*
X6412500Y-13175072D02*
X6426786Y-13146500D01*
X6455357Y-13132214D01*
X6498214Y-13132214D01*
X6526786Y-13146500D01*
X6541071Y-13175072D01*
X6541071Y-13332214D01*
X6683928Y-13332214D02*
X6683928Y-13132214D01*
X6683928Y-13160786D02*
X6698214Y-13146500D01*
X6726786Y-13132214D01*
X6769643Y-13132214D01*
X6798214Y-13146500D01*
X6812500Y-13175072D01*
X6812500Y-13332214D01*
X6812500Y-13175072D02*
X6826786Y-13146500D01*
X6855357Y-13132214D01*
X6898214Y-13132214D01*
X6926786Y-13146500D01*
X6941071Y-13175072D01*
X6941071Y-13332214D01*
X7526786Y-13017929D02*
X7269643Y-13403643D01*
X7912500Y-13032214D02*
X7941071Y-13032214D01*
X7969643Y-13046500D01*
X7983928Y-13060786D01*
X7998214Y-13089357D01*
X8012500Y-13146500D01*
X8012500Y-13217929D01*
X7998214Y-13275072D01*
X7983928Y-13303643D01*
X7969643Y-13317929D01*
X7941071Y-13332214D01*
X7912500Y-13332214D01*
X7883928Y-13317929D01*
X7869643Y-13303643D01*
X7855357Y-13275072D01*
X7841071Y-13217929D01*
X7841071Y-13146500D01*
X7855357Y-13089357D01*
X7869643Y-13060786D01*
X7883928Y-13046500D01*
X7912500Y-13032214D01*
X8141071Y-13303643D02*
X8155357Y-13317929D01*
X8141071Y-13332214D01*
X8126786Y-13317929D01*
X8141071Y-13303643D01*
X8141071Y-13332214D01*
X8341071Y-13032214D02*
X8369643Y-13032214D01*
X8398214Y-13046500D01*
X8412500Y-13060786D01*
X8426786Y-13089357D01*
X8441071Y-13146500D01*
X8441071Y-13217929D01*
X8426786Y-13275072D01*
X8412500Y-13303643D01*
X8398214Y-13317929D01*
X8369643Y-13332214D01*
X8341071Y-13332214D01*
X8312500Y-13317929D01*
X8298214Y-13303643D01*
X8283928Y-13275072D01*
X8269643Y-13217929D01*
X8269643Y-13146500D01*
X8283928Y-13089357D01*
X8298214Y-13060786D01*
X8312500Y-13046500D01*
X8341071Y-13032214D01*
X8541071Y-13032214D02*
X8726786Y-13032214D01*
X8626786Y-13146500D01*
X8669643Y-13146500D01*
X8698214Y-13160786D01*
X8712500Y-13175072D01*
X8726786Y-13203643D01*
X8726786Y-13275072D01*
X8712500Y-13303643D01*
X8698214Y-13317929D01*
X8669643Y-13332214D01*
X8583928Y-13332214D01*
X8555357Y-13317929D01*
X8541071Y-13303643D01*
X9012500Y-13332214D02*
X8841071Y-13332214D01*
X8926786Y-13332214D02*
X8926786Y-13032214D01*
X8898214Y-13075072D01*
X8869643Y-13103643D01*
X8841071Y-13117929D01*
X9126786Y-13032214D02*
X9126786Y-13089357D01*
X9241071Y-13032214D02*
X9241071Y-13089357D01*
X9683928Y-13446500D02*
X9669643Y-13432214D01*
X9641071Y-13389357D01*
X9626786Y-13360786D01*
X9612500Y-13317929D01*
X9598214Y-13246500D01*
X9598214Y-13189357D01*
X9612500Y-13117929D01*
X9626786Y-13075072D01*
X9641071Y-13046500D01*
X9669643Y-13003643D01*
X9683928Y-12989357D01*
X9955357Y-13332214D02*
X9783928Y-13332214D01*
X9869643Y-13332214D02*
X9869643Y-13032214D01*
X9841071Y-13075072D01*
X9812500Y-13103643D01*
X9783928Y-13117929D01*
X10055357Y-13032214D02*
X10255357Y-13032214D01*
X10126786Y-13332214D01*
X10598214Y-13332214D02*
X10598214Y-13032214D01*
X10726786Y-13332214D02*
X10726786Y-13175072D01*
X10712500Y-13146500D01*
X10683928Y-13132214D01*
X10641071Y-13132214D01*
X10612500Y-13146500D01*
X10598214Y-13160786D01*
X10912500Y-13332214D02*
X10883928Y-13317929D01*
X10869643Y-13303643D01*
X10855357Y-13275072D01*
X10855357Y-13189357D01*
X10869643Y-13160786D01*
X10883928Y-13146500D01*
X10912500Y-13132214D01*
X10955357Y-13132214D01*
X10983928Y-13146500D01*
X10998214Y-13160786D01*
X11012500Y-13189357D01*
X11012500Y-13275072D01*
X10998214Y-13303643D01*
X10983928Y-13317929D01*
X10955357Y-13332214D01*
X10912500Y-13332214D01*
X11183928Y-13332214D02*
X11155357Y-13317929D01*
X11141071Y-13289357D01*
X11141071Y-13032214D01*
X11412500Y-13317929D02*
X11383928Y-13332214D01*
X11326786Y-13332214D01*
X11298214Y-13317929D01*
X11283928Y-13289357D01*
X11283928Y-13175072D01*
X11298214Y-13146500D01*
X11326786Y-13132214D01*
X11383928Y-13132214D01*
X11412500Y-13146500D01*
X11426786Y-13175072D01*
X11426786Y-13203643D01*
X11283928Y-13232214D01*
X11541071Y-13317929D02*
X11569643Y-13332214D01*
X11626786Y-13332214D01*
X11655357Y-13317929D01*
X11669643Y-13289357D01*
X11669643Y-13275072D01*
X11655357Y-13246500D01*
X11626786Y-13232214D01*
X11583928Y-13232214D01*
X11555357Y-13217929D01*
X11541071Y-13189357D01*
X11541071Y-13175072D01*
X11555357Y-13146500D01*
X11583928Y-13132214D01*
X11626786Y-13132214D01*
X11655357Y-13146500D01*
X11769643Y-13446500D02*
X11783928Y-13432214D01*
X11812500Y-13389357D01*
X11826786Y-13360786D01*
X11841071Y-13317929D01*
X11855357Y-13246500D01*
X11855357Y-13189357D01*
X11841071Y-13117929D01*
X11826786Y-13075072D01*
X11812500Y-13046500D01*
X11783928Y-13003643D01*
X11769643Y-12989357D01*
X4907500Y-13547500D02*
X4997500Y-13637500D01*
X4997500Y-13547500D02*
X4907500Y-13637500D01*
X4997500Y-13592500D02*
G75*
G03X4997500Y-13592500I-45000J0D01*
G01*
X5341071Y-13428214D02*
X5369643Y-13428214D01*
X5398214Y-13442500D01*
X5412500Y-13456786D01*
X5426786Y-13485357D01*
X5441071Y-13542500D01*
X5441071Y-13613929D01*
X5426786Y-13671072D01*
X5412500Y-13699643D01*
X5398214Y-13713929D01*
X5369643Y-13728214D01*
X5341071Y-13728214D01*
X5312500Y-13713929D01*
X5298214Y-13699643D01*
X5283928Y-13671072D01*
X5269643Y-13613929D01*
X5269643Y-13542500D01*
X5283928Y-13485357D01*
X5298214Y-13456786D01*
X5312500Y-13442500D01*
X5341071Y-13428214D01*
X5569643Y-13699643D02*
X5583928Y-13713929D01*
X5569643Y-13728214D01*
X5555357Y-13713929D01*
X5569643Y-13699643D01*
X5569643Y-13728214D01*
X5726786Y-13728214D02*
X5783928Y-13728214D01*
X5812500Y-13713929D01*
X5826786Y-13699643D01*
X5855357Y-13656786D01*
X5869643Y-13599643D01*
X5869643Y-13485357D01*
X5855357Y-13456786D01*
X5841071Y-13442500D01*
X5812500Y-13428214D01*
X5755357Y-13428214D01*
X5726786Y-13442500D01*
X5712500Y-13456786D01*
X5698214Y-13485357D01*
X5698214Y-13556786D01*
X5712500Y-13585357D01*
X5726786Y-13599643D01*
X5755357Y-13613929D01*
X5812500Y-13613929D01*
X5841071Y-13599643D01*
X5855357Y-13585357D01*
X5869643Y-13556786D01*
X6055357Y-13428214D02*
X6083928Y-13428214D01*
X6112500Y-13442500D01*
X6126786Y-13456786D01*
X6141071Y-13485357D01*
X6155357Y-13542500D01*
X6155357Y-13613929D01*
X6141071Y-13671072D01*
X6126786Y-13699643D01*
X6112500Y-13713929D01*
X6083928Y-13728214D01*
X6055357Y-13728214D01*
X6026786Y-13713929D01*
X6012500Y-13699643D01*
X5998214Y-13671072D01*
X5983928Y-13613929D01*
X5983928Y-13542500D01*
X5998214Y-13485357D01*
X6012500Y-13456786D01*
X6026786Y-13442500D01*
X6055357Y-13428214D01*
X6283928Y-13728214D02*
X6283928Y-13528214D01*
X6283928Y-13556786D02*
X6298214Y-13542500D01*
X6326786Y-13528214D01*
X6369643Y-13528214D01*
X6398214Y-13542500D01*
X6412500Y-13571072D01*
X6412500Y-13728214D01*
X6412500Y-13571072D02*
X6426786Y-13542500D01*
X6455357Y-13528214D01*
X6498214Y-13528214D01*
X6526786Y-13542500D01*
X6541071Y-13571072D01*
X6541071Y-13728214D01*
X6683928Y-13728214D02*
X6683928Y-13528214D01*
X6683928Y-13556786D02*
X6698214Y-13542500D01*
X6726786Y-13528214D01*
X6769643Y-13528214D01*
X6798214Y-13542500D01*
X6812500Y-13571072D01*
X6812500Y-13728214D01*
X6812500Y-13571072D02*
X6826786Y-13542500D01*
X6855357Y-13528214D01*
X6898214Y-13528214D01*
X6926786Y-13542500D01*
X6941071Y-13571072D01*
X6941071Y-13728214D01*
X7526786Y-13413929D02*
X7269643Y-13799643D01*
X7912500Y-13428214D02*
X7941071Y-13428214D01*
X7969643Y-13442500D01*
X7983928Y-13456786D01*
X7998214Y-13485357D01*
X8012500Y-13542500D01*
X8012500Y-13613929D01*
X7998214Y-13671072D01*
X7983928Y-13699643D01*
X7969643Y-13713929D01*
X7941071Y-13728214D01*
X7912500Y-13728214D01*
X7883928Y-13713929D01*
X7869643Y-13699643D01*
X7855357Y-13671072D01*
X7841071Y-13613929D01*
X7841071Y-13542500D01*
X7855357Y-13485357D01*
X7869643Y-13456786D01*
X7883928Y-13442500D01*
X7912500Y-13428214D01*
X8141071Y-13699643D02*
X8155357Y-13713929D01*
X8141071Y-13728214D01*
X8126786Y-13713929D01*
X8141071Y-13699643D01*
X8141071Y-13728214D01*
X8341071Y-13428214D02*
X8369643Y-13428214D01*
X8398214Y-13442500D01*
X8412500Y-13456786D01*
X8426786Y-13485357D01*
X8441071Y-13542500D01*
X8441071Y-13613929D01*
X8426786Y-13671072D01*
X8412500Y-13699643D01*
X8398214Y-13713929D01*
X8369643Y-13728214D01*
X8341071Y-13728214D01*
X8312500Y-13713929D01*
X8298214Y-13699643D01*
X8283928Y-13671072D01*
X8269643Y-13613929D01*
X8269643Y-13542500D01*
X8283928Y-13485357D01*
X8298214Y-13456786D01*
X8312500Y-13442500D01*
X8341071Y-13428214D01*
X8541071Y-13428214D02*
X8726786Y-13428214D01*
X8626786Y-13542500D01*
X8669643Y-13542500D01*
X8698214Y-13556786D01*
X8712500Y-13571072D01*
X8726786Y-13599643D01*
X8726786Y-13671072D01*
X8712500Y-13699643D01*
X8698214Y-13713929D01*
X8669643Y-13728214D01*
X8583928Y-13728214D01*
X8555357Y-13713929D01*
X8541071Y-13699643D01*
X8998214Y-13428214D02*
X8855357Y-13428214D01*
X8841071Y-13571072D01*
X8855357Y-13556786D01*
X8883928Y-13542500D01*
X8955357Y-13542500D01*
X8983928Y-13556786D01*
X8998214Y-13571072D01*
X9012500Y-13599643D01*
X9012500Y-13671072D01*
X8998214Y-13699643D01*
X8983928Y-13713929D01*
X8955357Y-13728214D01*
X8883928Y-13728214D01*
X8855357Y-13713929D01*
X8841071Y-13699643D01*
X9126786Y-13428214D02*
X9126786Y-13485357D01*
X9241071Y-13428214D02*
X9241071Y-13485357D01*
X9683928Y-13842500D02*
X9669643Y-13828214D01*
X9641071Y-13785357D01*
X9626786Y-13756786D01*
X9612500Y-13713929D01*
X9598214Y-13642500D01*
X9598214Y-13585357D01*
X9612500Y-13513929D01*
X9626786Y-13471072D01*
X9641071Y-13442500D01*
X9669643Y-13399643D01*
X9683928Y-13385357D01*
X9841071Y-13556786D02*
X9812500Y-13542500D01*
X9798214Y-13528214D01*
X9783928Y-13499643D01*
X9783928Y-13485357D01*
X9798214Y-13456786D01*
X9812500Y-13442500D01*
X9841071Y-13428214D01*
X9898214Y-13428214D01*
X9926786Y-13442500D01*
X9941071Y-13456786D01*
X9955357Y-13485357D01*
X9955357Y-13499643D01*
X9941071Y-13528214D01*
X9926786Y-13542500D01*
X9898214Y-13556786D01*
X9841071Y-13556786D01*
X9812500Y-13571072D01*
X9798214Y-13585357D01*
X9783928Y-13613929D01*
X9783928Y-13671072D01*
X9798214Y-13699643D01*
X9812500Y-13713929D01*
X9841071Y-13728214D01*
X9898214Y-13728214D01*
X9926786Y-13713929D01*
X9941071Y-13699643D01*
X9955357Y-13671072D01*
X9955357Y-13613929D01*
X9941071Y-13585357D01*
X9926786Y-13571072D01*
X9898214Y-13556786D01*
X10312500Y-13728214D02*
X10312500Y-13428214D01*
X10441071Y-13728214D02*
X10441071Y-13571072D01*
X10426786Y-13542500D01*
X10398214Y-13528214D01*
X10355357Y-13528214D01*
X10326786Y-13542500D01*
X10312500Y-13556786D01*
X10626786Y-13728214D02*
X10598214Y-13713929D01*
X10583928Y-13699643D01*
X10569643Y-13671072D01*
X10569643Y-13585357D01*
X10583928Y-13556786D01*
X10598214Y-13542500D01*
X10626786Y-13528214D01*
X10669643Y-13528214D01*
X10698214Y-13542500D01*
X10712500Y-13556786D01*
X10726786Y-13585357D01*
X10726786Y-13671072D01*
X10712500Y-13699643D01*
X10698214Y-13713929D01*
X10669643Y-13728214D01*
X10626786Y-13728214D01*
X10898214Y-13728214D02*
X10869643Y-13713929D01*
X10855357Y-13685357D01*
X10855357Y-13428214D01*
X11126786Y-13713929D02*
X11098214Y-13728214D01*
X11041071Y-13728214D01*
X11012500Y-13713929D01*
X10998214Y-13685357D01*
X10998214Y-13571072D01*
X11012500Y-13542500D01*
X11041071Y-13528214D01*
X11098214Y-13528214D01*
X11126786Y-13542500D01*
X11141071Y-13571072D01*
X11141071Y-13599643D01*
X10998214Y-13628214D01*
X11255357Y-13713929D02*
X11283928Y-13728214D01*
X11341071Y-13728214D01*
X11369643Y-13713929D01*
X11383928Y-13685357D01*
X11383928Y-13671072D01*
X11369643Y-13642500D01*
X11341071Y-13628214D01*
X11298214Y-13628214D01*
X11269643Y-13613929D01*
X11255357Y-13585357D01*
X11255357Y-13571072D01*
X11269643Y-13542500D01*
X11298214Y-13528214D01*
X11341071Y-13528214D01*
X11369643Y-13542500D01*
X11483928Y-13842500D02*
X11498214Y-13828214D01*
X11526786Y-13785357D01*
X11541071Y-13756786D01*
X11555357Y-13713929D01*
X11569643Y-13642500D01*
X11569643Y-13585357D01*
X11555357Y-13513929D01*
X11541071Y-13471072D01*
X11526786Y-13442500D01*
X11498214Y-13399643D01*
X11483928Y-13385357D01*
X4797500Y-13888500D02*
X4997500Y-14088500D01*
X4997500Y-13888500D02*
X4797500Y-14088500D01*
X4897500Y-13888500D02*
X4897500Y-14088500D01*
X4797500Y-13988500D02*
X4997500Y-13988500D01*
X5269643Y-13852786D02*
X5283928Y-13838500D01*
X5312500Y-13824214D01*
X5383928Y-13824214D01*
X5412500Y-13838500D01*
X5426786Y-13852786D01*
X5441071Y-13881357D01*
X5441071Y-13909929D01*
X5426786Y-13952786D01*
X5255357Y-14124214D01*
X5441071Y-14124214D01*
X5569643Y-14095643D02*
X5583928Y-14109929D01*
X5569643Y-14124214D01*
X5555357Y-14109929D01*
X5569643Y-14095643D01*
X5569643Y-14124214D01*
X5769643Y-13824214D02*
X5798214Y-13824214D01*
X5826786Y-13838500D01*
X5841071Y-13852786D01*
X5855357Y-13881357D01*
X5869643Y-13938500D01*
X5869643Y-14009929D01*
X5855357Y-14067072D01*
X5841071Y-14095643D01*
X5826786Y-14109929D01*
X5798214Y-14124214D01*
X5769643Y-14124214D01*
X5741071Y-14109929D01*
X5726786Y-14095643D01*
X5712500Y-14067072D01*
X5698214Y-14009929D01*
X5698214Y-13938500D01*
X5712500Y-13881357D01*
X5726786Y-13852786D01*
X5741071Y-13838500D01*
X5769643Y-13824214D01*
X6055357Y-13824214D02*
X6083928Y-13824214D01*
X6112500Y-13838500D01*
X6126786Y-13852786D01*
X6141071Y-13881357D01*
X6155357Y-13938500D01*
X6155357Y-14009929D01*
X6141071Y-14067072D01*
X6126786Y-14095643D01*
X6112500Y-14109929D01*
X6083928Y-14124214D01*
X6055357Y-14124214D01*
X6026786Y-14109929D01*
X6012500Y-14095643D01*
X5998214Y-14067072D01*
X5983928Y-14009929D01*
X5983928Y-13938500D01*
X5998214Y-13881357D01*
X6012500Y-13852786D01*
X6026786Y-13838500D01*
X6055357Y-13824214D01*
X6283928Y-14124214D02*
X6283928Y-13924214D01*
X6283928Y-13952786D02*
X6298214Y-13938500D01*
X6326786Y-13924214D01*
X6369643Y-13924214D01*
X6398214Y-13938500D01*
X6412500Y-13967072D01*
X6412500Y-14124214D01*
X6412500Y-13967072D02*
X6426786Y-13938500D01*
X6455357Y-13924214D01*
X6498214Y-13924214D01*
X6526786Y-13938500D01*
X6541071Y-13967072D01*
X6541071Y-14124214D01*
X6683928Y-14124214D02*
X6683928Y-13924214D01*
X6683928Y-13952786D02*
X6698214Y-13938500D01*
X6726786Y-13924214D01*
X6769643Y-13924214D01*
X6798214Y-13938500D01*
X6812500Y-13967072D01*
X6812500Y-14124214D01*
X6812500Y-13967072D02*
X6826786Y-13938500D01*
X6855357Y-13924214D01*
X6898214Y-13924214D01*
X6926786Y-13938500D01*
X6941071Y-13967072D01*
X6941071Y-14124214D01*
X7526786Y-13809929D02*
X7269643Y-14195643D01*
X7912500Y-13824214D02*
X7941071Y-13824214D01*
X7969643Y-13838500D01*
X7983928Y-13852786D01*
X7998214Y-13881357D01*
X8012500Y-13938500D01*
X8012500Y-14009929D01*
X7998214Y-14067072D01*
X7983928Y-14095643D01*
X7969643Y-14109929D01*
X7941071Y-14124214D01*
X7912500Y-14124214D01*
X7883928Y-14109929D01*
X7869643Y-14095643D01*
X7855357Y-14067072D01*
X7841071Y-14009929D01*
X7841071Y-13938500D01*
X7855357Y-13881357D01*
X7869643Y-13852786D01*
X7883928Y-13838500D01*
X7912500Y-13824214D01*
X8141071Y-14095643D02*
X8155357Y-14109929D01*
X8141071Y-14124214D01*
X8126786Y-14109929D01*
X8141071Y-14095643D01*
X8141071Y-14124214D01*
X8341071Y-13824214D02*
X8369643Y-13824214D01*
X8398214Y-13838500D01*
X8412500Y-13852786D01*
X8426786Y-13881357D01*
X8441071Y-13938500D01*
X8441071Y-14009929D01*
X8426786Y-14067072D01*
X8412500Y-14095643D01*
X8398214Y-14109929D01*
X8369643Y-14124214D01*
X8341071Y-14124214D01*
X8312500Y-14109929D01*
X8298214Y-14095643D01*
X8283928Y-14067072D01*
X8269643Y-14009929D01*
X8269643Y-13938500D01*
X8283928Y-13881357D01*
X8298214Y-13852786D01*
X8312500Y-13838500D01*
X8341071Y-13824214D01*
X8541071Y-13824214D02*
X8741071Y-13824214D01*
X8612500Y-14124214D01*
X8869643Y-14124214D02*
X8926786Y-14124214D01*
X8955357Y-14109929D01*
X8969643Y-14095643D01*
X8998214Y-14052786D01*
X9012500Y-13995643D01*
X9012500Y-13881357D01*
X8998214Y-13852786D01*
X8983928Y-13838500D01*
X8955357Y-13824214D01*
X8898214Y-13824214D01*
X8869643Y-13838500D01*
X8855357Y-13852786D01*
X8841071Y-13881357D01*
X8841071Y-13952786D01*
X8855357Y-13981357D01*
X8869643Y-13995643D01*
X8898214Y-14009929D01*
X8955357Y-14009929D01*
X8983928Y-13995643D01*
X8998214Y-13981357D01*
X9012500Y-13952786D01*
X9126786Y-13824214D02*
X9126786Y-13881357D01*
X9241071Y-13824214D02*
X9241071Y-13881357D01*
X9683928Y-14238500D02*
X9669643Y-14224214D01*
X9641071Y-14181357D01*
X9626786Y-14152786D01*
X9612500Y-14109929D01*
X9598214Y-14038500D01*
X9598214Y-13981357D01*
X9612500Y-13909929D01*
X9626786Y-13867072D01*
X9641071Y-13838500D01*
X9669643Y-13795643D01*
X9683928Y-13781357D01*
X9855357Y-13824214D02*
X9883928Y-13824214D01*
X9912500Y-13838500D01*
X9926786Y-13852786D01*
X9941071Y-13881357D01*
X9955357Y-13938500D01*
X9955357Y-14009929D01*
X9941071Y-14067072D01*
X9926786Y-14095643D01*
X9912500Y-14109929D01*
X9883928Y-14124214D01*
X9855357Y-14124214D01*
X9826786Y-14109929D01*
X9812500Y-14095643D01*
X9798214Y-14067072D01*
X9783928Y-14009929D01*
X9783928Y-13938500D01*
X9798214Y-13881357D01*
X9812500Y-13852786D01*
X9826786Y-13838500D01*
X9855357Y-13824214D01*
X10312500Y-14124214D02*
X10312500Y-13824214D01*
X10441071Y-14124214D02*
X10441071Y-13967072D01*
X10426786Y-13938500D01*
X10398214Y-13924214D01*
X10355357Y-13924214D01*
X10326786Y-13938500D01*
X10312500Y-13952786D01*
X10626786Y-14124214D02*
X10598214Y-14109929D01*
X10583928Y-14095643D01*
X10569643Y-14067072D01*
X10569643Y-13981357D01*
X10583928Y-13952786D01*
X10598214Y-13938500D01*
X10626786Y-13924214D01*
X10669643Y-13924214D01*
X10698214Y-13938500D01*
X10712500Y-13952786D01*
X10726786Y-13981357D01*
X10726786Y-14067072D01*
X10712500Y-14095643D01*
X10698214Y-14109929D01*
X10669643Y-14124214D01*
X10626786Y-14124214D01*
X10898214Y-14124214D02*
X10869643Y-14109929D01*
X10855357Y-14081357D01*
X10855357Y-13824214D01*
X11126786Y-14109929D02*
X11098214Y-14124214D01*
X11041071Y-14124214D01*
X11012500Y-14109929D01*
X10998214Y-14081357D01*
X10998214Y-13967072D01*
X11012500Y-13938500D01*
X11041071Y-13924214D01*
X11098214Y-13924214D01*
X11126786Y-13938500D01*
X11141071Y-13967072D01*
X11141071Y-13995643D01*
X10998214Y-14024214D01*
X11255357Y-14109929D02*
X11283928Y-14124214D01*
X11341071Y-14124214D01*
X11369643Y-14109929D01*
X11383928Y-14081357D01*
X11383928Y-14067072D01*
X11369643Y-14038500D01*
X11341071Y-14024214D01*
X11298214Y-14024214D01*
X11269643Y-14009929D01*
X11255357Y-13981357D01*
X11255357Y-13967072D01*
X11269643Y-13938500D01*
X11298214Y-13924214D01*
X11341071Y-13924214D01*
X11369643Y-13938500D01*
X11741071Y-14009929D02*
X11969643Y-14009929D01*
X11855357Y-14124214D02*
X11855357Y-13895643D01*
X12312500Y-13824214D02*
X12498214Y-13824214D01*
X12398214Y-13938500D01*
X12441071Y-13938500D01*
X12469643Y-13952786D01*
X12483928Y-13967072D01*
X12498214Y-13995643D01*
X12498214Y-14067072D01*
X12483928Y-14095643D01*
X12469643Y-14109929D01*
X12441071Y-14124214D01*
X12355357Y-14124214D01*
X12326786Y-14109929D01*
X12312500Y-14095643D01*
X12841071Y-14109929D02*
X12869643Y-14124214D01*
X12926786Y-14124214D01*
X12955357Y-14109929D01*
X12969643Y-14081357D01*
X12969643Y-14067072D01*
X12955357Y-14038500D01*
X12926786Y-14024214D01*
X12883928Y-14024214D01*
X12855357Y-14009929D01*
X12841071Y-13981357D01*
X12841071Y-13967072D01*
X12855357Y-13938500D01*
X12883928Y-13924214D01*
X12926786Y-13924214D01*
X12955357Y-13938500D01*
X13141071Y-14124214D02*
X13112500Y-14109929D01*
X13098214Y-14081357D01*
X13098214Y-13824214D01*
X13298214Y-14124214D02*
X13269643Y-14109929D01*
X13255357Y-14095643D01*
X13241071Y-14067072D01*
X13241071Y-13981357D01*
X13255357Y-13952786D01*
X13269643Y-13938500D01*
X13298214Y-13924214D01*
X13341071Y-13924214D01*
X13369643Y-13938500D01*
X13383928Y-13952786D01*
X13398214Y-13981357D01*
X13398214Y-14067072D01*
X13383928Y-14095643D01*
X13369643Y-14109929D01*
X13341071Y-14124214D01*
X13298214Y-14124214D01*
X13483928Y-13924214D02*
X13598214Y-13924214D01*
X13526786Y-13824214D02*
X13526786Y-14081357D01*
X13541071Y-14109929D01*
X13569643Y-14124214D01*
X13598214Y-14124214D01*
X13683928Y-14109929D02*
X13712500Y-14124214D01*
X13769643Y-14124214D01*
X13798214Y-14109929D01*
X13812500Y-14081357D01*
X13812500Y-14067072D01*
X13798214Y-14038500D01*
X13769643Y-14024214D01*
X13726786Y-14024214D01*
X13698214Y-14009929D01*
X13683928Y-13981357D01*
X13683928Y-13967072D01*
X13698214Y-13938500D01*
X13726786Y-13924214D01*
X13769643Y-13924214D01*
X13798214Y-13938500D01*
X13912500Y-14238500D02*
X13926786Y-14224214D01*
X13955357Y-14181357D01*
X13969643Y-14152786D01*
X13983928Y-14109929D01*
X13998214Y-14038500D01*
X13998214Y-13981357D01*
X13983928Y-13909929D01*
X13969643Y-13867072D01*
X13955357Y-13838500D01*
X13926786Y-13795643D01*
X13912500Y-13781357D01*
M02*
