G04 #@! TF.GenerationSoftware,KiCad,Pcbnew,(5.1.2-1)-1*
G04 #@! TF.CreationDate,2022-01-26T01:19:45+00:00*
G04 #@! TF.ProjectId,mz25key,6d7a3235-6b65-4792-9e6b-696361645f70,rev?*
G04 #@! TF.SameCoordinates,Original*
G04 #@! TF.FileFunction,Soldermask,Top*
G04 #@! TF.FilePolarity,Negative*
%FSLAX46Y46*%
G04 Gerber Fmt 4.6, Leading zero omitted, Abs format (unit mm)*
G04 Created by KiCad (PCBNEW (5.1.2-1)-1) date 2022-01-26 01:19:45*
%MOMM*%
%LPD*%
G04 APERTURE LIST*
%ADD10C,0.100000*%
G04 APERTURE END LIST*
D10*
G36*
X88671000Y-105391000D02*
G01*
X87019000Y-105391000D01*
X87019000Y-103989000D01*
X88671000Y-103989000D01*
X88671000Y-105391000D01*
X88671000Y-105391000D01*
G37*
G36*
X80721000Y-105391000D02*
G01*
X79069000Y-105391000D01*
X79069000Y-103989000D01*
X80721000Y-103989000D01*
X80721000Y-105391000D01*
X80721000Y-105391000D01*
G37*
G36*
X68478015Y-104016973D02*
G01*
X68581879Y-104048479D01*
X68609055Y-104063005D01*
X68677600Y-104099643D01*
X68761501Y-104168499D01*
X68830356Y-104252400D01*
X68853764Y-104296193D01*
X68867375Y-104316563D01*
X68884702Y-104333890D01*
X68905076Y-104347504D01*
X68927715Y-104356881D01*
X68951748Y-104361662D01*
X68976252Y-104361662D01*
X69000286Y-104356882D01*
X69022924Y-104347505D01*
X69043299Y-104333891D01*
X69060626Y-104316564D01*
X69074240Y-104296190D01*
X69083617Y-104273551D01*
X69088398Y-104249518D01*
X69089000Y-104237265D01*
X69089000Y-104009000D01*
X70191000Y-104009000D01*
X70191000Y-105111000D01*
X69089000Y-105111000D01*
X69089000Y-104882735D01*
X69086598Y-104858349D01*
X69079485Y-104834900D01*
X69067934Y-104813289D01*
X69052389Y-104794347D01*
X69033447Y-104778802D01*
X69011836Y-104767251D01*
X68988387Y-104760138D01*
X68964001Y-104757736D01*
X68939615Y-104760138D01*
X68916166Y-104767251D01*
X68894555Y-104778802D01*
X68875613Y-104794347D01*
X68860068Y-104813289D01*
X68853767Y-104823802D01*
X68830356Y-104867600D01*
X68830355Y-104867601D01*
X68761501Y-104951501D01*
X68677600Y-105020357D01*
X68609055Y-105056995D01*
X68581879Y-105071521D01*
X68478015Y-105103027D01*
X68397067Y-105111000D01*
X68342933Y-105111000D01*
X68261985Y-105103027D01*
X68158121Y-105071521D01*
X68130945Y-105056995D01*
X68062400Y-105020357D01*
X67978499Y-104951501D01*
X67909643Y-104867600D01*
X67870489Y-104794347D01*
X67858479Y-104771879D01*
X67826973Y-104668015D01*
X67816334Y-104560000D01*
X67826973Y-104451985D01*
X67858479Y-104348121D01*
X67898338Y-104273551D01*
X67909643Y-104252400D01*
X67978499Y-104168499D01*
X68062400Y-104099643D01*
X68130945Y-104063005D01*
X68158121Y-104048479D01*
X68261985Y-104016973D01*
X68342933Y-104009000D01*
X68397067Y-104009000D01*
X68478015Y-104016973D01*
X68478015Y-104016973D01*
G37*
G36*
X64778015Y-104016973D02*
G01*
X64881879Y-104048479D01*
X64909055Y-104063005D01*
X64977600Y-104099643D01*
X65061501Y-104168499D01*
X65130356Y-104252400D01*
X65153764Y-104296193D01*
X65167375Y-104316563D01*
X65184702Y-104333890D01*
X65205076Y-104347504D01*
X65227715Y-104356881D01*
X65251748Y-104361662D01*
X65276252Y-104361662D01*
X65300286Y-104356882D01*
X65322924Y-104347505D01*
X65343299Y-104333891D01*
X65360626Y-104316564D01*
X65374240Y-104296190D01*
X65383617Y-104273551D01*
X65388398Y-104249518D01*
X65389000Y-104237265D01*
X65389000Y-104009000D01*
X66491000Y-104009000D01*
X66491000Y-105111000D01*
X65389000Y-105111000D01*
X65389000Y-104882735D01*
X65386598Y-104858349D01*
X65379485Y-104834900D01*
X65367934Y-104813289D01*
X65352389Y-104794347D01*
X65333447Y-104778802D01*
X65311836Y-104767251D01*
X65288387Y-104760138D01*
X65264001Y-104757736D01*
X65239615Y-104760138D01*
X65216166Y-104767251D01*
X65194555Y-104778802D01*
X65175613Y-104794347D01*
X65160068Y-104813289D01*
X65153767Y-104823802D01*
X65130356Y-104867600D01*
X65130355Y-104867601D01*
X65061501Y-104951501D01*
X64977600Y-105020357D01*
X64909055Y-105056995D01*
X64881879Y-105071521D01*
X64778015Y-105103027D01*
X64697067Y-105111000D01*
X64642933Y-105111000D01*
X64561985Y-105103027D01*
X64458121Y-105071521D01*
X64430945Y-105056995D01*
X64362400Y-105020357D01*
X64278499Y-104951501D01*
X64209643Y-104867600D01*
X64170489Y-104794347D01*
X64158479Y-104771879D01*
X64126973Y-104668015D01*
X64116334Y-104560000D01*
X64126973Y-104451985D01*
X64158479Y-104348121D01*
X64198338Y-104273551D01*
X64209643Y-104252400D01*
X64278499Y-104168499D01*
X64362400Y-104099643D01*
X64430945Y-104063005D01*
X64458121Y-104048479D01*
X64561985Y-104016973D01*
X64642933Y-104009000D01*
X64697067Y-104009000D01*
X64778015Y-104016973D01*
X64778015Y-104016973D01*
G37*
G36*
X59347964Y-101606862D02*
G01*
X59521150Y-101641311D01*
X59621334Y-101682809D01*
X59721520Y-101724307D01*
X59901844Y-101844795D01*
X60055205Y-101998156D01*
X60175693Y-102178480D01*
X60175693Y-102178481D01*
X60258689Y-102378850D01*
X60301000Y-102591561D01*
X60301000Y-102808439D01*
X60267705Y-102975826D01*
X60258689Y-103021149D01*
X60175693Y-103221520D01*
X60055205Y-103401844D01*
X59901844Y-103555205D01*
X59721520Y-103675693D01*
X59621334Y-103717191D01*
X59521150Y-103758689D01*
X59414794Y-103779845D01*
X59308440Y-103801000D01*
X59091560Y-103801000D01*
X58985206Y-103779845D01*
X58878850Y-103758689D01*
X58778666Y-103717191D01*
X58678480Y-103675693D01*
X58498156Y-103555205D01*
X58344795Y-103401844D01*
X58224307Y-103221520D01*
X58141311Y-103021149D01*
X58132296Y-102975826D01*
X58099000Y-102808439D01*
X58099000Y-102591561D01*
X58141311Y-102378850D01*
X58224307Y-102178481D01*
X58224307Y-102178480D01*
X58344795Y-101998156D01*
X58498156Y-101844795D01*
X58678480Y-101724307D01*
X58778666Y-101682809D01*
X58878850Y-101641311D01*
X59052036Y-101606862D01*
X59091560Y-101599000D01*
X59308440Y-101599000D01*
X59347964Y-101606862D01*
X59347964Y-101606862D01*
G37*
G36*
X76369468Y-101483565D02*
G01*
X76408138Y-101495296D01*
X76443777Y-101514346D01*
X76475017Y-101539983D01*
X76500654Y-101571223D01*
X76519704Y-101606862D01*
X76531435Y-101645532D01*
X76536000Y-101691888D01*
X76536000Y-102768112D01*
X76531435Y-102814468D01*
X76519704Y-102853138D01*
X76500654Y-102888777D01*
X76475017Y-102920017D01*
X76443777Y-102945654D01*
X76408138Y-102964704D01*
X76369468Y-102976435D01*
X76323112Y-102981000D01*
X75671888Y-102981000D01*
X75625532Y-102976435D01*
X75586862Y-102964704D01*
X75551223Y-102945654D01*
X75519983Y-102920017D01*
X75494346Y-102888777D01*
X75475296Y-102853138D01*
X75463565Y-102814468D01*
X75459000Y-102768112D01*
X75459000Y-101691888D01*
X75463565Y-101645532D01*
X75475296Y-101606862D01*
X75494346Y-101571223D01*
X75519983Y-101539983D01*
X75551223Y-101514346D01*
X75586862Y-101495296D01*
X75625532Y-101483565D01*
X75671888Y-101479000D01*
X76323112Y-101479000D01*
X76369468Y-101483565D01*
X76369468Y-101483565D01*
G37*
G36*
X74494468Y-101483565D02*
G01*
X74533138Y-101495296D01*
X74568777Y-101514346D01*
X74600017Y-101539983D01*
X74625654Y-101571223D01*
X74644704Y-101606862D01*
X74656435Y-101645532D01*
X74661000Y-101691888D01*
X74661000Y-102768112D01*
X74656435Y-102814468D01*
X74644704Y-102853138D01*
X74625654Y-102888777D01*
X74600017Y-102920017D01*
X74568777Y-102945654D01*
X74533138Y-102964704D01*
X74494468Y-102976435D01*
X74448112Y-102981000D01*
X73796888Y-102981000D01*
X73750532Y-102976435D01*
X73711862Y-102964704D01*
X73676223Y-102945654D01*
X73644983Y-102920017D01*
X73619346Y-102888777D01*
X73600296Y-102853138D01*
X73588565Y-102814468D01*
X73584000Y-102768112D01*
X73584000Y-101691888D01*
X73588565Y-101645532D01*
X73600296Y-101606862D01*
X73619346Y-101571223D01*
X73644983Y-101539983D01*
X73676223Y-101514346D01*
X73711862Y-101495296D01*
X73750532Y-101483565D01*
X73796888Y-101479000D01*
X74448112Y-101479000D01*
X74494468Y-101483565D01*
X74494468Y-101483565D01*
G37*
G36*
X55991213Y-100497502D02*
G01*
X56062321Y-100504505D01*
X56199172Y-100546019D01*
X56199175Y-100546020D01*
X56325294Y-100613432D01*
X56435843Y-100704157D01*
X56526568Y-100814706D01*
X56593980Y-100940825D01*
X56593981Y-100940828D01*
X56635495Y-101077679D01*
X56649512Y-101220000D01*
X56635495Y-101362321D01*
X56600100Y-101479000D01*
X56593980Y-101499175D01*
X56526568Y-101625294D01*
X56435843Y-101735843D01*
X56325294Y-101826568D01*
X56199175Y-101893980D01*
X56199172Y-101893981D01*
X56062321Y-101935495D01*
X55991213Y-101942498D01*
X55955660Y-101946000D01*
X55884340Y-101946000D01*
X55848787Y-101942498D01*
X55777679Y-101935495D01*
X55640828Y-101893981D01*
X55640825Y-101893980D01*
X55514706Y-101826568D01*
X55404157Y-101735843D01*
X55313432Y-101625294D01*
X55246020Y-101499175D01*
X55239900Y-101479000D01*
X55204505Y-101362321D01*
X55190488Y-101220000D01*
X55204505Y-101077679D01*
X55246019Y-100940828D01*
X55246020Y-100940825D01*
X55313432Y-100814706D01*
X55404157Y-100704157D01*
X55514706Y-100613432D01*
X55640825Y-100546020D01*
X55640828Y-100546019D01*
X55777679Y-100504505D01*
X55848787Y-100497502D01*
X55884340Y-100494000D01*
X55955660Y-100494000D01*
X55991213Y-100497502D01*
X55991213Y-100497502D01*
G37*
G36*
X96911000Y-101606000D02*
G01*
X93809000Y-101606000D01*
X93809000Y-99004000D01*
X96911000Y-99004000D01*
X96911000Y-101606000D01*
X96911000Y-101606000D01*
G37*
G36*
X88671000Y-100891000D02*
G01*
X87019000Y-100891000D01*
X87019000Y-99489000D01*
X88671000Y-99489000D01*
X88671000Y-100891000D01*
X88671000Y-100891000D01*
G37*
G36*
X80721000Y-100891000D02*
G01*
X79069000Y-100891000D01*
X79069000Y-99489000D01*
X80721000Y-99489000D01*
X80721000Y-100891000D01*
X80721000Y-100891000D01*
G37*
G36*
X55991213Y-98497502D02*
G01*
X56062321Y-98504505D01*
X56199172Y-98546019D01*
X56199175Y-98546020D01*
X56325294Y-98613432D01*
X56435843Y-98704157D01*
X56526568Y-98814706D01*
X56593980Y-98940825D01*
X56593981Y-98940828D01*
X56635495Y-99077679D01*
X56649512Y-99220000D01*
X56635495Y-99362321D01*
X56597067Y-99489000D01*
X56593980Y-99499175D01*
X56526568Y-99625294D01*
X56435843Y-99735843D01*
X56325294Y-99826568D01*
X56199175Y-99893980D01*
X56199172Y-99893981D01*
X56062321Y-99935495D01*
X55991213Y-99942498D01*
X55955660Y-99946000D01*
X55884340Y-99946000D01*
X55848787Y-99942498D01*
X55777679Y-99935495D01*
X55640828Y-99893981D01*
X55640825Y-99893980D01*
X55514706Y-99826568D01*
X55404157Y-99735843D01*
X55313432Y-99625294D01*
X55246020Y-99499175D01*
X55242933Y-99489000D01*
X55204505Y-99362321D01*
X55190488Y-99220000D01*
X55204505Y-99077679D01*
X55246019Y-98940828D01*
X55246020Y-98940825D01*
X55313432Y-98814706D01*
X55404157Y-98704157D01*
X55514706Y-98613432D01*
X55640825Y-98546020D01*
X55640828Y-98546019D01*
X55777679Y-98504505D01*
X55848787Y-98497502D01*
X55884340Y-98494000D01*
X55955660Y-98494000D01*
X55991213Y-98497502D01*
X55991213Y-98497502D01*
G37*
G36*
X53759468Y-98313565D02*
G01*
X53798138Y-98325296D01*
X53833777Y-98344346D01*
X53865017Y-98369983D01*
X53890654Y-98401223D01*
X53909704Y-98436862D01*
X53921435Y-98475532D01*
X53926000Y-98521888D01*
X53926000Y-99598112D01*
X53921435Y-99644468D01*
X53909704Y-99683138D01*
X53890654Y-99718777D01*
X53865017Y-99750017D01*
X53833777Y-99775654D01*
X53798138Y-99794704D01*
X53759468Y-99806435D01*
X53713112Y-99811000D01*
X53061888Y-99811000D01*
X53015532Y-99806435D01*
X52976862Y-99794704D01*
X52941223Y-99775654D01*
X52909983Y-99750017D01*
X52884346Y-99718777D01*
X52865296Y-99683138D01*
X52853565Y-99644468D01*
X52849000Y-99598112D01*
X52849000Y-98521888D01*
X52853565Y-98475532D01*
X52865296Y-98436862D01*
X52884346Y-98401223D01*
X52909983Y-98369983D01*
X52941223Y-98344346D01*
X52976862Y-98325296D01*
X53015532Y-98313565D01*
X53061888Y-98309000D01*
X53713112Y-98309000D01*
X53759468Y-98313565D01*
X53759468Y-98313565D01*
G37*
G36*
X51884468Y-98313565D02*
G01*
X51923138Y-98325296D01*
X51958777Y-98344346D01*
X51990017Y-98369983D01*
X52015654Y-98401223D01*
X52034704Y-98436862D01*
X52046435Y-98475532D01*
X52051000Y-98521888D01*
X52051000Y-99598112D01*
X52046435Y-99644468D01*
X52034704Y-99683138D01*
X52015654Y-99718777D01*
X51990017Y-99750017D01*
X51958777Y-99775654D01*
X51923138Y-99794704D01*
X51884468Y-99806435D01*
X51838112Y-99811000D01*
X51186888Y-99811000D01*
X51140532Y-99806435D01*
X51101862Y-99794704D01*
X51066223Y-99775654D01*
X51034983Y-99750017D01*
X51009346Y-99718777D01*
X50990296Y-99683138D01*
X50978565Y-99644468D01*
X50974000Y-99598112D01*
X50974000Y-98521888D01*
X50978565Y-98475532D01*
X50990296Y-98436862D01*
X51009346Y-98401223D01*
X51034983Y-98369983D01*
X51066223Y-98344346D01*
X51101862Y-98325296D01*
X51140532Y-98313565D01*
X51186888Y-98309000D01*
X51838112Y-98309000D01*
X51884468Y-98313565D01*
X51884468Y-98313565D01*
G37*
G36*
X64424928Y-97391764D02*
G01*
X64446009Y-97398160D01*
X64465445Y-97408548D01*
X64482476Y-97422524D01*
X64496452Y-97439555D01*
X64506840Y-97458991D01*
X64513236Y-97480072D01*
X64516000Y-97508140D01*
X64516000Y-99321860D01*
X64513236Y-99349928D01*
X64506840Y-99371009D01*
X64496452Y-99390445D01*
X64482476Y-99407476D01*
X64465445Y-99421452D01*
X64446009Y-99431840D01*
X64424928Y-99438236D01*
X64396860Y-99441000D01*
X63933140Y-99441000D01*
X63905072Y-99438236D01*
X63883991Y-99431840D01*
X63864555Y-99421452D01*
X63847524Y-99407476D01*
X63833548Y-99390445D01*
X63823160Y-99371009D01*
X63816764Y-99349928D01*
X63814000Y-99321860D01*
X63814000Y-97508140D01*
X63816764Y-97480072D01*
X63823160Y-97458991D01*
X63833548Y-97439555D01*
X63847524Y-97422524D01*
X63864555Y-97408548D01*
X63883991Y-97398160D01*
X63905072Y-97391764D01*
X63933140Y-97389000D01*
X64396860Y-97389000D01*
X64424928Y-97391764D01*
X64424928Y-97391764D01*
G37*
G36*
X68234928Y-97391764D02*
G01*
X68256009Y-97398160D01*
X68275445Y-97408548D01*
X68292476Y-97422524D01*
X68306452Y-97439555D01*
X68316840Y-97458991D01*
X68323236Y-97480072D01*
X68326000Y-97508140D01*
X68326000Y-99321860D01*
X68323236Y-99349928D01*
X68316840Y-99371009D01*
X68306452Y-99390445D01*
X68292476Y-99407476D01*
X68275445Y-99421452D01*
X68256009Y-99431840D01*
X68234928Y-99438236D01*
X68206860Y-99441000D01*
X67743140Y-99441000D01*
X67715072Y-99438236D01*
X67693991Y-99431840D01*
X67674555Y-99421452D01*
X67657524Y-99407476D01*
X67643548Y-99390445D01*
X67633160Y-99371009D01*
X67626764Y-99349928D01*
X67624000Y-99321860D01*
X67624000Y-97508140D01*
X67626764Y-97480072D01*
X67633160Y-97458991D01*
X67643548Y-97439555D01*
X67657524Y-97422524D01*
X67674555Y-97408548D01*
X67693991Y-97398160D01*
X67715072Y-97391764D01*
X67743140Y-97389000D01*
X68206860Y-97389000D01*
X68234928Y-97391764D01*
X68234928Y-97391764D01*
G37*
G36*
X66964928Y-97391764D02*
G01*
X66986009Y-97398160D01*
X67005445Y-97408548D01*
X67022476Y-97422524D01*
X67036452Y-97439555D01*
X67046840Y-97458991D01*
X67053236Y-97480072D01*
X67056000Y-97508140D01*
X67056000Y-99321860D01*
X67053236Y-99349928D01*
X67046840Y-99371009D01*
X67036452Y-99390445D01*
X67022476Y-99407476D01*
X67005445Y-99421452D01*
X66986009Y-99431840D01*
X66964928Y-99438236D01*
X66936860Y-99441000D01*
X66473140Y-99441000D01*
X66445072Y-99438236D01*
X66423991Y-99431840D01*
X66404555Y-99421452D01*
X66387524Y-99407476D01*
X66373548Y-99390445D01*
X66363160Y-99371009D01*
X66356764Y-99349928D01*
X66354000Y-99321860D01*
X66354000Y-97508140D01*
X66356764Y-97480072D01*
X66363160Y-97458991D01*
X66373548Y-97439555D01*
X66387524Y-97422524D01*
X66404555Y-97408548D01*
X66423991Y-97398160D01*
X66445072Y-97391764D01*
X66473140Y-97389000D01*
X66936860Y-97389000D01*
X66964928Y-97391764D01*
X66964928Y-97391764D01*
G37*
G36*
X65694928Y-97391764D02*
G01*
X65716009Y-97398160D01*
X65735445Y-97408548D01*
X65752476Y-97422524D01*
X65766452Y-97439555D01*
X65776840Y-97458991D01*
X65783236Y-97480072D01*
X65786000Y-97508140D01*
X65786000Y-99321860D01*
X65783236Y-99349928D01*
X65776840Y-99371009D01*
X65766452Y-99390445D01*
X65752476Y-99407476D01*
X65735445Y-99421452D01*
X65716009Y-99431840D01*
X65694928Y-99438236D01*
X65666860Y-99441000D01*
X65203140Y-99441000D01*
X65175072Y-99438236D01*
X65153991Y-99431840D01*
X65134555Y-99421452D01*
X65117524Y-99407476D01*
X65103548Y-99390445D01*
X65093160Y-99371009D01*
X65086764Y-99349928D01*
X65084000Y-99321860D01*
X65084000Y-97508140D01*
X65086764Y-97480072D01*
X65093160Y-97458991D01*
X65103548Y-97439555D01*
X65117524Y-97422524D01*
X65134555Y-97408548D01*
X65153991Y-97398160D01*
X65175072Y-97391764D01*
X65203140Y-97389000D01*
X65666860Y-97389000D01*
X65694928Y-97391764D01*
X65694928Y-97391764D01*
G37*
G36*
X63154928Y-97391764D02*
G01*
X63176009Y-97398160D01*
X63195445Y-97408548D01*
X63212476Y-97422524D01*
X63226452Y-97439555D01*
X63236840Y-97458991D01*
X63243236Y-97480072D01*
X63246000Y-97508140D01*
X63246000Y-99321860D01*
X63243236Y-99349928D01*
X63236840Y-99371009D01*
X63226452Y-99390445D01*
X63212476Y-99407476D01*
X63195445Y-99421452D01*
X63176009Y-99431840D01*
X63154928Y-99438236D01*
X63126860Y-99441000D01*
X62663140Y-99441000D01*
X62635072Y-99438236D01*
X62613991Y-99431840D01*
X62594555Y-99421452D01*
X62577524Y-99407476D01*
X62563548Y-99390445D01*
X62553160Y-99371009D01*
X62546764Y-99349928D01*
X62544000Y-99321860D01*
X62544000Y-97508140D01*
X62546764Y-97480072D01*
X62553160Y-97458991D01*
X62563548Y-97439555D01*
X62577524Y-97422524D01*
X62594555Y-97408548D01*
X62613991Y-97398160D01*
X62635072Y-97391764D01*
X62663140Y-97389000D01*
X63126860Y-97389000D01*
X63154928Y-97391764D01*
X63154928Y-97391764D01*
G37*
G36*
X61884928Y-97391764D02*
G01*
X61906009Y-97398160D01*
X61925445Y-97408548D01*
X61942476Y-97422524D01*
X61956452Y-97439555D01*
X61966840Y-97458991D01*
X61973236Y-97480072D01*
X61976000Y-97508140D01*
X61976000Y-99321860D01*
X61973236Y-99349928D01*
X61966840Y-99371009D01*
X61956452Y-99390445D01*
X61942476Y-99407476D01*
X61925445Y-99421452D01*
X61906009Y-99431840D01*
X61884928Y-99438236D01*
X61856860Y-99441000D01*
X61393140Y-99441000D01*
X61365072Y-99438236D01*
X61343991Y-99431840D01*
X61324555Y-99421452D01*
X61307524Y-99407476D01*
X61293548Y-99390445D01*
X61283160Y-99371009D01*
X61276764Y-99349928D01*
X61274000Y-99321860D01*
X61274000Y-97508140D01*
X61276764Y-97480072D01*
X61283160Y-97458991D01*
X61293548Y-97439555D01*
X61307524Y-97422524D01*
X61324555Y-97408548D01*
X61343991Y-97398160D01*
X61365072Y-97391764D01*
X61393140Y-97389000D01*
X61856860Y-97389000D01*
X61884928Y-97391764D01*
X61884928Y-97391764D01*
G37*
G36*
X60614928Y-97391764D02*
G01*
X60636009Y-97398160D01*
X60655445Y-97408548D01*
X60672476Y-97422524D01*
X60686452Y-97439555D01*
X60696840Y-97458991D01*
X60703236Y-97480072D01*
X60706000Y-97508140D01*
X60706000Y-99321860D01*
X60703236Y-99349928D01*
X60696840Y-99371009D01*
X60686452Y-99390445D01*
X60672476Y-99407476D01*
X60655445Y-99421452D01*
X60636009Y-99431840D01*
X60614928Y-99438236D01*
X60586860Y-99441000D01*
X60123140Y-99441000D01*
X60095072Y-99438236D01*
X60073991Y-99431840D01*
X60054555Y-99421452D01*
X60037524Y-99407476D01*
X60023548Y-99390445D01*
X60013160Y-99371009D01*
X60006764Y-99349928D01*
X60004000Y-99321860D01*
X60004000Y-97508140D01*
X60006764Y-97480072D01*
X60013160Y-97458991D01*
X60023548Y-97439555D01*
X60037524Y-97422524D01*
X60054555Y-97408548D01*
X60073991Y-97398160D01*
X60095072Y-97391764D01*
X60123140Y-97389000D01*
X60586860Y-97389000D01*
X60614928Y-97391764D01*
X60614928Y-97391764D01*
G37*
G36*
X59344928Y-97391764D02*
G01*
X59366009Y-97398160D01*
X59385445Y-97408548D01*
X59402476Y-97422524D01*
X59416452Y-97439555D01*
X59426840Y-97458991D01*
X59433236Y-97480072D01*
X59436000Y-97508140D01*
X59436000Y-99321860D01*
X59433236Y-99349928D01*
X59426840Y-99371009D01*
X59416452Y-99390445D01*
X59402476Y-99407476D01*
X59385445Y-99421452D01*
X59366009Y-99431840D01*
X59344928Y-99438236D01*
X59316860Y-99441000D01*
X58853140Y-99441000D01*
X58825072Y-99438236D01*
X58803991Y-99431840D01*
X58784555Y-99421452D01*
X58767524Y-99407476D01*
X58753548Y-99390445D01*
X58743160Y-99371009D01*
X58736764Y-99349928D01*
X58734000Y-99321860D01*
X58734000Y-97508140D01*
X58736764Y-97480072D01*
X58743160Y-97458991D01*
X58753548Y-97439555D01*
X58767524Y-97422524D01*
X58784555Y-97408548D01*
X58803991Y-97398160D01*
X58825072Y-97391764D01*
X58853140Y-97389000D01*
X59316860Y-97389000D01*
X59344928Y-97391764D01*
X59344928Y-97391764D01*
G37*
G36*
X55991213Y-96497502D02*
G01*
X56062321Y-96504505D01*
X56199172Y-96546019D01*
X56199175Y-96546020D01*
X56325294Y-96613432D01*
X56435843Y-96704157D01*
X56526568Y-96814706D01*
X56593980Y-96940825D01*
X56593981Y-96940828D01*
X56635495Y-97077679D01*
X56649512Y-97220000D01*
X56635495Y-97362321D01*
X56606170Y-97458991D01*
X56593980Y-97499175D01*
X56526568Y-97625294D01*
X56435843Y-97735843D01*
X56325294Y-97826568D01*
X56199175Y-97893980D01*
X56199172Y-97893981D01*
X56062321Y-97935495D01*
X55991213Y-97942498D01*
X55955660Y-97946000D01*
X55884340Y-97946000D01*
X55848787Y-97942498D01*
X55777679Y-97935495D01*
X55640828Y-97893981D01*
X55640825Y-97893980D01*
X55514706Y-97826568D01*
X55404157Y-97735843D01*
X55313432Y-97625294D01*
X55246020Y-97499175D01*
X55233830Y-97458991D01*
X55204505Y-97362321D01*
X55190488Y-97220000D01*
X55204505Y-97077679D01*
X55246019Y-96940828D01*
X55246020Y-96940825D01*
X55313432Y-96814706D01*
X55404157Y-96704157D01*
X55514706Y-96613432D01*
X55640825Y-96546020D01*
X55640828Y-96546019D01*
X55777679Y-96504505D01*
X55848787Y-96497502D01*
X55884340Y-96494000D01*
X55955660Y-96494000D01*
X55991213Y-96497502D01*
X55991213Y-96497502D01*
G37*
G36*
X53739468Y-96353565D02*
G01*
X53778138Y-96365296D01*
X53813777Y-96384346D01*
X53845017Y-96409983D01*
X53870654Y-96441223D01*
X53889704Y-96476862D01*
X53901435Y-96515532D01*
X53906000Y-96561888D01*
X53906000Y-97638112D01*
X53901435Y-97684468D01*
X53889704Y-97723138D01*
X53870654Y-97758777D01*
X53845017Y-97790017D01*
X53813777Y-97815654D01*
X53778138Y-97834704D01*
X53739468Y-97846435D01*
X53693112Y-97851000D01*
X53041888Y-97851000D01*
X52995532Y-97846435D01*
X52956862Y-97834704D01*
X52921223Y-97815654D01*
X52889983Y-97790017D01*
X52864346Y-97758777D01*
X52845296Y-97723138D01*
X52833565Y-97684468D01*
X52829000Y-97638112D01*
X52829000Y-96561888D01*
X52833565Y-96515532D01*
X52845296Y-96476862D01*
X52864346Y-96441223D01*
X52889983Y-96409983D01*
X52921223Y-96384346D01*
X52956862Y-96365296D01*
X52995532Y-96353565D01*
X53041888Y-96349000D01*
X53693112Y-96349000D01*
X53739468Y-96353565D01*
X53739468Y-96353565D01*
G37*
G36*
X51864468Y-96353565D02*
G01*
X51903138Y-96365296D01*
X51938777Y-96384346D01*
X51970017Y-96409983D01*
X51995654Y-96441223D01*
X52014704Y-96476862D01*
X52026435Y-96515532D01*
X52031000Y-96561888D01*
X52031000Y-97638112D01*
X52026435Y-97684468D01*
X52014704Y-97723138D01*
X51995654Y-97758777D01*
X51970017Y-97790017D01*
X51938777Y-97815654D01*
X51903138Y-97834704D01*
X51864468Y-97846435D01*
X51818112Y-97851000D01*
X51166888Y-97851000D01*
X51120532Y-97846435D01*
X51081862Y-97834704D01*
X51046223Y-97815654D01*
X51014983Y-97790017D01*
X50989346Y-97758777D01*
X50970296Y-97723138D01*
X50958565Y-97684468D01*
X50954000Y-97638112D01*
X50954000Y-96561888D01*
X50958565Y-96515532D01*
X50970296Y-96476862D01*
X50989346Y-96441223D01*
X51014983Y-96409983D01*
X51046223Y-96384346D01*
X51081862Y-96365296D01*
X51120532Y-96353565D01*
X51166888Y-96349000D01*
X51818112Y-96349000D01*
X51864468Y-96353565D01*
X51864468Y-96353565D01*
G37*
G36*
X93053642Y-95724781D02*
G01*
X93199414Y-95785162D01*
X93199416Y-95785163D01*
X93330608Y-95872822D01*
X93442178Y-95984392D01*
X93529837Y-96115584D01*
X93529838Y-96115586D01*
X93590219Y-96261358D01*
X93621000Y-96416107D01*
X93621000Y-96573893D01*
X93590219Y-96728642D01*
X93559375Y-96803105D01*
X93529837Y-96874416D01*
X93442178Y-97005608D01*
X93330608Y-97117178D01*
X93199416Y-97204837D01*
X93199415Y-97204838D01*
X93199414Y-97204838D01*
X93053642Y-97265219D01*
X92898893Y-97296000D01*
X92741107Y-97296000D01*
X92586358Y-97265219D01*
X92440586Y-97204838D01*
X92440585Y-97204838D01*
X92440584Y-97204837D01*
X92309392Y-97117178D01*
X92197822Y-97005608D01*
X92110163Y-96874416D01*
X92080625Y-96803105D01*
X92049781Y-96728642D01*
X92019000Y-96573893D01*
X92019000Y-96416107D01*
X92049781Y-96261358D01*
X92110162Y-96115586D01*
X92110163Y-96115584D01*
X92197822Y-95984392D01*
X92309392Y-95872822D01*
X92440584Y-95785163D01*
X92440586Y-95785162D01*
X92586358Y-95724781D01*
X92741107Y-95694000D01*
X92898893Y-95694000D01*
X93053642Y-95724781D01*
X93053642Y-95724781D01*
G37*
G36*
X90513642Y-95724781D02*
G01*
X90659414Y-95785162D01*
X90659416Y-95785163D01*
X90790608Y-95872822D01*
X90902178Y-95984392D01*
X90989837Y-96115584D01*
X90989838Y-96115586D01*
X91050219Y-96261358D01*
X91081000Y-96416107D01*
X91081000Y-96573893D01*
X91050219Y-96728642D01*
X91019375Y-96803105D01*
X90989837Y-96874416D01*
X90902178Y-97005608D01*
X90790608Y-97117178D01*
X90659416Y-97204837D01*
X90659415Y-97204838D01*
X90659414Y-97204838D01*
X90513642Y-97265219D01*
X90358893Y-97296000D01*
X90201107Y-97296000D01*
X90046358Y-97265219D01*
X89900586Y-97204838D01*
X89900585Y-97204838D01*
X89900584Y-97204837D01*
X89769392Y-97117178D01*
X89657822Y-97005608D01*
X89570163Y-96874416D01*
X89540625Y-96803105D01*
X89509781Y-96728642D01*
X89479000Y-96573893D01*
X89479000Y-96416107D01*
X89509781Y-96261358D01*
X89570162Y-96115586D01*
X89570163Y-96115584D01*
X89657822Y-95984392D01*
X89769392Y-95872822D01*
X89900584Y-95785163D01*
X89900586Y-95785162D01*
X90046358Y-95724781D01*
X90201107Y-95694000D01*
X90358893Y-95694000D01*
X90513642Y-95724781D01*
X90513642Y-95724781D01*
G37*
G36*
X81155562Y-94248181D02*
G01*
X81190481Y-94258774D01*
X81222663Y-94275976D01*
X81250873Y-94299127D01*
X81274024Y-94327337D01*
X81291226Y-94359519D01*
X81301819Y-94394438D01*
X81306000Y-94436895D01*
X81306000Y-96803105D01*
X81301819Y-96845562D01*
X81291226Y-96880481D01*
X81274024Y-96912663D01*
X81250873Y-96940873D01*
X81222663Y-96964024D01*
X81190481Y-96981226D01*
X81155562Y-96991819D01*
X81113105Y-96996000D01*
X79971895Y-96996000D01*
X79929438Y-96991819D01*
X79894519Y-96981226D01*
X79862337Y-96964024D01*
X79834127Y-96940873D01*
X79810976Y-96912663D01*
X79793774Y-96880481D01*
X79783181Y-96845562D01*
X79779000Y-96803105D01*
X79779000Y-94436895D01*
X79783181Y-94394438D01*
X79793774Y-94359519D01*
X79810976Y-94327337D01*
X79834127Y-94299127D01*
X79862337Y-94275976D01*
X79894519Y-94258774D01*
X79929438Y-94248181D01*
X79971895Y-94244000D01*
X81113105Y-94244000D01*
X81155562Y-94248181D01*
X81155562Y-94248181D01*
G37*
G36*
X84130562Y-94248181D02*
G01*
X84165481Y-94258774D01*
X84197663Y-94275976D01*
X84225873Y-94299127D01*
X84249024Y-94327337D01*
X84266226Y-94359519D01*
X84276819Y-94394438D01*
X84281000Y-94436895D01*
X84281000Y-96803105D01*
X84276819Y-96845562D01*
X84266226Y-96880481D01*
X84249024Y-96912663D01*
X84225873Y-96940873D01*
X84197663Y-96964024D01*
X84165481Y-96981226D01*
X84130562Y-96991819D01*
X84088105Y-96996000D01*
X82946895Y-96996000D01*
X82904438Y-96991819D01*
X82869519Y-96981226D01*
X82837337Y-96964024D01*
X82809127Y-96940873D01*
X82785976Y-96912663D01*
X82768774Y-96880481D01*
X82758181Y-96845562D01*
X82754000Y-96803105D01*
X82754000Y-94436895D01*
X82758181Y-94394438D01*
X82768774Y-94359519D01*
X82785976Y-94327337D01*
X82809127Y-94299127D01*
X82837337Y-94275976D01*
X82869519Y-94258774D01*
X82904438Y-94248181D01*
X82946895Y-94244000D01*
X84088105Y-94244000D01*
X84130562Y-94248181D01*
X84130562Y-94248181D01*
G37*
G36*
X78281000Y-96671000D02*
G01*
X76179000Y-96671000D01*
X76179000Y-95069000D01*
X78281000Y-95069000D01*
X78281000Y-96671000D01*
X78281000Y-96671000D01*
G37*
G36*
X55991213Y-94497502D02*
G01*
X56062321Y-94504505D01*
X56199172Y-94546019D01*
X56199175Y-94546020D01*
X56325294Y-94613432D01*
X56435843Y-94704157D01*
X56526568Y-94814706D01*
X56593980Y-94940825D01*
X56593981Y-94940828D01*
X56635495Y-95077679D01*
X56649512Y-95220000D01*
X56635495Y-95362321D01*
X56593981Y-95499172D01*
X56593980Y-95499175D01*
X56526568Y-95625294D01*
X56435843Y-95735843D01*
X56325294Y-95826568D01*
X56199175Y-95893980D01*
X56199172Y-95893981D01*
X56062321Y-95935495D01*
X55991213Y-95942498D01*
X55955660Y-95946000D01*
X55884340Y-95946000D01*
X55848787Y-95942498D01*
X55777679Y-95935495D01*
X55640828Y-95893981D01*
X55640825Y-95893980D01*
X55514706Y-95826568D01*
X55404157Y-95735843D01*
X55313432Y-95625294D01*
X55246020Y-95499175D01*
X55246019Y-95499172D01*
X55204505Y-95362321D01*
X55190488Y-95220000D01*
X55204505Y-95077679D01*
X55246019Y-94940828D01*
X55246020Y-94940825D01*
X55313432Y-94814706D01*
X55404157Y-94704157D01*
X55514706Y-94613432D01*
X55640825Y-94546020D01*
X55640828Y-94546019D01*
X55777679Y-94504505D01*
X55848787Y-94497502D01*
X55884340Y-94494000D01*
X55955660Y-94494000D01*
X55991213Y-94497502D01*
X55991213Y-94497502D01*
G37*
G36*
X53759468Y-94393565D02*
G01*
X53798138Y-94405296D01*
X53833777Y-94424346D01*
X53865017Y-94449983D01*
X53890654Y-94481223D01*
X53909704Y-94516862D01*
X53921435Y-94555532D01*
X53926000Y-94601888D01*
X53926000Y-95678112D01*
X53921435Y-95724468D01*
X53909704Y-95763138D01*
X53890654Y-95798777D01*
X53865017Y-95830017D01*
X53833777Y-95855654D01*
X53798138Y-95874704D01*
X53759468Y-95886435D01*
X53713112Y-95891000D01*
X53061888Y-95891000D01*
X53015532Y-95886435D01*
X52976862Y-95874704D01*
X52941223Y-95855654D01*
X52909983Y-95830017D01*
X52884346Y-95798777D01*
X52865296Y-95763138D01*
X52853565Y-95724468D01*
X52849000Y-95678112D01*
X52849000Y-94601888D01*
X52853565Y-94555532D01*
X52865296Y-94516862D01*
X52884346Y-94481223D01*
X52909983Y-94449983D01*
X52941223Y-94424346D01*
X52976862Y-94405296D01*
X53015532Y-94393565D01*
X53061888Y-94389000D01*
X53713112Y-94389000D01*
X53759468Y-94393565D01*
X53759468Y-94393565D01*
G37*
G36*
X51884468Y-94393565D02*
G01*
X51923138Y-94405296D01*
X51958777Y-94424346D01*
X51990017Y-94449983D01*
X52015654Y-94481223D01*
X52034704Y-94516862D01*
X52046435Y-94555532D01*
X52051000Y-94601888D01*
X52051000Y-95678112D01*
X52046435Y-95724468D01*
X52034704Y-95763138D01*
X52015654Y-95798777D01*
X51990017Y-95830017D01*
X51958777Y-95855654D01*
X51923138Y-95874704D01*
X51884468Y-95886435D01*
X51838112Y-95891000D01*
X51186888Y-95891000D01*
X51140532Y-95886435D01*
X51101862Y-95874704D01*
X51066223Y-95855654D01*
X51034983Y-95830017D01*
X51009346Y-95798777D01*
X50990296Y-95763138D01*
X50978565Y-95724468D01*
X50974000Y-95678112D01*
X50974000Y-94601888D01*
X50978565Y-94555532D01*
X50990296Y-94516862D01*
X51009346Y-94481223D01*
X51034983Y-94449983D01*
X51066223Y-94424346D01*
X51101862Y-94405296D01*
X51140532Y-94393565D01*
X51186888Y-94389000D01*
X51838112Y-94389000D01*
X51884468Y-94393565D01*
X51884468Y-94393565D01*
G37*
G36*
X71981000Y-95521000D02*
G01*
X69879000Y-95521000D01*
X69879000Y-91619000D01*
X71981000Y-91619000D01*
X71981000Y-95521000D01*
X71981000Y-95521000D01*
G37*
G36*
X93053642Y-93565781D02*
G01*
X93199414Y-93626162D01*
X93199416Y-93626163D01*
X93330608Y-93713822D01*
X93442178Y-93825392D01*
X93499379Y-93911000D01*
X93529838Y-93956586D01*
X93590219Y-94102358D01*
X93621000Y-94257107D01*
X93621000Y-94414893D01*
X93590219Y-94569642D01*
X93572080Y-94613433D01*
X93529837Y-94715416D01*
X93442178Y-94846608D01*
X93330608Y-94958178D01*
X93199416Y-95045837D01*
X93199415Y-95045838D01*
X93199414Y-95045838D01*
X93053642Y-95106219D01*
X92898893Y-95137000D01*
X92741107Y-95137000D01*
X92586358Y-95106219D01*
X92440586Y-95045838D01*
X92440585Y-95045838D01*
X92440584Y-95045837D01*
X92309392Y-94958178D01*
X92197822Y-94846608D01*
X92110163Y-94715416D01*
X92067920Y-94613433D01*
X92049781Y-94569642D01*
X92019000Y-94414893D01*
X92019000Y-94257107D01*
X92049781Y-94102358D01*
X92110162Y-93956586D01*
X92140621Y-93911000D01*
X92197822Y-93825392D01*
X92309392Y-93713822D01*
X92440584Y-93626163D01*
X92440586Y-93626162D01*
X92586358Y-93565781D01*
X92741107Y-93535000D01*
X92898893Y-93535000D01*
X93053642Y-93565781D01*
X93053642Y-93565781D01*
G37*
G36*
X97868800Y-94871000D02*
G01*
X95266800Y-94871000D01*
X95266800Y-91769000D01*
X97868800Y-91769000D01*
X97868800Y-94871000D01*
X97868800Y-94871000D01*
G37*
G36*
X66964928Y-92441764D02*
G01*
X66986009Y-92448160D01*
X67005445Y-92458548D01*
X67022476Y-92472524D01*
X67036452Y-92489555D01*
X67046840Y-92508991D01*
X67053236Y-92530072D01*
X67056000Y-92558140D01*
X67056000Y-94371860D01*
X67053236Y-94399928D01*
X67046840Y-94421009D01*
X67036452Y-94440445D01*
X67022476Y-94457476D01*
X67005445Y-94471452D01*
X66986009Y-94481840D01*
X66964928Y-94488236D01*
X66936860Y-94491000D01*
X66473140Y-94491000D01*
X66445072Y-94488236D01*
X66423991Y-94481840D01*
X66404555Y-94471452D01*
X66387524Y-94457476D01*
X66373548Y-94440445D01*
X66363160Y-94421009D01*
X66356764Y-94399928D01*
X66354000Y-94371860D01*
X66354000Y-92558140D01*
X66356764Y-92530072D01*
X66363160Y-92508991D01*
X66373548Y-92489555D01*
X66387524Y-92472524D01*
X66404555Y-92458548D01*
X66423991Y-92448160D01*
X66445072Y-92441764D01*
X66473140Y-92439000D01*
X66936860Y-92439000D01*
X66964928Y-92441764D01*
X66964928Y-92441764D01*
G37*
G36*
X65694928Y-92441764D02*
G01*
X65716009Y-92448160D01*
X65735445Y-92458548D01*
X65752476Y-92472524D01*
X65766452Y-92489555D01*
X65776840Y-92508991D01*
X65783236Y-92530072D01*
X65786000Y-92558140D01*
X65786000Y-94371860D01*
X65783236Y-94399928D01*
X65776840Y-94421009D01*
X65766452Y-94440445D01*
X65752476Y-94457476D01*
X65735445Y-94471452D01*
X65716009Y-94481840D01*
X65694928Y-94488236D01*
X65666860Y-94491000D01*
X65203140Y-94491000D01*
X65175072Y-94488236D01*
X65153991Y-94481840D01*
X65134555Y-94471452D01*
X65117524Y-94457476D01*
X65103548Y-94440445D01*
X65093160Y-94421009D01*
X65086764Y-94399928D01*
X65084000Y-94371860D01*
X65084000Y-92558140D01*
X65086764Y-92530072D01*
X65093160Y-92508991D01*
X65103548Y-92489555D01*
X65117524Y-92472524D01*
X65134555Y-92458548D01*
X65153991Y-92448160D01*
X65175072Y-92441764D01*
X65203140Y-92439000D01*
X65666860Y-92439000D01*
X65694928Y-92441764D01*
X65694928Y-92441764D01*
G37*
G36*
X64424928Y-92441764D02*
G01*
X64446009Y-92448160D01*
X64465445Y-92458548D01*
X64482476Y-92472524D01*
X64496452Y-92489555D01*
X64506840Y-92508991D01*
X64513236Y-92530072D01*
X64516000Y-92558140D01*
X64516000Y-94371860D01*
X64513236Y-94399928D01*
X64506840Y-94421009D01*
X64496452Y-94440445D01*
X64482476Y-94457476D01*
X64465445Y-94471452D01*
X64446009Y-94481840D01*
X64424928Y-94488236D01*
X64396860Y-94491000D01*
X63933140Y-94491000D01*
X63905072Y-94488236D01*
X63883991Y-94481840D01*
X63864555Y-94471452D01*
X63847524Y-94457476D01*
X63833548Y-94440445D01*
X63823160Y-94421009D01*
X63816764Y-94399928D01*
X63814000Y-94371860D01*
X63814000Y-92558140D01*
X63816764Y-92530072D01*
X63823160Y-92508991D01*
X63833548Y-92489555D01*
X63847524Y-92472524D01*
X63864555Y-92458548D01*
X63883991Y-92448160D01*
X63905072Y-92441764D01*
X63933140Y-92439000D01*
X64396860Y-92439000D01*
X64424928Y-92441764D01*
X64424928Y-92441764D01*
G37*
G36*
X63154928Y-92441764D02*
G01*
X63176009Y-92448160D01*
X63195445Y-92458548D01*
X63212476Y-92472524D01*
X63226452Y-92489555D01*
X63236840Y-92508991D01*
X63243236Y-92530072D01*
X63246000Y-92558140D01*
X63246000Y-94371860D01*
X63243236Y-94399928D01*
X63236840Y-94421009D01*
X63226452Y-94440445D01*
X63212476Y-94457476D01*
X63195445Y-94471452D01*
X63176009Y-94481840D01*
X63154928Y-94488236D01*
X63126860Y-94491000D01*
X62663140Y-94491000D01*
X62635072Y-94488236D01*
X62613991Y-94481840D01*
X62594555Y-94471452D01*
X62577524Y-94457476D01*
X62563548Y-94440445D01*
X62553160Y-94421009D01*
X62546764Y-94399928D01*
X62544000Y-94371860D01*
X62544000Y-92558140D01*
X62546764Y-92530072D01*
X62553160Y-92508991D01*
X62563548Y-92489555D01*
X62577524Y-92472524D01*
X62594555Y-92458548D01*
X62613991Y-92448160D01*
X62635072Y-92441764D01*
X62663140Y-92439000D01*
X63126860Y-92439000D01*
X63154928Y-92441764D01*
X63154928Y-92441764D01*
G37*
G36*
X61884928Y-92441764D02*
G01*
X61906009Y-92448160D01*
X61925445Y-92458548D01*
X61942476Y-92472524D01*
X61956452Y-92489555D01*
X61966840Y-92508991D01*
X61973236Y-92530072D01*
X61976000Y-92558140D01*
X61976000Y-94371860D01*
X61973236Y-94399928D01*
X61966840Y-94421009D01*
X61956452Y-94440445D01*
X61942476Y-94457476D01*
X61925445Y-94471452D01*
X61906009Y-94481840D01*
X61884928Y-94488236D01*
X61856860Y-94491000D01*
X61393140Y-94491000D01*
X61365072Y-94488236D01*
X61343991Y-94481840D01*
X61324555Y-94471452D01*
X61307524Y-94457476D01*
X61293548Y-94440445D01*
X61283160Y-94421009D01*
X61276764Y-94399928D01*
X61274000Y-94371860D01*
X61274000Y-92558140D01*
X61276764Y-92530072D01*
X61283160Y-92508991D01*
X61293548Y-92489555D01*
X61307524Y-92472524D01*
X61324555Y-92458548D01*
X61343991Y-92448160D01*
X61365072Y-92441764D01*
X61393140Y-92439000D01*
X61856860Y-92439000D01*
X61884928Y-92441764D01*
X61884928Y-92441764D01*
G37*
G36*
X60614928Y-92441764D02*
G01*
X60636009Y-92448160D01*
X60655445Y-92458548D01*
X60672476Y-92472524D01*
X60686452Y-92489555D01*
X60696840Y-92508991D01*
X60703236Y-92530072D01*
X60706000Y-92558140D01*
X60706000Y-94371860D01*
X60703236Y-94399928D01*
X60696840Y-94421009D01*
X60686452Y-94440445D01*
X60672476Y-94457476D01*
X60655445Y-94471452D01*
X60636009Y-94481840D01*
X60614928Y-94488236D01*
X60586860Y-94491000D01*
X60123140Y-94491000D01*
X60095072Y-94488236D01*
X60073991Y-94481840D01*
X60054555Y-94471452D01*
X60037524Y-94457476D01*
X60023548Y-94440445D01*
X60013160Y-94421009D01*
X60006764Y-94399928D01*
X60004000Y-94371860D01*
X60004000Y-92558140D01*
X60006764Y-92530072D01*
X60013160Y-92508991D01*
X60023548Y-92489555D01*
X60037524Y-92472524D01*
X60054555Y-92458548D01*
X60073991Y-92448160D01*
X60095072Y-92441764D01*
X60123140Y-92439000D01*
X60586860Y-92439000D01*
X60614928Y-92441764D01*
X60614928Y-92441764D01*
G37*
G36*
X59344928Y-92441764D02*
G01*
X59366009Y-92448160D01*
X59385445Y-92458548D01*
X59402476Y-92472524D01*
X59416452Y-92489555D01*
X59426840Y-92508991D01*
X59433236Y-92530072D01*
X59436000Y-92558140D01*
X59436000Y-94371860D01*
X59433236Y-94399928D01*
X59426840Y-94421009D01*
X59416452Y-94440445D01*
X59402476Y-94457476D01*
X59385445Y-94471452D01*
X59366009Y-94481840D01*
X59344928Y-94488236D01*
X59316860Y-94491000D01*
X58853140Y-94491000D01*
X58825072Y-94488236D01*
X58803991Y-94481840D01*
X58784555Y-94471452D01*
X58767524Y-94457476D01*
X58753548Y-94440445D01*
X58743160Y-94421009D01*
X58736764Y-94399928D01*
X58734000Y-94371860D01*
X58734000Y-92558140D01*
X58736764Y-92530072D01*
X58743160Y-92508991D01*
X58753548Y-92489555D01*
X58767524Y-92472524D01*
X58784555Y-92458548D01*
X58803991Y-92448160D01*
X58825072Y-92441764D01*
X58853140Y-92439000D01*
X59316860Y-92439000D01*
X59344928Y-92441764D01*
X59344928Y-92441764D01*
G37*
G36*
X68234928Y-92441764D02*
G01*
X68256009Y-92448160D01*
X68275445Y-92458548D01*
X68292476Y-92472524D01*
X68306452Y-92489555D01*
X68316840Y-92508991D01*
X68323236Y-92530072D01*
X68326000Y-92558140D01*
X68326000Y-94371860D01*
X68323236Y-94399928D01*
X68316840Y-94421009D01*
X68306452Y-94440445D01*
X68292476Y-94457476D01*
X68275445Y-94471452D01*
X68256009Y-94481840D01*
X68234928Y-94488236D01*
X68206860Y-94491000D01*
X67743140Y-94491000D01*
X67715072Y-94488236D01*
X67693991Y-94481840D01*
X67674555Y-94471452D01*
X67657524Y-94457476D01*
X67643548Y-94440445D01*
X67633160Y-94421009D01*
X67626764Y-94399928D01*
X67624000Y-94371860D01*
X67624000Y-92558140D01*
X67626764Y-92530072D01*
X67633160Y-92508991D01*
X67643548Y-92489555D01*
X67657524Y-92472524D01*
X67674555Y-92458548D01*
X67693991Y-92448160D01*
X67715072Y-92441764D01*
X67743140Y-92439000D01*
X68206860Y-92439000D01*
X68234928Y-92441764D01*
X68234928Y-92441764D01*
G37*
G36*
X78281000Y-94371000D02*
G01*
X76179000Y-94371000D01*
X76179000Y-92769000D01*
X78281000Y-92769000D01*
X78281000Y-94371000D01*
X78281000Y-94371000D01*
G37*
G36*
X55991213Y-92497502D02*
G01*
X56062321Y-92504505D01*
X56199172Y-92546019D01*
X56199175Y-92546020D01*
X56325294Y-92613432D01*
X56435843Y-92704157D01*
X56526568Y-92814706D01*
X56593980Y-92940825D01*
X56593981Y-92940828D01*
X56635495Y-93077679D01*
X56649512Y-93220000D01*
X56635495Y-93362321D01*
X56593981Y-93499172D01*
X56593980Y-93499175D01*
X56526568Y-93625294D01*
X56435843Y-93735843D01*
X56325294Y-93826568D01*
X56199175Y-93893980D01*
X56199172Y-93893981D01*
X56062321Y-93935495D01*
X55991213Y-93942498D01*
X55955660Y-93946000D01*
X55884340Y-93946000D01*
X55848787Y-93942498D01*
X55777679Y-93935495D01*
X55640828Y-93893981D01*
X55640825Y-93893980D01*
X55514706Y-93826568D01*
X55404157Y-93735843D01*
X55313432Y-93625294D01*
X55246020Y-93499175D01*
X55246019Y-93499172D01*
X55204505Y-93362321D01*
X55190488Y-93220000D01*
X55204505Y-93077679D01*
X55246019Y-92940828D01*
X55246020Y-92940825D01*
X55313432Y-92814706D01*
X55404157Y-92704157D01*
X55514706Y-92613432D01*
X55640825Y-92546020D01*
X55640828Y-92546019D01*
X55777679Y-92504505D01*
X55848787Y-92497502D01*
X55884340Y-92494000D01*
X55955660Y-92494000D01*
X55991213Y-92497502D01*
X55991213Y-92497502D01*
G37*
G36*
X53759468Y-92413565D02*
G01*
X53798138Y-92425296D01*
X53833777Y-92444346D01*
X53865017Y-92469983D01*
X53890654Y-92501223D01*
X53909704Y-92536862D01*
X53921435Y-92575532D01*
X53926000Y-92621888D01*
X53926000Y-93698112D01*
X53921435Y-93744468D01*
X53909704Y-93783138D01*
X53890654Y-93818777D01*
X53865017Y-93850017D01*
X53833777Y-93875654D01*
X53798138Y-93894704D01*
X53759468Y-93906435D01*
X53713112Y-93911000D01*
X53061888Y-93911000D01*
X53015532Y-93906435D01*
X52976862Y-93894704D01*
X52941223Y-93875654D01*
X52909983Y-93850017D01*
X52884346Y-93818777D01*
X52865296Y-93783138D01*
X52853565Y-93744468D01*
X52849000Y-93698112D01*
X52849000Y-92621888D01*
X52853565Y-92575532D01*
X52865296Y-92536862D01*
X52884346Y-92501223D01*
X52909983Y-92469983D01*
X52941223Y-92444346D01*
X52976862Y-92425296D01*
X53015532Y-92413565D01*
X53061888Y-92409000D01*
X53713112Y-92409000D01*
X53759468Y-92413565D01*
X53759468Y-92413565D01*
G37*
G36*
X51884468Y-92413565D02*
G01*
X51923138Y-92425296D01*
X51958777Y-92444346D01*
X51990017Y-92469983D01*
X52015654Y-92501223D01*
X52034704Y-92536862D01*
X52046435Y-92575532D01*
X52051000Y-92621888D01*
X52051000Y-93698112D01*
X52046435Y-93744468D01*
X52034704Y-93783138D01*
X52015654Y-93818777D01*
X51990017Y-93850017D01*
X51958777Y-93875654D01*
X51923138Y-93894704D01*
X51884468Y-93906435D01*
X51838112Y-93911000D01*
X51186888Y-93911000D01*
X51140532Y-93906435D01*
X51101862Y-93894704D01*
X51066223Y-93875654D01*
X51034983Y-93850017D01*
X51009346Y-93818777D01*
X50990296Y-93783138D01*
X50978565Y-93744468D01*
X50974000Y-93698112D01*
X50974000Y-92621888D01*
X50978565Y-92575532D01*
X50990296Y-92536862D01*
X51009346Y-92501223D01*
X51034983Y-92469983D01*
X51066223Y-92444346D01*
X51101862Y-92425296D01*
X51140532Y-92413565D01*
X51186888Y-92409000D01*
X51838112Y-92409000D01*
X51884468Y-92413565D01*
X51884468Y-92413565D01*
G37*
G36*
X93053642Y-91406781D02*
G01*
X93199414Y-91467162D01*
X93199416Y-91467163D01*
X93330608Y-91554822D01*
X93442178Y-91666392D01*
X93488583Y-91735843D01*
X93529838Y-91797586D01*
X93590219Y-91943358D01*
X93621000Y-92098107D01*
X93621000Y-92255893D01*
X93590219Y-92410642D01*
X93549481Y-92508991D01*
X93529837Y-92556416D01*
X93442178Y-92687608D01*
X93330608Y-92799178D01*
X93199416Y-92886837D01*
X93199415Y-92886838D01*
X93199414Y-92886838D01*
X93053642Y-92947219D01*
X92898893Y-92978000D01*
X92741107Y-92978000D01*
X92586358Y-92947219D01*
X92440586Y-92886838D01*
X92440585Y-92886838D01*
X92440584Y-92886837D01*
X92309392Y-92799178D01*
X92197822Y-92687608D01*
X92110163Y-92556416D01*
X92090519Y-92508991D01*
X92049781Y-92410642D01*
X92019000Y-92255893D01*
X92019000Y-92098107D01*
X92049781Y-91943358D01*
X92110162Y-91797586D01*
X92151417Y-91735843D01*
X92197822Y-91666392D01*
X92309392Y-91554822D01*
X92440584Y-91467163D01*
X92440586Y-91467162D01*
X92586358Y-91406781D01*
X92741107Y-91376000D01*
X92898893Y-91376000D01*
X93053642Y-91406781D01*
X93053642Y-91406781D01*
G37*
G36*
X81195562Y-90178181D02*
G01*
X81230481Y-90188774D01*
X81262663Y-90205976D01*
X81290873Y-90229127D01*
X81314024Y-90257337D01*
X81331226Y-90289519D01*
X81341819Y-90324438D01*
X81346000Y-90366895D01*
X81346000Y-92733105D01*
X81341819Y-92775562D01*
X81331226Y-92810481D01*
X81314024Y-92842663D01*
X81290873Y-92870873D01*
X81262663Y-92894024D01*
X81230481Y-92911226D01*
X81195562Y-92921819D01*
X81153105Y-92926000D01*
X80011895Y-92926000D01*
X79969438Y-92921819D01*
X79934519Y-92911226D01*
X79902337Y-92894024D01*
X79874127Y-92870873D01*
X79850976Y-92842663D01*
X79833774Y-92810481D01*
X79823181Y-92775562D01*
X79819000Y-92733105D01*
X79819000Y-90366895D01*
X79823181Y-90324438D01*
X79833774Y-90289519D01*
X79850976Y-90257337D01*
X79874127Y-90229127D01*
X79902337Y-90205976D01*
X79934519Y-90188774D01*
X79969438Y-90178181D01*
X80011895Y-90174000D01*
X81153105Y-90174000D01*
X81195562Y-90178181D01*
X81195562Y-90178181D01*
G37*
G36*
X84170562Y-90178181D02*
G01*
X84205481Y-90188774D01*
X84237663Y-90205976D01*
X84265873Y-90229127D01*
X84289024Y-90257337D01*
X84306226Y-90289519D01*
X84316819Y-90324438D01*
X84321000Y-90366895D01*
X84321000Y-92733105D01*
X84316819Y-92775562D01*
X84306226Y-92810481D01*
X84289024Y-92842663D01*
X84265873Y-92870873D01*
X84237663Y-92894024D01*
X84205481Y-92911226D01*
X84170562Y-92921819D01*
X84128105Y-92926000D01*
X82986895Y-92926000D01*
X82944438Y-92921819D01*
X82909519Y-92911226D01*
X82877337Y-92894024D01*
X82849127Y-92870873D01*
X82825976Y-92842663D01*
X82808774Y-92810481D01*
X82798181Y-92775562D01*
X82794000Y-92733105D01*
X82794000Y-90366895D01*
X82798181Y-90324438D01*
X82808774Y-90289519D01*
X82825976Y-90257337D01*
X82849127Y-90229127D01*
X82877337Y-90205976D01*
X82909519Y-90188774D01*
X82944438Y-90178181D01*
X82986895Y-90174000D01*
X84128105Y-90174000D01*
X84170562Y-90178181D01*
X84170562Y-90178181D01*
G37*
G36*
X78281000Y-92071000D02*
G01*
X76179000Y-92071000D01*
X76179000Y-90469000D01*
X78281000Y-90469000D01*
X78281000Y-92071000D01*
X78281000Y-92071000D01*
G37*
G36*
X53779468Y-90453565D02*
G01*
X53818138Y-90465296D01*
X53853777Y-90484346D01*
X53885017Y-90509983D01*
X53910654Y-90541223D01*
X53929704Y-90576862D01*
X53941435Y-90615532D01*
X53946000Y-90661888D01*
X53946000Y-91738112D01*
X53941435Y-91784468D01*
X53929704Y-91823138D01*
X53910654Y-91858777D01*
X53885017Y-91890017D01*
X53853777Y-91915654D01*
X53818138Y-91934704D01*
X53779468Y-91946435D01*
X53733112Y-91951000D01*
X53081888Y-91951000D01*
X53035532Y-91946435D01*
X52996862Y-91934704D01*
X52961223Y-91915654D01*
X52929983Y-91890017D01*
X52904346Y-91858777D01*
X52885296Y-91823138D01*
X52873565Y-91784468D01*
X52869000Y-91738112D01*
X52869000Y-90661888D01*
X52873565Y-90615532D01*
X52885296Y-90576862D01*
X52904346Y-90541223D01*
X52929983Y-90509983D01*
X52961223Y-90484346D01*
X52996862Y-90465296D01*
X53035532Y-90453565D01*
X53081888Y-90449000D01*
X53733112Y-90449000D01*
X53779468Y-90453565D01*
X53779468Y-90453565D01*
G37*
G36*
X51904468Y-90453565D02*
G01*
X51943138Y-90465296D01*
X51978777Y-90484346D01*
X52010017Y-90509983D01*
X52035654Y-90541223D01*
X52054704Y-90576862D01*
X52066435Y-90615532D01*
X52071000Y-90661888D01*
X52071000Y-91738112D01*
X52066435Y-91784468D01*
X52054704Y-91823138D01*
X52035654Y-91858777D01*
X52010017Y-91890017D01*
X51978777Y-91915654D01*
X51943138Y-91934704D01*
X51904468Y-91946435D01*
X51858112Y-91951000D01*
X51206888Y-91951000D01*
X51160532Y-91946435D01*
X51121862Y-91934704D01*
X51086223Y-91915654D01*
X51054983Y-91890017D01*
X51029346Y-91858777D01*
X51010296Y-91823138D01*
X50998565Y-91784468D01*
X50994000Y-91738112D01*
X50994000Y-90661888D01*
X50998565Y-90615532D01*
X51010296Y-90576862D01*
X51029346Y-90541223D01*
X51054983Y-90509983D01*
X51086223Y-90484346D01*
X51121862Y-90465296D01*
X51160532Y-90453565D01*
X51206888Y-90449000D01*
X51858112Y-90449000D01*
X51904468Y-90453565D01*
X51904468Y-90453565D01*
G37*
G36*
X55991213Y-90497502D02*
G01*
X56062321Y-90504505D01*
X56199172Y-90546019D01*
X56199175Y-90546020D01*
X56325294Y-90613432D01*
X56435843Y-90704157D01*
X56526568Y-90814706D01*
X56593980Y-90940825D01*
X56593981Y-90940828D01*
X56635495Y-91077679D01*
X56649512Y-91220000D01*
X56635495Y-91362321D01*
X56603691Y-91467162D01*
X56593980Y-91499175D01*
X56526568Y-91625294D01*
X56435843Y-91735843D01*
X56325294Y-91826568D01*
X56199175Y-91893980D01*
X56199172Y-91893981D01*
X56062321Y-91935495D01*
X55991213Y-91942498D01*
X55955660Y-91946000D01*
X55884340Y-91946000D01*
X55848787Y-91942498D01*
X55777679Y-91935495D01*
X55640828Y-91893981D01*
X55640825Y-91893980D01*
X55514706Y-91826568D01*
X55404157Y-91735843D01*
X55313432Y-91625294D01*
X55246020Y-91499175D01*
X55236309Y-91467162D01*
X55204505Y-91362321D01*
X55190488Y-91220000D01*
X55204505Y-91077679D01*
X55246019Y-90940828D01*
X55246020Y-90940825D01*
X55313432Y-90814706D01*
X55404157Y-90704157D01*
X55514706Y-90613432D01*
X55640825Y-90546020D01*
X55640828Y-90546019D01*
X55777679Y-90504505D01*
X55848787Y-90497502D01*
X55884340Y-90494000D01*
X55955660Y-90494000D01*
X55991213Y-90497502D01*
X55991213Y-90497502D01*
G37*
G36*
X61349468Y-89793565D02*
G01*
X61388138Y-89805296D01*
X61423777Y-89824346D01*
X61455017Y-89849983D01*
X61480654Y-89881223D01*
X61499704Y-89916862D01*
X61511435Y-89955532D01*
X61516000Y-90001888D01*
X61516000Y-91078112D01*
X61511435Y-91124468D01*
X61499704Y-91163138D01*
X61480654Y-91198777D01*
X61455017Y-91230017D01*
X61423777Y-91255654D01*
X61388138Y-91274704D01*
X61349468Y-91286435D01*
X61303112Y-91291000D01*
X60651888Y-91291000D01*
X60605532Y-91286435D01*
X60566862Y-91274704D01*
X60531223Y-91255654D01*
X60499983Y-91230017D01*
X60474346Y-91198777D01*
X60455296Y-91163138D01*
X60443565Y-91124468D01*
X60439000Y-91078112D01*
X60439000Y-90001888D01*
X60443565Y-89955532D01*
X60455296Y-89916862D01*
X60474346Y-89881223D01*
X60499983Y-89849983D01*
X60531223Y-89824346D01*
X60566862Y-89805296D01*
X60605532Y-89793565D01*
X60651888Y-89789000D01*
X61303112Y-89789000D01*
X61349468Y-89793565D01*
X61349468Y-89793565D01*
G37*
G36*
X59474468Y-89793565D02*
G01*
X59513138Y-89805296D01*
X59548777Y-89824346D01*
X59580017Y-89849983D01*
X59605654Y-89881223D01*
X59624704Y-89916862D01*
X59636435Y-89955532D01*
X59641000Y-90001888D01*
X59641000Y-91078112D01*
X59636435Y-91124468D01*
X59624704Y-91163138D01*
X59605654Y-91198777D01*
X59580017Y-91230017D01*
X59548777Y-91255654D01*
X59513138Y-91274704D01*
X59474468Y-91286435D01*
X59428112Y-91291000D01*
X58776888Y-91291000D01*
X58730532Y-91286435D01*
X58691862Y-91274704D01*
X58656223Y-91255654D01*
X58624983Y-91230017D01*
X58599346Y-91198777D01*
X58580296Y-91163138D01*
X58568565Y-91124468D01*
X58564000Y-91078112D01*
X58564000Y-90001888D01*
X58568565Y-89955532D01*
X58580296Y-89916862D01*
X58599346Y-89881223D01*
X58624983Y-89849983D01*
X58656223Y-89824346D01*
X58691862Y-89805296D01*
X58730532Y-89793565D01*
X58776888Y-89789000D01*
X59428112Y-89789000D01*
X59474468Y-89793565D01*
X59474468Y-89793565D01*
G37*
G36*
X93053642Y-89374781D02*
G01*
X93144563Y-89412442D01*
X93199416Y-89435163D01*
X93330608Y-89522822D01*
X93442178Y-89634392D01*
X93529837Y-89765584D01*
X93529838Y-89765586D01*
X93590219Y-89911358D01*
X93621000Y-90066107D01*
X93621000Y-90223893D01*
X93590219Y-90378642D01*
X93529838Y-90524414D01*
X93529837Y-90524416D01*
X93442178Y-90655608D01*
X93330608Y-90767178D01*
X93199416Y-90854837D01*
X93199415Y-90854838D01*
X93199414Y-90854838D01*
X93053642Y-90915219D01*
X92898893Y-90946000D01*
X92741107Y-90946000D01*
X92586358Y-90915219D01*
X92440586Y-90854838D01*
X92440585Y-90854838D01*
X92440584Y-90854837D01*
X92309392Y-90767178D01*
X92197822Y-90655608D01*
X92110163Y-90524416D01*
X92110162Y-90524414D01*
X92049781Y-90378642D01*
X92019000Y-90223893D01*
X92019000Y-90066107D01*
X92049781Y-89911358D01*
X92110162Y-89765586D01*
X92110163Y-89765584D01*
X92197822Y-89634392D01*
X92309392Y-89522822D01*
X92440584Y-89435163D01*
X92495437Y-89412442D01*
X92586358Y-89374781D01*
X92741107Y-89344000D01*
X92898893Y-89344000D01*
X93053642Y-89374781D01*
X93053642Y-89374781D01*
G37*
G36*
X90513642Y-89374781D02*
G01*
X90604563Y-89412442D01*
X90659416Y-89435163D01*
X90790608Y-89522822D01*
X90902178Y-89634392D01*
X90989837Y-89765584D01*
X90989838Y-89765586D01*
X91050219Y-89911358D01*
X91081000Y-90066107D01*
X91081000Y-90223893D01*
X91050219Y-90378642D01*
X90989838Y-90524414D01*
X90989837Y-90524416D01*
X90902178Y-90655608D01*
X90790608Y-90767178D01*
X90659416Y-90854837D01*
X90659415Y-90854838D01*
X90659414Y-90854838D01*
X90513642Y-90915219D01*
X90358893Y-90946000D01*
X90201107Y-90946000D01*
X90046358Y-90915219D01*
X89900586Y-90854838D01*
X89900585Y-90854838D01*
X89900584Y-90854837D01*
X89769392Y-90767178D01*
X89657822Y-90655608D01*
X89570163Y-90524416D01*
X89570162Y-90524414D01*
X89509781Y-90378642D01*
X89479000Y-90223893D01*
X89479000Y-90066107D01*
X89509781Y-89911358D01*
X89570162Y-89765586D01*
X89570163Y-89765584D01*
X89657822Y-89634392D01*
X89769392Y-89522822D01*
X89900584Y-89435163D01*
X89955437Y-89412442D01*
X90046358Y-89374781D01*
X90201107Y-89344000D01*
X90358893Y-89344000D01*
X90513642Y-89374781D01*
X90513642Y-89374781D01*
G37*
G36*
X67469468Y-89123565D02*
G01*
X67508138Y-89135296D01*
X67543777Y-89154346D01*
X67575017Y-89179983D01*
X67600654Y-89211223D01*
X67619704Y-89246862D01*
X67631435Y-89285532D01*
X67636000Y-89331888D01*
X67636000Y-90408112D01*
X67631435Y-90454468D01*
X67619704Y-90493138D01*
X67600654Y-90528777D01*
X67575017Y-90560017D01*
X67543777Y-90585654D01*
X67508138Y-90604704D01*
X67469468Y-90616435D01*
X67423112Y-90621000D01*
X66771888Y-90621000D01*
X66725532Y-90616435D01*
X66686862Y-90604704D01*
X66651223Y-90585654D01*
X66619983Y-90560017D01*
X66594346Y-90528777D01*
X66575296Y-90493138D01*
X66563565Y-90454468D01*
X66559000Y-90408112D01*
X66559000Y-89331888D01*
X66563565Y-89285532D01*
X66575296Y-89246862D01*
X66594346Y-89211223D01*
X66619983Y-89179983D01*
X66651223Y-89154346D01*
X66686862Y-89135296D01*
X66725532Y-89123565D01*
X66771888Y-89119000D01*
X67423112Y-89119000D01*
X67469468Y-89123565D01*
X67469468Y-89123565D01*
G37*
G36*
X65594468Y-89123565D02*
G01*
X65633138Y-89135296D01*
X65668777Y-89154346D01*
X65700017Y-89179983D01*
X65725654Y-89211223D01*
X65744704Y-89246862D01*
X65756435Y-89285532D01*
X65761000Y-89331888D01*
X65761000Y-90408112D01*
X65756435Y-90454468D01*
X65744704Y-90493138D01*
X65725654Y-90528777D01*
X65700017Y-90560017D01*
X65668777Y-90585654D01*
X65633138Y-90604704D01*
X65594468Y-90616435D01*
X65548112Y-90621000D01*
X64896888Y-90621000D01*
X64850532Y-90616435D01*
X64811862Y-90604704D01*
X64776223Y-90585654D01*
X64744983Y-90560017D01*
X64719346Y-90528777D01*
X64700296Y-90493138D01*
X64688565Y-90454468D01*
X64684000Y-90408112D01*
X64684000Y-89331888D01*
X64688565Y-89285532D01*
X64700296Y-89246862D01*
X64719346Y-89211223D01*
X64744983Y-89179983D01*
X64776223Y-89154346D01*
X64811862Y-89135296D01*
X64850532Y-89123565D01*
X64896888Y-89119000D01*
X65548112Y-89119000D01*
X65594468Y-89123565D01*
X65594468Y-89123565D01*
G37*
G36*
X53779468Y-88463565D02*
G01*
X53818138Y-88475296D01*
X53853777Y-88494346D01*
X53885017Y-88519983D01*
X53910654Y-88551223D01*
X53929704Y-88586862D01*
X53941435Y-88625532D01*
X53946000Y-88671888D01*
X53946000Y-89748112D01*
X53941435Y-89794468D01*
X53929704Y-89833138D01*
X53910654Y-89868777D01*
X53885017Y-89900017D01*
X53853777Y-89925654D01*
X53818138Y-89944704D01*
X53779468Y-89956435D01*
X53733112Y-89961000D01*
X53081888Y-89961000D01*
X53035532Y-89956435D01*
X52996862Y-89944704D01*
X52961223Y-89925654D01*
X52929983Y-89900017D01*
X52904346Y-89868777D01*
X52885296Y-89833138D01*
X52873565Y-89794468D01*
X52869000Y-89748112D01*
X52869000Y-88671888D01*
X52873565Y-88625532D01*
X52885296Y-88586862D01*
X52904346Y-88551223D01*
X52929983Y-88519983D01*
X52961223Y-88494346D01*
X52996862Y-88475296D01*
X53035532Y-88463565D01*
X53081888Y-88459000D01*
X53733112Y-88459000D01*
X53779468Y-88463565D01*
X53779468Y-88463565D01*
G37*
G36*
X51904468Y-88463565D02*
G01*
X51943138Y-88475296D01*
X51978777Y-88494346D01*
X52010017Y-88519983D01*
X52035654Y-88551223D01*
X52054704Y-88586862D01*
X52066435Y-88625532D01*
X52071000Y-88671888D01*
X52071000Y-89748112D01*
X52066435Y-89794468D01*
X52054704Y-89833138D01*
X52035654Y-89868777D01*
X52010017Y-89900017D01*
X51978777Y-89925654D01*
X51943138Y-89944704D01*
X51904468Y-89956435D01*
X51858112Y-89961000D01*
X51206888Y-89961000D01*
X51160532Y-89956435D01*
X51121862Y-89944704D01*
X51086223Y-89925654D01*
X51054983Y-89900017D01*
X51029346Y-89868777D01*
X51010296Y-89833138D01*
X50998565Y-89794468D01*
X50994000Y-89748112D01*
X50994000Y-88671888D01*
X50998565Y-88625532D01*
X51010296Y-88586862D01*
X51029346Y-88551223D01*
X51054983Y-88519983D01*
X51086223Y-88494346D01*
X51121862Y-88475296D01*
X51160532Y-88463565D01*
X51206888Y-88459000D01*
X51858112Y-88459000D01*
X51904468Y-88463565D01*
X51904468Y-88463565D01*
G37*
G36*
X55991213Y-88497502D02*
G01*
X56062321Y-88504505D01*
X56172279Y-88537861D01*
X56199175Y-88546020D01*
X56325294Y-88613432D01*
X56435843Y-88704157D01*
X56526568Y-88814706D01*
X56593980Y-88940825D01*
X56593981Y-88940828D01*
X56635495Y-89077679D01*
X56649512Y-89220000D01*
X56635495Y-89362321D01*
X56602653Y-89470584D01*
X56593980Y-89499175D01*
X56526568Y-89625294D01*
X56435843Y-89735843D01*
X56325294Y-89826568D01*
X56199175Y-89893980D01*
X56199172Y-89893981D01*
X56062321Y-89935495D01*
X56011452Y-89940505D01*
X55955660Y-89946000D01*
X55884340Y-89946000D01*
X55828548Y-89940505D01*
X55777679Y-89935495D01*
X55640828Y-89893981D01*
X55640825Y-89893980D01*
X55514706Y-89826568D01*
X55404157Y-89735843D01*
X55313432Y-89625294D01*
X55246020Y-89499175D01*
X55237347Y-89470584D01*
X55204505Y-89362321D01*
X55190488Y-89220000D01*
X55204505Y-89077679D01*
X55246019Y-88940828D01*
X55246020Y-88940825D01*
X55313432Y-88814706D01*
X55404157Y-88704157D01*
X55514706Y-88613432D01*
X55640825Y-88546020D01*
X55667721Y-88537861D01*
X55777679Y-88504505D01*
X55848787Y-88497502D01*
X55884340Y-88494000D01*
X55955660Y-88494000D01*
X55991213Y-88497502D01*
X55991213Y-88497502D01*
G37*
G36*
X74109675Y-87593202D02*
G01*
X74144798Y-87603857D01*
X74177175Y-87621163D01*
X74205550Y-87644450D01*
X74228837Y-87672825D01*
X74246143Y-87705202D01*
X74256798Y-87740325D01*
X74261000Y-87782995D01*
X74261000Y-89297005D01*
X74256798Y-89339675D01*
X74246143Y-89374798D01*
X74228837Y-89407175D01*
X74205550Y-89435550D01*
X74177175Y-89458837D01*
X74144798Y-89476143D01*
X74109675Y-89486798D01*
X74067005Y-89491000D01*
X72952995Y-89491000D01*
X72910325Y-89486798D01*
X72875202Y-89476143D01*
X72842825Y-89458837D01*
X72814450Y-89435550D01*
X72791163Y-89407175D01*
X72773857Y-89374798D01*
X72763202Y-89339675D01*
X72759000Y-89297005D01*
X72759000Y-87782995D01*
X72763202Y-87740325D01*
X72773857Y-87705202D01*
X72791163Y-87672825D01*
X72814450Y-87644450D01*
X72842825Y-87621163D01*
X72875202Y-87603857D01*
X72910325Y-87593202D01*
X72952995Y-87589000D01*
X74067005Y-87589000D01*
X74109675Y-87593202D01*
X74109675Y-87593202D01*
G37*
G36*
X78109675Y-87593202D02*
G01*
X78144798Y-87603857D01*
X78177175Y-87621163D01*
X78205550Y-87644450D01*
X78228837Y-87672825D01*
X78246143Y-87705202D01*
X78256798Y-87740325D01*
X78261000Y-87782995D01*
X78261000Y-89297005D01*
X78256798Y-89339675D01*
X78246143Y-89374798D01*
X78228837Y-89407175D01*
X78205550Y-89435550D01*
X78177175Y-89458837D01*
X78144798Y-89476143D01*
X78109675Y-89486798D01*
X78067005Y-89491000D01*
X76952995Y-89491000D01*
X76910325Y-89486798D01*
X76875202Y-89476143D01*
X76842825Y-89458837D01*
X76814450Y-89435550D01*
X76791163Y-89407175D01*
X76773857Y-89374798D01*
X76763202Y-89339675D01*
X76759000Y-89297005D01*
X76759000Y-87782995D01*
X76763202Y-87740325D01*
X76773857Y-87705202D01*
X76791163Y-87672825D01*
X76814450Y-87644450D01*
X76842825Y-87621163D01*
X76875202Y-87603857D01*
X76910325Y-87593202D01*
X76952995Y-87589000D01*
X78067005Y-87589000D01*
X78109675Y-87593202D01*
X78109675Y-87593202D01*
G37*
G36*
X59758604Y-87418347D02*
G01*
X59795144Y-87429432D01*
X59828821Y-87447433D01*
X59858341Y-87471659D01*
X59882567Y-87501179D01*
X59900568Y-87534856D01*
X59911653Y-87571396D01*
X59916000Y-87615538D01*
X59916000Y-89064462D01*
X59911653Y-89108604D01*
X59900568Y-89145144D01*
X59882567Y-89178821D01*
X59858341Y-89208341D01*
X59828821Y-89232567D01*
X59795144Y-89250568D01*
X59758604Y-89261653D01*
X59714462Y-89266000D01*
X58765538Y-89266000D01*
X58721396Y-89261653D01*
X58684856Y-89250568D01*
X58651179Y-89232567D01*
X58621659Y-89208341D01*
X58597433Y-89178821D01*
X58579432Y-89145144D01*
X58568347Y-89108604D01*
X58564000Y-89064462D01*
X58564000Y-87615538D01*
X58568347Y-87571396D01*
X58579432Y-87534856D01*
X58597433Y-87501179D01*
X58621659Y-87471659D01*
X58651179Y-87447433D01*
X58684856Y-87429432D01*
X58721396Y-87418347D01*
X58765538Y-87414000D01*
X59714462Y-87414000D01*
X59758604Y-87418347D01*
X59758604Y-87418347D01*
G37*
G36*
X62558604Y-87418347D02*
G01*
X62595144Y-87429432D01*
X62628821Y-87447433D01*
X62658341Y-87471659D01*
X62682567Y-87501179D01*
X62700568Y-87534856D01*
X62711653Y-87571396D01*
X62716000Y-87615538D01*
X62716000Y-89064462D01*
X62711653Y-89108604D01*
X62700568Y-89145144D01*
X62682567Y-89178821D01*
X62658341Y-89208341D01*
X62628821Y-89232567D01*
X62595144Y-89250568D01*
X62558604Y-89261653D01*
X62514462Y-89266000D01*
X61565538Y-89266000D01*
X61521396Y-89261653D01*
X61484856Y-89250568D01*
X61451179Y-89232567D01*
X61421659Y-89208341D01*
X61397433Y-89178821D01*
X61379432Y-89145144D01*
X61368347Y-89108604D01*
X61364000Y-89064462D01*
X61364000Y-87615538D01*
X61368347Y-87571396D01*
X61379432Y-87534856D01*
X61397433Y-87501179D01*
X61421659Y-87471659D01*
X61451179Y-87447433D01*
X61484856Y-87429432D01*
X61521396Y-87418347D01*
X61565538Y-87414000D01*
X62514462Y-87414000D01*
X62558604Y-87418347D01*
X62558604Y-87418347D01*
G37*
G36*
X51884468Y-86493565D02*
G01*
X51923138Y-86505296D01*
X51958777Y-86524346D01*
X51990017Y-86549983D01*
X52015654Y-86581223D01*
X52034704Y-86616862D01*
X52046435Y-86655532D01*
X52051000Y-86701888D01*
X52051000Y-87778112D01*
X52046435Y-87824468D01*
X52034704Y-87863138D01*
X52015654Y-87898777D01*
X51990017Y-87930017D01*
X51958777Y-87955654D01*
X51923138Y-87974704D01*
X51884468Y-87986435D01*
X51838112Y-87991000D01*
X51186888Y-87991000D01*
X51140532Y-87986435D01*
X51101862Y-87974704D01*
X51066223Y-87955654D01*
X51034983Y-87930017D01*
X51009346Y-87898777D01*
X50990296Y-87863138D01*
X50978565Y-87824468D01*
X50974000Y-87778112D01*
X50974000Y-86701888D01*
X50978565Y-86655532D01*
X50990296Y-86616862D01*
X51009346Y-86581223D01*
X51034983Y-86549983D01*
X51066223Y-86524346D01*
X51101862Y-86505296D01*
X51140532Y-86493565D01*
X51186888Y-86489000D01*
X51838112Y-86489000D01*
X51884468Y-86493565D01*
X51884468Y-86493565D01*
G37*
G36*
X53759468Y-86493565D02*
G01*
X53798138Y-86505296D01*
X53833777Y-86524346D01*
X53865017Y-86549983D01*
X53890654Y-86581223D01*
X53909704Y-86616862D01*
X53921435Y-86655532D01*
X53926000Y-86701888D01*
X53926000Y-87778112D01*
X53921435Y-87824468D01*
X53909704Y-87863138D01*
X53890654Y-87898777D01*
X53865017Y-87930017D01*
X53833777Y-87955654D01*
X53798138Y-87974704D01*
X53759468Y-87986435D01*
X53713112Y-87991000D01*
X53061888Y-87991000D01*
X53015532Y-87986435D01*
X52976862Y-87974704D01*
X52941223Y-87955654D01*
X52909983Y-87930017D01*
X52884346Y-87898777D01*
X52865296Y-87863138D01*
X52853565Y-87824468D01*
X52849000Y-87778112D01*
X52849000Y-86701888D01*
X52853565Y-86655532D01*
X52865296Y-86616862D01*
X52884346Y-86581223D01*
X52909983Y-86549983D01*
X52941223Y-86524346D01*
X52976862Y-86505296D01*
X53015532Y-86493565D01*
X53061888Y-86489000D01*
X53713112Y-86489000D01*
X53759468Y-86493565D01*
X53759468Y-86493565D01*
G37*
G36*
X55991213Y-86497502D02*
G01*
X56062321Y-86504505D01*
X56199172Y-86546019D01*
X56199175Y-86546020D01*
X56325294Y-86613432D01*
X56435843Y-86704157D01*
X56526568Y-86814706D01*
X56593980Y-86940825D01*
X56593981Y-86940828D01*
X56635495Y-87077679D01*
X56649512Y-87220000D01*
X56635495Y-87362321D01*
X56605994Y-87459571D01*
X56593980Y-87499175D01*
X56526568Y-87625294D01*
X56435843Y-87735843D01*
X56325294Y-87826568D01*
X56199175Y-87893980D01*
X56199172Y-87893981D01*
X56062321Y-87935495D01*
X55991213Y-87942498D01*
X55955660Y-87946000D01*
X55884340Y-87946000D01*
X55848787Y-87942498D01*
X55777679Y-87935495D01*
X55640828Y-87893981D01*
X55640825Y-87893980D01*
X55514706Y-87826568D01*
X55404157Y-87735843D01*
X55313432Y-87625294D01*
X55246020Y-87499175D01*
X55234006Y-87459571D01*
X55204505Y-87362321D01*
X55190488Y-87220000D01*
X55204505Y-87077679D01*
X55246019Y-86940828D01*
X55246020Y-86940825D01*
X55313432Y-86814706D01*
X55404157Y-86704157D01*
X55514706Y-86613432D01*
X55640825Y-86546020D01*
X55640828Y-86546019D01*
X55777679Y-86504505D01*
X55848787Y-86497502D01*
X55884340Y-86494000D01*
X55955660Y-86494000D01*
X55991213Y-86497502D01*
X55991213Y-86497502D01*
G37*
G36*
X96911000Y-87636000D02*
G01*
X93809000Y-87636000D01*
X93809000Y-85034000D01*
X96911000Y-85034000D01*
X96911000Y-87636000D01*
X96911000Y-87636000D01*
G37*
G36*
X70969468Y-86003565D02*
G01*
X71008138Y-86015296D01*
X71043777Y-86034346D01*
X71075017Y-86059983D01*
X71100654Y-86091223D01*
X71119704Y-86126862D01*
X71131435Y-86165532D01*
X71136000Y-86211888D01*
X71136000Y-87288112D01*
X71131435Y-87334468D01*
X71119704Y-87373138D01*
X71100654Y-87408777D01*
X71075017Y-87440017D01*
X71043777Y-87465654D01*
X71008138Y-87484704D01*
X70969468Y-87496435D01*
X70923112Y-87501000D01*
X70271888Y-87501000D01*
X70225532Y-87496435D01*
X70186862Y-87484704D01*
X70151223Y-87465654D01*
X70119983Y-87440017D01*
X70094346Y-87408777D01*
X70075296Y-87373138D01*
X70063565Y-87334468D01*
X70059000Y-87288112D01*
X70059000Y-86211888D01*
X70063565Y-86165532D01*
X70075296Y-86126862D01*
X70094346Y-86091223D01*
X70119983Y-86059983D01*
X70151223Y-86034346D01*
X70186862Y-86015296D01*
X70225532Y-86003565D01*
X70271888Y-85999000D01*
X70923112Y-85999000D01*
X70969468Y-86003565D01*
X70969468Y-86003565D01*
G37*
G36*
X69094468Y-86003565D02*
G01*
X69133138Y-86015296D01*
X69168777Y-86034346D01*
X69200017Y-86059983D01*
X69225654Y-86091223D01*
X69244704Y-86126862D01*
X69256435Y-86165532D01*
X69261000Y-86211888D01*
X69261000Y-87288112D01*
X69256435Y-87334468D01*
X69244704Y-87373138D01*
X69225654Y-87408777D01*
X69200017Y-87440017D01*
X69168777Y-87465654D01*
X69133138Y-87484704D01*
X69094468Y-87496435D01*
X69048112Y-87501000D01*
X68396888Y-87501000D01*
X68350532Y-87496435D01*
X68311862Y-87484704D01*
X68276223Y-87465654D01*
X68244983Y-87440017D01*
X68219346Y-87408777D01*
X68200296Y-87373138D01*
X68188565Y-87334468D01*
X68184000Y-87288112D01*
X68184000Y-86211888D01*
X68188565Y-86165532D01*
X68200296Y-86126862D01*
X68219346Y-86091223D01*
X68244983Y-86059983D01*
X68276223Y-86034346D01*
X68311862Y-86015296D01*
X68350532Y-86003565D01*
X68396888Y-85999000D01*
X69048112Y-85999000D01*
X69094468Y-86003565D01*
X69094468Y-86003565D01*
G37*
G36*
X65574468Y-86003565D02*
G01*
X65613138Y-86015296D01*
X65648777Y-86034346D01*
X65680017Y-86059983D01*
X65705654Y-86091223D01*
X65724704Y-86126862D01*
X65736435Y-86165532D01*
X65741000Y-86211888D01*
X65741000Y-87288112D01*
X65736435Y-87334468D01*
X65724704Y-87373138D01*
X65705654Y-87408777D01*
X65680017Y-87440017D01*
X65648777Y-87465654D01*
X65613138Y-87484704D01*
X65574468Y-87496435D01*
X65528112Y-87501000D01*
X64876888Y-87501000D01*
X64830532Y-87496435D01*
X64791862Y-87484704D01*
X64756223Y-87465654D01*
X64724983Y-87440017D01*
X64699346Y-87408777D01*
X64680296Y-87373138D01*
X64668565Y-87334468D01*
X64664000Y-87288112D01*
X64664000Y-86211888D01*
X64668565Y-86165532D01*
X64680296Y-86126862D01*
X64699346Y-86091223D01*
X64724983Y-86059983D01*
X64756223Y-86034346D01*
X64791862Y-86015296D01*
X64830532Y-86003565D01*
X64876888Y-85999000D01*
X65528112Y-85999000D01*
X65574468Y-86003565D01*
X65574468Y-86003565D01*
G37*
G36*
X67449468Y-86003565D02*
G01*
X67488138Y-86015296D01*
X67523777Y-86034346D01*
X67555017Y-86059983D01*
X67580654Y-86091223D01*
X67599704Y-86126862D01*
X67611435Y-86165532D01*
X67616000Y-86211888D01*
X67616000Y-87288112D01*
X67611435Y-87334468D01*
X67599704Y-87373138D01*
X67580654Y-87408777D01*
X67555017Y-87440017D01*
X67523777Y-87465654D01*
X67488138Y-87484704D01*
X67449468Y-87496435D01*
X67403112Y-87501000D01*
X66751888Y-87501000D01*
X66705532Y-87496435D01*
X66666862Y-87484704D01*
X66631223Y-87465654D01*
X66599983Y-87440017D01*
X66574346Y-87408777D01*
X66555296Y-87373138D01*
X66543565Y-87334468D01*
X66539000Y-87288112D01*
X66539000Y-86211888D01*
X66543565Y-86165532D01*
X66555296Y-86126862D01*
X66574346Y-86091223D01*
X66599983Y-86059983D01*
X66631223Y-86034346D01*
X66666862Y-86015296D01*
X66705532Y-86003565D01*
X66751888Y-85999000D01*
X67403112Y-85999000D01*
X67449468Y-86003565D01*
X67449468Y-86003565D01*
G37*
G36*
X59768604Y-85058347D02*
G01*
X59805144Y-85069432D01*
X59838821Y-85087433D01*
X59868341Y-85111659D01*
X59892567Y-85141179D01*
X59910568Y-85174856D01*
X59921653Y-85211396D01*
X59926000Y-85255538D01*
X59926000Y-86704462D01*
X59921653Y-86748604D01*
X59910568Y-86785144D01*
X59892567Y-86818821D01*
X59868341Y-86848341D01*
X59838821Y-86872567D01*
X59805144Y-86890568D01*
X59768604Y-86901653D01*
X59724462Y-86906000D01*
X58775538Y-86906000D01*
X58731396Y-86901653D01*
X58694856Y-86890568D01*
X58661179Y-86872567D01*
X58631659Y-86848341D01*
X58607433Y-86818821D01*
X58589432Y-86785144D01*
X58578347Y-86748604D01*
X58574000Y-86704462D01*
X58574000Y-85255538D01*
X58578347Y-85211396D01*
X58589432Y-85174856D01*
X58607433Y-85141179D01*
X58631659Y-85111659D01*
X58661179Y-85087433D01*
X58694856Y-85069432D01*
X58731396Y-85058347D01*
X58775538Y-85054000D01*
X59724462Y-85054000D01*
X59768604Y-85058347D01*
X59768604Y-85058347D01*
G37*
G36*
X62568604Y-85058347D02*
G01*
X62605144Y-85069432D01*
X62638821Y-85087433D01*
X62668341Y-85111659D01*
X62692567Y-85141179D01*
X62710568Y-85174856D01*
X62721653Y-85211396D01*
X62726000Y-85255538D01*
X62726000Y-86704462D01*
X62721653Y-86748604D01*
X62710568Y-86785144D01*
X62692567Y-86818821D01*
X62668341Y-86848341D01*
X62638821Y-86872567D01*
X62605144Y-86890568D01*
X62568604Y-86901653D01*
X62524462Y-86906000D01*
X61575538Y-86906000D01*
X61531396Y-86901653D01*
X61494856Y-86890568D01*
X61461179Y-86872567D01*
X61431659Y-86848341D01*
X61407433Y-86818821D01*
X61389432Y-86785144D01*
X61378347Y-86748604D01*
X61374000Y-86704462D01*
X61374000Y-85255538D01*
X61378347Y-85211396D01*
X61389432Y-85174856D01*
X61407433Y-85141179D01*
X61431659Y-85111659D01*
X61461179Y-85087433D01*
X61494856Y-85069432D01*
X61531396Y-85058347D01*
X61575538Y-85054000D01*
X62524462Y-85054000D01*
X62568604Y-85058347D01*
X62568604Y-85058347D01*
G37*
G36*
X56646000Y-85946000D02*
G01*
X55194000Y-85946000D01*
X55194000Y-84494000D01*
X56646000Y-84494000D01*
X56646000Y-85946000D01*
X56646000Y-85946000D01*
G37*
G36*
X91214795Y-82420156D02*
G01*
X91321150Y-82441311D01*
X91372558Y-82462605D01*
X91521520Y-82524307D01*
X91701844Y-82644795D01*
X91855205Y-82798156D01*
X91975693Y-82978480D01*
X91975693Y-82978481D01*
X92058689Y-83178850D01*
X92061000Y-83190467D01*
X92101000Y-83391560D01*
X92101000Y-83608440D01*
X92058689Y-83821149D01*
X91975693Y-84021520D01*
X91855205Y-84201844D01*
X91701844Y-84355205D01*
X91521520Y-84475693D01*
X91321150Y-84558689D01*
X91214794Y-84579845D01*
X91108440Y-84601000D01*
X90891560Y-84601000D01*
X90785206Y-84579845D01*
X90678850Y-84558689D01*
X90578666Y-84517191D01*
X90478480Y-84475693D01*
X90298156Y-84355205D01*
X90144795Y-84201844D01*
X90024307Y-84021520D01*
X89941311Y-83821149D01*
X89899000Y-83608440D01*
X89899000Y-83391560D01*
X89939000Y-83190467D01*
X89941311Y-83178850D01*
X90024307Y-82978481D01*
X90024307Y-82978480D01*
X90144795Y-82798156D01*
X90298156Y-82644795D01*
X90478480Y-82524307D01*
X90627442Y-82462605D01*
X90678850Y-82441311D01*
X90785205Y-82420156D01*
X90891560Y-82399000D01*
X91108440Y-82399000D01*
X91214795Y-82420156D01*
X91214795Y-82420156D01*
G37*
G36*
X87237395Y-81825546D02*
G01*
X87410466Y-81897234D01*
X87410467Y-81897235D01*
X87566227Y-82001310D01*
X87698690Y-82133773D01*
X87698691Y-82133775D01*
X87802766Y-82289534D01*
X87874454Y-82462605D01*
X87911000Y-82646333D01*
X87911000Y-82833667D01*
X87874454Y-83017395D01*
X87802766Y-83190466D01*
X87802765Y-83190467D01*
X87698690Y-83346227D01*
X87566227Y-83478690D01*
X87487818Y-83531081D01*
X87410466Y-83582766D01*
X87237395Y-83654454D01*
X87053667Y-83691000D01*
X86866333Y-83691000D01*
X86682605Y-83654454D01*
X86509534Y-83582766D01*
X86432182Y-83531081D01*
X86353773Y-83478690D01*
X86221310Y-83346227D01*
X86117235Y-83190467D01*
X86117234Y-83190466D01*
X86045546Y-83017395D01*
X86009000Y-82833667D01*
X86009000Y-82646333D01*
X86045546Y-82462605D01*
X86117234Y-82289534D01*
X86221309Y-82133775D01*
X86221310Y-82133773D01*
X86353773Y-82001310D01*
X86509533Y-81897235D01*
X86509534Y-81897234D01*
X86682605Y-81825546D01*
X86866333Y-81789000D01*
X87053667Y-81789000D01*
X87237395Y-81825546D01*
X87237395Y-81825546D01*
G37*
G36*
X85371000Y-83691000D02*
G01*
X83469000Y-83691000D01*
X83469000Y-81789000D01*
X85371000Y-81789000D01*
X85371000Y-83691000D01*
X85371000Y-83691000D01*
G37*
G36*
X70211213Y-81107502D02*
G01*
X70282321Y-81114505D01*
X70419172Y-81156019D01*
X70419175Y-81156020D01*
X70545294Y-81223432D01*
X70655843Y-81314157D01*
X70746568Y-81424706D01*
X70813980Y-81550825D01*
X70813981Y-81550828D01*
X70855495Y-81687679D01*
X70869512Y-81830000D01*
X70855495Y-81972321D01*
X70846701Y-82001309D01*
X70813980Y-82109175D01*
X70746568Y-82235294D01*
X70655843Y-82345843D01*
X70545294Y-82436568D01*
X70419175Y-82503980D01*
X70419172Y-82503981D01*
X70282321Y-82545495D01*
X70211213Y-82552498D01*
X70175660Y-82556000D01*
X70104340Y-82556000D01*
X70068787Y-82552498D01*
X69997679Y-82545495D01*
X69860828Y-82503981D01*
X69860825Y-82503980D01*
X69734706Y-82436568D01*
X69624157Y-82345843D01*
X69533432Y-82235294D01*
X69466020Y-82109175D01*
X69433299Y-82001309D01*
X69424505Y-81972321D01*
X69410488Y-81830000D01*
X69424505Y-81687679D01*
X69466019Y-81550828D01*
X69466020Y-81550825D01*
X69533432Y-81424706D01*
X69624157Y-81314157D01*
X69734706Y-81223432D01*
X69860825Y-81156020D01*
X69860828Y-81156019D01*
X69997679Y-81114505D01*
X70068787Y-81107502D01*
X70104340Y-81104000D01*
X70175660Y-81104000D01*
X70211213Y-81107502D01*
X70211213Y-81107502D01*
G37*
G36*
X68211213Y-81107502D02*
G01*
X68282321Y-81114505D01*
X68419172Y-81156019D01*
X68419175Y-81156020D01*
X68545294Y-81223432D01*
X68655843Y-81314157D01*
X68746568Y-81424706D01*
X68813980Y-81550825D01*
X68813981Y-81550828D01*
X68855495Y-81687679D01*
X68869512Y-81830000D01*
X68855495Y-81972321D01*
X68846701Y-82001309D01*
X68813980Y-82109175D01*
X68746568Y-82235294D01*
X68655843Y-82345843D01*
X68545294Y-82436568D01*
X68419175Y-82503980D01*
X68419172Y-82503981D01*
X68282321Y-82545495D01*
X68211213Y-82552498D01*
X68175660Y-82556000D01*
X68104340Y-82556000D01*
X68068787Y-82552498D01*
X67997679Y-82545495D01*
X67860828Y-82503981D01*
X67860825Y-82503980D01*
X67734706Y-82436568D01*
X67624157Y-82345843D01*
X67533432Y-82235294D01*
X67466020Y-82109175D01*
X67433299Y-82001309D01*
X67424505Y-81972321D01*
X67410488Y-81830000D01*
X67424505Y-81687679D01*
X67466019Y-81550828D01*
X67466020Y-81550825D01*
X67533432Y-81424706D01*
X67624157Y-81314157D01*
X67734706Y-81223432D01*
X67860825Y-81156020D01*
X67860828Y-81156019D01*
X67997679Y-81114505D01*
X68068787Y-81107502D01*
X68104340Y-81104000D01*
X68175660Y-81104000D01*
X68211213Y-81107502D01*
X68211213Y-81107502D01*
G37*
G36*
X66211213Y-81107502D02*
G01*
X66282321Y-81114505D01*
X66419172Y-81156019D01*
X66419175Y-81156020D01*
X66545294Y-81223432D01*
X66655843Y-81314157D01*
X66746568Y-81424706D01*
X66813980Y-81550825D01*
X66813981Y-81550828D01*
X66855495Y-81687679D01*
X66869512Y-81830000D01*
X66855495Y-81972321D01*
X66846701Y-82001309D01*
X66813980Y-82109175D01*
X66746568Y-82235294D01*
X66655843Y-82345843D01*
X66545294Y-82436568D01*
X66419175Y-82503980D01*
X66419172Y-82503981D01*
X66282321Y-82545495D01*
X66211213Y-82552498D01*
X66175660Y-82556000D01*
X66104340Y-82556000D01*
X66068787Y-82552498D01*
X65997679Y-82545495D01*
X65860828Y-82503981D01*
X65860825Y-82503980D01*
X65734706Y-82436568D01*
X65624157Y-82345843D01*
X65533432Y-82235294D01*
X65466020Y-82109175D01*
X65433299Y-82001309D01*
X65424505Y-81972321D01*
X65410488Y-81830000D01*
X65424505Y-81687679D01*
X65466019Y-81550828D01*
X65466020Y-81550825D01*
X65533432Y-81424706D01*
X65624157Y-81314157D01*
X65734706Y-81223432D01*
X65860825Y-81156020D01*
X65860828Y-81156019D01*
X65997679Y-81114505D01*
X66068787Y-81107502D01*
X66104340Y-81104000D01*
X66175660Y-81104000D01*
X66211213Y-81107502D01*
X66211213Y-81107502D01*
G37*
G36*
X64211213Y-81107502D02*
G01*
X64282321Y-81114505D01*
X64419172Y-81156019D01*
X64419175Y-81156020D01*
X64545294Y-81223432D01*
X64655843Y-81314157D01*
X64746568Y-81424706D01*
X64813980Y-81550825D01*
X64813981Y-81550828D01*
X64855495Y-81687679D01*
X64869512Y-81830000D01*
X64855495Y-81972321D01*
X64846701Y-82001309D01*
X64813980Y-82109175D01*
X64746568Y-82235294D01*
X64655843Y-82345843D01*
X64545294Y-82436568D01*
X64419175Y-82503980D01*
X64419172Y-82503981D01*
X64282321Y-82545495D01*
X64211213Y-82552498D01*
X64175660Y-82556000D01*
X64104340Y-82556000D01*
X64068787Y-82552498D01*
X63997679Y-82545495D01*
X63860828Y-82503981D01*
X63860825Y-82503980D01*
X63734706Y-82436568D01*
X63624157Y-82345843D01*
X63533432Y-82235294D01*
X63466020Y-82109175D01*
X63433299Y-82001309D01*
X63424505Y-81972321D01*
X63410488Y-81830000D01*
X63424505Y-81687679D01*
X63466019Y-81550828D01*
X63466020Y-81550825D01*
X63533432Y-81424706D01*
X63624157Y-81314157D01*
X63734706Y-81223432D01*
X63860825Y-81156020D01*
X63860828Y-81156019D01*
X63997679Y-81114505D01*
X64068787Y-81107502D01*
X64104340Y-81104000D01*
X64175660Y-81104000D01*
X64211213Y-81107502D01*
X64211213Y-81107502D01*
G37*
G36*
X62211213Y-81107502D02*
G01*
X62282321Y-81114505D01*
X62419172Y-81156019D01*
X62419175Y-81156020D01*
X62545294Y-81223432D01*
X62655843Y-81314157D01*
X62746568Y-81424706D01*
X62813980Y-81550825D01*
X62813981Y-81550828D01*
X62855495Y-81687679D01*
X62869512Y-81830000D01*
X62855495Y-81972321D01*
X62846701Y-82001309D01*
X62813980Y-82109175D01*
X62746568Y-82235294D01*
X62655843Y-82345843D01*
X62545294Y-82436568D01*
X62419175Y-82503980D01*
X62419172Y-82503981D01*
X62282321Y-82545495D01*
X62211213Y-82552498D01*
X62175660Y-82556000D01*
X62104340Y-82556000D01*
X62068787Y-82552498D01*
X61997679Y-82545495D01*
X61860828Y-82503981D01*
X61860825Y-82503980D01*
X61734706Y-82436568D01*
X61624157Y-82345843D01*
X61533432Y-82235294D01*
X61466020Y-82109175D01*
X61433299Y-82001309D01*
X61424505Y-81972321D01*
X61410488Y-81830000D01*
X61424505Y-81687679D01*
X61466019Y-81550828D01*
X61466020Y-81550825D01*
X61533432Y-81424706D01*
X61624157Y-81314157D01*
X61734706Y-81223432D01*
X61860825Y-81156020D01*
X61860828Y-81156019D01*
X61997679Y-81114505D01*
X62068787Y-81107502D01*
X62104340Y-81104000D01*
X62175660Y-81104000D01*
X62211213Y-81107502D01*
X62211213Y-81107502D01*
G37*
G36*
X60211213Y-81107502D02*
G01*
X60282321Y-81114505D01*
X60419172Y-81156019D01*
X60419175Y-81156020D01*
X60545294Y-81223432D01*
X60655843Y-81314157D01*
X60746568Y-81424706D01*
X60813980Y-81550825D01*
X60813981Y-81550828D01*
X60855495Y-81687679D01*
X60869512Y-81830000D01*
X60855495Y-81972321D01*
X60846701Y-82001309D01*
X60813980Y-82109175D01*
X60746568Y-82235294D01*
X60655843Y-82345843D01*
X60545294Y-82436568D01*
X60419175Y-82503980D01*
X60419172Y-82503981D01*
X60282321Y-82545495D01*
X60211213Y-82552498D01*
X60175660Y-82556000D01*
X60104340Y-82556000D01*
X60068787Y-82552498D01*
X59997679Y-82545495D01*
X59860828Y-82503981D01*
X59860825Y-82503980D01*
X59734706Y-82436568D01*
X59624157Y-82345843D01*
X59533432Y-82235294D01*
X59466020Y-82109175D01*
X59433299Y-82001309D01*
X59424505Y-81972321D01*
X59410488Y-81830000D01*
X59424505Y-81687679D01*
X59466019Y-81550828D01*
X59466020Y-81550825D01*
X59533432Y-81424706D01*
X59624157Y-81314157D01*
X59734706Y-81223432D01*
X59860825Y-81156020D01*
X59860828Y-81156019D01*
X59997679Y-81114505D01*
X60068787Y-81107502D01*
X60104340Y-81104000D01*
X60175660Y-81104000D01*
X60211213Y-81107502D01*
X60211213Y-81107502D01*
G37*
G36*
X58211213Y-81107502D02*
G01*
X58282321Y-81114505D01*
X58419172Y-81156019D01*
X58419175Y-81156020D01*
X58545294Y-81223432D01*
X58655843Y-81314157D01*
X58746568Y-81424706D01*
X58813980Y-81550825D01*
X58813981Y-81550828D01*
X58855495Y-81687679D01*
X58869512Y-81830000D01*
X58855495Y-81972321D01*
X58846701Y-82001309D01*
X58813980Y-82109175D01*
X58746568Y-82235294D01*
X58655843Y-82345843D01*
X58545294Y-82436568D01*
X58419175Y-82503980D01*
X58419172Y-82503981D01*
X58282321Y-82545495D01*
X58211213Y-82552498D01*
X58175660Y-82556000D01*
X58104340Y-82556000D01*
X58068787Y-82552498D01*
X57997679Y-82545495D01*
X57860828Y-82503981D01*
X57860825Y-82503980D01*
X57734706Y-82436568D01*
X57624157Y-82345843D01*
X57533432Y-82235294D01*
X57466020Y-82109175D01*
X57433299Y-82001309D01*
X57424505Y-81972321D01*
X57410488Y-81830000D01*
X57424505Y-81687679D01*
X57466019Y-81550828D01*
X57466020Y-81550825D01*
X57533432Y-81424706D01*
X57624157Y-81314157D01*
X57734706Y-81223432D01*
X57860825Y-81156020D01*
X57860828Y-81156019D01*
X57997679Y-81114505D01*
X58068787Y-81107502D01*
X58104340Y-81104000D01*
X58175660Y-81104000D01*
X58211213Y-81107502D01*
X58211213Y-81107502D01*
G37*
G36*
X56866000Y-82556000D02*
G01*
X55414000Y-82556000D01*
X55414000Y-81104000D01*
X56866000Y-81104000D01*
X56866000Y-82556000D01*
X56866000Y-82556000D01*
G37*
M02*
