G04 #@! TF.GenerationSoftware,KiCad,Pcbnew,(5.1.2-1)-1*
G04 #@! TF.CreationDate,2022-01-26T01:19:45+00:00*
G04 #@! TF.ProjectId,mz25key,6d7a3235-6b65-4792-9e6b-696361645f70,rev?*
G04 #@! TF.SameCoordinates,Original*
G04 #@! TF.FileFunction,Paste,Top*
G04 #@! TF.FilePolarity,Positive*
%FSLAX46Y46*%
G04 Gerber Fmt 4.6, Leading zero omitted, Abs format (unit mm)*
G04 Created by KiCad (PCBNEW (5.1.2-1)-1) date 2022-01-26 01:19:45*
%MOMM*%
%LPD*%
G04 APERTURE LIST*
%ADD10C,0.100000*%
%ADD11C,0.975000*%
%ADD12C,1.250000*%
%ADD13C,0.600000*%
%ADD14R,2.000000X1.500000*%
%ADD15R,2.000000X3.800000*%
%ADD16R,1.550000X1.300000*%
%ADD17C,1.425000*%
%ADD18C,1.400000*%
G04 APERTURE END LIST*
D10*
G36*
X67345142Y-86051174D02*
G01*
X67368803Y-86054684D01*
X67392007Y-86060496D01*
X67414529Y-86068554D01*
X67436153Y-86078782D01*
X67456670Y-86091079D01*
X67475883Y-86105329D01*
X67493607Y-86121393D01*
X67509671Y-86139117D01*
X67523921Y-86158330D01*
X67536218Y-86178847D01*
X67546446Y-86200471D01*
X67554504Y-86222993D01*
X67560316Y-86246197D01*
X67563826Y-86269858D01*
X67565000Y-86293750D01*
X67565000Y-87206250D01*
X67563826Y-87230142D01*
X67560316Y-87253803D01*
X67554504Y-87277007D01*
X67546446Y-87299529D01*
X67536218Y-87321153D01*
X67523921Y-87341670D01*
X67509671Y-87360883D01*
X67493607Y-87378607D01*
X67475883Y-87394671D01*
X67456670Y-87408921D01*
X67436153Y-87421218D01*
X67414529Y-87431446D01*
X67392007Y-87439504D01*
X67368803Y-87445316D01*
X67345142Y-87448826D01*
X67321250Y-87450000D01*
X66833750Y-87450000D01*
X66809858Y-87448826D01*
X66786197Y-87445316D01*
X66762993Y-87439504D01*
X66740471Y-87431446D01*
X66718847Y-87421218D01*
X66698330Y-87408921D01*
X66679117Y-87394671D01*
X66661393Y-87378607D01*
X66645329Y-87360883D01*
X66631079Y-87341670D01*
X66618782Y-87321153D01*
X66608554Y-87299529D01*
X66600496Y-87277007D01*
X66594684Y-87253803D01*
X66591174Y-87230142D01*
X66590000Y-87206250D01*
X66590000Y-86293750D01*
X66591174Y-86269858D01*
X66594684Y-86246197D01*
X66600496Y-86222993D01*
X66608554Y-86200471D01*
X66618782Y-86178847D01*
X66631079Y-86158330D01*
X66645329Y-86139117D01*
X66661393Y-86121393D01*
X66679117Y-86105329D01*
X66698330Y-86091079D01*
X66718847Y-86078782D01*
X66740471Y-86068554D01*
X66762993Y-86060496D01*
X66786197Y-86054684D01*
X66809858Y-86051174D01*
X66833750Y-86050000D01*
X67321250Y-86050000D01*
X67345142Y-86051174D01*
X67345142Y-86051174D01*
G37*
D11*
X67077500Y-86750000D03*
D10*
G36*
X65470142Y-86051174D02*
G01*
X65493803Y-86054684D01*
X65517007Y-86060496D01*
X65539529Y-86068554D01*
X65561153Y-86078782D01*
X65581670Y-86091079D01*
X65600883Y-86105329D01*
X65618607Y-86121393D01*
X65634671Y-86139117D01*
X65648921Y-86158330D01*
X65661218Y-86178847D01*
X65671446Y-86200471D01*
X65679504Y-86222993D01*
X65685316Y-86246197D01*
X65688826Y-86269858D01*
X65690000Y-86293750D01*
X65690000Y-87206250D01*
X65688826Y-87230142D01*
X65685316Y-87253803D01*
X65679504Y-87277007D01*
X65671446Y-87299529D01*
X65661218Y-87321153D01*
X65648921Y-87341670D01*
X65634671Y-87360883D01*
X65618607Y-87378607D01*
X65600883Y-87394671D01*
X65581670Y-87408921D01*
X65561153Y-87421218D01*
X65539529Y-87431446D01*
X65517007Y-87439504D01*
X65493803Y-87445316D01*
X65470142Y-87448826D01*
X65446250Y-87450000D01*
X64958750Y-87450000D01*
X64934858Y-87448826D01*
X64911197Y-87445316D01*
X64887993Y-87439504D01*
X64865471Y-87431446D01*
X64843847Y-87421218D01*
X64823330Y-87408921D01*
X64804117Y-87394671D01*
X64786393Y-87378607D01*
X64770329Y-87360883D01*
X64756079Y-87341670D01*
X64743782Y-87321153D01*
X64733554Y-87299529D01*
X64725496Y-87277007D01*
X64719684Y-87253803D01*
X64716174Y-87230142D01*
X64715000Y-87206250D01*
X64715000Y-86293750D01*
X64716174Y-86269858D01*
X64719684Y-86246197D01*
X64725496Y-86222993D01*
X64733554Y-86200471D01*
X64743782Y-86178847D01*
X64756079Y-86158330D01*
X64770329Y-86139117D01*
X64786393Y-86121393D01*
X64804117Y-86105329D01*
X64823330Y-86091079D01*
X64843847Y-86078782D01*
X64865471Y-86068554D01*
X64887993Y-86060496D01*
X64911197Y-86054684D01*
X64934858Y-86051174D01*
X64958750Y-86050000D01*
X65446250Y-86050000D01*
X65470142Y-86051174D01*
X65470142Y-86051174D01*
G37*
D11*
X65202500Y-86750000D03*
D10*
G36*
X68990142Y-86051174D02*
G01*
X69013803Y-86054684D01*
X69037007Y-86060496D01*
X69059529Y-86068554D01*
X69081153Y-86078782D01*
X69101670Y-86091079D01*
X69120883Y-86105329D01*
X69138607Y-86121393D01*
X69154671Y-86139117D01*
X69168921Y-86158330D01*
X69181218Y-86178847D01*
X69191446Y-86200471D01*
X69199504Y-86222993D01*
X69205316Y-86246197D01*
X69208826Y-86269858D01*
X69210000Y-86293750D01*
X69210000Y-87206250D01*
X69208826Y-87230142D01*
X69205316Y-87253803D01*
X69199504Y-87277007D01*
X69191446Y-87299529D01*
X69181218Y-87321153D01*
X69168921Y-87341670D01*
X69154671Y-87360883D01*
X69138607Y-87378607D01*
X69120883Y-87394671D01*
X69101670Y-87408921D01*
X69081153Y-87421218D01*
X69059529Y-87431446D01*
X69037007Y-87439504D01*
X69013803Y-87445316D01*
X68990142Y-87448826D01*
X68966250Y-87450000D01*
X68478750Y-87450000D01*
X68454858Y-87448826D01*
X68431197Y-87445316D01*
X68407993Y-87439504D01*
X68385471Y-87431446D01*
X68363847Y-87421218D01*
X68343330Y-87408921D01*
X68324117Y-87394671D01*
X68306393Y-87378607D01*
X68290329Y-87360883D01*
X68276079Y-87341670D01*
X68263782Y-87321153D01*
X68253554Y-87299529D01*
X68245496Y-87277007D01*
X68239684Y-87253803D01*
X68236174Y-87230142D01*
X68235000Y-87206250D01*
X68235000Y-86293750D01*
X68236174Y-86269858D01*
X68239684Y-86246197D01*
X68245496Y-86222993D01*
X68253554Y-86200471D01*
X68263782Y-86178847D01*
X68276079Y-86158330D01*
X68290329Y-86139117D01*
X68306393Y-86121393D01*
X68324117Y-86105329D01*
X68343330Y-86091079D01*
X68363847Y-86078782D01*
X68385471Y-86068554D01*
X68407993Y-86060496D01*
X68431197Y-86054684D01*
X68454858Y-86051174D01*
X68478750Y-86050000D01*
X68966250Y-86050000D01*
X68990142Y-86051174D01*
X68990142Y-86051174D01*
G37*
D11*
X68722500Y-86750000D03*
D10*
G36*
X70865142Y-86051174D02*
G01*
X70888803Y-86054684D01*
X70912007Y-86060496D01*
X70934529Y-86068554D01*
X70956153Y-86078782D01*
X70976670Y-86091079D01*
X70995883Y-86105329D01*
X71013607Y-86121393D01*
X71029671Y-86139117D01*
X71043921Y-86158330D01*
X71056218Y-86178847D01*
X71066446Y-86200471D01*
X71074504Y-86222993D01*
X71080316Y-86246197D01*
X71083826Y-86269858D01*
X71085000Y-86293750D01*
X71085000Y-87206250D01*
X71083826Y-87230142D01*
X71080316Y-87253803D01*
X71074504Y-87277007D01*
X71066446Y-87299529D01*
X71056218Y-87321153D01*
X71043921Y-87341670D01*
X71029671Y-87360883D01*
X71013607Y-87378607D01*
X70995883Y-87394671D01*
X70976670Y-87408921D01*
X70956153Y-87421218D01*
X70934529Y-87431446D01*
X70912007Y-87439504D01*
X70888803Y-87445316D01*
X70865142Y-87448826D01*
X70841250Y-87450000D01*
X70353750Y-87450000D01*
X70329858Y-87448826D01*
X70306197Y-87445316D01*
X70282993Y-87439504D01*
X70260471Y-87431446D01*
X70238847Y-87421218D01*
X70218330Y-87408921D01*
X70199117Y-87394671D01*
X70181393Y-87378607D01*
X70165329Y-87360883D01*
X70151079Y-87341670D01*
X70138782Y-87321153D01*
X70128554Y-87299529D01*
X70120496Y-87277007D01*
X70114684Y-87253803D01*
X70111174Y-87230142D01*
X70110000Y-87206250D01*
X70110000Y-86293750D01*
X70111174Y-86269858D01*
X70114684Y-86246197D01*
X70120496Y-86222993D01*
X70128554Y-86200471D01*
X70138782Y-86178847D01*
X70151079Y-86158330D01*
X70165329Y-86139117D01*
X70181393Y-86121393D01*
X70199117Y-86105329D01*
X70218330Y-86091079D01*
X70238847Y-86078782D01*
X70260471Y-86068554D01*
X70282993Y-86060496D01*
X70306197Y-86054684D01*
X70329858Y-86051174D01*
X70353750Y-86050000D01*
X70841250Y-86050000D01*
X70865142Y-86051174D01*
X70865142Y-86051174D01*
G37*
D11*
X70597500Y-86750000D03*
D10*
G36*
X76265142Y-101531174D02*
G01*
X76288803Y-101534684D01*
X76312007Y-101540496D01*
X76334529Y-101548554D01*
X76356153Y-101558782D01*
X76376670Y-101571079D01*
X76395883Y-101585329D01*
X76413607Y-101601393D01*
X76429671Y-101619117D01*
X76443921Y-101638330D01*
X76456218Y-101658847D01*
X76466446Y-101680471D01*
X76474504Y-101702993D01*
X76480316Y-101726197D01*
X76483826Y-101749858D01*
X76485000Y-101773750D01*
X76485000Y-102686250D01*
X76483826Y-102710142D01*
X76480316Y-102733803D01*
X76474504Y-102757007D01*
X76466446Y-102779529D01*
X76456218Y-102801153D01*
X76443921Y-102821670D01*
X76429671Y-102840883D01*
X76413607Y-102858607D01*
X76395883Y-102874671D01*
X76376670Y-102888921D01*
X76356153Y-102901218D01*
X76334529Y-102911446D01*
X76312007Y-102919504D01*
X76288803Y-102925316D01*
X76265142Y-102928826D01*
X76241250Y-102930000D01*
X75753750Y-102930000D01*
X75729858Y-102928826D01*
X75706197Y-102925316D01*
X75682993Y-102919504D01*
X75660471Y-102911446D01*
X75638847Y-102901218D01*
X75618330Y-102888921D01*
X75599117Y-102874671D01*
X75581393Y-102858607D01*
X75565329Y-102840883D01*
X75551079Y-102821670D01*
X75538782Y-102801153D01*
X75528554Y-102779529D01*
X75520496Y-102757007D01*
X75514684Y-102733803D01*
X75511174Y-102710142D01*
X75510000Y-102686250D01*
X75510000Y-101773750D01*
X75511174Y-101749858D01*
X75514684Y-101726197D01*
X75520496Y-101702993D01*
X75528554Y-101680471D01*
X75538782Y-101658847D01*
X75551079Y-101638330D01*
X75565329Y-101619117D01*
X75581393Y-101601393D01*
X75599117Y-101585329D01*
X75618330Y-101571079D01*
X75638847Y-101558782D01*
X75660471Y-101548554D01*
X75682993Y-101540496D01*
X75706197Y-101534684D01*
X75729858Y-101531174D01*
X75753750Y-101530000D01*
X76241250Y-101530000D01*
X76265142Y-101531174D01*
X76265142Y-101531174D01*
G37*
D11*
X75997500Y-102230000D03*
D10*
G36*
X74390142Y-101531174D02*
G01*
X74413803Y-101534684D01*
X74437007Y-101540496D01*
X74459529Y-101548554D01*
X74481153Y-101558782D01*
X74501670Y-101571079D01*
X74520883Y-101585329D01*
X74538607Y-101601393D01*
X74554671Y-101619117D01*
X74568921Y-101638330D01*
X74581218Y-101658847D01*
X74591446Y-101680471D01*
X74599504Y-101702993D01*
X74605316Y-101726197D01*
X74608826Y-101749858D01*
X74610000Y-101773750D01*
X74610000Y-102686250D01*
X74608826Y-102710142D01*
X74605316Y-102733803D01*
X74599504Y-102757007D01*
X74591446Y-102779529D01*
X74581218Y-102801153D01*
X74568921Y-102821670D01*
X74554671Y-102840883D01*
X74538607Y-102858607D01*
X74520883Y-102874671D01*
X74501670Y-102888921D01*
X74481153Y-102901218D01*
X74459529Y-102911446D01*
X74437007Y-102919504D01*
X74413803Y-102925316D01*
X74390142Y-102928826D01*
X74366250Y-102930000D01*
X73878750Y-102930000D01*
X73854858Y-102928826D01*
X73831197Y-102925316D01*
X73807993Y-102919504D01*
X73785471Y-102911446D01*
X73763847Y-102901218D01*
X73743330Y-102888921D01*
X73724117Y-102874671D01*
X73706393Y-102858607D01*
X73690329Y-102840883D01*
X73676079Y-102821670D01*
X73663782Y-102801153D01*
X73653554Y-102779529D01*
X73645496Y-102757007D01*
X73639684Y-102733803D01*
X73636174Y-102710142D01*
X73635000Y-102686250D01*
X73635000Y-101773750D01*
X73636174Y-101749858D01*
X73639684Y-101726197D01*
X73645496Y-101702993D01*
X73653554Y-101680471D01*
X73663782Y-101658847D01*
X73676079Y-101638330D01*
X73690329Y-101619117D01*
X73706393Y-101601393D01*
X73724117Y-101585329D01*
X73743330Y-101571079D01*
X73763847Y-101558782D01*
X73785471Y-101548554D01*
X73807993Y-101540496D01*
X73831197Y-101534684D01*
X73854858Y-101531174D01*
X73878750Y-101530000D01*
X74366250Y-101530000D01*
X74390142Y-101531174D01*
X74390142Y-101531174D01*
G37*
D11*
X74122500Y-102230000D03*
D10*
G36*
X59649504Y-85106204D02*
G01*
X59673773Y-85109804D01*
X59697571Y-85115765D01*
X59720671Y-85124030D01*
X59742849Y-85134520D01*
X59763893Y-85147133D01*
X59783598Y-85161747D01*
X59801777Y-85178223D01*
X59818253Y-85196402D01*
X59832867Y-85216107D01*
X59845480Y-85237151D01*
X59855970Y-85259329D01*
X59864235Y-85282429D01*
X59870196Y-85306227D01*
X59873796Y-85330496D01*
X59875000Y-85355000D01*
X59875000Y-86605000D01*
X59873796Y-86629504D01*
X59870196Y-86653773D01*
X59864235Y-86677571D01*
X59855970Y-86700671D01*
X59845480Y-86722849D01*
X59832867Y-86743893D01*
X59818253Y-86763598D01*
X59801777Y-86781777D01*
X59783598Y-86798253D01*
X59763893Y-86812867D01*
X59742849Y-86825480D01*
X59720671Y-86835970D01*
X59697571Y-86844235D01*
X59673773Y-86850196D01*
X59649504Y-86853796D01*
X59625000Y-86855000D01*
X58875000Y-86855000D01*
X58850496Y-86853796D01*
X58826227Y-86850196D01*
X58802429Y-86844235D01*
X58779329Y-86835970D01*
X58757151Y-86825480D01*
X58736107Y-86812867D01*
X58716402Y-86798253D01*
X58698223Y-86781777D01*
X58681747Y-86763598D01*
X58667133Y-86743893D01*
X58654520Y-86722849D01*
X58644030Y-86700671D01*
X58635765Y-86677571D01*
X58629804Y-86653773D01*
X58626204Y-86629504D01*
X58625000Y-86605000D01*
X58625000Y-85355000D01*
X58626204Y-85330496D01*
X58629804Y-85306227D01*
X58635765Y-85282429D01*
X58644030Y-85259329D01*
X58654520Y-85237151D01*
X58667133Y-85216107D01*
X58681747Y-85196402D01*
X58698223Y-85178223D01*
X58716402Y-85161747D01*
X58736107Y-85147133D01*
X58757151Y-85134520D01*
X58779329Y-85124030D01*
X58802429Y-85115765D01*
X58826227Y-85109804D01*
X58850496Y-85106204D01*
X58875000Y-85105000D01*
X59625000Y-85105000D01*
X59649504Y-85106204D01*
X59649504Y-85106204D01*
G37*
D12*
X59250000Y-85980000D03*
D10*
G36*
X62449504Y-85106204D02*
G01*
X62473773Y-85109804D01*
X62497571Y-85115765D01*
X62520671Y-85124030D01*
X62542849Y-85134520D01*
X62563893Y-85147133D01*
X62583598Y-85161747D01*
X62601777Y-85178223D01*
X62618253Y-85196402D01*
X62632867Y-85216107D01*
X62645480Y-85237151D01*
X62655970Y-85259329D01*
X62664235Y-85282429D01*
X62670196Y-85306227D01*
X62673796Y-85330496D01*
X62675000Y-85355000D01*
X62675000Y-86605000D01*
X62673796Y-86629504D01*
X62670196Y-86653773D01*
X62664235Y-86677571D01*
X62655970Y-86700671D01*
X62645480Y-86722849D01*
X62632867Y-86743893D01*
X62618253Y-86763598D01*
X62601777Y-86781777D01*
X62583598Y-86798253D01*
X62563893Y-86812867D01*
X62542849Y-86825480D01*
X62520671Y-86835970D01*
X62497571Y-86844235D01*
X62473773Y-86850196D01*
X62449504Y-86853796D01*
X62425000Y-86855000D01*
X61675000Y-86855000D01*
X61650496Y-86853796D01*
X61626227Y-86850196D01*
X61602429Y-86844235D01*
X61579329Y-86835970D01*
X61557151Y-86825480D01*
X61536107Y-86812867D01*
X61516402Y-86798253D01*
X61498223Y-86781777D01*
X61481747Y-86763598D01*
X61467133Y-86743893D01*
X61454520Y-86722849D01*
X61444030Y-86700671D01*
X61435765Y-86677571D01*
X61429804Y-86653773D01*
X61426204Y-86629504D01*
X61425000Y-86605000D01*
X61425000Y-85355000D01*
X61426204Y-85330496D01*
X61429804Y-85306227D01*
X61435765Y-85282429D01*
X61444030Y-85259329D01*
X61454520Y-85237151D01*
X61467133Y-85216107D01*
X61481747Y-85196402D01*
X61498223Y-85178223D01*
X61516402Y-85161747D01*
X61536107Y-85147133D01*
X61557151Y-85134520D01*
X61579329Y-85124030D01*
X61602429Y-85115765D01*
X61626227Y-85109804D01*
X61650496Y-85106204D01*
X61675000Y-85105000D01*
X62425000Y-85105000D01*
X62449504Y-85106204D01*
X62449504Y-85106204D01*
G37*
D12*
X62050000Y-85980000D03*
D10*
G36*
X61245142Y-89841174D02*
G01*
X61268803Y-89844684D01*
X61292007Y-89850496D01*
X61314529Y-89858554D01*
X61336153Y-89868782D01*
X61356670Y-89881079D01*
X61375883Y-89895329D01*
X61393607Y-89911393D01*
X61409671Y-89929117D01*
X61423921Y-89948330D01*
X61436218Y-89968847D01*
X61446446Y-89990471D01*
X61454504Y-90012993D01*
X61460316Y-90036197D01*
X61463826Y-90059858D01*
X61465000Y-90083750D01*
X61465000Y-90996250D01*
X61463826Y-91020142D01*
X61460316Y-91043803D01*
X61454504Y-91067007D01*
X61446446Y-91089529D01*
X61436218Y-91111153D01*
X61423921Y-91131670D01*
X61409671Y-91150883D01*
X61393607Y-91168607D01*
X61375883Y-91184671D01*
X61356670Y-91198921D01*
X61336153Y-91211218D01*
X61314529Y-91221446D01*
X61292007Y-91229504D01*
X61268803Y-91235316D01*
X61245142Y-91238826D01*
X61221250Y-91240000D01*
X60733750Y-91240000D01*
X60709858Y-91238826D01*
X60686197Y-91235316D01*
X60662993Y-91229504D01*
X60640471Y-91221446D01*
X60618847Y-91211218D01*
X60598330Y-91198921D01*
X60579117Y-91184671D01*
X60561393Y-91168607D01*
X60545329Y-91150883D01*
X60531079Y-91131670D01*
X60518782Y-91111153D01*
X60508554Y-91089529D01*
X60500496Y-91067007D01*
X60494684Y-91043803D01*
X60491174Y-91020142D01*
X60490000Y-90996250D01*
X60490000Y-90083750D01*
X60491174Y-90059858D01*
X60494684Y-90036197D01*
X60500496Y-90012993D01*
X60508554Y-89990471D01*
X60518782Y-89968847D01*
X60531079Y-89948330D01*
X60545329Y-89929117D01*
X60561393Y-89911393D01*
X60579117Y-89895329D01*
X60598330Y-89881079D01*
X60618847Y-89868782D01*
X60640471Y-89858554D01*
X60662993Y-89850496D01*
X60686197Y-89844684D01*
X60709858Y-89841174D01*
X60733750Y-89840000D01*
X61221250Y-89840000D01*
X61245142Y-89841174D01*
X61245142Y-89841174D01*
G37*
D11*
X60977500Y-90540000D03*
D10*
G36*
X59370142Y-89841174D02*
G01*
X59393803Y-89844684D01*
X59417007Y-89850496D01*
X59439529Y-89858554D01*
X59461153Y-89868782D01*
X59481670Y-89881079D01*
X59500883Y-89895329D01*
X59518607Y-89911393D01*
X59534671Y-89929117D01*
X59548921Y-89948330D01*
X59561218Y-89968847D01*
X59571446Y-89990471D01*
X59579504Y-90012993D01*
X59585316Y-90036197D01*
X59588826Y-90059858D01*
X59590000Y-90083750D01*
X59590000Y-90996250D01*
X59588826Y-91020142D01*
X59585316Y-91043803D01*
X59579504Y-91067007D01*
X59571446Y-91089529D01*
X59561218Y-91111153D01*
X59548921Y-91131670D01*
X59534671Y-91150883D01*
X59518607Y-91168607D01*
X59500883Y-91184671D01*
X59481670Y-91198921D01*
X59461153Y-91211218D01*
X59439529Y-91221446D01*
X59417007Y-91229504D01*
X59393803Y-91235316D01*
X59370142Y-91238826D01*
X59346250Y-91240000D01*
X58858750Y-91240000D01*
X58834858Y-91238826D01*
X58811197Y-91235316D01*
X58787993Y-91229504D01*
X58765471Y-91221446D01*
X58743847Y-91211218D01*
X58723330Y-91198921D01*
X58704117Y-91184671D01*
X58686393Y-91168607D01*
X58670329Y-91150883D01*
X58656079Y-91131670D01*
X58643782Y-91111153D01*
X58633554Y-91089529D01*
X58625496Y-91067007D01*
X58619684Y-91043803D01*
X58616174Y-91020142D01*
X58615000Y-90996250D01*
X58615000Y-90083750D01*
X58616174Y-90059858D01*
X58619684Y-90036197D01*
X58625496Y-90012993D01*
X58633554Y-89990471D01*
X58643782Y-89968847D01*
X58656079Y-89948330D01*
X58670329Y-89929117D01*
X58686393Y-89911393D01*
X58704117Y-89895329D01*
X58723330Y-89881079D01*
X58743847Y-89868782D01*
X58765471Y-89858554D01*
X58787993Y-89850496D01*
X58811197Y-89844684D01*
X58834858Y-89841174D01*
X58858750Y-89840000D01*
X59346250Y-89840000D01*
X59370142Y-89841174D01*
X59370142Y-89841174D01*
G37*
D11*
X59102500Y-90540000D03*
D10*
G36*
X59639504Y-87466204D02*
G01*
X59663773Y-87469804D01*
X59687571Y-87475765D01*
X59710671Y-87484030D01*
X59732849Y-87494520D01*
X59753893Y-87507133D01*
X59773598Y-87521747D01*
X59791777Y-87538223D01*
X59808253Y-87556402D01*
X59822867Y-87576107D01*
X59835480Y-87597151D01*
X59845970Y-87619329D01*
X59854235Y-87642429D01*
X59860196Y-87666227D01*
X59863796Y-87690496D01*
X59865000Y-87715000D01*
X59865000Y-88965000D01*
X59863796Y-88989504D01*
X59860196Y-89013773D01*
X59854235Y-89037571D01*
X59845970Y-89060671D01*
X59835480Y-89082849D01*
X59822867Y-89103893D01*
X59808253Y-89123598D01*
X59791777Y-89141777D01*
X59773598Y-89158253D01*
X59753893Y-89172867D01*
X59732849Y-89185480D01*
X59710671Y-89195970D01*
X59687571Y-89204235D01*
X59663773Y-89210196D01*
X59639504Y-89213796D01*
X59615000Y-89215000D01*
X58865000Y-89215000D01*
X58840496Y-89213796D01*
X58816227Y-89210196D01*
X58792429Y-89204235D01*
X58769329Y-89195970D01*
X58747151Y-89185480D01*
X58726107Y-89172867D01*
X58706402Y-89158253D01*
X58688223Y-89141777D01*
X58671747Y-89123598D01*
X58657133Y-89103893D01*
X58644520Y-89082849D01*
X58634030Y-89060671D01*
X58625765Y-89037571D01*
X58619804Y-89013773D01*
X58616204Y-88989504D01*
X58615000Y-88965000D01*
X58615000Y-87715000D01*
X58616204Y-87690496D01*
X58619804Y-87666227D01*
X58625765Y-87642429D01*
X58634030Y-87619329D01*
X58644520Y-87597151D01*
X58657133Y-87576107D01*
X58671747Y-87556402D01*
X58688223Y-87538223D01*
X58706402Y-87521747D01*
X58726107Y-87507133D01*
X58747151Y-87494520D01*
X58769329Y-87484030D01*
X58792429Y-87475765D01*
X58816227Y-87469804D01*
X58840496Y-87466204D01*
X58865000Y-87465000D01*
X59615000Y-87465000D01*
X59639504Y-87466204D01*
X59639504Y-87466204D01*
G37*
D12*
X59240000Y-88340000D03*
D10*
G36*
X62439504Y-87466204D02*
G01*
X62463773Y-87469804D01*
X62487571Y-87475765D01*
X62510671Y-87484030D01*
X62532849Y-87494520D01*
X62553893Y-87507133D01*
X62573598Y-87521747D01*
X62591777Y-87538223D01*
X62608253Y-87556402D01*
X62622867Y-87576107D01*
X62635480Y-87597151D01*
X62645970Y-87619329D01*
X62654235Y-87642429D01*
X62660196Y-87666227D01*
X62663796Y-87690496D01*
X62665000Y-87715000D01*
X62665000Y-88965000D01*
X62663796Y-88989504D01*
X62660196Y-89013773D01*
X62654235Y-89037571D01*
X62645970Y-89060671D01*
X62635480Y-89082849D01*
X62622867Y-89103893D01*
X62608253Y-89123598D01*
X62591777Y-89141777D01*
X62573598Y-89158253D01*
X62553893Y-89172867D01*
X62532849Y-89185480D01*
X62510671Y-89195970D01*
X62487571Y-89204235D01*
X62463773Y-89210196D01*
X62439504Y-89213796D01*
X62415000Y-89215000D01*
X61665000Y-89215000D01*
X61640496Y-89213796D01*
X61616227Y-89210196D01*
X61592429Y-89204235D01*
X61569329Y-89195970D01*
X61547151Y-89185480D01*
X61526107Y-89172867D01*
X61506402Y-89158253D01*
X61488223Y-89141777D01*
X61471747Y-89123598D01*
X61457133Y-89103893D01*
X61444520Y-89082849D01*
X61434030Y-89060671D01*
X61425765Y-89037571D01*
X61419804Y-89013773D01*
X61416204Y-88989504D01*
X61415000Y-88965000D01*
X61415000Y-87715000D01*
X61416204Y-87690496D01*
X61419804Y-87666227D01*
X61425765Y-87642429D01*
X61434030Y-87619329D01*
X61444520Y-87597151D01*
X61457133Y-87576107D01*
X61471747Y-87556402D01*
X61488223Y-87538223D01*
X61506402Y-87521747D01*
X61526107Y-87507133D01*
X61547151Y-87494520D01*
X61569329Y-87484030D01*
X61592429Y-87475765D01*
X61616227Y-87469804D01*
X61640496Y-87466204D01*
X61665000Y-87465000D01*
X62415000Y-87465000D01*
X62439504Y-87466204D01*
X62439504Y-87466204D01*
G37*
D12*
X62040000Y-88340000D03*
D10*
G36*
X59249703Y-92490722D02*
G01*
X59264264Y-92492882D01*
X59278543Y-92496459D01*
X59292403Y-92501418D01*
X59305710Y-92507712D01*
X59318336Y-92515280D01*
X59330159Y-92524048D01*
X59341066Y-92533934D01*
X59350952Y-92544841D01*
X59359720Y-92556664D01*
X59367288Y-92569290D01*
X59373582Y-92582597D01*
X59378541Y-92596457D01*
X59382118Y-92610736D01*
X59384278Y-92625297D01*
X59385000Y-92640000D01*
X59385000Y-94290000D01*
X59384278Y-94304703D01*
X59382118Y-94319264D01*
X59378541Y-94333543D01*
X59373582Y-94347403D01*
X59367288Y-94360710D01*
X59359720Y-94373336D01*
X59350952Y-94385159D01*
X59341066Y-94396066D01*
X59330159Y-94405952D01*
X59318336Y-94414720D01*
X59305710Y-94422288D01*
X59292403Y-94428582D01*
X59278543Y-94433541D01*
X59264264Y-94437118D01*
X59249703Y-94439278D01*
X59235000Y-94440000D01*
X58935000Y-94440000D01*
X58920297Y-94439278D01*
X58905736Y-94437118D01*
X58891457Y-94433541D01*
X58877597Y-94428582D01*
X58864290Y-94422288D01*
X58851664Y-94414720D01*
X58839841Y-94405952D01*
X58828934Y-94396066D01*
X58819048Y-94385159D01*
X58810280Y-94373336D01*
X58802712Y-94360710D01*
X58796418Y-94347403D01*
X58791459Y-94333543D01*
X58787882Y-94319264D01*
X58785722Y-94304703D01*
X58785000Y-94290000D01*
X58785000Y-92640000D01*
X58785722Y-92625297D01*
X58787882Y-92610736D01*
X58791459Y-92596457D01*
X58796418Y-92582597D01*
X58802712Y-92569290D01*
X58810280Y-92556664D01*
X58819048Y-92544841D01*
X58828934Y-92533934D01*
X58839841Y-92524048D01*
X58851664Y-92515280D01*
X58864290Y-92507712D01*
X58877597Y-92501418D01*
X58891457Y-92496459D01*
X58905736Y-92492882D01*
X58920297Y-92490722D01*
X58935000Y-92490000D01*
X59235000Y-92490000D01*
X59249703Y-92490722D01*
X59249703Y-92490722D01*
G37*
D13*
X59085000Y-93465000D03*
D10*
G36*
X60519703Y-92490722D02*
G01*
X60534264Y-92492882D01*
X60548543Y-92496459D01*
X60562403Y-92501418D01*
X60575710Y-92507712D01*
X60588336Y-92515280D01*
X60600159Y-92524048D01*
X60611066Y-92533934D01*
X60620952Y-92544841D01*
X60629720Y-92556664D01*
X60637288Y-92569290D01*
X60643582Y-92582597D01*
X60648541Y-92596457D01*
X60652118Y-92610736D01*
X60654278Y-92625297D01*
X60655000Y-92640000D01*
X60655000Y-94290000D01*
X60654278Y-94304703D01*
X60652118Y-94319264D01*
X60648541Y-94333543D01*
X60643582Y-94347403D01*
X60637288Y-94360710D01*
X60629720Y-94373336D01*
X60620952Y-94385159D01*
X60611066Y-94396066D01*
X60600159Y-94405952D01*
X60588336Y-94414720D01*
X60575710Y-94422288D01*
X60562403Y-94428582D01*
X60548543Y-94433541D01*
X60534264Y-94437118D01*
X60519703Y-94439278D01*
X60505000Y-94440000D01*
X60205000Y-94440000D01*
X60190297Y-94439278D01*
X60175736Y-94437118D01*
X60161457Y-94433541D01*
X60147597Y-94428582D01*
X60134290Y-94422288D01*
X60121664Y-94414720D01*
X60109841Y-94405952D01*
X60098934Y-94396066D01*
X60089048Y-94385159D01*
X60080280Y-94373336D01*
X60072712Y-94360710D01*
X60066418Y-94347403D01*
X60061459Y-94333543D01*
X60057882Y-94319264D01*
X60055722Y-94304703D01*
X60055000Y-94290000D01*
X60055000Y-92640000D01*
X60055722Y-92625297D01*
X60057882Y-92610736D01*
X60061459Y-92596457D01*
X60066418Y-92582597D01*
X60072712Y-92569290D01*
X60080280Y-92556664D01*
X60089048Y-92544841D01*
X60098934Y-92533934D01*
X60109841Y-92524048D01*
X60121664Y-92515280D01*
X60134290Y-92507712D01*
X60147597Y-92501418D01*
X60161457Y-92496459D01*
X60175736Y-92492882D01*
X60190297Y-92490722D01*
X60205000Y-92490000D01*
X60505000Y-92490000D01*
X60519703Y-92490722D01*
X60519703Y-92490722D01*
G37*
D13*
X60355000Y-93465000D03*
D10*
G36*
X61789703Y-92490722D02*
G01*
X61804264Y-92492882D01*
X61818543Y-92496459D01*
X61832403Y-92501418D01*
X61845710Y-92507712D01*
X61858336Y-92515280D01*
X61870159Y-92524048D01*
X61881066Y-92533934D01*
X61890952Y-92544841D01*
X61899720Y-92556664D01*
X61907288Y-92569290D01*
X61913582Y-92582597D01*
X61918541Y-92596457D01*
X61922118Y-92610736D01*
X61924278Y-92625297D01*
X61925000Y-92640000D01*
X61925000Y-94290000D01*
X61924278Y-94304703D01*
X61922118Y-94319264D01*
X61918541Y-94333543D01*
X61913582Y-94347403D01*
X61907288Y-94360710D01*
X61899720Y-94373336D01*
X61890952Y-94385159D01*
X61881066Y-94396066D01*
X61870159Y-94405952D01*
X61858336Y-94414720D01*
X61845710Y-94422288D01*
X61832403Y-94428582D01*
X61818543Y-94433541D01*
X61804264Y-94437118D01*
X61789703Y-94439278D01*
X61775000Y-94440000D01*
X61475000Y-94440000D01*
X61460297Y-94439278D01*
X61445736Y-94437118D01*
X61431457Y-94433541D01*
X61417597Y-94428582D01*
X61404290Y-94422288D01*
X61391664Y-94414720D01*
X61379841Y-94405952D01*
X61368934Y-94396066D01*
X61359048Y-94385159D01*
X61350280Y-94373336D01*
X61342712Y-94360710D01*
X61336418Y-94347403D01*
X61331459Y-94333543D01*
X61327882Y-94319264D01*
X61325722Y-94304703D01*
X61325000Y-94290000D01*
X61325000Y-92640000D01*
X61325722Y-92625297D01*
X61327882Y-92610736D01*
X61331459Y-92596457D01*
X61336418Y-92582597D01*
X61342712Y-92569290D01*
X61350280Y-92556664D01*
X61359048Y-92544841D01*
X61368934Y-92533934D01*
X61379841Y-92524048D01*
X61391664Y-92515280D01*
X61404290Y-92507712D01*
X61417597Y-92501418D01*
X61431457Y-92496459D01*
X61445736Y-92492882D01*
X61460297Y-92490722D01*
X61475000Y-92490000D01*
X61775000Y-92490000D01*
X61789703Y-92490722D01*
X61789703Y-92490722D01*
G37*
D13*
X61625000Y-93465000D03*
D10*
G36*
X63059703Y-92490722D02*
G01*
X63074264Y-92492882D01*
X63088543Y-92496459D01*
X63102403Y-92501418D01*
X63115710Y-92507712D01*
X63128336Y-92515280D01*
X63140159Y-92524048D01*
X63151066Y-92533934D01*
X63160952Y-92544841D01*
X63169720Y-92556664D01*
X63177288Y-92569290D01*
X63183582Y-92582597D01*
X63188541Y-92596457D01*
X63192118Y-92610736D01*
X63194278Y-92625297D01*
X63195000Y-92640000D01*
X63195000Y-94290000D01*
X63194278Y-94304703D01*
X63192118Y-94319264D01*
X63188541Y-94333543D01*
X63183582Y-94347403D01*
X63177288Y-94360710D01*
X63169720Y-94373336D01*
X63160952Y-94385159D01*
X63151066Y-94396066D01*
X63140159Y-94405952D01*
X63128336Y-94414720D01*
X63115710Y-94422288D01*
X63102403Y-94428582D01*
X63088543Y-94433541D01*
X63074264Y-94437118D01*
X63059703Y-94439278D01*
X63045000Y-94440000D01*
X62745000Y-94440000D01*
X62730297Y-94439278D01*
X62715736Y-94437118D01*
X62701457Y-94433541D01*
X62687597Y-94428582D01*
X62674290Y-94422288D01*
X62661664Y-94414720D01*
X62649841Y-94405952D01*
X62638934Y-94396066D01*
X62629048Y-94385159D01*
X62620280Y-94373336D01*
X62612712Y-94360710D01*
X62606418Y-94347403D01*
X62601459Y-94333543D01*
X62597882Y-94319264D01*
X62595722Y-94304703D01*
X62595000Y-94290000D01*
X62595000Y-92640000D01*
X62595722Y-92625297D01*
X62597882Y-92610736D01*
X62601459Y-92596457D01*
X62606418Y-92582597D01*
X62612712Y-92569290D01*
X62620280Y-92556664D01*
X62629048Y-92544841D01*
X62638934Y-92533934D01*
X62649841Y-92524048D01*
X62661664Y-92515280D01*
X62674290Y-92507712D01*
X62687597Y-92501418D01*
X62701457Y-92496459D01*
X62715736Y-92492882D01*
X62730297Y-92490722D01*
X62745000Y-92490000D01*
X63045000Y-92490000D01*
X63059703Y-92490722D01*
X63059703Y-92490722D01*
G37*
D13*
X62895000Y-93465000D03*
D10*
G36*
X64329703Y-92490722D02*
G01*
X64344264Y-92492882D01*
X64358543Y-92496459D01*
X64372403Y-92501418D01*
X64385710Y-92507712D01*
X64398336Y-92515280D01*
X64410159Y-92524048D01*
X64421066Y-92533934D01*
X64430952Y-92544841D01*
X64439720Y-92556664D01*
X64447288Y-92569290D01*
X64453582Y-92582597D01*
X64458541Y-92596457D01*
X64462118Y-92610736D01*
X64464278Y-92625297D01*
X64465000Y-92640000D01*
X64465000Y-94290000D01*
X64464278Y-94304703D01*
X64462118Y-94319264D01*
X64458541Y-94333543D01*
X64453582Y-94347403D01*
X64447288Y-94360710D01*
X64439720Y-94373336D01*
X64430952Y-94385159D01*
X64421066Y-94396066D01*
X64410159Y-94405952D01*
X64398336Y-94414720D01*
X64385710Y-94422288D01*
X64372403Y-94428582D01*
X64358543Y-94433541D01*
X64344264Y-94437118D01*
X64329703Y-94439278D01*
X64315000Y-94440000D01*
X64015000Y-94440000D01*
X64000297Y-94439278D01*
X63985736Y-94437118D01*
X63971457Y-94433541D01*
X63957597Y-94428582D01*
X63944290Y-94422288D01*
X63931664Y-94414720D01*
X63919841Y-94405952D01*
X63908934Y-94396066D01*
X63899048Y-94385159D01*
X63890280Y-94373336D01*
X63882712Y-94360710D01*
X63876418Y-94347403D01*
X63871459Y-94333543D01*
X63867882Y-94319264D01*
X63865722Y-94304703D01*
X63865000Y-94290000D01*
X63865000Y-92640000D01*
X63865722Y-92625297D01*
X63867882Y-92610736D01*
X63871459Y-92596457D01*
X63876418Y-92582597D01*
X63882712Y-92569290D01*
X63890280Y-92556664D01*
X63899048Y-92544841D01*
X63908934Y-92533934D01*
X63919841Y-92524048D01*
X63931664Y-92515280D01*
X63944290Y-92507712D01*
X63957597Y-92501418D01*
X63971457Y-92496459D01*
X63985736Y-92492882D01*
X64000297Y-92490722D01*
X64015000Y-92490000D01*
X64315000Y-92490000D01*
X64329703Y-92490722D01*
X64329703Y-92490722D01*
G37*
D13*
X64165000Y-93465000D03*
D10*
G36*
X65599703Y-92490722D02*
G01*
X65614264Y-92492882D01*
X65628543Y-92496459D01*
X65642403Y-92501418D01*
X65655710Y-92507712D01*
X65668336Y-92515280D01*
X65680159Y-92524048D01*
X65691066Y-92533934D01*
X65700952Y-92544841D01*
X65709720Y-92556664D01*
X65717288Y-92569290D01*
X65723582Y-92582597D01*
X65728541Y-92596457D01*
X65732118Y-92610736D01*
X65734278Y-92625297D01*
X65735000Y-92640000D01*
X65735000Y-94290000D01*
X65734278Y-94304703D01*
X65732118Y-94319264D01*
X65728541Y-94333543D01*
X65723582Y-94347403D01*
X65717288Y-94360710D01*
X65709720Y-94373336D01*
X65700952Y-94385159D01*
X65691066Y-94396066D01*
X65680159Y-94405952D01*
X65668336Y-94414720D01*
X65655710Y-94422288D01*
X65642403Y-94428582D01*
X65628543Y-94433541D01*
X65614264Y-94437118D01*
X65599703Y-94439278D01*
X65585000Y-94440000D01*
X65285000Y-94440000D01*
X65270297Y-94439278D01*
X65255736Y-94437118D01*
X65241457Y-94433541D01*
X65227597Y-94428582D01*
X65214290Y-94422288D01*
X65201664Y-94414720D01*
X65189841Y-94405952D01*
X65178934Y-94396066D01*
X65169048Y-94385159D01*
X65160280Y-94373336D01*
X65152712Y-94360710D01*
X65146418Y-94347403D01*
X65141459Y-94333543D01*
X65137882Y-94319264D01*
X65135722Y-94304703D01*
X65135000Y-94290000D01*
X65135000Y-92640000D01*
X65135722Y-92625297D01*
X65137882Y-92610736D01*
X65141459Y-92596457D01*
X65146418Y-92582597D01*
X65152712Y-92569290D01*
X65160280Y-92556664D01*
X65169048Y-92544841D01*
X65178934Y-92533934D01*
X65189841Y-92524048D01*
X65201664Y-92515280D01*
X65214290Y-92507712D01*
X65227597Y-92501418D01*
X65241457Y-92496459D01*
X65255736Y-92492882D01*
X65270297Y-92490722D01*
X65285000Y-92490000D01*
X65585000Y-92490000D01*
X65599703Y-92490722D01*
X65599703Y-92490722D01*
G37*
D13*
X65435000Y-93465000D03*
D10*
G36*
X66869703Y-92490722D02*
G01*
X66884264Y-92492882D01*
X66898543Y-92496459D01*
X66912403Y-92501418D01*
X66925710Y-92507712D01*
X66938336Y-92515280D01*
X66950159Y-92524048D01*
X66961066Y-92533934D01*
X66970952Y-92544841D01*
X66979720Y-92556664D01*
X66987288Y-92569290D01*
X66993582Y-92582597D01*
X66998541Y-92596457D01*
X67002118Y-92610736D01*
X67004278Y-92625297D01*
X67005000Y-92640000D01*
X67005000Y-94290000D01*
X67004278Y-94304703D01*
X67002118Y-94319264D01*
X66998541Y-94333543D01*
X66993582Y-94347403D01*
X66987288Y-94360710D01*
X66979720Y-94373336D01*
X66970952Y-94385159D01*
X66961066Y-94396066D01*
X66950159Y-94405952D01*
X66938336Y-94414720D01*
X66925710Y-94422288D01*
X66912403Y-94428582D01*
X66898543Y-94433541D01*
X66884264Y-94437118D01*
X66869703Y-94439278D01*
X66855000Y-94440000D01*
X66555000Y-94440000D01*
X66540297Y-94439278D01*
X66525736Y-94437118D01*
X66511457Y-94433541D01*
X66497597Y-94428582D01*
X66484290Y-94422288D01*
X66471664Y-94414720D01*
X66459841Y-94405952D01*
X66448934Y-94396066D01*
X66439048Y-94385159D01*
X66430280Y-94373336D01*
X66422712Y-94360710D01*
X66416418Y-94347403D01*
X66411459Y-94333543D01*
X66407882Y-94319264D01*
X66405722Y-94304703D01*
X66405000Y-94290000D01*
X66405000Y-92640000D01*
X66405722Y-92625297D01*
X66407882Y-92610736D01*
X66411459Y-92596457D01*
X66416418Y-92582597D01*
X66422712Y-92569290D01*
X66430280Y-92556664D01*
X66439048Y-92544841D01*
X66448934Y-92533934D01*
X66459841Y-92524048D01*
X66471664Y-92515280D01*
X66484290Y-92507712D01*
X66497597Y-92501418D01*
X66511457Y-92496459D01*
X66525736Y-92492882D01*
X66540297Y-92490722D01*
X66555000Y-92490000D01*
X66855000Y-92490000D01*
X66869703Y-92490722D01*
X66869703Y-92490722D01*
G37*
D13*
X66705000Y-93465000D03*
D10*
G36*
X68139703Y-92490722D02*
G01*
X68154264Y-92492882D01*
X68168543Y-92496459D01*
X68182403Y-92501418D01*
X68195710Y-92507712D01*
X68208336Y-92515280D01*
X68220159Y-92524048D01*
X68231066Y-92533934D01*
X68240952Y-92544841D01*
X68249720Y-92556664D01*
X68257288Y-92569290D01*
X68263582Y-92582597D01*
X68268541Y-92596457D01*
X68272118Y-92610736D01*
X68274278Y-92625297D01*
X68275000Y-92640000D01*
X68275000Y-94290000D01*
X68274278Y-94304703D01*
X68272118Y-94319264D01*
X68268541Y-94333543D01*
X68263582Y-94347403D01*
X68257288Y-94360710D01*
X68249720Y-94373336D01*
X68240952Y-94385159D01*
X68231066Y-94396066D01*
X68220159Y-94405952D01*
X68208336Y-94414720D01*
X68195710Y-94422288D01*
X68182403Y-94428582D01*
X68168543Y-94433541D01*
X68154264Y-94437118D01*
X68139703Y-94439278D01*
X68125000Y-94440000D01*
X67825000Y-94440000D01*
X67810297Y-94439278D01*
X67795736Y-94437118D01*
X67781457Y-94433541D01*
X67767597Y-94428582D01*
X67754290Y-94422288D01*
X67741664Y-94414720D01*
X67729841Y-94405952D01*
X67718934Y-94396066D01*
X67709048Y-94385159D01*
X67700280Y-94373336D01*
X67692712Y-94360710D01*
X67686418Y-94347403D01*
X67681459Y-94333543D01*
X67677882Y-94319264D01*
X67675722Y-94304703D01*
X67675000Y-94290000D01*
X67675000Y-92640000D01*
X67675722Y-92625297D01*
X67677882Y-92610736D01*
X67681459Y-92596457D01*
X67686418Y-92582597D01*
X67692712Y-92569290D01*
X67700280Y-92556664D01*
X67709048Y-92544841D01*
X67718934Y-92533934D01*
X67729841Y-92524048D01*
X67741664Y-92515280D01*
X67754290Y-92507712D01*
X67767597Y-92501418D01*
X67781457Y-92496459D01*
X67795736Y-92492882D01*
X67810297Y-92490722D01*
X67825000Y-92490000D01*
X68125000Y-92490000D01*
X68139703Y-92490722D01*
X68139703Y-92490722D01*
G37*
D13*
X67975000Y-93465000D03*
D10*
G36*
X68139703Y-97440722D02*
G01*
X68154264Y-97442882D01*
X68168543Y-97446459D01*
X68182403Y-97451418D01*
X68195710Y-97457712D01*
X68208336Y-97465280D01*
X68220159Y-97474048D01*
X68231066Y-97483934D01*
X68240952Y-97494841D01*
X68249720Y-97506664D01*
X68257288Y-97519290D01*
X68263582Y-97532597D01*
X68268541Y-97546457D01*
X68272118Y-97560736D01*
X68274278Y-97575297D01*
X68275000Y-97590000D01*
X68275000Y-99240000D01*
X68274278Y-99254703D01*
X68272118Y-99269264D01*
X68268541Y-99283543D01*
X68263582Y-99297403D01*
X68257288Y-99310710D01*
X68249720Y-99323336D01*
X68240952Y-99335159D01*
X68231066Y-99346066D01*
X68220159Y-99355952D01*
X68208336Y-99364720D01*
X68195710Y-99372288D01*
X68182403Y-99378582D01*
X68168543Y-99383541D01*
X68154264Y-99387118D01*
X68139703Y-99389278D01*
X68125000Y-99390000D01*
X67825000Y-99390000D01*
X67810297Y-99389278D01*
X67795736Y-99387118D01*
X67781457Y-99383541D01*
X67767597Y-99378582D01*
X67754290Y-99372288D01*
X67741664Y-99364720D01*
X67729841Y-99355952D01*
X67718934Y-99346066D01*
X67709048Y-99335159D01*
X67700280Y-99323336D01*
X67692712Y-99310710D01*
X67686418Y-99297403D01*
X67681459Y-99283543D01*
X67677882Y-99269264D01*
X67675722Y-99254703D01*
X67675000Y-99240000D01*
X67675000Y-97590000D01*
X67675722Y-97575297D01*
X67677882Y-97560736D01*
X67681459Y-97546457D01*
X67686418Y-97532597D01*
X67692712Y-97519290D01*
X67700280Y-97506664D01*
X67709048Y-97494841D01*
X67718934Y-97483934D01*
X67729841Y-97474048D01*
X67741664Y-97465280D01*
X67754290Y-97457712D01*
X67767597Y-97451418D01*
X67781457Y-97446459D01*
X67795736Y-97442882D01*
X67810297Y-97440722D01*
X67825000Y-97440000D01*
X68125000Y-97440000D01*
X68139703Y-97440722D01*
X68139703Y-97440722D01*
G37*
D13*
X67975000Y-98415000D03*
D10*
G36*
X66869703Y-97440722D02*
G01*
X66884264Y-97442882D01*
X66898543Y-97446459D01*
X66912403Y-97451418D01*
X66925710Y-97457712D01*
X66938336Y-97465280D01*
X66950159Y-97474048D01*
X66961066Y-97483934D01*
X66970952Y-97494841D01*
X66979720Y-97506664D01*
X66987288Y-97519290D01*
X66993582Y-97532597D01*
X66998541Y-97546457D01*
X67002118Y-97560736D01*
X67004278Y-97575297D01*
X67005000Y-97590000D01*
X67005000Y-99240000D01*
X67004278Y-99254703D01*
X67002118Y-99269264D01*
X66998541Y-99283543D01*
X66993582Y-99297403D01*
X66987288Y-99310710D01*
X66979720Y-99323336D01*
X66970952Y-99335159D01*
X66961066Y-99346066D01*
X66950159Y-99355952D01*
X66938336Y-99364720D01*
X66925710Y-99372288D01*
X66912403Y-99378582D01*
X66898543Y-99383541D01*
X66884264Y-99387118D01*
X66869703Y-99389278D01*
X66855000Y-99390000D01*
X66555000Y-99390000D01*
X66540297Y-99389278D01*
X66525736Y-99387118D01*
X66511457Y-99383541D01*
X66497597Y-99378582D01*
X66484290Y-99372288D01*
X66471664Y-99364720D01*
X66459841Y-99355952D01*
X66448934Y-99346066D01*
X66439048Y-99335159D01*
X66430280Y-99323336D01*
X66422712Y-99310710D01*
X66416418Y-99297403D01*
X66411459Y-99283543D01*
X66407882Y-99269264D01*
X66405722Y-99254703D01*
X66405000Y-99240000D01*
X66405000Y-97590000D01*
X66405722Y-97575297D01*
X66407882Y-97560736D01*
X66411459Y-97546457D01*
X66416418Y-97532597D01*
X66422712Y-97519290D01*
X66430280Y-97506664D01*
X66439048Y-97494841D01*
X66448934Y-97483934D01*
X66459841Y-97474048D01*
X66471664Y-97465280D01*
X66484290Y-97457712D01*
X66497597Y-97451418D01*
X66511457Y-97446459D01*
X66525736Y-97442882D01*
X66540297Y-97440722D01*
X66555000Y-97440000D01*
X66855000Y-97440000D01*
X66869703Y-97440722D01*
X66869703Y-97440722D01*
G37*
D13*
X66705000Y-98415000D03*
D10*
G36*
X65599703Y-97440722D02*
G01*
X65614264Y-97442882D01*
X65628543Y-97446459D01*
X65642403Y-97451418D01*
X65655710Y-97457712D01*
X65668336Y-97465280D01*
X65680159Y-97474048D01*
X65691066Y-97483934D01*
X65700952Y-97494841D01*
X65709720Y-97506664D01*
X65717288Y-97519290D01*
X65723582Y-97532597D01*
X65728541Y-97546457D01*
X65732118Y-97560736D01*
X65734278Y-97575297D01*
X65735000Y-97590000D01*
X65735000Y-99240000D01*
X65734278Y-99254703D01*
X65732118Y-99269264D01*
X65728541Y-99283543D01*
X65723582Y-99297403D01*
X65717288Y-99310710D01*
X65709720Y-99323336D01*
X65700952Y-99335159D01*
X65691066Y-99346066D01*
X65680159Y-99355952D01*
X65668336Y-99364720D01*
X65655710Y-99372288D01*
X65642403Y-99378582D01*
X65628543Y-99383541D01*
X65614264Y-99387118D01*
X65599703Y-99389278D01*
X65585000Y-99390000D01*
X65285000Y-99390000D01*
X65270297Y-99389278D01*
X65255736Y-99387118D01*
X65241457Y-99383541D01*
X65227597Y-99378582D01*
X65214290Y-99372288D01*
X65201664Y-99364720D01*
X65189841Y-99355952D01*
X65178934Y-99346066D01*
X65169048Y-99335159D01*
X65160280Y-99323336D01*
X65152712Y-99310710D01*
X65146418Y-99297403D01*
X65141459Y-99283543D01*
X65137882Y-99269264D01*
X65135722Y-99254703D01*
X65135000Y-99240000D01*
X65135000Y-97590000D01*
X65135722Y-97575297D01*
X65137882Y-97560736D01*
X65141459Y-97546457D01*
X65146418Y-97532597D01*
X65152712Y-97519290D01*
X65160280Y-97506664D01*
X65169048Y-97494841D01*
X65178934Y-97483934D01*
X65189841Y-97474048D01*
X65201664Y-97465280D01*
X65214290Y-97457712D01*
X65227597Y-97451418D01*
X65241457Y-97446459D01*
X65255736Y-97442882D01*
X65270297Y-97440722D01*
X65285000Y-97440000D01*
X65585000Y-97440000D01*
X65599703Y-97440722D01*
X65599703Y-97440722D01*
G37*
D13*
X65435000Y-98415000D03*
D10*
G36*
X64329703Y-97440722D02*
G01*
X64344264Y-97442882D01*
X64358543Y-97446459D01*
X64372403Y-97451418D01*
X64385710Y-97457712D01*
X64398336Y-97465280D01*
X64410159Y-97474048D01*
X64421066Y-97483934D01*
X64430952Y-97494841D01*
X64439720Y-97506664D01*
X64447288Y-97519290D01*
X64453582Y-97532597D01*
X64458541Y-97546457D01*
X64462118Y-97560736D01*
X64464278Y-97575297D01*
X64465000Y-97590000D01*
X64465000Y-99240000D01*
X64464278Y-99254703D01*
X64462118Y-99269264D01*
X64458541Y-99283543D01*
X64453582Y-99297403D01*
X64447288Y-99310710D01*
X64439720Y-99323336D01*
X64430952Y-99335159D01*
X64421066Y-99346066D01*
X64410159Y-99355952D01*
X64398336Y-99364720D01*
X64385710Y-99372288D01*
X64372403Y-99378582D01*
X64358543Y-99383541D01*
X64344264Y-99387118D01*
X64329703Y-99389278D01*
X64315000Y-99390000D01*
X64015000Y-99390000D01*
X64000297Y-99389278D01*
X63985736Y-99387118D01*
X63971457Y-99383541D01*
X63957597Y-99378582D01*
X63944290Y-99372288D01*
X63931664Y-99364720D01*
X63919841Y-99355952D01*
X63908934Y-99346066D01*
X63899048Y-99335159D01*
X63890280Y-99323336D01*
X63882712Y-99310710D01*
X63876418Y-99297403D01*
X63871459Y-99283543D01*
X63867882Y-99269264D01*
X63865722Y-99254703D01*
X63865000Y-99240000D01*
X63865000Y-97590000D01*
X63865722Y-97575297D01*
X63867882Y-97560736D01*
X63871459Y-97546457D01*
X63876418Y-97532597D01*
X63882712Y-97519290D01*
X63890280Y-97506664D01*
X63899048Y-97494841D01*
X63908934Y-97483934D01*
X63919841Y-97474048D01*
X63931664Y-97465280D01*
X63944290Y-97457712D01*
X63957597Y-97451418D01*
X63971457Y-97446459D01*
X63985736Y-97442882D01*
X64000297Y-97440722D01*
X64015000Y-97440000D01*
X64315000Y-97440000D01*
X64329703Y-97440722D01*
X64329703Y-97440722D01*
G37*
D13*
X64165000Y-98415000D03*
D10*
G36*
X63059703Y-97440722D02*
G01*
X63074264Y-97442882D01*
X63088543Y-97446459D01*
X63102403Y-97451418D01*
X63115710Y-97457712D01*
X63128336Y-97465280D01*
X63140159Y-97474048D01*
X63151066Y-97483934D01*
X63160952Y-97494841D01*
X63169720Y-97506664D01*
X63177288Y-97519290D01*
X63183582Y-97532597D01*
X63188541Y-97546457D01*
X63192118Y-97560736D01*
X63194278Y-97575297D01*
X63195000Y-97590000D01*
X63195000Y-99240000D01*
X63194278Y-99254703D01*
X63192118Y-99269264D01*
X63188541Y-99283543D01*
X63183582Y-99297403D01*
X63177288Y-99310710D01*
X63169720Y-99323336D01*
X63160952Y-99335159D01*
X63151066Y-99346066D01*
X63140159Y-99355952D01*
X63128336Y-99364720D01*
X63115710Y-99372288D01*
X63102403Y-99378582D01*
X63088543Y-99383541D01*
X63074264Y-99387118D01*
X63059703Y-99389278D01*
X63045000Y-99390000D01*
X62745000Y-99390000D01*
X62730297Y-99389278D01*
X62715736Y-99387118D01*
X62701457Y-99383541D01*
X62687597Y-99378582D01*
X62674290Y-99372288D01*
X62661664Y-99364720D01*
X62649841Y-99355952D01*
X62638934Y-99346066D01*
X62629048Y-99335159D01*
X62620280Y-99323336D01*
X62612712Y-99310710D01*
X62606418Y-99297403D01*
X62601459Y-99283543D01*
X62597882Y-99269264D01*
X62595722Y-99254703D01*
X62595000Y-99240000D01*
X62595000Y-97590000D01*
X62595722Y-97575297D01*
X62597882Y-97560736D01*
X62601459Y-97546457D01*
X62606418Y-97532597D01*
X62612712Y-97519290D01*
X62620280Y-97506664D01*
X62629048Y-97494841D01*
X62638934Y-97483934D01*
X62649841Y-97474048D01*
X62661664Y-97465280D01*
X62674290Y-97457712D01*
X62687597Y-97451418D01*
X62701457Y-97446459D01*
X62715736Y-97442882D01*
X62730297Y-97440722D01*
X62745000Y-97440000D01*
X63045000Y-97440000D01*
X63059703Y-97440722D01*
X63059703Y-97440722D01*
G37*
D13*
X62895000Y-98415000D03*
D10*
G36*
X61789703Y-97440722D02*
G01*
X61804264Y-97442882D01*
X61818543Y-97446459D01*
X61832403Y-97451418D01*
X61845710Y-97457712D01*
X61858336Y-97465280D01*
X61870159Y-97474048D01*
X61881066Y-97483934D01*
X61890952Y-97494841D01*
X61899720Y-97506664D01*
X61907288Y-97519290D01*
X61913582Y-97532597D01*
X61918541Y-97546457D01*
X61922118Y-97560736D01*
X61924278Y-97575297D01*
X61925000Y-97590000D01*
X61925000Y-99240000D01*
X61924278Y-99254703D01*
X61922118Y-99269264D01*
X61918541Y-99283543D01*
X61913582Y-99297403D01*
X61907288Y-99310710D01*
X61899720Y-99323336D01*
X61890952Y-99335159D01*
X61881066Y-99346066D01*
X61870159Y-99355952D01*
X61858336Y-99364720D01*
X61845710Y-99372288D01*
X61832403Y-99378582D01*
X61818543Y-99383541D01*
X61804264Y-99387118D01*
X61789703Y-99389278D01*
X61775000Y-99390000D01*
X61475000Y-99390000D01*
X61460297Y-99389278D01*
X61445736Y-99387118D01*
X61431457Y-99383541D01*
X61417597Y-99378582D01*
X61404290Y-99372288D01*
X61391664Y-99364720D01*
X61379841Y-99355952D01*
X61368934Y-99346066D01*
X61359048Y-99335159D01*
X61350280Y-99323336D01*
X61342712Y-99310710D01*
X61336418Y-99297403D01*
X61331459Y-99283543D01*
X61327882Y-99269264D01*
X61325722Y-99254703D01*
X61325000Y-99240000D01*
X61325000Y-97590000D01*
X61325722Y-97575297D01*
X61327882Y-97560736D01*
X61331459Y-97546457D01*
X61336418Y-97532597D01*
X61342712Y-97519290D01*
X61350280Y-97506664D01*
X61359048Y-97494841D01*
X61368934Y-97483934D01*
X61379841Y-97474048D01*
X61391664Y-97465280D01*
X61404290Y-97457712D01*
X61417597Y-97451418D01*
X61431457Y-97446459D01*
X61445736Y-97442882D01*
X61460297Y-97440722D01*
X61475000Y-97440000D01*
X61775000Y-97440000D01*
X61789703Y-97440722D01*
X61789703Y-97440722D01*
G37*
D13*
X61625000Y-98415000D03*
D10*
G36*
X60519703Y-97440722D02*
G01*
X60534264Y-97442882D01*
X60548543Y-97446459D01*
X60562403Y-97451418D01*
X60575710Y-97457712D01*
X60588336Y-97465280D01*
X60600159Y-97474048D01*
X60611066Y-97483934D01*
X60620952Y-97494841D01*
X60629720Y-97506664D01*
X60637288Y-97519290D01*
X60643582Y-97532597D01*
X60648541Y-97546457D01*
X60652118Y-97560736D01*
X60654278Y-97575297D01*
X60655000Y-97590000D01*
X60655000Y-99240000D01*
X60654278Y-99254703D01*
X60652118Y-99269264D01*
X60648541Y-99283543D01*
X60643582Y-99297403D01*
X60637288Y-99310710D01*
X60629720Y-99323336D01*
X60620952Y-99335159D01*
X60611066Y-99346066D01*
X60600159Y-99355952D01*
X60588336Y-99364720D01*
X60575710Y-99372288D01*
X60562403Y-99378582D01*
X60548543Y-99383541D01*
X60534264Y-99387118D01*
X60519703Y-99389278D01*
X60505000Y-99390000D01*
X60205000Y-99390000D01*
X60190297Y-99389278D01*
X60175736Y-99387118D01*
X60161457Y-99383541D01*
X60147597Y-99378582D01*
X60134290Y-99372288D01*
X60121664Y-99364720D01*
X60109841Y-99355952D01*
X60098934Y-99346066D01*
X60089048Y-99335159D01*
X60080280Y-99323336D01*
X60072712Y-99310710D01*
X60066418Y-99297403D01*
X60061459Y-99283543D01*
X60057882Y-99269264D01*
X60055722Y-99254703D01*
X60055000Y-99240000D01*
X60055000Y-97590000D01*
X60055722Y-97575297D01*
X60057882Y-97560736D01*
X60061459Y-97546457D01*
X60066418Y-97532597D01*
X60072712Y-97519290D01*
X60080280Y-97506664D01*
X60089048Y-97494841D01*
X60098934Y-97483934D01*
X60109841Y-97474048D01*
X60121664Y-97465280D01*
X60134290Y-97457712D01*
X60147597Y-97451418D01*
X60161457Y-97446459D01*
X60175736Y-97442882D01*
X60190297Y-97440722D01*
X60205000Y-97440000D01*
X60505000Y-97440000D01*
X60519703Y-97440722D01*
X60519703Y-97440722D01*
G37*
D13*
X60355000Y-98415000D03*
D10*
G36*
X59249703Y-97440722D02*
G01*
X59264264Y-97442882D01*
X59278543Y-97446459D01*
X59292403Y-97451418D01*
X59305710Y-97457712D01*
X59318336Y-97465280D01*
X59330159Y-97474048D01*
X59341066Y-97483934D01*
X59350952Y-97494841D01*
X59359720Y-97506664D01*
X59367288Y-97519290D01*
X59373582Y-97532597D01*
X59378541Y-97546457D01*
X59382118Y-97560736D01*
X59384278Y-97575297D01*
X59385000Y-97590000D01*
X59385000Y-99240000D01*
X59384278Y-99254703D01*
X59382118Y-99269264D01*
X59378541Y-99283543D01*
X59373582Y-99297403D01*
X59367288Y-99310710D01*
X59359720Y-99323336D01*
X59350952Y-99335159D01*
X59341066Y-99346066D01*
X59330159Y-99355952D01*
X59318336Y-99364720D01*
X59305710Y-99372288D01*
X59292403Y-99378582D01*
X59278543Y-99383541D01*
X59264264Y-99387118D01*
X59249703Y-99389278D01*
X59235000Y-99390000D01*
X58935000Y-99390000D01*
X58920297Y-99389278D01*
X58905736Y-99387118D01*
X58891457Y-99383541D01*
X58877597Y-99378582D01*
X58864290Y-99372288D01*
X58851664Y-99364720D01*
X58839841Y-99355952D01*
X58828934Y-99346066D01*
X58819048Y-99335159D01*
X58810280Y-99323336D01*
X58802712Y-99310710D01*
X58796418Y-99297403D01*
X58791459Y-99283543D01*
X58787882Y-99269264D01*
X58785722Y-99254703D01*
X58785000Y-99240000D01*
X58785000Y-97590000D01*
X58785722Y-97575297D01*
X58787882Y-97560736D01*
X58791459Y-97546457D01*
X58796418Y-97532597D01*
X58802712Y-97519290D01*
X58810280Y-97506664D01*
X58819048Y-97494841D01*
X58828934Y-97483934D01*
X58839841Y-97474048D01*
X58851664Y-97465280D01*
X58864290Y-97457712D01*
X58877597Y-97451418D01*
X58891457Y-97446459D01*
X58905736Y-97442882D01*
X58920297Y-97440722D01*
X58935000Y-97440000D01*
X59235000Y-97440000D01*
X59249703Y-97440722D01*
X59249703Y-97440722D01*
G37*
D13*
X59085000Y-98415000D03*
D14*
X77230000Y-95870000D03*
X77230000Y-91270000D03*
X77230000Y-93570000D03*
D15*
X70930000Y-93570000D03*
D16*
X79895000Y-100190000D03*
X87845000Y-100190000D03*
X79895000Y-104690000D03*
X87845000Y-104690000D03*
D10*
G36*
X84004504Y-94296204D02*
G01*
X84028773Y-94299804D01*
X84052571Y-94305765D01*
X84075671Y-94314030D01*
X84097849Y-94324520D01*
X84118893Y-94337133D01*
X84138598Y-94351747D01*
X84156777Y-94368223D01*
X84173253Y-94386402D01*
X84187867Y-94406107D01*
X84200480Y-94427151D01*
X84210970Y-94449329D01*
X84219235Y-94472429D01*
X84225196Y-94496227D01*
X84228796Y-94520496D01*
X84230000Y-94545000D01*
X84230000Y-96695000D01*
X84228796Y-96719504D01*
X84225196Y-96743773D01*
X84219235Y-96767571D01*
X84210970Y-96790671D01*
X84200480Y-96812849D01*
X84187867Y-96833893D01*
X84173253Y-96853598D01*
X84156777Y-96871777D01*
X84138598Y-96888253D01*
X84118893Y-96902867D01*
X84097849Y-96915480D01*
X84075671Y-96925970D01*
X84052571Y-96934235D01*
X84028773Y-96940196D01*
X84004504Y-96943796D01*
X83980000Y-96945000D01*
X83055000Y-96945000D01*
X83030496Y-96943796D01*
X83006227Y-96940196D01*
X82982429Y-96934235D01*
X82959329Y-96925970D01*
X82937151Y-96915480D01*
X82916107Y-96902867D01*
X82896402Y-96888253D01*
X82878223Y-96871777D01*
X82861747Y-96853598D01*
X82847133Y-96833893D01*
X82834520Y-96812849D01*
X82824030Y-96790671D01*
X82815765Y-96767571D01*
X82809804Y-96743773D01*
X82806204Y-96719504D01*
X82805000Y-96695000D01*
X82805000Y-94545000D01*
X82806204Y-94520496D01*
X82809804Y-94496227D01*
X82815765Y-94472429D01*
X82824030Y-94449329D01*
X82834520Y-94427151D01*
X82847133Y-94406107D01*
X82861747Y-94386402D01*
X82878223Y-94368223D01*
X82896402Y-94351747D01*
X82916107Y-94337133D01*
X82937151Y-94324520D01*
X82959329Y-94314030D01*
X82982429Y-94305765D01*
X83006227Y-94299804D01*
X83030496Y-94296204D01*
X83055000Y-94295000D01*
X83980000Y-94295000D01*
X84004504Y-94296204D01*
X84004504Y-94296204D01*
G37*
D17*
X83517500Y-95620000D03*
D10*
G36*
X81029504Y-94296204D02*
G01*
X81053773Y-94299804D01*
X81077571Y-94305765D01*
X81100671Y-94314030D01*
X81122849Y-94324520D01*
X81143893Y-94337133D01*
X81163598Y-94351747D01*
X81181777Y-94368223D01*
X81198253Y-94386402D01*
X81212867Y-94406107D01*
X81225480Y-94427151D01*
X81235970Y-94449329D01*
X81244235Y-94472429D01*
X81250196Y-94496227D01*
X81253796Y-94520496D01*
X81255000Y-94545000D01*
X81255000Y-96695000D01*
X81253796Y-96719504D01*
X81250196Y-96743773D01*
X81244235Y-96767571D01*
X81235970Y-96790671D01*
X81225480Y-96812849D01*
X81212867Y-96833893D01*
X81198253Y-96853598D01*
X81181777Y-96871777D01*
X81163598Y-96888253D01*
X81143893Y-96902867D01*
X81122849Y-96915480D01*
X81100671Y-96925970D01*
X81077571Y-96934235D01*
X81053773Y-96940196D01*
X81029504Y-96943796D01*
X81005000Y-96945000D01*
X80080000Y-96945000D01*
X80055496Y-96943796D01*
X80031227Y-96940196D01*
X80007429Y-96934235D01*
X79984329Y-96925970D01*
X79962151Y-96915480D01*
X79941107Y-96902867D01*
X79921402Y-96888253D01*
X79903223Y-96871777D01*
X79886747Y-96853598D01*
X79872133Y-96833893D01*
X79859520Y-96812849D01*
X79849030Y-96790671D01*
X79840765Y-96767571D01*
X79834804Y-96743773D01*
X79831204Y-96719504D01*
X79830000Y-96695000D01*
X79830000Y-94545000D01*
X79831204Y-94520496D01*
X79834804Y-94496227D01*
X79840765Y-94472429D01*
X79849030Y-94449329D01*
X79859520Y-94427151D01*
X79872133Y-94406107D01*
X79886747Y-94386402D01*
X79903223Y-94368223D01*
X79921402Y-94351747D01*
X79941107Y-94337133D01*
X79962151Y-94324520D01*
X79984329Y-94314030D01*
X80007429Y-94305765D01*
X80031227Y-94299804D01*
X80055496Y-94296204D01*
X80080000Y-94295000D01*
X81005000Y-94295000D01*
X81029504Y-94296204D01*
X81029504Y-94296204D01*
G37*
D17*
X80542500Y-95620000D03*
D10*
G36*
X84044504Y-90226204D02*
G01*
X84068773Y-90229804D01*
X84092571Y-90235765D01*
X84115671Y-90244030D01*
X84137849Y-90254520D01*
X84158893Y-90267133D01*
X84178598Y-90281747D01*
X84196777Y-90298223D01*
X84213253Y-90316402D01*
X84227867Y-90336107D01*
X84240480Y-90357151D01*
X84250970Y-90379329D01*
X84259235Y-90402429D01*
X84265196Y-90426227D01*
X84268796Y-90450496D01*
X84270000Y-90475000D01*
X84270000Y-92625000D01*
X84268796Y-92649504D01*
X84265196Y-92673773D01*
X84259235Y-92697571D01*
X84250970Y-92720671D01*
X84240480Y-92742849D01*
X84227867Y-92763893D01*
X84213253Y-92783598D01*
X84196777Y-92801777D01*
X84178598Y-92818253D01*
X84158893Y-92832867D01*
X84137849Y-92845480D01*
X84115671Y-92855970D01*
X84092571Y-92864235D01*
X84068773Y-92870196D01*
X84044504Y-92873796D01*
X84020000Y-92875000D01*
X83095000Y-92875000D01*
X83070496Y-92873796D01*
X83046227Y-92870196D01*
X83022429Y-92864235D01*
X82999329Y-92855970D01*
X82977151Y-92845480D01*
X82956107Y-92832867D01*
X82936402Y-92818253D01*
X82918223Y-92801777D01*
X82901747Y-92783598D01*
X82887133Y-92763893D01*
X82874520Y-92742849D01*
X82864030Y-92720671D01*
X82855765Y-92697571D01*
X82849804Y-92673773D01*
X82846204Y-92649504D01*
X82845000Y-92625000D01*
X82845000Y-90475000D01*
X82846204Y-90450496D01*
X82849804Y-90426227D01*
X82855765Y-90402429D01*
X82864030Y-90379329D01*
X82874520Y-90357151D01*
X82887133Y-90336107D01*
X82901747Y-90316402D01*
X82918223Y-90298223D01*
X82936402Y-90281747D01*
X82956107Y-90267133D01*
X82977151Y-90254520D01*
X82999329Y-90244030D01*
X83022429Y-90235765D01*
X83046227Y-90229804D01*
X83070496Y-90226204D01*
X83095000Y-90225000D01*
X84020000Y-90225000D01*
X84044504Y-90226204D01*
X84044504Y-90226204D01*
G37*
D17*
X83557500Y-91550000D03*
D10*
G36*
X81069504Y-90226204D02*
G01*
X81093773Y-90229804D01*
X81117571Y-90235765D01*
X81140671Y-90244030D01*
X81162849Y-90254520D01*
X81183893Y-90267133D01*
X81203598Y-90281747D01*
X81221777Y-90298223D01*
X81238253Y-90316402D01*
X81252867Y-90336107D01*
X81265480Y-90357151D01*
X81275970Y-90379329D01*
X81284235Y-90402429D01*
X81290196Y-90426227D01*
X81293796Y-90450496D01*
X81295000Y-90475000D01*
X81295000Y-92625000D01*
X81293796Y-92649504D01*
X81290196Y-92673773D01*
X81284235Y-92697571D01*
X81275970Y-92720671D01*
X81265480Y-92742849D01*
X81252867Y-92763893D01*
X81238253Y-92783598D01*
X81221777Y-92801777D01*
X81203598Y-92818253D01*
X81183893Y-92832867D01*
X81162849Y-92845480D01*
X81140671Y-92855970D01*
X81117571Y-92864235D01*
X81093773Y-92870196D01*
X81069504Y-92873796D01*
X81045000Y-92875000D01*
X80120000Y-92875000D01*
X80095496Y-92873796D01*
X80071227Y-92870196D01*
X80047429Y-92864235D01*
X80024329Y-92855970D01*
X80002151Y-92845480D01*
X79981107Y-92832867D01*
X79961402Y-92818253D01*
X79943223Y-92801777D01*
X79926747Y-92783598D01*
X79912133Y-92763893D01*
X79899520Y-92742849D01*
X79889030Y-92720671D01*
X79880765Y-92697571D01*
X79874804Y-92673773D01*
X79871204Y-92649504D01*
X79870000Y-92625000D01*
X79870000Y-90475000D01*
X79871204Y-90450496D01*
X79874804Y-90426227D01*
X79880765Y-90402429D01*
X79889030Y-90379329D01*
X79899520Y-90357151D01*
X79912133Y-90336107D01*
X79926747Y-90316402D01*
X79943223Y-90298223D01*
X79961402Y-90281747D01*
X79981107Y-90267133D01*
X80002151Y-90254520D01*
X80024329Y-90244030D01*
X80047429Y-90235765D01*
X80071227Y-90229804D01*
X80095496Y-90226204D01*
X80120000Y-90225000D01*
X81045000Y-90225000D01*
X81069504Y-90226204D01*
X81069504Y-90226204D01*
G37*
D17*
X80582500Y-91550000D03*
D10*
G36*
X67365142Y-89171174D02*
G01*
X67388803Y-89174684D01*
X67412007Y-89180496D01*
X67434529Y-89188554D01*
X67456153Y-89198782D01*
X67476670Y-89211079D01*
X67495883Y-89225329D01*
X67513607Y-89241393D01*
X67529671Y-89259117D01*
X67543921Y-89278330D01*
X67556218Y-89298847D01*
X67566446Y-89320471D01*
X67574504Y-89342993D01*
X67580316Y-89366197D01*
X67583826Y-89389858D01*
X67585000Y-89413750D01*
X67585000Y-90326250D01*
X67583826Y-90350142D01*
X67580316Y-90373803D01*
X67574504Y-90397007D01*
X67566446Y-90419529D01*
X67556218Y-90441153D01*
X67543921Y-90461670D01*
X67529671Y-90480883D01*
X67513607Y-90498607D01*
X67495883Y-90514671D01*
X67476670Y-90528921D01*
X67456153Y-90541218D01*
X67434529Y-90551446D01*
X67412007Y-90559504D01*
X67388803Y-90565316D01*
X67365142Y-90568826D01*
X67341250Y-90570000D01*
X66853750Y-90570000D01*
X66829858Y-90568826D01*
X66806197Y-90565316D01*
X66782993Y-90559504D01*
X66760471Y-90551446D01*
X66738847Y-90541218D01*
X66718330Y-90528921D01*
X66699117Y-90514671D01*
X66681393Y-90498607D01*
X66665329Y-90480883D01*
X66651079Y-90461670D01*
X66638782Y-90441153D01*
X66628554Y-90419529D01*
X66620496Y-90397007D01*
X66614684Y-90373803D01*
X66611174Y-90350142D01*
X66610000Y-90326250D01*
X66610000Y-89413750D01*
X66611174Y-89389858D01*
X66614684Y-89366197D01*
X66620496Y-89342993D01*
X66628554Y-89320471D01*
X66638782Y-89298847D01*
X66651079Y-89278330D01*
X66665329Y-89259117D01*
X66681393Y-89241393D01*
X66699117Y-89225329D01*
X66718330Y-89211079D01*
X66738847Y-89198782D01*
X66760471Y-89188554D01*
X66782993Y-89180496D01*
X66806197Y-89174684D01*
X66829858Y-89171174D01*
X66853750Y-89170000D01*
X67341250Y-89170000D01*
X67365142Y-89171174D01*
X67365142Y-89171174D01*
G37*
D11*
X67097500Y-89870000D03*
D10*
G36*
X65490142Y-89171174D02*
G01*
X65513803Y-89174684D01*
X65537007Y-89180496D01*
X65559529Y-89188554D01*
X65581153Y-89198782D01*
X65601670Y-89211079D01*
X65620883Y-89225329D01*
X65638607Y-89241393D01*
X65654671Y-89259117D01*
X65668921Y-89278330D01*
X65681218Y-89298847D01*
X65691446Y-89320471D01*
X65699504Y-89342993D01*
X65705316Y-89366197D01*
X65708826Y-89389858D01*
X65710000Y-89413750D01*
X65710000Y-90326250D01*
X65708826Y-90350142D01*
X65705316Y-90373803D01*
X65699504Y-90397007D01*
X65691446Y-90419529D01*
X65681218Y-90441153D01*
X65668921Y-90461670D01*
X65654671Y-90480883D01*
X65638607Y-90498607D01*
X65620883Y-90514671D01*
X65601670Y-90528921D01*
X65581153Y-90541218D01*
X65559529Y-90551446D01*
X65537007Y-90559504D01*
X65513803Y-90565316D01*
X65490142Y-90568826D01*
X65466250Y-90570000D01*
X64978750Y-90570000D01*
X64954858Y-90568826D01*
X64931197Y-90565316D01*
X64907993Y-90559504D01*
X64885471Y-90551446D01*
X64863847Y-90541218D01*
X64843330Y-90528921D01*
X64824117Y-90514671D01*
X64806393Y-90498607D01*
X64790329Y-90480883D01*
X64776079Y-90461670D01*
X64763782Y-90441153D01*
X64753554Y-90419529D01*
X64745496Y-90397007D01*
X64739684Y-90373803D01*
X64736174Y-90350142D01*
X64735000Y-90326250D01*
X64735000Y-89413750D01*
X64736174Y-89389858D01*
X64739684Y-89366197D01*
X64745496Y-89342993D01*
X64753554Y-89320471D01*
X64763782Y-89298847D01*
X64776079Y-89278330D01*
X64790329Y-89259117D01*
X64806393Y-89241393D01*
X64824117Y-89225329D01*
X64843330Y-89211079D01*
X64863847Y-89198782D01*
X64885471Y-89188554D01*
X64907993Y-89180496D01*
X64931197Y-89174684D01*
X64954858Y-89171174D01*
X64978750Y-89170000D01*
X65466250Y-89170000D01*
X65490142Y-89171174D01*
X65490142Y-89171174D01*
G37*
D11*
X65222500Y-89870000D03*
D10*
G36*
X51780142Y-98361174D02*
G01*
X51803803Y-98364684D01*
X51827007Y-98370496D01*
X51849529Y-98378554D01*
X51871153Y-98388782D01*
X51891670Y-98401079D01*
X51910883Y-98415329D01*
X51928607Y-98431393D01*
X51944671Y-98449117D01*
X51958921Y-98468330D01*
X51971218Y-98488847D01*
X51981446Y-98510471D01*
X51989504Y-98532993D01*
X51995316Y-98556197D01*
X51998826Y-98579858D01*
X52000000Y-98603750D01*
X52000000Y-99516250D01*
X51998826Y-99540142D01*
X51995316Y-99563803D01*
X51989504Y-99587007D01*
X51981446Y-99609529D01*
X51971218Y-99631153D01*
X51958921Y-99651670D01*
X51944671Y-99670883D01*
X51928607Y-99688607D01*
X51910883Y-99704671D01*
X51891670Y-99718921D01*
X51871153Y-99731218D01*
X51849529Y-99741446D01*
X51827007Y-99749504D01*
X51803803Y-99755316D01*
X51780142Y-99758826D01*
X51756250Y-99760000D01*
X51268750Y-99760000D01*
X51244858Y-99758826D01*
X51221197Y-99755316D01*
X51197993Y-99749504D01*
X51175471Y-99741446D01*
X51153847Y-99731218D01*
X51133330Y-99718921D01*
X51114117Y-99704671D01*
X51096393Y-99688607D01*
X51080329Y-99670883D01*
X51066079Y-99651670D01*
X51053782Y-99631153D01*
X51043554Y-99609529D01*
X51035496Y-99587007D01*
X51029684Y-99563803D01*
X51026174Y-99540142D01*
X51025000Y-99516250D01*
X51025000Y-98603750D01*
X51026174Y-98579858D01*
X51029684Y-98556197D01*
X51035496Y-98532993D01*
X51043554Y-98510471D01*
X51053782Y-98488847D01*
X51066079Y-98468330D01*
X51080329Y-98449117D01*
X51096393Y-98431393D01*
X51114117Y-98415329D01*
X51133330Y-98401079D01*
X51153847Y-98388782D01*
X51175471Y-98378554D01*
X51197993Y-98370496D01*
X51221197Y-98364684D01*
X51244858Y-98361174D01*
X51268750Y-98360000D01*
X51756250Y-98360000D01*
X51780142Y-98361174D01*
X51780142Y-98361174D01*
G37*
D11*
X51512500Y-99060000D03*
D10*
G36*
X53655142Y-98361174D02*
G01*
X53678803Y-98364684D01*
X53702007Y-98370496D01*
X53724529Y-98378554D01*
X53746153Y-98388782D01*
X53766670Y-98401079D01*
X53785883Y-98415329D01*
X53803607Y-98431393D01*
X53819671Y-98449117D01*
X53833921Y-98468330D01*
X53846218Y-98488847D01*
X53856446Y-98510471D01*
X53864504Y-98532993D01*
X53870316Y-98556197D01*
X53873826Y-98579858D01*
X53875000Y-98603750D01*
X53875000Y-99516250D01*
X53873826Y-99540142D01*
X53870316Y-99563803D01*
X53864504Y-99587007D01*
X53856446Y-99609529D01*
X53846218Y-99631153D01*
X53833921Y-99651670D01*
X53819671Y-99670883D01*
X53803607Y-99688607D01*
X53785883Y-99704671D01*
X53766670Y-99718921D01*
X53746153Y-99731218D01*
X53724529Y-99741446D01*
X53702007Y-99749504D01*
X53678803Y-99755316D01*
X53655142Y-99758826D01*
X53631250Y-99760000D01*
X53143750Y-99760000D01*
X53119858Y-99758826D01*
X53096197Y-99755316D01*
X53072993Y-99749504D01*
X53050471Y-99741446D01*
X53028847Y-99731218D01*
X53008330Y-99718921D01*
X52989117Y-99704671D01*
X52971393Y-99688607D01*
X52955329Y-99670883D01*
X52941079Y-99651670D01*
X52928782Y-99631153D01*
X52918554Y-99609529D01*
X52910496Y-99587007D01*
X52904684Y-99563803D01*
X52901174Y-99540142D01*
X52900000Y-99516250D01*
X52900000Y-98603750D01*
X52901174Y-98579858D01*
X52904684Y-98556197D01*
X52910496Y-98532993D01*
X52918554Y-98510471D01*
X52928782Y-98488847D01*
X52941079Y-98468330D01*
X52955329Y-98449117D01*
X52971393Y-98431393D01*
X52989117Y-98415329D01*
X53008330Y-98401079D01*
X53028847Y-98388782D01*
X53050471Y-98378554D01*
X53072993Y-98370496D01*
X53096197Y-98364684D01*
X53119858Y-98361174D01*
X53143750Y-98360000D01*
X53631250Y-98360000D01*
X53655142Y-98361174D01*
X53655142Y-98361174D01*
G37*
D11*
X53387500Y-99060000D03*
D10*
G36*
X51760142Y-96401174D02*
G01*
X51783803Y-96404684D01*
X51807007Y-96410496D01*
X51829529Y-96418554D01*
X51851153Y-96428782D01*
X51871670Y-96441079D01*
X51890883Y-96455329D01*
X51908607Y-96471393D01*
X51924671Y-96489117D01*
X51938921Y-96508330D01*
X51951218Y-96528847D01*
X51961446Y-96550471D01*
X51969504Y-96572993D01*
X51975316Y-96596197D01*
X51978826Y-96619858D01*
X51980000Y-96643750D01*
X51980000Y-97556250D01*
X51978826Y-97580142D01*
X51975316Y-97603803D01*
X51969504Y-97627007D01*
X51961446Y-97649529D01*
X51951218Y-97671153D01*
X51938921Y-97691670D01*
X51924671Y-97710883D01*
X51908607Y-97728607D01*
X51890883Y-97744671D01*
X51871670Y-97758921D01*
X51851153Y-97771218D01*
X51829529Y-97781446D01*
X51807007Y-97789504D01*
X51783803Y-97795316D01*
X51760142Y-97798826D01*
X51736250Y-97800000D01*
X51248750Y-97800000D01*
X51224858Y-97798826D01*
X51201197Y-97795316D01*
X51177993Y-97789504D01*
X51155471Y-97781446D01*
X51133847Y-97771218D01*
X51113330Y-97758921D01*
X51094117Y-97744671D01*
X51076393Y-97728607D01*
X51060329Y-97710883D01*
X51046079Y-97691670D01*
X51033782Y-97671153D01*
X51023554Y-97649529D01*
X51015496Y-97627007D01*
X51009684Y-97603803D01*
X51006174Y-97580142D01*
X51005000Y-97556250D01*
X51005000Y-96643750D01*
X51006174Y-96619858D01*
X51009684Y-96596197D01*
X51015496Y-96572993D01*
X51023554Y-96550471D01*
X51033782Y-96528847D01*
X51046079Y-96508330D01*
X51060329Y-96489117D01*
X51076393Y-96471393D01*
X51094117Y-96455329D01*
X51113330Y-96441079D01*
X51133847Y-96428782D01*
X51155471Y-96418554D01*
X51177993Y-96410496D01*
X51201197Y-96404684D01*
X51224858Y-96401174D01*
X51248750Y-96400000D01*
X51736250Y-96400000D01*
X51760142Y-96401174D01*
X51760142Y-96401174D01*
G37*
D11*
X51492500Y-97100000D03*
D10*
G36*
X53635142Y-96401174D02*
G01*
X53658803Y-96404684D01*
X53682007Y-96410496D01*
X53704529Y-96418554D01*
X53726153Y-96428782D01*
X53746670Y-96441079D01*
X53765883Y-96455329D01*
X53783607Y-96471393D01*
X53799671Y-96489117D01*
X53813921Y-96508330D01*
X53826218Y-96528847D01*
X53836446Y-96550471D01*
X53844504Y-96572993D01*
X53850316Y-96596197D01*
X53853826Y-96619858D01*
X53855000Y-96643750D01*
X53855000Y-97556250D01*
X53853826Y-97580142D01*
X53850316Y-97603803D01*
X53844504Y-97627007D01*
X53836446Y-97649529D01*
X53826218Y-97671153D01*
X53813921Y-97691670D01*
X53799671Y-97710883D01*
X53783607Y-97728607D01*
X53765883Y-97744671D01*
X53746670Y-97758921D01*
X53726153Y-97771218D01*
X53704529Y-97781446D01*
X53682007Y-97789504D01*
X53658803Y-97795316D01*
X53635142Y-97798826D01*
X53611250Y-97800000D01*
X53123750Y-97800000D01*
X53099858Y-97798826D01*
X53076197Y-97795316D01*
X53052993Y-97789504D01*
X53030471Y-97781446D01*
X53008847Y-97771218D01*
X52988330Y-97758921D01*
X52969117Y-97744671D01*
X52951393Y-97728607D01*
X52935329Y-97710883D01*
X52921079Y-97691670D01*
X52908782Y-97671153D01*
X52898554Y-97649529D01*
X52890496Y-97627007D01*
X52884684Y-97603803D01*
X52881174Y-97580142D01*
X52880000Y-97556250D01*
X52880000Y-96643750D01*
X52881174Y-96619858D01*
X52884684Y-96596197D01*
X52890496Y-96572993D01*
X52898554Y-96550471D01*
X52908782Y-96528847D01*
X52921079Y-96508330D01*
X52935329Y-96489117D01*
X52951393Y-96471393D01*
X52969117Y-96455329D01*
X52988330Y-96441079D01*
X53008847Y-96428782D01*
X53030471Y-96418554D01*
X53052993Y-96410496D01*
X53076197Y-96404684D01*
X53099858Y-96401174D01*
X53123750Y-96400000D01*
X53611250Y-96400000D01*
X53635142Y-96401174D01*
X53635142Y-96401174D01*
G37*
D11*
X53367500Y-97100000D03*
D10*
G36*
X51780142Y-94441174D02*
G01*
X51803803Y-94444684D01*
X51827007Y-94450496D01*
X51849529Y-94458554D01*
X51871153Y-94468782D01*
X51891670Y-94481079D01*
X51910883Y-94495329D01*
X51928607Y-94511393D01*
X51944671Y-94529117D01*
X51958921Y-94548330D01*
X51971218Y-94568847D01*
X51981446Y-94590471D01*
X51989504Y-94612993D01*
X51995316Y-94636197D01*
X51998826Y-94659858D01*
X52000000Y-94683750D01*
X52000000Y-95596250D01*
X51998826Y-95620142D01*
X51995316Y-95643803D01*
X51989504Y-95667007D01*
X51981446Y-95689529D01*
X51971218Y-95711153D01*
X51958921Y-95731670D01*
X51944671Y-95750883D01*
X51928607Y-95768607D01*
X51910883Y-95784671D01*
X51891670Y-95798921D01*
X51871153Y-95811218D01*
X51849529Y-95821446D01*
X51827007Y-95829504D01*
X51803803Y-95835316D01*
X51780142Y-95838826D01*
X51756250Y-95840000D01*
X51268750Y-95840000D01*
X51244858Y-95838826D01*
X51221197Y-95835316D01*
X51197993Y-95829504D01*
X51175471Y-95821446D01*
X51153847Y-95811218D01*
X51133330Y-95798921D01*
X51114117Y-95784671D01*
X51096393Y-95768607D01*
X51080329Y-95750883D01*
X51066079Y-95731670D01*
X51053782Y-95711153D01*
X51043554Y-95689529D01*
X51035496Y-95667007D01*
X51029684Y-95643803D01*
X51026174Y-95620142D01*
X51025000Y-95596250D01*
X51025000Y-94683750D01*
X51026174Y-94659858D01*
X51029684Y-94636197D01*
X51035496Y-94612993D01*
X51043554Y-94590471D01*
X51053782Y-94568847D01*
X51066079Y-94548330D01*
X51080329Y-94529117D01*
X51096393Y-94511393D01*
X51114117Y-94495329D01*
X51133330Y-94481079D01*
X51153847Y-94468782D01*
X51175471Y-94458554D01*
X51197993Y-94450496D01*
X51221197Y-94444684D01*
X51244858Y-94441174D01*
X51268750Y-94440000D01*
X51756250Y-94440000D01*
X51780142Y-94441174D01*
X51780142Y-94441174D01*
G37*
D11*
X51512500Y-95140000D03*
D10*
G36*
X53655142Y-94441174D02*
G01*
X53678803Y-94444684D01*
X53702007Y-94450496D01*
X53724529Y-94458554D01*
X53746153Y-94468782D01*
X53766670Y-94481079D01*
X53785883Y-94495329D01*
X53803607Y-94511393D01*
X53819671Y-94529117D01*
X53833921Y-94548330D01*
X53846218Y-94568847D01*
X53856446Y-94590471D01*
X53864504Y-94612993D01*
X53870316Y-94636197D01*
X53873826Y-94659858D01*
X53875000Y-94683750D01*
X53875000Y-95596250D01*
X53873826Y-95620142D01*
X53870316Y-95643803D01*
X53864504Y-95667007D01*
X53856446Y-95689529D01*
X53846218Y-95711153D01*
X53833921Y-95731670D01*
X53819671Y-95750883D01*
X53803607Y-95768607D01*
X53785883Y-95784671D01*
X53766670Y-95798921D01*
X53746153Y-95811218D01*
X53724529Y-95821446D01*
X53702007Y-95829504D01*
X53678803Y-95835316D01*
X53655142Y-95838826D01*
X53631250Y-95840000D01*
X53143750Y-95840000D01*
X53119858Y-95838826D01*
X53096197Y-95835316D01*
X53072993Y-95829504D01*
X53050471Y-95821446D01*
X53028847Y-95811218D01*
X53008330Y-95798921D01*
X52989117Y-95784671D01*
X52971393Y-95768607D01*
X52955329Y-95750883D01*
X52941079Y-95731670D01*
X52928782Y-95711153D01*
X52918554Y-95689529D01*
X52910496Y-95667007D01*
X52904684Y-95643803D01*
X52901174Y-95620142D01*
X52900000Y-95596250D01*
X52900000Y-94683750D01*
X52901174Y-94659858D01*
X52904684Y-94636197D01*
X52910496Y-94612993D01*
X52918554Y-94590471D01*
X52928782Y-94568847D01*
X52941079Y-94548330D01*
X52955329Y-94529117D01*
X52971393Y-94511393D01*
X52989117Y-94495329D01*
X53008330Y-94481079D01*
X53028847Y-94468782D01*
X53050471Y-94458554D01*
X53072993Y-94450496D01*
X53096197Y-94444684D01*
X53119858Y-94441174D01*
X53143750Y-94440000D01*
X53631250Y-94440000D01*
X53655142Y-94441174D01*
X53655142Y-94441174D01*
G37*
D11*
X53387500Y-95140000D03*
D10*
G36*
X51780142Y-92461174D02*
G01*
X51803803Y-92464684D01*
X51827007Y-92470496D01*
X51849529Y-92478554D01*
X51871153Y-92488782D01*
X51891670Y-92501079D01*
X51910883Y-92515329D01*
X51928607Y-92531393D01*
X51944671Y-92549117D01*
X51958921Y-92568330D01*
X51971218Y-92588847D01*
X51981446Y-92610471D01*
X51989504Y-92632993D01*
X51995316Y-92656197D01*
X51998826Y-92679858D01*
X52000000Y-92703750D01*
X52000000Y-93616250D01*
X51998826Y-93640142D01*
X51995316Y-93663803D01*
X51989504Y-93687007D01*
X51981446Y-93709529D01*
X51971218Y-93731153D01*
X51958921Y-93751670D01*
X51944671Y-93770883D01*
X51928607Y-93788607D01*
X51910883Y-93804671D01*
X51891670Y-93818921D01*
X51871153Y-93831218D01*
X51849529Y-93841446D01*
X51827007Y-93849504D01*
X51803803Y-93855316D01*
X51780142Y-93858826D01*
X51756250Y-93860000D01*
X51268750Y-93860000D01*
X51244858Y-93858826D01*
X51221197Y-93855316D01*
X51197993Y-93849504D01*
X51175471Y-93841446D01*
X51153847Y-93831218D01*
X51133330Y-93818921D01*
X51114117Y-93804671D01*
X51096393Y-93788607D01*
X51080329Y-93770883D01*
X51066079Y-93751670D01*
X51053782Y-93731153D01*
X51043554Y-93709529D01*
X51035496Y-93687007D01*
X51029684Y-93663803D01*
X51026174Y-93640142D01*
X51025000Y-93616250D01*
X51025000Y-92703750D01*
X51026174Y-92679858D01*
X51029684Y-92656197D01*
X51035496Y-92632993D01*
X51043554Y-92610471D01*
X51053782Y-92588847D01*
X51066079Y-92568330D01*
X51080329Y-92549117D01*
X51096393Y-92531393D01*
X51114117Y-92515329D01*
X51133330Y-92501079D01*
X51153847Y-92488782D01*
X51175471Y-92478554D01*
X51197993Y-92470496D01*
X51221197Y-92464684D01*
X51244858Y-92461174D01*
X51268750Y-92460000D01*
X51756250Y-92460000D01*
X51780142Y-92461174D01*
X51780142Y-92461174D01*
G37*
D11*
X51512500Y-93160000D03*
D10*
G36*
X53655142Y-92461174D02*
G01*
X53678803Y-92464684D01*
X53702007Y-92470496D01*
X53724529Y-92478554D01*
X53746153Y-92488782D01*
X53766670Y-92501079D01*
X53785883Y-92515329D01*
X53803607Y-92531393D01*
X53819671Y-92549117D01*
X53833921Y-92568330D01*
X53846218Y-92588847D01*
X53856446Y-92610471D01*
X53864504Y-92632993D01*
X53870316Y-92656197D01*
X53873826Y-92679858D01*
X53875000Y-92703750D01*
X53875000Y-93616250D01*
X53873826Y-93640142D01*
X53870316Y-93663803D01*
X53864504Y-93687007D01*
X53856446Y-93709529D01*
X53846218Y-93731153D01*
X53833921Y-93751670D01*
X53819671Y-93770883D01*
X53803607Y-93788607D01*
X53785883Y-93804671D01*
X53766670Y-93818921D01*
X53746153Y-93831218D01*
X53724529Y-93841446D01*
X53702007Y-93849504D01*
X53678803Y-93855316D01*
X53655142Y-93858826D01*
X53631250Y-93860000D01*
X53143750Y-93860000D01*
X53119858Y-93858826D01*
X53096197Y-93855316D01*
X53072993Y-93849504D01*
X53050471Y-93841446D01*
X53028847Y-93831218D01*
X53008330Y-93818921D01*
X52989117Y-93804671D01*
X52971393Y-93788607D01*
X52955329Y-93770883D01*
X52941079Y-93751670D01*
X52928782Y-93731153D01*
X52918554Y-93709529D01*
X52910496Y-93687007D01*
X52904684Y-93663803D01*
X52901174Y-93640142D01*
X52900000Y-93616250D01*
X52900000Y-92703750D01*
X52901174Y-92679858D01*
X52904684Y-92656197D01*
X52910496Y-92632993D01*
X52918554Y-92610471D01*
X52928782Y-92588847D01*
X52941079Y-92568330D01*
X52955329Y-92549117D01*
X52971393Y-92531393D01*
X52989117Y-92515329D01*
X53008330Y-92501079D01*
X53028847Y-92488782D01*
X53050471Y-92478554D01*
X53072993Y-92470496D01*
X53096197Y-92464684D01*
X53119858Y-92461174D01*
X53143750Y-92460000D01*
X53631250Y-92460000D01*
X53655142Y-92461174D01*
X53655142Y-92461174D01*
G37*
D11*
X53387500Y-93160000D03*
D10*
G36*
X53675142Y-90501174D02*
G01*
X53698803Y-90504684D01*
X53722007Y-90510496D01*
X53744529Y-90518554D01*
X53766153Y-90528782D01*
X53786670Y-90541079D01*
X53805883Y-90555329D01*
X53823607Y-90571393D01*
X53839671Y-90589117D01*
X53853921Y-90608330D01*
X53866218Y-90628847D01*
X53876446Y-90650471D01*
X53884504Y-90672993D01*
X53890316Y-90696197D01*
X53893826Y-90719858D01*
X53895000Y-90743750D01*
X53895000Y-91656250D01*
X53893826Y-91680142D01*
X53890316Y-91703803D01*
X53884504Y-91727007D01*
X53876446Y-91749529D01*
X53866218Y-91771153D01*
X53853921Y-91791670D01*
X53839671Y-91810883D01*
X53823607Y-91828607D01*
X53805883Y-91844671D01*
X53786670Y-91858921D01*
X53766153Y-91871218D01*
X53744529Y-91881446D01*
X53722007Y-91889504D01*
X53698803Y-91895316D01*
X53675142Y-91898826D01*
X53651250Y-91900000D01*
X53163750Y-91900000D01*
X53139858Y-91898826D01*
X53116197Y-91895316D01*
X53092993Y-91889504D01*
X53070471Y-91881446D01*
X53048847Y-91871218D01*
X53028330Y-91858921D01*
X53009117Y-91844671D01*
X52991393Y-91828607D01*
X52975329Y-91810883D01*
X52961079Y-91791670D01*
X52948782Y-91771153D01*
X52938554Y-91749529D01*
X52930496Y-91727007D01*
X52924684Y-91703803D01*
X52921174Y-91680142D01*
X52920000Y-91656250D01*
X52920000Y-90743750D01*
X52921174Y-90719858D01*
X52924684Y-90696197D01*
X52930496Y-90672993D01*
X52938554Y-90650471D01*
X52948782Y-90628847D01*
X52961079Y-90608330D01*
X52975329Y-90589117D01*
X52991393Y-90571393D01*
X53009117Y-90555329D01*
X53028330Y-90541079D01*
X53048847Y-90528782D01*
X53070471Y-90518554D01*
X53092993Y-90510496D01*
X53116197Y-90504684D01*
X53139858Y-90501174D01*
X53163750Y-90500000D01*
X53651250Y-90500000D01*
X53675142Y-90501174D01*
X53675142Y-90501174D01*
G37*
D11*
X53407500Y-91200000D03*
D10*
G36*
X51800142Y-90501174D02*
G01*
X51823803Y-90504684D01*
X51847007Y-90510496D01*
X51869529Y-90518554D01*
X51891153Y-90528782D01*
X51911670Y-90541079D01*
X51930883Y-90555329D01*
X51948607Y-90571393D01*
X51964671Y-90589117D01*
X51978921Y-90608330D01*
X51991218Y-90628847D01*
X52001446Y-90650471D01*
X52009504Y-90672993D01*
X52015316Y-90696197D01*
X52018826Y-90719858D01*
X52020000Y-90743750D01*
X52020000Y-91656250D01*
X52018826Y-91680142D01*
X52015316Y-91703803D01*
X52009504Y-91727007D01*
X52001446Y-91749529D01*
X51991218Y-91771153D01*
X51978921Y-91791670D01*
X51964671Y-91810883D01*
X51948607Y-91828607D01*
X51930883Y-91844671D01*
X51911670Y-91858921D01*
X51891153Y-91871218D01*
X51869529Y-91881446D01*
X51847007Y-91889504D01*
X51823803Y-91895316D01*
X51800142Y-91898826D01*
X51776250Y-91900000D01*
X51288750Y-91900000D01*
X51264858Y-91898826D01*
X51241197Y-91895316D01*
X51217993Y-91889504D01*
X51195471Y-91881446D01*
X51173847Y-91871218D01*
X51153330Y-91858921D01*
X51134117Y-91844671D01*
X51116393Y-91828607D01*
X51100329Y-91810883D01*
X51086079Y-91791670D01*
X51073782Y-91771153D01*
X51063554Y-91749529D01*
X51055496Y-91727007D01*
X51049684Y-91703803D01*
X51046174Y-91680142D01*
X51045000Y-91656250D01*
X51045000Y-90743750D01*
X51046174Y-90719858D01*
X51049684Y-90696197D01*
X51055496Y-90672993D01*
X51063554Y-90650471D01*
X51073782Y-90628847D01*
X51086079Y-90608330D01*
X51100329Y-90589117D01*
X51116393Y-90571393D01*
X51134117Y-90555329D01*
X51153330Y-90541079D01*
X51173847Y-90528782D01*
X51195471Y-90518554D01*
X51217993Y-90510496D01*
X51241197Y-90504684D01*
X51264858Y-90501174D01*
X51288750Y-90500000D01*
X51776250Y-90500000D01*
X51800142Y-90501174D01*
X51800142Y-90501174D01*
G37*
D11*
X51532500Y-91200000D03*
D10*
G36*
X51800142Y-88511174D02*
G01*
X51823803Y-88514684D01*
X51847007Y-88520496D01*
X51869529Y-88528554D01*
X51891153Y-88538782D01*
X51911670Y-88551079D01*
X51930883Y-88565329D01*
X51948607Y-88581393D01*
X51964671Y-88599117D01*
X51978921Y-88618330D01*
X51991218Y-88638847D01*
X52001446Y-88660471D01*
X52009504Y-88682993D01*
X52015316Y-88706197D01*
X52018826Y-88729858D01*
X52020000Y-88753750D01*
X52020000Y-89666250D01*
X52018826Y-89690142D01*
X52015316Y-89713803D01*
X52009504Y-89737007D01*
X52001446Y-89759529D01*
X51991218Y-89781153D01*
X51978921Y-89801670D01*
X51964671Y-89820883D01*
X51948607Y-89838607D01*
X51930883Y-89854671D01*
X51911670Y-89868921D01*
X51891153Y-89881218D01*
X51869529Y-89891446D01*
X51847007Y-89899504D01*
X51823803Y-89905316D01*
X51800142Y-89908826D01*
X51776250Y-89910000D01*
X51288750Y-89910000D01*
X51264858Y-89908826D01*
X51241197Y-89905316D01*
X51217993Y-89899504D01*
X51195471Y-89891446D01*
X51173847Y-89881218D01*
X51153330Y-89868921D01*
X51134117Y-89854671D01*
X51116393Y-89838607D01*
X51100329Y-89820883D01*
X51086079Y-89801670D01*
X51073782Y-89781153D01*
X51063554Y-89759529D01*
X51055496Y-89737007D01*
X51049684Y-89713803D01*
X51046174Y-89690142D01*
X51045000Y-89666250D01*
X51045000Y-88753750D01*
X51046174Y-88729858D01*
X51049684Y-88706197D01*
X51055496Y-88682993D01*
X51063554Y-88660471D01*
X51073782Y-88638847D01*
X51086079Y-88618330D01*
X51100329Y-88599117D01*
X51116393Y-88581393D01*
X51134117Y-88565329D01*
X51153330Y-88551079D01*
X51173847Y-88538782D01*
X51195471Y-88528554D01*
X51217993Y-88520496D01*
X51241197Y-88514684D01*
X51264858Y-88511174D01*
X51288750Y-88510000D01*
X51776250Y-88510000D01*
X51800142Y-88511174D01*
X51800142Y-88511174D01*
G37*
D11*
X51532500Y-89210000D03*
D10*
G36*
X53675142Y-88511174D02*
G01*
X53698803Y-88514684D01*
X53722007Y-88520496D01*
X53744529Y-88528554D01*
X53766153Y-88538782D01*
X53786670Y-88551079D01*
X53805883Y-88565329D01*
X53823607Y-88581393D01*
X53839671Y-88599117D01*
X53853921Y-88618330D01*
X53866218Y-88638847D01*
X53876446Y-88660471D01*
X53884504Y-88682993D01*
X53890316Y-88706197D01*
X53893826Y-88729858D01*
X53895000Y-88753750D01*
X53895000Y-89666250D01*
X53893826Y-89690142D01*
X53890316Y-89713803D01*
X53884504Y-89737007D01*
X53876446Y-89759529D01*
X53866218Y-89781153D01*
X53853921Y-89801670D01*
X53839671Y-89820883D01*
X53823607Y-89838607D01*
X53805883Y-89854671D01*
X53786670Y-89868921D01*
X53766153Y-89881218D01*
X53744529Y-89891446D01*
X53722007Y-89899504D01*
X53698803Y-89905316D01*
X53675142Y-89908826D01*
X53651250Y-89910000D01*
X53163750Y-89910000D01*
X53139858Y-89908826D01*
X53116197Y-89905316D01*
X53092993Y-89899504D01*
X53070471Y-89891446D01*
X53048847Y-89881218D01*
X53028330Y-89868921D01*
X53009117Y-89854671D01*
X52991393Y-89838607D01*
X52975329Y-89820883D01*
X52961079Y-89801670D01*
X52948782Y-89781153D01*
X52938554Y-89759529D01*
X52930496Y-89737007D01*
X52924684Y-89713803D01*
X52921174Y-89690142D01*
X52920000Y-89666250D01*
X52920000Y-88753750D01*
X52921174Y-88729858D01*
X52924684Y-88706197D01*
X52930496Y-88682993D01*
X52938554Y-88660471D01*
X52948782Y-88638847D01*
X52961079Y-88618330D01*
X52975329Y-88599117D01*
X52991393Y-88581393D01*
X53009117Y-88565329D01*
X53028330Y-88551079D01*
X53048847Y-88538782D01*
X53070471Y-88528554D01*
X53092993Y-88520496D01*
X53116197Y-88514684D01*
X53139858Y-88511174D01*
X53163750Y-88510000D01*
X53651250Y-88510000D01*
X53675142Y-88511174D01*
X53675142Y-88511174D01*
G37*
D11*
X53407500Y-89210000D03*
D10*
G36*
X51780142Y-86541174D02*
G01*
X51803803Y-86544684D01*
X51827007Y-86550496D01*
X51849529Y-86558554D01*
X51871153Y-86568782D01*
X51891670Y-86581079D01*
X51910883Y-86595329D01*
X51928607Y-86611393D01*
X51944671Y-86629117D01*
X51958921Y-86648330D01*
X51971218Y-86668847D01*
X51981446Y-86690471D01*
X51989504Y-86712993D01*
X51995316Y-86736197D01*
X51998826Y-86759858D01*
X52000000Y-86783750D01*
X52000000Y-87696250D01*
X51998826Y-87720142D01*
X51995316Y-87743803D01*
X51989504Y-87767007D01*
X51981446Y-87789529D01*
X51971218Y-87811153D01*
X51958921Y-87831670D01*
X51944671Y-87850883D01*
X51928607Y-87868607D01*
X51910883Y-87884671D01*
X51891670Y-87898921D01*
X51871153Y-87911218D01*
X51849529Y-87921446D01*
X51827007Y-87929504D01*
X51803803Y-87935316D01*
X51780142Y-87938826D01*
X51756250Y-87940000D01*
X51268750Y-87940000D01*
X51244858Y-87938826D01*
X51221197Y-87935316D01*
X51197993Y-87929504D01*
X51175471Y-87921446D01*
X51153847Y-87911218D01*
X51133330Y-87898921D01*
X51114117Y-87884671D01*
X51096393Y-87868607D01*
X51080329Y-87850883D01*
X51066079Y-87831670D01*
X51053782Y-87811153D01*
X51043554Y-87789529D01*
X51035496Y-87767007D01*
X51029684Y-87743803D01*
X51026174Y-87720142D01*
X51025000Y-87696250D01*
X51025000Y-86783750D01*
X51026174Y-86759858D01*
X51029684Y-86736197D01*
X51035496Y-86712993D01*
X51043554Y-86690471D01*
X51053782Y-86668847D01*
X51066079Y-86648330D01*
X51080329Y-86629117D01*
X51096393Y-86611393D01*
X51114117Y-86595329D01*
X51133330Y-86581079D01*
X51153847Y-86568782D01*
X51175471Y-86558554D01*
X51197993Y-86550496D01*
X51221197Y-86544684D01*
X51244858Y-86541174D01*
X51268750Y-86540000D01*
X51756250Y-86540000D01*
X51780142Y-86541174D01*
X51780142Y-86541174D01*
G37*
D11*
X51512500Y-87240000D03*
D10*
G36*
X53655142Y-86541174D02*
G01*
X53678803Y-86544684D01*
X53702007Y-86550496D01*
X53724529Y-86558554D01*
X53746153Y-86568782D01*
X53766670Y-86581079D01*
X53785883Y-86595329D01*
X53803607Y-86611393D01*
X53819671Y-86629117D01*
X53833921Y-86648330D01*
X53846218Y-86668847D01*
X53856446Y-86690471D01*
X53864504Y-86712993D01*
X53870316Y-86736197D01*
X53873826Y-86759858D01*
X53875000Y-86783750D01*
X53875000Y-87696250D01*
X53873826Y-87720142D01*
X53870316Y-87743803D01*
X53864504Y-87767007D01*
X53856446Y-87789529D01*
X53846218Y-87811153D01*
X53833921Y-87831670D01*
X53819671Y-87850883D01*
X53803607Y-87868607D01*
X53785883Y-87884671D01*
X53766670Y-87898921D01*
X53746153Y-87911218D01*
X53724529Y-87921446D01*
X53702007Y-87929504D01*
X53678803Y-87935316D01*
X53655142Y-87938826D01*
X53631250Y-87940000D01*
X53143750Y-87940000D01*
X53119858Y-87938826D01*
X53096197Y-87935316D01*
X53072993Y-87929504D01*
X53050471Y-87921446D01*
X53028847Y-87911218D01*
X53008330Y-87898921D01*
X52989117Y-87884671D01*
X52971393Y-87868607D01*
X52955329Y-87850883D01*
X52941079Y-87831670D01*
X52928782Y-87811153D01*
X52918554Y-87789529D01*
X52910496Y-87767007D01*
X52904684Y-87743803D01*
X52901174Y-87720142D01*
X52900000Y-87696250D01*
X52900000Y-86783750D01*
X52901174Y-86759858D01*
X52904684Y-86736197D01*
X52910496Y-86712993D01*
X52918554Y-86690471D01*
X52928782Y-86668847D01*
X52941079Y-86648330D01*
X52955329Y-86629117D01*
X52971393Y-86611393D01*
X52989117Y-86595329D01*
X53008330Y-86581079D01*
X53028847Y-86568782D01*
X53050471Y-86558554D01*
X53072993Y-86550496D01*
X53096197Y-86544684D01*
X53119858Y-86541174D01*
X53143750Y-86540000D01*
X53631250Y-86540000D01*
X53655142Y-86541174D01*
X53655142Y-86541174D01*
G37*
D11*
X53387500Y-87240000D03*
D10*
G36*
X77984505Y-87641204D02*
G01*
X78008773Y-87644804D01*
X78032572Y-87650765D01*
X78055671Y-87659030D01*
X78077850Y-87669520D01*
X78098893Y-87682132D01*
X78118599Y-87696747D01*
X78136777Y-87713223D01*
X78153253Y-87731401D01*
X78167868Y-87751107D01*
X78180480Y-87772150D01*
X78190970Y-87794329D01*
X78199235Y-87817428D01*
X78205196Y-87841227D01*
X78208796Y-87865495D01*
X78210000Y-87889999D01*
X78210000Y-89190001D01*
X78208796Y-89214505D01*
X78205196Y-89238773D01*
X78199235Y-89262572D01*
X78190970Y-89285671D01*
X78180480Y-89307850D01*
X78167868Y-89328893D01*
X78153253Y-89348599D01*
X78136777Y-89366777D01*
X78118599Y-89383253D01*
X78098893Y-89397868D01*
X78077850Y-89410480D01*
X78055671Y-89420970D01*
X78032572Y-89429235D01*
X78008773Y-89435196D01*
X77984505Y-89438796D01*
X77960001Y-89440000D01*
X77059999Y-89440000D01*
X77035495Y-89438796D01*
X77011227Y-89435196D01*
X76987428Y-89429235D01*
X76964329Y-89420970D01*
X76942150Y-89410480D01*
X76921107Y-89397868D01*
X76901401Y-89383253D01*
X76883223Y-89366777D01*
X76866747Y-89348599D01*
X76852132Y-89328893D01*
X76839520Y-89307850D01*
X76829030Y-89285671D01*
X76820765Y-89262572D01*
X76814804Y-89238773D01*
X76811204Y-89214505D01*
X76810000Y-89190001D01*
X76810000Y-87889999D01*
X76811204Y-87865495D01*
X76814804Y-87841227D01*
X76820765Y-87817428D01*
X76829030Y-87794329D01*
X76839520Y-87772150D01*
X76852132Y-87751107D01*
X76866747Y-87731401D01*
X76883223Y-87713223D01*
X76901401Y-87696747D01*
X76921107Y-87682132D01*
X76942150Y-87669520D01*
X76964329Y-87659030D01*
X76987428Y-87650765D01*
X77011227Y-87644804D01*
X77035495Y-87641204D01*
X77059999Y-87640000D01*
X77960001Y-87640000D01*
X77984505Y-87641204D01*
X77984505Y-87641204D01*
G37*
D18*
X77510000Y-88540000D03*
D10*
G36*
X73984505Y-87641204D02*
G01*
X74008773Y-87644804D01*
X74032572Y-87650765D01*
X74055671Y-87659030D01*
X74077850Y-87669520D01*
X74098893Y-87682132D01*
X74118599Y-87696747D01*
X74136777Y-87713223D01*
X74153253Y-87731401D01*
X74167868Y-87751107D01*
X74180480Y-87772150D01*
X74190970Y-87794329D01*
X74199235Y-87817428D01*
X74205196Y-87841227D01*
X74208796Y-87865495D01*
X74210000Y-87889999D01*
X74210000Y-89190001D01*
X74208796Y-89214505D01*
X74205196Y-89238773D01*
X74199235Y-89262572D01*
X74190970Y-89285671D01*
X74180480Y-89307850D01*
X74167868Y-89328893D01*
X74153253Y-89348599D01*
X74136777Y-89366777D01*
X74118599Y-89383253D01*
X74098893Y-89397868D01*
X74077850Y-89410480D01*
X74055671Y-89420970D01*
X74032572Y-89429235D01*
X74008773Y-89435196D01*
X73984505Y-89438796D01*
X73960001Y-89440000D01*
X73059999Y-89440000D01*
X73035495Y-89438796D01*
X73011227Y-89435196D01*
X72987428Y-89429235D01*
X72964329Y-89420970D01*
X72942150Y-89410480D01*
X72921107Y-89397868D01*
X72901401Y-89383253D01*
X72883223Y-89366777D01*
X72866747Y-89348599D01*
X72852132Y-89328893D01*
X72839520Y-89307850D01*
X72829030Y-89285671D01*
X72820765Y-89262572D01*
X72814804Y-89238773D01*
X72811204Y-89214505D01*
X72810000Y-89190001D01*
X72810000Y-87889999D01*
X72811204Y-87865495D01*
X72814804Y-87841227D01*
X72820765Y-87817428D01*
X72829030Y-87794329D01*
X72839520Y-87772150D01*
X72852132Y-87751107D01*
X72866747Y-87731401D01*
X72883223Y-87713223D01*
X72901401Y-87696747D01*
X72921107Y-87682132D01*
X72942150Y-87669520D01*
X72964329Y-87659030D01*
X72987428Y-87650765D01*
X73011227Y-87644804D01*
X73035495Y-87641204D01*
X73059999Y-87640000D01*
X73960001Y-87640000D01*
X73984505Y-87641204D01*
X73984505Y-87641204D01*
G37*
D18*
X73510000Y-88540000D03*
M02*
