G04 #@! TF.GenerationSoftware,KiCad,Pcbnew,(5.1.2-1)-1*
G04 #@! TF.CreationDate,2022-01-26T01:19:45+00:00*
G04 #@! TF.ProjectId,mz25key,6d7a3235-6b65-4792-9e6b-696361645f70,rev?*
G04 #@! TF.SameCoordinates,Original*
G04 #@! TF.FileFunction,Copper,L2,Bot*
G04 #@! TF.FilePolarity,Positive*
%FSLAX46Y46*%
G04 Gerber Fmt 4.6, Leading zero omitted, Abs format (unit mm)*
G04 Created by KiCad (PCBNEW (5.1.2-1)-1) date 2022-01-26 01:19:45*
%MOMM*%
%LPD*%
G04 APERTURE LIST*
%ADD10R,6.000000X6.000000*%
%ADD11O,0.900000X1.700000*%
%ADD12O,1.700000X0.900000*%
%ADD13O,1.000000X1.000000*%
%ADD14R,1.000000X1.000000*%
%ADD15C,0.100000*%
%ADD16C,0.975000*%
%ADD17R,0.650000X0.400000*%
%ADD18O,1.350000X1.350000*%
%ADD19R,1.350000X1.350000*%
%ADD20C,1.500000*%
%ADD21R,2.500000X3.000000*%
%ADD22R,3.000000X2.500000*%
%ADD23C,1.800000*%
%ADD24R,1.800000X1.800000*%
%ADD25C,0.800000*%
%ADD26C,0.500000*%
%ADD27C,0.400000*%
%ADD28C,0.381000*%
%ADD29C,0.152400*%
%ADD30C,0.254000*%
G04 APERTURE END LIST*
D10*
X72530000Y-93520000D03*
D11*
X80230000Y-102220000D03*
X78960000Y-102220000D03*
X77690000Y-102220000D03*
X76420000Y-102220000D03*
X75150000Y-102220000D03*
X73880000Y-102220000D03*
X72610000Y-102220000D03*
X71340000Y-102220000D03*
X70070000Y-102220000D03*
X68800000Y-102220000D03*
X67530000Y-102220000D03*
X66260000Y-102220000D03*
X64990000Y-102220000D03*
X63720000Y-102220000D03*
D12*
X62230000Y-98935000D03*
X62230000Y-97665000D03*
X62230000Y-96395000D03*
X62230000Y-95125000D03*
X62230000Y-93855000D03*
X62230000Y-92585000D03*
X62230000Y-91315000D03*
X62230000Y-90045000D03*
X62230000Y-88775000D03*
X62230000Y-87505000D03*
D11*
X63720000Y-84220000D03*
X64990000Y-84220000D03*
X66260000Y-84220000D03*
X67530000Y-84220000D03*
X68800000Y-84220000D03*
X70070000Y-84220000D03*
X71340000Y-84220000D03*
X72610000Y-84220000D03*
X73880000Y-84220000D03*
X75150000Y-84220000D03*
X76420000Y-84220000D03*
X77690000Y-84220000D03*
X78960000Y-84220000D03*
X80230000Y-84220000D03*
D13*
X64670000Y-104560000D03*
D14*
X65940000Y-104560000D03*
D13*
X68370000Y-104560000D03*
D14*
X69640000Y-104560000D03*
D15*
G36*
X90950142Y-102321174D02*
G01*
X90973803Y-102324684D01*
X90997007Y-102330496D01*
X91019529Y-102338554D01*
X91041153Y-102348782D01*
X91061670Y-102361079D01*
X91080883Y-102375329D01*
X91098607Y-102391393D01*
X91114671Y-102409117D01*
X91128921Y-102428330D01*
X91141218Y-102448847D01*
X91151446Y-102470471D01*
X91159504Y-102492993D01*
X91165316Y-102516197D01*
X91168826Y-102539858D01*
X91170000Y-102563750D01*
X91170000Y-103476250D01*
X91168826Y-103500142D01*
X91165316Y-103523803D01*
X91159504Y-103547007D01*
X91151446Y-103569529D01*
X91141218Y-103591153D01*
X91128921Y-103611670D01*
X91114671Y-103630883D01*
X91098607Y-103648607D01*
X91080883Y-103664671D01*
X91061670Y-103678921D01*
X91041153Y-103691218D01*
X91019529Y-103701446D01*
X90997007Y-103709504D01*
X90973803Y-103715316D01*
X90950142Y-103718826D01*
X90926250Y-103720000D01*
X90438750Y-103720000D01*
X90414858Y-103718826D01*
X90391197Y-103715316D01*
X90367993Y-103709504D01*
X90345471Y-103701446D01*
X90323847Y-103691218D01*
X90303330Y-103678921D01*
X90284117Y-103664671D01*
X90266393Y-103648607D01*
X90250329Y-103630883D01*
X90236079Y-103611670D01*
X90223782Y-103591153D01*
X90213554Y-103569529D01*
X90205496Y-103547007D01*
X90199684Y-103523803D01*
X90196174Y-103500142D01*
X90195000Y-103476250D01*
X90195000Y-102563750D01*
X90196174Y-102539858D01*
X90199684Y-102516197D01*
X90205496Y-102492993D01*
X90213554Y-102470471D01*
X90223782Y-102448847D01*
X90236079Y-102428330D01*
X90250329Y-102409117D01*
X90266393Y-102391393D01*
X90284117Y-102375329D01*
X90303330Y-102361079D01*
X90323847Y-102348782D01*
X90345471Y-102338554D01*
X90367993Y-102330496D01*
X90391197Y-102324684D01*
X90414858Y-102321174D01*
X90438750Y-102320000D01*
X90926250Y-102320000D01*
X90950142Y-102321174D01*
X90950142Y-102321174D01*
G37*
D16*
X90682500Y-103020000D03*
D15*
G36*
X92825142Y-102321174D02*
G01*
X92848803Y-102324684D01*
X92872007Y-102330496D01*
X92894529Y-102338554D01*
X92916153Y-102348782D01*
X92936670Y-102361079D01*
X92955883Y-102375329D01*
X92973607Y-102391393D01*
X92989671Y-102409117D01*
X93003921Y-102428330D01*
X93016218Y-102448847D01*
X93026446Y-102470471D01*
X93034504Y-102492993D01*
X93040316Y-102516197D01*
X93043826Y-102539858D01*
X93045000Y-102563750D01*
X93045000Y-103476250D01*
X93043826Y-103500142D01*
X93040316Y-103523803D01*
X93034504Y-103547007D01*
X93026446Y-103569529D01*
X93016218Y-103591153D01*
X93003921Y-103611670D01*
X92989671Y-103630883D01*
X92973607Y-103648607D01*
X92955883Y-103664671D01*
X92936670Y-103678921D01*
X92916153Y-103691218D01*
X92894529Y-103701446D01*
X92872007Y-103709504D01*
X92848803Y-103715316D01*
X92825142Y-103718826D01*
X92801250Y-103720000D01*
X92313750Y-103720000D01*
X92289858Y-103718826D01*
X92266197Y-103715316D01*
X92242993Y-103709504D01*
X92220471Y-103701446D01*
X92198847Y-103691218D01*
X92178330Y-103678921D01*
X92159117Y-103664671D01*
X92141393Y-103648607D01*
X92125329Y-103630883D01*
X92111079Y-103611670D01*
X92098782Y-103591153D01*
X92088554Y-103569529D01*
X92080496Y-103547007D01*
X92074684Y-103523803D01*
X92071174Y-103500142D01*
X92070000Y-103476250D01*
X92070000Y-102563750D01*
X92071174Y-102539858D01*
X92074684Y-102516197D01*
X92080496Y-102492993D01*
X92088554Y-102470471D01*
X92098782Y-102448847D01*
X92111079Y-102428330D01*
X92125329Y-102409117D01*
X92141393Y-102391393D01*
X92159117Y-102375329D01*
X92178330Y-102361079D01*
X92198847Y-102348782D01*
X92220471Y-102338554D01*
X92242993Y-102330496D01*
X92266197Y-102324684D01*
X92289858Y-102321174D01*
X92313750Y-102320000D01*
X92801250Y-102320000D01*
X92825142Y-102321174D01*
X92825142Y-102321174D01*
G37*
D16*
X92557500Y-103020000D03*
D15*
G36*
X58580142Y-83891174D02*
G01*
X58603803Y-83894684D01*
X58627007Y-83900496D01*
X58649529Y-83908554D01*
X58671153Y-83918782D01*
X58691670Y-83931079D01*
X58710883Y-83945329D01*
X58728607Y-83961393D01*
X58744671Y-83979117D01*
X58758921Y-83998330D01*
X58771218Y-84018847D01*
X58781446Y-84040471D01*
X58789504Y-84062993D01*
X58795316Y-84086197D01*
X58798826Y-84109858D01*
X58800000Y-84133750D01*
X58800000Y-85046250D01*
X58798826Y-85070142D01*
X58795316Y-85093803D01*
X58789504Y-85117007D01*
X58781446Y-85139529D01*
X58771218Y-85161153D01*
X58758921Y-85181670D01*
X58744671Y-85200883D01*
X58728607Y-85218607D01*
X58710883Y-85234671D01*
X58691670Y-85248921D01*
X58671153Y-85261218D01*
X58649529Y-85271446D01*
X58627007Y-85279504D01*
X58603803Y-85285316D01*
X58580142Y-85288826D01*
X58556250Y-85290000D01*
X58068750Y-85290000D01*
X58044858Y-85288826D01*
X58021197Y-85285316D01*
X57997993Y-85279504D01*
X57975471Y-85271446D01*
X57953847Y-85261218D01*
X57933330Y-85248921D01*
X57914117Y-85234671D01*
X57896393Y-85218607D01*
X57880329Y-85200883D01*
X57866079Y-85181670D01*
X57853782Y-85161153D01*
X57843554Y-85139529D01*
X57835496Y-85117007D01*
X57829684Y-85093803D01*
X57826174Y-85070142D01*
X57825000Y-85046250D01*
X57825000Y-84133750D01*
X57826174Y-84109858D01*
X57829684Y-84086197D01*
X57835496Y-84062993D01*
X57843554Y-84040471D01*
X57853782Y-84018847D01*
X57866079Y-83998330D01*
X57880329Y-83979117D01*
X57896393Y-83961393D01*
X57914117Y-83945329D01*
X57933330Y-83931079D01*
X57953847Y-83918782D01*
X57975471Y-83908554D01*
X57997993Y-83900496D01*
X58021197Y-83894684D01*
X58044858Y-83891174D01*
X58068750Y-83890000D01*
X58556250Y-83890000D01*
X58580142Y-83891174D01*
X58580142Y-83891174D01*
G37*
D16*
X58312500Y-84590000D03*
D15*
G36*
X60455142Y-83891174D02*
G01*
X60478803Y-83894684D01*
X60502007Y-83900496D01*
X60524529Y-83908554D01*
X60546153Y-83918782D01*
X60566670Y-83931079D01*
X60585883Y-83945329D01*
X60603607Y-83961393D01*
X60619671Y-83979117D01*
X60633921Y-83998330D01*
X60646218Y-84018847D01*
X60656446Y-84040471D01*
X60664504Y-84062993D01*
X60670316Y-84086197D01*
X60673826Y-84109858D01*
X60675000Y-84133750D01*
X60675000Y-85046250D01*
X60673826Y-85070142D01*
X60670316Y-85093803D01*
X60664504Y-85117007D01*
X60656446Y-85139529D01*
X60646218Y-85161153D01*
X60633921Y-85181670D01*
X60619671Y-85200883D01*
X60603607Y-85218607D01*
X60585883Y-85234671D01*
X60566670Y-85248921D01*
X60546153Y-85261218D01*
X60524529Y-85271446D01*
X60502007Y-85279504D01*
X60478803Y-85285316D01*
X60455142Y-85288826D01*
X60431250Y-85290000D01*
X59943750Y-85290000D01*
X59919858Y-85288826D01*
X59896197Y-85285316D01*
X59872993Y-85279504D01*
X59850471Y-85271446D01*
X59828847Y-85261218D01*
X59808330Y-85248921D01*
X59789117Y-85234671D01*
X59771393Y-85218607D01*
X59755329Y-85200883D01*
X59741079Y-85181670D01*
X59728782Y-85161153D01*
X59718554Y-85139529D01*
X59710496Y-85117007D01*
X59704684Y-85093803D01*
X59701174Y-85070142D01*
X59700000Y-85046250D01*
X59700000Y-84133750D01*
X59701174Y-84109858D01*
X59704684Y-84086197D01*
X59710496Y-84062993D01*
X59718554Y-84040471D01*
X59728782Y-84018847D01*
X59741079Y-83998330D01*
X59755329Y-83979117D01*
X59771393Y-83961393D01*
X59789117Y-83945329D01*
X59808330Y-83931079D01*
X59828847Y-83918782D01*
X59850471Y-83908554D01*
X59872993Y-83900496D01*
X59896197Y-83894684D01*
X59919858Y-83891174D01*
X59943750Y-83890000D01*
X60431250Y-83890000D01*
X60455142Y-83891174D01*
X60455142Y-83891174D01*
G37*
D16*
X60187500Y-84590000D03*
D15*
G36*
X92825142Y-100251174D02*
G01*
X92848803Y-100254684D01*
X92872007Y-100260496D01*
X92894529Y-100268554D01*
X92916153Y-100278782D01*
X92936670Y-100291079D01*
X92955883Y-100305329D01*
X92973607Y-100321393D01*
X92989671Y-100339117D01*
X93003921Y-100358330D01*
X93016218Y-100378847D01*
X93026446Y-100400471D01*
X93034504Y-100422993D01*
X93040316Y-100446197D01*
X93043826Y-100469858D01*
X93045000Y-100493750D01*
X93045000Y-101406250D01*
X93043826Y-101430142D01*
X93040316Y-101453803D01*
X93034504Y-101477007D01*
X93026446Y-101499529D01*
X93016218Y-101521153D01*
X93003921Y-101541670D01*
X92989671Y-101560883D01*
X92973607Y-101578607D01*
X92955883Y-101594671D01*
X92936670Y-101608921D01*
X92916153Y-101621218D01*
X92894529Y-101631446D01*
X92872007Y-101639504D01*
X92848803Y-101645316D01*
X92825142Y-101648826D01*
X92801250Y-101650000D01*
X92313750Y-101650000D01*
X92289858Y-101648826D01*
X92266197Y-101645316D01*
X92242993Y-101639504D01*
X92220471Y-101631446D01*
X92198847Y-101621218D01*
X92178330Y-101608921D01*
X92159117Y-101594671D01*
X92141393Y-101578607D01*
X92125329Y-101560883D01*
X92111079Y-101541670D01*
X92098782Y-101521153D01*
X92088554Y-101499529D01*
X92080496Y-101477007D01*
X92074684Y-101453803D01*
X92071174Y-101430142D01*
X92070000Y-101406250D01*
X92070000Y-100493750D01*
X92071174Y-100469858D01*
X92074684Y-100446197D01*
X92080496Y-100422993D01*
X92088554Y-100400471D01*
X92098782Y-100378847D01*
X92111079Y-100358330D01*
X92125329Y-100339117D01*
X92141393Y-100321393D01*
X92159117Y-100305329D01*
X92178330Y-100291079D01*
X92198847Y-100278782D01*
X92220471Y-100268554D01*
X92242993Y-100260496D01*
X92266197Y-100254684D01*
X92289858Y-100251174D01*
X92313750Y-100250000D01*
X92801250Y-100250000D01*
X92825142Y-100251174D01*
X92825142Y-100251174D01*
G37*
D16*
X92557500Y-100950000D03*
D15*
G36*
X90950142Y-100251174D02*
G01*
X90973803Y-100254684D01*
X90997007Y-100260496D01*
X91019529Y-100268554D01*
X91041153Y-100278782D01*
X91061670Y-100291079D01*
X91080883Y-100305329D01*
X91098607Y-100321393D01*
X91114671Y-100339117D01*
X91128921Y-100358330D01*
X91141218Y-100378847D01*
X91151446Y-100400471D01*
X91159504Y-100422993D01*
X91165316Y-100446197D01*
X91168826Y-100469858D01*
X91170000Y-100493750D01*
X91170000Y-101406250D01*
X91168826Y-101430142D01*
X91165316Y-101453803D01*
X91159504Y-101477007D01*
X91151446Y-101499529D01*
X91141218Y-101521153D01*
X91128921Y-101541670D01*
X91114671Y-101560883D01*
X91098607Y-101578607D01*
X91080883Y-101594671D01*
X91061670Y-101608921D01*
X91041153Y-101621218D01*
X91019529Y-101631446D01*
X90997007Y-101639504D01*
X90973803Y-101645316D01*
X90950142Y-101648826D01*
X90926250Y-101650000D01*
X90438750Y-101650000D01*
X90414858Y-101648826D01*
X90391197Y-101645316D01*
X90367993Y-101639504D01*
X90345471Y-101631446D01*
X90323847Y-101621218D01*
X90303330Y-101608921D01*
X90284117Y-101594671D01*
X90266393Y-101578607D01*
X90250329Y-101560883D01*
X90236079Y-101541670D01*
X90223782Y-101521153D01*
X90213554Y-101499529D01*
X90205496Y-101477007D01*
X90199684Y-101453803D01*
X90196174Y-101430142D01*
X90195000Y-101406250D01*
X90195000Y-100493750D01*
X90196174Y-100469858D01*
X90199684Y-100446197D01*
X90205496Y-100422993D01*
X90213554Y-100400471D01*
X90223782Y-100378847D01*
X90236079Y-100358330D01*
X90250329Y-100339117D01*
X90266393Y-100321393D01*
X90284117Y-100305329D01*
X90303330Y-100291079D01*
X90323847Y-100278782D01*
X90345471Y-100268554D01*
X90367993Y-100260496D01*
X90391197Y-100254684D01*
X90414858Y-100251174D01*
X90438750Y-100250000D01*
X90926250Y-100250000D01*
X90950142Y-100251174D01*
X90950142Y-100251174D01*
G37*
D16*
X90682500Y-100950000D03*
D15*
G36*
X85145142Y-104281174D02*
G01*
X85168803Y-104284684D01*
X85192007Y-104290496D01*
X85214529Y-104298554D01*
X85236153Y-104308782D01*
X85256670Y-104321079D01*
X85275883Y-104335329D01*
X85293607Y-104351393D01*
X85309671Y-104369117D01*
X85323921Y-104388330D01*
X85336218Y-104408847D01*
X85346446Y-104430471D01*
X85354504Y-104452993D01*
X85360316Y-104476197D01*
X85363826Y-104499858D01*
X85365000Y-104523750D01*
X85365000Y-105436250D01*
X85363826Y-105460142D01*
X85360316Y-105483803D01*
X85354504Y-105507007D01*
X85346446Y-105529529D01*
X85336218Y-105551153D01*
X85323921Y-105571670D01*
X85309671Y-105590883D01*
X85293607Y-105608607D01*
X85275883Y-105624671D01*
X85256670Y-105638921D01*
X85236153Y-105651218D01*
X85214529Y-105661446D01*
X85192007Y-105669504D01*
X85168803Y-105675316D01*
X85145142Y-105678826D01*
X85121250Y-105680000D01*
X84633750Y-105680000D01*
X84609858Y-105678826D01*
X84586197Y-105675316D01*
X84562993Y-105669504D01*
X84540471Y-105661446D01*
X84518847Y-105651218D01*
X84498330Y-105638921D01*
X84479117Y-105624671D01*
X84461393Y-105608607D01*
X84445329Y-105590883D01*
X84431079Y-105571670D01*
X84418782Y-105551153D01*
X84408554Y-105529529D01*
X84400496Y-105507007D01*
X84394684Y-105483803D01*
X84391174Y-105460142D01*
X84390000Y-105436250D01*
X84390000Y-104523750D01*
X84391174Y-104499858D01*
X84394684Y-104476197D01*
X84400496Y-104452993D01*
X84408554Y-104430471D01*
X84418782Y-104408847D01*
X84431079Y-104388330D01*
X84445329Y-104369117D01*
X84461393Y-104351393D01*
X84479117Y-104335329D01*
X84498330Y-104321079D01*
X84518847Y-104308782D01*
X84540471Y-104298554D01*
X84562993Y-104290496D01*
X84586197Y-104284684D01*
X84609858Y-104281174D01*
X84633750Y-104280000D01*
X85121250Y-104280000D01*
X85145142Y-104281174D01*
X85145142Y-104281174D01*
G37*
D16*
X84877500Y-104980000D03*
D15*
G36*
X83270142Y-104281174D02*
G01*
X83293803Y-104284684D01*
X83317007Y-104290496D01*
X83339529Y-104298554D01*
X83361153Y-104308782D01*
X83381670Y-104321079D01*
X83400883Y-104335329D01*
X83418607Y-104351393D01*
X83434671Y-104369117D01*
X83448921Y-104388330D01*
X83461218Y-104408847D01*
X83471446Y-104430471D01*
X83479504Y-104452993D01*
X83485316Y-104476197D01*
X83488826Y-104499858D01*
X83490000Y-104523750D01*
X83490000Y-105436250D01*
X83488826Y-105460142D01*
X83485316Y-105483803D01*
X83479504Y-105507007D01*
X83471446Y-105529529D01*
X83461218Y-105551153D01*
X83448921Y-105571670D01*
X83434671Y-105590883D01*
X83418607Y-105608607D01*
X83400883Y-105624671D01*
X83381670Y-105638921D01*
X83361153Y-105651218D01*
X83339529Y-105661446D01*
X83317007Y-105669504D01*
X83293803Y-105675316D01*
X83270142Y-105678826D01*
X83246250Y-105680000D01*
X82758750Y-105680000D01*
X82734858Y-105678826D01*
X82711197Y-105675316D01*
X82687993Y-105669504D01*
X82665471Y-105661446D01*
X82643847Y-105651218D01*
X82623330Y-105638921D01*
X82604117Y-105624671D01*
X82586393Y-105608607D01*
X82570329Y-105590883D01*
X82556079Y-105571670D01*
X82543782Y-105551153D01*
X82533554Y-105529529D01*
X82525496Y-105507007D01*
X82519684Y-105483803D01*
X82516174Y-105460142D01*
X82515000Y-105436250D01*
X82515000Y-104523750D01*
X82516174Y-104499858D01*
X82519684Y-104476197D01*
X82525496Y-104452993D01*
X82533554Y-104430471D01*
X82543782Y-104408847D01*
X82556079Y-104388330D01*
X82570329Y-104369117D01*
X82586393Y-104351393D01*
X82604117Y-104335329D01*
X82623330Y-104321079D01*
X82643847Y-104308782D01*
X82665471Y-104298554D01*
X82687993Y-104290496D01*
X82711197Y-104284684D01*
X82734858Y-104281174D01*
X82758750Y-104280000D01*
X83246250Y-104280000D01*
X83270142Y-104281174D01*
X83270142Y-104281174D01*
G37*
D16*
X83002500Y-104980000D03*
D17*
X88690000Y-105220000D03*
X88690000Y-103920000D03*
X86790000Y-104570000D03*
X88690000Y-104570000D03*
X86790000Y-103920000D03*
X86790000Y-105220000D03*
D15*
G36*
X92815142Y-104311174D02*
G01*
X92838803Y-104314684D01*
X92862007Y-104320496D01*
X92884529Y-104328554D01*
X92906153Y-104338782D01*
X92926670Y-104351079D01*
X92945883Y-104365329D01*
X92963607Y-104381393D01*
X92979671Y-104399117D01*
X92993921Y-104418330D01*
X93006218Y-104438847D01*
X93016446Y-104460471D01*
X93024504Y-104482993D01*
X93030316Y-104506197D01*
X93033826Y-104529858D01*
X93035000Y-104553750D01*
X93035000Y-105466250D01*
X93033826Y-105490142D01*
X93030316Y-105513803D01*
X93024504Y-105537007D01*
X93016446Y-105559529D01*
X93006218Y-105581153D01*
X92993921Y-105601670D01*
X92979671Y-105620883D01*
X92963607Y-105638607D01*
X92945883Y-105654671D01*
X92926670Y-105668921D01*
X92906153Y-105681218D01*
X92884529Y-105691446D01*
X92862007Y-105699504D01*
X92838803Y-105705316D01*
X92815142Y-105708826D01*
X92791250Y-105710000D01*
X92303750Y-105710000D01*
X92279858Y-105708826D01*
X92256197Y-105705316D01*
X92232993Y-105699504D01*
X92210471Y-105691446D01*
X92188847Y-105681218D01*
X92168330Y-105668921D01*
X92149117Y-105654671D01*
X92131393Y-105638607D01*
X92115329Y-105620883D01*
X92101079Y-105601670D01*
X92088782Y-105581153D01*
X92078554Y-105559529D01*
X92070496Y-105537007D01*
X92064684Y-105513803D01*
X92061174Y-105490142D01*
X92060000Y-105466250D01*
X92060000Y-104553750D01*
X92061174Y-104529858D01*
X92064684Y-104506197D01*
X92070496Y-104482993D01*
X92078554Y-104460471D01*
X92088782Y-104438847D01*
X92101079Y-104418330D01*
X92115329Y-104399117D01*
X92131393Y-104381393D01*
X92149117Y-104365329D01*
X92168330Y-104351079D01*
X92188847Y-104338782D01*
X92210471Y-104328554D01*
X92232993Y-104320496D01*
X92256197Y-104314684D01*
X92279858Y-104311174D01*
X92303750Y-104310000D01*
X92791250Y-104310000D01*
X92815142Y-104311174D01*
X92815142Y-104311174D01*
G37*
D16*
X92547500Y-105010000D03*
D15*
G36*
X90940142Y-104311174D02*
G01*
X90963803Y-104314684D01*
X90987007Y-104320496D01*
X91009529Y-104328554D01*
X91031153Y-104338782D01*
X91051670Y-104351079D01*
X91070883Y-104365329D01*
X91088607Y-104381393D01*
X91104671Y-104399117D01*
X91118921Y-104418330D01*
X91131218Y-104438847D01*
X91141446Y-104460471D01*
X91149504Y-104482993D01*
X91155316Y-104506197D01*
X91158826Y-104529858D01*
X91160000Y-104553750D01*
X91160000Y-105466250D01*
X91158826Y-105490142D01*
X91155316Y-105513803D01*
X91149504Y-105537007D01*
X91141446Y-105559529D01*
X91131218Y-105581153D01*
X91118921Y-105601670D01*
X91104671Y-105620883D01*
X91088607Y-105638607D01*
X91070883Y-105654671D01*
X91051670Y-105668921D01*
X91031153Y-105681218D01*
X91009529Y-105691446D01*
X90987007Y-105699504D01*
X90963803Y-105705316D01*
X90940142Y-105708826D01*
X90916250Y-105710000D01*
X90428750Y-105710000D01*
X90404858Y-105708826D01*
X90381197Y-105705316D01*
X90357993Y-105699504D01*
X90335471Y-105691446D01*
X90313847Y-105681218D01*
X90293330Y-105668921D01*
X90274117Y-105654671D01*
X90256393Y-105638607D01*
X90240329Y-105620883D01*
X90226079Y-105601670D01*
X90213782Y-105581153D01*
X90203554Y-105559529D01*
X90195496Y-105537007D01*
X90189684Y-105513803D01*
X90186174Y-105490142D01*
X90185000Y-105466250D01*
X90185000Y-104553750D01*
X90186174Y-104529858D01*
X90189684Y-104506197D01*
X90195496Y-104482993D01*
X90203554Y-104460471D01*
X90213782Y-104438847D01*
X90226079Y-104418330D01*
X90240329Y-104399117D01*
X90256393Y-104381393D01*
X90274117Y-104365329D01*
X90293330Y-104351079D01*
X90313847Y-104338782D01*
X90335471Y-104328554D01*
X90357993Y-104320496D01*
X90381197Y-104314684D01*
X90404858Y-104311174D01*
X90428750Y-104310000D01*
X90916250Y-104310000D01*
X90940142Y-104311174D01*
X90940142Y-104311174D01*
G37*
D16*
X90672500Y-105010000D03*
D18*
X70140000Y-81830000D03*
X68140000Y-81830000D03*
X66140000Y-81830000D03*
X64140000Y-81830000D03*
X62140000Y-81830000D03*
X60140000Y-81830000D03*
X58140000Y-81830000D03*
D19*
X56140000Y-81830000D03*
D20*
X92820000Y-94336000D03*
X92820000Y-92177000D03*
X90280000Y-90145000D03*
X90280000Y-96495000D03*
X92820000Y-96495000D03*
X92820000Y-90145000D03*
D21*
X96567800Y-93320000D03*
D22*
X95360000Y-86335000D03*
X95360000Y-100305000D03*
D15*
G36*
X90950142Y-98171174D02*
G01*
X90973803Y-98174684D01*
X90997007Y-98180496D01*
X91019529Y-98188554D01*
X91041153Y-98198782D01*
X91061670Y-98211079D01*
X91080883Y-98225329D01*
X91098607Y-98241393D01*
X91114671Y-98259117D01*
X91128921Y-98278330D01*
X91141218Y-98298847D01*
X91151446Y-98320471D01*
X91159504Y-98342993D01*
X91165316Y-98366197D01*
X91168826Y-98389858D01*
X91170000Y-98413750D01*
X91170000Y-99326250D01*
X91168826Y-99350142D01*
X91165316Y-99373803D01*
X91159504Y-99397007D01*
X91151446Y-99419529D01*
X91141218Y-99441153D01*
X91128921Y-99461670D01*
X91114671Y-99480883D01*
X91098607Y-99498607D01*
X91080883Y-99514671D01*
X91061670Y-99528921D01*
X91041153Y-99541218D01*
X91019529Y-99551446D01*
X90997007Y-99559504D01*
X90973803Y-99565316D01*
X90950142Y-99568826D01*
X90926250Y-99570000D01*
X90438750Y-99570000D01*
X90414858Y-99568826D01*
X90391197Y-99565316D01*
X90367993Y-99559504D01*
X90345471Y-99551446D01*
X90323847Y-99541218D01*
X90303330Y-99528921D01*
X90284117Y-99514671D01*
X90266393Y-99498607D01*
X90250329Y-99480883D01*
X90236079Y-99461670D01*
X90223782Y-99441153D01*
X90213554Y-99419529D01*
X90205496Y-99397007D01*
X90199684Y-99373803D01*
X90196174Y-99350142D01*
X90195000Y-99326250D01*
X90195000Y-98413750D01*
X90196174Y-98389858D01*
X90199684Y-98366197D01*
X90205496Y-98342993D01*
X90213554Y-98320471D01*
X90223782Y-98298847D01*
X90236079Y-98278330D01*
X90250329Y-98259117D01*
X90266393Y-98241393D01*
X90284117Y-98225329D01*
X90303330Y-98211079D01*
X90323847Y-98198782D01*
X90345471Y-98188554D01*
X90367993Y-98180496D01*
X90391197Y-98174684D01*
X90414858Y-98171174D01*
X90438750Y-98170000D01*
X90926250Y-98170000D01*
X90950142Y-98171174D01*
X90950142Y-98171174D01*
G37*
D16*
X90682500Y-98870000D03*
D15*
G36*
X92825142Y-98171174D02*
G01*
X92848803Y-98174684D01*
X92872007Y-98180496D01*
X92894529Y-98188554D01*
X92916153Y-98198782D01*
X92936670Y-98211079D01*
X92955883Y-98225329D01*
X92973607Y-98241393D01*
X92989671Y-98259117D01*
X93003921Y-98278330D01*
X93016218Y-98298847D01*
X93026446Y-98320471D01*
X93034504Y-98342993D01*
X93040316Y-98366197D01*
X93043826Y-98389858D01*
X93045000Y-98413750D01*
X93045000Y-99326250D01*
X93043826Y-99350142D01*
X93040316Y-99373803D01*
X93034504Y-99397007D01*
X93026446Y-99419529D01*
X93016218Y-99441153D01*
X93003921Y-99461670D01*
X92989671Y-99480883D01*
X92973607Y-99498607D01*
X92955883Y-99514671D01*
X92936670Y-99528921D01*
X92916153Y-99541218D01*
X92894529Y-99551446D01*
X92872007Y-99559504D01*
X92848803Y-99565316D01*
X92825142Y-99568826D01*
X92801250Y-99570000D01*
X92313750Y-99570000D01*
X92289858Y-99568826D01*
X92266197Y-99565316D01*
X92242993Y-99559504D01*
X92220471Y-99551446D01*
X92198847Y-99541218D01*
X92178330Y-99528921D01*
X92159117Y-99514671D01*
X92141393Y-99498607D01*
X92125329Y-99480883D01*
X92111079Y-99461670D01*
X92098782Y-99441153D01*
X92088554Y-99419529D01*
X92080496Y-99397007D01*
X92074684Y-99373803D01*
X92071174Y-99350142D01*
X92070000Y-99326250D01*
X92070000Y-98413750D01*
X92071174Y-98389858D01*
X92074684Y-98366197D01*
X92080496Y-98342993D01*
X92088554Y-98320471D01*
X92098782Y-98298847D01*
X92111079Y-98278330D01*
X92125329Y-98259117D01*
X92141393Y-98241393D01*
X92159117Y-98225329D01*
X92178330Y-98211079D01*
X92198847Y-98198782D01*
X92220471Y-98188554D01*
X92242993Y-98180496D01*
X92266197Y-98174684D01*
X92289858Y-98171174D01*
X92313750Y-98170000D01*
X92801250Y-98170000D01*
X92825142Y-98171174D01*
X92825142Y-98171174D01*
G37*
D16*
X92557500Y-98870000D03*
D23*
X86960000Y-82740000D03*
D24*
X84420000Y-82740000D03*
D15*
G36*
X90070142Y-86731174D02*
G01*
X90093803Y-86734684D01*
X90117007Y-86740496D01*
X90139529Y-86748554D01*
X90161153Y-86758782D01*
X90181670Y-86771079D01*
X90200883Y-86785329D01*
X90218607Y-86801393D01*
X90234671Y-86819117D01*
X90248921Y-86838330D01*
X90261218Y-86858847D01*
X90271446Y-86880471D01*
X90279504Y-86902993D01*
X90285316Y-86926197D01*
X90288826Y-86949858D01*
X90290000Y-86973750D01*
X90290000Y-87886250D01*
X90288826Y-87910142D01*
X90285316Y-87933803D01*
X90279504Y-87957007D01*
X90271446Y-87979529D01*
X90261218Y-88001153D01*
X90248921Y-88021670D01*
X90234671Y-88040883D01*
X90218607Y-88058607D01*
X90200883Y-88074671D01*
X90181670Y-88088921D01*
X90161153Y-88101218D01*
X90139529Y-88111446D01*
X90117007Y-88119504D01*
X90093803Y-88125316D01*
X90070142Y-88128826D01*
X90046250Y-88130000D01*
X89558750Y-88130000D01*
X89534858Y-88128826D01*
X89511197Y-88125316D01*
X89487993Y-88119504D01*
X89465471Y-88111446D01*
X89443847Y-88101218D01*
X89423330Y-88088921D01*
X89404117Y-88074671D01*
X89386393Y-88058607D01*
X89370329Y-88040883D01*
X89356079Y-88021670D01*
X89343782Y-88001153D01*
X89333554Y-87979529D01*
X89325496Y-87957007D01*
X89319684Y-87933803D01*
X89316174Y-87910142D01*
X89315000Y-87886250D01*
X89315000Y-86973750D01*
X89316174Y-86949858D01*
X89319684Y-86926197D01*
X89325496Y-86902993D01*
X89333554Y-86880471D01*
X89343782Y-86858847D01*
X89356079Y-86838330D01*
X89370329Y-86819117D01*
X89386393Y-86801393D01*
X89404117Y-86785329D01*
X89423330Y-86771079D01*
X89443847Y-86758782D01*
X89465471Y-86748554D01*
X89487993Y-86740496D01*
X89511197Y-86734684D01*
X89534858Y-86731174D01*
X89558750Y-86730000D01*
X90046250Y-86730000D01*
X90070142Y-86731174D01*
X90070142Y-86731174D01*
G37*
D16*
X89802500Y-87430000D03*
D15*
G36*
X91945142Y-86731174D02*
G01*
X91968803Y-86734684D01*
X91992007Y-86740496D01*
X92014529Y-86748554D01*
X92036153Y-86758782D01*
X92056670Y-86771079D01*
X92075883Y-86785329D01*
X92093607Y-86801393D01*
X92109671Y-86819117D01*
X92123921Y-86838330D01*
X92136218Y-86858847D01*
X92146446Y-86880471D01*
X92154504Y-86902993D01*
X92160316Y-86926197D01*
X92163826Y-86949858D01*
X92165000Y-86973750D01*
X92165000Y-87886250D01*
X92163826Y-87910142D01*
X92160316Y-87933803D01*
X92154504Y-87957007D01*
X92146446Y-87979529D01*
X92136218Y-88001153D01*
X92123921Y-88021670D01*
X92109671Y-88040883D01*
X92093607Y-88058607D01*
X92075883Y-88074671D01*
X92056670Y-88088921D01*
X92036153Y-88101218D01*
X92014529Y-88111446D01*
X91992007Y-88119504D01*
X91968803Y-88125316D01*
X91945142Y-88128826D01*
X91921250Y-88130000D01*
X91433750Y-88130000D01*
X91409858Y-88128826D01*
X91386197Y-88125316D01*
X91362993Y-88119504D01*
X91340471Y-88111446D01*
X91318847Y-88101218D01*
X91298330Y-88088921D01*
X91279117Y-88074671D01*
X91261393Y-88058607D01*
X91245329Y-88040883D01*
X91231079Y-88021670D01*
X91218782Y-88001153D01*
X91208554Y-87979529D01*
X91200496Y-87957007D01*
X91194684Y-87933803D01*
X91191174Y-87910142D01*
X91190000Y-87886250D01*
X91190000Y-86973750D01*
X91191174Y-86949858D01*
X91194684Y-86926197D01*
X91200496Y-86902993D01*
X91208554Y-86880471D01*
X91218782Y-86858847D01*
X91231079Y-86838330D01*
X91245329Y-86819117D01*
X91261393Y-86801393D01*
X91279117Y-86785329D01*
X91298330Y-86771079D01*
X91318847Y-86758782D01*
X91340471Y-86748554D01*
X91362993Y-86740496D01*
X91386197Y-86734684D01*
X91409858Y-86731174D01*
X91433750Y-86730000D01*
X91921250Y-86730000D01*
X91945142Y-86731174D01*
X91945142Y-86731174D01*
G37*
D16*
X91677500Y-87430000D03*
D15*
G36*
X90980142Y-94051174D02*
G01*
X91003803Y-94054684D01*
X91027007Y-94060496D01*
X91049529Y-94068554D01*
X91071153Y-94078782D01*
X91091670Y-94091079D01*
X91110883Y-94105329D01*
X91128607Y-94121393D01*
X91144671Y-94139117D01*
X91158921Y-94158330D01*
X91171218Y-94178847D01*
X91181446Y-94200471D01*
X91189504Y-94222993D01*
X91195316Y-94246197D01*
X91198826Y-94269858D01*
X91200000Y-94293750D01*
X91200000Y-94781250D01*
X91198826Y-94805142D01*
X91195316Y-94828803D01*
X91189504Y-94852007D01*
X91181446Y-94874529D01*
X91171218Y-94896153D01*
X91158921Y-94916670D01*
X91144671Y-94935883D01*
X91128607Y-94953607D01*
X91110883Y-94969671D01*
X91091670Y-94983921D01*
X91071153Y-94996218D01*
X91049529Y-95006446D01*
X91027007Y-95014504D01*
X91003803Y-95020316D01*
X90980142Y-95023826D01*
X90956250Y-95025000D01*
X90043750Y-95025000D01*
X90019858Y-95023826D01*
X89996197Y-95020316D01*
X89972993Y-95014504D01*
X89950471Y-95006446D01*
X89928847Y-94996218D01*
X89908330Y-94983921D01*
X89889117Y-94969671D01*
X89871393Y-94953607D01*
X89855329Y-94935883D01*
X89841079Y-94916670D01*
X89828782Y-94896153D01*
X89818554Y-94874529D01*
X89810496Y-94852007D01*
X89804684Y-94828803D01*
X89801174Y-94805142D01*
X89800000Y-94781250D01*
X89800000Y-94293750D01*
X89801174Y-94269858D01*
X89804684Y-94246197D01*
X89810496Y-94222993D01*
X89818554Y-94200471D01*
X89828782Y-94178847D01*
X89841079Y-94158330D01*
X89855329Y-94139117D01*
X89871393Y-94121393D01*
X89889117Y-94105329D01*
X89908330Y-94091079D01*
X89928847Y-94078782D01*
X89950471Y-94068554D01*
X89972993Y-94060496D01*
X89996197Y-94054684D01*
X90019858Y-94051174D01*
X90043750Y-94050000D01*
X90956250Y-94050000D01*
X90980142Y-94051174D01*
X90980142Y-94051174D01*
G37*
D16*
X90500000Y-94537500D03*
D15*
G36*
X90980142Y-92176174D02*
G01*
X91003803Y-92179684D01*
X91027007Y-92185496D01*
X91049529Y-92193554D01*
X91071153Y-92203782D01*
X91091670Y-92216079D01*
X91110883Y-92230329D01*
X91128607Y-92246393D01*
X91144671Y-92264117D01*
X91158921Y-92283330D01*
X91171218Y-92303847D01*
X91181446Y-92325471D01*
X91189504Y-92347993D01*
X91195316Y-92371197D01*
X91198826Y-92394858D01*
X91200000Y-92418750D01*
X91200000Y-92906250D01*
X91198826Y-92930142D01*
X91195316Y-92953803D01*
X91189504Y-92977007D01*
X91181446Y-92999529D01*
X91171218Y-93021153D01*
X91158921Y-93041670D01*
X91144671Y-93060883D01*
X91128607Y-93078607D01*
X91110883Y-93094671D01*
X91091670Y-93108921D01*
X91071153Y-93121218D01*
X91049529Y-93131446D01*
X91027007Y-93139504D01*
X91003803Y-93145316D01*
X90980142Y-93148826D01*
X90956250Y-93150000D01*
X90043750Y-93150000D01*
X90019858Y-93148826D01*
X89996197Y-93145316D01*
X89972993Y-93139504D01*
X89950471Y-93131446D01*
X89928847Y-93121218D01*
X89908330Y-93108921D01*
X89889117Y-93094671D01*
X89871393Y-93078607D01*
X89855329Y-93060883D01*
X89841079Y-93041670D01*
X89828782Y-93021153D01*
X89818554Y-92999529D01*
X89810496Y-92977007D01*
X89804684Y-92953803D01*
X89801174Y-92930142D01*
X89800000Y-92906250D01*
X89800000Y-92418750D01*
X89801174Y-92394858D01*
X89804684Y-92371197D01*
X89810496Y-92347993D01*
X89818554Y-92325471D01*
X89828782Y-92303847D01*
X89841079Y-92283330D01*
X89855329Y-92264117D01*
X89871393Y-92246393D01*
X89889117Y-92230329D01*
X89908330Y-92216079D01*
X89928847Y-92203782D01*
X89950471Y-92193554D01*
X89972993Y-92185496D01*
X89996197Y-92179684D01*
X90019858Y-92176174D01*
X90043750Y-92175000D01*
X90956250Y-92175000D01*
X90980142Y-92176174D01*
X90980142Y-92176174D01*
G37*
D16*
X90500000Y-92662500D03*
D15*
G36*
X97525142Y-96381174D02*
G01*
X97548803Y-96384684D01*
X97572007Y-96390496D01*
X97594529Y-96398554D01*
X97616153Y-96408782D01*
X97636670Y-96421079D01*
X97655883Y-96435329D01*
X97673607Y-96451393D01*
X97689671Y-96469117D01*
X97703921Y-96488330D01*
X97716218Y-96508847D01*
X97726446Y-96530471D01*
X97734504Y-96552993D01*
X97740316Y-96576197D01*
X97743826Y-96599858D01*
X97745000Y-96623750D01*
X97745000Y-97536250D01*
X97743826Y-97560142D01*
X97740316Y-97583803D01*
X97734504Y-97607007D01*
X97726446Y-97629529D01*
X97716218Y-97651153D01*
X97703921Y-97671670D01*
X97689671Y-97690883D01*
X97673607Y-97708607D01*
X97655883Y-97724671D01*
X97636670Y-97738921D01*
X97616153Y-97751218D01*
X97594529Y-97761446D01*
X97572007Y-97769504D01*
X97548803Y-97775316D01*
X97525142Y-97778826D01*
X97501250Y-97780000D01*
X97013750Y-97780000D01*
X96989858Y-97778826D01*
X96966197Y-97775316D01*
X96942993Y-97769504D01*
X96920471Y-97761446D01*
X96898847Y-97751218D01*
X96878330Y-97738921D01*
X96859117Y-97724671D01*
X96841393Y-97708607D01*
X96825329Y-97690883D01*
X96811079Y-97671670D01*
X96798782Y-97651153D01*
X96788554Y-97629529D01*
X96780496Y-97607007D01*
X96774684Y-97583803D01*
X96771174Y-97560142D01*
X96770000Y-97536250D01*
X96770000Y-96623750D01*
X96771174Y-96599858D01*
X96774684Y-96576197D01*
X96780496Y-96552993D01*
X96788554Y-96530471D01*
X96798782Y-96508847D01*
X96811079Y-96488330D01*
X96825329Y-96469117D01*
X96841393Y-96451393D01*
X96859117Y-96435329D01*
X96878330Y-96421079D01*
X96898847Y-96408782D01*
X96920471Y-96398554D01*
X96942993Y-96390496D01*
X96966197Y-96384684D01*
X96989858Y-96381174D01*
X97013750Y-96380000D01*
X97501250Y-96380000D01*
X97525142Y-96381174D01*
X97525142Y-96381174D01*
G37*
D16*
X97257500Y-97080000D03*
D15*
G36*
X95650142Y-96381174D02*
G01*
X95673803Y-96384684D01*
X95697007Y-96390496D01*
X95719529Y-96398554D01*
X95741153Y-96408782D01*
X95761670Y-96421079D01*
X95780883Y-96435329D01*
X95798607Y-96451393D01*
X95814671Y-96469117D01*
X95828921Y-96488330D01*
X95841218Y-96508847D01*
X95851446Y-96530471D01*
X95859504Y-96552993D01*
X95865316Y-96576197D01*
X95868826Y-96599858D01*
X95870000Y-96623750D01*
X95870000Y-97536250D01*
X95868826Y-97560142D01*
X95865316Y-97583803D01*
X95859504Y-97607007D01*
X95851446Y-97629529D01*
X95841218Y-97651153D01*
X95828921Y-97671670D01*
X95814671Y-97690883D01*
X95798607Y-97708607D01*
X95780883Y-97724671D01*
X95761670Y-97738921D01*
X95741153Y-97751218D01*
X95719529Y-97761446D01*
X95697007Y-97769504D01*
X95673803Y-97775316D01*
X95650142Y-97778826D01*
X95626250Y-97780000D01*
X95138750Y-97780000D01*
X95114858Y-97778826D01*
X95091197Y-97775316D01*
X95067993Y-97769504D01*
X95045471Y-97761446D01*
X95023847Y-97751218D01*
X95003330Y-97738921D01*
X94984117Y-97724671D01*
X94966393Y-97708607D01*
X94950329Y-97690883D01*
X94936079Y-97671670D01*
X94923782Y-97651153D01*
X94913554Y-97629529D01*
X94905496Y-97607007D01*
X94899684Y-97583803D01*
X94896174Y-97560142D01*
X94895000Y-97536250D01*
X94895000Y-96623750D01*
X94896174Y-96599858D01*
X94899684Y-96576197D01*
X94905496Y-96552993D01*
X94913554Y-96530471D01*
X94923782Y-96508847D01*
X94936079Y-96488330D01*
X94950329Y-96469117D01*
X94966393Y-96451393D01*
X94984117Y-96435329D01*
X95003330Y-96421079D01*
X95023847Y-96408782D01*
X95045471Y-96398554D01*
X95067993Y-96390496D01*
X95091197Y-96384684D01*
X95114858Y-96381174D01*
X95138750Y-96380000D01*
X95626250Y-96380000D01*
X95650142Y-96381174D01*
X95650142Y-96381174D01*
G37*
D16*
X95382500Y-97080000D03*
D18*
X55920000Y-101220000D03*
X55920000Y-99220000D03*
X55920000Y-97220000D03*
X55920000Y-95220000D03*
X55920000Y-93220000D03*
X55920000Y-91220000D03*
X55920000Y-89220000D03*
X55920000Y-87220000D03*
D19*
X55920000Y-85220000D03*
D25*
X80230000Y-102650000D03*
X73640000Y-94760000D03*
X73130000Y-95680000D03*
X74170000Y-95640000D03*
X80200000Y-101810000D03*
D26*
X68520000Y-98940000D03*
X60190000Y-90540000D03*
X60070006Y-96730006D03*
X60070000Y-95677588D03*
X85800000Y-94040000D03*
X61970000Y-103050000D03*
D27*
X74515000Y-85279500D03*
X75785000Y-85279500D03*
X62377400Y-84112400D03*
X82022800Y-86735400D03*
X59328500Y-83231600D03*
X81195400Y-86877600D03*
X91620000Y-98904800D03*
D25*
X78970000Y-102650000D03*
X78960000Y-101810000D03*
D27*
X75808600Y-98342800D03*
X89163600Y-94425600D03*
X74307700Y-97665300D03*
X77183300Y-97863700D03*
X77669000Y-100572300D03*
X89780900Y-103650100D03*
X69635900Y-86156600D03*
X65261000Y-85616700D03*
X71975000Y-101190100D03*
X76105300Y-88682200D03*
X63775900Y-90988900D03*
X64026900Y-96460500D03*
X54362500Y-91265400D03*
X67017195Y-99701511D03*
X67578300Y-99931379D03*
X66872400Y-100283790D03*
X60956600Y-94765300D03*
X66853100Y-95610900D03*
X64794700Y-94712700D03*
X68741800Y-92535300D03*
X65920000Y-96501600D03*
X64652500Y-97093900D03*
X64987000Y-95815900D03*
X63627300Y-99931379D03*
X81758200Y-99542500D03*
X75547800Y-99429100D03*
X73667300Y-100585100D03*
X82937800Y-86511700D03*
X74471600Y-100468500D03*
X76370100Y-100135300D03*
X64127600Y-88938600D03*
X52430000Y-97043900D03*
D28*
X80230000Y-102220000D02*
X80230000Y-101820000D01*
X80230000Y-101820000D02*
X72530000Y-94120000D01*
X72530000Y-94120000D02*
X72530000Y-93520000D01*
X80230000Y-84220000D02*
X80230000Y-89201000D01*
X80230000Y-89201000D02*
X75911000Y-93520000D01*
X75911000Y-93520000D02*
X72530000Y-93520000D01*
X62230000Y-98935000D02*
X68005000Y-98935000D01*
X70496000Y-98935000D02*
X72530000Y-96901000D01*
X72530000Y-96901000D02*
X72530000Y-93520000D01*
X95360000Y-100305000D02*
X95360000Y-99760000D01*
X84420000Y-82740000D02*
X81310000Y-82740000D01*
X81310000Y-82740000D02*
X80230000Y-83820000D01*
X80230000Y-83820000D02*
X80230000Y-84220000D01*
X68005000Y-98935000D02*
X70496000Y-98935000D01*
X60999000Y-98935000D02*
X62230000Y-98935000D01*
X55920000Y-101220000D02*
X58205000Y-98935000D01*
X58205000Y-98935000D02*
X60795000Y-98935000D01*
X60795000Y-98935000D02*
X60999000Y-98935000D01*
X60795000Y-97455000D02*
X60320005Y-96980005D01*
X60190000Y-95557588D02*
X60070000Y-95677588D01*
X60190000Y-90540000D02*
X60190000Y-95557588D01*
X60320005Y-96980005D02*
X60070006Y-96730006D01*
X60795000Y-98935000D02*
X60795000Y-97455000D01*
D29*
X75150000Y-84220000D02*
X75150000Y-85346500D01*
X74515000Y-85279500D02*
X74582000Y-85346500D01*
X74582000Y-85346500D02*
X75150000Y-85346500D01*
X76420000Y-84220000D02*
X76420000Y-85346500D01*
X75785000Y-85279500D02*
X75852000Y-85346500D01*
X75852000Y-85346500D02*
X76420000Y-85346500D01*
X62377400Y-84112400D02*
X63612400Y-84112400D01*
X63612400Y-84112400D02*
X63720000Y-84220000D01*
X60187500Y-84590000D02*
X61899800Y-84590000D01*
X61899800Y-84590000D02*
X62377400Y-84112400D01*
X86790000Y-103920000D02*
X86790000Y-91502600D01*
X86790000Y-91502600D02*
X82022800Y-86735400D01*
X59328500Y-83231600D02*
X58312500Y-84247600D01*
X58312500Y-84247600D02*
X58312500Y-84590000D01*
X78970000Y-102650000D02*
X79719600Y-103399600D01*
X79719600Y-103399600D02*
X80513300Y-103399600D01*
X80513300Y-103399600D02*
X81195400Y-102717500D01*
X81195400Y-102717500D02*
X81195400Y-86877600D01*
X91620000Y-98904800D02*
X92522700Y-98904800D01*
X92522700Y-98904800D02*
X92557500Y-98870000D01*
X93341100Y-98870000D02*
X95131100Y-97080000D01*
X95131100Y-97080000D02*
X95382500Y-97080000D01*
X92557500Y-98870000D02*
X93341100Y-98870000D01*
X93341100Y-98870000D02*
X93341100Y-102236400D01*
X93341100Y-102236400D02*
X92557500Y-103020000D01*
X78960000Y-101810000D02*
X78960000Y-102220000D01*
X90500000Y-94537500D02*
X89275500Y-94537500D01*
X89275500Y-94537500D02*
X89163600Y-94425600D01*
X71340000Y-102220000D02*
X71340000Y-101093500D01*
X75808600Y-98342800D02*
X74090700Y-98342800D01*
X74090700Y-98342800D02*
X71340000Y-101093500D01*
X89802500Y-87430000D02*
X88407700Y-86035200D01*
X88407700Y-86035200D02*
X81363900Y-86035200D01*
X81363900Y-86035200D02*
X80718900Y-86680200D01*
X80718900Y-86680200D02*
X80718900Y-94328100D01*
X80718900Y-94328100D02*
X77183300Y-97863700D01*
X70070000Y-102220000D02*
X70070000Y-101093500D01*
X74307700Y-97665300D02*
X73498200Y-97665300D01*
X73498200Y-97665300D02*
X70070000Y-101093500D01*
X92820000Y-92662500D02*
X92820000Y-92177000D01*
X97257500Y-97080000D02*
X97136700Y-97080000D01*
X97136700Y-97080000D02*
X92820000Y-92763300D01*
X92820000Y-92763300D02*
X92820000Y-92662500D01*
X92820000Y-92662500D02*
X90500000Y-92662500D01*
X90280000Y-90145000D02*
X88687000Y-91738000D01*
X88687000Y-91738000D02*
X88687000Y-96874500D01*
X88687000Y-96874500D02*
X90682500Y-98870000D01*
X91677500Y-87430000D02*
X91677500Y-88747500D01*
X91677500Y-88747500D02*
X90280000Y-90145000D01*
X88690000Y-105220000D02*
X90462500Y-105220000D01*
X90462500Y-105220000D02*
X90672500Y-105010000D01*
X90672500Y-103650100D02*
X89780900Y-103650100D01*
X90682500Y-103020000D02*
X90682500Y-103640100D01*
X90682500Y-103640100D02*
X90672500Y-103650100D01*
X90672500Y-105010000D02*
X90672500Y-103650100D01*
X77669000Y-100572300D02*
X77690000Y-100593300D01*
X77690000Y-100593300D02*
X77690000Y-102220000D01*
X68800000Y-84220000D02*
X68800000Y-83093500D01*
X68140000Y-81830000D02*
X68140000Y-82781500D01*
X68140000Y-82781500D02*
X68452000Y-83093500D01*
X68452000Y-83093500D02*
X68800000Y-83093500D01*
X68800000Y-84220000D02*
X68800000Y-85346500D01*
X68800000Y-85346500D02*
X68825800Y-85346500D01*
X68825800Y-85346500D02*
X69635900Y-86156600D01*
X65261000Y-85616700D02*
X65260200Y-85616700D01*
X65260200Y-85616700D02*
X64990000Y-85346500D01*
X64990000Y-84220000D02*
X64990000Y-83093500D01*
X66140000Y-81830000D02*
X66140000Y-82781500D01*
X66140000Y-82781500D02*
X65828000Y-83093500D01*
X65828000Y-83093500D02*
X64990000Y-83093500D01*
X64990000Y-84220000D02*
X64990000Y-85346500D01*
X72610000Y-102220000D02*
X72610000Y-101093500D01*
X71975000Y-101190100D02*
X72071600Y-101093500D01*
X72071600Y-101093500D02*
X72610000Y-101093500D01*
X76105300Y-88682200D02*
X78960000Y-85827500D01*
X78960000Y-85827500D02*
X78960000Y-84220000D01*
X64026900Y-96460500D02*
X63775900Y-96209500D01*
X63775900Y-96209500D02*
X63775900Y-90988900D01*
X59367698Y-99702802D02*
X63151099Y-99702802D01*
X54362500Y-91265400D02*
X51953400Y-93674500D01*
X51953400Y-93674500D02*
X51953400Y-98675500D01*
X67806877Y-99455178D02*
X67263528Y-99455178D01*
X67217194Y-99501512D02*
X67017195Y-99701511D01*
X55492700Y-102214800D02*
X56855700Y-102214800D01*
X68800000Y-102220000D02*
X68800000Y-100448301D01*
X51953400Y-98675500D02*
X55492700Y-102214800D01*
X56855700Y-102214800D02*
X59367698Y-99702802D01*
X68800000Y-100448301D02*
X67806877Y-99455178D01*
X63151099Y-99702802D02*
X63398723Y-99455178D01*
X66770862Y-99455178D02*
X66817196Y-99501512D01*
X67263528Y-99455178D02*
X67217194Y-99501512D01*
X63398723Y-99455178D02*
X66770862Y-99455178D01*
X66817196Y-99501512D02*
X67017195Y-99701511D01*
X67530000Y-99979679D02*
X67578300Y-99931379D01*
X67530000Y-102220000D02*
X67530000Y-99979679D01*
X66260000Y-102220000D02*
X66260000Y-100896190D01*
X66672401Y-100483789D02*
X66872400Y-100283790D01*
X66260000Y-100896190D02*
X66672401Y-100483789D01*
X66260000Y-84220000D02*
X66260000Y-85346500D01*
X60956600Y-94765300D02*
X60956600Y-87312800D01*
X60956600Y-87312800D02*
X62140400Y-86129000D01*
X62140400Y-86129000D02*
X65477500Y-86129000D01*
X65477500Y-86129000D02*
X66260000Y-85346500D01*
X73880000Y-84220000D02*
X73880000Y-85346500D01*
X66853100Y-95610900D02*
X66853100Y-92255000D01*
X66853100Y-92255000D02*
X73761600Y-85346500D01*
X73761600Y-85346500D02*
X73880000Y-85346500D01*
X64794700Y-94712700D02*
X64794700Y-88679400D01*
X64794700Y-88679400D02*
X67530000Y-85944100D01*
X67530000Y-85944100D02*
X67530000Y-84220000D01*
X77690000Y-84220000D02*
X77690000Y-85346500D01*
X68741800Y-92535300D02*
X68741800Y-90865200D01*
X68741800Y-90865200D02*
X73415300Y-86191700D01*
X73415300Y-86191700D02*
X76844800Y-86191700D01*
X76844800Y-86191700D02*
X77690000Y-85346500D01*
X65920000Y-96501600D02*
X65920000Y-92689200D01*
X65920000Y-92689200D02*
X71340000Y-87269200D01*
X71340000Y-87269200D02*
X71340000Y-84220000D01*
X63356500Y-88775000D02*
X63356500Y-89113000D01*
X63356500Y-89113000D02*
X64252400Y-90008900D01*
X64252400Y-90008900D02*
X64252400Y-95755200D01*
X64252400Y-95755200D02*
X64652500Y-96155300D01*
X64652500Y-96155300D02*
X64652500Y-97093900D01*
X62230000Y-88775000D02*
X63356500Y-88775000D01*
X70070000Y-85346500D02*
X70137000Y-85413500D01*
X70137000Y-85413500D02*
X70137000Y-86512500D01*
X70137000Y-86512500D02*
X65411400Y-91238100D01*
X65411400Y-91238100D02*
X65411400Y-95391500D01*
X65411400Y-95391500D02*
X64987000Y-95815900D01*
X70070000Y-84220000D02*
X70070000Y-85346500D01*
X63627300Y-100457300D02*
X63627300Y-100214221D01*
X64990000Y-102220000D02*
X64990000Y-101820000D01*
X64990000Y-101820000D02*
X63627300Y-100457300D01*
X63627300Y-100214221D02*
X63627300Y-99931379D01*
X86790000Y-105220000D02*
X85117500Y-105220000D01*
X85117500Y-105220000D02*
X84877500Y-104980000D01*
X81758200Y-99542500D02*
X81758200Y-101860700D01*
X81758200Y-101860700D02*
X84877500Y-104980000D01*
X73667300Y-100585100D02*
X74823300Y-99429100D01*
X74823300Y-99429100D02*
X75547800Y-99429100D01*
X67593500Y-104560000D02*
X68370000Y-104560000D01*
X66817000Y-103783500D02*
X67593500Y-104560000D01*
X63329500Y-103783500D02*
X66817000Y-103783500D01*
X62283000Y-104830000D02*
X63329500Y-103783500D01*
X57609000Y-104830000D02*
X62283000Y-104830000D01*
X51579200Y-98800200D02*
X57609000Y-104830000D01*
X51579200Y-92196000D02*
X51579200Y-98800200D01*
X56327900Y-88220000D02*
X55555200Y-88220000D01*
X55555200Y-88220000D02*
X51579200Y-92196000D01*
X59250000Y-85297900D02*
X56327900Y-88220000D01*
X60537100Y-82781500D02*
X59250000Y-84068600D01*
X62593900Y-82781500D02*
X60537100Y-82781500D01*
X63188500Y-81830000D02*
X63188500Y-82186900D01*
X63188500Y-82186900D02*
X62593900Y-82781500D01*
X64140000Y-81830000D02*
X63188500Y-81830000D01*
X59250000Y-84068600D02*
X59250000Y-85297900D01*
X82937800Y-86511700D02*
X87391600Y-90965500D01*
X87391600Y-90965500D02*
X87391600Y-97056900D01*
X87391600Y-97056900D02*
X90244700Y-99910000D01*
X90244700Y-99910000D02*
X91193100Y-99910000D01*
X91193100Y-99910000D02*
X91978700Y-100695600D01*
X91978700Y-100695600D02*
X91978700Y-100950000D01*
X91978700Y-100950000D02*
X91978700Y-101094700D01*
X91978700Y-101094700D02*
X91088400Y-101985000D01*
X91088400Y-101985000D02*
X90266100Y-101985000D01*
X90266100Y-101985000D02*
X89291500Y-102959600D01*
X89291500Y-102959600D02*
X89291500Y-103920000D01*
X91978700Y-100950000D02*
X92557500Y-100950000D01*
X88690000Y-103920000D02*
X89291500Y-103920000D01*
X51205700Y-88146500D02*
X51205700Y-98925084D01*
X55192200Y-84160000D02*
X51205700Y-88146500D01*
X51205700Y-98925084D02*
X57463027Y-105182411D01*
X61182200Y-80872200D02*
X59750100Y-80872200D01*
X62140000Y-81830000D02*
X61182200Y-80872200D01*
X64170001Y-105059999D02*
X64670000Y-104560000D01*
X59750100Y-80872200D02*
X59188400Y-81433900D01*
X59188400Y-82169300D02*
X57197700Y-84160000D01*
X57197700Y-84160000D02*
X55192200Y-84160000D01*
X59188400Y-81433900D02*
X59188400Y-82169300D01*
X57463027Y-105182411D02*
X64047589Y-105182411D01*
X64047589Y-105182411D02*
X64170001Y-105059999D01*
X86790000Y-104570000D02*
X87391500Y-104570000D01*
X87391500Y-104570000D02*
X87391500Y-104241000D01*
X87391500Y-104241000D02*
X90682500Y-100950000D01*
X88690000Y-104570000D02*
X88088500Y-104570000D01*
X88088500Y-104570000D02*
X88088500Y-104854100D01*
X88088500Y-104854100D02*
X86984800Y-105957800D01*
X86984800Y-105957800D02*
X83980300Y-105957800D01*
X83980300Y-105957800D02*
X83002500Y-104980000D01*
X74488300Y-100485200D02*
X74471600Y-100468500D01*
X76370100Y-100135300D02*
X76020200Y-100485200D01*
X76020200Y-100485200D02*
X74488300Y-100485200D01*
X74488300Y-100485200D02*
X73880000Y-101093500D01*
X73880000Y-102220000D02*
X73880000Y-101093500D01*
X62230000Y-87505000D02*
X63356500Y-87505000D01*
X64127600Y-88938600D02*
X63356500Y-88167500D01*
X63356500Y-88167500D02*
X63356500Y-87505000D01*
X52629999Y-96843901D02*
X52430000Y-97043900D01*
X53270108Y-96203792D02*
X52629999Y-96843901D01*
X60368792Y-96203792D02*
X53270108Y-96203792D01*
X61830000Y-97665000D02*
X60368792Y-96203792D01*
X62230000Y-97665000D02*
X61830000Y-97665000D01*
D30*
G36*
X70749552Y-103210448D02*
G01*
X70876088Y-103314294D01*
X71020452Y-103391458D01*
X71101225Y-103415960D01*
X71099875Y-103420410D01*
X71092036Y-103500000D01*
X71094001Y-103519951D01*
X71094000Y-106094000D01*
X54801677Y-106094000D01*
X54986608Y-105737229D01*
X55000284Y-105703039D01*
X55014414Y-105669092D01*
X55016032Y-105663666D01*
X55016035Y-105663659D01*
X55016036Y-105663652D01*
X55170041Y-105133565D01*
X55176809Y-105097399D01*
X55184083Y-105061324D01*
X55184617Y-105055680D01*
X55232728Y-104505768D01*
X55232343Y-104468959D01*
X55232471Y-104432176D01*
X55231899Y-104426546D01*
X55231899Y-104426535D01*
X55231897Y-104426525D01*
X55172281Y-103877752D01*
X55164755Y-103841724D01*
X55157735Y-103805611D01*
X55156078Y-103800190D01*
X55029128Y-103395090D01*
X57123862Y-105489825D01*
X57138174Y-105507264D01*
X57155613Y-105521576D01*
X57155619Y-105521582D01*
X57207791Y-105564398D01*
X57287217Y-105606852D01*
X57307276Y-105612937D01*
X57373400Y-105632996D01*
X57440567Y-105639611D01*
X57440577Y-105639611D01*
X57463027Y-105641822D01*
X57485477Y-105639611D01*
X64025139Y-105639611D01*
X64047589Y-105641822D01*
X64070039Y-105639611D01*
X64070049Y-105639611D01*
X64137216Y-105632996D01*
X64223398Y-105606852D01*
X64302825Y-105564398D01*
X64372442Y-105507264D01*
X64386762Y-105489815D01*
X64459723Y-105416855D01*
X64497294Y-105428252D01*
X64626727Y-105441000D01*
X64713273Y-105441000D01*
X64842706Y-105428252D01*
X64906477Y-105408907D01*
X64909463Y-105414494D01*
X64988815Y-105511185D01*
X65085506Y-105590537D01*
X65195820Y-105649502D01*
X65315518Y-105685812D01*
X65440000Y-105698072D01*
X65654250Y-105695000D01*
X65813000Y-105536250D01*
X65813000Y-104687000D01*
X65793000Y-104687000D01*
X65793000Y-104433000D01*
X65813000Y-104433000D01*
X65813000Y-104413000D01*
X66067000Y-104413000D01*
X66067000Y-104433000D01*
X66087000Y-104433000D01*
X66087000Y-104687000D01*
X66067000Y-104687000D01*
X66067000Y-105536250D01*
X66225750Y-105695000D01*
X66440000Y-105698072D01*
X66564482Y-105685812D01*
X66684180Y-105649502D01*
X66794494Y-105590537D01*
X66891185Y-105511185D01*
X66970537Y-105414494D01*
X67029502Y-105304180D01*
X67065812Y-105184482D01*
X67078072Y-105060000D01*
X67075000Y-104845750D01*
X66916252Y-104687002D01*
X67073924Y-104687002D01*
X67254330Y-104867408D01*
X67268647Y-104884853D01*
X67338264Y-104941987D01*
X67417691Y-104984441D01*
X67503873Y-105010585D01*
X67571040Y-105017200D01*
X67571050Y-105017200D01*
X67593500Y-105019411D01*
X67615451Y-105017249D01*
X67633932Y-105051825D01*
X67744025Y-105185975D01*
X67878175Y-105296068D01*
X68031225Y-105377875D01*
X68197294Y-105428252D01*
X68326727Y-105441000D01*
X68413273Y-105441000D01*
X68542706Y-105428252D01*
X68606477Y-105408907D01*
X68609463Y-105414494D01*
X68688815Y-105511185D01*
X68785506Y-105590537D01*
X68895820Y-105649502D01*
X69015518Y-105685812D01*
X69140000Y-105698072D01*
X69354250Y-105695000D01*
X69513000Y-105536250D01*
X69513000Y-104687000D01*
X69767000Y-104687000D01*
X69767000Y-105536250D01*
X69925750Y-105695000D01*
X70140000Y-105698072D01*
X70264482Y-105685812D01*
X70384180Y-105649502D01*
X70494494Y-105590537D01*
X70591185Y-105511185D01*
X70670537Y-105414494D01*
X70729502Y-105304180D01*
X70765812Y-105184482D01*
X70778072Y-105060000D01*
X70775000Y-104845750D01*
X70616250Y-104687000D01*
X69767000Y-104687000D01*
X69513000Y-104687000D01*
X69493000Y-104687000D01*
X69493000Y-104433000D01*
X69513000Y-104433000D01*
X69513000Y-103583750D01*
X69354250Y-103425000D01*
X69140000Y-103421928D01*
X69015518Y-103434188D01*
X68895820Y-103470498D01*
X68785506Y-103529463D01*
X68688815Y-103608815D01*
X68609463Y-103705506D01*
X68606477Y-103711093D01*
X68542706Y-103691748D01*
X68413273Y-103679000D01*
X68326727Y-103679000D01*
X68197294Y-103691748D01*
X68031225Y-103742125D01*
X67878175Y-103823932D01*
X67744025Y-103934025D01*
X67685462Y-104005385D01*
X67156174Y-103476097D01*
X67141853Y-103458647D01*
X67072236Y-103401513D01*
X66992809Y-103359059D01*
X66906627Y-103332915D01*
X66839460Y-103326300D01*
X66839450Y-103326300D01*
X66817000Y-103324089D01*
X66794550Y-103326300D01*
X66701449Y-103326300D01*
X66723911Y-103314294D01*
X66850448Y-103210448D01*
X66895000Y-103156161D01*
X66939552Y-103210448D01*
X67066088Y-103314294D01*
X67210452Y-103391458D01*
X67367096Y-103438975D01*
X67530000Y-103455020D01*
X67692903Y-103438975D01*
X67849547Y-103391458D01*
X67993911Y-103314294D01*
X68120448Y-103210448D01*
X68165000Y-103156161D01*
X68209552Y-103210448D01*
X68336088Y-103314294D01*
X68480452Y-103391458D01*
X68637096Y-103438975D01*
X68800000Y-103455020D01*
X68962903Y-103438975D01*
X69119547Y-103391458D01*
X69263911Y-103314294D01*
X69390448Y-103210448D01*
X69435000Y-103156161D01*
X69479552Y-103210448D01*
X69606088Y-103314294D01*
X69750452Y-103391458D01*
X69907096Y-103438975D01*
X69911355Y-103439395D01*
X69767000Y-103583750D01*
X69767000Y-104433000D01*
X70616250Y-104433000D01*
X70775000Y-104274250D01*
X70778072Y-104060000D01*
X70765812Y-103935518D01*
X70729502Y-103815820D01*
X70670537Y-103705506D01*
X70591185Y-103608815D01*
X70494494Y-103529463D01*
X70384180Y-103470498D01*
X70264482Y-103434188D01*
X70252556Y-103433013D01*
X70389547Y-103391458D01*
X70533911Y-103314294D01*
X70660448Y-103210448D01*
X70705000Y-103156161D01*
X70749552Y-103210448D01*
X70749552Y-103210448D01*
G37*
X70749552Y-103210448D02*
X70876088Y-103314294D01*
X71020452Y-103391458D01*
X71101225Y-103415960D01*
X71099875Y-103420410D01*
X71092036Y-103500000D01*
X71094001Y-103519951D01*
X71094000Y-106094000D01*
X54801677Y-106094000D01*
X54986608Y-105737229D01*
X55000284Y-105703039D01*
X55014414Y-105669092D01*
X55016032Y-105663666D01*
X55016035Y-105663659D01*
X55016036Y-105663652D01*
X55170041Y-105133565D01*
X55176809Y-105097399D01*
X55184083Y-105061324D01*
X55184617Y-105055680D01*
X55232728Y-104505768D01*
X55232343Y-104468959D01*
X55232471Y-104432176D01*
X55231899Y-104426546D01*
X55231899Y-104426535D01*
X55231897Y-104426525D01*
X55172281Y-103877752D01*
X55164755Y-103841724D01*
X55157735Y-103805611D01*
X55156078Y-103800190D01*
X55029128Y-103395090D01*
X57123862Y-105489825D01*
X57138174Y-105507264D01*
X57155613Y-105521576D01*
X57155619Y-105521582D01*
X57207791Y-105564398D01*
X57287217Y-105606852D01*
X57307276Y-105612937D01*
X57373400Y-105632996D01*
X57440567Y-105639611D01*
X57440577Y-105639611D01*
X57463027Y-105641822D01*
X57485477Y-105639611D01*
X64025139Y-105639611D01*
X64047589Y-105641822D01*
X64070039Y-105639611D01*
X64070049Y-105639611D01*
X64137216Y-105632996D01*
X64223398Y-105606852D01*
X64302825Y-105564398D01*
X64372442Y-105507264D01*
X64386762Y-105489815D01*
X64459723Y-105416855D01*
X64497294Y-105428252D01*
X64626727Y-105441000D01*
X64713273Y-105441000D01*
X64842706Y-105428252D01*
X64906477Y-105408907D01*
X64909463Y-105414494D01*
X64988815Y-105511185D01*
X65085506Y-105590537D01*
X65195820Y-105649502D01*
X65315518Y-105685812D01*
X65440000Y-105698072D01*
X65654250Y-105695000D01*
X65813000Y-105536250D01*
X65813000Y-104687000D01*
X65793000Y-104687000D01*
X65793000Y-104433000D01*
X65813000Y-104433000D01*
X65813000Y-104413000D01*
X66067000Y-104413000D01*
X66067000Y-104433000D01*
X66087000Y-104433000D01*
X66087000Y-104687000D01*
X66067000Y-104687000D01*
X66067000Y-105536250D01*
X66225750Y-105695000D01*
X66440000Y-105698072D01*
X66564482Y-105685812D01*
X66684180Y-105649502D01*
X66794494Y-105590537D01*
X66891185Y-105511185D01*
X66970537Y-105414494D01*
X67029502Y-105304180D01*
X67065812Y-105184482D01*
X67078072Y-105060000D01*
X67075000Y-104845750D01*
X66916252Y-104687002D01*
X67073924Y-104687002D01*
X67254330Y-104867408D01*
X67268647Y-104884853D01*
X67338264Y-104941987D01*
X67417691Y-104984441D01*
X67503873Y-105010585D01*
X67571040Y-105017200D01*
X67571050Y-105017200D01*
X67593500Y-105019411D01*
X67615451Y-105017249D01*
X67633932Y-105051825D01*
X67744025Y-105185975D01*
X67878175Y-105296068D01*
X68031225Y-105377875D01*
X68197294Y-105428252D01*
X68326727Y-105441000D01*
X68413273Y-105441000D01*
X68542706Y-105428252D01*
X68606477Y-105408907D01*
X68609463Y-105414494D01*
X68688815Y-105511185D01*
X68785506Y-105590537D01*
X68895820Y-105649502D01*
X69015518Y-105685812D01*
X69140000Y-105698072D01*
X69354250Y-105695000D01*
X69513000Y-105536250D01*
X69513000Y-104687000D01*
X69767000Y-104687000D01*
X69767000Y-105536250D01*
X69925750Y-105695000D01*
X70140000Y-105698072D01*
X70264482Y-105685812D01*
X70384180Y-105649502D01*
X70494494Y-105590537D01*
X70591185Y-105511185D01*
X70670537Y-105414494D01*
X70729502Y-105304180D01*
X70765812Y-105184482D01*
X70778072Y-105060000D01*
X70775000Y-104845750D01*
X70616250Y-104687000D01*
X69767000Y-104687000D01*
X69513000Y-104687000D01*
X69493000Y-104687000D01*
X69493000Y-104433000D01*
X69513000Y-104433000D01*
X69513000Y-103583750D01*
X69354250Y-103425000D01*
X69140000Y-103421928D01*
X69015518Y-103434188D01*
X68895820Y-103470498D01*
X68785506Y-103529463D01*
X68688815Y-103608815D01*
X68609463Y-103705506D01*
X68606477Y-103711093D01*
X68542706Y-103691748D01*
X68413273Y-103679000D01*
X68326727Y-103679000D01*
X68197294Y-103691748D01*
X68031225Y-103742125D01*
X67878175Y-103823932D01*
X67744025Y-103934025D01*
X67685462Y-104005385D01*
X67156174Y-103476097D01*
X67141853Y-103458647D01*
X67072236Y-103401513D01*
X66992809Y-103359059D01*
X66906627Y-103332915D01*
X66839460Y-103326300D01*
X66839450Y-103326300D01*
X66817000Y-103324089D01*
X66794550Y-103326300D01*
X66701449Y-103326300D01*
X66723911Y-103314294D01*
X66850448Y-103210448D01*
X66895000Y-103156161D01*
X66939552Y-103210448D01*
X67066088Y-103314294D01*
X67210452Y-103391458D01*
X67367096Y-103438975D01*
X67530000Y-103455020D01*
X67692903Y-103438975D01*
X67849547Y-103391458D01*
X67993911Y-103314294D01*
X68120448Y-103210448D01*
X68165000Y-103156161D01*
X68209552Y-103210448D01*
X68336088Y-103314294D01*
X68480452Y-103391458D01*
X68637096Y-103438975D01*
X68800000Y-103455020D01*
X68962903Y-103438975D01*
X69119547Y-103391458D01*
X69263911Y-103314294D01*
X69390448Y-103210448D01*
X69435000Y-103156161D01*
X69479552Y-103210448D01*
X69606088Y-103314294D01*
X69750452Y-103391458D01*
X69907096Y-103438975D01*
X69911355Y-103439395D01*
X69767000Y-103583750D01*
X69767000Y-104433000D01*
X70616250Y-104433000D01*
X70775000Y-104274250D01*
X70778072Y-104060000D01*
X70765812Y-103935518D01*
X70729502Y-103815820D01*
X70670537Y-103705506D01*
X70591185Y-103608815D01*
X70494494Y-103529463D01*
X70384180Y-103470498D01*
X70264482Y-103434188D01*
X70252556Y-103433013D01*
X70389547Y-103391458D01*
X70533911Y-103314294D01*
X70660448Y-103210448D01*
X70705000Y-103156161D01*
X70749552Y-103210448D01*
G36*
X95013393Y-80762772D02*
G01*
X94999717Y-80796963D01*
X94985587Y-80830909D01*
X94983969Y-80836336D01*
X94983966Y-80836343D01*
X94983965Y-80836350D01*
X94829960Y-81366436D01*
X94823190Y-81402608D01*
X94815918Y-81438677D01*
X94815384Y-81444321D01*
X94767273Y-81994234D01*
X94767658Y-82031010D01*
X94767530Y-82067827D01*
X94768103Y-82073467D01*
X94827720Y-82622250D01*
X94835248Y-82658285D01*
X94842266Y-82694391D01*
X94843923Y-82699812D01*
X95008997Y-83226565D01*
X95023373Y-83260432D01*
X95037279Y-83294508D01*
X95039958Y-83299504D01*
X95304202Y-83784161D01*
X95324903Y-83814622D01*
X95345142Y-83845315D01*
X95348736Y-83849691D01*
X95348740Y-83849697D01*
X95348745Y-83849702D01*
X95702088Y-84273798D01*
X95728305Y-84299653D01*
X95754127Y-84325837D01*
X95758501Y-84329430D01*
X95758506Y-84329435D01*
X95758511Y-84329439D01*
X95906577Y-84449340D01*
X95645750Y-84450000D01*
X95487000Y-84608750D01*
X95487000Y-86208000D01*
X97336250Y-86208000D01*
X97495000Y-86049250D01*
X97497744Y-85187809D01*
X97971665Y-85232608D01*
X98008482Y-85232480D01*
X98045258Y-85232865D01*
X98050902Y-85232332D01*
X98600088Y-85176548D01*
X98636194Y-85169268D01*
X98672329Y-85162505D01*
X98677762Y-85160886D01*
X99205654Y-84999493D01*
X99239650Y-84985341D01*
X99273791Y-84971686D01*
X99278807Y-84969042D01*
X99594000Y-84800037D01*
X99594001Y-101698326D01*
X99237228Y-101513393D01*
X99203037Y-101499717D01*
X99169091Y-101485587D01*
X99163664Y-101483969D01*
X99163657Y-101483966D01*
X99163650Y-101483965D01*
X98633564Y-101329960D01*
X98597392Y-101323190D01*
X98561323Y-101315918D01*
X98555679Y-101315384D01*
X98005766Y-101267273D01*
X97968990Y-101267658D01*
X97932174Y-101267530D01*
X97926533Y-101268103D01*
X97497307Y-101314732D01*
X97495000Y-100590750D01*
X97336250Y-100432000D01*
X95487000Y-100432000D01*
X95487000Y-102031250D01*
X95645750Y-102190000D01*
X95740423Y-102190240D01*
X95726202Y-102202088D01*
X95700347Y-102228305D01*
X95674163Y-102254127D01*
X95670570Y-102258501D01*
X95670565Y-102258506D01*
X95670561Y-102258511D01*
X95323173Y-102687501D01*
X95302905Y-102718239D01*
X95282234Y-102748656D01*
X95279554Y-102753652D01*
X95022103Y-103241952D01*
X95008194Y-103276036D01*
X94993822Y-103309894D01*
X94992164Y-103315315D01*
X94834460Y-103844321D01*
X94827440Y-103880435D01*
X94819914Y-103916463D01*
X94819341Y-103922103D01*
X94767392Y-104471665D01*
X94767520Y-104508482D01*
X94767135Y-104545258D01*
X94767668Y-104550902D01*
X94823452Y-105100088D01*
X94830732Y-105136194D01*
X94837495Y-105172329D01*
X94839114Y-105177762D01*
X95000507Y-105705654D01*
X95014659Y-105739650D01*
X95028314Y-105773791D01*
X95030958Y-105778807D01*
X95199963Y-106094000D01*
X93541322Y-106094000D01*
X93565537Y-106064494D01*
X93624502Y-105954180D01*
X93660812Y-105834482D01*
X93673072Y-105710000D01*
X93670000Y-105295750D01*
X93511250Y-105137000D01*
X92674500Y-105137000D01*
X92674500Y-105157000D01*
X92420500Y-105157000D01*
X92420500Y-105137000D01*
X92400500Y-105137000D01*
X92400500Y-104883000D01*
X92420500Y-104883000D01*
X92420500Y-104863000D01*
X92674500Y-104863000D01*
X92674500Y-104883000D01*
X93511250Y-104883000D01*
X93670000Y-104724250D01*
X93673072Y-104310000D01*
X93660812Y-104185518D01*
X93624502Y-104065820D01*
X93565537Y-103955506D01*
X93486185Y-103858815D01*
X93389494Y-103779463D01*
X93355855Y-103761482D01*
X93380146Y-103716037D01*
X93415803Y-103598492D01*
X93427843Y-103476250D01*
X93427843Y-102796235D01*
X93648513Y-102575565D01*
X93665953Y-102561253D01*
X93680265Y-102543814D01*
X93680271Y-102543808D01*
X93723087Y-102491636D01*
X93765541Y-102412210D01*
X93778315Y-102370099D01*
X93791685Y-102326027D01*
X93798300Y-102258860D01*
X93798300Y-102258850D01*
X93800511Y-102236400D01*
X93798300Y-102213950D01*
X93798300Y-102186995D01*
X93860000Y-102193072D01*
X95074250Y-102190000D01*
X95233000Y-102031250D01*
X95233000Y-100432000D01*
X95213000Y-100432000D01*
X95213000Y-100178000D01*
X95233000Y-100178000D01*
X95233000Y-98578750D01*
X95487000Y-98578750D01*
X95487000Y-100178000D01*
X97336250Y-100178000D01*
X97495000Y-100019250D01*
X97498072Y-99055000D01*
X97485812Y-98930518D01*
X97449502Y-98810820D01*
X97390537Y-98700506D01*
X97311185Y-98603815D01*
X97214494Y-98524463D01*
X97104180Y-98465498D01*
X96984482Y-98429188D01*
X96860000Y-98416928D01*
X95645750Y-98420000D01*
X95487000Y-98578750D01*
X95233000Y-98578750D01*
X95074250Y-98420000D01*
X94439284Y-98418394D01*
X94797021Y-98060657D01*
X94898963Y-98115146D01*
X95016508Y-98150803D01*
X95138750Y-98162843D01*
X95626250Y-98162843D01*
X95748492Y-98150803D01*
X95866037Y-98115146D01*
X95974366Y-98057243D01*
X96069318Y-97979318D01*
X96147243Y-97884366D01*
X96205146Y-97776037D01*
X96240803Y-97658492D01*
X96252843Y-97536250D01*
X96252843Y-96842722D01*
X96387157Y-96977036D01*
X96387157Y-97536250D01*
X96399197Y-97658492D01*
X96434854Y-97776037D01*
X96492757Y-97884366D01*
X96570682Y-97979318D01*
X96665634Y-98057243D01*
X96773963Y-98115146D01*
X96891508Y-98150803D01*
X97013750Y-98162843D01*
X97501250Y-98162843D01*
X97623492Y-98150803D01*
X97741037Y-98115146D01*
X97849366Y-98057243D01*
X97944318Y-97979318D01*
X98022243Y-97884366D01*
X98080146Y-97776037D01*
X98115803Y-97658492D01*
X98127843Y-97536250D01*
X98127843Y-96623750D01*
X98115803Y-96501508D01*
X98080146Y-96383963D01*
X98022243Y-96275634D01*
X97944318Y-96180682D01*
X97849366Y-96102757D01*
X97741037Y-96044854D01*
X97623492Y-96009197D01*
X97501250Y-95997157D01*
X97013750Y-95997157D01*
X96891508Y-96009197D01*
X96773963Y-96044854D01*
X96757130Y-96053851D01*
X95906121Y-95202843D01*
X97817800Y-95202843D01*
X97892489Y-95195487D01*
X97964308Y-95173701D01*
X98030496Y-95138322D01*
X98088511Y-95090711D01*
X98136122Y-95032696D01*
X98171501Y-94966508D01*
X98193287Y-94894689D01*
X98200643Y-94820000D01*
X98200643Y-91820000D01*
X98193287Y-91745311D01*
X98171501Y-91673492D01*
X98136122Y-91607304D01*
X98088511Y-91549289D01*
X98030496Y-91501678D01*
X97964308Y-91466299D01*
X97892489Y-91444513D01*
X97817800Y-91437157D01*
X95317800Y-91437157D01*
X95243111Y-91444513D01*
X95171292Y-91466299D01*
X95105104Y-91501678D01*
X95047089Y-91549289D01*
X94999478Y-91607304D01*
X94964099Y-91673492D01*
X94942313Y-91745311D01*
X94934957Y-91820000D01*
X94934957Y-94231679D01*
X93649876Y-92946599D01*
X93698505Y-92897970D01*
X93822279Y-92712729D01*
X93907536Y-92506900D01*
X93951000Y-92288394D01*
X93951000Y-92065606D01*
X93907536Y-91847100D01*
X93822279Y-91641271D01*
X93698505Y-91456030D01*
X93542943Y-91300468D01*
X93597388Y-91101993D01*
X92820000Y-90324605D01*
X92042612Y-91101993D01*
X92097057Y-91300468D01*
X91941495Y-91456030D01*
X91817721Y-91641271D01*
X91732464Y-91847100D01*
X91689000Y-92065606D01*
X91689000Y-92205300D01*
X91543135Y-92205300D01*
X91535146Y-92178963D01*
X91477243Y-92070634D01*
X91399318Y-91975682D01*
X91304366Y-91897757D01*
X91196037Y-91839854D01*
X91078492Y-91804197D01*
X90956250Y-91792157D01*
X90043750Y-91792157D01*
X89921508Y-91804197D01*
X89803963Y-91839854D01*
X89695634Y-91897757D01*
X89600682Y-91975682D01*
X89522757Y-92070634D01*
X89464854Y-92178963D01*
X89429197Y-92296508D01*
X89417157Y-92418750D01*
X89417157Y-92906250D01*
X89429197Y-93028492D01*
X89464854Y-93146037D01*
X89522757Y-93254366D01*
X89600682Y-93349318D01*
X89695634Y-93427243D01*
X89803963Y-93485146D01*
X89921508Y-93520803D01*
X90043750Y-93532843D01*
X90956250Y-93532843D01*
X91078492Y-93520803D01*
X91196037Y-93485146D01*
X91304366Y-93427243D01*
X91399318Y-93349318D01*
X91477243Y-93254366D01*
X91535146Y-93146037D01*
X91543135Y-93119700D01*
X92195105Y-93119700D01*
X92284271Y-93179279D01*
X92470699Y-93256500D01*
X92284271Y-93333721D01*
X92099030Y-93457495D01*
X91941495Y-93615030D01*
X91817721Y-93800271D01*
X91732464Y-94006100D01*
X91689000Y-94224606D01*
X91689000Y-94447394D01*
X91732464Y-94665900D01*
X91817721Y-94871729D01*
X91941495Y-95056970D01*
X92099030Y-95214505D01*
X92284271Y-95338279D01*
X92470699Y-95415500D01*
X92284271Y-95492721D01*
X92099030Y-95616495D01*
X91941495Y-95774030D01*
X91817721Y-95959271D01*
X91732464Y-96165100D01*
X91689000Y-96383606D01*
X91689000Y-96606394D01*
X91732464Y-96824900D01*
X91817721Y-97030729D01*
X91941495Y-97215970D01*
X92099030Y-97373505D01*
X92284271Y-97497279D01*
X92490100Y-97582536D01*
X92708606Y-97626000D01*
X92931394Y-97626000D01*
X93149900Y-97582536D01*
X93355729Y-97497279D01*
X93540970Y-97373505D01*
X93698505Y-97215970D01*
X93822279Y-97030729D01*
X93907536Y-96824900D01*
X93951000Y-96606394D01*
X93951000Y-96383606D01*
X93907536Y-96165100D01*
X93822279Y-95959271D01*
X93698505Y-95774030D01*
X93540970Y-95616495D01*
X93355729Y-95492721D01*
X93169301Y-95415500D01*
X93355729Y-95338279D01*
X93540970Y-95214505D01*
X93698505Y-95056970D01*
X93822279Y-94871729D01*
X93907536Y-94665900D01*
X93935490Y-94525368D01*
X95407279Y-95997157D01*
X95138750Y-95997157D01*
X95016508Y-96009197D01*
X94898963Y-96044854D01*
X94790634Y-96102757D01*
X94695682Y-96180682D01*
X94617757Y-96275634D01*
X94559854Y-96383963D01*
X94524197Y-96501508D01*
X94512157Y-96623750D01*
X94512157Y-97052365D01*
X93382570Y-98181953D01*
X93380146Y-98173963D01*
X93322243Y-98065634D01*
X93244318Y-97970682D01*
X93149366Y-97892757D01*
X93041037Y-97834854D01*
X92923492Y-97799197D01*
X92801250Y-97787157D01*
X92313750Y-97787157D01*
X92191508Y-97799197D01*
X92073963Y-97834854D01*
X91965634Y-97892757D01*
X91870682Y-97970682D01*
X91792757Y-98065634D01*
X91734854Y-98173963D01*
X91699197Y-98291508D01*
X91695655Y-98327466D01*
X91677223Y-98323800D01*
X91562777Y-98323800D01*
X91544345Y-98327466D01*
X91540803Y-98291508D01*
X91505146Y-98173963D01*
X91447243Y-98065634D01*
X91369318Y-97970682D01*
X91274366Y-97892757D01*
X91166037Y-97834854D01*
X91048492Y-97799197D01*
X90926250Y-97787157D01*
X90438750Y-97787157D01*
X90316508Y-97799197D01*
X90271828Y-97812751D01*
X90064337Y-97605259D01*
X90168606Y-97626000D01*
X90391394Y-97626000D01*
X90609900Y-97582536D01*
X90815729Y-97497279D01*
X91000970Y-97373505D01*
X91158505Y-97215970D01*
X91282279Y-97030729D01*
X91367536Y-96824900D01*
X91411000Y-96606394D01*
X91411000Y-96383606D01*
X91367536Y-96165100D01*
X91282279Y-95959271D01*
X91158505Y-95774030D01*
X91000970Y-95616495D01*
X90815729Y-95492721D01*
X90610815Y-95407843D01*
X90956250Y-95407843D01*
X91078492Y-95395803D01*
X91196037Y-95360146D01*
X91304366Y-95302243D01*
X91399318Y-95224318D01*
X91477243Y-95129366D01*
X91535146Y-95021037D01*
X91570803Y-94903492D01*
X91582843Y-94781250D01*
X91582843Y-94293750D01*
X91570803Y-94171508D01*
X91535146Y-94053963D01*
X91477243Y-93945634D01*
X91399318Y-93850682D01*
X91304366Y-93772757D01*
X91196037Y-93714854D01*
X91078492Y-93679197D01*
X90956250Y-93667157D01*
X90043750Y-93667157D01*
X89921508Y-93679197D01*
X89803963Y-93714854D01*
X89695634Y-93772757D01*
X89600682Y-93850682D01*
X89522757Y-93945634D01*
X89514414Y-93961244D01*
X89438807Y-93910725D01*
X89333071Y-93866928D01*
X89220823Y-93844600D01*
X89144200Y-93844600D01*
X89144200Y-91927377D01*
X89871570Y-91200008D01*
X89950100Y-91232536D01*
X90168606Y-91276000D01*
X90391394Y-91276000D01*
X90609900Y-91232536D01*
X90815729Y-91147279D01*
X91000970Y-91023505D01*
X91158505Y-90865970D01*
X91282279Y-90680729D01*
X91367536Y-90474900D01*
X91411000Y-90256394D01*
X91411000Y-90033606D01*
X91367536Y-89815100D01*
X91335008Y-89736570D01*
X91611495Y-89460082D01*
X91508240Y-89680116D01*
X91442750Y-89944960D01*
X91430188Y-90217492D01*
X91471035Y-90487238D01*
X91563723Y-90743832D01*
X91624140Y-90856863D01*
X91863007Y-90922388D01*
X92640395Y-90145000D01*
X92999605Y-90145000D01*
X93776993Y-90922388D01*
X94015860Y-90856863D01*
X94131760Y-90609884D01*
X94197250Y-90345040D01*
X94209812Y-90072508D01*
X94168965Y-89802762D01*
X94076277Y-89546168D01*
X94015860Y-89433137D01*
X93776993Y-89367612D01*
X92999605Y-90145000D01*
X92640395Y-90145000D01*
X92626253Y-90130858D01*
X92805858Y-89951253D01*
X92820000Y-89965395D01*
X93597388Y-89188007D01*
X93531863Y-88949140D01*
X93284884Y-88833240D01*
X93020040Y-88767750D01*
X92747508Y-88755188D01*
X92477762Y-88796035D01*
X92221168Y-88888723D01*
X92108137Y-88949140D01*
X92042613Y-89188005D01*
X91963093Y-89108485D01*
X91984908Y-89086670D01*
X92002353Y-89072353D01*
X92042550Y-89023374D01*
X92059487Y-89002737D01*
X92082178Y-88960283D01*
X92101941Y-88923309D01*
X92128085Y-88837127D01*
X92134700Y-88769960D01*
X92134700Y-88769951D01*
X92136911Y-88747501D01*
X92134700Y-88725051D01*
X92134700Y-88473135D01*
X92161037Y-88465146D01*
X92269366Y-88407243D01*
X92364318Y-88329318D01*
X92442243Y-88234366D01*
X92500146Y-88126037D01*
X92535803Y-88008492D01*
X92547843Y-87886250D01*
X92547843Y-87585000D01*
X93221928Y-87585000D01*
X93234188Y-87709482D01*
X93270498Y-87829180D01*
X93329463Y-87939494D01*
X93408815Y-88036185D01*
X93505506Y-88115537D01*
X93615820Y-88174502D01*
X93735518Y-88210812D01*
X93860000Y-88223072D01*
X95074250Y-88220000D01*
X95233000Y-88061250D01*
X95233000Y-86462000D01*
X95487000Y-86462000D01*
X95487000Y-88061250D01*
X95645750Y-88220000D01*
X96860000Y-88223072D01*
X96984482Y-88210812D01*
X97104180Y-88174502D01*
X97214494Y-88115537D01*
X97311185Y-88036185D01*
X97390537Y-87939494D01*
X97449502Y-87829180D01*
X97485812Y-87709482D01*
X97498072Y-87585000D01*
X97495000Y-86620750D01*
X97336250Y-86462000D01*
X95487000Y-86462000D01*
X95233000Y-86462000D01*
X93383750Y-86462000D01*
X93225000Y-86620750D01*
X93221928Y-87585000D01*
X92547843Y-87585000D01*
X92547843Y-86973750D01*
X92535803Y-86851508D01*
X92500146Y-86733963D01*
X92442243Y-86625634D01*
X92364318Y-86530682D01*
X92269366Y-86452757D01*
X92161037Y-86394854D01*
X92043492Y-86359197D01*
X91921250Y-86347157D01*
X91433750Y-86347157D01*
X91311508Y-86359197D01*
X91193963Y-86394854D01*
X91085634Y-86452757D01*
X90990682Y-86530682D01*
X90912757Y-86625634D01*
X90854854Y-86733963D01*
X90819197Y-86851508D01*
X90807157Y-86973750D01*
X90807157Y-87886250D01*
X90819197Y-88008492D01*
X90854854Y-88126037D01*
X90912757Y-88234366D01*
X90990682Y-88329318D01*
X91085634Y-88407243D01*
X91193963Y-88465146D01*
X91220301Y-88473136D01*
X91220301Y-88558121D01*
X90688430Y-89089992D01*
X90609900Y-89057464D01*
X90391394Y-89014000D01*
X90168606Y-89014000D01*
X89950100Y-89057464D01*
X89744271Y-89142721D01*
X89559030Y-89266495D01*
X89401495Y-89424030D01*
X89277721Y-89609271D01*
X89192464Y-89815100D01*
X89149000Y-90033606D01*
X89149000Y-90256394D01*
X89192464Y-90474900D01*
X89224992Y-90553430D01*
X88379597Y-91398826D01*
X88362147Y-91413147D01*
X88305013Y-91482765D01*
X88262559Y-91562192D01*
X88236415Y-91648374D01*
X88229800Y-91715541D01*
X88229800Y-91715550D01*
X88227589Y-91738000D01*
X88229800Y-91760450D01*
X88229801Y-96852040D01*
X88227589Y-96874500D01*
X88229801Y-96896960D01*
X88236416Y-96964127D01*
X88252296Y-97016475D01*
X88262560Y-97050309D01*
X88305013Y-97129735D01*
X88337036Y-97168754D01*
X88362148Y-97199353D01*
X88379593Y-97213670D01*
X89812157Y-98646235D01*
X89812157Y-98830879D01*
X87848800Y-96867523D01*
X87848800Y-90987949D01*
X87851011Y-90965499D01*
X87848800Y-90943049D01*
X87848800Y-90943040D01*
X87842185Y-90875873D01*
X87816041Y-90789691D01*
X87789104Y-90739294D01*
X87773587Y-90710263D01*
X87730770Y-90658092D01*
X87716453Y-90640647D01*
X87699009Y-90626331D01*
X83565077Y-86492400D01*
X88218323Y-86492400D01*
X88932157Y-87206235D01*
X88932157Y-87886250D01*
X88944197Y-88008492D01*
X88979854Y-88126037D01*
X89037757Y-88234366D01*
X89115682Y-88329318D01*
X89210634Y-88407243D01*
X89318963Y-88465146D01*
X89436508Y-88500803D01*
X89558750Y-88512843D01*
X90046250Y-88512843D01*
X90168492Y-88500803D01*
X90286037Y-88465146D01*
X90394366Y-88407243D01*
X90489318Y-88329318D01*
X90567243Y-88234366D01*
X90625146Y-88126037D01*
X90660803Y-88008492D01*
X90672843Y-87886250D01*
X90672843Y-86973750D01*
X90660803Y-86851508D01*
X90625146Y-86733963D01*
X90567243Y-86625634D01*
X90489318Y-86530682D01*
X90394366Y-86452757D01*
X90286037Y-86394854D01*
X90168492Y-86359197D01*
X90046250Y-86347157D01*
X89558750Y-86347157D01*
X89436508Y-86359197D01*
X89391828Y-86372751D01*
X88746874Y-85727797D01*
X88732553Y-85710347D01*
X88662936Y-85653213D01*
X88583509Y-85610759D01*
X88497327Y-85584615D01*
X88430160Y-85578000D01*
X88430150Y-85578000D01*
X88407700Y-85575789D01*
X88385250Y-85578000D01*
X81386350Y-85578000D01*
X81363900Y-85575789D01*
X81341450Y-85578000D01*
X81341440Y-85578000D01*
X81274273Y-85584615D01*
X81208149Y-85604674D01*
X81188090Y-85610759D01*
X81108664Y-85653213D01*
X81056492Y-85696029D01*
X81056486Y-85696035D01*
X81039047Y-85710347D01*
X81024734Y-85727787D01*
X80411497Y-86341026D01*
X80394047Y-86355347D01*
X80336913Y-86424965D01*
X80294459Y-86504392D01*
X80268315Y-86590574D01*
X80261700Y-86657741D01*
X80261700Y-86657750D01*
X80259489Y-86680200D01*
X80261700Y-86702650D01*
X80261701Y-94138721D01*
X77115649Y-97284774D01*
X77013829Y-97305028D01*
X76908093Y-97348825D01*
X76812934Y-97412408D01*
X76732008Y-97493334D01*
X76668425Y-97588493D01*
X76624628Y-97694229D01*
X76602300Y-97806477D01*
X76602300Y-97920923D01*
X76624628Y-98033171D01*
X76668425Y-98138907D01*
X76732008Y-98234066D01*
X76812934Y-98314992D01*
X76908093Y-98378575D01*
X77013829Y-98422372D01*
X77126077Y-98444700D01*
X77240523Y-98444700D01*
X77352771Y-98422372D01*
X77458507Y-98378575D01*
X77553666Y-98314992D01*
X77634592Y-98234066D01*
X77698175Y-98138907D01*
X77741972Y-98033171D01*
X77762226Y-97931351D01*
X80738200Y-94955377D01*
X80738200Y-100854362D01*
X80727197Y-100847298D01*
X80524001Y-100775592D01*
X80357000Y-100902498D01*
X80357000Y-102093000D01*
X80377000Y-102093000D01*
X80377000Y-102347000D01*
X80357000Y-102347000D01*
X80357000Y-102367000D01*
X80103000Y-102367000D01*
X80103000Y-102347000D01*
X80083000Y-102347000D01*
X80083000Y-102093000D01*
X80103000Y-102093000D01*
X80103000Y-100902498D01*
X79935999Y-100775592D01*
X79732803Y-100847298D01*
X79552592Y-100962986D01*
X79398413Y-101111609D01*
X79398176Y-101111950D01*
X79279548Y-101048542D01*
X79122904Y-101001025D01*
X78960000Y-100984980D01*
X78797097Y-101001025D01*
X78640453Y-101048542D01*
X78496089Y-101125706D01*
X78369553Y-101229552D01*
X78325001Y-101283839D01*
X78280448Y-101229552D01*
X78153912Y-101125706D01*
X78147200Y-101122118D01*
X78147200Y-100902395D01*
X78183875Y-100847507D01*
X78227672Y-100741771D01*
X78250000Y-100629523D01*
X78250000Y-100515077D01*
X78227672Y-100402829D01*
X78183875Y-100297093D01*
X78120292Y-100201934D01*
X78039366Y-100121008D01*
X77944207Y-100057425D01*
X77838471Y-100013628D01*
X77726223Y-99991300D01*
X77611777Y-99991300D01*
X77499529Y-100013628D01*
X77393793Y-100057425D01*
X77298634Y-100121008D01*
X77217708Y-100201934D01*
X77154125Y-100297093D01*
X77110328Y-100402829D01*
X77088000Y-100515077D01*
X77088000Y-100629523D01*
X77110328Y-100741771D01*
X77154125Y-100847507D01*
X77217708Y-100942666D01*
X77232800Y-100957758D01*
X77232800Y-101122119D01*
X77226089Y-101125706D01*
X77099553Y-101229552D01*
X77055001Y-101283839D01*
X77010448Y-101229552D01*
X76883912Y-101125706D01*
X76739548Y-101048542D01*
X76582904Y-101001025D01*
X76420000Y-100984980D01*
X76257097Y-101001025D01*
X76100453Y-101048542D01*
X75956089Y-101125706D01*
X75829553Y-101229552D01*
X75785001Y-101283839D01*
X75740448Y-101229552D01*
X75613912Y-101125706D01*
X75469548Y-101048542D01*
X75312904Y-101001025D01*
X75150000Y-100984980D01*
X74987097Y-101001025D01*
X74830453Y-101048542D01*
X74686089Y-101125706D01*
X74559553Y-101229552D01*
X74515001Y-101283839D01*
X74470448Y-101229552D01*
X74426551Y-101193526D01*
X74580946Y-101039132D01*
X74641071Y-101027172D01*
X74746807Y-100983375D01*
X74808131Y-100942400D01*
X75997750Y-100942400D01*
X76020200Y-100944611D01*
X76042650Y-100942400D01*
X76042660Y-100942400D01*
X76109827Y-100935785D01*
X76196009Y-100909641D01*
X76275436Y-100867187D01*
X76345053Y-100810053D01*
X76359374Y-100792603D01*
X76437752Y-100714226D01*
X76539571Y-100693972D01*
X76645307Y-100650175D01*
X76740466Y-100586592D01*
X76821392Y-100505666D01*
X76884975Y-100410507D01*
X76928772Y-100304771D01*
X76951100Y-100192523D01*
X76951100Y-100078077D01*
X76928772Y-99965829D01*
X76884975Y-99860093D01*
X76821392Y-99764934D01*
X76740466Y-99684008D01*
X76645307Y-99620425D01*
X76539571Y-99576628D01*
X76427323Y-99554300D01*
X76312877Y-99554300D01*
X76200629Y-99576628D01*
X76097943Y-99619162D01*
X76106472Y-99598571D01*
X76128800Y-99486323D01*
X76128800Y-99371877D01*
X76106472Y-99259629D01*
X76062675Y-99153893D01*
X75999092Y-99058734D01*
X75918166Y-98977808D01*
X75837337Y-98923800D01*
X75865823Y-98923800D01*
X75978071Y-98901472D01*
X76083807Y-98857675D01*
X76178966Y-98794092D01*
X76259892Y-98713166D01*
X76323475Y-98618007D01*
X76367272Y-98512271D01*
X76389600Y-98400023D01*
X76389600Y-98285577D01*
X76367272Y-98173329D01*
X76323475Y-98067593D01*
X76259892Y-97972434D01*
X76178966Y-97891508D01*
X76083807Y-97827925D01*
X75978071Y-97784128D01*
X75865823Y-97761800D01*
X75751377Y-97761800D01*
X75639129Y-97784128D01*
X75533393Y-97827925D01*
X75447076Y-97885600D01*
X74845318Y-97885600D01*
X74866372Y-97834771D01*
X74888700Y-97722523D01*
X74888700Y-97608077D01*
X74866372Y-97495829D01*
X74822575Y-97390093D01*
X74758992Y-97294934D01*
X74678066Y-97214008D01*
X74592764Y-97157011D01*
X75530000Y-97158072D01*
X75654482Y-97145812D01*
X75774180Y-97109502D01*
X75884494Y-97050537D01*
X75981185Y-96971185D01*
X76060537Y-96874494D01*
X76119502Y-96764180D01*
X76155812Y-96644482D01*
X76168072Y-96520000D01*
X76165000Y-93805750D01*
X76006250Y-93647000D01*
X72657000Y-93647000D01*
X72657000Y-96996250D01*
X72815750Y-97155000D01*
X74023600Y-97156367D01*
X73946176Y-97208100D01*
X73520650Y-97208100D01*
X73498200Y-97205889D01*
X73475750Y-97208100D01*
X73475740Y-97208100D01*
X73408573Y-97214715D01*
X73322391Y-97240859D01*
X73242964Y-97283313D01*
X73173347Y-97340447D01*
X73159030Y-97357892D01*
X69762593Y-100754330D01*
X69745148Y-100768647D01*
X69730831Y-100786092D01*
X69730830Y-100786093D01*
X69688013Y-100838265D01*
X69660040Y-100890600D01*
X69645560Y-100917691D01*
X69619416Y-101003873D01*
X69612801Y-101071040D01*
X69610589Y-101093500D01*
X69612801Y-101115959D01*
X69612801Y-101122118D01*
X69606089Y-101125706D01*
X69479553Y-101229552D01*
X69435001Y-101283839D01*
X69390448Y-101229552D01*
X69263912Y-101125706D01*
X69257200Y-101122118D01*
X69257200Y-100470750D01*
X69259411Y-100448300D01*
X69257200Y-100425850D01*
X69257200Y-100425841D01*
X69250585Y-100358674D01*
X69224441Y-100272492D01*
X69181987Y-100193065D01*
X69124853Y-100123448D01*
X69107408Y-100109131D01*
X68146051Y-99147775D01*
X68131730Y-99130325D01*
X68062113Y-99073191D01*
X67982686Y-99030737D01*
X67896504Y-99004593D01*
X67829337Y-98997978D01*
X67829327Y-98997978D01*
X67806877Y-98995767D01*
X67784427Y-98997978D01*
X67285977Y-98997978D01*
X67263527Y-98995767D01*
X67241078Y-98997978D01*
X67241068Y-98997978D01*
X67173901Y-99004593D01*
X67087719Y-99030737D01*
X67017195Y-99068432D01*
X66946671Y-99030737D01*
X66860489Y-99004593D01*
X66793322Y-98997978D01*
X66793312Y-98997978D01*
X66770862Y-98995767D01*
X66748412Y-98997978D01*
X63421172Y-98997978D01*
X63398722Y-98995767D01*
X63376272Y-98997978D01*
X63376263Y-98997978D01*
X63309096Y-99004593D01*
X63222914Y-99030737D01*
X63164424Y-99062000D01*
X62357000Y-99062000D01*
X62357000Y-99082000D01*
X62103000Y-99082000D01*
X62103000Y-99062000D01*
X60912498Y-99062000D01*
X60785592Y-99229001D01*
X60791450Y-99245602D01*
X59390148Y-99245602D01*
X59367698Y-99243391D01*
X59345248Y-99245602D01*
X59345238Y-99245602D01*
X59278071Y-99252217D01*
X59211947Y-99272276D01*
X59191888Y-99278361D01*
X59112462Y-99320815D01*
X59060290Y-99363631D01*
X59060284Y-99363637D01*
X59042845Y-99377949D01*
X59028533Y-99395388D01*
X57230000Y-101193923D01*
X57230000Y-101092998D01*
X57064225Y-101092998D01*
X57187910Y-100890600D01*
X57157238Y-100789472D01*
X57049473Y-100556371D01*
X56898303Y-100348773D01*
X56709537Y-100174656D01*
X56544366Y-100073683D01*
X56670317Y-99970317D01*
X56802280Y-99809521D01*
X56900337Y-99626069D01*
X56960720Y-99427012D01*
X56981109Y-99220000D01*
X56960720Y-99012988D01*
X56900337Y-98813931D01*
X56802280Y-98630479D01*
X56670317Y-98469683D01*
X56509521Y-98337720D01*
X56326069Y-98239663D01*
X56261248Y-98220000D01*
X56326069Y-98200337D01*
X56509521Y-98102280D01*
X56670317Y-97970317D01*
X56802280Y-97809521D01*
X56900337Y-97626069D01*
X56960720Y-97427012D01*
X56981109Y-97220000D01*
X56960720Y-97012988D01*
X56900337Y-96813931D01*
X56818590Y-96660992D01*
X60179415Y-96660992D01*
X61013235Y-97494812D01*
X61011025Y-97502096D01*
X60994980Y-97665000D01*
X61011025Y-97827904D01*
X61058542Y-97984548D01*
X61121950Y-98103176D01*
X61121609Y-98103413D01*
X60972986Y-98257592D01*
X60857298Y-98437803D01*
X60785592Y-98640999D01*
X60912498Y-98808000D01*
X62103000Y-98808000D01*
X62103000Y-98788000D01*
X62357000Y-98788000D01*
X62357000Y-98808000D01*
X63547502Y-98808000D01*
X63674408Y-98640999D01*
X63602702Y-98437803D01*
X63487014Y-98257592D01*
X63338391Y-98103413D01*
X63338050Y-98103176D01*
X63401458Y-97984548D01*
X63448975Y-97827904D01*
X63465020Y-97665000D01*
X63448975Y-97502096D01*
X63401458Y-97345452D01*
X63324294Y-97201088D01*
X63220448Y-97074552D01*
X63166162Y-97030000D01*
X63220448Y-96985448D01*
X63324294Y-96858912D01*
X63401458Y-96714548D01*
X63448975Y-96557904D01*
X63450604Y-96541369D01*
X63468228Y-96629971D01*
X63512025Y-96735707D01*
X63575608Y-96830866D01*
X63656534Y-96911792D01*
X63751693Y-96975375D01*
X63857429Y-97019172D01*
X63969677Y-97041500D01*
X64071500Y-97041500D01*
X64071500Y-97151123D01*
X64093828Y-97263371D01*
X64137625Y-97369107D01*
X64201208Y-97464266D01*
X64282134Y-97545192D01*
X64377293Y-97608775D01*
X64483029Y-97652572D01*
X64595277Y-97674900D01*
X64709723Y-97674900D01*
X64821971Y-97652572D01*
X64927707Y-97608775D01*
X65022866Y-97545192D01*
X65103792Y-97464266D01*
X65167375Y-97369107D01*
X65211172Y-97263371D01*
X65233500Y-97151123D01*
X65233500Y-97036677D01*
X65211172Y-96924429D01*
X65167375Y-96818693D01*
X65109700Y-96732376D01*
X65109700Y-96383876D01*
X65156471Y-96374572D01*
X65262207Y-96330775D01*
X65357366Y-96267192D01*
X65419140Y-96205418D01*
X65405125Y-96226393D01*
X65361328Y-96332129D01*
X65339000Y-96444377D01*
X65339000Y-96558823D01*
X65361328Y-96671071D01*
X65405125Y-96776807D01*
X65468708Y-96871966D01*
X65549634Y-96952892D01*
X65644793Y-97016475D01*
X65750529Y-97060272D01*
X65862777Y-97082600D01*
X65977223Y-97082600D01*
X66089471Y-97060272D01*
X66195207Y-97016475D01*
X66290366Y-96952892D01*
X66371292Y-96871966D01*
X66434875Y-96776807D01*
X66478672Y-96671071D01*
X66501000Y-96558823D01*
X66501000Y-96520000D01*
X68891928Y-96520000D01*
X68904188Y-96644482D01*
X68940498Y-96764180D01*
X68999463Y-96874494D01*
X69078815Y-96971185D01*
X69175506Y-97050537D01*
X69285820Y-97109502D01*
X69405518Y-97145812D01*
X69530000Y-97158072D01*
X72244250Y-97155000D01*
X72403000Y-96996250D01*
X72403000Y-93647000D01*
X69053750Y-93647000D01*
X68895000Y-93805750D01*
X68891928Y-96520000D01*
X66501000Y-96520000D01*
X66501000Y-96444377D01*
X66478672Y-96332129D01*
X66434875Y-96226393D01*
X66377200Y-96140076D01*
X66377200Y-95944437D01*
X66401808Y-95981266D01*
X66482734Y-96062192D01*
X66577893Y-96125775D01*
X66683629Y-96169572D01*
X66795877Y-96191900D01*
X66910323Y-96191900D01*
X67022571Y-96169572D01*
X67128307Y-96125775D01*
X67223466Y-96062192D01*
X67304392Y-95981266D01*
X67367975Y-95886107D01*
X67411772Y-95780371D01*
X67434100Y-95668123D01*
X67434100Y-95553677D01*
X67411772Y-95441429D01*
X67367975Y-95335693D01*
X67310300Y-95249376D01*
X67310300Y-92444377D01*
X68284601Y-91470077D01*
X68284600Y-92173776D01*
X68226925Y-92260093D01*
X68183128Y-92365829D01*
X68160800Y-92478077D01*
X68160800Y-92592523D01*
X68183128Y-92704771D01*
X68226925Y-92810507D01*
X68290508Y-92905666D01*
X68371434Y-92986592D01*
X68466593Y-93050175D01*
X68572329Y-93093972D01*
X68684577Y-93116300D01*
X68799023Y-93116300D01*
X68894845Y-93097239D01*
X68895000Y-93234250D01*
X69053750Y-93393000D01*
X72403000Y-93393000D01*
X72403000Y-90043750D01*
X72657000Y-90043750D01*
X72657000Y-93393000D01*
X76006250Y-93393000D01*
X76165000Y-93234250D01*
X76168072Y-90520000D01*
X76155812Y-90395518D01*
X76119502Y-90275820D01*
X76060537Y-90165506D01*
X75981185Y-90068815D01*
X75884494Y-89989463D01*
X75774180Y-89930498D01*
X75654482Y-89894188D01*
X75530000Y-89881928D01*
X72815750Y-89885000D01*
X72657000Y-90043750D01*
X72403000Y-90043750D01*
X72244250Y-89885000D01*
X70370698Y-89882880D01*
X73604678Y-86648900D01*
X76822350Y-86648900D01*
X76844800Y-86651111D01*
X76867250Y-86648900D01*
X76867260Y-86648900D01*
X76934427Y-86642285D01*
X77020609Y-86616141D01*
X77100036Y-86573687D01*
X77169653Y-86516553D01*
X77183974Y-86499103D01*
X77997408Y-85685670D01*
X78014853Y-85671353D01*
X78029740Y-85653213D01*
X78071987Y-85601737D01*
X78107799Y-85534735D01*
X78114441Y-85522309D01*
X78140585Y-85436127D01*
X78147200Y-85368960D01*
X78147200Y-85368951D01*
X78149411Y-85346501D01*
X78147200Y-85324051D01*
X78147200Y-85317881D01*
X78153911Y-85314294D01*
X78280448Y-85210448D01*
X78325000Y-85156161D01*
X78369552Y-85210448D01*
X78496088Y-85314294D01*
X78502800Y-85317882D01*
X78502800Y-85638122D01*
X76037649Y-88103274D01*
X75935829Y-88123528D01*
X75830093Y-88167325D01*
X75734934Y-88230908D01*
X75654008Y-88311834D01*
X75590425Y-88406993D01*
X75546628Y-88512729D01*
X75524300Y-88624977D01*
X75524300Y-88739423D01*
X75546628Y-88851671D01*
X75590425Y-88957407D01*
X75654008Y-89052566D01*
X75734934Y-89133492D01*
X75830093Y-89197075D01*
X75935829Y-89240872D01*
X76048077Y-89263200D01*
X76162523Y-89263200D01*
X76274771Y-89240872D01*
X76380507Y-89197075D01*
X76475666Y-89133492D01*
X76556592Y-89052566D01*
X76620175Y-88957407D01*
X76663972Y-88851671D01*
X76684226Y-88749851D01*
X79267409Y-86166669D01*
X79284853Y-86152353D01*
X79302777Y-86130513D01*
X79341987Y-86082737D01*
X79384440Y-86003310D01*
X79384441Y-86003309D01*
X79410585Y-85917127D01*
X79417200Y-85849960D01*
X79417200Y-85849951D01*
X79419411Y-85827501D01*
X79417200Y-85805051D01*
X79417200Y-85346501D01*
X79552592Y-85477014D01*
X79732803Y-85592702D01*
X79935999Y-85664408D01*
X80103000Y-85537502D01*
X80103000Y-84347000D01*
X80357000Y-84347000D01*
X80357000Y-85537502D01*
X80524001Y-85664408D01*
X80727197Y-85592702D01*
X80907408Y-85477014D01*
X81061587Y-85328391D01*
X81183809Y-85152545D01*
X81213250Y-85085000D01*
X93221928Y-85085000D01*
X93225000Y-86049250D01*
X93383750Y-86208000D01*
X95233000Y-86208000D01*
X95233000Y-84608750D01*
X95074250Y-84450000D01*
X93860000Y-84446928D01*
X93735518Y-84459188D01*
X93615820Y-84495498D01*
X93505506Y-84554463D01*
X93408815Y-84633815D01*
X93329463Y-84730506D01*
X93270498Y-84840820D01*
X93234188Y-84960518D01*
X93221928Y-85085000D01*
X81213250Y-85085000D01*
X81269376Y-84956233D01*
X81315000Y-84747000D01*
X81315000Y-84347000D01*
X80357000Y-84347000D01*
X80103000Y-84347000D01*
X80083000Y-84347000D01*
X80083000Y-84093000D01*
X80103000Y-84093000D01*
X80103000Y-82902498D01*
X80357000Y-82902498D01*
X80357000Y-84093000D01*
X81315000Y-84093000D01*
X81315000Y-83693000D01*
X81303444Y-83640000D01*
X82881928Y-83640000D01*
X82894188Y-83764482D01*
X82930498Y-83884180D01*
X82989463Y-83994494D01*
X83068815Y-84091185D01*
X83165506Y-84170537D01*
X83275820Y-84229502D01*
X83395518Y-84265812D01*
X83520000Y-84278072D01*
X84134250Y-84275000D01*
X84293000Y-84116250D01*
X84293000Y-82867000D01*
X83043750Y-82867000D01*
X82885000Y-83025750D01*
X82881928Y-83640000D01*
X81303444Y-83640000D01*
X81269376Y-83483767D01*
X81183809Y-83287455D01*
X81061587Y-83111609D01*
X80907408Y-82962986D01*
X80727197Y-82847298D01*
X80524001Y-82775592D01*
X80357000Y-82902498D01*
X80103000Y-82902498D01*
X79935999Y-82775592D01*
X79732803Y-82847298D01*
X79552592Y-82962986D01*
X79398413Y-83111609D01*
X79398176Y-83111950D01*
X79279548Y-83048542D01*
X79122904Y-83001025D01*
X78960000Y-82984980D01*
X78906999Y-82990200D01*
X78906000Y-82980059D01*
X78906000Y-81840000D01*
X82881928Y-81840000D01*
X82885000Y-82454250D01*
X83043750Y-82613000D01*
X84293000Y-82613000D01*
X84293000Y-81363750D01*
X84547000Y-81363750D01*
X84547000Y-82613000D01*
X84567000Y-82613000D01*
X84567000Y-82867000D01*
X84547000Y-82867000D01*
X84547000Y-84116250D01*
X84705750Y-84275000D01*
X85320000Y-84278072D01*
X85444482Y-84265812D01*
X85564180Y-84229502D01*
X85674494Y-84170537D01*
X85771185Y-84091185D01*
X85850537Y-83994494D01*
X85909502Y-83884180D01*
X85945812Y-83764482D01*
X85958072Y-83640000D01*
X85957600Y-83545541D01*
X85964982Y-83556590D01*
X86143410Y-83735018D01*
X86353219Y-83875207D01*
X86586346Y-83971772D01*
X86833833Y-84021000D01*
X87086167Y-84021000D01*
X87333654Y-83971772D01*
X87566781Y-83875207D01*
X87776590Y-83735018D01*
X87955018Y-83556590D01*
X88087003Y-83359059D01*
X89569000Y-83359059D01*
X89569000Y-83640941D01*
X89623993Y-83917407D01*
X89731864Y-84177833D01*
X89888470Y-84412209D01*
X90087791Y-84611530D01*
X90322167Y-84768136D01*
X90582593Y-84876007D01*
X90859059Y-84931000D01*
X91140941Y-84931000D01*
X91417407Y-84876007D01*
X91677833Y-84768136D01*
X91912209Y-84611530D01*
X92111530Y-84412209D01*
X92268136Y-84177833D01*
X92376007Y-83917407D01*
X92431000Y-83640941D01*
X92431000Y-83359059D01*
X92376007Y-83082593D01*
X92268136Y-82822167D01*
X92111530Y-82587791D01*
X91912209Y-82388470D01*
X91677833Y-82231864D01*
X91417407Y-82123993D01*
X91140941Y-82069000D01*
X90859059Y-82069000D01*
X90582593Y-82123993D01*
X90322167Y-82231864D01*
X90087791Y-82388470D01*
X89888470Y-82587791D01*
X89731864Y-82822167D01*
X89623993Y-83082593D01*
X89569000Y-83359059D01*
X88087003Y-83359059D01*
X88095207Y-83346781D01*
X88191772Y-83113654D01*
X88241000Y-82866167D01*
X88241000Y-82613833D01*
X88191772Y-82366346D01*
X88095207Y-82133219D01*
X87955018Y-81923410D01*
X87776590Y-81744982D01*
X87566781Y-81604793D01*
X87333654Y-81508228D01*
X87086167Y-81459000D01*
X86833833Y-81459000D01*
X86586346Y-81508228D01*
X86353219Y-81604793D01*
X86143410Y-81744982D01*
X85964982Y-81923410D01*
X85957600Y-81934459D01*
X85958072Y-81840000D01*
X85945812Y-81715518D01*
X85909502Y-81595820D01*
X85850537Y-81485506D01*
X85771185Y-81388815D01*
X85674494Y-81309463D01*
X85564180Y-81250498D01*
X85444482Y-81214188D01*
X85320000Y-81201928D01*
X84705750Y-81205000D01*
X84547000Y-81363750D01*
X84293000Y-81363750D01*
X84134250Y-81205000D01*
X83520000Y-81201928D01*
X83395518Y-81214188D01*
X83275820Y-81250498D01*
X83165506Y-81309463D01*
X83068815Y-81388815D01*
X82989463Y-81485506D01*
X82930498Y-81595820D01*
X82894188Y-81715518D01*
X82881928Y-81840000D01*
X78906000Y-81840000D01*
X78906000Y-80406000D01*
X95198325Y-80406000D01*
X95013393Y-80762772D01*
X95013393Y-80762772D01*
G37*
X95013393Y-80762772D02*
X94999717Y-80796963D01*
X94985587Y-80830909D01*
X94983969Y-80836336D01*
X94983966Y-80836343D01*
X94983965Y-80836350D01*
X94829960Y-81366436D01*
X94823190Y-81402608D01*
X94815918Y-81438677D01*
X94815384Y-81444321D01*
X94767273Y-81994234D01*
X94767658Y-82031010D01*
X94767530Y-82067827D01*
X94768103Y-82073467D01*
X94827720Y-82622250D01*
X94835248Y-82658285D01*
X94842266Y-82694391D01*
X94843923Y-82699812D01*
X95008997Y-83226565D01*
X95023373Y-83260432D01*
X95037279Y-83294508D01*
X95039958Y-83299504D01*
X95304202Y-83784161D01*
X95324903Y-83814622D01*
X95345142Y-83845315D01*
X95348736Y-83849691D01*
X95348740Y-83849697D01*
X95348745Y-83849702D01*
X95702088Y-84273798D01*
X95728305Y-84299653D01*
X95754127Y-84325837D01*
X95758501Y-84329430D01*
X95758506Y-84329435D01*
X95758511Y-84329439D01*
X95906577Y-84449340D01*
X95645750Y-84450000D01*
X95487000Y-84608750D01*
X95487000Y-86208000D01*
X97336250Y-86208000D01*
X97495000Y-86049250D01*
X97497744Y-85187809D01*
X97971665Y-85232608D01*
X98008482Y-85232480D01*
X98045258Y-85232865D01*
X98050902Y-85232332D01*
X98600088Y-85176548D01*
X98636194Y-85169268D01*
X98672329Y-85162505D01*
X98677762Y-85160886D01*
X99205654Y-84999493D01*
X99239650Y-84985341D01*
X99273791Y-84971686D01*
X99278807Y-84969042D01*
X99594000Y-84800037D01*
X99594001Y-101698326D01*
X99237228Y-101513393D01*
X99203037Y-101499717D01*
X99169091Y-101485587D01*
X99163664Y-101483969D01*
X99163657Y-101483966D01*
X99163650Y-101483965D01*
X98633564Y-101329960D01*
X98597392Y-101323190D01*
X98561323Y-101315918D01*
X98555679Y-101315384D01*
X98005766Y-101267273D01*
X97968990Y-101267658D01*
X97932174Y-101267530D01*
X97926533Y-101268103D01*
X97497307Y-101314732D01*
X97495000Y-100590750D01*
X97336250Y-100432000D01*
X95487000Y-100432000D01*
X95487000Y-102031250D01*
X95645750Y-102190000D01*
X95740423Y-102190240D01*
X95726202Y-102202088D01*
X95700347Y-102228305D01*
X95674163Y-102254127D01*
X95670570Y-102258501D01*
X95670565Y-102258506D01*
X95670561Y-102258511D01*
X95323173Y-102687501D01*
X95302905Y-102718239D01*
X95282234Y-102748656D01*
X95279554Y-102753652D01*
X95022103Y-103241952D01*
X95008194Y-103276036D01*
X94993822Y-103309894D01*
X94992164Y-103315315D01*
X94834460Y-103844321D01*
X94827440Y-103880435D01*
X94819914Y-103916463D01*
X94819341Y-103922103D01*
X94767392Y-104471665D01*
X94767520Y-104508482D01*
X94767135Y-104545258D01*
X94767668Y-104550902D01*
X94823452Y-105100088D01*
X94830732Y-105136194D01*
X94837495Y-105172329D01*
X94839114Y-105177762D01*
X95000507Y-105705654D01*
X95014659Y-105739650D01*
X95028314Y-105773791D01*
X95030958Y-105778807D01*
X95199963Y-106094000D01*
X93541322Y-106094000D01*
X93565537Y-106064494D01*
X93624502Y-105954180D01*
X93660812Y-105834482D01*
X93673072Y-105710000D01*
X93670000Y-105295750D01*
X93511250Y-105137000D01*
X92674500Y-105137000D01*
X92674500Y-105157000D01*
X92420500Y-105157000D01*
X92420500Y-105137000D01*
X92400500Y-105137000D01*
X92400500Y-104883000D01*
X92420500Y-104883000D01*
X92420500Y-104863000D01*
X92674500Y-104863000D01*
X92674500Y-104883000D01*
X93511250Y-104883000D01*
X93670000Y-104724250D01*
X93673072Y-104310000D01*
X93660812Y-104185518D01*
X93624502Y-104065820D01*
X93565537Y-103955506D01*
X93486185Y-103858815D01*
X93389494Y-103779463D01*
X93355855Y-103761482D01*
X93380146Y-103716037D01*
X93415803Y-103598492D01*
X93427843Y-103476250D01*
X93427843Y-102796235D01*
X93648513Y-102575565D01*
X93665953Y-102561253D01*
X93680265Y-102543814D01*
X93680271Y-102543808D01*
X93723087Y-102491636D01*
X93765541Y-102412210D01*
X93778315Y-102370099D01*
X93791685Y-102326027D01*
X93798300Y-102258860D01*
X93798300Y-102258850D01*
X93800511Y-102236400D01*
X93798300Y-102213950D01*
X93798300Y-102186995D01*
X93860000Y-102193072D01*
X95074250Y-102190000D01*
X95233000Y-102031250D01*
X95233000Y-100432000D01*
X95213000Y-100432000D01*
X95213000Y-100178000D01*
X95233000Y-100178000D01*
X95233000Y-98578750D01*
X95487000Y-98578750D01*
X95487000Y-100178000D01*
X97336250Y-100178000D01*
X97495000Y-100019250D01*
X97498072Y-99055000D01*
X97485812Y-98930518D01*
X97449502Y-98810820D01*
X97390537Y-98700506D01*
X97311185Y-98603815D01*
X97214494Y-98524463D01*
X97104180Y-98465498D01*
X96984482Y-98429188D01*
X96860000Y-98416928D01*
X95645750Y-98420000D01*
X95487000Y-98578750D01*
X95233000Y-98578750D01*
X95074250Y-98420000D01*
X94439284Y-98418394D01*
X94797021Y-98060657D01*
X94898963Y-98115146D01*
X95016508Y-98150803D01*
X95138750Y-98162843D01*
X95626250Y-98162843D01*
X95748492Y-98150803D01*
X95866037Y-98115146D01*
X95974366Y-98057243D01*
X96069318Y-97979318D01*
X96147243Y-97884366D01*
X96205146Y-97776037D01*
X96240803Y-97658492D01*
X96252843Y-97536250D01*
X96252843Y-96842722D01*
X96387157Y-96977036D01*
X96387157Y-97536250D01*
X96399197Y-97658492D01*
X96434854Y-97776037D01*
X96492757Y-97884366D01*
X96570682Y-97979318D01*
X96665634Y-98057243D01*
X96773963Y-98115146D01*
X96891508Y-98150803D01*
X97013750Y-98162843D01*
X97501250Y-98162843D01*
X97623492Y-98150803D01*
X97741037Y-98115146D01*
X97849366Y-98057243D01*
X97944318Y-97979318D01*
X98022243Y-97884366D01*
X98080146Y-97776037D01*
X98115803Y-97658492D01*
X98127843Y-97536250D01*
X98127843Y-96623750D01*
X98115803Y-96501508D01*
X98080146Y-96383963D01*
X98022243Y-96275634D01*
X97944318Y-96180682D01*
X97849366Y-96102757D01*
X97741037Y-96044854D01*
X97623492Y-96009197D01*
X97501250Y-95997157D01*
X97013750Y-95997157D01*
X96891508Y-96009197D01*
X96773963Y-96044854D01*
X96757130Y-96053851D01*
X95906121Y-95202843D01*
X97817800Y-95202843D01*
X97892489Y-95195487D01*
X97964308Y-95173701D01*
X98030496Y-95138322D01*
X98088511Y-95090711D01*
X98136122Y-95032696D01*
X98171501Y-94966508D01*
X98193287Y-94894689D01*
X98200643Y-94820000D01*
X98200643Y-91820000D01*
X98193287Y-91745311D01*
X98171501Y-91673492D01*
X98136122Y-91607304D01*
X98088511Y-91549289D01*
X98030496Y-91501678D01*
X97964308Y-91466299D01*
X97892489Y-91444513D01*
X97817800Y-91437157D01*
X95317800Y-91437157D01*
X95243111Y-91444513D01*
X95171292Y-91466299D01*
X95105104Y-91501678D01*
X95047089Y-91549289D01*
X94999478Y-91607304D01*
X94964099Y-91673492D01*
X94942313Y-91745311D01*
X94934957Y-91820000D01*
X94934957Y-94231679D01*
X93649876Y-92946599D01*
X93698505Y-92897970D01*
X93822279Y-92712729D01*
X93907536Y-92506900D01*
X93951000Y-92288394D01*
X93951000Y-92065606D01*
X93907536Y-91847100D01*
X93822279Y-91641271D01*
X93698505Y-91456030D01*
X93542943Y-91300468D01*
X93597388Y-91101993D01*
X92820000Y-90324605D01*
X92042612Y-91101993D01*
X92097057Y-91300468D01*
X91941495Y-91456030D01*
X91817721Y-91641271D01*
X91732464Y-91847100D01*
X91689000Y-92065606D01*
X91689000Y-92205300D01*
X91543135Y-92205300D01*
X91535146Y-92178963D01*
X91477243Y-92070634D01*
X91399318Y-91975682D01*
X91304366Y-91897757D01*
X91196037Y-91839854D01*
X91078492Y-91804197D01*
X90956250Y-91792157D01*
X90043750Y-91792157D01*
X89921508Y-91804197D01*
X89803963Y-91839854D01*
X89695634Y-91897757D01*
X89600682Y-91975682D01*
X89522757Y-92070634D01*
X89464854Y-92178963D01*
X89429197Y-92296508D01*
X89417157Y-92418750D01*
X89417157Y-92906250D01*
X89429197Y-93028492D01*
X89464854Y-93146037D01*
X89522757Y-93254366D01*
X89600682Y-93349318D01*
X89695634Y-93427243D01*
X89803963Y-93485146D01*
X89921508Y-93520803D01*
X90043750Y-93532843D01*
X90956250Y-93532843D01*
X91078492Y-93520803D01*
X91196037Y-93485146D01*
X91304366Y-93427243D01*
X91399318Y-93349318D01*
X91477243Y-93254366D01*
X91535146Y-93146037D01*
X91543135Y-93119700D01*
X92195105Y-93119700D01*
X92284271Y-93179279D01*
X92470699Y-93256500D01*
X92284271Y-93333721D01*
X92099030Y-93457495D01*
X91941495Y-93615030D01*
X91817721Y-93800271D01*
X91732464Y-94006100D01*
X91689000Y-94224606D01*
X91689000Y-94447394D01*
X91732464Y-94665900D01*
X91817721Y-94871729D01*
X91941495Y-95056970D01*
X92099030Y-95214505D01*
X92284271Y-95338279D01*
X92470699Y-95415500D01*
X92284271Y-95492721D01*
X92099030Y-95616495D01*
X91941495Y-95774030D01*
X91817721Y-95959271D01*
X91732464Y-96165100D01*
X91689000Y-96383606D01*
X91689000Y-96606394D01*
X91732464Y-96824900D01*
X91817721Y-97030729D01*
X91941495Y-97215970D01*
X92099030Y-97373505D01*
X92284271Y-97497279D01*
X92490100Y-97582536D01*
X92708606Y-97626000D01*
X92931394Y-97626000D01*
X93149900Y-97582536D01*
X93355729Y-97497279D01*
X93540970Y-97373505D01*
X93698505Y-97215970D01*
X93822279Y-97030729D01*
X93907536Y-96824900D01*
X93951000Y-96606394D01*
X93951000Y-96383606D01*
X93907536Y-96165100D01*
X93822279Y-95959271D01*
X93698505Y-95774030D01*
X93540970Y-95616495D01*
X93355729Y-95492721D01*
X93169301Y-95415500D01*
X93355729Y-95338279D01*
X93540970Y-95214505D01*
X93698505Y-95056970D01*
X93822279Y-94871729D01*
X93907536Y-94665900D01*
X93935490Y-94525368D01*
X95407279Y-95997157D01*
X95138750Y-95997157D01*
X95016508Y-96009197D01*
X94898963Y-96044854D01*
X94790634Y-96102757D01*
X94695682Y-96180682D01*
X94617757Y-96275634D01*
X94559854Y-96383963D01*
X94524197Y-96501508D01*
X94512157Y-96623750D01*
X94512157Y-97052365D01*
X93382570Y-98181953D01*
X93380146Y-98173963D01*
X93322243Y-98065634D01*
X93244318Y-97970682D01*
X93149366Y-97892757D01*
X93041037Y-97834854D01*
X92923492Y-97799197D01*
X92801250Y-97787157D01*
X92313750Y-97787157D01*
X92191508Y-97799197D01*
X92073963Y-97834854D01*
X91965634Y-97892757D01*
X91870682Y-97970682D01*
X91792757Y-98065634D01*
X91734854Y-98173963D01*
X91699197Y-98291508D01*
X91695655Y-98327466D01*
X91677223Y-98323800D01*
X91562777Y-98323800D01*
X91544345Y-98327466D01*
X91540803Y-98291508D01*
X91505146Y-98173963D01*
X91447243Y-98065634D01*
X91369318Y-97970682D01*
X91274366Y-97892757D01*
X91166037Y-97834854D01*
X91048492Y-97799197D01*
X90926250Y-97787157D01*
X90438750Y-97787157D01*
X90316508Y-97799197D01*
X90271828Y-97812751D01*
X90064337Y-97605259D01*
X90168606Y-97626000D01*
X90391394Y-97626000D01*
X90609900Y-97582536D01*
X90815729Y-97497279D01*
X91000970Y-97373505D01*
X91158505Y-97215970D01*
X91282279Y-97030729D01*
X91367536Y-96824900D01*
X91411000Y-96606394D01*
X91411000Y-96383606D01*
X91367536Y-96165100D01*
X91282279Y-95959271D01*
X91158505Y-95774030D01*
X91000970Y-95616495D01*
X90815729Y-95492721D01*
X90610815Y-95407843D01*
X90956250Y-95407843D01*
X91078492Y-95395803D01*
X91196037Y-95360146D01*
X91304366Y-95302243D01*
X91399318Y-95224318D01*
X91477243Y-95129366D01*
X91535146Y-95021037D01*
X91570803Y-94903492D01*
X91582843Y-94781250D01*
X91582843Y-94293750D01*
X91570803Y-94171508D01*
X91535146Y-94053963D01*
X91477243Y-93945634D01*
X91399318Y-93850682D01*
X91304366Y-93772757D01*
X91196037Y-93714854D01*
X91078492Y-93679197D01*
X90956250Y-93667157D01*
X90043750Y-93667157D01*
X89921508Y-93679197D01*
X89803963Y-93714854D01*
X89695634Y-93772757D01*
X89600682Y-93850682D01*
X89522757Y-93945634D01*
X89514414Y-93961244D01*
X89438807Y-93910725D01*
X89333071Y-93866928D01*
X89220823Y-93844600D01*
X89144200Y-93844600D01*
X89144200Y-91927377D01*
X89871570Y-91200008D01*
X89950100Y-91232536D01*
X90168606Y-91276000D01*
X90391394Y-91276000D01*
X90609900Y-91232536D01*
X90815729Y-91147279D01*
X91000970Y-91023505D01*
X91158505Y-90865970D01*
X91282279Y-90680729D01*
X91367536Y-90474900D01*
X91411000Y-90256394D01*
X91411000Y-90033606D01*
X91367536Y-89815100D01*
X91335008Y-89736570D01*
X91611495Y-89460082D01*
X91508240Y-89680116D01*
X91442750Y-89944960D01*
X91430188Y-90217492D01*
X91471035Y-90487238D01*
X91563723Y-90743832D01*
X91624140Y-90856863D01*
X91863007Y-90922388D01*
X92640395Y-90145000D01*
X92999605Y-90145000D01*
X93776993Y-90922388D01*
X94015860Y-90856863D01*
X94131760Y-90609884D01*
X94197250Y-90345040D01*
X94209812Y-90072508D01*
X94168965Y-89802762D01*
X94076277Y-89546168D01*
X94015860Y-89433137D01*
X93776993Y-89367612D01*
X92999605Y-90145000D01*
X92640395Y-90145000D01*
X92626253Y-90130858D01*
X92805858Y-89951253D01*
X92820000Y-89965395D01*
X93597388Y-89188007D01*
X93531863Y-88949140D01*
X93284884Y-88833240D01*
X93020040Y-88767750D01*
X92747508Y-88755188D01*
X92477762Y-88796035D01*
X92221168Y-88888723D01*
X92108137Y-88949140D01*
X92042613Y-89188005D01*
X91963093Y-89108485D01*
X91984908Y-89086670D01*
X92002353Y-89072353D01*
X92042550Y-89023374D01*
X92059487Y-89002737D01*
X92082178Y-88960283D01*
X92101941Y-88923309D01*
X92128085Y-88837127D01*
X92134700Y-88769960D01*
X92134700Y-88769951D01*
X92136911Y-88747501D01*
X92134700Y-88725051D01*
X92134700Y-88473135D01*
X92161037Y-88465146D01*
X92269366Y-88407243D01*
X92364318Y-88329318D01*
X92442243Y-88234366D01*
X92500146Y-88126037D01*
X92535803Y-88008492D01*
X92547843Y-87886250D01*
X92547843Y-87585000D01*
X93221928Y-87585000D01*
X93234188Y-87709482D01*
X93270498Y-87829180D01*
X93329463Y-87939494D01*
X93408815Y-88036185D01*
X93505506Y-88115537D01*
X93615820Y-88174502D01*
X93735518Y-88210812D01*
X93860000Y-88223072D01*
X95074250Y-88220000D01*
X95233000Y-88061250D01*
X95233000Y-86462000D01*
X95487000Y-86462000D01*
X95487000Y-88061250D01*
X95645750Y-88220000D01*
X96860000Y-88223072D01*
X96984482Y-88210812D01*
X97104180Y-88174502D01*
X97214494Y-88115537D01*
X97311185Y-88036185D01*
X97390537Y-87939494D01*
X97449502Y-87829180D01*
X97485812Y-87709482D01*
X97498072Y-87585000D01*
X97495000Y-86620750D01*
X97336250Y-86462000D01*
X95487000Y-86462000D01*
X95233000Y-86462000D01*
X93383750Y-86462000D01*
X93225000Y-86620750D01*
X93221928Y-87585000D01*
X92547843Y-87585000D01*
X92547843Y-86973750D01*
X92535803Y-86851508D01*
X92500146Y-86733963D01*
X92442243Y-86625634D01*
X92364318Y-86530682D01*
X92269366Y-86452757D01*
X92161037Y-86394854D01*
X92043492Y-86359197D01*
X91921250Y-86347157D01*
X91433750Y-86347157D01*
X91311508Y-86359197D01*
X91193963Y-86394854D01*
X91085634Y-86452757D01*
X90990682Y-86530682D01*
X90912757Y-86625634D01*
X90854854Y-86733963D01*
X90819197Y-86851508D01*
X90807157Y-86973750D01*
X90807157Y-87886250D01*
X90819197Y-88008492D01*
X90854854Y-88126037D01*
X90912757Y-88234366D01*
X90990682Y-88329318D01*
X91085634Y-88407243D01*
X91193963Y-88465146D01*
X91220301Y-88473136D01*
X91220301Y-88558121D01*
X90688430Y-89089992D01*
X90609900Y-89057464D01*
X90391394Y-89014000D01*
X90168606Y-89014000D01*
X89950100Y-89057464D01*
X89744271Y-89142721D01*
X89559030Y-89266495D01*
X89401495Y-89424030D01*
X89277721Y-89609271D01*
X89192464Y-89815100D01*
X89149000Y-90033606D01*
X89149000Y-90256394D01*
X89192464Y-90474900D01*
X89224992Y-90553430D01*
X88379597Y-91398826D01*
X88362147Y-91413147D01*
X88305013Y-91482765D01*
X88262559Y-91562192D01*
X88236415Y-91648374D01*
X88229800Y-91715541D01*
X88229800Y-91715550D01*
X88227589Y-91738000D01*
X88229800Y-91760450D01*
X88229801Y-96852040D01*
X88227589Y-96874500D01*
X88229801Y-96896960D01*
X88236416Y-96964127D01*
X88252296Y-97016475D01*
X88262560Y-97050309D01*
X88305013Y-97129735D01*
X88337036Y-97168754D01*
X88362148Y-97199353D01*
X88379593Y-97213670D01*
X89812157Y-98646235D01*
X89812157Y-98830879D01*
X87848800Y-96867523D01*
X87848800Y-90987949D01*
X87851011Y-90965499D01*
X87848800Y-90943049D01*
X87848800Y-90943040D01*
X87842185Y-90875873D01*
X87816041Y-90789691D01*
X87789104Y-90739294D01*
X87773587Y-90710263D01*
X87730770Y-90658092D01*
X87716453Y-90640647D01*
X87699009Y-90626331D01*
X83565077Y-86492400D01*
X88218323Y-86492400D01*
X88932157Y-87206235D01*
X88932157Y-87886250D01*
X88944197Y-88008492D01*
X88979854Y-88126037D01*
X89037757Y-88234366D01*
X89115682Y-88329318D01*
X89210634Y-88407243D01*
X89318963Y-88465146D01*
X89436508Y-88500803D01*
X89558750Y-88512843D01*
X90046250Y-88512843D01*
X90168492Y-88500803D01*
X90286037Y-88465146D01*
X90394366Y-88407243D01*
X90489318Y-88329318D01*
X90567243Y-88234366D01*
X90625146Y-88126037D01*
X90660803Y-88008492D01*
X90672843Y-87886250D01*
X90672843Y-86973750D01*
X90660803Y-86851508D01*
X90625146Y-86733963D01*
X90567243Y-86625634D01*
X90489318Y-86530682D01*
X90394366Y-86452757D01*
X90286037Y-86394854D01*
X90168492Y-86359197D01*
X90046250Y-86347157D01*
X89558750Y-86347157D01*
X89436508Y-86359197D01*
X89391828Y-86372751D01*
X88746874Y-85727797D01*
X88732553Y-85710347D01*
X88662936Y-85653213D01*
X88583509Y-85610759D01*
X88497327Y-85584615D01*
X88430160Y-85578000D01*
X88430150Y-85578000D01*
X88407700Y-85575789D01*
X88385250Y-85578000D01*
X81386350Y-85578000D01*
X81363900Y-85575789D01*
X81341450Y-85578000D01*
X81341440Y-85578000D01*
X81274273Y-85584615D01*
X81208149Y-85604674D01*
X81188090Y-85610759D01*
X81108664Y-85653213D01*
X81056492Y-85696029D01*
X81056486Y-85696035D01*
X81039047Y-85710347D01*
X81024734Y-85727787D01*
X80411497Y-86341026D01*
X80394047Y-86355347D01*
X80336913Y-86424965D01*
X80294459Y-86504392D01*
X80268315Y-86590574D01*
X80261700Y-86657741D01*
X80261700Y-86657750D01*
X80259489Y-86680200D01*
X80261700Y-86702650D01*
X80261701Y-94138721D01*
X77115649Y-97284774D01*
X77013829Y-97305028D01*
X76908093Y-97348825D01*
X76812934Y-97412408D01*
X76732008Y-97493334D01*
X76668425Y-97588493D01*
X76624628Y-97694229D01*
X76602300Y-97806477D01*
X76602300Y-97920923D01*
X76624628Y-98033171D01*
X76668425Y-98138907D01*
X76732008Y-98234066D01*
X76812934Y-98314992D01*
X76908093Y-98378575D01*
X77013829Y-98422372D01*
X77126077Y-98444700D01*
X77240523Y-98444700D01*
X77352771Y-98422372D01*
X77458507Y-98378575D01*
X77553666Y-98314992D01*
X77634592Y-98234066D01*
X77698175Y-98138907D01*
X77741972Y-98033171D01*
X77762226Y-97931351D01*
X80738200Y-94955377D01*
X80738200Y-100854362D01*
X80727197Y-100847298D01*
X80524001Y-100775592D01*
X80357000Y-100902498D01*
X80357000Y-102093000D01*
X80377000Y-102093000D01*
X80377000Y-102347000D01*
X80357000Y-102347000D01*
X80357000Y-102367000D01*
X80103000Y-102367000D01*
X80103000Y-102347000D01*
X80083000Y-102347000D01*
X80083000Y-102093000D01*
X80103000Y-102093000D01*
X80103000Y-100902498D01*
X79935999Y-100775592D01*
X79732803Y-100847298D01*
X79552592Y-100962986D01*
X79398413Y-101111609D01*
X79398176Y-101111950D01*
X79279548Y-101048542D01*
X79122904Y-101001025D01*
X78960000Y-100984980D01*
X78797097Y-101001025D01*
X78640453Y-101048542D01*
X78496089Y-101125706D01*
X78369553Y-101229552D01*
X78325001Y-101283839D01*
X78280448Y-101229552D01*
X78153912Y-101125706D01*
X78147200Y-101122118D01*
X78147200Y-100902395D01*
X78183875Y-100847507D01*
X78227672Y-100741771D01*
X78250000Y-100629523D01*
X78250000Y-100515077D01*
X78227672Y-100402829D01*
X78183875Y-100297093D01*
X78120292Y-100201934D01*
X78039366Y-100121008D01*
X77944207Y-100057425D01*
X77838471Y-100013628D01*
X77726223Y-99991300D01*
X77611777Y-99991300D01*
X77499529Y-100013628D01*
X77393793Y-100057425D01*
X77298634Y-100121008D01*
X77217708Y-100201934D01*
X77154125Y-100297093D01*
X77110328Y-100402829D01*
X77088000Y-100515077D01*
X77088000Y-100629523D01*
X77110328Y-100741771D01*
X77154125Y-100847507D01*
X77217708Y-100942666D01*
X77232800Y-100957758D01*
X77232800Y-101122119D01*
X77226089Y-101125706D01*
X77099553Y-101229552D01*
X77055001Y-101283839D01*
X77010448Y-101229552D01*
X76883912Y-101125706D01*
X76739548Y-101048542D01*
X76582904Y-101001025D01*
X76420000Y-100984980D01*
X76257097Y-101001025D01*
X76100453Y-101048542D01*
X75956089Y-101125706D01*
X75829553Y-101229552D01*
X75785001Y-101283839D01*
X75740448Y-101229552D01*
X75613912Y-101125706D01*
X75469548Y-101048542D01*
X75312904Y-101001025D01*
X75150000Y-100984980D01*
X74987097Y-101001025D01*
X74830453Y-101048542D01*
X74686089Y-101125706D01*
X74559553Y-101229552D01*
X74515001Y-101283839D01*
X74470448Y-101229552D01*
X74426551Y-101193526D01*
X74580946Y-101039132D01*
X74641071Y-101027172D01*
X74746807Y-100983375D01*
X74808131Y-100942400D01*
X75997750Y-100942400D01*
X76020200Y-100944611D01*
X76042650Y-100942400D01*
X76042660Y-100942400D01*
X76109827Y-100935785D01*
X76196009Y-100909641D01*
X76275436Y-100867187D01*
X76345053Y-100810053D01*
X76359374Y-100792603D01*
X76437752Y-100714226D01*
X76539571Y-100693972D01*
X76645307Y-100650175D01*
X76740466Y-100586592D01*
X76821392Y-100505666D01*
X76884975Y-100410507D01*
X76928772Y-100304771D01*
X76951100Y-100192523D01*
X76951100Y-100078077D01*
X76928772Y-99965829D01*
X76884975Y-99860093D01*
X76821392Y-99764934D01*
X76740466Y-99684008D01*
X76645307Y-99620425D01*
X76539571Y-99576628D01*
X76427323Y-99554300D01*
X76312877Y-99554300D01*
X76200629Y-99576628D01*
X76097943Y-99619162D01*
X76106472Y-99598571D01*
X76128800Y-99486323D01*
X76128800Y-99371877D01*
X76106472Y-99259629D01*
X76062675Y-99153893D01*
X75999092Y-99058734D01*
X75918166Y-98977808D01*
X75837337Y-98923800D01*
X75865823Y-98923800D01*
X75978071Y-98901472D01*
X76083807Y-98857675D01*
X76178966Y-98794092D01*
X76259892Y-98713166D01*
X76323475Y-98618007D01*
X76367272Y-98512271D01*
X76389600Y-98400023D01*
X76389600Y-98285577D01*
X76367272Y-98173329D01*
X76323475Y-98067593D01*
X76259892Y-97972434D01*
X76178966Y-97891508D01*
X76083807Y-97827925D01*
X75978071Y-97784128D01*
X75865823Y-97761800D01*
X75751377Y-97761800D01*
X75639129Y-97784128D01*
X75533393Y-97827925D01*
X75447076Y-97885600D01*
X74845318Y-97885600D01*
X74866372Y-97834771D01*
X74888700Y-97722523D01*
X74888700Y-97608077D01*
X74866372Y-97495829D01*
X74822575Y-97390093D01*
X74758992Y-97294934D01*
X74678066Y-97214008D01*
X74592764Y-97157011D01*
X75530000Y-97158072D01*
X75654482Y-97145812D01*
X75774180Y-97109502D01*
X75884494Y-97050537D01*
X75981185Y-96971185D01*
X76060537Y-96874494D01*
X76119502Y-96764180D01*
X76155812Y-96644482D01*
X76168072Y-96520000D01*
X76165000Y-93805750D01*
X76006250Y-93647000D01*
X72657000Y-93647000D01*
X72657000Y-96996250D01*
X72815750Y-97155000D01*
X74023600Y-97156367D01*
X73946176Y-97208100D01*
X73520650Y-97208100D01*
X73498200Y-97205889D01*
X73475750Y-97208100D01*
X73475740Y-97208100D01*
X73408573Y-97214715D01*
X73322391Y-97240859D01*
X73242964Y-97283313D01*
X73173347Y-97340447D01*
X73159030Y-97357892D01*
X69762593Y-100754330D01*
X69745148Y-100768647D01*
X69730831Y-100786092D01*
X69730830Y-100786093D01*
X69688013Y-100838265D01*
X69660040Y-100890600D01*
X69645560Y-100917691D01*
X69619416Y-101003873D01*
X69612801Y-101071040D01*
X69610589Y-101093500D01*
X69612801Y-101115959D01*
X69612801Y-101122118D01*
X69606089Y-101125706D01*
X69479553Y-101229552D01*
X69435001Y-101283839D01*
X69390448Y-101229552D01*
X69263912Y-101125706D01*
X69257200Y-101122118D01*
X69257200Y-100470750D01*
X69259411Y-100448300D01*
X69257200Y-100425850D01*
X69257200Y-100425841D01*
X69250585Y-100358674D01*
X69224441Y-100272492D01*
X69181987Y-100193065D01*
X69124853Y-100123448D01*
X69107408Y-100109131D01*
X68146051Y-99147775D01*
X68131730Y-99130325D01*
X68062113Y-99073191D01*
X67982686Y-99030737D01*
X67896504Y-99004593D01*
X67829337Y-98997978D01*
X67829327Y-98997978D01*
X67806877Y-98995767D01*
X67784427Y-98997978D01*
X67285977Y-98997978D01*
X67263527Y-98995767D01*
X67241078Y-98997978D01*
X67241068Y-98997978D01*
X67173901Y-99004593D01*
X67087719Y-99030737D01*
X67017195Y-99068432D01*
X66946671Y-99030737D01*
X66860489Y-99004593D01*
X66793322Y-98997978D01*
X66793312Y-98997978D01*
X66770862Y-98995767D01*
X66748412Y-98997978D01*
X63421172Y-98997978D01*
X63398722Y-98995767D01*
X63376272Y-98997978D01*
X63376263Y-98997978D01*
X63309096Y-99004593D01*
X63222914Y-99030737D01*
X63164424Y-99062000D01*
X62357000Y-99062000D01*
X62357000Y-99082000D01*
X62103000Y-99082000D01*
X62103000Y-99062000D01*
X60912498Y-99062000D01*
X60785592Y-99229001D01*
X60791450Y-99245602D01*
X59390148Y-99245602D01*
X59367698Y-99243391D01*
X59345248Y-99245602D01*
X59345238Y-99245602D01*
X59278071Y-99252217D01*
X59211947Y-99272276D01*
X59191888Y-99278361D01*
X59112462Y-99320815D01*
X59060290Y-99363631D01*
X59060284Y-99363637D01*
X59042845Y-99377949D01*
X59028533Y-99395388D01*
X57230000Y-101193923D01*
X57230000Y-101092998D01*
X57064225Y-101092998D01*
X57187910Y-100890600D01*
X57157238Y-100789472D01*
X57049473Y-100556371D01*
X56898303Y-100348773D01*
X56709537Y-100174656D01*
X56544366Y-100073683D01*
X56670317Y-99970317D01*
X56802280Y-99809521D01*
X56900337Y-99626069D01*
X56960720Y-99427012D01*
X56981109Y-99220000D01*
X56960720Y-99012988D01*
X56900337Y-98813931D01*
X56802280Y-98630479D01*
X56670317Y-98469683D01*
X56509521Y-98337720D01*
X56326069Y-98239663D01*
X56261248Y-98220000D01*
X56326069Y-98200337D01*
X56509521Y-98102280D01*
X56670317Y-97970317D01*
X56802280Y-97809521D01*
X56900337Y-97626069D01*
X56960720Y-97427012D01*
X56981109Y-97220000D01*
X56960720Y-97012988D01*
X56900337Y-96813931D01*
X56818590Y-96660992D01*
X60179415Y-96660992D01*
X61013235Y-97494812D01*
X61011025Y-97502096D01*
X60994980Y-97665000D01*
X61011025Y-97827904D01*
X61058542Y-97984548D01*
X61121950Y-98103176D01*
X61121609Y-98103413D01*
X60972986Y-98257592D01*
X60857298Y-98437803D01*
X60785592Y-98640999D01*
X60912498Y-98808000D01*
X62103000Y-98808000D01*
X62103000Y-98788000D01*
X62357000Y-98788000D01*
X62357000Y-98808000D01*
X63547502Y-98808000D01*
X63674408Y-98640999D01*
X63602702Y-98437803D01*
X63487014Y-98257592D01*
X63338391Y-98103413D01*
X63338050Y-98103176D01*
X63401458Y-97984548D01*
X63448975Y-97827904D01*
X63465020Y-97665000D01*
X63448975Y-97502096D01*
X63401458Y-97345452D01*
X63324294Y-97201088D01*
X63220448Y-97074552D01*
X63166162Y-97030000D01*
X63220448Y-96985448D01*
X63324294Y-96858912D01*
X63401458Y-96714548D01*
X63448975Y-96557904D01*
X63450604Y-96541369D01*
X63468228Y-96629971D01*
X63512025Y-96735707D01*
X63575608Y-96830866D01*
X63656534Y-96911792D01*
X63751693Y-96975375D01*
X63857429Y-97019172D01*
X63969677Y-97041500D01*
X64071500Y-97041500D01*
X64071500Y-97151123D01*
X64093828Y-97263371D01*
X64137625Y-97369107D01*
X64201208Y-97464266D01*
X64282134Y-97545192D01*
X64377293Y-97608775D01*
X64483029Y-97652572D01*
X64595277Y-97674900D01*
X64709723Y-97674900D01*
X64821971Y-97652572D01*
X64927707Y-97608775D01*
X65022866Y-97545192D01*
X65103792Y-97464266D01*
X65167375Y-97369107D01*
X65211172Y-97263371D01*
X65233500Y-97151123D01*
X65233500Y-97036677D01*
X65211172Y-96924429D01*
X65167375Y-96818693D01*
X65109700Y-96732376D01*
X65109700Y-96383876D01*
X65156471Y-96374572D01*
X65262207Y-96330775D01*
X65357366Y-96267192D01*
X65419140Y-96205418D01*
X65405125Y-96226393D01*
X65361328Y-96332129D01*
X65339000Y-96444377D01*
X65339000Y-96558823D01*
X65361328Y-96671071D01*
X65405125Y-96776807D01*
X65468708Y-96871966D01*
X65549634Y-96952892D01*
X65644793Y-97016475D01*
X65750529Y-97060272D01*
X65862777Y-97082600D01*
X65977223Y-97082600D01*
X66089471Y-97060272D01*
X66195207Y-97016475D01*
X66290366Y-96952892D01*
X66371292Y-96871966D01*
X66434875Y-96776807D01*
X66478672Y-96671071D01*
X66501000Y-96558823D01*
X66501000Y-96520000D01*
X68891928Y-96520000D01*
X68904188Y-96644482D01*
X68940498Y-96764180D01*
X68999463Y-96874494D01*
X69078815Y-96971185D01*
X69175506Y-97050537D01*
X69285820Y-97109502D01*
X69405518Y-97145812D01*
X69530000Y-97158072D01*
X72244250Y-97155000D01*
X72403000Y-96996250D01*
X72403000Y-93647000D01*
X69053750Y-93647000D01*
X68895000Y-93805750D01*
X68891928Y-96520000D01*
X66501000Y-96520000D01*
X66501000Y-96444377D01*
X66478672Y-96332129D01*
X66434875Y-96226393D01*
X66377200Y-96140076D01*
X66377200Y-95944437D01*
X66401808Y-95981266D01*
X66482734Y-96062192D01*
X66577893Y-96125775D01*
X66683629Y-96169572D01*
X66795877Y-96191900D01*
X66910323Y-96191900D01*
X67022571Y-96169572D01*
X67128307Y-96125775D01*
X67223466Y-96062192D01*
X67304392Y-95981266D01*
X67367975Y-95886107D01*
X67411772Y-95780371D01*
X67434100Y-95668123D01*
X67434100Y-95553677D01*
X67411772Y-95441429D01*
X67367975Y-95335693D01*
X67310300Y-95249376D01*
X67310300Y-92444377D01*
X68284601Y-91470077D01*
X68284600Y-92173776D01*
X68226925Y-92260093D01*
X68183128Y-92365829D01*
X68160800Y-92478077D01*
X68160800Y-92592523D01*
X68183128Y-92704771D01*
X68226925Y-92810507D01*
X68290508Y-92905666D01*
X68371434Y-92986592D01*
X68466593Y-93050175D01*
X68572329Y-93093972D01*
X68684577Y-93116300D01*
X68799023Y-93116300D01*
X68894845Y-93097239D01*
X68895000Y-93234250D01*
X69053750Y-93393000D01*
X72403000Y-93393000D01*
X72403000Y-90043750D01*
X72657000Y-90043750D01*
X72657000Y-93393000D01*
X76006250Y-93393000D01*
X76165000Y-93234250D01*
X76168072Y-90520000D01*
X76155812Y-90395518D01*
X76119502Y-90275820D01*
X76060537Y-90165506D01*
X75981185Y-90068815D01*
X75884494Y-89989463D01*
X75774180Y-89930498D01*
X75654482Y-89894188D01*
X75530000Y-89881928D01*
X72815750Y-89885000D01*
X72657000Y-90043750D01*
X72403000Y-90043750D01*
X72244250Y-89885000D01*
X70370698Y-89882880D01*
X73604678Y-86648900D01*
X76822350Y-86648900D01*
X76844800Y-86651111D01*
X76867250Y-86648900D01*
X76867260Y-86648900D01*
X76934427Y-86642285D01*
X77020609Y-86616141D01*
X77100036Y-86573687D01*
X77169653Y-86516553D01*
X77183974Y-86499103D01*
X77997408Y-85685670D01*
X78014853Y-85671353D01*
X78029740Y-85653213D01*
X78071987Y-85601737D01*
X78107799Y-85534735D01*
X78114441Y-85522309D01*
X78140585Y-85436127D01*
X78147200Y-85368960D01*
X78147200Y-85368951D01*
X78149411Y-85346501D01*
X78147200Y-85324051D01*
X78147200Y-85317881D01*
X78153911Y-85314294D01*
X78280448Y-85210448D01*
X78325000Y-85156161D01*
X78369552Y-85210448D01*
X78496088Y-85314294D01*
X78502800Y-85317882D01*
X78502800Y-85638122D01*
X76037649Y-88103274D01*
X75935829Y-88123528D01*
X75830093Y-88167325D01*
X75734934Y-88230908D01*
X75654008Y-88311834D01*
X75590425Y-88406993D01*
X75546628Y-88512729D01*
X75524300Y-88624977D01*
X75524300Y-88739423D01*
X75546628Y-88851671D01*
X75590425Y-88957407D01*
X75654008Y-89052566D01*
X75734934Y-89133492D01*
X75830093Y-89197075D01*
X75935829Y-89240872D01*
X76048077Y-89263200D01*
X76162523Y-89263200D01*
X76274771Y-89240872D01*
X76380507Y-89197075D01*
X76475666Y-89133492D01*
X76556592Y-89052566D01*
X76620175Y-88957407D01*
X76663972Y-88851671D01*
X76684226Y-88749851D01*
X79267409Y-86166669D01*
X79284853Y-86152353D01*
X79302777Y-86130513D01*
X79341987Y-86082737D01*
X79384440Y-86003310D01*
X79384441Y-86003309D01*
X79410585Y-85917127D01*
X79417200Y-85849960D01*
X79417200Y-85849951D01*
X79419411Y-85827501D01*
X79417200Y-85805051D01*
X79417200Y-85346501D01*
X79552592Y-85477014D01*
X79732803Y-85592702D01*
X79935999Y-85664408D01*
X80103000Y-85537502D01*
X80103000Y-84347000D01*
X80357000Y-84347000D01*
X80357000Y-85537502D01*
X80524001Y-85664408D01*
X80727197Y-85592702D01*
X80907408Y-85477014D01*
X81061587Y-85328391D01*
X81183809Y-85152545D01*
X81213250Y-85085000D01*
X93221928Y-85085000D01*
X93225000Y-86049250D01*
X93383750Y-86208000D01*
X95233000Y-86208000D01*
X95233000Y-84608750D01*
X95074250Y-84450000D01*
X93860000Y-84446928D01*
X93735518Y-84459188D01*
X93615820Y-84495498D01*
X93505506Y-84554463D01*
X93408815Y-84633815D01*
X93329463Y-84730506D01*
X93270498Y-84840820D01*
X93234188Y-84960518D01*
X93221928Y-85085000D01*
X81213250Y-85085000D01*
X81269376Y-84956233D01*
X81315000Y-84747000D01*
X81315000Y-84347000D01*
X80357000Y-84347000D01*
X80103000Y-84347000D01*
X80083000Y-84347000D01*
X80083000Y-84093000D01*
X80103000Y-84093000D01*
X80103000Y-82902498D01*
X80357000Y-82902498D01*
X80357000Y-84093000D01*
X81315000Y-84093000D01*
X81315000Y-83693000D01*
X81303444Y-83640000D01*
X82881928Y-83640000D01*
X82894188Y-83764482D01*
X82930498Y-83884180D01*
X82989463Y-83994494D01*
X83068815Y-84091185D01*
X83165506Y-84170537D01*
X83275820Y-84229502D01*
X83395518Y-84265812D01*
X83520000Y-84278072D01*
X84134250Y-84275000D01*
X84293000Y-84116250D01*
X84293000Y-82867000D01*
X83043750Y-82867000D01*
X82885000Y-83025750D01*
X82881928Y-83640000D01*
X81303444Y-83640000D01*
X81269376Y-83483767D01*
X81183809Y-83287455D01*
X81061587Y-83111609D01*
X80907408Y-82962986D01*
X80727197Y-82847298D01*
X80524001Y-82775592D01*
X80357000Y-82902498D01*
X80103000Y-82902498D01*
X79935999Y-82775592D01*
X79732803Y-82847298D01*
X79552592Y-82962986D01*
X79398413Y-83111609D01*
X79398176Y-83111950D01*
X79279548Y-83048542D01*
X79122904Y-83001025D01*
X78960000Y-82984980D01*
X78906999Y-82990200D01*
X78906000Y-82980059D01*
X78906000Y-81840000D01*
X82881928Y-81840000D01*
X82885000Y-82454250D01*
X83043750Y-82613000D01*
X84293000Y-82613000D01*
X84293000Y-81363750D01*
X84547000Y-81363750D01*
X84547000Y-82613000D01*
X84567000Y-82613000D01*
X84567000Y-82867000D01*
X84547000Y-82867000D01*
X84547000Y-84116250D01*
X84705750Y-84275000D01*
X85320000Y-84278072D01*
X85444482Y-84265812D01*
X85564180Y-84229502D01*
X85674494Y-84170537D01*
X85771185Y-84091185D01*
X85850537Y-83994494D01*
X85909502Y-83884180D01*
X85945812Y-83764482D01*
X85958072Y-83640000D01*
X85957600Y-83545541D01*
X85964982Y-83556590D01*
X86143410Y-83735018D01*
X86353219Y-83875207D01*
X86586346Y-83971772D01*
X86833833Y-84021000D01*
X87086167Y-84021000D01*
X87333654Y-83971772D01*
X87566781Y-83875207D01*
X87776590Y-83735018D01*
X87955018Y-83556590D01*
X88087003Y-83359059D01*
X89569000Y-83359059D01*
X89569000Y-83640941D01*
X89623993Y-83917407D01*
X89731864Y-84177833D01*
X89888470Y-84412209D01*
X90087791Y-84611530D01*
X90322167Y-84768136D01*
X90582593Y-84876007D01*
X90859059Y-84931000D01*
X91140941Y-84931000D01*
X91417407Y-84876007D01*
X91677833Y-84768136D01*
X91912209Y-84611530D01*
X92111530Y-84412209D01*
X92268136Y-84177833D01*
X92376007Y-83917407D01*
X92431000Y-83640941D01*
X92431000Y-83359059D01*
X92376007Y-83082593D01*
X92268136Y-82822167D01*
X92111530Y-82587791D01*
X91912209Y-82388470D01*
X91677833Y-82231864D01*
X91417407Y-82123993D01*
X91140941Y-82069000D01*
X90859059Y-82069000D01*
X90582593Y-82123993D01*
X90322167Y-82231864D01*
X90087791Y-82388470D01*
X89888470Y-82587791D01*
X89731864Y-82822167D01*
X89623993Y-83082593D01*
X89569000Y-83359059D01*
X88087003Y-83359059D01*
X88095207Y-83346781D01*
X88191772Y-83113654D01*
X88241000Y-82866167D01*
X88241000Y-82613833D01*
X88191772Y-82366346D01*
X88095207Y-82133219D01*
X87955018Y-81923410D01*
X87776590Y-81744982D01*
X87566781Y-81604793D01*
X87333654Y-81508228D01*
X87086167Y-81459000D01*
X86833833Y-81459000D01*
X86586346Y-81508228D01*
X86353219Y-81604793D01*
X86143410Y-81744982D01*
X85964982Y-81923410D01*
X85957600Y-81934459D01*
X85958072Y-81840000D01*
X85945812Y-81715518D01*
X85909502Y-81595820D01*
X85850537Y-81485506D01*
X85771185Y-81388815D01*
X85674494Y-81309463D01*
X85564180Y-81250498D01*
X85444482Y-81214188D01*
X85320000Y-81201928D01*
X84705750Y-81205000D01*
X84547000Y-81363750D01*
X84293000Y-81363750D01*
X84134250Y-81205000D01*
X83520000Y-81201928D01*
X83395518Y-81214188D01*
X83275820Y-81250498D01*
X83165506Y-81309463D01*
X83068815Y-81388815D01*
X82989463Y-81485506D01*
X82930498Y-81595820D01*
X82894188Y-81715518D01*
X82881928Y-81840000D01*
X78906000Y-81840000D01*
X78906000Y-80406000D01*
X95198325Y-80406000D01*
X95013393Y-80762772D01*
G36*
X81747593Y-87250275D02*
G01*
X81853329Y-87294072D01*
X81955149Y-87314326D01*
X86332801Y-91691979D01*
X86332800Y-103361959D01*
X86318492Y-103366299D01*
X86252304Y-103401678D01*
X86194289Y-103449289D01*
X86146678Y-103507304D01*
X86111299Y-103573492D01*
X86089513Y-103645311D01*
X86082157Y-103720000D01*
X86082157Y-104120000D01*
X86089513Y-104194689D01*
X86104775Y-104245000D01*
X86089513Y-104295311D01*
X86082157Y-104370000D01*
X86082157Y-104762800D01*
X85747843Y-104762800D01*
X85747843Y-104523750D01*
X85735803Y-104401508D01*
X85700146Y-104283963D01*
X85642243Y-104175634D01*
X85564318Y-104080682D01*
X85469366Y-104002757D01*
X85361037Y-103944854D01*
X85243492Y-103909197D01*
X85121250Y-103897157D01*
X84633750Y-103897157D01*
X84511508Y-103909197D01*
X84466828Y-103922750D01*
X82215400Y-101671323D01*
X82215400Y-99904024D01*
X82273075Y-99817707D01*
X82316872Y-99711971D01*
X82339200Y-99599723D01*
X82339200Y-99485277D01*
X82316872Y-99373029D01*
X82273075Y-99267293D01*
X82209492Y-99172134D01*
X82128566Y-99091208D01*
X82033407Y-99027625D01*
X81927671Y-98983828D01*
X81815423Y-98961500D01*
X81700977Y-98961500D01*
X81652600Y-98971123D01*
X81652600Y-87239124D01*
X81676769Y-87202952D01*
X81747593Y-87250275D01*
X81747593Y-87250275D01*
G37*
X81747593Y-87250275D02*
X81853329Y-87294072D01*
X81955149Y-87314326D01*
X86332801Y-91691979D01*
X86332800Y-103361959D01*
X86318492Y-103366299D01*
X86252304Y-103401678D01*
X86194289Y-103449289D01*
X86146678Y-103507304D01*
X86111299Y-103573492D01*
X86089513Y-103645311D01*
X86082157Y-103720000D01*
X86082157Y-104120000D01*
X86089513Y-104194689D01*
X86104775Y-104245000D01*
X86089513Y-104295311D01*
X86082157Y-104370000D01*
X86082157Y-104762800D01*
X85747843Y-104762800D01*
X85747843Y-104523750D01*
X85735803Y-104401508D01*
X85700146Y-104283963D01*
X85642243Y-104175634D01*
X85564318Y-104080682D01*
X85469366Y-104002757D01*
X85361037Y-103944854D01*
X85243492Y-103909197D01*
X85121250Y-103897157D01*
X84633750Y-103897157D01*
X84511508Y-103909197D01*
X84466828Y-103922750D01*
X82215400Y-101671323D01*
X82215400Y-99904024D01*
X82273075Y-99817707D01*
X82316872Y-99711971D01*
X82339200Y-99599723D01*
X82339200Y-99485277D01*
X82316872Y-99373029D01*
X82273075Y-99267293D01*
X82209492Y-99172134D01*
X82128566Y-99091208D01*
X82033407Y-99027625D01*
X81927671Y-98983828D01*
X81815423Y-98961500D01*
X81700977Y-98961500D01*
X81652600Y-98971123D01*
X81652600Y-87239124D01*
X81676769Y-87202952D01*
X81747593Y-87250275D01*
G36*
X63112425Y-100206586D02*
G01*
X63170100Y-100292903D01*
X63170100Y-100434850D01*
X63167889Y-100457300D01*
X63170100Y-100479750D01*
X63170100Y-100479759D01*
X63176715Y-100546926D01*
X63202859Y-100633108D01*
X63245313Y-100712535D01*
X63302447Y-100782153D01*
X63319897Y-100796474D01*
X63532047Y-101008624D01*
X63400453Y-101048542D01*
X63256089Y-101125706D01*
X63129553Y-101229552D01*
X63025707Y-101356088D01*
X62948543Y-101500452D01*
X62901026Y-101657096D01*
X62889000Y-101779185D01*
X62889000Y-102660814D01*
X62901025Y-102782903D01*
X62948542Y-102939547D01*
X63025706Y-103083911D01*
X63129552Y-103210448D01*
X63256088Y-103314294D01*
X63282982Y-103328669D01*
X63239873Y-103332915D01*
X63153691Y-103359059D01*
X63140146Y-103366299D01*
X63074263Y-103401513D01*
X63034450Y-103434188D01*
X63004647Y-103458647D01*
X62990330Y-103476092D01*
X62093623Y-104372800D01*
X57798378Y-104372800D01*
X56097578Y-102672000D01*
X56833250Y-102672000D01*
X56855700Y-102674211D01*
X56878150Y-102672000D01*
X56878160Y-102672000D01*
X56945327Y-102665385D01*
X57031509Y-102639241D01*
X57110936Y-102596787D01*
X57156907Y-102559059D01*
X57769000Y-102559059D01*
X57769000Y-102840941D01*
X57823993Y-103117407D01*
X57931864Y-103377833D01*
X58088470Y-103612209D01*
X58287791Y-103811530D01*
X58522167Y-103968136D01*
X58782593Y-104076007D01*
X59059059Y-104131000D01*
X59340941Y-104131000D01*
X59617407Y-104076007D01*
X59877833Y-103968136D01*
X60112209Y-103811530D01*
X60311530Y-103612209D01*
X60468136Y-103377833D01*
X60576007Y-103117407D01*
X60631000Y-102840941D01*
X60631000Y-102559059D01*
X60576007Y-102282593D01*
X60468136Y-102022167D01*
X60311530Y-101787791D01*
X60112209Y-101588470D01*
X59877833Y-101431864D01*
X59617407Y-101323993D01*
X59340941Y-101269000D01*
X59059059Y-101269000D01*
X58782593Y-101323993D01*
X58522167Y-101431864D01*
X58287791Y-101588470D01*
X58088470Y-101787791D01*
X57931864Y-102022167D01*
X57823993Y-102282593D01*
X57769000Y-102559059D01*
X57156907Y-102559059D01*
X57180553Y-102539653D01*
X57194874Y-102522203D01*
X59557077Y-100160002D01*
X63093129Y-100160002D01*
X63112425Y-100206586D01*
X63112425Y-100206586D01*
G37*
X63112425Y-100206586D02*
X63170100Y-100292903D01*
X63170100Y-100434850D01*
X63167889Y-100457300D01*
X63170100Y-100479750D01*
X63170100Y-100479759D01*
X63176715Y-100546926D01*
X63202859Y-100633108D01*
X63245313Y-100712535D01*
X63302447Y-100782153D01*
X63319897Y-100796474D01*
X63532047Y-101008624D01*
X63400453Y-101048542D01*
X63256089Y-101125706D01*
X63129553Y-101229552D01*
X63025707Y-101356088D01*
X62948543Y-101500452D01*
X62901026Y-101657096D01*
X62889000Y-101779185D01*
X62889000Y-102660814D01*
X62901025Y-102782903D01*
X62948542Y-102939547D01*
X63025706Y-103083911D01*
X63129552Y-103210448D01*
X63256088Y-103314294D01*
X63282982Y-103328669D01*
X63239873Y-103332915D01*
X63153691Y-103359059D01*
X63140146Y-103366299D01*
X63074263Y-103401513D01*
X63034450Y-103434188D01*
X63004647Y-103458647D01*
X62990330Y-103476092D01*
X62093623Y-104372800D01*
X57798378Y-104372800D01*
X56097578Y-102672000D01*
X56833250Y-102672000D01*
X56855700Y-102674211D01*
X56878150Y-102672000D01*
X56878160Y-102672000D01*
X56945327Y-102665385D01*
X57031509Y-102639241D01*
X57110936Y-102596787D01*
X57156907Y-102559059D01*
X57769000Y-102559059D01*
X57769000Y-102840941D01*
X57823993Y-103117407D01*
X57931864Y-103377833D01*
X58088470Y-103612209D01*
X58287791Y-103811530D01*
X58522167Y-103968136D01*
X58782593Y-104076007D01*
X59059059Y-104131000D01*
X59340941Y-104131000D01*
X59617407Y-104076007D01*
X59877833Y-103968136D01*
X60112209Y-103811530D01*
X60311530Y-103612209D01*
X60468136Y-103377833D01*
X60576007Y-103117407D01*
X60631000Y-102840941D01*
X60631000Y-102559059D01*
X60576007Y-102282593D01*
X60468136Y-102022167D01*
X60311530Y-101787791D01*
X60112209Y-101588470D01*
X59877833Y-101431864D01*
X59617407Y-101323993D01*
X59340941Y-101269000D01*
X59059059Y-101269000D01*
X58782593Y-101323993D01*
X58522167Y-101431864D01*
X58287791Y-101588470D01*
X58088470Y-101787791D01*
X57931864Y-102022167D01*
X57823993Y-102282593D01*
X57769000Y-102559059D01*
X57156907Y-102559059D01*
X57180553Y-102539653D01*
X57194874Y-102522203D01*
X59557077Y-100160002D01*
X63093129Y-100160002D01*
X63112425Y-100206586D01*
G36*
X56047000Y-101093000D02*
G01*
X56067000Y-101093000D01*
X56067000Y-101347000D01*
X56047000Y-101347000D01*
X56047000Y-101367000D01*
X55793000Y-101367000D01*
X55793000Y-101347000D01*
X55773000Y-101347000D01*
X55773000Y-101093000D01*
X55793000Y-101093000D01*
X55793000Y-101073000D01*
X56047000Y-101073000D01*
X56047000Y-101093000D01*
X56047000Y-101093000D01*
G37*
X56047000Y-101093000D02*
X56067000Y-101093000D01*
X56067000Y-101347000D01*
X56047000Y-101347000D01*
X56047000Y-101367000D01*
X55793000Y-101367000D01*
X55793000Y-101347000D01*
X55773000Y-101347000D01*
X55773000Y-101093000D01*
X55793000Y-101093000D01*
X55793000Y-101073000D01*
X56047000Y-101073000D01*
X56047000Y-101093000D01*
G36*
X62889000Y-84660814D02*
G01*
X62901025Y-84782903D01*
X62948542Y-84939547D01*
X63025706Y-85083911D01*
X63129552Y-85210448D01*
X63256088Y-85314294D01*
X63400452Y-85391458D01*
X63557096Y-85438975D01*
X63720000Y-85455020D01*
X63882903Y-85438975D01*
X64039547Y-85391458D01*
X64183911Y-85314294D01*
X64310448Y-85210448D01*
X64355000Y-85156161D01*
X64399552Y-85210448D01*
X64526088Y-85314294D01*
X64532801Y-85317882D01*
X64532801Y-85324041D01*
X64530589Y-85346500D01*
X64532801Y-85368960D01*
X64539416Y-85436127D01*
X64559595Y-85502647D01*
X64565560Y-85522309D01*
X64608013Y-85601735D01*
X64650261Y-85653213D01*
X64665148Y-85671353D01*
X64665693Y-85671800D01*
X62162849Y-85671800D01*
X62140399Y-85669589D01*
X62117949Y-85671800D01*
X62117940Y-85671800D01*
X62050773Y-85678415D01*
X61964591Y-85704559D01*
X61915512Y-85730792D01*
X61885164Y-85747013D01*
X61837451Y-85786171D01*
X61815547Y-85804147D01*
X61801230Y-85821592D01*
X60649193Y-86973630D01*
X60631748Y-86987947D01*
X60617431Y-87005392D01*
X60617430Y-87005393D01*
X60574613Y-87057565D01*
X60532160Y-87136991D01*
X60506016Y-87223174D01*
X60497189Y-87312800D01*
X60499401Y-87335260D01*
X60499400Y-94403776D01*
X60441725Y-94490093D01*
X60397928Y-94595829D01*
X60375600Y-94708077D01*
X60375600Y-94822523D01*
X60397928Y-94934771D01*
X60441725Y-95040507D01*
X60505308Y-95135666D01*
X60586234Y-95216592D01*
X60681393Y-95280175D01*
X60787129Y-95323972D01*
X60899377Y-95346300D01*
X61013823Y-95346300D01*
X61027890Y-95343502D01*
X61058542Y-95444548D01*
X61135706Y-95588912D01*
X61239552Y-95715448D01*
X61293838Y-95760000D01*
X61239552Y-95804552D01*
X61135706Y-95931088D01*
X61058542Y-96075452D01*
X61018624Y-96207046D01*
X60707966Y-95896389D01*
X60693645Y-95878939D01*
X60624028Y-95821805D01*
X60544601Y-95779351D01*
X60458419Y-95753207D01*
X60391252Y-95746592D01*
X60391242Y-95746592D01*
X60368792Y-95744381D01*
X60346342Y-95746592D01*
X56835916Y-95746592D01*
X56900337Y-95626069D01*
X56960720Y-95427012D01*
X56981109Y-95220000D01*
X56960720Y-95012988D01*
X56900337Y-94813931D01*
X56802280Y-94630479D01*
X56670317Y-94469683D01*
X56509521Y-94337720D01*
X56326069Y-94239663D01*
X56261248Y-94220000D01*
X56326069Y-94200337D01*
X56509521Y-94102280D01*
X56670317Y-93970317D01*
X56802280Y-93809521D01*
X56900337Y-93626069D01*
X56960720Y-93427012D01*
X56981109Y-93220000D01*
X56960720Y-93012988D01*
X56900337Y-92813931D01*
X56802280Y-92630479D01*
X56670317Y-92469683D01*
X56509521Y-92337720D01*
X56326069Y-92239663D01*
X56261248Y-92220000D01*
X56326069Y-92200337D01*
X56509521Y-92102280D01*
X56670317Y-91970317D01*
X56802280Y-91809521D01*
X56900337Y-91626069D01*
X56960720Y-91427012D01*
X56981109Y-91220000D01*
X56960720Y-91012988D01*
X56900337Y-90813931D01*
X56802280Y-90630479D01*
X56670317Y-90469683D01*
X56509521Y-90337720D01*
X56326069Y-90239663D01*
X56261248Y-90220000D01*
X56326069Y-90200337D01*
X56509521Y-90102280D01*
X56670317Y-89970317D01*
X56802280Y-89809521D01*
X56900337Y-89626069D01*
X56960720Y-89427012D01*
X56981109Y-89220000D01*
X56960720Y-89012988D01*
X56900337Y-88813931D01*
X56802280Y-88630479D01*
X56694873Y-88499604D01*
X59557408Y-85637070D01*
X59574853Y-85622753D01*
X59592101Y-85601737D01*
X59612855Y-85576448D01*
X59703963Y-85625146D01*
X59821508Y-85660803D01*
X59943750Y-85672843D01*
X60431250Y-85672843D01*
X60553492Y-85660803D01*
X60671037Y-85625146D01*
X60779366Y-85567243D01*
X60874318Y-85489318D01*
X60952243Y-85394366D01*
X61010146Y-85286037D01*
X61045803Y-85168492D01*
X61057749Y-85047200D01*
X61877350Y-85047200D01*
X61899800Y-85049411D01*
X61922250Y-85047200D01*
X61922260Y-85047200D01*
X61989427Y-85040585D01*
X62075609Y-85014441D01*
X62155036Y-84971987D01*
X62224653Y-84914853D01*
X62238974Y-84897403D01*
X62445052Y-84691326D01*
X62546871Y-84671072D01*
X62652607Y-84627275D01*
X62738924Y-84569600D01*
X62889000Y-84569600D01*
X62889000Y-84660814D01*
X62889000Y-84660814D01*
G37*
X62889000Y-84660814D02*
X62901025Y-84782903D01*
X62948542Y-84939547D01*
X63025706Y-85083911D01*
X63129552Y-85210448D01*
X63256088Y-85314294D01*
X63400452Y-85391458D01*
X63557096Y-85438975D01*
X63720000Y-85455020D01*
X63882903Y-85438975D01*
X64039547Y-85391458D01*
X64183911Y-85314294D01*
X64310448Y-85210448D01*
X64355000Y-85156161D01*
X64399552Y-85210448D01*
X64526088Y-85314294D01*
X64532801Y-85317882D01*
X64532801Y-85324041D01*
X64530589Y-85346500D01*
X64532801Y-85368960D01*
X64539416Y-85436127D01*
X64559595Y-85502647D01*
X64565560Y-85522309D01*
X64608013Y-85601735D01*
X64650261Y-85653213D01*
X64665148Y-85671353D01*
X64665693Y-85671800D01*
X62162849Y-85671800D01*
X62140399Y-85669589D01*
X62117949Y-85671800D01*
X62117940Y-85671800D01*
X62050773Y-85678415D01*
X61964591Y-85704559D01*
X61915512Y-85730792D01*
X61885164Y-85747013D01*
X61837451Y-85786171D01*
X61815547Y-85804147D01*
X61801230Y-85821592D01*
X60649193Y-86973630D01*
X60631748Y-86987947D01*
X60617431Y-87005392D01*
X60617430Y-87005393D01*
X60574613Y-87057565D01*
X60532160Y-87136991D01*
X60506016Y-87223174D01*
X60497189Y-87312800D01*
X60499401Y-87335260D01*
X60499400Y-94403776D01*
X60441725Y-94490093D01*
X60397928Y-94595829D01*
X60375600Y-94708077D01*
X60375600Y-94822523D01*
X60397928Y-94934771D01*
X60441725Y-95040507D01*
X60505308Y-95135666D01*
X60586234Y-95216592D01*
X60681393Y-95280175D01*
X60787129Y-95323972D01*
X60899377Y-95346300D01*
X61013823Y-95346300D01*
X61027890Y-95343502D01*
X61058542Y-95444548D01*
X61135706Y-95588912D01*
X61239552Y-95715448D01*
X61293838Y-95760000D01*
X61239552Y-95804552D01*
X61135706Y-95931088D01*
X61058542Y-96075452D01*
X61018624Y-96207046D01*
X60707966Y-95896389D01*
X60693645Y-95878939D01*
X60624028Y-95821805D01*
X60544601Y-95779351D01*
X60458419Y-95753207D01*
X60391252Y-95746592D01*
X60391242Y-95746592D01*
X60368792Y-95744381D01*
X60346342Y-95746592D01*
X56835916Y-95746592D01*
X56900337Y-95626069D01*
X56960720Y-95427012D01*
X56981109Y-95220000D01*
X56960720Y-95012988D01*
X56900337Y-94813931D01*
X56802280Y-94630479D01*
X56670317Y-94469683D01*
X56509521Y-94337720D01*
X56326069Y-94239663D01*
X56261248Y-94220000D01*
X56326069Y-94200337D01*
X56509521Y-94102280D01*
X56670317Y-93970317D01*
X56802280Y-93809521D01*
X56900337Y-93626069D01*
X56960720Y-93427012D01*
X56981109Y-93220000D01*
X56960720Y-93012988D01*
X56900337Y-92813931D01*
X56802280Y-92630479D01*
X56670317Y-92469683D01*
X56509521Y-92337720D01*
X56326069Y-92239663D01*
X56261248Y-92220000D01*
X56326069Y-92200337D01*
X56509521Y-92102280D01*
X56670317Y-91970317D01*
X56802280Y-91809521D01*
X56900337Y-91626069D01*
X56960720Y-91427012D01*
X56981109Y-91220000D01*
X56960720Y-91012988D01*
X56900337Y-90813931D01*
X56802280Y-90630479D01*
X56670317Y-90469683D01*
X56509521Y-90337720D01*
X56326069Y-90239663D01*
X56261248Y-90220000D01*
X56326069Y-90200337D01*
X56509521Y-90102280D01*
X56670317Y-89970317D01*
X56802280Y-89809521D01*
X56900337Y-89626069D01*
X56960720Y-89427012D01*
X56981109Y-89220000D01*
X56960720Y-89012988D01*
X56900337Y-88813931D01*
X56802280Y-88630479D01*
X56694873Y-88499604D01*
X59557408Y-85637070D01*
X59574853Y-85622753D01*
X59592101Y-85601737D01*
X59612855Y-85576448D01*
X59703963Y-85625146D01*
X59821508Y-85660803D01*
X59943750Y-85672843D01*
X60431250Y-85672843D01*
X60553492Y-85660803D01*
X60671037Y-85625146D01*
X60779366Y-85567243D01*
X60874318Y-85489318D01*
X60952243Y-85394366D01*
X61010146Y-85286037D01*
X61045803Y-85168492D01*
X61057749Y-85047200D01*
X61877350Y-85047200D01*
X61899800Y-85049411D01*
X61922250Y-85047200D01*
X61922260Y-85047200D01*
X61989427Y-85040585D01*
X62075609Y-85014441D01*
X62155036Y-84971987D01*
X62224653Y-84914853D01*
X62238974Y-84897403D01*
X62445052Y-84691326D01*
X62546871Y-84671072D01*
X62652607Y-84627275D01*
X62738924Y-84569600D01*
X62889000Y-84569600D01*
X62889000Y-84660814D01*
G36*
X71094001Y-80941435D02*
G01*
X71011227Y-80851697D01*
X70803629Y-80700527D01*
X70570528Y-80592762D01*
X70469400Y-80562090D01*
X70267000Y-80685776D01*
X70267000Y-81703000D01*
X70287000Y-81703000D01*
X70287000Y-81957000D01*
X70267000Y-81957000D01*
X70267000Y-81977000D01*
X70013000Y-81977000D01*
X70013000Y-81957000D01*
X69993000Y-81957000D01*
X69993000Y-81703000D01*
X70013000Y-81703000D01*
X70013000Y-80685776D01*
X69810600Y-80562090D01*
X69709472Y-80592762D01*
X69476371Y-80700527D01*
X69268773Y-80851697D01*
X69094656Y-81040463D01*
X68993683Y-81205634D01*
X68890317Y-81079683D01*
X68729521Y-80947720D01*
X68546069Y-80849663D01*
X68347012Y-80789280D01*
X68191872Y-80774000D01*
X68088128Y-80774000D01*
X67932988Y-80789280D01*
X67733931Y-80849663D01*
X67550479Y-80947720D01*
X67389683Y-81079683D01*
X67257720Y-81240479D01*
X67159663Y-81423931D01*
X67140000Y-81488752D01*
X67120337Y-81423931D01*
X67022280Y-81240479D01*
X66890317Y-81079683D01*
X66729521Y-80947720D01*
X66546069Y-80849663D01*
X66347012Y-80789280D01*
X66191872Y-80774000D01*
X66088128Y-80774000D01*
X65932988Y-80789280D01*
X65733931Y-80849663D01*
X65550479Y-80947720D01*
X65389683Y-81079683D01*
X65257720Y-81240479D01*
X65159663Y-81423931D01*
X65140000Y-81488752D01*
X65120337Y-81423931D01*
X65022280Y-81240479D01*
X64890317Y-81079683D01*
X64729521Y-80947720D01*
X64546069Y-80849663D01*
X64347012Y-80789280D01*
X64191872Y-80774000D01*
X64088128Y-80774000D01*
X63932988Y-80789280D01*
X63733931Y-80849663D01*
X63550479Y-80947720D01*
X63389683Y-81079683D01*
X63257720Y-81240479D01*
X63188157Y-81370622D01*
X63166040Y-81372800D01*
X63098873Y-81379415D01*
X63096868Y-81380023D01*
X63022280Y-81240479D01*
X62890317Y-81079683D01*
X62729521Y-80947720D01*
X62546069Y-80849663D01*
X62347012Y-80789280D01*
X62191872Y-80774000D01*
X62088128Y-80774000D01*
X61932988Y-80789280D01*
X61789411Y-80832833D01*
X61521374Y-80564797D01*
X61507053Y-80547347D01*
X61437436Y-80490213D01*
X61358009Y-80447759D01*
X61271827Y-80421615D01*
X61204660Y-80415000D01*
X61204650Y-80415000D01*
X61182200Y-80412789D01*
X61159750Y-80415000D01*
X59772550Y-80415000D01*
X59750100Y-80412789D01*
X59727650Y-80415000D01*
X59727640Y-80415000D01*
X59660473Y-80421615D01*
X59594349Y-80441674D01*
X59574290Y-80447759D01*
X59494864Y-80490213D01*
X59442692Y-80533029D01*
X59442686Y-80533035D01*
X59425247Y-80547347D01*
X59410934Y-80564787D01*
X58892897Y-81082826D01*
X58890317Y-81079683D01*
X58729521Y-80947720D01*
X58546069Y-80849663D01*
X58347012Y-80789280D01*
X58191872Y-80774000D01*
X58088128Y-80774000D01*
X57932988Y-80789280D01*
X57733931Y-80849663D01*
X57550479Y-80947720D01*
X57389683Y-81079683D01*
X57257720Y-81240479D01*
X57197843Y-81352501D01*
X57197843Y-81155000D01*
X57190487Y-81080311D01*
X57168701Y-81008492D01*
X57133322Y-80942304D01*
X57085711Y-80884289D01*
X57027696Y-80836678D01*
X56961508Y-80801299D01*
X56889689Y-80779513D01*
X56815000Y-80772157D01*
X55465000Y-80772157D01*
X55390311Y-80779513D01*
X55318492Y-80801299D01*
X55252304Y-80836678D01*
X55194289Y-80884289D01*
X55146678Y-80942304D01*
X55111299Y-81008492D01*
X55089513Y-81080311D01*
X55088882Y-81086722D01*
X54999493Y-80794346D01*
X54985337Y-80760338D01*
X54971686Y-80726209D01*
X54969042Y-80721194D01*
X54969042Y-80721193D01*
X54969039Y-80721189D01*
X54800037Y-80406000D01*
X71094001Y-80406000D01*
X71094001Y-80941435D01*
X71094001Y-80941435D01*
G37*
X71094001Y-80941435D02*
X71011227Y-80851697D01*
X70803629Y-80700527D01*
X70570528Y-80592762D01*
X70469400Y-80562090D01*
X70267000Y-80685776D01*
X70267000Y-81703000D01*
X70287000Y-81703000D01*
X70287000Y-81957000D01*
X70267000Y-81957000D01*
X70267000Y-81977000D01*
X70013000Y-81977000D01*
X70013000Y-81957000D01*
X69993000Y-81957000D01*
X69993000Y-81703000D01*
X70013000Y-81703000D01*
X70013000Y-80685776D01*
X69810600Y-80562090D01*
X69709472Y-80592762D01*
X69476371Y-80700527D01*
X69268773Y-80851697D01*
X69094656Y-81040463D01*
X68993683Y-81205634D01*
X68890317Y-81079683D01*
X68729521Y-80947720D01*
X68546069Y-80849663D01*
X68347012Y-80789280D01*
X68191872Y-80774000D01*
X68088128Y-80774000D01*
X67932988Y-80789280D01*
X67733931Y-80849663D01*
X67550479Y-80947720D01*
X67389683Y-81079683D01*
X67257720Y-81240479D01*
X67159663Y-81423931D01*
X67140000Y-81488752D01*
X67120337Y-81423931D01*
X67022280Y-81240479D01*
X66890317Y-81079683D01*
X66729521Y-80947720D01*
X66546069Y-80849663D01*
X66347012Y-80789280D01*
X66191872Y-80774000D01*
X66088128Y-80774000D01*
X65932988Y-80789280D01*
X65733931Y-80849663D01*
X65550479Y-80947720D01*
X65389683Y-81079683D01*
X65257720Y-81240479D01*
X65159663Y-81423931D01*
X65140000Y-81488752D01*
X65120337Y-81423931D01*
X65022280Y-81240479D01*
X64890317Y-81079683D01*
X64729521Y-80947720D01*
X64546069Y-80849663D01*
X64347012Y-80789280D01*
X64191872Y-80774000D01*
X64088128Y-80774000D01*
X63932988Y-80789280D01*
X63733931Y-80849663D01*
X63550479Y-80947720D01*
X63389683Y-81079683D01*
X63257720Y-81240479D01*
X63188157Y-81370622D01*
X63166040Y-81372800D01*
X63098873Y-81379415D01*
X63096868Y-81380023D01*
X63022280Y-81240479D01*
X62890317Y-81079683D01*
X62729521Y-80947720D01*
X62546069Y-80849663D01*
X62347012Y-80789280D01*
X62191872Y-80774000D01*
X62088128Y-80774000D01*
X61932988Y-80789280D01*
X61789411Y-80832833D01*
X61521374Y-80564797D01*
X61507053Y-80547347D01*
X61437436Y-80490213D01*
X61358009Y-80447759D01*
X61271827Y-80421615D01*
X61204660Y-80415000D01*
X61204650Y-80415000D01*
X61182200Y-80412789D01*
X61159750Y-80415000D01*
X59772550Y-80415000D01*
X59750100Y-80412789D01*
X59727650Y-80415000D01*
X59727640Y-80415000D01*
X59660473Y-80421615D01*
X59594349Y-80441674D01*
X59574290Y-80447759D01*
X59494864Y-80490213D01*
X59442692Y-80533029D01*
X59442686Y-80533035D01*
X59425247Y-80547347D01*
X59410934Y-80564787D01*
X58892897Y-81082826D01*
X58890317Y-81079683D01*
X58729521Y-80947720D01*
X58546069Y-80849663D01*
X58347012Y-80789280D01*
X58191872Y-80774000D01*
X58088128Y-80774000D01*
X57932988Y-80789280D01*
X57733931Y-80849663D01*
X57550479Y-80947720D01*
X57389683Y-81079683D01*
X57257720Y-81240479D01*
X57197843Y-81352501D01*
X57197843Y-81155000D01*
X57190487Y-81080311D01*
X57168701Y-81008492D01*
X57133322Y-80942304D01*
X57085711Y-80884289D01*
X57027696Y-80836678D01*
X56961508Y-80801299D01*
X56889689Y-80779513D01*
X56815000Y-80772157D01*
X55465000Y-80772157D01*
X55390311Y-80779513D01*
X55318492Y-80801299D01*
X55252304Y-80836678D01*
X55194289Y-80884289D01*
X55146678Y-80942304D01*
X55111299Y-81008492D01*
X55089513Y-81080311D01*
X55088882Y-81086722D01*
X54999493Y-80794346D01*
X54985337Y-80760338D01*
X54971686Y-80726209D01*
X54969042Y-80721194D01*
X54969042Y-80721193D01*
X54969039Y-80721189D01*
X54800037Y-80406000D01*
X71094001Y-80406000D01*
X71094001Y-80941435D01*
M02*
