G04 #@! TF.GenerationSoftware,KiCad,Pcbnew,(5.1.2-1)-1*
G04 #@! TF.CreationDate,2022-01-26T01:19:45+00:00*
G04 #@! TF.ProjectId,mz25key,6d7a3235-6b65-4792-9e6b-696361645f70,rev?*
G04 #@! TF.SameCoordinates,Original*
G04 #@! TF.FileFunction,Soldermask,Bot*
G04 #@! TF.FilePolarity,Negative*
%FSLAX46Y46*%
G04 Gerber Fmt 4.6, Leading zero omitted, Abs format (unit mm)*
G04 Created by KiCad (PCBNEW (5.1.2-1)-1) date 2022-01-26 01:19:45*
%MOMM*%
%LPD*%
G04 APERTURE LIST*
%ADD10C,0.100000*%
G04 APERTURE END LIST*
D10*
G36*
X92919468Y-104263565D02*
G01*
X92958138Y-104275296D01*
X92993777Y-104294346D01*
X93025017Y-104319983D01*
X93050654Y-104351223D01*
X93069704Y-104386862D01*
X93081435Y-104425532D01*
X93086000Y-104471888D01*
X93086000Y-105548112D01*
X93081435Y-105594468D01*
X93069704Y-105633138D01*
X93050654Y-105668777D01*
X93025017Y-105700017D01*
X92993777Y-105725654D01*
X92958138Y-105744704D01*
X92919468Y-105756435D01*
X92873112Y-105761000D01*
X92221888Y-105761000D01*
X92175532Y-105756435D01*
X92136862Y-105744704D01*
X92101223Y-105725654D01*
X92069983Y-105700017D01*
X92044346Y-105668777D01*
X92025296Y-105633138D01*
X92013565Y-105594468D01*
X92009000Y-105548112D01*
X92009000Y-104471888D01*
X92013565Y-104425532D01*
X92025296Y-104386862D01*
X92044346Y-104351223D01*
X92069983Y-104319983D01*
X92101223Y-104294346D01*
X92136862Y-104275296D01*
X92175532Y-104263565D01*
X92221888Y-104259000D01*
X92873112Y-104259000D01*
X92919468Y-104263565D01*
X92919468Y-104263565D01*
G37*
G36*
X91044468Y-104263565D02*
G01*
X91083138Y-104275296D01*
X91118777Y-104294346D01*
X91150017Y-104319983D01*
X91175654Y-104351223D01*
X91194704Y-104386862D01*
X91206435Y-104425532D01*
X91211000Y-104471888D01*
X91211000Y-105548112D01*
X91206435Y-105594468D01*
X91194704Y-105633138D01*
X91175654Y-105668777D01*
X91150017Y-105700017D01*
X91118777Y-105725654D01*
X91083138Y-105744704D01*
X91044468Y-105756435D01*
X90998112Y-105761000D01*
X90346888Y-105761000D01*
X90300532Y-105756435D01*
X90261862Y-105744704D01*
X90226223Y-105725654D01*
X90194983Y-105700017D01*
X90169346Y-105668777D01*
X90150296Y-105633138D01*
X90138565Y-105594468D01*
X90134000Y-105548112D01*
X90134000Y-104471888D01*
X90138565Y-104425532D01*
X90150296Y-104386862D01*
X90169346Y-104351223D01*
X90194983Y-104319983D01*
X90226223Y-104294346D01*
X90261862Y-104275296D01*
X90300532Y-104263565D01*
X90346888Y-104259000D01*
X90998112Y-104259000D01*
X91044468Y-104263565D01*
X91044468Y-104263565D01*
G37*
G36*
X83374468Y-104233565D02*
G01*
X83413138Y-104245296D01*
X83448777Y-104264346D01*
X83480017Y-104289983D01*
X83505654Y-104321223D01*
X83524704Y-104356862D01*
X83536435Y-104395532D01*
X83541000Y-104441888D01*
X83541000Y-105518112D01*
X83536435Y-105564468D01*
X83524704Y-105603138D01*
X83505654Y-105638777D01*
X83480017Y-105670017D01*
X83448777Y-105695654D01*
X83413138Y-105714704D01*
X83374468Y-105726435D01*
X83328112Y-105731000D01*
X82676888Y-105731000D01*
X82630532Y-105726435D01*
X82591862Y-105714704D01*
X82556223Y-105695654D01*
X82524983Y-105670017D01*
X82499346Y-105638777D01*
X82480296Y-105603138D01*
X82468565Y-105564468D01*
X82464000Y-105518112D01*
X82464000Y-104441888D01*
X82468565Y-104395532D01*
X82480296Y-104356862D01*
X82499346Y-104321223D01*
X82524983Y-104289983D01*
X82556223Y-104264346D01*
X82591862Y-104245296D01*
X82630532Y-104233565D01*
X82676888Y-104229000D01*
X83328112Y-104229000D01*
X83374468Y-104233565D01*
X83374468Y-104233565D01*
G37*
G36*
X85249468Y-104233565D02*
G01*
X85288138Y-104245296D01*
X85323777Y-104264346D01*
X85355017Y-104289983D01*
X85380654Y-104321223D01*
X85399704Y-104356862D01*
X85411435Y-104395532D01*
X85416000Y-104441888D01*
X85416000Y-105518112D01*
X85411435Y-105564468D01*
X85399704Y-105603138D01*
X85380654Y-105638777D01*
X85355017Y-105670017D01*
X85323777Y-105695654D01*
X85288138Y-105714704D01*
X85249468Y-105726435D01*
X85203112Y-105731000D01*
X84551888Y-105731000D01*
X84505532Y-105726435D01*
X84466862Y-105714704D01*
X84431223Y-105695654D01*
X84399983Y-105670017D01*
X84374346Y-105638777D01*
X84355296Y-105603138D01*
X84343565Y-105564468D01*
X84339000Y-105518112D01*
X84339000Y-104441888D01*
X84343565Y-104395532D01*
X84355296Y-104356862D01*
X84374346Y-104321223D01*
X84399983Y-104289983D01*
X84431223Y-104264346D01*
X84466862Y-104245296D01*
X84505532Y-104233565D01*
X84551888Y-104229000D01*
X85203112Y-104229000D01*
X85249468Y-104233565D01*
X85249468Y-104233565D01*
G37*
G36*
X89066000Y-105471000D02*
G01*
X88314000Y-105471000D01*
X88314000Y-103669000D01*
X89066000Y-103669000D01*
X89066000Y-105471000D01*
X89066000Y-105471000D01*
G37*
G36*
X87166000Y-105471000D02*
G01*
X86414000Y-105471000D01*
X86414000Y-103669000D01*
X87166000Y-103669000D01*
X87166000Y-105471000D01*
X87166000Y-105471000D01*
G37*
G36*
X68478015Y-104016973D02*
G01*
X68581879Y-104048479D01*
X68609055Y-104063005D01*
X68677600Y-104099643D01*
X68761501Y-104168499D01*
X68830356Y-104252400D01*
X68853764Y-104296193D01*
X68867375Y-104316563D01*
X68884702Y-104333890D01*
X68905076Y-104347504D01*
X68927715Y-104356881D01*
X68951748Y-104361662D01*
X68976252Y-104361662D01*
X69000286Y-104356882D01*
X69022924Y-104347505D01*
X69043299Y-104333891D01*
X69060626Y-104316564D01*
X69074240Y-104296190D01*
X69083617Y-104273551D01*
X69088398Y-104249518D01*
X69089000Y-104237265D01*
X69089000Y-104009000D01*
X70191000Y-104009000D01*
X70191000Y-105111000D01*
X69089000Y-105111000D01*
X69089000Y-104882735D01*
X69086598Y-104858349D01*
X69079485Y-104834900D01*
X69067934Y-104813289D01*
X69052389Y-104794347D01*
X69033447Y-104778802D01*
X69011836Y-104767251D01*
X68988387Y-104760138D01*
X68964001Y-104757736D01*
X68939615Y-104760138D01*
X68916166Y-104767251D01*
X68894555Y-104778802D01*
X68875613Y-104794347D01*
X68860068Y-104813289D01*
X68853767Y-104823802D01*
X68830356Y-104867600D01*
X68830355Y-104867601D01*
X68761501Y-104951501D01*
X68677600Y-105020357D01*
X68609055Y-105056995D01*
X68581879Y-105071521D01*
X68478015Y-105103027D01*
X68397067Y-105111000D01*
X68342933Y-105111000D01*
X68261985Y-105103027D01*
X68158121Y-105071521D01*
X68130945Y-105056995D01*
X68062400Y-105020357D01*
X67978499Y-104951501D01*
X67909643Y-104867600D01*
X67870489Y-104794347D01*
X67858479Y-104771879D01*
X67826973Y-104668015D01*
X67816334Y-104560000D01*
X67826973Y-104451985D01*
X67858479Y-104348121D01*
X67895161Y-104279495D01*
X67909643Y-104252400D01*
X67978499Y-104168499D01*
X68062400Y-104099643D01*
X68130945Y-104063005D01*
X68158121Y-104048479D01*
X68261985Y-104016973D01*
X68342933Y-104009000D01*
X68397067Y-104009000D01*
X68478015Y-104016973D01*
X68478015Y-104016973D01*
G37*
G36*
X64778015Y-104016973D02*
G01*
X64881879Y-104048479D01*
X64909055Y-104063005D01*
X64977600Y-104099643D01*
X65061501Y-104168499D01*
X65130356Y-104252400D01*
X65153764Y-104296193D01*
X65167375Y-104316563D01*
X65184702Y-104333890D01*
X65205076Y-104347504D01*
X65227715Y-104356881D01*
X65251748Y-104361662D01*
X65276252Y-104361662D01*
X65300286Y-104356882D01*
X65322924Y-104347505D01*
X65343299Y-104333891D01*
X65360626Y-104316564D01*
X65374240Y-104296190D01*
X65383617Y-104273551D01*
X65388398Y-104249518D01*
X65389000Y-104237265D01*
X65389000Y-104009000D01*
X66491000Y-104009000D01*
X66491000Y-105111000D01*
X65389000Y-105111000D01*
X65389000Y-104882735D01*
X65386598Y-104858349D01*
X65379485Y-104834900D01*
X65367934Y-104813289D01*
X65352389Y-104794347D01*
X65333447Y-104778802D01*
X65311836Y-104767251D01*
X65288387Y-104760138D01*
X65264001Y-104757736D01*
X65239615Y-104760138D01*
X65216166Y-104767251D01*
X65194555Y-104778802D01*
X65175613Y-104794347D01*
X65160068Y-104813289D01*
X65153767Y-104823802D01*
X65130356Y-104867600D01*
X65130355Y-104867601D01*
X65061501Y-104951501D01*
X64977600Y-105020357D01*
X64909055Y-105056995D01*
X64881879Y-105071521D01*
X64778015Y-105103027D01*
X64697067Y-105111000D01*
X64642933Y-105111000D01*
X64561985Y-105103027D01*
X64458121Y-105071521D01*
X64430945Y-105056995D01*
X64362400Y-105020357D01*
X64278499Y-104951501D01*
X64209643Y-104867600D01*
X64170489Y-104794347D01*
X64158479Y-104771879D01*
X64126973Y-104668015D01*
X64116334Y-104560000D01*
X64126973Y-104451985D01*
X64158479Y-104348121D01*
X64195161Y-104279495D01*
X64209643Y-104252400D01*
X64278499Y-104168499D01*
X64362400Y-104099643D01*
X64430945Y-104063005D01*
X64458121Y-104048479D01*
X64561985Y-104016973D01*
X64642933Y-104009000D01*
X64697067Y-104009000D01*
X64778015Y-104016973D01*
X64778015Y-104016973D01*
G37*
G36*
X59414795Y-101620156D02*
G01*
X59521150Y-101641311D01*
X59615772Y-101680505D01*
X59721520Y-101724307D01*
X59901844Y-101844795D01*
X60055205Y-101998156D01*
X60175693Y-102178480D01*
X60175693Y-102178481D01*
X60251388Y-102361223D01*
X60258689Y-102378851D01*
X60301000Y-102591560D01*
X60301000Y-102808440D01*
X60300162Y-102812651D01*
X60258689Y-103021150D01*
X60251468Y-103038582D01*
X60175693Y-103221520D01*
X60055205Y-103401844D01*
X59901844Y-103555205D01*
X59721520Y-103675693D01*
X59638654Y-103710017D01*
X59521150Y-103758689D01*
X59414794Y-103779845D01*
X59308440Y-103801000D01*
X59091560Y-103801000D01*
X58985206Y-103779845D01*
X58878850Y-103758689D01*
X58761346Y-103710017D01*
X58678480Y-103675693D01*
X58498156Y-103555205D01*
X58344795Y-103401844D01*
X58224307Y-103221520D01*
X58148532Y-103038582D01*
X58141311Y-103021150D01*
X58099838Y-102812651D01*
X58099000Y-102808440D01*
X58099000Y-102591560D01*
X58141311Y-102378851D01*
X58148613Y-102361223D01*
X58224307Y-102178481D01*
X58224307Y-102178480D01*
X58344795Y-101998156D01*
X58498156Y-101844795D01*
X58678480Y-101724307D01*
X58784228Y-101680505D01*
X58878850Y-101641311D01*
X58985205Y-101620156D01*
X59091560Y-101599000D01*
X59308440Y-101599000D01*
X59414795Y-101620156D01*
X59414795Y-101620156D01*
G37*
G36*
X92929468Y-102273565D02*
G01*
X92968138Y-102285296D01*
X93003777Y-102304346D01*
X93035017Y-102329983D01*
X93060654Y-102361223D01*
X93079704Y-102396862D01*
X93091435Y-102435532D01*
X93096000Y-102481888D01*
X93096000Y-103558112D01*
X93091435Y-103604468D01*
X93079704Y-103643138D01*
X93060654Y-103678777D01*
X93035017Y-103710017D01*
X93003777Y-103735654D01*
X92968138Y-103754704D01*
X92929468Y-103766435D01*
X92883112Y-103771000D01*
X92231888Y-103771000D01*
X92185532Y-103766435D01*
X92146862Y-103754704D01*
X92111223Y-103735654D01*
X92079983Y-103710017D01*
X92054346Y-103678777D01*
X92035296Y-103643138D01*
X92023565Y-103604468D01*
X92019000Y-103558112D01*
X92019000Y-102481888D01*
X92023565Y-102435532D01*
X92035296Y-102396862D01*
X92054346Y-102361223D01*
X92079983Y-102329983D01*
X92111223Y-102304346D01*
X92146862Y-102285296D01*
X92185532Y-102273565D01*
X92231888Y-102269000D01*
X92883112Y-102269000D01*
X92929468Y-102273565D01*
X92929468Y-102273565D01*
G37*
G36*
X91054468Y-102273565D02*
G01*
X91093138Y-102285296D01*
X91128777Y-102304346D01*
X91160017Y-102329983D01*
X91185654Y-102361223D01*
X91204704Y-102396862D01*
X91216435Y-102435532D01*
X91221000Y-102481888D01*
X91221000Y-103558112D01*
X91216435Y-103604468D01*
X91204704Y-103643138D01*
X91185654Y-103678777D01*
X91160017Y-103710017D01*
X91128777Y-103735654D01*
X91093138Y-103754704D01*
X91054468Y-103766435D01*
X91008112Y-103771000D01*
X90356888Y-103771000D01*
X90310532Y-103766435D01*
X90271862Y-103754704D01*
X90236223Y-103735654D01*
X90204983Y-103710017D01*
X90179346Y-103678777D01*
X90160296Y-103643138D01*
X90148565Y-103604468D01*
X90144000Y-103558112D01*
X90144000Y-102481888D01*
X90148565Y-102435532D01*
X90160296Y-102396862D01*
X90179346Y-102361223D01*
X90204983Y-102329983D01*
X90236223Y-102304346D01*
X90271862Y-102285296D01*
X90310532Y-102273565D01*
X90356888Y-102269000D01*
X91008112Y-102269000D01*
X91054468Y-102273565D01*
X91054468Y-102273565D01*
G37*
G36*
X80328213Y-101326249D02*
G01*
X80422652Y-101354897D01*
X80509687Y-101401418D01*
X80585975Y-101464025D01*
X80648582Y-101540313D01*
X80695103Y-101627348D01*
X80723751Y-101721787D01*
X80731000Y-101795388D01*
X80731000Y-102644612D01*
X80723751Y-102718213D01*
X80695103Y-102812652D01*
X80648582Y-102899687D01*
X80585975Y-102975975D01*
X80509687Y-103038582D01*
X80422651Y-103085103D01*
X80328212Y-103113751D01*
X80230000Y-103123424D01*
X80131787Y-103113751D01*
X80037348Y-103085103D01*
X79950313Y-103038582D01*
X79874025Y-102975975D01*
X79811418Y-102899687D01*
X79764897Y-102812651D01*
X79736249Y-102718212D01*
X79729000Y-102644611D01*
X79729000Y-101795398D01*
X79736250Y-101721786D01*
X79756321Y-101655623D01*
X79764898Y-101627348D01*
X79811419Y-101540313D01*
X79874026Y-101464025D01*
X79950314Y-101401418D01*
X80037349Y-101354897D01*
X80131788Y-101326249D01*
X80230000Y-101316576D01*
X80328213Y-101326249D01*
X80328213Y-101326249D01*
G37*
G36*
X79058213Y-101326249D02*
G01*
X79152652Y-101354897D01*
X79239687Y-101401418D01*
X79315975Y-101464025D01*
X79378582Y-101540313D01*
X79425103Y-101627348D01*
X79453751Y-101721787D01*
X79461000Y-101795388D01*
X79461000Y-102644612D01*
X79453751Y-102718213D01*
X79425103Y-102812652D01*
X79378582Y-102899687D01*
X79315975Y-102975975D01*
X79239687Y-103038582D01*
X79152651Y-103085103D01*
X79058212Y-103113751D01*
X78960000Y-103123424D01*
X78861787Y-103113751D01*
X78767348Y-103085103D01*
X78680313Y-103038582D01*
X78604025Y-102975975D01*
X78541418Y-102899687D01*
X78494897Y-102812651D01*
X78466249Y-102718212D01*
X78459000Y-102644611D01*
X78459000Y-101795398D01*
X78466250Y-101721786D01*
X78486321Y-101655623D01*
X78494898Y-101627348D01*
X78541419Y-101540313D01*
X78604026Y-101464025D01*
X78680314Y-101401418D01*
X78767349Y-101354897D01*
X78861788Y-101326249D01*
X78960000Y-101316576D01*
X79058213Y-101326249D01*
X79058213Y-101326249D01*
G37*
G36*
X77788213Y-101326249D02*
G01*
X77882652Y-101354897D01*
X77969687Y-101401418D01*
X78045975Y-101464025D01*
X78108582Y-101540313D01*
X78155103Y-101627348D01*
X78183751Y-101721787D01*
X78191000Y-101795388D01*
X78191000Y-102644612D01*
X78183751Y-102718213D01*
X78155103Y-102812652D01*
X78108582Y-102899687D01*
X78045975Y-102975975D01*
X77969687Y-103038582D01*
X77882651Y-103085103D01*
X77788212Y-103113751D01*
X77690000Y-103123424D01*
X77591787Y-103113751D01*
X77497348Y-103085103D01*
X77410313Y-103038582D01*
X77334025Y-102975975D01*
X77271418Y-102899687D01*
X77224897Y-102812651D01*
X77196249Y-102718212D01*
X77189000Y-102644611D01*
X77189000Y-101795398D01*
X77196250Y-101721786D01*
X77216321Y-101655623D01*
X77224898Y-101627348D01*
X77271419Y-101540313D01*
X77334026Y-101464025D01*
X77410314Y-101401418D01*
X77497349Y-101354897D01*
X77591788Y-101326249D01*
X77690000Y-101316576D01*
X77788213Y-101326249D01*
X77788213Y-101326249D01*
G37*
G36*
X76518213Y-101326249D02*
G01*
X76612652Y-101354897D01*
X76699687Y-101401418D01*
X76775975Y-101464025D01*
X76838582Y-101540313D01*
X76885103Y-101627348D01*
X76913751Y-101721787D01*
X76921000Y-101795388D01*
X76921000Y-102644612D01*
X76913751Y-102718213D01*
X76885103Y-102812652D01*
X76838582Y-102899687D01*
X76775975Y-102975975D01*
X76699687Y-103038582D01*
X76612651Y-103085103D01*
X76518212Y-103113751D01*
X76420000Y-103123424D01*
X76321787Y-103113751D01*
X76227348Y-103085103D01*
X76140313Y-103038582D01*
X76064025Y-102975975D01*
X76001418Y-102899687D01*
X75954897Y-102812651D01*
X75926249Y-102718212D01*
X75919000Y-102644611D01*
X75919000Y-101795398D01*
X75926250Y-101721786D01*
X75946321Y-101655623D01*
X75954898Y-101627348D01*
X76001419Y-101540313D01*
X76064026Y-101464025D01*
X76140314Y-101401418D01*
X76227349Y-101354897D01*
X76321788Y-101326249D01*
X76420000Y-101316576D01*
X76518213Y-101326249D01*
X76518213Y-101326249D01*
G37*
G36*
X75248213Y-101326249D02*
G01*
X75342652Y-101354897D01*
X75429687Y-101401418D01*
X75505975Y-101464025D01*
X75568582Y-101540313D01*
X75615103Y-101627348D01*
X75643751Y-101721787D01*
X75651000Y-101795388D01*
X75651000Y-102644612D01*
X75643751Y-102718213D01*
X75615103Y-102812652D01*
X75568582Y-102899687D01*
X75505975Y-102975975D01*
X75429687Y-103038582D01*
X75342651Y-103085103D01*
X75248212Y-103113751D01*
X75150000Y-103123424D01*
X75051787Y-103113751D01*
X74957348Y-103085103D01*
X74870313Y-103038582D01*
X74794025Y-102975975D01*
X74731418Y-102899687D01*
X74684897Y-102812651D01*
X74656249Y-102718212D01*
X74649000Y-102644611D01*
X74649000Y-101795398D01*
X74656250Y-101721786D01*
X74676321Y-101655623D01*
X74684898Y-101627348D01*
X74731419Y-101540313D01*
X74794026Y-101464025D01*
X74870314Y-101401418D01*
X74957349Y-101354897D01*
X75051788Y-101326249D01*
X75150000Y-101316576D01*
X75248213Y-101326249D01*
X75248213Y-101326249D01*
G37*
G36*
X73978213Y-101326249D02*
G01*
X74072652Y-101354897D01*
X74159687Y-101401418D01*
X74235975Y-101464025D01*
X74298582Y-101540313D01*
X74345103Y-101627348D01*
X74373751Y-101721787D01*
X74381000Y-101795388D01*
X74381000Y-102644612D01*
X74373751Y-102718213D01*
X74345103Y-102812652D01*
X74298582Y-102899687D01*
X74235975Y-102975975D01*
X74159687Y-103038582D01*
X74072651Y-103085103D01*
X73978212Y-103113751D01*
X73880000Y-103123424D01*
X73781787Y-103113751D01*
X73687348Y-103085103D01*
X73600313Y-103038582D01*
X73524025Y-102975975D01*
X73461418Y-102899687D01*
X73414897Y-102812651D01*
X73386249Y-102718212D01*
X73379000Y-102644611D01*
X73379000Y-101795398D01*
X73386250Y-101721786D01*
X73406321Y-101655623D01*
X73414898Y-101627348D01*
X73461419Y-101540313D01*
X73524026Y-101464025D01*
X73600314Y-101401418D01*
X73687349Y-101354897D01*
X73781788Y-101326249D01*
X73880000Y-101316576D01*
X73978213Y-101326249D01*
X73978213Y-101326249D01*
G37*
G36*
X72708213Y-101326249D02*
G01*
X72802652Y-101354897D01*
X72889687Y-101401418D01*
X72965975Y-101464025D01*
X73028582Y-101540313D01*
X73075103Y-101627348D01*
X73103751Y-101721787D01*
X73111000Y-101795388D01*
X73111000Y-102644612D01*
X73103751Y-102718213D01*
X73075103Y-102812652D01*
X73028582Y-102899687D01*
X72965975Y-102975975D01*
X72889687Y-103038582D01*
X72802651Y-103085103D01*
X72708212Y-103113751D01*
X72610000Y-103123424D01*
X72511787Y-103113751D01*
X72417348Y-103085103D01*
X72330313Y-103038582D01*
X72254025Y-102975975D01*
X72191418Y-102899687D01*
X72144897Y-102812651D01*
X72116249Y-102718212D01*
X72109000Y-102644611D01*
X72109000Y-101795398D01*
X72116250Y-101721786D01*
X72136321Y-101655623D01*
X72144898Y-101627348D01*
X72191419Y-101540313D01*
X72254026Y-101464025D01*
X72330314Y-101401418D01*
X72417349Y-101354897D01*
X72511788Y-101326249D01*
X72610000Y-101316576D01*
X72708213Y-101326249D01*
X72708213Y-101326249D01*
G37*
G36*
X71438213Y-101326249D02*
G01*
X71532652Y-101354897D01*
X71619687Y-101401418D01*
X71695975Y-101464025D01*
X71758582Y-101540313D01*
X71805103Y-101627348D01*
X71833751Y-101721787D01*
X71841000Y-101795388D01*
X71841000Y-102644612D01*
X71833751Y-102718213D01*
X71805103Y-102812652D01*
X71758582Y-102899687D01*
X71695975Y-102975975D01*
X71619687Y-103038582D01*
X71532651Y-103085103D01*
X71438212Y-103113751D01*
X71340000Y-103123424D01*
X71241787Y-103113751D01*
X71147348Y-103085103D01*
X71060313Y-103038582D01*
X70984025Y-102975975D01*
X70921418Y-102899687D01*
X70874897Y-102812651D01*
X70846249Y-102718212D01*
X70839000Y-102644611D01*
X70839000Y-101795398D01*
X70846250Y-101721786D01*
X70866321Y-101655623D01*
X70874898Y-101627348D01*
X70921419Y-101540313D01*
X70984026Y-101464025D01*
X71060314Y-101401418D01*
X71147349Y-101354897D01*
X71241788Y-101326249D01*
X71340000Y-101316576D01*
X71438213Y-101326249D01*
X71438213Y-101326249D01*
G37*
G36*
X70168213Y-101326249D02*
G01*
X70262652Y-101354897D01*
X70349687Y-101401418D01*
X70425975Y-101464025D01*
X70488582Y-101540313D01*
X70535103Y-101627348D01*
X70563751Y-101721787D01*
X70571000Y-101795388D01*
X70571000Y-102644612D01*
X70563751Y-102718213D01*
X70535103Y-102812652D01*
X70488582Y-102899687D01*
X70425975Y-102975975D01*
X70349687Y-103038582D01*
X70262651Y-103085103D01*
X70168212Y-103113751D01*
X70070000Y-103123424D01*
X69971787Y-103113751D01*
X69877348Y-103085103D01*
X69790313Y-103038582D01*
X69714025Y-102975975D01*
X69651418Y-102899687D01*
X69604897Y-102812651D01*
X69576249Y-102718212D01*
X69569000Y-102644611D01*
X69569000Y-101795398D01*
X69576250Y-101721786D01*
X69596321Y-101655623D01*
X69604898Y-101627348D01*
X69651419Y-101540313D01*
X69714026Y-101464025D01*
X69790314Y-101401418D01*
X69877349Y-101354897D01*
X69971788Y-101326249D01*
X70070000Y-101316576D01*
X70168213Y-101326249D01*
X70168213Y-101326249D01*
G37*
G36*
X68898213Y-101326249D02*
G01*
X68992652Y-101354897D01*
X69079687Y-101401418D01*
X69155975Y-101464025D01*
X69218582Y-101540313D01*
X69265103Y-101627348D01*
X69293751Y-101721787D01*
X69301000Y-101795388D01*
X69301000Y-102644612D01*
X69293751Y-102718213D01*
X69265103Y-102812652D01*
X69218582Y-102899687D01*
X69155975Y-102975975D01*
X69079687Y-103038582D01*
X68992651Y-103085103D01*
X68898212Y-103113751D01*
X68800000Y-103123424D01*
X68701787Y-103113751D01*
X68607348Y-103085103D01*
X68520313Y-103038582D01*
X68444025Y-102975975D01*
X68381418Y-102899687D01*
X68334897Y-102812651D01*
X68306249Y-102718212D01*
X68299000Y-102644611D01*
X68299000Y-101795398D01*
X68306250Y-101721786D01*
X68326321Y-101655623D01*
X68334898Y-101627348D01*
X68381419Y-101540313D01*
X68444026Y-101464025D01*
X68520314Y-101401418D01*
X68607349Y-101354897D01*
X68701788Y-101326249D01*
X68800000Y-101316576D01*
X68898213Y-101326249D01*
X68898213Y-101326249D01*
G37*
G36*
X67628213Y-101326249D02*
G01*
X67722652Y-101354897D01*
X67809687Y-101401418D01*
X67885975Y-101464025D01*
X67948582Y-101540313D01*
X67995103Y-101627348D01*
X68023751Y-101721787D01*
X68031000Y-101795388D01*
X68031000Y-102644612D01*
X68023751Y-102718213D01*
X67995103Y-102812652D01*
X67948582Y-102899687D01*
X67885975Y-102975975D01*
X67809687Y-103038582D01*
X67722651Y-103085103D01*
X67628212Y-103113751D01*
X67530000Y-103123424D01*
X67431787Y-103113751D01*
X67337348Y-103085103D01*
X67250313Y-103038582D01*
X67174025Y-102975975D01*
X67111418Y-102899687D01*
X67064897Y-102812651D01*
X67036249Y-102718212D01*
X67029000Y-102644611D01*
X67029000Y-101795398D01*
X67036250Y-101721786D01*
X67056321Y-101655623D01*
X67064898Y-101627348D01*
X67111419Y-101540313D01*
X67174026Y-101464025D01*
X67250314Y-101401418D01*
X67337349Y-101354897D01*
X67431788Y-101326249D01*
X67530000Y-101316576D01*
X67628213Y-101326249D01*
X67628213Y-101326249D01*
G37*
G36*
X66358213Y-101326249D02*
G01*
X66452652Y-101354897D01*
X66539687Y-101401418D01*
X66615975Y-101464025D01*
X66678582Y-101540313D01*
X66725103Y-101627348D01*
X66753751Y-101721787D01*
X66761000Y-101795388D01*
X66761000Y-102644612D01*
X66753751Y-102718213D01*
X66725103Y-102812652D01*
X66678582Y-102899687D01*
X66615975Y-102975975D01*
X66539687Y-103038582D01*
X66452651Y-103085103D01*
X66358212Y-103113751D01*
X66260000Y-103123424D01*
X66161787Y-103113751D01*
X66067348Y-103085103D01*
X65980313Y-103038582D01*
X65904025Y-102975975D01*
X65841418Y-102899687D01*
X65794897Y-102812651D01*
X65766249Y-102718212D01*
X65759000Y-102644611D01*
X65759000Y-101795398D01*
X65766250Y-101721786D01*
X65786321Y-101655623D01*
X65794898Y-101627348D01*
X65841419Y-101540313D01*
X65904026Y-101464025D01*
X65980314Y-101401418D01*
X66067349Y-101354897D01*
X66161788Y-101326249D01*
X66260000Y-101316576D01*
X66358213Y-101326249D01*
X66358213Y-101326249D01*
G37*
G36*
X65088213Y-101326249D02*
G01*
X65182652Y-101354897D01*
X65269687Y-101401418D01*
X65345975Y-101464025D01*
X65408582Y-101540313D01*
X65455103Y-101627348D01*
X65483751Y-101721787D01*
X65491000Y-101795388D01*
X65491000Y-102644612D01*
X65483751Y-102718213D01*
X65455103Y-102812652D01*
X65408582Y-102899687D01*
X65345975Y-102975975D01*
X65269687Y-103038582D01*
X65182651Y-103085103D01*
X65088212Y-103113751D01*
X64990000Y-103123424D01*
X64891787Y-103113751D01*
X64797348Y-103085103D01*
X64710313Y-103038582D01*
X64634025Y-102975975D01*
X64571418Y-102899687D01*
X64524897Y-102812651D01*
X64496249Y-102718212D01*
X64489000Y-102644611D01*
X64489000Y-101795398D01*
X64496250Y-101721786D01*
X64516321Y-101655623D01*
X64524898Y-101627348D01*
X64571419Y-101540313D01*
X64634026Y-101464025D01*
X64710314Y-101401418D01*
X64797349Y-101354897D01*
X64891788Y-101326249D01*
X64990000Y-101316576D01*
X65088213Y-101326249D01*
X65088213Y-101326249D01*
G37*
G36*
X63818213Y-101326249D02*
G01*
X63912652Y-101354897D01*
X63999687Y-101401418D01*
X64075975Y-101464025D01*
X64138582Y-101540313D01*
X64185103Y-101627348D01*
X64213751Y-101721787D01*
X64221000Y-101795388D01*
X64221000Y-102644612D01*
X64213751Y-102718213D01*
X64185103Y-102812652D01*
X64138582Y-102899687D01*
X64075975Y-102975975D01*
X63999687Y-103038582D01*
X63912651Y-103085103D01*
X63818212Y-103113751D01*
X63720000Y-103123424D01*
X63621787Y-103113751D01*
X63527348Y-103085103D01*
X63440313Y-103038582D01*
X63364025Y-102975975D01*
X63301418Y-102899687D01*
X63254897Y-102812651D01*
X63226249Y-102718212D01*
X63219000Y-102644611D01*
X63219000Y-101795398D01*
X63226250Y-101721786D01*
X63246321Y-101655623D01*
X63254898Y-101627348D01*
X63301419Y-101540313D01*
X63364026Y-101464025D01*
X63440314Y-101401418D01*
X63527349Y-101354897D01*
X63621788Y-101326249D01*
X63720000Y-101316576D01*
X63818213Y-101326249D01*
X63818213Y-101326249D01*
G37*
G36*
X55991213Y-100497502D02*
G01*
X56062321Y-100504505D01*
X56199172Y-100546019D01*
X56199175Y-100546020D01*
X56325294Y-100613432D01*
X56435843Y-100704157D01*
X56526568Y-100814706D01*
X56593980Y-100940825D01*
X56593981Y-100940828D01*
X56635495Y-101077679D01*
X56649512Y-101220000D01*
X56635495Y-101362321D01*
X56598499Y-101484278D01*
X56593980Y-101499175D01*
X56526568Y-101625294D01*
X56435843Y-101735843D01*
X56325294Y-101826568D01*
X56199175Y-101893980D01*
X56199172Y-101893981D01*
X56062321Y-101935495D01*
X55991213Y-101942498D01*
X55955660Y-101946000D01*
X55884340Y-101946000D01*
X55848787Y-101942498D01*
X55777679Y-101935495D01*
X55640828Y-101893981D01*
X55640825Y-101893980D01*
X55514706Y-101826568D01*
X55404157Y-101735843D01*
X55313432Y-101625294D01*
X55246020Y-101499175D01*
X55241501Y-101484278D01*
X55204505Y-101362321D01*
X55190488Y-101220000D01*
X55204505Y-101077679D01*
X55246019Y-100940828D01*
X55246020Y-100940825D01*
X55313432Y-100814706D01*
X55404157Y-100704157D01*
X55514706Y-100613432D01*
X55640825Y-100546020D01*
X55640828Y-100546019D01*
X55777679Y-100504505D01*
X55848787Y-100497502D01*
X55884340Y-100494000D01*
X55955660Y-100494000D01*
X55991213Y-100497502D01*
X55991213Y-100497502D01*
G37*
G36*
X92929468Y-100203565D02*
G01*
X92968138Y-100215296D01*
X93003777Y-100234346D01*
X93035017Y-100259983D01*
X93060654Y-100291223D01*
X93079704Y-100326862D01*
X93091435Y-100365532D01*
X93096000Y-100411888D01*
X93096000Y-101488112D01*
X93091435Y-101534468D01*
X93079704Y-101573138D01*
X93060654Y-101608777D01*
X93035017Y-101640017D01*
X93003777Y-101665654D01*
X92968138Y-101684704D01*
X92929468Y-101696435D01*
X92883112Y-101701000D01*
X92231888Y-101701000D01*
X92185532Y-101696435D01*
X92146862Y-101684704D01*
X92111223Y-101665654D01*
X92079983Y-101640017D01*
X92054346Y-101608777D01*
X92035296Y-101573138D01*
X92023565Y-101534468D01*
X92019000Y-101488112D01*
X92019000Y-100411888D01*
X92023565Y-100365532D01*
X92035296Y-100326862D01*
X92054346Y-100291223D01*
X92079983Y-100259983D01*
X92111223Y-100234346D01*
X92146862Y-100215296D01*
X92185532Y-100203565D01*
X92231888Y-100199000D01*
X92883112Y-100199000D01*
X92929468Y-100203565D01*
X92929468Y-100203565D01*
G37*
G36*
X91054468Y-100203565D02*
G01*
X91093138Y-100215296D01*
X91128777Y-100234346D01*
X91160017Y-100259983D01*
X91185654Y-100291223D01*
X91204704Y-100326862D01*
X91216435Y-100365532D01*
X91221000Y-100411888D01*
X91221000Y-101488112D01*
X91216435Y-101534468D01*
X91204704Y-101573138D01*
X91185654Y-101608777D01*
X91160017Y-101640017D01*
X91128777Y-101665654D01*
X91093138Y-101684704D01*
X91054468Y-101696435D01*
X91008112Y-101701000D01*
X90356888Y-101701000D01*
X90310532Y-101696435D01*
X90271862Y-101684704D01*
X90236223Y-101665654D01*
X90204983Y-101640017D01*
X90179346Y-101608777D01*
X90160296Y-101573138D01*
X90148565Y-101534468D01*
X90144000Y-101488112D01*
X90144000Y-100411888D01*
X90148565Y-100365532D01*
X90160296Y-100326862D01*
X90179346Y-100291223D01*
X90204983Y-100259983D01*
X90236223Y-100234346D01*
X90271862Y-100215296D01*
X90310532Y-100203565D01*
X90356888Y-100199000D01*
X91008112Y-100199000D01*
X91054468Y-100203565D01*
X91054468Y-100203565D01*
G37*
G36*
X96911000Y-101606000D02*
G01*
X93809000Y-101606000D01*
X93809000Y-99004000D01*
X96911000Y-99004000D01*
X96911000Y-101606000D01*
X96911000Y-101606000D01*
G37*
G36*
X55991213Y-98497502D02*
G01*
X56062321Y-98504505D01*
X56199172Y-98546019D01*
X56199175Y-98546020D01*
X56325294Y-98613432D01*
X56435843Y-98704157D01*
X56526568Y-98814706D01*
X56593980Y-98940825D01*
X56593981Y-98940828D01*
X56635495Y-99077679D01*
X56649512Y-99220000D01*
X56635495Y-99362321D01*
X56615343Y-99428751D01*
X56593980Y-99499175D01*
X56526568Y-99625294D01*
X56435843Y-99735843D01*
X56325294Y-99826568D01*
X56199175Y-99893980D01*
X56199172Y-99893981D01*
X56062321Y-99935495D01*
X55991213Y-99942498D01*
X55955660Y-99946000D01*
X55884340Y-99946000D01*
X55848787Y-99942498D01*
X55777679Y-99935495D01*
X55640828Y-99893981D01*
X55640825Y-99893980D01*
X55514706Y-99826568D01*
X55404157Y-99735843D01*
X55313432Y-99625294D01*
X55246020Y-99499175D01*
X55224657Y-99428751D01*
X55204505Y-99362321D01*
X55190488Y-99220000D01*
X55204505Y-99077679D01*
X55246019Y-98940828D01*
X55246020Y-98940825D01*
X55313432Y-98814706D01*
X55404157Y-98704157D01*
X55514706Y-98613432D01*
X55640825Y-98546020D01*
X55640828Y-98546019D01*
X55777679Y-98504505D01*
X55848787Y-98497502D01*
X55884340Y-98494000D01*
X55955660Y-98494000D01*
X55991213Y-98497502D01*
X55991213Y-98497502D01*
G37*
G36*
X91054468Y-98123565D02*
G01*
X91093138Y-98135296D01*
X91128777Y-98154346D01*
X91160017Y-98179983D01*
X91185654Y-98211223D01*
X91204704Y-98246862D01*
X91216435Y-98285532D01*
X91221000Y-98331888D01*
X91221000Y-99408112D01*
X91216435Y-99454468D01*
X91204704Y-99493138D01*
X91185654Y-99528777D01*
X91160017Y-99560017D01*
X91128777Y-99585654D01*
X91093138Y-99604704D01*
X91054468Y-99616435D01*
X91008112Y-99621000D01*
X90356888Y-99621000D01*
X90310532Y-99616435D01*
X90271862Y-99604704D01*
X90236223Y-99585654D01*
X90204983Y-99560017D01*
X90179346Y-99528777D01*
X90160296Y-99493138D01*
X90148565Y-99454468D01*
X90144000Y-99408112D01*
X90144000Y-98331888D01*
X90148565Y-98285532D01*
X90160296Y-98246862D01*
X90179346Y-98211223D01*
X90204983Y-98179983D01*
X90236223Y-98154346D01*
X90271862Y-98135296D01*
X90310532Y-98123565D01*
X90356888Y-98119000D01*
X91008112Y-98119000D01*
X91054468Y-98123565D01*
X91054468Y-98123565D01*
G37*
G36*
X92929468Y-98123565D02*
G01*
X92968138Y-98135296D01*
X93003777Y-98154346D01*
X93035017Y-98179983D01*
X93060654Y-98211223D01*
X93079704Y-98246862D01*
X93091435Y-98285532D01*
X93096000Y-98331888D01*
X93096000Y-99408112D01*
X93091435Y-99454468D01*
X93079704Y-99493138D01*
X93060654Y-99528777D01*
X93035017Y-99560017D01*
X93003777Y-99585654D01*
X92968138Y-99604704D01*
X92929468Y-99616435D01*
X92883112Y-99621000D01*
X92231888Y-99621000D01*
X92185532Y-99616435D01*
X92146862Y-99604704D01*
X92111223Y-99585654D01*
X92079983Y-99560017D01*
X92054346Y-99528777D01*
X92035296Y-99493138D01*
X92023565Y-99454468D01*
X92019000Y-99408112D01*
X92019000Y-98331888D01*
X92023565Y-98285532D01*
X92035296Y-98246862D01*
X92054346Y-98211223D01*
X92079983Y-98179983D01*
X92111223Y-98154346D01*
X92146862Y-98135296D01*
X92185532Y-98123565D01*
X92231888Y-98119000D01*
X92883112Y-98119000D01*
X92929468Y-98123565D01*
X92929468Y-98123565D01*
G37*
G36*
X62728213Y-98441249D02*
G01*
X62822652Y-98469897D01*
X62909687Y-98516418D01*
X62985975Y-98579025D01*
X63048582Y-98655313D01*
X63095103Y-98742348D01*
X63123751Y-98836787D01*
X63133424Y-98935000D01*
X63123751Y-99033213D01*
X63095103Y-99127652D01*
X63048582Y-99214687D01*
X62985975Y-99290975D01*
X62909687Y-99353582D01*
X62822652Y-99400103D01*
X62728213Y-99428751D01*
X62654612Y-99436000D01*
X61805388Y-99436000D01*
X61731787Y-99428751D01*
X61637348Y-99400103D01*
X61550313Y-99353582D01*
X61474025Y-99290975D01*
X61411418Y-99214687D01*
X61364897Y-99127652D01*
X61336249Y-99033213D01*
X61326576Y-98935000D01*
X61336249Y-98836787D01*
X61364897Y-98742348D01*
X61411418Y-98655313D01*
X61474025Y-98579025D01*
X61550313Y-98516418D01*
X61637348Y-98469897D01*
X61731787Y-98441249D01*
X61805388Y-98434000D01*
X62654612Y-98434000D01*
X62728213Y-98441249D01*
X62728213Y-98441249D01*
G37*
G36*
X62728213Y-97171249D02*
G01*
X62822652Y-97199897D01*
X62909687Y-97246418D01*
X62985975Y-97309025D01*
X63048582Y-97385313D01*
X63095103Y-97472348D01*
X63123751Y-97566787D01*
X63133424Y-97665000D01*
X63123751Y-97763213D01*
X63095103Y-97857652D01*
X63048582Y-97944687D01*
X62985975Y-98020975D01*
X62909687Y-98083582D01*
X62822652Y-98130103D01*
X62728213Y-98158751D01*
X62654612Y-98166000D01*
X61805388Y-98166000D01*
X61731787Y-98158751D01*
X61637348Y-98130103D01*
X61550313Y-98083582D01*
X61474025Y-98020975D01*
X61411418Y-97944687D01*
X61364897Y-97857652D01*
X61336249Y-97763213D01*
X61326576Y-97665000D01*
X61336249Y-97566787D01*
X61364897Y-97472348D01*
X61411418Y-97385313D01*
X61474025Y-97309025D01*
X61550313Y-97246418D01*
X61637348Y-97199897D01*
X61731787Y-97171249D01*
X61805388Y-97164000D01*
X62654612Y-97164000D01*
X62728213Y-97171249D01*
X62728213Y-97171249D01*
G37*
G36*
X55991213Y-96497502D02*
G01*
X56062321Y-96504505D01*
X56185554Y-96541888D01*
X56199175Y-96546020D01*
X56325294Y-96613432D01*
X56435843Y-96704157D01*
X56526568Y-96814706D01*
X56593980Y-96940825D01*
X56593981Y-96940828D01*
X56635495Y-97077679D01*
X56649512Y-97220000D01*
X56635495Y-97362321D01*
X56593981Y-97499172D01*
X56593980Y-97499175D01*
X56526568Y-97625294D01*
X56435843Y-97735843D01*
X56325294Y-97826568D01*
X56199175Y-97893980D01*
X56199172Y-97893981D01*
X56062321Y-97935495D01*
X55991213Y-97942498D01*
X55955660Y-97946000D01*
X55884340Y-97946000D01*
X55848787Y-97942498D01*
X55777679Y-97935495D01*
X55640828Y-97893981D01*
X55640825Y-97893980D01*
X55514706Y-97826568D01*
X55404157Y-97735843D01*
X55313432Y-97625294D01*
X55246020Y-97499175D01*
X55246019Y-97499172D01*
X55204505Y-97362321D01*
X55190488Y-97220000D01*
X55204505Y-97077679D01*
X55246019Y-96940828D01*
X55246020Y-96940825D01*
X55313432Y-96814706D01*
X55404157Y-96704157D01*
X55514706Y-96613432D01*
X55640825Y-96546020D01*
X55654446Y-96541888D01*
X55777679Y-96504505D01*
X55848787Y-96497502D01*
X55884340Y-96494000D01*
X55955660Y-96494000D01*
X55991213Y-96497502D01*
X55991213Y-96497502D01*
G37*
G36*
X97629468Y-96333565D02*
G01*
X97668138Y-96345296D01*
X97703777Y-96364346D01*
X97735017Y-96389983D01*
X97760654Y-96421223D01*
X97779704Y-96456862D01*
X97791435Y-96495532D01*
X97796000Y-96541888D01*
X97796000Y-97618112D01*
X97791435Y-97664468D01*
X97779704Y-97703138D01*
X97760654Y-97738777D01*
X97735017Y-97770017D01*
X97703777Y-97795654D01*
X97668138Y-97814704D01*
X97629468Y-97826435D01*
X97583112Y-97831000D01*
X96931888Y-97831000D01*
X96885532Y-97826435D01*
X96846862Y-97814704D01*
X96811223Y-97795654D01*
X96779983Y-97770017D01*
X96754346Y-97738777D01*
X96735296Y-97703138D01*
X96723565Y-97664468D01*
X96719000Y-97618112D01*
X96719000Y-96541888D01*
X96723565Y-96495532D01*
X96735296Y-96456862D01*
X96754346Y-96421223D01*
X96779983Y-96389983D01*
X96811223Y-96364346D01*
X96846862Y-96345296D01*
X96885532Y-96333565D01*
X96931888Y-96329000D01*
X97583112Y-96329000D01*
X97629468Y-96333565D01*
X97629468Y-96333565D01*
G37*
G36*
X95754468Y-96333565D02*
G01*
X95793138Y-96345296D01*
X95828777Y-96364346D01*
X95860017Y-96389983D01*
X95885654Y-96421223D01*
X95904704Y-96456862D01*
X95916435Y-96495532D01*
X95921000Y-96541888D01*
X95921000Y-97618112D01*
X95916435Y-97664468D01*
X95904704Y-97703138D01*
X95885654Y-97738777D01*
X95860017Y-97770017D01*
X95828777Y-97795654D01*
X95793138Y-97814704D01*
X95754468Y-97826435D01*
X95708112Y-97831000D01*
X95056888Y-97831000D01*
X95010532Y-97826435D01*
X94971862Y-97814704D01*
X94936223Y-97795654D01*
X94904983Y-97770017D01*
X94879346Y-97738777D01*
X94860296Y-97703138D01*
X94848565Y-97664468D01*
X94844000Y-97618112D01*
X94844000Y-96541888D01*
X94848565Y-96495532D01*
X94860296Y-96456862D01*
X94879346Y-96421223D01*
X94904983Y-96389983D01*
X94936223Y-96364346D01*
X94971862Y-96345296D01*
X95010532Y-96333565D01*
X95056888Y-96329000D01*
X95708112Y-96329000D01*
X95754468Y-96333565D01*
X95754468Y-96333565D01*
G37*
G36*
X90513642Y-95724781D02*
G01*
X90659414Y-95785162D01*
X90659416Y-95785163D01*
X90790608Y-95872822D01*
X90902178Y-95984392D01*
X90989654Y-96115310D01*
X90989838Y-96115586D01*
X91050219Y-96261358D01*
X91081000Y-96416107D01*
X91081000Y-96573893D01*
X91050219Y-96728642D01*
X91014570Y-96814705D01*
X90989837Y-96874416D01*
X90902178Y-97005608D01*
X90790608Y-97117178D01*
X90659416Y-97204837D01*
X90659415Y-97204838D01*
X90659414Y-97204838D01*
X90513642Y-97265219D01*
X90358893Y-97296000D01*
X90201107Y-97296000D01*
X90046358Y-97265219D01*
X89900586Y-97204838D01*
X89900585Y-97204838D01*
X89900584Y-97204837D01*
X89769392Y-97117178D01*
X89657822Y-97005608D01*
X89570163Y-96874416D01*
X89545430Y-96814705D01*
X89509781Y-96728642D01*
X89479000Y-96573893D01*
X89479000Y-96416107D01*
X89509781Y-96261358D01*
X89570162Y-96115586D01*
X89570346Y-96115310D01*
X89657822Y-95984392D01*
X89769392Y-95872822D01*
X89900584Y-95785163D01*
X89900586Y-95785162D01*
X90046358Y-95724781D01*
X90201107Y-95694000D01*
X90358893Y-95694000D01*
X90513642Y-95724781D01*
X90513642Y-95724781D01*
G37*
G36*
X93053642Y-95724781D02*
G01*
X93199414Y-95785162D01*
X93199416Y-95785163D01*
X93330608Y-95872822D01*
X93442178Y-95984392D01*
X93529654Y-96115310D01*
X93529838Y-96115586D01*
X93590219Y-96261358D01*
X93621000Y-96416107D01*
X93621000Y-96573893D01*
X93590219Y-96728642D01*
X93554570Y-96814705D01*
X93529837Y-96874416D01*
X93442178Y-97005608D01*
X93330608Y-97117178D01*
X93199416Y-97204837D01*
X93199415Y-97204838D01*
X93199414Y-97204838D01*
X93053642Y-97265219D01*
X92898893Y-97296000D01*
X92741107Y-97296000D01*
X92586358Y-97265219D01*
X92440586Y-97204838D01*
X92440585Y-97204838D01*
X92440584Y-97204837D01*
X92309392Y-97117178D01*
X92197822Y-97005608D01*
X92110163Y-96874416D01*
X92085430Y-96814705D01*
X92049781Y-96728642D01*
X92019000Y-96573893D01*
X92019000Y-96416107D01*
X92049781Y-96261358D01*
X92110162Y-96115586D01*
X92110346Y-96115310D01*
X92197822Y-95984392D01*
X92309392Y-95872822D01*
X92440584Y-95785163D01*
X92440586Y-95785162D01*
X92586358Y-95724781D01*
X92741107Y-95694000D01*
X92898893Y-95694000D01*
X93053642Y-95724781D01*
X93053642Y-95724781D01*
G37*
G36*
X62728213Y-95901249D02*
G01*
X62822652Y-95929897D01*
X62909687Y-95976418D01*
X62985975Y-96039025D01*
X63048582Y-96115313D01*
X63095103Y-96202348D01*
X63123751Y-96296787D01*
X63133424Y-96395000D01*
X63123751Y-96493213D01*
X63095103Y-96587652D01*
X63048582Y-96674687D01*
X62985975Y-96750975D01*
X62909687Y-96813582D01*
X62822652Y-96860103D01*
X62728213Y-96888751D01*
X62654612Y-96896000D01*
X61805388Y-96896000D01*
X61731787Y-96888751D01*
X61637348Y-96860103D01*
X61550313Y-96813582D01*
X61474025Y-96750975D01*
X61411418Y-96674687D01*
X61364897Y-96587652D01*
X61336249Y-96493213D01*
X61326576Y-96395000D01*
X61336249Y-96296787D01*
X61364897Y-96202348D01*
X61411418Y-96115313D01*
X61474025Y-96039025D01*
X61550313Y-95976418D01*
X61637348Y-95929897D01*
X61731787Y-95901249D01*
X61805388Y-95894000D01*
X62654612Y-95894000D01*
X62728213Y-95901249D01*
X62728213Y-95901249D01*
G37*
G36*
X75581000Y-96571000D02*
G01*
X69479000Y-96571000D01*
X69479000Y-90469000D01*
X75581000Y-90469000D01*
X75581000Y-96571000D01*
X75581000Y-96571000D01*
G37*
G36*
X55991213Y-94497502D02*
G01*
X56062321Y-94504505D01*
X56199172Y-94546019D01*
X56199175Y-94546020D01*
X56325294Y-94613432D01*
X56435843Y-94704157D01*
X56526568Y-94814706D01*
X56593980Y-94940825D01*
X56593981Y-94940828D01*
X56635495Y-95077679D01*
X56649512Y-95220000D01*
X56635495Y-95362321D01*
X56622643Y-95404687D01*
X56593980Y-95499175D01*
X56526568Y-95625294D01*
X56435843Y-95735843D01*
X56325294Y-95826568D01*
X56199175Y-95893980D01*
X56199172Y-95893981D01*
X56062321Y-95935495D01*
X55991213Y-95942498D01*
X55955660Y-95946000D01*
X55884340Y-95946000D01*
X55848787Y-95942498D01*
X55777679Y-95935495D01*
X55640828Y-95893981D01*
X55640825Y-95893980D01*
X55514706Y-95826568D01*
X55404157Y-95735843D01*
X55313432Y-95625294D01*
X55246020Y-95499175D01*
X55217357Y-95404687D01*
X55204505Y-95362321D01*
X55190488Y-95220000D01*
X55204505Y-95077679D01*
X55246019Y-94940828D01*
X55246020Y-94940825D01*
X55313432Y-94814706D01*
X55404157Y-94704157D01*
X55514706Y-94613432D01*
X55640825Y-94546020D01*
X55640828Y-94546019D01*
X55777679Y-94504505D01*
X55848787Y-94497502D01*
X55884340Y-94494000D01*
X55955660Y-94494000D01*
X55991213Y-94497502D01*
X55991213Y-94497502D01*
G37*
G36*
X62728213Y-94631249D02*
G01*
X62822652Y-94659897D01*
X62909687Y-94706418D01*
X62985975Y-94769025D01*
X63048582Y-94845313D01*
X63095103Y-94932348D01*
X63123751Y-95026787D01*
X63133424Y-95125000D01*
X63123751Y-95223213D01*
X63095103Y-95317652D01*
X63048582Y-95404687D01*
X62985975Y-95480975D01*
X62909687Y-95543582D01*
X62822652Y-95590103D01*
X62728213Y-95618751D01*
X62654612Y-95626000D01*
X61805388Y-95626000D01*
X61731787Y-95618751D01*
X61637348Y-95590103D01*
X61550313Y-95543582D01*
X61474025Y-95480975D01*
X61411418Y-95404687D01*
X61364897Y-95317652D01*
X61336249Y-95223213D01*
X61326576Y-95125000D01*
X61336249Y-95026787D01*
X61364897Y-94932348D01*
X61411418Y-94845313D01*
X61474025Y-94769025D01*
X61550313Y-94706418D01*
X61637348Y-94659897D01*
X61731787Y-94631249D01*
X61805388Y-94624000D01*
X62654612Y-94624000D01*
X62728213Y-94631249D01*
X62728213Y-94631249D01*
G37*
G36*
X93053642Y-93565781D02*
G01*
X93199414Y-93626162D01*
X93199416Y-93626163D01*
X93330608Y-93713822D01*
X93442178Y-93825392D01*
X93529837Y-93956584D01*
X93529838Y-93956586D01*
X93590219Y-94102358D01*
X93621000Y-94257107D01*
X93621000Y-94414893D01*
X93590219Y-94569642D01*
X93534501Y-94704157D01*
X93529837Y-94715416D01*
X93442178Y-94846608D01*
X93330608Y-94958178D01*
X93199416Y-95045837D01*
X93199415Y-95045838D01*
X93199414Y-95045838D01*
X93053642Y-95106219D01*
X92898893Y-95137000D01*
X92741107Y-95137000D01*
X92586358Y-95106219D01*
X92440586Y-95045838D01*
X92440585Y-95045838D01*
X92440584Y-95045837D01*
X92309392Y-94958178D01*
X92197822Y-94846608D01*
X92110163Y-94715416D01*
X92105499Y-94704157D01*
X92049781Y-94569642D01*
X92019000Y-94414893D01*
X92019000Y-94257107D01*
X92049781Y-94102358D01*
X92110162Y-93956586D01*
X92110163Y-93956584D01*
X92197822Y-93825392D01*
X92309392Y-93713822D01*
X92440584Y-93626163D01*
X92440586Y-93626162D01*
X92586358Y-93565781D01*
X92741107Y-93535000D01*
X92898893Y-93535000D01*
X93053642Y-93565781D01*
X93053642Y-93565781D01*
G37*
G36*
X91084468Y-94003565D02*
G01*
X91123138Y-94015296D01*
X91158777Y-94034346D01*
X91190017Y-94059983D01*
X91215654Y-94091223D01*
X91234704Y-94126862D01*
X91246435Y-94165532D01*
X91251000Y-94211888D01*
X91251000Y-94863112D01*
X91246435Y-94909468D01*
X91234704Y-94948138D01*
X91215654Y-94983777D01*
X91190017Y-95015017D01*
X91158777Y-95040654D01*
X91123138Y-95059704D01*
X91084468Y-95071435D01*
X91038112Y-95076000D01*
X89961888Y-95076000D01*
X89915532Y-95071435D01*
X89876862Y-95059704D01*
X89841223Y-95040654D01*
X89809983Y-95015017D01*
X89784346Y-94983777D01*
X89765296Y-94948138D01*
X89753565Y-94909468D01*
X89749000Y-94863112D01*
X89749000Y-94211888D01*
X89753565Y-94165532D01*
X89765296Y-94126862D01*
X89784346Y-94091223D01*
X89809983Y-94059983D01*
X89841223Y-94034346D01*
X89876862Y-94015296D01*
X89915532Y-94003565D01*
X89961888Y-93999000D01*
X91038112Y-93999000D01*
X91084468Y-94003565D01*
X91084468Y-94003565D01*
G37*
G36*
X97868800Y-94871000D02*
G01*
X95266800Y-94871000D01*
X95266800Y-91769000D01*
X97868800Y-91769000D01*
X97868800Y-94871000D01*
X97868800Y-94871000D01*
G37*
G36*
X62728213Y-93361249D02*
G01*
X62822652Y-93389897D01*
X62909687Y-93436418D01*
X62985975Y-93499025D01*
X63048582Y-93575313D01*
X63095103Y-93662348D01*
X63123751Y-93756787D01*
X63133424Y-93855000D01*
X63123751Y-93953213D01*
X63095103Y-94047652D01*
X63048582Y-94134687D01*
X62985975Y-94210975D01*
X62909687Y-94273582D01*
X62822652Y-94320103D01*
X62728213Y-94348751D01*
X62654612Y-94356000D01*
X61805388Y-94356000D01*
X61731787Y-94348751D01*
X61637348Y-94320103D01*
X61550313Y-94273582D01*
X61474025Y-94210975D01*
X61411418Y-94134687D01*
X61364897Y-94047652D01*
X61336249Y-93953213D01*
X61326576Y-93855000D01*
X61336249Y-93756787D01*
X61364897Y-93662348D01*
X61411418Y-93575313D01*
X61474025Y-93499025D01*
X61550313Y-93436418D01*
X61637348Y-93389897D01*
X61731787Y-93361249D01*
X61805388Y-93354000D01*
X62654612Y-93354000D01*
X62728213Y-93361249D01*
X62728213Y-93361249D01*
G37*
G36*
X55991213Y-92497502D02*
G01*
X56062321Y-92504505D01*
X56199172Y-92546019D01*
X56199175Y-92546020D01*
X56325294Y-92613432D01*
X56435843Y-92704157D01*
X56526568Y-92814706D01*
X56593980Y-92940825D01*
X56593981Y-92940828D01*
X56635495Y-93077679D01*
X56649512Y-93220000D01*
X56635495Y-93362321D01*
X56594026Y-93499025D01*
X56593980Y-93499175D01*
X56526568Y-93625294D01*
X56435843Y-93735843D01*
X56325294Y-93826568D01*
X56199175Y-93893980D01*
X56199172Y-93893981D01*
X56062321Y-93935495D01*
X55991213Y-93942498D01*
X55955660Y-93946000D01*
X55884340Y-93946000D01*
X55848787Y-93942498D01*
X55777679Y-93935495D01*
X55640828Y-93893981D01*
X55640825Y-93893980D01*
X55514706Y-93826568D01*
X55404157Y-93735843D01*
X55313432Y-93625294D01*
X55246020Y-93499175D01*
X55245974Y-93499025D01*
X55204505Y-93362321D01*
X55190488Y-93220000D01*
X55204505Y-93077679D01*
X55246019Y-92940828D01*
X55246020Y-92940825D01*
X55313432Y-92814706D01*
X55404157Y-92704157D01*
X55514706Y-92613432D01*
X55640825Y-92546020D01*
X55640828Y-92546019D01*
X55777679Y-92504505D01*
X55848787Y-92497502D01*
X55884340Y-92494000D01*
X55955660Y-92494000D01*
X55991213Y-92497502D01*
X55991213Y-92497502D01*
G37*
G36*
X91084468Y-92128565D02*
G01*
X91123138Y-92140296D01*
X91158777Y-92159346D01*
X91190017Y-92184983D01*
X91215654Y-92216223D01*
X91234704Y-92251862D01*
X91246435Y-92290532D01*
X91251000Y-92336888D01*
X91251000Y-92988112D01*
X91246435Y-93034468D01*
X91234704Y-93073138D01*
X91215654Y-93108777D01*
X91190017Y-93140017D01*
X91158777Y-93165654D01*
X91123138Y-93184704D01*
X91084468Y-93196435D01*
X91038112Y-93201000D01*
X89961888Y-93201000D01*
X89915532Y-93196435D01*
X89876862Y-93184704D01*
X89841223Y-93165654D01*
X89809983Y-93140017D01*
X89784346Y-93108777D01*
X89765296Y-93073138D01*
X89753565Y-93034468D01*
X89749000Y-92988112D01*
X89749000Y-92336888D01*
X89753565Y-92290532D01*
X89765296Y-92251862D01*
X89784346Y-92216223D01*
X89809983Y-92184983D01*
X89841223Y-92159346D01*
X89876862Y-92140296D01*
X89915532Y-92128565D01*
X89961888Y-92124000D01*
X91038112Y-92124000D01*
X91084468Y-92128565D01*
X91084468Y-92128565D01*
G37*
G36*
X62728213Y-92091249D02*
G01*
X62822652Y-92119897D01*
X62909687Y-92166418D01*
X62985975Y-92229025D01*
X63048582Y-92305313D01*
X63095103Y-92392348D01*
X63123751Y-92486787D01*
X63133424Y-92585000D01*
X63123751Y-92683213D01*
X63095103Y-92777652D01*
X63048582Y-92864687D01*
X62985975Y-92940975D01*
X62909687Y-93003582D01*
X62822652Y-93050103D01*
X62728213Y-93078751D01*
X62654612Y-93086000D01*
X61805388Y-93086000D01*
X61731787Y-93078751D01*
X61637348Y-93050103D01*
X61550313Y-93003582D01*
X61474025Y-92940975D01*
X61411418Y-92864687D01*
X61364897Y-92777652D01*
X61336249Y-92683213D01*
X61326576Y-92585000D01*
X61336249Y-92486787D01*
X61364897Y-92392348D01*
X61411418Y-92305313D01*
X61474025Y-92229025D01*
X61550313Y-92166418D01*
X61637348Y-92119897D01*
X61731787Y-92091249D01*
X61805388Y-92084000D01*
X62654612Y-92084000D01*
X62728213Y-92091249D01*
X62728213Y-92091249D01*
G37*
G36*
X93053642Y-91406781D02*
G01*
X93199414Y-91467162D01*
X93199416Y-91467163D01*
X93330608Y-91554822D01*
X93442178Y-91666392D01*
X93529837Y-91797584D01*
X93529838Y-91797586D01*
X93590219Y-91943358D01*
X93621000Y-92098107D01*
X93621000Y-92255893D01*
X93590219Y-92410642D01*
X93534144Y-92546019D01*
X93529837Y-92556416D01*
X93442178Y-92687608D01*
X93330608Y-92799178D01*
X93199416Y-92886837D01*
X93199415Y-92886838D01*
X93199414Y-92886838D01*
X93053642Y-92947219D01*
X92898893Y-92978000D01*
X92741107Y-92978000D01*
X92586358Y-92947219D01*
X92440586Y-92886838D01*
X92440585Y-92886838D01*
X92440584Y-92886837D01*
X92309392Y-92799178D01*
X92197822Y-92687608D01*
X92110163Y-92556416D01*
X92105856Y-92546019D01*
X92049781Y-92410642D01*
X92019000Y-92255893D01*
X92019000Y-92098107D01*
X92049781Y-91943358D01*
X92110162Y-91797586D01*
X92110163Y-91797584D01*
X92197822Y-91666392D01*
X92309392Y-91554822D01*
X92440584Y-91467163D01*
X92440586Y-91467162D01*
X92586358Y-91406781D01*
X92741107Y-91376000D01*
X92898893Y-91376000D01*
X93053642Y-91406781D01*
X93053642Y-91406781D01*
G37*
G36*
X55991213Y-90497502D02*
G01*
X56062321Y-90504505D01*
X56199109Y-90546000D01*
X56199175Y-90546020D01*
X56325294Y-90613432D01*
X56435843Y-90704157D01*
X56526568Y-90814706D01*
X56593980Y-90940825D01*
X56593981Y-90940828D01*
X56635495Y-91077679D01*
X56649512Y-91220000D01*
X56635495Y-91362321D01*
X56603691Y-91467162D01*
X56593980Y-91499175D01*
X56526568Y-91625294D01*
X56435843Y-91735843D01*
X56325294Y-91826568D01*
X56199175Y-91893980D01*
X56199172Y-91893981D01*
X56062321Y-91935495D01*
X55991213Y-91942498D01*
X55955660Y-91946000D01*
X55884340Y-91946000D01*
X55848787Y-91942498D01*
X55777679Y-91935495D01*
X55640828Y-91893981D01*
X55640825Y-91893980D01*
X55514706Y-91826568D01*
X55404157Y-91735843D01*
X55313432Y-91625294D01*
X55246020Y-91499175D01*
X55236309Y-91467162D01*
X55204505Y-91362321D01*
X55190488Y-91220000D01*
X55204505Y-91077679D01*
X55246019Y-90940828D01*
X55246020Y-90940825D01*
X55313432Y-90814706D01*
X55404157Y-90704157D01*
X55514706Y-90613432D01*
X55640825Y-90546020D01*
X55640891Y-90546000D01*
X55777679Y-90504505D01*
X55848787Y-90497502D01*
X55884340Y-90494000D01*
X55955660Y-90494000D01*
X55991213Y-90497502D01*
X55991213Y-90497502D01*
G37*
G36*
X62728213Y-90821249D02*
G01*
X62822652Y-90849897D01*
X62909687Y-90896418D01*
X62985975Y-90959025D01*
X63048582Y-91035313D01*
X63095103Y-91122348D01*
X63123751Y-91216787D01*
X63133424Y-91315000D01*
X63123751Y-91413213D01*
X63095103Y-91507652D01*
X63048582Y-91594687D01*
X62985975Y-91670975D01*
X62909687Y-91733582D01*
X62822652Y-91780103D01*
X62728213Y-91808751D01*
X62654612Y-91816000D01*
X61805388Y-91816000D01*
X61731787Y-91808751D01*
X61637348Y-91780103D01*
X61550313Y-91733582D01*
X61474025Y-91670975D01*
X61411418Y-91594687D01*
X61364897Y-91507652D01*
X61336249Y-91413213D01*
X61326576Y-91315000D01*
X61336249Y-91216787D01*
X61364897Y-91122348D01*
X61411418Y-91035313D01*
X61474025Y-90959025D01*
X61550313Y-90896418D01*
X61637348Y-90849897D01*
X61731787Y-90821249D01*
X61805388Y-90814000D01*
X62654612Y-90814000D01*
X62728213Y-90821249D01*
X62728213Y-90821249D01*
G37*
G36*
X93053642Y-89374781D02*
G01*
X93199414Y-89435162D01*
X93199416Y-89435163D01*
X93330608Y-89522822D01*
X93442178Y-89634392D01*
X93529654Y-89765310D01*
X93529838Y-89765586D01*
X93590219Y-89911358D01*
X93621000Y-90066107D01*
X93621000Y-90223893D01*
X93590219Y-90378642D01*
X93535766Y-90510102D01*
X93529837Y-90524416D01*
X93442178Y-90655608D01*
X93330608Y-90767178D01*
X93199416Y-90854837D01*
X93199415Y-90854838D01*
X93199414Y-90854838D01*
X93053642Y-90915219D01*
X92898893Y-90946000D01*
X92741107Y-90946000D01*
X92586358Y-90915219D01*
X92440586Y-90854838D01*
X92440585Y-90854838D01*
X92440584Y-90854837D01*
X92309392Y-90767178D01*
X92197822Y-90655608D01*
X92110163Y-90524416D01*
X92104234Y-90510102D01*
X92049781Y-90378642D01*
X92019000Y-90223893D01*
X92019000Y-90066107D01*
X92049781Y-89911358D01*
X92110162Y-89765586D01*
X92110346Y-89765310D01*
X92197822Y-89634392D01*
X92309392Y-89522822D01*
X92440584Y-89435163D01*
X92440586Y-89435162D01*
X92586358Y-89374781D01*
X92741107Y-89344000D01*
X92898893Y-89344000D01*
X93053642Y-89374781D01*
X93053642Y-89374781D01*
G37*
G36*
X90513642Y-89374781D02*
G01*
X90659414Y-89435162D01*
X90659416Y-89435163D01*
X90790608Y-89522822D01*
X90902178Y-89634392D01*
X90989654Y-89765310D01*
X90989838Y-89765586D01*
X91050219Y-89911358D01*
X91081000Y-90066107D01*
X91081000Y-90223893D01*
X91050219Y-90378642D01*
X90995766Y-90510102D01*
X90989837Y-90524416D01*
X90902178Y-90655608D01*
X90790608Y-90767178D01*
X90659416Y-90854837D01*
X90659415Y-90854838D01*
X90659414Y-90854838D01*
X90513642Y-90915219D01*
X90358893Y-90946000D01*
X90201107Y-90946000D01*
X90046358Y-90915219D01*
X89900586Y-90854838D01*
X89900585Y-90854838D01*
X89900584Y-90854837D01*
X89769392Y-90767178D01*
X89657822Y-90655608D01*
X89570163Y-90524416D01*
X89564234Y-90510102D01*
X89509781Y-90378642D01*
X89479000Y-90223893D01*
X89479000Y-90066107D01*
X89509781Y-89911358D01*
X89570162Y-89765586D01*
X89570346Y-89765310D01*
X89657822Y-89634392D01*
X89769392Y-89522822D01*
X89900584Y-89435163D01*
X89900586Y-89435162D01*
X90046358Y-89374781D01*
X90201107Y-89344000D01*
X90358893Y-89344000D01*
X90513642Y-89374781D01*
X90513642Y-89374781D01*
G37*
G36*
X62728213Y-89551249D02*
G01*
X62822652Y-89579897D01*
X62909687Y-89626418D01*
X62985975Y-89689025D01*
X63048582Y-89765313D01*
X63095103Y-89852348D01*
X63123751Y-89946787D01*
X63133424Y-90045000D01*
X63123751Y-90143213D01*
X63095103Y-90237652D01*
X63048582Y-90324687D01*
X62985975Y-90400975D01*
X62909687Y-90463582D01*
X62822652Y-90510103D01*
X62728213Y-90538751D01*
X62654612Y-90546000D01*
X61805388Y-90546000D01*
X61731787Y-90538751D01*
X61637348Y-90510103D01*
X61550313Y-90463582D01*
X61474025Y-90400975D01*
X61411418Y-90324687D01*
X61364897Y-90237652D01*
X61336249Y-90143213D01*
X61326576Y-90045000D01*
X61336249Y-89946787D01*
X61364897Y-89852348D01*
X61411418Y-89765313D01*
X61474025Y-89689025D01*
X61550313Y-89626418D01*
X61637348Y-89579897D01*
X61731787Y-89551249D01*
X61805388Y-89544000D01*
X62654612Y-89544000D01*
X62728213Y-89551249D01*
X62728213Y-89551249D01*
G37*
G36*
X55991213Y-88497502D02*
G01*
X56062321Y-88504505D01*
X56199172Y-88546019D01*
X56199175Y-88546020D01*
X56325294Y-88613432D01*
X56435843Y-88704157D01*
X56526568Y-88814706D01*
X56593980Y-88940825D01*
X56593981Y-88940828D01*
X56635495Y-89077679D01*
X56649512Y-89220000D01*
X56635495Y-89362321D01*
X56613398Y-89435163D01*
X56593980Y-89499175D01*
X56526568Y-89625294D01*
X56435843Y-89735843D01*
X56325294Y-89826568D01*
X56199175Y-89893980D01*
X56199172Y-89893981D01*
X56062321Y-89935495D01*
X55991213Y-89942498D01*
X55955660Y-89946000D01*
X55884340Y-89946000D01*
X55848787Y-89942498D01*
X55777679Y-89935495D01*
X55640828Y-89893981D01*
X55640825Y-89893980D01*
X55514706Y-89826568D01*
X55404157Y-89735843D01*
X55313432Y-89625294D01*
X55246020Y-89499175D01*
X55226602Y-89435163D01*
X55204505Y-89362321D01*
X55190488Y-89220000D01*
X55204505Y-89077679D01*
X55246019Y-88940828D01*
X55246020Y-88940825D01*
X55313432Y-88814706D01*
X55404157Y-88704157D01*
X55514706Y-88613432D01*
X55640825Y-88546020D01*
X55640828Y-88546019D01*
X55777679Y-88504505D01*
X55848787Y-88497502D01*
X55884340Y-88494000D01*
X55955660Y-88494000D01*
X55991213Y-88497502D01*
X55991213Y-88497502D01*
G37*
G36*
X62728213Y-88281249D02*
G01*
X62822652Y-88309897D01*
X62909687Y-88356418D01*
X62985975Y-88419025D01*
X63048582Y-88495313D01*
X63095103Y-88582348D01*
X63123751Y-88676787D01*
X63133424Y-88775000D01*
X63123751Y-88873213D01*
X63095103Y-88967652D01*
X63048582Y-89054687D01*
X62985975Y-89130975D01*
X62909687Y-89193582D01*
X62822652Y-89240103D01*
X62728213Y-89268751D01*
X62654612Y-89276000D01*
X61805388Y-89276000D01*
X61731787Y-89268751D01*
X61637348Y-89240103D01*
X61550313Y-89193582D01*
X61474025Y-89130975D01*
X61411418Y-89054687D01*
X61364897Y-88967652D01*
X61336249Y-88873213D01*
X61326576Y-88775000D01*
X61336249Y-88676787D01*
X61364897Y-88582348D01*
X61411418Y-88495313D01*
X61474025Y-88419025D01*
X61550313Y-88356418D01*
X61637348Y-88309897D01*
X61731787Y-88281249D01*
X61805388Y-88274000D01*
X62654612Y-88274000D01*
X62728213Y-88281249D01*
X62728213Y-88281249D01*
G37*
G36*
X92049468Y-86683565D02*
G01*
X92088138Y-86695296D01*
X92123777Y-86714346D01*
X92155017Y-86739983D01*
X92180654Y-86771223D01*
X92199704Y-86806862D01*
X92211435Y-86845532D01*
X92216000Y-86891888D01*
X92216000Y-87968112D01*
X92211435Y-88014468D01*
X92199704Y-88053138D01*
X92180654Y-88088777D01*
X92155017Y-88120017D01*
X92123777Y-88145654D01*
X92088138Y-88164704D01*
X92049468Y-88176435D01*
X92003112Y-88181000D01*
X91351888Y-88181000D01*
X91305532Y-88176435D01*
X91266862Y-88164704D01*
X91231223Y-88145654D01*
X91199983Y-88120017D01*
X91174346Y-88088777D01*
X91155296Y-88053138D01*
X91143565Y-88014468D01*
X91139000Y-87968112D01*
X91139000Y-86891888D01*
X91143565Y-86845532D01*
X91155296Y-86806862D01*
X91174346Y-86771223D01*
X91199983Y-86739983D01*
X91231223Y-86714346D01*
X91266862Y-86695296D01*
X91305532Y-86683565D01*
X91351888Y-86679000D01*
X92003112Y-86679000D01*
X92049468Y-86683565D01*
X92049468Y-86683565D01*
G37*
G36*
X90174468Y-86683565D02*
G01*
X90213138Y-86695296D01*
X90248777Y-86714346D01*
X90280017Y-86739983D01*
X90305654Y-86771223D01*
X90324704Y-86806862D01*
X90336435Y-86845532D01*
X90341000Y-86891888D01*
X90341000Y-87968112D01*
X90336435Y-88014468D01*
X90324704Y-88053138D01*
X90305654Y-88088777D01*
X90280017Y-88120017D01*
X90248777Y-88145654D01*
X90213138Y-88164704D01*
X90174468Y-88176435D01*
X90128112Y-88181000D01*
X89476888Y-88181000D01*
X89430532Y-88176435D01*
X89391862Y-88164704D01*
X89356223Y-88145654D01*
X89324983Y-88120017D01*
X89299346Y-88088777D01*
X89280296Y-88053138D01*
X89268565Y-88014468D01*
X89264000Y-87968112D01*
X89264000Y-86891888D01*
X89268565Y-86845532D01*
X89280296Y-86806862D01*
X89299346Y-86771223D01*
X89324983Y-86739983D01*
X89356223Y-86714346D01*
X89391862Y-86695296D01*
X89430532Y-86683565D01*
X89476888Y-86679000D01*
X90128112Y-86679000D01*
X90174468Y-86683565D01*
X90174468Y-86683565D01*
G37*
G36*
X62728213Y-87011249D02*
G01*
X62822652Y-87039897D01*
X62909687Y-87086418D01*
X62985975Y-87149025D01*
X63048582Y-87225313D01*
X63095103Y-87312348D01*
X63123751Y-87406787D01*
X63133424Y-87505000D01*
X63123751Y-87603213D01*
X63095103Y-87697652D01*
X63048582Y-87784687D01*
X62985975Y-87860975D01*
X62909687Y-87923582D01*
X62822652Y-87970103D01*
X62728213Y-87998751D01*
X62654612Y-88006000D01*
X61805388Y-88006000D01*
X61731787Y-87998751D01*
X61637348Y-87970103D01*
X61550313Y-87923582D01*
X61474025Y-87860975D01*
X61411418Y-87784687D01*
X61364897Y-87697652D01*
X61336249Y-87603213D01*
X61326576Y-87505000D01*
X61336249Y-87406787D01*
X61364897Y-87312348D01*
X61411418Y-87225313D01*
X61474025Y-87149025D01*
X61550313Y-87086418D01*
X61637348Y-87039897D01*
X61731787Y-87011249D01*
X61805388Y-87004000D01*
X62654612Y-87004000D01*
X62728213Y-87011249D01*
X62728213Y-87011249D01*
G37*
G36*
X55991213Y-86497502D02*
G01*
X56062321Y-86504505D01*
X56199172Y-86546019D01*
X56199175Y-86546020D01*
X56325294Y-86613432D01*
X56435843Y-86704157D01*
X56526568Y-86814706D01*
X56593980Y-86940825D01*
X56593981Y-86940828D01*
X56635495Y-87077679D01*
X56649512Y-87220000D01*
X56635495Y-87362321D01*
X56593981Y-87499172D01*
X56593980Y-87499175D01*
X56526568Y-87625294D01*
X56435843Y-87735843D01*
X56325294Y-87826568D01*
X56199175Y-87893980D01*
X56199172Y-87893981D01*
X56062321Y-87935495D01*
X55991213Y-87942498D01*
X55955660Y-87946000D01*
X55884340Y-87946000D01*
X55848787Y-87942498D01*
X55777679Y-87935495D01*
X55640828Y-87893981D01*
X55640825Y-87893980D01*
X55514706Y-87826568D01*
X55404157Y-87735843D01*
X55313432Y-87625294D01*
X55246020Y-87499175D01*
X55246019Y-87499172D01*
X55204505Y-87362321D01*
X55190488Y-87220000D01*
X55204505Y-87077679D01*
X55246019Y-86940828D01*
X55246020Y-86940825D01*
X55313432Y-86814706D01*
X55404157Y-86704157D01*
X55514706Y-86613432D01*
X55640825Y-86546020D01*
X55640828Y-86546019D01*
X55777679Y-86504505D01*
X55848787Y-86497502D01*
X55884340Y-86494000D01*
X55955660Y-86494000D01*
X55991213Y-86497502D01*
X55991213Y-86497502D01*
G37*
G36*
X96911000Y-87636000D02*
G01*
X93809000Y-87636000D01*
X93809000Y-85034000D01*
X96911000Y-85034000D01*
X96911000Y-87636000D01*
X96911000Y-87636000D01*
G37*
G36*
X56646000Y-85946000D02*
G01*
X55194000Y-85946000D01*
X55194000Y-84494000D01*
X56646000Y-84494000D01*
X56646000Y-85946000D01*
X56646000Y-85946000D01*
G37*
G36*
X60559468Y-83843565D02*
G01*
X60598138Y-83855296D01*
X60633777Y-83874346D01*
X60665017Y-83899983D01*
X60690654Y-83931223D01*
X60709704Y-83966862D01*
X60721435Y-84005532D01*
X60726000Y-84051888D01*
X60726000Y-85128112D01*
X60721435Y-85174468D01*
X60709704Y-85213138D01*
X60690654Y-85248777D01*
X60665017Y-85280017D01*
X60633777Y-85305654D01*
X60598138Y-85324704D01*
X60559468Y-85336435D01*
X60513112Y-85341000D01*
X59861888Y-85341000D01*
X59815532Y-85336435D01*
X59776862Y-85324704D01*
X59741223Y-85305654D01*
X59709983Y-85280017D01*
X59684346Y-85248777D01*
X59665296Y-85213138D01*
X59653565Y-85174468D01*
X59649000Y-85128112D01*
X59649000Y-84051888D01*
X59653565Y-84005532D01*
X59665296Y-83966862D01*
X59684346Y-83931223D01*
X59709983Y-83899983D01*
X59741223Y-83874346D01*
X59776862Y-83855296D01*
X59815532Y-83843565D01*
X59861888Y-83839000D01*
X60513112Y-83839000D01*
X60559468Y-83843565D01*
X60559468Y-83843565D01*
G37*
G36*
X58684468Y-83843565D02*
G01*
X58723138Y-83855296D01*
X58758777Y-83874346D01*
X58790017Y-83899983D01*
X58815654Y-83931223D01*
X58834704Y-83966862D01*
X58846435Y-84005532D01*
X58851000Y-84051888D01*
X58851000Y-85128112D01*
X58846435Y-85174468D01*
X58834704Y-85213138D01*
X58815654Y-85248777D01*
X58790017Y-85280017D01*
X58758777Y-85305654D01*
X58723138Y-85324704D01*
X58684468Y-85336435D01*
X58638112Y-85341000D01*
X57986888Y-85341000D01*
X57940532Y-85336435D01*
X57901862Y-85324704D01*
X57866223Y-85305654D01*
X57834983Y-85280017D01*
X57809346Y-85248777D01*
X57790296Y-85213138D01*
X57778565Y-85174468D01*
X57774000Y-85128112D01*
X57774000Y-84051888D01*
X57778565Y-84005532D01*
X57790296Y-83966862D01*
X57809346Y-83931223D01*
X57834983Y-83899983D01*
X57866223Y-83874346D01*
X57901862Y-83855296D01*
X57940532Y-83843565D01*
X57986888Y-83839000D01*
X58638112Y-83839000D01*
X58684468Y-83843565D01*
X58684468Y-83843565D01*
G37*
G36*
X63818213Y-83326249D02*
G01*
X63912652Y-83354897D01*
X63999687Y-83401418D01*
X64075975Y-83464025D01*
X64138582Y-83540313D01*
X64185103Y-83627348D01*
X64213751Y-83721787D01*
X64221000Y-83795388D01*
X64221000Y-84644612D01*
X64213751Y-84718213D01*
X64185103Y-84812652D01*
X64138582Y-84899687D01*
X64075975Y-84975975D01*
X63999687Y-85038582D01*
X63912651Y-85085103D01*
X63818212Y-85113751D01*
X63720000Y-85123424D01*
X63621787Y-85113751D01*
X63527348Y-85085103D01*
X63440313Y-85038582D01*
X63364025Y-84975975D01*
X63301418Y-84899687D01*
X63254897Y-84812651D01*
X63226249Y-84718212D01*
X63219000Y-84644611D01*
X63219000Y-83795398D01*
X63226250Y-83721786D01*
X63236846Y-83686856D01*
X63254898Y-83627348D01*
X63301419Y-83540313D01*
X63364026Y-83464025D01*
X63440314Y-83401418D01*
X63527349Y-83354897D01*
X63621788Y-83326249D01*
X63720000Y-83316576D01*
X63818213Y-83326249D01*
X63818213Y-83326249D01*
G37*
G36*
X65088213Y-83326249D02*
G01*
X65182652Y-83354897D01*
X65269687Y-83401418D01*
X65345975Y-83464025D01*
X65408582Y-83540313D01*
X65455103Y-83627348D01*
X65483751Y-83721787D01*
X65491000Y-83795388D01*
X65491000Y-84644612D01*
X65483751Y-84718213D01*
X65455103Y-84812652D01*
X65408582Y-84899687D01*
X65345975Y-84975975D01*
X65269687Y-85038582D01*
X65182651Y-85085103D01*
X65088212Y-85113751D01*
X64990000Y-85123424D01*
X64891787Y-85113751D01*
X64797348Y-85085103D01*
X64710313Y-85038582D01*
X64634025Y-84975975D01*
X64571418Y-84899687D01*
X64524897Y-84812651D01*
X64496249Y-84718212D01*
X64489000Y-84644611D01*
X64489000Y-83795398D01*
X64496250Y-83721786D01*
X64506846Y-83686856D01*
X64524898Y-83627348D01*
X64571419Y-83540313D01*
X64634026Y-83464025D01*
X64710314Y-83401418D01*
X64797349Y-83354897D01*
X64891788Y-83326249D01*
X64990000Y-83316576D01*
X65088213Y-83326249D01*
X65088213Y-83326249D01*
G37*
G36*
X80328213Y-83326249D02*
G01*
X80422652Y-83354897D01*
X80509687Y-83401418D01*
X80585975Y-83464025D01*
X80648582Y-83540313D01*
X80695103Y-83627348D01*
X80723751Y-83721787D01*
X80731000Y-83795388D01*
X80731000Y-84644612D01*
X80723751Y-84718213D01*
X80695103Y-84812652D01*
X80648582Y-84899687D01*
X80585975Y-84975975D01*
X80509687Y-85038582D01*
X80422651Y-85085103D01*
X80328212Y-85113751D01*
X80230000Y-85123424D01*
X80131787Y-85113751D01*
X80037348Y-85085103D01*
X79950313Y-85038582D01*
X79874025Y-84975975D01*
X79811418Y-84899687D01*
X79764897Y-84812651D01*
X79736249Y-84718212D01*
X79729000Y-84644611D01*
X79729000Y-83795398D01*
X79736250Y-83721786D01*
X79746846Y-83686856D01*
X79764898Y-83627348D01*
X79811419Y-83540313D01*
X79874026Y-83464025D01*
X79950314Y-83401418D01*
X80037349Y-83354897D01*
X80131788Y-83326249D01*
X80230000Y-83316576D01*
X80328213Y-83326249D01*
X80328213Y-83326249D01*
G37*
G36*
X79058213Y-83326249D02*
G01*
X79152652Y-83354897D01*
X79239687Y-83401418D01*
X79315975Y-83464025D01*
X79378582Y-83540313D01*
X79425103Y-83627348D01*
X79453751Y-83721787D01*
X79461000Y-83795388D01*
X79461000Y-84644612D01*
X79453751Y-84718213D01*
X79425103Y-84812652D01*
X79378582Y-84899687D01*
X79315975Y-84975975D01*
X79239687Y-85038582D01*
X79152651Y-85085103D01*
X79058212Y-85113751D01*
X78960000Y-85123424D01*
X78861787Y-85113751D01*
X78767348Y-85085103D01*
X78680313Y-85038582D01*
X78604025Y-84975975D01*
X78541418Y-84899687D01*
X78494897Y-84812651D01*
X78466249Y-84718212D01*
X78459000Y-84644611D01*
X78459000Y-83795398D01*
X78466250Y-83721786D01*
X78476846Y-83686856D01*
X78494898Y-83627348D01*
X78541419Y-83540313D01*
X78604026Y-83464025D01*
X78680314Y-83401418D01*
X78767349Y-83354897D01*
X78861788Y-83326249D01*
X78960000Y-83316576D01*
X79058213Y-83326249D01*
X79058213Y-83326249D01*
G37*
G36*
X77788213Y-83326249D02*
G01*
X77882652Y-83354897D01*
X77969687Y-83401418D01*
X78045975Y-83464025D01*
X78108582Y-83540313D01*
X78155103Y-83627348D01*
X78183751Y-83721787D01*
X78191000Y-83795388D01*
X78191000Y-84644612D01*
X78183751Y-84718213D01*
X78155103Y-84812652D01*
X78108582Y-84899687D01*
X78045975Y-84975975D01*
X77969687Y-85038582D01*
X77882651Y-85085103D01*
X77788212Y-85113751D01*
X77690000Y-85123424D01*
X77591787Y-85113751D01*
X77497348Y-85085103D01*
X77410313Y-85038582D01*
X77334025Y-84975975D01*
X77271418Y-84899687D01*
X77224897Y-84812651D01*
X77196249Y-84718212D01*
X77189000Y-84644611D01*
X77189000Y-83795398D01*
X77196250Y-83721786D01*
X77206846Y-83686856D01*
X77224898Y-83627348D01*
X77271419Y-83540313D01*
X77334026Y-83464025D01*
X77410314Y-83401418D01*
X77497349Y-83354897D01*
X77591788Y-83326249D01*
X77690000Y-83316576D01*
X77788213Y-83326249D01*
X77788213Y-83326249D01*
G37*
G36*
X76518213Y-83326249D02*
G01*
X76612652Y-83354897D01*
X76699687Y-83401418D01*
X76775975Y-83464025D01*
X76838582Y-83540313D01*
X76885103Y-83627348D01*
X76913751Y-83721787D01*
X76921000Y-83795388D01*
X76921000Y-84644612D01*
X76913751Y-84718213D01*
X76885103Y-84812652D01*
X76838582Y-84899687D01*
X76775975Y-84975975D01*
X76699687Y-85038582D01*
X76612651Y-85085103D01*
X76518212Y-85113751D01*
X76420000Y-85123424D01*
X76321787Y-85113751D01*
X76227348Y-85085103D01*
X76140313Y-85038582D01*
X76064025Y-84975975D01*
X76001418Y-84899687D01*
X75954897Y-84812651D01*
X75926249Y-84718212D01*
X75919000Y-84644611D01*
X75919000Y-83795398D01*
X75926250Y-83721786D01*
X75936846Y-83686856D01*
X75954898Y-83627348D01*
X76001419Y-83540313D01*
X76064026Y-83464025D01*
X76140314Y-83401418D01*
X76227349Y-83354897D01*
X76321788Y-83326249D01*
X76420000Y-83316576D01*
X76518213Y-83326249D01*
X76518213Y-83326249D01*
G37*
G36*
X75248213Y-83326249D02*
G01*
X75342652Y-83354897D01*
X75429687Y-83401418D01*
X75505975Y-83464025D01*
X75568582Y-83540313D01*
X75615103Y-83627348D01*
X75643751Y-83721787D01*
X75651000Y-83795388D01*
X75651000Y-84644612D01*
X75643751Y-84718213D01*
X75615103Y-84812652D01*
X75568582Y-84899687D01*
X75505975Y-84975975D01*
X75429687Y-85038582D01*
X75342651Y-85085103D01*
X75248212Y-85113751D01*
X75150000Y-85123424D01*
X75051787Y-85113751D01*
X74957348Y-85085103D01*
X74870313Y-85038582D01*
X74794025Y-84975975D01*
X74731418Y-84899687D01*
X74684897Y-84812651D01*
X74656249Y-84718212D01*
X74649000Y-84644611D01*
X74649000Y-83795398D01*
X74656250Y-83721786D01*
X74666846Y-83686856D01*
X74684898Y-83627348D01*
X74731419Y-83540313D01*
X74794026Y-83464025D01*
X74870314Y-83401418D01*
X74957349Y-83354897D01*
X75051788Y-83326249D01*
X75150000Y-83316576D01*
X75248213Y-83326249D01*
X75248213Y-83326249D01*
G37*
G36*
X73978213Y-83326249D02*
G01*
X74072652Y-83354897D01*
X74159687Y-83401418D01*
X74235975Y-83464025D01*
X74298582Y-83540313D01*
X74345103Y-83627348D01*
X74373751Y-83721787D01*
X74381000Y-83795388D01*
X74381000Y-84644612D01*
X74373751Y-84718213D01*
X74345103Y-84812652D01*
X74298582Y-84899687D01*
X74235975Y-84975975D01*
X74159687Y-85038582D01*
X74072651Y-85085103D01*
X73978212Y-85113751D01*
X73880000Y-85123424D01*
X73781787Y-85113751D01*
X73687348Y-85085103D01*
X73600313Y-85038582D01*
X73524025Y-84975975D01*
X73461418Y-84899687D01*
X73414897Y-84812651D01*
X73386249Y-84718212D01*
X73379000Y-84644611D01*
X73379000Y-83795398D01*
X73386250Y-83721786D01*
X73396846Y-83686856D01*
X73414898Y-83627348D01*
X73461419Y-83540313D01*
X73524026Y-83464025D01*
X73600314Y-83401418D01*
X73687349Y-83354897D01*
X73781788Y-83326249D01*
X73880000Y-83316576D01*
X73978213Y-83326249D01*
X73978213Y-83326249D01*
G37*
G36*
X72708213Y-83326249D02*
G01*
X72802652Y-83354897D01*
X72889687Y-83401418D01*
X72965975Y-83464025D01*
X73028582Y-83540313D01*
X73075103Y-83627348D01*
X73103751Y-83721787D01*
X73111000Y-83795388D01*
X73111000Y-84644612D01*
X73103751Y-84718213D01*
X73075103Y-84812652D01*
X73028582Y-84899687D01*
X72965975Y-84975975D01*
X72889687Y-85038582D01*
X72802651Y-85085103D01*
X72708212Y-85113751D01*
X72610000Y-85123424D01*
X72511787Y-85113751D01*
X72417348Y-85085103D01*
X72330313Y-85038582D01*
X72254025Y-84975975D01*
X72191418Y-84899687D01*
X72144897Y-84812651D01*
X72116249Y-84718212D01*
X72109000Y-84644611D01*
X72109000Y-83795398D01*
X72116250Y-83721786D01*
X72126846Y-83686856D01*
X72144898Y-83627348D01*
X72191419Y-83540313D01*
X72254026Y-83464025D01*
X72330314Y-83401418D01*
X72417349Y-83354897D01*
X72511788Y-83326249D01*
X72610000Y-83316576D01*
X72708213Y-83326249D01*
X72708213Y-83326249D01*
G37*
G36*
X71438213Y-83326249D02*
G01*
X71532652Y-83354897D01*
X71619687Y-83401418D01*
X71695975Y-83464025D01*
X71758582Y-83540313D01*
X71805103Y-83627348D01*
X71833751Y-83721787D01*
X71841000Y-83795388D01*
X71841000Y-84644612D01*
X71833751Y-84718213D01*
X71805103Y-84812652D01*
X71758582Y-84899687D01*
X71695975Y-84975975D01*
X71619687Y-85038582D01*
X71532651Y-85085103D01*
X71438212Y-85113751D01*
X71340000Y-85123424D01*
X71241787Y-85113751D01*
X71147348Y-85085103D01*
X71060313Y-85038582D01*
X70984025Y-84975975D01*
X70921418Y-84899687D01*
X70874897Y-84812651D01*
X70846249Y-84718212D01*
X70839000Y-84644611D01*
X70839000Y-83795398D01*
X70846250Y-83721786D01*
X70856846Y-83686856D01*
X70874898Y-83627348D01*
X70921419Y-83540313D01*
X70984026Y-83464025D01*
X71060314Y-83401418D01*
X71147349Y-83354897D01*
X71241788Y-83326249D01*
X71340000Y-83316576D01*
X71438213Y-83326249D01*
X71438213Y-83326249D01*
G37*
G36*
X70168213Y-83326249D02*
G01*
X70262652Y-83354897D01*
X70349687Y-83401418D01*
X70425975Y-83464025D01*
X70488582Y-83540313D01*
X70535103Y-83627348D01*
X70563751Y-83721787D01*
X70571000Y-83795388D01*
X70571000Y-84644612D01*
X70563751Y-84718213D01*
X70535103Y-84812652D01*
X70488582Y-84899687D01*
X70425975Y-84975975D01*
X70349687Y-85038582D01*
X70262651Y-85085103D01*
X70168212Y-85113751D01*
X70070000Y-85123424D01*
X69971787Y-85113751D01*
X69877348Y-85085103D01*
X69790313Y-85038582D01*
X69714025Y-84975975D01*
X69651418Y-84899687D01*
X69604897Y-84812651D01*
X69576249Y-84718212D01*
X69569000Y-84644611D01*
X69569000Y-83795398D01*
X69576250Y-83721786D01*
X69586846Y-83686856D01*
X69604898Y-83627348D01*
X69651419Y-83540313D01*
X69714026Y-83464025D01*
X69790314Y-83401418D01*
X69877349Y-83354897D01*
X69971788Y-83326249D01*
X70070000Y-83316576D01*
X70168213Y-83326249D01*
X70168213Y-83326249D01*
G37*
G36*
X68898213Y-83326249D02*
G01*
X68992652Y-83354897D01*
X69079687Y-83401418D01*
X69155975Y-83464025D01*
X69218582Y-83540313D01*
X69265103Y-83627348D01*
X69293751Y-83721787D01*
X69301000Y-83795388D01*
X69301000Y-84644612D01*
X69293751Y-84718213D01*
X69265103Y-84812652D01*
X69218582Y-84899687D01*
X69155975Y-84975975D01*
X69079687Y-85038582D01*
X68992651Y-85085103D01*
X68898212Y-85113751D01*
X68800000Y-85123424D01*
X68701787Y-85113751D01*
X68607348Y-85085103D01*
X68520313Y-85038582D01*
X68444025Y-84975975D01*
X68381418Y-84899687D01*
X68334897Y-84812651D01*
X68306249Y-84718212D01*
X68299000Y-84644611D01*
X68299000Y-83795398D01*
X68306250Y-83721786D01*
X68316846Y-83686856D01*
X68334898Y-83627348D01*
X68381419Y-83540313D01*
X68444026Y-83464025D01*
X68520314Y-83401418D01*
X68607349Y-83354897D01*
X68701788Y-83326249D01*
X68800000Y-83316576D01*
X68898213Y-83326249D01*
X68898213Y-83326249D01*
G37*
G36*
X66358213Y-83326249D02*
G01*
X66452652Y-83354897D01*
X66539687Y-83401418D01*
X66615975Y-83464025D01*
X66678582Y-83540313D01*
X66725103Y-83627348D01*
X66753751Y-83721787D01*
X66761000Y-83795388D01*
X66761000Y-84644612D01*
X66753751Y-84718213D01*
X66725103Y-84812652D01*
X66678582Y-84899687D01*
X66615975Y-84975975D01*
X66539687Y-85038582D01*
X66452651Y-85085103D01*
X66358212Y-85113751D01*
X66260000Y-85123424D01*
X66161787Y-85113751D01*
X66067348Y-85085103D01*
X65980313Y-85038582D01*
X65904025Y-84975975D01*
X65841418Y-84899687D01*
X65794897Y-84812651D01*
X65766249Y-84718212D01*
X65759000Y-84644611D01*
X65759000Y-83795398D01*
X65766250Y-83721786D01*
X65776846Y-83686856D01*
X65794898Y-83627348D01*
X65841419Y-83540313D01*
X65904026Y-83464025D01*
X65980314Y-83401418D01*
X66067349Y-83354897D01*
X66161788Y-83326249D01*
X66260000Y-83316576D01*
X66358213Y-83326249D01*
X66358213Y-83326249D01*
G37*
G36*
X67628213Y-83326249D02*
G01*
X67722652Y-83354897D01*
X67809687Y-83401418D01*
X67885975Y-83464025D01*
X67948582Y-83540313D01*
X67995103Y-83627348D01*
X68023751Y-83721787D01*
X68031000Y-83795388D01*
X68031000Y-84644612D01*
X68023751Y-84718213D01*
X67995103Y-84812652D01*
X67948582Y-84899687D01*
X67885975Y-84975975D01*
X67809687Y-85038582D01*
X67722651Y-85085103D01*
X67628212Y-85113751D01*
X67530000Y-85123424D01*
X67431787Y-85113751D01*
X67337348Y-85085103D01*
X67250313Y-85038582D01*
X67174025Y-84975975D01*
X67111418Y-84899687D01*
X67064897Y-84812651D01*
X67036249Y-84718212D01*
X67029000Y-84644611D01*
X67029000Y-83795398D01*
X67036250Y-83721786D01*
X67046846Y-83686856D01*
X67064898Y-83627348D01*
X67111419Y-83540313D01*
X67174026Y-83464025D01*
X67250314Y-83401418D01*
X67337349Y-83354897D01*
X67431788Y-83326249D01*
X67530000Y-83316576D01*
X67628213Y-83326249D01*
X67628213Y-83326249D01*
G37*
G36*
X91214795Y-82420156D02*
G01*
X91321150Y-82441311D01*
X91372558Y-82462605D01*
X91521520Y-82524307D01*
X91701844Y-82644795D01*
X91855205Y-82798156D01*
X91975693Y-82978480D01*
X91975693Y-82978481D01*
X92058689Y-83178850D01*
X92061000Y-83190467D01*
X92101000Y-83391560D01*
X92101000Y-83608440D01*
X92058689Y-83821149D01*
X91975693Y-84021520D01*
X91855205Y-84201844D01*
X91701844Y-84355205D01*
X91521520Y-84475693D01*
X91321150Y-84558689D01*
X91214794Y-84579845D01*
X91108440Y-84601000D01*
X90891560Y-84601000D01*
X90785206Y-84579845D01*
X90678850Y-84558689D01*
X90578666Y-84517191D01*
X90478480Y-84475693D01*
X90298156Y-84355205D01*
X90144795Y-84201844D01*
X90024307Y-84021520D01*
X89941311Y-83821149D01*
X89899000Y-83608440D01*
X89899000Y-83391560D01*
X89939000Y-83190467D01*
X89941311Y-83178850D01*
X90024307Y-82978481D01*
X90024307Y-82978480D01*
X90144795Y-82798156D01*
X90298156Y-82644795D01*
X90478480Y-82524307D01*
X90627442Y-82462605D01*
X90678850Y-82441311D01*
X90785205Y-82420156D01*
X90891560Y-82399000D01*
X91108440Y-82399000D01*
X91214795Y-82420156D01*
X91214795Y-82420156D01*
G37*
G36*
X85371000Y-83691000D02*
G01*
X83469000Y-83691000D01*
X83469000Y-81789000D01*
X85371000Y-81789000D01*
X85371000Y-83691000D01*
X85371000Y-83691000D01*
G37*
G36*
X87237395Y-81825546D02*
G01*
X87410466Y-81897234D01*
X87410467Y-81897235D01*
X87566227Y-82001310D01*
X87698690Y-82133773D01*
X87698691Y-82133775D01*
X87802766Y-82289534D01*
X87874454Y-82462605D01*
X87911000Y-82646333D01*
X87911000Y-82833667D01*
X87874454Y-83017395D01*
X87802766Y-83190466D01*
X87802765Y-83190467D01*
X87698690Y-83346227D01*
X87566227Y-83478690D01*
X87487818Y-83531081D01*
X87410466Y-83582766D01*
X87237395Y-83654454D01*
X87053667Y-83691000D01*
X86866333Y-83691000D01*
X86682605Y-83654454D01*
X86509534Y-83582766D01*
X86432182Y-83531081D01*
X86353773Y-83478690D01*
X86221310Y-83346227D01*
X86117235Y-83190467D01*
X86117234Y-83190466D01*
X86045546Y-83017395D01*
X86009000Y-82833667D01*
X86009000Y-82646333D01*
X86045546Y-82462605D01*
X86117234Y-82289534D01*
X86221309Y-82133775D01*
X86221310Y-82133773D01*
X86353773Y-82001310D01*
X86509533Y-81897235D01*
X86509534Y-81897234D01*
X86682605Y-81825546D01*
X86866333Y-81789000D01*
X87053667Y-81789000D01*
X87237395Y-81825546D01*
X87237395Y-81825546D01*
G37*
G36*
X64211213Y-81107502D02*
G01*
X64282321Y-81114505D01*
X64419172Y-81156019D01*
X64419175Y-81156020D01*
X64545294Y-81223432D01*
X64655843Y-81314157D01*
X64746568Y-81424706D01*
X64813980Y-81550825D01*
X64813981Y-81550828D01*
X64855495Y-81687679D01*
X64869512Y-81830000D01*
X64855495Y-81972321D01*
X64846701Y-82001309D01*
X64813980Y-82109175D01*
X64746568Y-82235294D01*
X64655843Y-82345843D01*
X64545294Y-82436568D01*
X64419175Y-82503980D01*
X64419172Y-82503981D01*
X64282321Y-82545495D01*
X64211213Y-82552498D01*
X64175660Y-82556000D01*
X64104340Y-82556000D01*
X64068787Y-82552498D01*
X63997679Y-82545495D01*
X63860828Y-82503981D01*
X63860825Y-82503980D01*
X63734706Y-82436568D01*
X63624157Y-82345843D01*
X63533432Y-82235294D01*
X63466020Y-82109175D01*
X63433299Y-82001309D01*
X63424505Y-81972321D01*
X63410488Y-81830000D01*
X63424505Y-81687679D01*
X63466019Y-81550828D01*
X63466020Y-81550825D01*
X63533432Y-81424706D01*
X63624157Y-81314157D01*
X63734706Y-81223432D01*
X63860825Y-81156020D01*
X63860828Y-81156019D01*
X63997679Y-81114505D01*
X64068787Y-81107502D01*
X64104340Y-81104000D01*
X64175660Y-81104000D01*
X64211213Y-81107502D01*
X64211213Y-81107502D01*
G37*
G36*
X66211213Y-81107502D02*
G01*
X66282321Y-81114505D01*
X66419172Y-81156019D01*
X66419175Y-81156020D01*
X66545294Y-81223432D01*
X66655843Y-81314157D01*
X66746568Y-81424706D01*
X66813980Y-81550825D01*
X66813981Y-81550828D01*
X66855495Y-81687679D01*
X66869512Y-81830000D01*
X66855495Y-81972321D01*
X66846701Y-82001309D01*
X66813980Y-82109175D01*
X66746568Y-82235294D01*
X66655843Y-82345843D01*
X66545294Y-82436568D01*
X66419175Y-82503980D01*
X66419172Y-82503981D01*
X66282321Y-82545495D01*
X66211213Y-82552498D01*
X66175660Y-82556000D01*
X66104340Y-82556000D01*
X66068787Y-82552498D01*
X65997679Y-82545495D01*
X65860828Y-82503981D01*
X65860825Y-82503980D01*
X65734706Y-82436568D01*
X65624157Y-82345843D01*
X65533432Y-82235294D01*
X65466020Y-82109175D01*
X65433299Y-82001309D01*
X65424505Y-81972321D01*
X65410488Y-81830000D01*
X65424505Y-81687679D01*
X65466019Y-81550828D01*
X65466020Y-81550825D01*
X65533432Y-81424706D01*
X65624157Y-81314157D01*
X65734706Y-81223432D01*
X65860825Y-81156020D01*
X65860828Y-81156019D01*
X65997679Y-81114505D01*
X66068787Y-81107502D01*
X66104340Y-81104000D01*
X66175660Y-81104000D01*
X66211213Y-81107502D01*
X66211213Y-81107502D01*
G37*
G36*
X68211213Y-81107502D02*
G01*
X68282321Y-81114505D01*
X68419172Y-81156019D01*
X68419175Y-81156020D01*
X68545294Y-81223432D01*
X68655843Y-81314157D01*
X68746568Y-81424706D01*
X68813980Y-81550825D01*
X68813981Y-81550828D01*
X68855495Y-81687679D01*
X68869512Y-81830000D01*
X68855495Y-81972321D01*
X68846701Y-82001309D01*
X68813980Y-82109175D01*
X68746568Y-82235294D01*
X68655843Y-82345843D01*
X68545294Y-82436568D01*
X68419175Y-82503980D01*
X68419172Y-82503981D01*
X68282321Y-82545495D01*
X68211213Y-82552498D01*
X68175660Y-82556000D01*
X68104340Y-82556000D01*
X68068787Y-82552498D01*
X67997679Y-82545495D01*
X67860828Y-82503981D01*
X67860825Y-82503980D01*
X67734706Y-82436568D01*
X67624157Y-82345843D01*
X67533432Y-82235294D01*
X67466020Y-82109175D01*
X67433299Y-82001309D01*
X67424505Y-81972321D01*
X67410488Y-81830000D01*
X67424505Y-81687679D01*
X67466019Y-81550828D01*
X67466020Y-81550825D01*
X67533432Y-81424706D01*
X67624157Y-81314157D01*
X67734706Y-81223432D01*
X67860825Y-81156020D01*
X67860828Y-81156019D01*
X67997679Y-81114505D01*
X68068787Y-81107502D01*
X68104340Y-81104000D01*
X68175660Y-81104000D01*
X68211213Y-81107502D01*
X68211213Y-81107502D01*
G37*
G36*
X70211213Y-81107502D02*
G01*
X70282321Y-81114505D01*
X70419172Y-81156019D01*
X70419175Y-81156020D01*
X70545294Y-81223432D01*
X70655843Y-81314157D01*
X70746568Y-81424706D01*
X70813980Y-81550825D01*
X70813981Y-81550828D01*
X70855495Y-81687679D01*
X70869512Y-81830000D01*
X70855495Y-81972321D01*
X70846701Y-82001309D01*
X70813980Y-82109175D01*
X70746568Y-82235294D01*
X70655843Y-82345843D01*
X70545294Y-82436568D01*
X70419175Y-82503980D01*
X70419172Y-82503981D01*
X70282321Y-82545495D01*
X70211213Y-82552498D01*
X70175660Y-82556000D01*
X70104340Y-82556000D01*
X70068787Y-82552498D01*
X69997679Y-82545495D01*
X69860828Y-82503981D01*
X69860825Y-82503980D01*
X69734706Y-82436568D01*
X69624157Y-82345843D01*
X69533432Y-82235294D01*
X69466020Y-82109175D01*
X69433299Y-82001309D01*
X69424505Y-81972321D01*
X69410488Y-81830000D01*
X69424505Y-81687679D01*
X69466019Y-81550828D01*
X69466020Y-81550825D01*
X69533432Y-81424706D01*
X69624157Y-81314157D01*
X69734706Y-81223432D01*
X69860825Y-81156020D01*
X69860828Y-81156019D01*
X69997679Y-81114505D01*
X70068787Y-81107502D01*
X70104340Y-81104000D01*
X70175660Y-81104000D01*
X70211213Y-81107502D01*
X70211213Y-81107502D01*
G37*
G36*
X56866000Y-82556000D02*
G01*
X55414000Y-82556000D01*
X55414000Y-81104000D01*
X56866000Y-81104000D01*
X56866000Y-82556000D01*
X56866000Y-82556000D01*
G37*
G36*
X58211213Y-81107502D02*
G01*
X58282321Y-81114505D01*
X58419172Y-81156019D01*
X58419175Y-81156020D01*
X58545294Y-81223432D01*
X58655843Y-81314157D01*
X58746568Y-81424706D01*
X58813980Y-81550825D01*
X58813981Y-81550828D01*
X58855495Y-81687679D01*
X58869512Y-81830000D01*
X58855495Y-81972321D01*
X58846701Y-82001309D01*
X58813980Y-82109175D01*
X58746568Y-82235294D01*
X58655843Y-82345843D01*
X58545294Y-82436568D01*
X58419175Y-82503980D01*
X58419172Y-82503981D01*
X58282321Y-82545495D01*
X58211213Y-82552498D01*
X58175660Y-82556000D01*
X58104340Y-82556000D01*
X58068787Y-82552498D01*
X57997679Y-82545495D01*
X57860828Y-82503981D01*
X57860825Y-82503980D01*
X57734706Y-82436568D01*
X57624157Y-82345843D01*
X57533432Y-82235294D01*
X57466020Y-82109175D01*
X57433299Y-82001309D01*
X57424505Y-81972321D01*
X57410488Y-81830000D01*
X57424505Y-81687679D01*
X57466019Y-81550828D01*
X57466020Y-81550825D01*
X57533432Y-81424706D01*
X57624157Y-81314157D01*
X57734706Y-81223432D01*
X57860825Y-81156020D01*
X57860828Y-81156019D01*
X57997679Y-81114505D01*
X58068787Y-81107502D01*
X58104340Y-81104000D01*
X58175660Y-81104000D01*
X58211213Y-81107502D01*
X58211213Y-81107502D01*
G37*
G36*
X60211213Y-81107502D02*
G01*
X60282321Y-81114505D01*
X60419172Y-81156019D01*
X60419175Y-81156020D01*
X60545294Y-81223432D01*
X60655843Y-81314157D01*
X60746568Y-81424706D01*
X60813980Y-81550825D01*
X60813981Y-81550828D01*
X60855495Y-81687679D01*
X60869512Y-81830000D01*
X60855495Y-81972321D01*
X60846701Y-82001309D01*
X60813980Y-82109175D01*
X60746568Y-82235294D01*
X60655843Y-82345843D01*
X60545294Y-82436568D01*
X60419175Y-82503980D01*
X60419172Y-82503981D01*
X60282321Y-82545495D01*
X60211213Y-82552498D01*
X60175660Y-82556000D01*
X60104340Y-82556000D01*
X60068787Y-82552498D01*
X59997679Y-82545495D01*
X59860828Y-82503981D01*
X59860825Y-82503980D01*
X59734706Y-82436568D01*
X59624157Y-82345843D01*
X59533432Y-82235294D01*
X59466020Y-82109175D01*
X59433299Y-82001309D01*
X59424505Y-81972321D01*
X59410488Y-81830000D01*
X59424505Y-81687679D01*
X59466019Y-81550828D01*
X59466020Y-81550825D01*
X59533432Y-81424706D01*
X59624157Y-81314157D01*
X59734706Y-81223432D01*
X59860825Y-81156020D01*
X59860828Y-81156019D01*
X59997679Y-81114505D01*
X60068787Y-81107502D01*
X60104340Y-81104000D01*
X60175660Y-81104000D01*
X60211213Y-81107502D01*
X60211213Y-81107502D01*
G37*
G36*
X62211213Y-81107502D02*
G01*
X62282321Y-81114505D01*
X62419172Y-81156019D01*
X62419175Y-81156020D01*
X62545294Y-81223432D01*
X62655843Y-81314157D01*
X62746568Y-81424706D01*
X62813980Y-81550825D01*
X62813981Y-81550828D01*
X62855495Y-81687679D01*
X62869512Y-81830000D01*
X62855495Y-81972321D01*
X62846701Y-82001309D01*
X62813980Y-82109175D01*
X62746568Y-82235294D01*
X62655843Y-82345843D01*
X62545294Y-82436568D01*
X62419175Y-82503980D01*
X62419172Y-82503981D01*
X62282321Y-82545495D01*
X62211213Y-82552498D01*
X62175660Y-82556000D01*
X62104340Y-82556000D01*
X62068787Y-82552498D01*
X61997679Y-82545495D01*
X61860828Y-82503981D01*
X61860825Y-82503980D01*
X61734706Y-82436568D01*
X61624157Y-82345843D01*
X61533432Y-82235294D01*
X61466020Y-82109175D01*
X61433299Y-82001309D01*
X61424505Y-81972321D01*
X61410488Y-81830000D01*
X61424505Y-81687679D01*
X61466019Y-81550828D01*
X61466020Y-81550825D01*
X61533432Y-81424706D01*
X61624157Y-81314157D01*
X61734706Y-81223432D01*
X61860825Y-81156020D01*
X61860828Y-81156019D01*
X61997679Y-81114505D01*
X62068787Y-81107502D01*
X62104340Y-81104000D01*
X62175660Y-81104000D01*
X62211213Y-81107502D01*
X62211213Y-81107502D01*
G37*
M02*
