G04 #@! TF.GenerationSoftware,KiCad,Pcbnew,(5.1.2-1)-1*
G04 #@! TF.CreationDate,2022-01-26T01:19:45+00:00*
G04 #@! TF.ProjectId,mz25key,6d7a3235-6b65-4792-9e6b-696361645f70,rev?*
G04 #@! TF.SameCoordinates,Original*
G04 #@! TF.FileFunction,Legend,Bot*
G04 #@! TF.FilePolarity,Positive*
%FSLAX46Y46*%
G04 Gerber Fmt 4.6, Leading zero omitted, Abs format (unit mm)*
G04 Created by KiCad (PCBNEW (5.1.2-1)-1) date 2022-01-26 01:19:45*
%MOMM*%
%LPD*%
G04 APERTURE LIST*
%ADD10C,0.120000*%
%ADD11C,0.200000*%
%ADD12C,0.150000*%
%ADD13C,0.500000*%
G04 APERTURE END LIST*
D10*
X71330000Y-83420000D02*
X56330000Y-83420000D01*
X99160000Y-100300000D02*
X99170000Y-86360000D01*
X89020000Y-100290000D02*
X99160000Y-100300000D01*
X89020000Y-86360000D02*
X89020000Y-100290000D01*
X99170000Y-86360000D02*
X89020000Y-86360000D01*
X57400000Y-102790000D02*
X57400000Y-83790000D01*
X54400000Y-102790000D02*
X57400000Y-102790000D01*
X54400000Y-83800000D02*
X54400000Y-102790000D01*
X57400000Y-83790000D02*
X54400000Y-83800000D01*
X54830000Y-80420000D02*
X54830000Y-83420000D01*
X71330000Y-80420000D02*
X54830000Y-80420000D01*
X71330000Y-83420000D02*
X71330000Y-80420000D01*
D11*
X79453333Y-86628571D02*
X79120000Y-86628571D01*
X78977142Y-87152380D02*
X79453333Y-87152380D01*
X79453333Y-86152380D01*
X78977142Y-86152380D01*
X78596190Y-87104761D02*
X78453333Y-87152380D01*
X78215238Y-87152380D01*
X78120000Y-87104761D01*
X78072380Y-87057142D01*
X78024761Y-86961904D01*
X78024761Y-86866666D01*
X78072380Y-86771428D01*
X78120000Y-86723809D01*
X78215238Y-86676190D01*
X78405714Y-86628571D01*
X78500952Y-86580952D01*
X78548571Y-86533333D01*
X78596190Y-86438095D01*
X78596190Y-86342857D01*
X78548571Y-86247619D01*
X78500952Y-86200000D01*
X78405714Y-86152380D01*
X78167619Y-86152380D01*
X78024761Y-86200000D01*
X77596190Y-87152380D02*
X77596190Y-86152380D01*
X77215238Y-86152380D01*
X77120000Y-86200000D01*
X77072380Y-86247619D01*
X77024761Y-86342857D01*
X77024761Y-86485714D01*
X77072380Y-86580952D01*
X77120000Y-86628571D01*
X77215238Y-86676190D01*
X77596190Y-86676190D01*
X76691428Y-86152380D02*
X76072380Y-86152380D01*
X76405714Y-86533333D01*
X76262857Y-86533333D01*
X76167619Y-86580952D01*
X76120000Y-86628571D01*
X76072380Y-86723809D01*
X76072380Y-86961904D01*
X76120000Y-87057142D01*
X76167619Y-87104761D01*
X76262857Y-87152380D01*
X76548571Y-87152380D01*
X76643809Y-87104761D01*
X76691428Y-87057142D01*
X75691428Y-86247619D02*
X75643809Y-86200000D01*
X75548571Y-86152380D01*
X75310476Y-86152380D01*
X75215238Y-86200000D01*
X75167619Y-86247619D01*
X75120000Y-86342857D01*
X75120000Y-86438095D01*
X75167619Y-86580952D01*
X75739047Y-87152380D01*
X75120000Y-87152380D01*
X74691428Y-86771428D02*
X73929523Y-86771428D01*
X73500952Y-87104761D02*
X73358095Y-87152380D01*
X73120000Y-87152380D01*
X73024761Y-87104761D01*
X72977142Y-87057142D01*
X72929523Y-86961904D01*
X72929523Y-86866666D01*
X72977142Y-86771428D01*
X73024761Y-86723809D01*
X73120000Y-86676190D01*
X73310476Y-86628571D01*
X73405714Y-86580952D01*
X73453333Y-86533333D01*
X73500952Y-86438095D01*
X73500952Y-86342857D01*
X73453333Y-86247619D01*
X73405714Y-86200000D01*
X73310476Y-86152380D01*
X73072380Y-86152380D01*
X72929523Y-86200000D01*
X71786666Y-86866666D02*
X71310476Y-86866666D01*
X71881904Y-87152380D02*
X71548571Y-86152380D01*
X71215238Y-87152380D01*
X70881904Y-87152380D02*
X70881904Y-86152380D01*
X69786666Y-86152380D02*
X69215238Y-86152380D01*
X69500952Y-87152380D02*
X69500952Y-86152380D01*
X68881904Y-87152380D02*
X68881904Y-86152380D01*
X68453333Y-87152380D02*
X68453333Y-86628571D01*
X68500952Y-86533333D01*
X68596190Y-86485714D01*
X68739047Y-86485714D01*
X68834285Y-86533333D01*
X68881904Y-86580952D01*
X67977142Y-87152380D02*
X67977142Y-86485714D01*
X67977142Y-86152380D02*
X68024761Y-86200000D01*
X67977142Y-86247619D01*
X67929523Y-86200000D01*
X67977142Y-86152380D01*
X67977142Y-86247619D01*
X67500952Y-86485714D02*
X67500952Y-87152380D01*
X67500952Y-86580952D02*
X67453333Y-86533333D01*
X67358095Y-86485714D01*
X67215238Y-86485714D01*
X67120000Y-86533333D01*
X67072380Y-86628571D01*
X67072380Y-87152380D01*
X66596190Y-87152380D02*
X66596190Y-86152380D01*
X66500952Y-86771428D02*
X66215238Y-87152380D01*
X66215238Y-86485714D02*
X66596190Y-86866666D01*
X65405714Y-87104761D02*
X65500952Y-87152380D01*
X65691428Y-87152380D01*
X65786666Y-87104761D01*
X65834285Y-87009523D01*
X65834285Y-86628571D01*
X65786666Y-86533333D01*
X65691428Y-86485714D01*
X65500952Y-86485714D01*
X65405714Y-86533333D01*
X65358095Y-86628571D01*
X65358095Y-86723809D01*
X65834285Y-86819047D01*
X64929523Y-87152380D02*
X64929523Y-86485714D01*
X64929523Y-86676190D02*
X64881904Y-86580952D01*
X64834285Y-86533333D01*
X64739047Y-86485714D01*
X64643809Y-86485714D01*
X74500952Y-88852380D02*
X74500952Y-87852380D01*
X74167619Y-88566666D01*
X73834285Y-87852380D01*
X73834285Y-88852380D01*
X73215238Y-88852380D02*
X73310476Y-88804761D01*
X73358095Y-88757142D01*
X73405714Y-88661904D01*
X73405714Y-88376190D01*
X73358095Y-88280952D01*
X73310476Y-88233333D01*
X73215238Y-88185714D01*
X73072380Y-88185714D01*
X72977142Y-88233333D01*
X72929523Y-88280952D01*
X72881904Y-88376190D01*
X72881904Y-88661904D01*
X72929523Y-88757142D01*
X72977142Y-88804761D01*
X73072380Y-88852380D01*
X73215238Y-88852380D01*
X72024761Y-88852380D02*
X72024761Y-87852380D01*
X72024761Y-88804761D02*
X72120000Y-88852380D01*
X72310476Y-88852380D01*
X72405714Y-88804761D01*
X72453333Y-88757142D01*
X72500952Y-88661904D01*
X72500952Y-88376190D01*
X72453333Y-88280952D01*
X72405714Y-88233333D01*
X72310476Y-88185714D01*
X72120000Y-88185714D01*
X72024761Y-88233333D01*
X71120000Y-88185714D02*
X71120000Y-88852380D01*
X71548571Y-88185714D02*
X71548571Y-88709523D01*
X71500952Y-88804761D01*
X71405714Y-88852380D01*
X71262857Y-88852380D01*
X71167619Y-88804761D01*
X71120000Y-88757142D01*
X70500952Y-88852380D02*
X70596190Y-88804761D01*
X70643809Y-88709523D01*
X70643809Y-87852380D01*
X69739047Y-88804761D02*
X69834285Y-88852380D01*
X70024761Y-88852380D01*
X70120000Y-88804761D01*
X70167619Y-88709523D01*
X70167619Y-88328571D01*
X70120000Y-88233333D01*
X70024761Y-88185714D01*
X69834285Y-88185714D01*
X69739047Y-88233333D01*
X69691428Y-88328571D01*
X69691428Y-88423809D01*
X70167619Y-88519047D01*
D12*
X87730000Y-84220000D02*
X87730000Y-102220000D01*
X62230000Y-84220000D02*
X62230000Y-102220000D01*
X87730000Y-84220000D02*
X62230000Y-84220000D01*
X87730000Y-102220000D02*
X62230000Y-102220000D01*
X81730000Y-84220000D02*
X81730000Y-102220000D01*
D13*
X81867981Y-103126000D02*
G75*
G03X81867981Y-103126000I-283981J0D01*
G01*
D10*
X91878578Y-103730000D02*
X91361422Y-103730000D01*
X91878578Y-102310000D02*
X91361422Y-102310000D01*
X59508578Y-85300000D02*
X58991422Y-85300000D01*
X59508578Y-83880000D02*
X58991422Y-83880000D01*
X91361422Y-100240000D02*
X91878578Y-100240000D01*
X91361422Y-101660000D02*
X91878578Y-101660000D01*
X83681422Y-104270000D02*
X84198578Y-104270000D01*
X83681422Y-105690000D02*
X84198578Y-105690000D01*
X87040000Y-103410000D02*
X88440000Y-103410000D01*
X88440000Y-105730000D02*
X86540000Y-105730000D01*
X91351422Y-104300000D02*
X91868578Y-104300000D01*
X91351422Y-105720000D02*
X91868578Y-105720000D01*
X91878578Y-99580000D02*
X91361422Y-99580000D01*
X91878578Y-98160000D02*
X91361422Y-98160000D01*
X90998578Y-88140000D02*
X90481422Y-88140000D01*
X90998578Y-86720000D02*
X90481422Y-86720000D01*
X91210000Y-93341422D02*
X91210000Y-93858578D01*
X89790000Y-93341422D02*
X89790000Y-93858578D01*
X96061422Y-96370000D02*
X96578578Y-96370000D01*
X96061422Y-97790000D02*
X96578578Y-97790000D01*
D12*
X62049523Y-84141904D02*
X62049523Y-84789523D01*
X62011428Y-84865714D01*
X61973333Y-84903809D01*
X61897142Y-84941904D01*
X61744761Y-84941904D01*
X61668571Y-84903809D01*
X61630476Y-84865714D01*
X61592380Y-84789523D01*
X61592380Y-84141904D01*
X61287619Y-84141904D02*
X60792380Y-84141904D01*
X61059047Y-84446666D01*
X60944761Y-84446666D01*
X60868571Y-84484761D01*
X60830476Y-84522857D01*
X60792380Y-84599047D01*
X60792380Y-84789523D01*
X60830476Y-84865714D01*
X60868571Y-84903809D01*
X60944761Y-84941904D01*
X61173333Y-84941904D01*
X61249523Y-84903809D01*
X61287619Y-84865714D01*
X65953333Y-105466666D02*
X65953333Y-105966666D01*
X65986666Y-106066666D01*
X66053333Y-106133333D01*
X66153333Y-106166666D01*
X66220000Y-106166666D01*
X65620000Y-106166666D02*
X65620000Y-105466666D01*
X65353333Y-105466666D01*
X65286666Y-105500000D01*
X65253333Y-105533333D01*
X65220000Y-105600000D01*
X65220000Y-105700000D01*
X65253333Y-105766666D01*
X65286666Y-105800000D01*
X65353333Y-105833333D01*
X65620000Y-105833333D01*
X64953333Y-105533333D02*
X64920000Y-105500000D01*
X64853333Y-105466666D01*
X64686666Y-105466666D01*
X64620000Y-105500000D01*
X64586666Y-105533333D01*
X64553333Y-105600000D01*
X64553333Y-105666666D01*
X64586666Y-105766666D01*
X64986666Y-106166666D01*
X64553333Y-106166666D01*
X69543333Y-105456666D02*
X69543333Y-105956666D01*
X69576666Y-106056666D01*
X69643333Y-106123333D01*
X69743333Y-106156666D01*
X69810000Y-106156666D01*
X69210000Y-106156666D02*
X69210000Y-105456666D01*
X68943333Y-105456666D01*
X68876666Y-105490000D01*
X68843333Y-105523333D01*
X68810000Y-105590000D01*
X68810000Y-105690000D01*
X68843333Y-105756666D01*
X68876666Y-105790000D01*
X68943333Y-105823333D01*
X69210000Y-105823333D01*
X68143333Y-106156666D02*
X68543333Y-106156666D01*
X68343333Y-106156666D02*
X68343333Y-105456666D01*
X68410000Y-105556666D01*
X68476666Y-105623333D01*
X68543333Y-105656666D01*
X94750000Y-103346666D02*
X94983333Y-103013333D01*
X95150000Y-103346666D02*
X95150000Y-102646666D01*
X94883333Y-102646666D01*
X94816666Y-102680000D01*
X94783333Y-102713333D01*
X94750000Y-102780000D01*
X94750000Y-102880000D01*
X94783333Y-102946666D01*
X94816666Y-102980000D01*
X94883333Y-103013333D01*
X95150000Y-103013333D01*
X94083333Y-103346666D02*
X94483333Y-103346666D01*
X94283333Y-103346666D02*
X94283333Y-102646666D01*
X94350000Y-102746666D01*
X94416666Y-102813333D01*
X94483333Y-102846666D01*
X93450000Y-102646666D02*
X93783333Y-102646666D01*
X93816666Y-102980000D01*
X93783333Y-102946666D01*
X93716666Y-102913333D01*
X93550000Y-102913333D01*
X93483333Y-102946666D01*
X93450000Y-102980000D01*
X93416666Y-103046666D01*
X93416666Y-103213333D01*
X93450000Y-103280000D01*
X93483333Y-103313333D01*
X93550000Y-103346666D01*
X93716666Y-103346666D01*
X93783333Y-103313333D01*
X93816666Y-103280000D01*
X59710000Y-86346666D02*
X59943333Y-86013333D01*
X60110000Y-86346666D02*
X60110000Y-85646666D01*
X59843333Y-85646666D01*
X59776666Y-85680000D01*
X59743333Y-85713333D01*
X59710000Y-85780000D01*
X59710000Y-85880000D01*
X59743333Y-85946666D01*
X59776666Y-85980000D01*
X59843333Y-86013333D01*
X60110000Y-86013333D01*
X59043333Y-86346666D02*
X59443333Y-86346666D01*
X59243333Y-86346666D02*
X59243333Y-85646666D01*
X59310000Y-85746666D01*
X59376666Y-85813333D01*
X59443333Y-85846666D01*
X58443333Y-85880000D02*
X58443333Y-86346666D01*
X58610000Y-85613333D02*
X58776666Y-86113333D01*
X58343333Y-86113333D01*
X89390000Y-101296666D02*
X89623333Y-100963333D01*
X89790000Y-101296666D02*
X89790000Y-100596666D01*
X89523333Y-100596666D01*
X89456666Y-100630000D01*
X89423333Y-100663333D01*
X89390000Y-100730000D01*
X89390000Y-100830000D01*
X89423333Y-100896666D01*
X89456666Y-100930000D01*
X89523333Y-100963333D01*
X89790000Y-100963333D01*
X88723333Y-101296666D02*
X89123333Y-101296666D01*
X88923333Y-101296666D02*
X88923333Y-100596666D01*
X88990000Y-100696666D01*
X89056666Y-100763333D01*
X89123333Y-100796666D01*
X88056666Y-101296666D02*
X88456666Y-101296666D01*
X88256666Y-101296666D02*
X88256666Y-100596666D01*
X88323333Y-100696666D01*
X88390000Y-100763333D01*
X88456666Y-100796666D01*
X84380000Y-103866666D02*
X84613333Y-103533333D01*
X84780000Y-103866666D02*
X84780000Y-103166666D01*
X84513333Y-103166666D01*
X84446666Y-103200000D01*
X84413333Y-103233333D01*
X84380000Y-103300000D01*
X84380000Y-103400000D01*
X84413333Y-103466666D01*
X84446666Y-103500000D01*
X84513333Y-103533333D01*
X84780000Y-103533333D01*
X83713333Y-103866666D02*
X84113333Y-103866666D01*
X83913333Y-103866666D02*
X83913333Y-103166666D01*
X83980000Y-103266666D01*
X84046666Y-103333333D01*
X84113333Y-103366666D01*
X83280000Y-103166666D02*
X83213333Y-103166666D01*
X83146666Y-103200000D01*
X83113333Y-103233333D01*
X83080000Y-103300000D01*
X83046666Y-103433333D01*
X83046666Y-103600000D01*
X83080000Y-103733333D01*
X83113333Y-103800000D01*
X83146666Y-103833333D01*
X83213333Y-103866666D01*
X83280000Y-103866666D01*
X83346666Y-103833333D01*
X83380000Y-103800000D01*
X83413333Y-103733333D01*
X83446666Y-103600000D01*
X83446666Y-103433333D01*
X83413333Y-103300000D01*
X83380000Y-103233333D01*
X83346666Y-103200000D01*
X83280000Y-103166666D01*
X87796666Y-103053333D02*
X87863333Y-103020000D01*
X87930000Y-102953333D01*
X88030000Y-102853333D01*
X88096666Y-102820000D01*
X88163333Y-102820000D01*
X88130000Y-102986666D02*
X88196666Y-102953333D01*
X88263333Y-102886666D01*
X88296666Y-102753333D01*
X88296666Y-102520000D01*
X88263333Y-102386666D01*
X88196666Y-102320000D01*
X88130000Y-102286666D01*
X87996666Y-102286666D01*
X87930000Y-102320000D01*
X87863333Y-102386666D01*
X87830000Y-102520000D01*
X87830000Y-102753333D01*
X87863333Y-102886666D01*
X87930000Y-102953333D01*
X87996666Y-102986666D01*
X88130000Y-102986666D01*
X87163333Y-102986666D02*
X87563333Y-102986666D01*
X87363333Y-102986666D02*
X87363333Y-102286666D01*
X87430000Y-102386666D01*
X87496666Y-102453333D01*
X87563333Y-102486666D01*
X94166666Y-105240000D02*
X94200000Y-105273333D01*
X94300000Y-105306666D01*
X94366666Y-105306666D01*
X94466666Y-105273333D01*
X94533333Y-105206666D01*
X94566666Y-105140000D01*
X94600000Y-105006666D01*
X94600000Y-104906666D01*
X94566666Y-104773333D01*
X94533333Y-104706666D01*
X94466666Y-104640000D01*
X94366666Y-104606666D01*
X94300000Y-104606666D01*
X94200000Y-104640000D01*
X94166666Y-104673333D01*
X93566666Y-104840000D02*
X93566666Y-105306666D01*
X93733333Y-104573333D02*
X93900000Y-105073333D01*
X93466666Y-105073333D01*
X55943333Y-82906666D02*
X55943333Y-83406666D01*
X55976666Y-83506666D01*
X56043333Y-83573333D01*
X56143333Y-83606666D01*
X56210000Y-83606666D01*
X55676666Y-82906666D02*
X55243333Y-82906666D01*
X55476666Y-83173333D01*
X55376666Y-83173333D01*
X55310000Y-83206666D01*
X55276666Y-83240000D01*
X55243333Y-83306666D01*
X55243333Y-83473333D01*
X55276666Y-83540000D01*
X55310000Y-83573333D01*
X55376666Y-83606666D01*
X55576666Y-83606666D01*
X55643333Y-83573333D01*
X55676666Y-83540000D01*
X94706666Y-92861904D02*
X94706666Y-93433333D01*
X94744761Y-93547619D01*
X94820952Y-93623809D01*
X94935238Y-93661904D01*
X95011428Y-93661904D01*
X94363809Y-92938095D02*
X94325714Y-92900000D01*
X94249523Y-92861904D01*
X94059047Y-92861904D01*
X93982857Y-92900000D01*
X93944761Y-92938095D01*
X93906666Y-93014285D01*
X93906666Y-93090476D01*
X93944761Y-93204761D01*
X94401904Y-93661904D01*
X93906666Y-93661904D01*
X89346666Y-99156666D02*
X89580000Y-98823333D01*
X89746666Y-99156666D02*
X89746666Y-98456666D01*
X89480000Y-98456666D01*
X89413333Y-98490000D01*
X89380000Y-98523333D01*
X89346666Y-98590000D01*
X89346666Y-98690000D01*
X89380000Y-98756666D01*
X89413333Y-98790000D01*
X89480000Y-98823333D01*
X89746666Y-98823333D01*
X89013333Y-99156666D02*
X88880000Y-99156666D01*
X88813333Y-99123333D01*
X88780000Y-99090000D01*
X88713333Y-98990000D01*
X88680000Y-98856666D01*
X88680000Y-98590000D01*
X88713333Y-98523333D01*
X88746666Y-98490000D01*
X88813333Y-98456666D01*
X88946666Y-98456666D01*
X89013333Y-98490000D01*
X89046666Y-98523333D01*
X89080000Y-98590000D01*
X89080000Y-98756666D01*
X89046666Y-98823333D01*
X89013333Y-98856666D01*
X88946666Y-98890000D01*
X88813333Y-98890000D01*
X88746666Y-98856666D01*
X88713333Y-98823333D01*
X88680000Y-98756666D01*
X91240000Y-85956666D02*
X91473333Y-85623333D01*
X91640000Y-85956666D02*
X91640000Y-85256666D01*
X91373333Y-85256666D01*
X91306666Y-85290000D01*
X91273333Y-85323333D01*
X91240000Y-85390000D01*
X91240000Y-85490000D01*
X91273333Y-85556666D01*
X91306666Y-85590000D01*
X91373333Y-85623333D01*
X91640000Y-85623333D01*
X90573333Y-85956666D02*
X90973333Y-85956666D01*
X90773333Y-85956666D02*
X90773333Y-85256666D01*
X90840000Y-85356666D01*
X90906666Y-85423333D01*
X90973333Y-85456666D01*
X90306666Y-85323333D02*
X90273333Y-85290000D01*
X90206666Y-85256666D01*
X90040000Y-85256666D01*
X89973333Y-85290000D01*
X89940000Y-85323333D01*
X89906666Y-85390000D01*
X89906666Y-85456666D01*
X89940000Y-85556666D01*
X90340000Y-85956666D01*
X89906666Y-85956666D01*
X90940000Y-91836666D02*
X91173333Y-91503333D01*
X91340000Y-91836666D02*
X91340000Y-91136666D01*
X91073333Y-91136666D01*
X91006666Y-91170000D01*
X90973333Y-91203333D01*
X90940000Y-91270000D01*
X90940000Y-91370000D01*
X90973333Y-91436666D01*
X91006666Y-91470000D01*
X91073333Y-91503333D01*
X91340000Y-91503333D01*
X90273333Y-91836666D02*
X90673333Y-91836666D01*
X90473333Y-91836666D02*
X90473333Y-91136666D01*
X90540000Y-91236666D01*
X90606666Y-91303333D01*
X90673333Y-91336666D01*
X90040000Y-91136666D02*
X89606666Y-91136666D01*
X89840000Y-91403333D01*
X89740000Y-91403333D01*
X89673333Y-91436666D01*
X89640000Y-91470000D01*
X89606666Y-91536666D01*
X89606666Y-91703333D01*
X89640000Y-91770000D01*
X89673333Y-91803333D01*
X89740000Y-91836666D01*
X89940000Y-91836666D01*
X90006666Y-91803333D01*
X90040000Y-91770000D01*
X96416666Y-95996666D02*
X96650000Y-95663333D01*
X96816666Y-95996666D02*
X96816666Y-95296666D01*
X96550000Y-95296666D01*
X96483333Y-95330000D01*
X96450000Y-95363333D01*
X96416666Y-95430000D01*
X96416666Y-95530000D01*
X96450000Y-95596666D01*
X96483333Y-95630000D01*
X96550000Y-95663333D01*
X96816666Y-95663333D01*
X96016666Y-95596666D02*
X96083333Y-95563333D01*
X96116666Y-95530000D01*
X96150000Y-95463333D01*
X96150000Y-95430000D01*
X96116666Y-95363333D01*
X96083333Y-95330000D01*
X96016666Y-95296666D01*
X95883333Y-95296666D01*
X95816666Y-95330000D01*
X95783333Y-95363333D01*
X95750000Y-95430000D01*
X95750000Y-95463333D01*
X95783333Y-95530000D01*
X95816666Y-95563333D01*
X95883333Y-95596666D01*
X96016666Y-95596666D01*
X96083333Y-95630000D01*
X96116666Y-95663333D01*
X96150000Y-95730000D01*
X96150000Y-95863333D01*
X96116666Y-95930000D01*
X96083333Y-95963333D01*
X96016666Y-95996666D01*
X95883333Y-95996666D01*
X95816666Y-95963333D01*
X95783333Y-95930000D01*
X95750000Y-95863333D01*
X95750000Y-95730000D01*
X95783333Y-95663333D01*
X95816666Y-95630000D01*
X95883333Y-95596666D01*
X56153333Y-102926666D02*
X56153333Y-103426666D01*
X56186666Y-103526666D01*
X56253333Y-103593333D01*
X56353333Y-103626666D01*
X56420000Y-103626666D01*
X55453333Y-103626666D02*
X55853333Y-103626666D01*
X55653333Y-103626666D02*
X55653333Y-102926666D01*
X55720000Y-103026666D01*
X55786666Y-103093333D01*
X55853333Y-103126666D01*
M02*
