G04 #@! TF.GenerationSoftware,KiCad,Pcbnew,(5.1.2-1)-1*
G04 #@! TF.CreationDate,2022-01-26T01:19:45+00:00*
G04 #@! TF.ProjectId,mz25key,6d7a3235-6b65-4792-9e6b-696361645f70,rev?*
G04 #@! TF.SameCoordinates,Original*
G04 #@! TF.FileFunction,Paste,Bot*
G04 #@! TF.FilePolarity,Positive*
%FSLAX46Y46*%
G04 Gerber Fmt 4.6, Leading zero omitted, Abs format (unit mm)*
G04 Created by KiCad (PCBNEW (5.1.2-1)-1) date 2022-01-26 01:19:45*
%MOMM*%
%LPD*%
G04 APERTURE LIST*
%ADD10R,6.000000X6.000000*%
%ADD11O,0.900000X1.700000*%
%ADD12O,1.700000X0.900000*%
%ADD13C,0.100000*%
%ADD14C,0.975000*%
%ADD15R,0.650000X0.400000*%
G04 APERTURE END LIST*
D10*
X72530000Y-93520000D03*
D11*
X80230000Y-102220000D03*
X78960000Y-102220000D03*
X77690000Y-102220000D03*
X76420000Y-102220000D03*
X75150000Y-102220000D03*
X73880000Y-102220000D03*
X72610000Y-102220000D03*
X71340000Y-102220000D03*
X70070000Y-102220000D03*
X68800000Y-102220000D03*
X67530000Y-102220000D03*
X66260000Y-102220000D03*
X64990000Y-102220000D03*
X63720000Y-102220000D03*
D12*
X62230000Y-98935000D03*
X62230000Y-97665000D03*
X62230000Y-96395000D03*
X62230000Y-95125000D03*
X62230000Y-93855000D03*
X62230000Y-92585000D03*
X62230000Y-91315000D03*
X62230000Y-90045000D03*
X62230000Y-88775000D03*
X62230000Y-87505000D03*
D11*
X63720000Y-84220000D03*
X64990000Y-84220000D03*
X66260000Y-84220000D03*
X67530000Y-84220000D03*
X68800000Y-84220000D03*
X70070000Y-84220000D03*
X71340000Y-84220000D03*
X72610000Y-84220000D03*
X73880000Y-84220000D03*
X75150000Y-84220000D03*
X76420000Y-84220000D03*
X77690000Y-84220000D03*
X78960000Y-84220000D03*
X80230000Y-84220000D03*
D13*
G36*
X90950142Y-102321174D02*
G01*
X90973803Y-102324684D01*
X90997007Y-102330496D01*
X91019529Y-102338554D01*
X91041153Y-102348782D01*
X91061670Y-102361079D01*
X91080883Y-102375329D01*
X91098607Y-102391393D01*
X91114671Y-102409117D01*
X91128921Y-102428330D01*
X91141218Y-102448847D01*
X91151446Y-102470471D01*
X91159504Y-102492993D01*
X91165316Y-102516197D01*
X91168826Y-102539858D01*
X91170000Y-102563750D01*
X91170000Y-103476250D01*
X91168826Y-103500142D01*
X91165316Y-103523803D01*
X91159504Y-103547007D01*
X91151446Y-103569529D01*
X91141218Y-103591153D01*
X91128921Y-103611670D01*
X91114671Y-103630883D01*
X91098607Y-103648607D01*
X91080883Y-103664671D01*
X91061670Y-103678921D01*
X91041153Y-103691218D01*
X91019529Y-103701446D01*
X90997007Y-103709504D01*
X90973803Y-103715316D01*
X90950142Y-103718826D01*
X90926250Y-103720000D01*
X90438750Y-103720000D01*
X90414858Y-103718826D01*
X90391197Y-103715316D01*
X90367993Y-103709504D01*
X90345471Y-103701446D01*
X90323847Y-103691218D01*
X90303330Y-103678921D01*
X90284117Y-103664671D01*
X90266393Y-103648607D01*
X90250329Y-103630883D01*
X90236079Y-103611670D01*
X90223782Y-103591153D01*
X90213554Y-103569529D01*
X90205496Y-103547007D01*
X90199684Y-103523803D01*
X90196174Y-103500142D01*
X90195000Y-103476250D01*
X90195000Y-102563750D01*
X90196174Y-102539858D01*
X90199684Y-102516197D01*
X90205496Y-102492993D01*
X90213554Y-102470471D01*
X90223782Y-102448847D01*
X90236079Y-102428330D01*
X90250329Y-102409117D01*
X90266393Y-102391393D01*
X90284117Y-102375329D01*
X90303330Y-102361079D01*
X90323847Y-102348782D01*
X90345471Y-102338554D01*
X90367993Y-102330496D01*
X90391197Y-102324684D01*
X90414858Y-102321174D01*
X90438750Y-102320000D01*
X90926250Y-102320000D01*
X90950142Y-102321174D01*
X90950142Y-102321174D01*
G37*
D14*
X90682500Y-103020000D03*
D13*
G36*
X92825142Y-102321174D02*
G01*
X92848803Y-102324684D01*
X92872007Y-102330496D01*
X92894529Y-102338554D01*
X92916153Y-102348782D01*
X92936670Y-102361079D01*
X92955883Y-102375329D01*
X92973607Y-102391393D01*
X92989671Y-102409117D01*
X93003921Y-102428330D01*
X93016218Y-102448847D01*
X93026446Y-102470471D01*
X93034504Y-102492993D01*
X93040316Y-102516197D01*
X93043826Y-102539858D01*
X93045000Y-102563750D01*
X93045000Y-103476250D01*
X93043826Y-103500142D01*
X93040316Y-103523803D01*
X93034504Y-103547007D01*
X93026446Y-103569529D01*
X93016218Y-103591153D01*
X93003921Y-103611670D01*
X92989671Y-103630883D01*
X92973607Y-103648607D01*
X92955883Y-103664671D01*
X92936670Y-103678921D01*
X92916153Y-103691218D01*
X92894529Y-103701446D01*
X92872007Y-103709504D01*
X92848803Y-103715316D01*
X92825142Y-103718826D01*
X92801250Y-103720000D01*
X92313750Y-103720000D01*
X92289858Y-103718826D01*
X92266197Y-103715316D01*
X92242993Y-103709504D01*
X92220471Y-103701446D01*
X92198847Y-103691218D01*
X92178330Y-103678921D01*
X92159117Y-103664671D01*
X92141393Y-103648607D01*
X92125329Y-103630883D01*
X92111079Y-103611670D01*
X92098782Y-103591153D01*
X92088554Y-103569529D01*
X92080496Y-103547007D01*
X92074684Y-103523803D01*
X92071174Y-103500142D01*
X92070000Y-103476250D01*
X92070000Y-102563750D01*
X92071174Y-102539858D01*
X92074684Y-102516197D01*
X92080496Y-102492993D01*
X92088554Y-102470471D01*
X92098782Y-102448847D01*
X92111079Y-102428330D01*
X92125329Y-102409117D01*
X92141393Y-102391393D01*
X92159117Y-102375329D01*
X92178330Y-102361079D01*
X92198847Y-102348782D01*
X92220471Y-102338554D01*
X92242993Y-102330496D01*
X92266197Y-102324684D01*
X92289858Y-102321174D01*
X92313750Y-102320000D01*
X92801250Y-102320000D01*
X92825142Y-102321174D01*
X92825142Y-102321174D01*
G37*
D14*
X92557500Y-103020000D03*
D13*
G36*
X58580142Y-83891174D02*
G01*
X58603803Y-83894684D01*
X58627007Y-83900496D01*
X58649529Y-83908554D01*
X58671153Y-83918782D01*
X58691670Y-83931079D01*
X58710883Y-83945329D01*
X58728607Y-83961393D01*
X58744671Y-83979117D01*
X58758921Y-83998330D01*
X58771218Y-84018847D01*
X58781446Y-84040471D01*
X58789504Y-84062993D01*
X58795316Y-84086197D01*
X58798826Y-84109858D01*
X58800000Y-84133750D01*
X58800000Y-85046250D01*
X58798826Y-85070142D01*
X58795316Y-85093803D01*
X58789504Y-85117007D01*
X58781446Y-85139529D01*
X58771218Y-85161153D01*
X58758921Y-85181670D01*
X58744671Y-85200883D01*
X58728607Y-85218607D01*
X58710883Y-85234671D01*
X58691670Y-85248921D01*
X58671153Y-85261218D01*
X58649529Y-85271446D01*
X58627007Y-85279504D01*
X58603803Y-85285316D01*
X58580142Y-85288826D01*
X58556250Y-85290000D01*
X58068750Y-85290000D01*
X58044858Y-85288826D01*
X58021197Y-85285316D01*
X57997993Y-85279504D01*
X57975471Y-85271446D01*
X57953847Y-85261218D01*
X57933330Y-85248921D01*
X57914117Y-85234671D01*
X57896393Y-85218607D01*
X57880329Y-85200883D01*
X57866079Y-85181670D01*
X57853782Y-85161153D01*
X57843554Y-85139529D01*
X57835496Y-85117007D01*
X57829684Y-85093803D01*
X57826174Y-85070142D01*
X57825000Y-85046250D01*
X57825000Y-84133750D01*
X57826174Y-84109858D01*
X57829684Y-84086197D01*
X57835496Y-84062993D01*
X57843554Y-84040471D01*
X57853782Y-84018847D01*
X57866079Y-83998330D01*
X57880329Y-83979117D01*
X57896393Y-83961393D01*
X57914117Y-83945329D01*
X57933330Y-83931079D01*
X57953847Y-83918782D01*
X57975471Y-83908554D01*
X57997993Y-83900496D01*
X58021197Y-83894684D01*
X58044858Y-83891174D01*
X58068750Y-83890000D01*
X58556250Y-83890000D01*
X58580142Y-83891174D01*
X58580142Y-83891174D01*
G37*
D14*
X58312500Y-84590000D03*
D13*
G36*
X60455142Y-83891174D02*
G01*
X60478803Y-83894684D01*
X60502007Y-83900496D01*
X60524529Y-83908554D01*
X60546153Y-83918782D01*
X60566670Y-83931079D01*
X60585883Y-83945329D01*
X60603607Y-83961393D01*
X60619671Y-83979117D01*
X60633921Y-83998330D01*
X60646218Y-84018847D01*
X60656446Y-84040471D01*
X60664504Y-84062993D01*
X60670316Y-84086197D01*
X60673826Y-84109858D01*
X60675000Y-84133750D01*
X60675000Y-85046250D01*
X60673826Y-85070142D01*
X60670316Y-85093803D01*
X60664504Y-85117007D01*
X60656446Y-85139529D01*
X60646218Y-85161153D01*
X60633921Y-85181670D01*
X60619671Y-85200883D01*
X60603607Y-85218607D01*
X60585883Y-85234671D01*
X60566670Y-85248921D01*
X60546153Y-85261218D01*
X60524529Y-85271446D01*
X60502007Y-85279504D01*
X60478803Y-85285316D01*
X60455142Y-85288826D01*
X60431250Y-85290000D01*
X59943750Y-85290000D01*
X59919858Y-85288826D01*
X59896197Y-85285316D01*
X59872993Y-85279504D01*
X59850471Y-85271446D01*
X59828847Y-85261218D01*
X59808330Y-85248921D01*
X59789117Y-85234671D01*
X59771393Y-85218607D01*
X59755329Y-85200883D01*
X59741079Y-85181670D01*
X59728782Y-85161153D01*
X59718554Y-85139529D01*
X59710496Y-85117007D01*
X59704684Y-85093803D01*
X59701174Y-85070142D01*
X59700000Y-85046250D01*
X59700000Y-84133750D01*
X59701174Y-84109858D01*
X59704684Y-84086197D01*
X59710496Y-84062993D01*
X59718554Y-84040471D01*
X59728782Y-84018847D01*
X59741079Y-83998330D01*
X59755329Y-83979117D01*
X59771393Y-83961393D01*
X59789117Y-83945329D01*
X59808330Y-83931079D01*
X59828847Y-83918782D01*
X59850471Y-83908554D01*
X59872993Y-83900496D01*
X59896197Y-83894684D01*
X59919858Y-83891174D01*
X59943750Y-83890000D01*
X60431250Y-83890000D01*
X60455142Y-83891174D01*
X60455142Y-83891174D01*
G37*
D14*
X60187500Y-84590000D03*
D13*
G36*
X92825142Y-100251174D02*
G01*
X92848803Y-100254684D01*
X92872007Y-100260496D01*
X92894529Y-100268554D01*
X92916153Y-100278782D01*
X92936670Y-100291079D01*
X92955883Y-100305329D01*
X92973607Y-100321393D01*
X92989671Y-100339117D01*
X93003921Y-100358330D01*
X93016218Y-100378847D01*
X93026446Y-100400471D01*
X93034504Y-100422993D01*
X93040316Y-100446197D01*
X93043826Y-100469858D01*
X93045000Y-100493750D01*
X93045000Y-101406250D01*
X93043826Y-101430142D01*
X93040316Y-101453803D01*
X93034504Y-101477007D01*
X93026446Y-101499529D01*
X93016218Y-101521153D01*
X93003921Y-101541670D01*
X92989671Y-101560883D01*
X92973607Y-101578607D01*
X92955883Y-101594671D01*
X92936670Y-101608921D01*
X92916153Y-101621218D01*
X92894529Y-101631446D01*
X92872007Y-101639504D01*
X92848803Y-101645316D01*
X92825142Y-101648826D01*
X92801250Y-101650000D01*
X92313750Y-101650000D01*
X92289858Y-101648826D01*
X92266197Y-101645316D01*
X92242993Y-101639504D01*
X92220471Y-101631446D01*
X92198847Y-101621218D01*
X92178330Y-101608921D01*
X92159117Y-101594671D01*
X92141393Y-101578607D01*
X92125329Y-101560883D01*
X92111079Y-101541670D01*
X92098782Y-101521153D01*
X92088554Y-101499529D01*
X92080496Y-101477007D01*
X92074684Y-101453803D01*
X92071174Y-101430142D01*
X92070000Y-101406250D01*
X92070000Y-100493750D01*
X92071174Y-100469858D01*
X92074684Y-100446197D01*
X92080496Y-100422993D01*
X92088554Y-100400471D01*
X92098782Y-100378847D01*
X92111079Y-100358330D01*
X92125329Y-100339117D01*
X92141393Y-100321393D01*
X92159117Y-100305329D01*
X92178330Y-100291079D01*
X92198847Y-100278782D01*
X92220471Y-100268554D01*
X92242993Y-100260496D01*
X92266197Y-100254684D01*
X92289858Y-100251174D01*
X92313750Y-100250000D01*
X92801250Y-100250000D01*
X92825142Y-100251174D01*
X92825142Y-100251174D01*
G37*
D14*
X92557500Y-100950000D03*
D13*
G36*
X90950142Y-100251174D02*
G01*
X90973803Y-100254684D01*
X90997007Y-100260496D01*
X91019529Y-100268554D01*
X91041153Y-100278782D01*
X91061670Y-100291079D01*
X91080883Y-100305329D01*
X91098607Y-100321393D01*
X91114671Y-100339117D01*
X91128921Y-100358330D01*
X91141218Y-100378847D01*
X91151446Y-100400471D01*
X91159504Y-100422993D01*
X91165316Y-100446197D01*
X91168826Y-100469858D01*
X91170000Y-100493750D01*
X91170000Y-101406250D01*
X91168826Y-101430142D01*
X91165316Y-101453803D01*
X91159504Y-101477007D01*
X91151446Y-101499529D01*
X91141218Y-101521153D01*
X91128921Y-101541670D01*
X91114671Y-101560883D01*
X91098607Y-101578607D01*
X91080883Y-101594671D01*
X91061670Y-101608921D01*
X91041153Y-101621218D01*
X91019529Y-101631446D01*
X90997007Y-101639504D01*
X90973803Y-101645316D01*
X90950142Y-101648826D01*
X90926250Y-101650000D01*
X90438750Y-101650000D01*
X90414858Y-101648826D01*
X90391197Y-101645316D01*
X90367993Y-101639504D01*
X90345471Y-101631446D01*
X90323847Y-101621218D01*
X90303330Y-101608921D01*
X90284117Y-101594671D01*
X90266393Y-101578607D01*
X90250329Y-101560883D01*
X90236079Y-101541670D01*
X90223782Y-101521153D01*
X90213554Y-101499529D01*
X90205496Y-101477007D01*
X90199684Y-101453803D01*
X90196174Y-101430142D01*
X90195000Y-101406250D01*
X90195000Y-100493750D01*
X90196174Y-100469858D01*
X90199684Y-100446197D01*
X90205496Y-100422993D01*
X90213554Y-100400471D01*
X90223782Y-100378847D01*
X90236079Y-100358330D01*
X90250329Y-100339117D01*
X90266393Y-100321393D01*
X90284117Y-100305329D01*
X90303330Y-100291079D01*
X90323847Y-100278782D01*
X90345471Y-100268554D01*
X90367993Y-100260496D01*
X90391197Y-100254684D01*
X90414858Y-100251174D01*
X90438750Y-100250000D01*
X90926250Y-100250000D01*
X90950142Y-100251174D01*
X90950142Y-100251174D01*
G37*
D14*
X90682500Y-100950000D03*
D13*
G36*
X85145142Y-104281174D02*
G01*
X85168803Y-104284684D01*
X85192007Y-104290496D01*
X85214529Y-104298554D01*
X85236153Y-104308782D01*
X85256670Y-104321079D01*
X85275883Y-104335329D01*
X85293607Y-104351393D01*
X85309671Y-104369117D01*
X85323921Y-104388330D01*
X85336218Y-104408847D01*
X85346446Y-104430471D01*
X85354504Y-104452993D01*
X85360316Y-104476197D01*
X85363826Y-104499858D01*
X85365000Y-104523750D01*
X85365000Y-105436250D01*
X85363826Y-105460142D01*
X85360316Y-105483803D01*
X85354504Y-105507007D01*
X85346446Y-105529529D01*
X85336218Y-105551153D01*
X85323921Y-105571670D01*
X85309671Y-105590883D01*
X85293607Y-105608607D01*
X85275883Y-105624671D01*
X85256670Y-105638921D01*
X85236153Y-105651218D01*
X85214529Y-105661446D01*
X85192007Y-105669504D01*
X85168803Y-105675316D01*
X85145142Y-105678826D01*
X85121250Y-105680000D01*
X84633750Y-105680000D01*
X84609858Y-105678826D01*
X84586197Y-105675316D01*
X84562993Y-105669504D01*
X84540471Y-105661446D01*
X84518847Y-105651218D01*
X84498330Y-105638921D01*
X84479117Y-105624671D01*
X84461393Y-105608607D01*
X84445329Y-105590883D01*
X84431079Y-105571670D01*
X84418782Y-105551153D01*
X84408554Y-105529529D01*
X84400496Y-105507007D01*
X84394684Y-105483803D01*
X84391174Y-105460142D01*
X84390000Y-105436250D01*
X84390000Y-104523750D01*
X84391174Y-104499858D01*
X84394684Y-104476197D01*
X84400496Y-104452993D01*
X84408554Y-104430471D01*
X84418782Y-104408847D01*
X84431079Y-104388330D01*
X84445329Y-104369117D01*
X84461393Y-104351393D01*
X84479117Y-104335329D01*
X84498330Y-104321079D01*
X84518847Y-104308782D01*
X84540471Y-104298554D01*
X84562993Y-104290496D01*
X84586197Y-104284684D01*
X84609858Y-104281174D01*
X84633750Y-104280000D01*
X85121250Y-104280000D01*
X85145142Y-104281174D01*
X85145142Y-104281174D01*
G37*
D14*
X84877500Y-104980000D03*
D13*
G36*
X83270142Y-104281174D02*
G01*
X83293803Y-104284684D01*
X83317007Y-104290496D01*
X83339529Y-104298554D01*
X83361153Y-104308782D01*
X83381670Y-104321079D01*
X83400883Y-104335329D01*
X83418607Y-104351393D01*
X83434671Y-104369117D01*
X83448921Y-104388330D01*
X83461218Y-104408847D01*
X83471446Y-104430471D01*
X83479504Y-104452993D01*
X83485316Y-104476197D01*
X83488826Y-104499858D01*
X83490000Y-104523750D01*
X83490000Y-105436250D01*
X83488826Y-105460142D01*
X83485316Y-105483803D01*
X83479504Y-105507007D01*
X83471446Y-105529529D01*
X83461218Y-105551153D01*
X83448921Y-105571670D01*
X83434671Y-105590883D01*
X83418607Y-105608607D01*
X83400883Y-105624671D01*
X83381670Y-105638921D01*
X83361153Y-105651218D01*
X83339529Y-105661446D01*
X83317007Y-105669504D01*
X83293803Y-105675316D01*
X83270142Y-105678826D01*
X83246250Y-105680000D01*
X82758750Y-105680000D01*
X82734858Y-105678826D01*
X82711197Y-105675316D01*
X82687993Y-105669504D01*
X82665471Y-105661446D01*
X82643847Y-105651218D01*
X82623330Y-105638921D01*
X82604117Y-105624671D01*
X82586393Y-105608607D01*
X82570329Y-105590883D01*
X82556079Y-105571670D01*
X82543782Y-105551153D01*
X82533554Y-105529529D01*
X82525496Y-105507007D01*
X82519684Y-105483803D01*
X82516174Y-105460142D01*
X82515000Y-105436250D01*
X82515000Y-104523750D01*
X82516174Y-104499858D01*
X82519684Y-104476197D01*
X82525496Y-104452993D01*
X82533554Y-104430471D01*
X82543782Y-104408847D01*
X82556079Y-104388330D01*
X82570329Y-104369117D01*
X82586393Y-104351393D01*
X82604117Y-104335329D01*
X82623330Y-104321079D01*
X82643847Y-104308782D01*
X82665471Y-104298554D01*
X82687993Y-104290496D01*
X82711197Y-104284684D01*
X82734858Y-104281174D01*
X82758750Y-104280000D01*
X83246250Y-104280000D01*
X83270142Y-104281174D01*
X83270142Y-104281174D01*
G37*
D14*
X83002500Y-104980000D03*
D15*
X88690000Y-105220000D03*
X88690000Y-103920000D03*
X86790000Y-104570000D03*
X88690000Y-104570000D03*
X86790000Y-103920000D03*
X86790000Y-105220000D03*
D13*
G36*
X92815142Y-104311174D02*
G01*
X92838803Y-104314684D01*
X92862007Y-104320496D01*
X92884529Y-104328554D01*
X92906153Y-104338782D01*
X92926670Y-104351079D01*
X92945883Y-104365329D01*
X92963607Y-104381393D01*
X92979671Y-104399117D01*
X92993921Y-104418330D01*
X93006218Y-104438847D01*
X93016446Y-104460471D01*
X93024504Y-104482993D01*
X93030316Y-104506197D01*
X93033826Y-104529858D01*
X93035000Y-104553750D01*
X93035000Y-105466250D01*
X93033826Y-105490142D01*
X93030316Y-105513803D01*
X93024504Y-105537007D01*
X93016446Y-105559529D01*
X93006218Y-105581153D01*
X92993921Y-105601670D01*
X92979671Y-105620883D01*
X92963607Y-105638607D01*
X92945883Y-105654671D01*
X92926670Y-105668921D01*
X92906153Y-105681218D01*
X92884529Y-105691446D01*
X92862007Y-105699504D01*
X92838803Y-105705316D01*
X92815142Y-105708826D01*
X92791250Y-105710000D01*
X92303750Y-105710000D01*
X92279858Y-105708826D01*
X92256197Y-105705316D01*
X92232993Y-105699504D01*
X92210471Y-105691446D01*
X92188847Y-105681218D01*
X92168330Y-105668921D01*
X92149117Y-105654671D01*
X92131393Y-105638607D01*
X92115329Y-105620883D01*
X92101079Y-105601670D01*
X92088782Y-105581153D01*
X92078554Y-105559529D01*
X92070496Y-105537007D01*
X92064684Y-105513803D01*
X92061174Y-105490142D01*
X92060000Y-105466250D01*
X92060000Y-104553750D01*
X92061174Y-104529858D01*
X92064684Y-104506197D01*
X92070496Y-104482993D01*
X92078554Y-104460471D01*
X92088782Y-104438847D01*
X92101079Y-104418330D01*
X92115329Y-104399117D01*
X92131393Y-104381393D01*
X92149117Y-104365329D01*
X92168330Y-104351079D01*
X92188847Y-104338782D01*
X92210471Y-104328554D01*
X92232993Y-104320496D01*
X92256197Y-104314684D01*
X92279858Y-104311174D01*
X92303750Y-104310000D01*
X92791250Y-104310000D01*
X92815142Y-104311174D01*
X92815142Y-104311174D01*
G37*
D14*
X92547500Y-105010000D03*
D13*
G36*
X90940142Y-104311174D02*
G01*
X90963803Y-104314684D01*
X90987007Y-104320496D01*
X91009529Y-104328554D01*
X91031153Y-104338782D01*
X91051670Y-104351079D01*
X91070883Y-104365329D01*
X91088607Y-104381393D01*
X91104671Y-104399117D01*
X91118921Y-104418330D01*
X91131218Y-104438847D01*
X91141446Y-104460471D01*
X91149504Y-104482993D01*
X91155316Y-104506197D01*
X91158826Y-104529858D01*
X91160000Y-104553750D01*
X91160000Y-105466250D01*
X91158826Y-105490142D01*
X91155316Y-105513803D01*
X91149504Y-105537007D01*
X91141446Y-105559529D01*
X91131218Y-105581153D01*
X91118921Y-105601670D01*
X91104671Y-105620883D01*
X91088607Y-105638607D01*
X91070883Y-105654671D01*
X91051670Y-105668921D01*
X91031153Y-105681218D01*
X91009529Y-105691446D01*
X90987007Y-105699504D01*
X90963803Y-105705316D01*
X90940142Y-105708826D01*
X90916250Y-105710000D01*
X90428750Y-105710000D01*
X90404858Y-105708826D01*
X90381197Y-105705316D01*
X90357993Y-105699504D01*
X90335471Y-105691446D01*
X90313847Y-105681218D01*
X90293330Y-105668921D01*
X90274117Y-105654671D01*
X90256393Y-105638607D01*
X90240329Y-105620883D01*
X90226079Y-105601670D01*
X90213782Y-105581153D01*
X90203554Y-105559529D01*
X90195496Y-105537007D01*
X90189684Y-105513803D01*
X90186174Y-105490142D01*
X90185000Y-105466250D01*
X90185000Y-104553750D01*
X90186174Y-104529858D01*
X90189684Y-104506197D01*
X90195496Y-104482993D01*
X90203554Y-104460471D01*
X90213782Y-104438847D01*
X90226079Y-104418330D01*
X90240329Y-104399117D01*
X90256393Y-104381393D01*
X90274117Y-104365329D01*
X90293330Y-104351079D01*
X90313847Y-104338782D01*
X90335471Y-104328554D01*
X90357993Y-104320496D01*
X90381197Y-104314684D01*
X90404858Y-104311174D01*
X90428750Y-104310000D01*
X90916250Y-104310000D01*
X90940142Y-104311174D01*
X90940142Y-104311174D01*
G37*
D14*
X90672500Y-105010000D03*
D13*
G36*
X90950142Y-98171174D02*
G01*
X90973803Y-98174684D01*
X90997007Y-98180496D01*
X91019529Y-98188554D01*
X91041153Y-98198782D01*
X91061670Y-98211079D01*
X91080883Y-98225329D01*
X91098607Y-98241393D01*
X91114671Y-98259117D01*
X91128921Y-98278330D01*
X91141218Y-98298847D01*
X91151446Y-98320471D01*
X91159504Y-98342993D01*
X91165316Y-98366197D01*
X91168826Y-98389858D01*
X91170000Y-98413750D01*
X91170000Y-99326250D01*
X91168826Y-99350142D01*
X91165316Y-99373803D01*
X91159504Y-99397007D01*
X91151446Y-99419529D01*
X91141218Y-99441153D01*
X91128921Y-99461670D01*
X91114671Y-99480883D01*
X91098607Y-99498607D01*
X91080883Y-99514671D01*
X91061670Y-99528921D01*
X91041153Y-99541218D01*
X91019529Y-99551446D01*
X90997007Y-99559504D01*
X90973803Y-99565316D01*
X90950142Y-99568826D01*
X90926250Y-99570000D01*
X90438750Y-99570000D01*
X90414858Y-99568826D01*
X90391197Y-99565316D01*
X90367993Y-99559504D01*
X90345471Y-99551446D01*
X90323847Y-99541218D01*
X90303330Y-99528921D01*
X90284117Y-99514671D01*
X90266393Y-99498607D01*
X90250329Y-99480883D01*
X90236079Y-99461670D01*
X90223782Y-99441153D01*
X90213554Y-99419529D01*
X90205496Y-99397007D01*
X90199684Y-99373803D01*
X90196174Y-99350142D01*
X90195000Y-99326250D01*
X90195000Y-98413750D01*
X90196174Y-98389858D01*
X90199684Y-98366197D01*
X90205496Y-98342993D01*
X90213554Y-98320471D01*
X90223782Y-98298847D01*
X90236079Y-98278330D01*
X90250329Y-98259117D01*
X90266393Y-98241393D01*
X90284117Y-98225329D01*
X90303330Y-98211079D01*
X90323847Y-98198782D01*
X90345471Y-98188554D01*
X90367993Y-98180496D01*
X90391197Y-98174684D01*
X90414858Y-98171174D01*
X90438750Y-98170000D01*
X90926250Y-98170000D01*
X90950142Y-98171174D01*
X90950142Y-98171174D01*
G37*
D14*
X90682500Y-98870000D03*
D13*
G36*
X92825142Y-98171174D02*
G01*
X92848803Y-98174684D01*
X92872007Y-98180496D01*
X92894529Y-98188554D01*
X92916153Y-98198782D01*
X92936670Y-98211079D01*
X92955883Y-98225329D01*
X92973607Y-98241393D01*
X92989671Y-98259117D01*
X93003921Y-98278330D01*
X93016218Y-98298847D01*
X93026446Y-98320471D01*
X93034504Y-98342993D01*
X93040316Y-98366197D01*
X93043826Y-98389858D01*
X93045000Y-98413750D01*
X93045000Y-99326250D01*
X93043826Y-99350142D01*
X93040316Y-99373803D01*
X93034504Y-99397007D01*
X93026446Y-99419529D01*
X93016218Y-99441153D01*
X93003921Y-99461670D01*
X92989671Y-99480883D01*
X92973607Y-99498607D01*
X92955883Y-99514671D01*
X92936670Y-99528921D01*
X92916153Y-99541218D01*
X92894529Y-99551446D01*
X92872007Y-99559504D01*
X92848803Y-99565316D01*
X92825142Y-99568826D01*
X92801250Y-99570000D01*
X92313750Y-99570000D01*
X92289858Y-99568826D01*
X92266197Y-99565316D01*
X92242993Y-99559504D01*
X92220471Y-99551446D01*
X92198847Y-99541218D01*
X92178330Y-99528921D01*
X92159117Y-99514671D01*
X92141393Y-99498607D01*
X92125329Y-99480883D01*
X92111079Y-99461670D01*
X92098782Y-99441153D01*
X92088554Y-99419529D01*
X92080496Y-99397007D01*
X92074684Y-99373803D01*
X92071174Y-99350142D01*
X92070000Y-99326250D01*
X92070000Y-98413750D01*
X92071174Y-98389858D01*
X92074684Y-98366197D01*
X92080496Y-98342993D01*
X92088554Y-98320471D01*
X92098782Y-98298847D01*
X92111079Y-98278330D01*
X92125329Y-98259117D01*
X92141393Y-98241393D01*
X92159117Y-98225329D01*
X92178330Y-98211079D01*
X92198847Y-98198782D01*
X92220471Y-98188554D01*
X92242993Y-98180496D01*
X92266197Y-98174684D01*
X92289858Y-98171174D01*
X92313750Y-98170000D01*
X92801250Y-98170000D01*
X92825142Y-98171174D01*
X92825142Y-98171174D01*
G37*
D14*
X92557500Y-98870000D03*
D13*
G36*
X90070142Y-86731174D02*
G01*
X90093803Y-86734684D01*
X90117007Y-86740496D01*
X90139529Y-86748554D01*
X90161153Y-86758782D01*
X90181670Y-86771079D01*
X90200883Y-86785329D01*
X90218607Y-86801393D01*
X90234671Y-86819117D01*
X90248921Y-86838330D01*
X90261218Y-86858847D01*
X90271446Y-86880471D01*
X90279504Y-86902993D01*
X90285316Y-86926197D01*
X90288826Y-86949858D01*
X90290000Y-86973750D01*
X90290000Y-87886250D01*
X90288826Y-87910142D01*
X90285316Y-87933803D01*
X90279504Y-87957007D01*
X90271446Y-87979529D01*
X90261218Y-88001153D01*
X90248921Y-88021670D01*
X90234671Y-88040883D01*
X90218607Y-88058607D01*
X90200883Y-88074671D01*
X90181670Y-88088921D01*
X90161153Y-88101218D01*
X90139529Y-88111446D01*
X90117007Y-88119504D01*
X90093803Y-88125316D01*
X90070142Y-88128826D01*
X90046250Y-88130000D01*
X89558750Y-88130000D01*
X89534858Y-88128826D01*
X89511197Y-88125316D01*
X89487993Y-88119504D01*
X89465471Y-88111446D01*
X89443847Y-88101218D01*
X89423330Y-88088921D01*
X89404117Y-88074671D01*
X89386393Y-88058607D01*
X89370329Y-88040883D01*
X89356079Y-88021670D01*
X89343782Y-88001153D01*
X89333554Y-87979529D01*
X89325496Y-87957007D01*
X89319684Y-87933803D01*
X89316174Y-87910142D01*
X89315000Y-87886250D01*
X89315000Y-86973750D01*
X89316174Y-86949858D01*
X89319684Y-86926197D01*
X89325496Y-86902993D01*
X89333554Y-86880471D01*
X89343782Y-86858847D01*
X89356079Y-86838330D01*
X89370329Y-86819117D01*
X89386393Y-86801393D01*
X89404117Y-86785329D01*
X89423330Y-86771079D01*
X89443847Y-86758782D01*
X89465471Y-86748554D01*
X89487993Y-86740496D01*
X89511197Y-86734684D01*
X89534858Y-86731174D01*
X89558750Y-86730000D01*
X90046250Y-86730000D01*
X90070142Y-86731174D01*
X90070142Y-86731174D01*
G37*
D14*
X89802500Y-87430000D03*
D13*
G36*
X91945142Y-86731174D02*
G01*
X91968803Y-86734684D01*
X91992007Y-86740496D01*
X92014529Y-86748554D01*
X92036153Y-86758782D01*
X92056670Y-86771079D01*
X92075883Y-86785329D01*
X92093607Y-86801393D01*
X92109671Y-86819117D01*
X92123921Y-86838330D01*
X92136218Y-86858847D01*
X92146446Y-86880471D01*
X92154504Y-86902993D01*
X92160316Y-86926197D01*
X92163826Y-86949858D01*
X92165000Y-86973750D01*
X92165000Y-87886250D01*
X92163826Y-87910142D01*
X92160316Y-87933803D01*
X92154504Y-87957007D01*
X92146446Y-87979529D01*
X92136218Y-88001153D01*
X92123921Y-88021670D01*
X92109671Y-88040883D01*
X92093607Y-88058607D01*
X92075883Y-88074671D01*
X92056670Y-88088921D01*
X92036153Y-88101218D01*
X92014529Y-88111446D01*
X91992007Y-88119504D01*
X91968803Y-88125316D01*
X91945142Y-88128826D01*
X91921250Y-88130000D01*
X91433750Y-88130000D01*
X91409858Y-88128826D01*
X91386197Y-88125316D01*
X91362993Y-88119504D01*
X91340471Y-88111446D01*
X91318847Y-88101218D01*
X91298330Y-88088921D01*
X91279117Y-88074671D01*
X91261393Y-88058607D01*
X91245329Y-88040883D01*
X91231079Y-88021670D01*
X91218782Y-88001153D01*
X91208554Y-87979529D01*
X91200496Y-87957007D01*
X91194684Y-87933803D01*
X91191174Y-87910142D01*
X91190000Y-87886250D01*
X91190000Y-86973750D01*
X91191174Y-86949858D01*
X91194684Y-86926197D01*
X91200496Y-86902993D01*
X91208554Y-86880471D01*
X91218782Y-86858847D01*
X91231079Y-86838330D01*
X91245329Y-86819117D01*
X91261393Y-86801393D01*
X91279117Y-86785329D01*
X91298330Y-86771079D01*
X91318847Y-86758782D01*
X91340471Y-86748554D01*
X91362993Y-86740496D01*
X91386197Y-86734684D01*
X91409858Y-86731174D01*
X91433750Y-86730000D01*
X91921250Y-86730000D01*
X91945142Y-86731174D01*
X91945142Y-86731174D01*
G37*
D14*
X91677500Y-87430000D03*
D13*
G36*
X90980142Y-94051174D02*
G01*
X91003803Y-94054684D01*
X91027007Y-94060496D01*
X91049529Y-94068554D01*
X91071153Y-94078782D01*
X91091670Y-94091079D01*
X91110883Y-94105329D01*
X91128607Y-94121393D01*
X91144671Y-94139117D01*
X91158921Y-94158330D01*
X91171218Y-94178847D01*
X91181446Y-94200471D01*
X91189504Y-94222993D01*
X91195316Y-94246197D01*
X91198826Y-94269858D01*
X91200000Y-94293750D01*
X91200000Y-94781250D01*
X91198826Y-94805142D01*
X91195316Y-94828803D01*
X91189504Y-94852007D01*
X91181446Y-94874529D01*
X91171218Y-94896153D01*
X91158921Y-94916670D01*
X91144671Y-94935883D01*
X91128607Y-94953607D01*
X91110883Y-94969671D01*
X91091670Y-94983921D01*
X91071153Y-94996218D01*
X91049529Y-95006446D01*
X91027007Y-95014504D01*
X91003803Y-95020316D01*
X90980142Y-95023826D01*
X90956250Y-95025000D01*
X90043750Y-95025000D01*
X90019858Y-95023826D01*
X89996197Y-95020316D01*
X89972993Y-95014504D01*
X89950471Y-95006446D01*
X89928847Y-94996218D01*
X89908330Y-94983921D01*
X89889117Y-94969671D01*
X89871393Y-94953607D01*
X89855329Y-94935883D01*
X89841079Y-94916670D01*
X89828782Y-94896153D01*
X89818554Y-94874529D01*
X89810496Y-94852007D01*
X89804684Y-94828803D01*
X89801174Y-94805142D01*
X89800000Y-94781250D01*
X89800000Y-94293750D01*
X89801174Y-94269858D01*
X89804684Y-94246197D01*
X89810496Y-94222993D01*
X89818554Y-94200471D01*
X89828782Y-94178847D01*
X89841079Y-94158330D01*
X89855329Y-94139117D01*
X89871393Y-94121393D01*
X89889117Y-94105329D01*
X89908330Y-94091079D01*
X89928847Y-94078782D01*
X89950471Y-94068554D01*
X89972993Y-94060496D01*
X89996197Y-94054684D01*
X90019858Y-94051174D01*
X90043750Y-94050000D01*
X90956250Y-94050000D01*
X90980142Y-94051174D01*
X90980142Y-94051174D01*
G37*
D14*
X90500000Y-94537500D03*
D13*
G36*
X90980142Y-92176174D02*
G01*
X91003803Y-92179684D01*
X91027007Y-92185496D01*
X91049529Y-92193554D01*
X91071153Y-92203782D01*
X91091670Y-92216079D01*
X91110883Y-92230329D01*
X91128607Y-92246393D01*
X91144671Y-92264117D01*
X91158921Y-92283330D01*
X91171218Y-92303847D01*
X91181446Y-92325471D01*
X91189504Y-92347993D01*
X91195316Y-92371197D01*
X91198826Y-92394858D01*
X91200000Y-92418750D01*
X91200000Y-92906250D01*
X91198826Y-92930142D01*
X91195316Y-92953803D01*
X91189504Y-92977007D01*
X91181446Y-92999529D01*
X91171218Y-93021153D01*
X91158921Y-93041670D01*
X91144671Y-93060883D01*
X91128607Y-93078607D01*
X91110883Y-93094671D01*
X91091670Y-93108921D01*
X91071153Y-93121218D01*
X91049529Y-93131446D01*
X91027007Y-93139504D01*
X91003803Y-93145316D01*
X90980142Y-93148826D01*
X90956250Y-93150000D01*
X90043750Y-93150000D01*
X90019858Y-93148826D01*
X89996197Y-93145316D01*
X89972993Y-93139504D01*
X89950471Y-93131446D01*
X89928847Y-93121218D01*
X89908330Y-93108921D01*
X89889117Y-93094671D01*
X89871393Y-93078607D01*
X89855329Y-93060883D01*
X89841079Y-93041670D01*
X89828782Y-93021153D01*
X89818554Y-92999529D01*
X89810496Y-92977007D01*
X89804684Y-92953803D01*
X89801174Y-92930142D01*
X89800000Y-92906250D01*
X89800000Y-92418750D01*
X89801174Y-92394858D01*
X89804684Y-92371197D01*
X89810496Y-92347993D01*
X89818554Y-92325471D01*
X89828782Y-92303847D01*
X89841079Y-92283330D01*
X89855329Y-92264117D01*
X89871393Y-92246393D01*
X89889117Y-92230329D01*
X89908330Y-92216079D01*
X89928847Y-92203782D01*
X89950471Y-92193554D01*
X89972993Y-92185496D01*
X89996197Y-92179684D01*
X90019858Y-92176174D01*
X90043750Y-92175000D01*
X90956250Y-92175000D01*
X90980142Y-92176174D01*
X90980142Y-92176174D01*
G37*
D14*
X90500000Y-92662500D03*
D13*
G36*
X97525142Y-96381174D02*
G01*
X97548803Y-96384684D01*
X97572007Y-96390496D01*
X97594529Y-96398554D01*
X97616153Y-96408782D01*
X97636670Y-96421079D01*
X97655883Y-96435329D01*
X97673607Y-96451393D01*
X97689671Y-96469117D01*
X97703921Y-96488330D01*
X97716218Y-96508847D01*
X97726446Y-96530471D01*
X97734504Y-96552993D01*
X97740316Y-96576197D01*
X97743826Y-96599858D01*
X97745000Y-96623750D01*
X97745000Y-97536250D01*
X97743826Y-97560142D01*
X97740316Y-97583803D01*
X97734504Y-97607007D01*
X97726446Y-97629529D01*
X97716218Y-97651153D01*
X97703921Y-97671670D01*
X97689671Y-97690883D01*
X97673607Y-97708607D01*
X97655883Y-97724671D01*
X97636670Y-97738921D01*
X97616153Y-97751218D01*
X97594529Y-97761446D01*
X97572007Y-97769504D01*
X97548803Y-97775316D01*
X97525142Y-97778826D01*
X97501250Y-97780000D01*
X97013750Y-97780000D01*
X96989858Y-97778826D01*
X96966197Y-97775316D01*
X96942993Y-97769504D01*
X96920471Y-97761446D01*
X96898847Y-97751218D01*
X96878330Y-97738921D01*
X96859117Y-97724671D01*
X96841393Y-97708607D01*
X96825329Y-97690883D01*
X96811079Y-97671670D01*
X96798782Y-97651153D01*
X96788554Y-97629529D01*
X96780496Y-97607007D01*
X96774684Y-97583803D01*
X96771174Y-97560142D01*
X96770000Y-97536250D01*
X96770000Y-96623750D01*
X96771174Y-96599858D01*
X96774684Y-96576197D01*
X96780496Y-96552993D01*
X96788554Y-96530471D01*
X96798782Y-96508847D01*
X96811079Y-96488330D01*
X96825329Y-96469117D01*
X96841393Y-96451393D01*
X96859117Y-96435329D01*
X96878330Y-96421079D01*
X96898847Y-96408782D01*
X96920471Y-96398554D01*
X96942993Y-96390496D01*
X96966197Y-96384684D01*
X96989858Y-96381174D01*
X97013750Y-96380000D01*
X97501250Y-96380000D01*
X97525142Y-96381174D01*
X97525142Y-96381174D01*
G37*
D14*
X97257500Y-97080000D03*
D13*
G36*
X95650142Y-96381174D02*
G01*
X95673803Y-96384684D01*
X95697007Y-96390496D01*
X95719529Y-96398554D01*
X95741153Y-96408782D01*
X95761670Y-96421079D01*
X95780883Y-96435329D01*
X95798607Y-96451393D01*
X95814671Y-96469117D01*
X95828921Y-96488330D01*
X95841218Y-96508847D01*
X95851446Y-96530471D01*
X95859504Y-96552993D01*
X95865316Y-96576197D01*
X95868826Y-96599858D01*
X95870000Y-96623750D01*
X95870000Y-97536250D01*
X95868826Y-97560142D01*
X95865316Y-97583803D01*
X95859504Y-97607007D01*
X95851446Y-97629529D01*
X95841218Y-97651153D01*
X95828921Y-97671670D01*
X95814671Y-97690883D01*
X95798607Y-97708607D01*
X95780883Y-97724671D01*
X95761670Y-97738921D01*
X95741153Y-97751218D01*
X95719529Y-97761446D01*
X95697007Y-97769504D01*
X95673803Y-97775316D01*
X95650142Y-97778826D01*
X95626250Y-97780000D01*
X95138750Y-97780000D01*
X95114858Y-97778826D01*
X95091197Y-97775316D01*
X95067993Y-97769504D01*
X95045471Y-97761446D01*
X95023847Y-97751218D01*
X95003330Y-97738921D01*
X94984117Y-97724671D01*
X94966393Y-97708607D01*
X94950329Y-97690883D01*
X94936079Y-97671670D01*
X94923782Y-97651153D01*
X94913554Y-97629529D01*
X94905496Y-97607007D01*
X94899684Y-97583803D01*
X94896174Y-97560142D01*
X94895000Y-97536250D01*
X94895000Y-96623750D01*
X94896174Y-96599858D01*
X94899684Y-96576197D01*
X94905496Y-96552993D01*
X94913554Y-96530471D01*
X94923782Y-96508847D01*
X94936079Y-96488330D01*
X94950329Y-96469117D01*
X94966393Y-96451393D01*
X94984117Y-96435329D01*
X95003330Y-96421079D01*
X95023847Y-96408782D01*
X95045471Y-96398554D01*
X95067993Y-96390496D01*
X95091197Y-96384684D01*
X95114858Y-96381174D01*
X95138750Y-96380000D01*
X95626250Y-96380000D01*
X95650142Y-96381174D01*
X95650142Y-96381174D01*
G37*
D14*
X95382500Y-97080000D03*
M02*
